<?xml version="1.0" encoding="utf-8"?>
<!-- Generator: Adobe Illustrator 26.0.2, SVG Export Plug-In . SVG Version: 6.00 Build 0)  -->
<svg version="1.1" id="Capa_1" xmlns="http://www.w3.org/2000/svg" xmlns:xlink="http://www.w3.org/1999/xlink" x="0px" y="0px"
	 viewBox="0 0 1920 1080" style="enable-background:new 0 0 1920 1080;" xml:space="preserve">
<style type="text/css">
	.st0{fill:#FFFFFF;}
	.st1{fill:#003D75;}
	.st2{fill:#024078;}
	.st3{fill:#04437B;}
	.st4{fill:#05467E;}
	.st5{fill:#074981;}
	.st6{fill:#094C84;}
	.st7{fill:#0B5087;}
	.st8{fill:#0D5389;}
	.st9{fill:#0F568C;}
	.st10{fill:#10598F;}
	.st11{fill:#125C92;}
	.st12{fill:#145F95;}
	.st13{fill:#166298;}
	.st14{fill:#18659B;}
	.st15{fill:#1A689E;}
	.st16{fill:#1B6BA1;}
	.st17{fill:#1D6FA4;}
	.st18{fill:#1F72A7;}
	.st19{fill:#2175AA;}
	.st20{fill:#2378AD;}
	.st21{fill:#257BB0;}
	.st22{fill:#267EB2;}
	.st23{fill:#2881B5;}
	.st24{fill:#2A84B8;}
	.st25{fill:#2C87BB;}
	.st26{fill:#2E8ABE;}
	.st27{fill:#308EC1;}
	.st28{fill:#3191C4;}
	.st29{fill:#3394C7;}
	.st30{fill:#3597CA;}
	.st31{fill:#379ACD;}
	.st32{fill:#399DD0;}
	.st33{fill:#3BA0D3;}
	.st34{fill:#3CA3D6;}
	.st35{fill:#3EA6D9;}
	.st36{fill:#40A9DB;}
	.st37{fill:#42ADDE;}
	.st38{fill:#44B0E1;}
	.st39{fill:#46B3E4;}
	.st40{fill:#47B6E7;}
	.st41{fill:#49B9EA;}
	.st42{fill:#4BBCED;}
	.st43{fill:#E8F2FA;}
	.st44{opacity:0.8;}
	.st45{opacity:0.69;fill:#29ACE3;enable-background:new    ;}
	.st46{opacity:0.5;fill:#29ACE3;enable-background:new    ;}
	.st47{fill:#9CCC98;}
	.st48{fill:#F5A977;}
	.st49{fill:#193257;}
	.st50{fill:#224E9A;}
	.st51{fill:#1F3865;}
	.st52{fill:#01263D;}
	.st53{fill:#F29154;}
	.st54{fill:#293967;}
	.st55{fill:#ACBFE3;}
	.st56{fill:#F18E37;}
	.st57{fill:#7392CB;}
	.st58{fill:#ED750F;}
	.st59{fill:#DFF0F4;}
	.st60{opacity:0.3;fill:#29ACE3;enable-background:new    ;}
	.st61{fill:#E6F2FC;}
	.st62{fill:#E4EDF9;}
	.st63{fill:#153D68;}
	.st64{fill:#0E457F;}
	.st65{fill:#F39B64;}
	.st66{fill:#1B3660;}
	.st67{fill:#084D88;}
	.st68{opacity:0.5;}
	.st69{fill:#AECCEC;}
	.st70{fill:#F29053;}
	.st71{fill:#114481;}
	.st72{fill:#F18E4E;}
</style>
<g>
	<g>
		<path class="st0" d="M948.9,584.3l5.4-3.5c0.4-0.3,1-0.3,1.5,0c0.6,0.4,1.2,0.8,1.8,1.1c1.1,0.6,2.3,1.2,3.5,1.6
			c0.5,0.2,0.9,0.7,1,1.3l0.5,7.1c0,0.8,0.6,1.4,1.4,1.4l6.1,0.3c0.7,0,1.3-0.5,1.3-1.2l0.7-6.5c0.1-0.6,0.5-1.1,1.1-1.2
			c2.5-0.4,5-1.3,7.3-2.6c0.5-0.3,1.3-0.2,1.7,0.3l2.6,3c0.5,0.6,1.3,0.7,1.9,0.2l4.8-3.7c0.1-0.1,0.2-0.2,0.3-0.3
			c0.4-0.5,0.4-1.1,0.1-1.7l-2.5-4.4l-0.6-1.1c0.6-1,1.2-2,1.7-3.1c0.7-1.5,1.3-3,1.7-4.5c0.2-0.6,0.6-1,1.2-1l5.3-0.3
			c0.7,0,1.3-0.7,1.3-1.4v-5v-1.4c0-0.8-0.5-1.5-1.3-1.6l-5.1-0.8c-0.6-0.1-1.1-0.6-1.2-1.2c-0.4-1.8-0.9-3.6-1.7-5.3
			c-0.1-0.2-0.1-0.3-0.2-0.4c0,0,0-0.1-0.1-0.1c-0.2-0.6,0-1.2,0.4-1.6l4.4-4.3c0.1,0,0.1-0.1,0.1-0.2c0.4-0.5,0.4-1.3,0-1.8
			l-3.6-5.2c-0.4-0.6-1.2-0.8-1.9-0.4l-5.6,3.6c-0.5,0.3-1.1,0.3-1.5-0.1c-1-0.8-2.1-1.5-3.2-2.2c-0.6-0.3-1.2-0.7-1.8-0.9
			c-0.5-0.2-0.9-0.7-0.9-1.3l-0.5-6.8c-0.1-0.8-0.6-1.4-1.3-1.4l-6-0.2c-0.7,0-1.3,0.5-1.4,1.3l-0.6,5.1c-0.1,0.7-0.6,1.2-1.2,1.3
			c-2.5,0.2-5,0.9-7.3,1.9c-0.5,0.3-1.2,0.1-1.6-0.4l-3.7-4.4c-0.5-0.6-1.3-0.7-1.9-0.2l-4.8,3.7c-0.6,0.4-0.7,1.3-0.3,2l0.1,0.3
			l3,5.1c0.3,0.5,0.3,1.2-0.1,1.7l0,0c-0.8,1.2-1.6,2.5-2.3,3.9c-0.4,0.7-0.7,1.5-0.9,2.2c-0.2,0.5-0.6,0.9-1.2,0.9l-5.4,0.3
			c-0.7,0-1.3,0.7-1.3,1.5v6.4c0,0.2,0,0.4,0.1,0.5c0.2,0.5,0.6,0.9,1.2,1l4.1,0.6c0.5,0.1,0.9,0.4,1.1,0.9c0,0.1,0.1,0.3,0.1,0.4
			c0.4,3.5,1.5,6.8,3.1,9.9c0.3,0.5,0.2,1.2-0.1,1.6c0,0.1-0.1,0.1-0.2,0.2l-3.6,3.5c-0.5,0.5-0.6,1.4-0.2,2l0.1,0.1l3.5,5.1
			C947.5,584.6,948.3,584.7,948.9,584.3z M977.4,549.2c0.7,0.7,1.4,1.5,2,2.5c1.2,1.8,2.2,5,2.2,7.2c0,0.2,0,0.5,0,0.7
			c-0.5,13.9-16.1,18.8-24.2,7.3c-1.1-1.5-1.9-4-2.2-6.1c-0.1-0.5-0.1-1-0.1-1.4c0-2,0.3-3.8,0.9-5.4
			C959.2,544.8,970.2,542,977.4,549.2z"/>
	</g>
	<g>
		<g>
			<g>
				<g>
					<path class="st1" d="M1317.4,819.6H620.7c-21.1,0-38.1-17.1-38.1-38.1v-6.3c0-21.1,17.1-38.1,38.1-38.1h696.8
						c21.1,0,38.1,17.1,38.1,38.1v6.3C1355.6,802.5,1338.6,819.6,1317.4,819.6z"/>
				</g>
				<path class="st2" d="M1317.3,819.4H620.5c-21.1,0-38.1-17.1-38.1-38.1V775c0-21.1,17.1-38.1,38.1-38.1h696.8
					c21.1,0,38.1,17.1,38.1,38.1v6.3C1355.4,802.3,1338.4,819.4,1317.3,819.4z"/>
				<path class="st3" d="M1317.1,819.1H620.3c-21.1,0-38.1-17.1-38.1-38.1v-6.3c0-21.1,17.1-38.1,38.1-38.1h696.8
					c21.1,0,38.1,17.1,38.1,38.1v6.3C1355.2,802,1338.2,819.1,1317.1,819.1z"/>
				<path class="st4" d="M1316.9,818.8H620.1c-21.1,0-38.1-17.1-38.1-38.1v-6.3c0-21.1,17.1-38.1,38.1-38.1h696.8
					c21.1,0,38.1,17.1,38.1,38.1v6.3C1355,801.7,1338,818.8,1316.9,818.8z"/>
				<path class="st5" d="M1316.7,818.6H619.9c-21.1,0-38.1-17.1-38.1-38.1v-6.3c0-21.1,17.1-38.1,38.1-38.1h696.8
					c21.1,0,38.1,17.1,38.1,38.1v6.3C1354.8,801.5,1337.8,818.6,1316.7,818.6z"/>
				<path class="st6" d="M1316.6,818.3H619.8c-21.1,0-38.1-17.1-38.1-38.1v-6.3c0-21.1,17.1-38.1,38.1-38.1h696.8
					c21.1,0,38.1,17.1,38.1,38.1v6.3C1354.7,801.2,1337.7,818.3,1316.6,818.3z"/>
				<path class="st7" d="M1316.4,818H619.6c-21.1,0-38.1-17.1-38.1-38.1v-6.3c0-21.1,17.1-38.1,38.1-38.1h696.8
					c21.1,0,38.1,17.1,38.1,38.1v6.3C1354.5,800.9,1337.5,818,1316.4,818z"/>
				<path class="st8" d="M1316.2,817.8H619.4c-21.1,0-38.1-17.1-38.1-38.1v-6.3c0-21.1,17.1-38.1,38.1-38.1h696.8
					c21.1,0,38.1,17.1,38.1,38.1v6.3C1354.3,800.7,1337.3,817.8,1316.2,817.8z"/>
				<path class="st9" d="M1316,817.5H619.2c-21.1,0-38.1-17.1-38.1-38.1v-6.3c0-21.1,17.1-38.1,38.1-38.1H1316
					c21.1,0,38.1,17.1,38.1,38.1v6.3C1354.1,800.4,1337.1,817.5,1316,817.5z"/>
				<path class="st10" d="M1315.8,817.2H619c-21.1,0-38.1-17.1-38.1-38.1v-6.3c0-21.1,17.1-38.1,38.1-38.1h696.8
					c21.1,0,38.1,17.1,38.1,38.1v6.3C1353.9,800.1,1336.9,817.2,1315.8,817.2z"/>
				<path class="st11" d="M1315.7,817H618.9c-21.1,0-38.1-17.1-38.1-38.1v-6.3c0-21.1,17.1-38.1,38.1-38.1h696.8
					c21.1,0,38.1,17.1,38.1,38.1v6.3C1353.8,799.9,1336.8,817,1315.7,817z"/>
				<path class="st12" d="M1315.5,816.7H618.7c-21.1,0-38.1-17.1-38.1-38.1v-6.3c0-21.1,17.1-38.1,38.1-38.1h696.8
					c21.1,0,38.1,17.1,38.1,38.1v6.3C1353.6,799.6,1336.6,816.7,1315.5,816.7z"/>
				<path class="st13" d="M1315.3,816.4H618.5c-21.1,0-38.1-17.1-38.1-38.1V772c0-21.1,17.1-38.1,38.1-38.1h696.8
					c21.1,0,38.1,17.1,38.1,38.1v6.3C1353.4,799.3,1336.4,816.4,1315.3,816.4z"/>
				<path class="st14" d="M1315.1,816.2H618.3c-21.1,0-38.1-17.1-38.1-38.1v-6.3c0-21.1,17.1-38.1,38.1-38.1h696.8
					c21.1,0,38.1,17.1,38.1,38.1v6.3C1353.2,799.1,1336.2,816.2,1315.1,816.2z"/>
				<path class="st15" d="M1314.9,815.9H618.1c-21.1,0-38.1-17.1-38.1-38.1v-6.3c0-21.1,17.1-38.1,38.1-38.1h696.8
					c21.1,0,38.1,17.1,38.1,38.1v6.3C1353,798.8,1336,815.9,1314.9,815.9z"/>
				<path class="st16" d="M1314.8,815.6H618c-21.1,0-38.1-17.1-38.1-38.1v-6.3c0-21.1,17.1-38.1,38.1-38.1h696.8
					c21.1,0,38.1,17.1,38.1,38.1v6.3C1352.9,798.5,1335.9,815.6,1314.8,815.6z"/>
				<path class="st17" d="M1314.6,815.4H617.8c-21.1,0-38.1-17.1-38.1-38.1V771c0-21.1,17.1-38.1,38.1-38.1h696.8
					c21.1,0,38.1,17.1,38.1,38.1v6.3C1352.7,798.3,1335.7,815.4,1314.6,815.4z"/>
				<path class="st18" d="M1314.4,815.1H617.6c-21.1,0-38.1-17.1-38.1-38.1v-6.3c0-21.1,17.1-38.1,38.1-38.1h696.8
					c21.1,0,38.1,17.1,38.1,38.1v6.3C1352.5,798,1335.5,815.1,1314.4,815.1z"/>
				<path class="st19" d="M1314.2,814.8H617.4c-21.1,0-38.1-17.1-38.1-38.1v-6.3c0-21.1,17.1-38.1,38.1-38.1h696.8
					c21.1,0,38.1,17.1,38.1,38.1v6.3C1352.3,797.7,1335.3,814.8,1314.2,814.8z"/>
				<path class="st20" d="M1314,814.6H617.2c-21.1,0-38.1-17.1-38.1-38.1v-6.3c0-21.1,17.1-38.1,38.1-38.1H1314
					c21.1,0,38.1,17.1,38.1,38.1v6.3C1352.1,797.5,1335.1,814.6,1314,814.6z"/>
				<path class="st21" d="M1313.9,814.3H617.1c-21.1,0-38.1-17.1-38.1-38.1v-6.3c0-21.1,17.1-38.1,38.1-38.1h696.8
					c21.1,0,38.1,17.1,38.1,38.1v6.3C1352,797.2,1335,814.3,1313.9,814.3z"/>
				<path class="st22" d="M1313.7,814H616.9c-21.1,0-38.1-17.1-38.1-38.1v-6.3c0-21.1,17.1-38.1,38.1-38.1h696.8
					c21.1,0,38.1,17.1,38.1,38.1v6.3C1351.8,796.9,1334.8,814,1313.7,814z"/>
				<path class="st23" d="M1313.5,813.8H616.7c-21.1,0-38.1-17.1-38.1-38.1v-6.3c0-21.1,17.1-38.1,38.1-38.1h696.8
					c21.1,0,38.1,17.1,38.1,38.1v6.3C1351.6,796.7,1334.6,813.8,1313.5,813.8z"/>
				<path class="st24" d="M1313.3,813.5H616.5c-21.1,0-38.1-17.1-38.1-38.1v-6.3c0-21.1,17.1-38.1,38.1-38.1h696.8
					c21.1,0,38.1,17.1,38.1,38.1v6.3C1351.4,796.4,1334.4,813.5,1313.3,813.5z"/>
				<path class="st25" d="M1313.1,813.2H616.3c-21.1,0-38.1-17.1-38.1-38.1v-6.3c0-21.1,17.1-38.1,38.1-38.1h696.8
					c21.1,0,38.1,17.1,38.1,38.1v6.3C1351.2,796.1,1334.2,813.2,1313.1,813.2z"/>
				<path class="st26" d="M1313,813H616.2c-21.1,0-38.1-17.1-38.1-38.1v-6.3c0-21.1,17.1-38.1,38.1-38.1H1313
					c21.1,0,38.1,17.1,38.1,38.1v6.3C1351.1,795.9,1334.1,813,1313,813z"/>
				<path class="st27" d="M1312.8,812.7H616c-21.1,0-38.1-17.1-38.1-38.1v-6.3c0-21.1,17.1-38.1,38.1-38.1h696.8
					c21.1,0,38.1,17.1,38.1,38.1v6.3C1350.9,795.6,1333.9,812.7,1312.8,812.7z"/>
				<path class="st28" d="M1312.6,812.4H615.8c-21.1,0-38.1-17.1-38.1-38.1V768c0-21.1,17.1-38.1,38.1-38.1h696.8
					c21.1,0,38.1,17.1,38.1,38.1v6.3C1350.7,795.3,1333.7,812.4,1312.6,812.4z"/>
				<path class="st29" d="M1312.4,812.2H615.6c-21.1,0-38.1-17.1-38.1-38.1v-6.3c0-21.1,17.1-38.1,38.1-38.1h696.8
					c21.1,0,38.1,17.1,38.1,38.1v6.3C1350.5,795.1,1333.5,812.2,1312.4,812.2z"/>
				<path class="st30" d="M1312.3,811.9H615.5c-21.1,0-38.1-17.1-38.1-38.1v-6.3c0-21.1,17.1-38.1,38.1-38.1h696.8
					c21.1,0,38.1,17.1,38.1,38.1v6.3C1350.4,794.8,1333.4,811.9,1312.3,811.9z"/>
				<path class="st31" d="M1312.1,811.6H615.3c-21.1,0-38.1-17.1-38.1-38.1v-6.3c0-21.1,17.1-38.1,38.1-38.1h696.8
					c21.1,0,38.1,17.1,38.1,38.1v6.3C1350.2,794.5,1333.2,811.6,1312.1,811.6z"/>
				<path class="st32" d="M1311.9,811.4H615.1c-21.1,0-38.1-17.1-38.1-38.1V767c0-21.1,17.1-38.1,38.1-38.1h696.8
					c21.1,0,38.1,17.1,38.1,38.1v6.3C1350,794.3,1333,811.4,1311.9,811.4z"/>
				<path class="st33" d="M1311.7,811.1H614.9c-21.1,0-38.1-17.1-38.1-38.1v-6.3c0-21.1,17.1-38.1,38.1-38.1h696.8
					c21.1,0,38.1,17.1,38.1,38.1v6.3C1349.8,794,1332.8,811.1,1311.7,811.1z"/>
				<path class="st34" d="M1311.5,810.8H614.7c-21.1,0-38.1-17.1-38.1-38.1v-6.3c0-21.1,17.1-38.1,38.1-38.1h696.8
					c21.1,0,38.1,17.1,38.1,38.1v6.3C1349.6,793.7,1332.6,810.8,1311.5,810.8z"/>
				<path class="st35" d="M1311.4,810.6H614.6c-21.1,0-38.1-17.1-38.1-38.1v-6.3c0-21.1,17.1-38.1,38.1-38.1h696.8
					c21.1,0,38.1,17.1,38.1,38.1v6.3C1349.5,793.5,1332.5,810.6,1311.4,810.6z"/>
				<path class="st36" d="M1311.2,810.3H614.4c-21.1,0-38.1-17.1-38.1-38.1v-6.3c0-21.1,17.1-38.1,38.1-38.1h696.8
					c21.1,0,38.1,17.1,38.1,38.1v6.3C1349.3,793.2,1332.3,810.3,1311.2,810.3z"/>
				<path class="st37" d="M1311,810H614.2c-21.1,0-38.1-17.1-38.1-38.1v-6.3c0-21.1,17.1-38.1,38.1-38.1H1311
					c21.1,0,38.1,17.1,38.1,38.1v6.3C1349.1,792.9,1332.1,810,1311,810z"/>
				<path class="st38" d="M1310.8,809.8H614c-21.1,0-38.1-17.1-38.1-38.1v-6.3c0-21.1,17.1-38.1,38.1-38.1h696.8
					c21.1,0,38.1,17.1,38.1,38.1v6.3C1348.9,792.7,1331.9,809.8,1310.8,809.8z"/>
				<path class="st39" d="M1310.6,809.5H613.8c-21.1,0-38.1-17.1-38.1-38.1v-6.3c0-21.1,17.1-38.1,38.1-38.1h696.8
					c21.1,0,38.1,17.1,38.1,38.1v6.3C1348.7,792.4,1331.7,809.5,1310.6,809.5z"/>
				<path class="st40" d="M1310.5,809.2H613.7c-21.1,0-38.1-17.1-38.1-38.1v-6.3c0-21.1,17.1-38.1,38.1-38.1h696.8
					c21.1,0,38.1,17.1,38.1,38.1v6.3C1348.6,792.1,1331.6,809.2,1310.5,809.2z"/>
				<path class="st41" d="M1310.3,809H613.5c-21.1,0-38.1-17.1-38.1-38.1v-6.3c0-21.1,17.1-38.1,38.1-38.1h696.8
					c21.1,0,38.1,17.1,38.1,38.1v6.3C1348.4,791.9,1331.4,809,1310.3,809z"/>
				<g>
					<path class="st42" d="M1310.1,808.7H613.3c-21.1,0-38.1-17.1-38.1-38.1v-6.3c0-21.1,17.1-38.1,38.1-38.1h696.8
						c21.1,0,38.1,17.1,38.1,38.1v6.3C1348.2,791.6,1331.2,808.7,1310.1,808.7z"/>
				</g>
			</g>
			<g>
				<g>
					<path class="st0" d="M607.3,742.2h6.8v36.4h21.2v6.5h-28V742.2z"/>
					<path class="st0" d="M639.4,772.4c0-2.5,0.6-4.8,1.8-6.8s2.9-3.6,5-4.8s4.6-1.7,7.3-1.7s5.1,0.6,7.2,1.7
						c2.1,1.2,3.7,2.7,4.8,4.7c1.2,2,1.7,4.3,1.7,6.8c0,2.6-0.6,4.8-1.7,6.9c-1.2,2-2.8,3.6-4.8,4.8c-2.1,1.2-4.5,1.8-7.3,1.8
						c-2.7,0-5-0.5-7.1-1.6s-3.7-2.6-5-4.6C640,777.5,639.4,775.1,639.4,772.4z M646,772.4c0,1.5,0.3,2.8,1,4
						c0.6,1.2,1.5,2.1,2.6,2.8s2.3,1,3.7,1c1.5,0,2.7-0.3,3.8-1s1.9-1.6,2.6-2.8c0.6-1.2,0.9-2.5,0.9-4s-0.3-2.8-0.9-4
						c-0.6-1.2-1.5-2.1-2.6-2.9c-1.1-0.7-2.3-1.1-3.7-1.1s-2.7,0.4-3.7,1.1c-1.1,0.7-1.9,1.7-2.6,2.9
						C646.3,769.6,646,770.9,646,772.4z"/>
					<path class="st0" d="M697.2,785.6c-1.9,0-3.7-0.3-5.4-1s-3.1-1.7-4.3-2.9l2.8-3.7c1.1,1,2.2,1.8,3.3,2.3s2.1,0.7,3.1,0.7
						c0.7,0,1.4-0.1,2-0.2c0.6-0.2,1.1-0.4,1.4-0.9c0.4-0.4,0.5-1,0.5-1.6c0-0.8-0.3-1.4-0.8-1.9s-1.2-0.8-2.1-1.1
						c-0.9-0.3-1.8-0.6-2.7-0.9c-2.2-0.7-3.8-1.6-4.8-2.9c-1.1-1.3-1.6-2.8-1.6-4.5c0-1.3,0.3-2.6,1-3.8s1.7-2.2,3.1-3
						c1.4-0.8,3.1-1.1,5.2-1.1c1.8,0,3.5,0.2,4.9,0.6c1.4,0.4,2.7,1.1,3.9,2.1l-2.5,4c-0.7-0.7-1.6-1.2-2.5-1.6
						c-0.9-0.4-1.8-0.6-2.6-0.6c-0.7,0-1.3,0.1-1.9,0.3c-0.6,0.2-1,0.5-1.3,0.9s-0.5,0.8-0.5,1.4c0,0.8,0.2,1.4,0.8,1.9
						s1.3,0.8,2.2,1.1s1.8,0.6,2.7,0.9c1.2,0.4,2.2,0.8,3.2,1.4c0.9,0.6,1.7,1.4,2.2,2.3c0.5,0.9,0.8,2,0.8,3.3
						c0,1.5-0.4,2.9-1.1,4.2c-0.7,1.3-1.9,2.4-3.4,3.2C701.4,785.2,699.5,785.6,697.2,785.6z"/>
					<path class="st0" d="M724.8,785.7c-2.9,0-5.4-0.6-7.5-1.7c-2.1-1.1-3.7-2.7-4.8-4.7s-1.6-4.3-1.6-6.9c0-2.5,0.6-4.7,1.9-6.7
						c1.3-2,3-3.6,5.1-4.8s4.5-1.8,7.1-1.8c3.4,0,6.2,1,8.5,3c2.2,2,3.7,4.8,4.4,8.4l-20.1,6.8l-1.5-3.7L732,768l-1.3,0.8
						c-0.4-1.1-1.1-2.2-2.1-3c-1-0.9-2.3-1.3-4.1-1.3c-1.4,0-2.6,0.3-3.7,1s-1.9,1.6-2.5,2.7c-0.6,1.2-0.9,2.5-0.9,4
						c0,1.7,0.3,3.1,1,4.3c0.6,1.2,1.6,2.1,2.7,2.8c1.2,0.6,2.5,1,3.9,1c1,0,2-0.2,2.9-0.5c0.9-0.4,1.8-0.8,2.7-1.4l3,4.9
						c-1.3,0.8-2.8,1.5-4.3,2S726.3,785.7,724.8,785.7z"/>
					<path class="st0" d="M748.7,760.2l0.6,5.4l-0.2-0.7c0.8-1.7,2.1-3.1,3.8-4.2c1.7-1,3.8-1.6,6.1-1.6s4.3,0.7,5.8,2.1
						c1.5,1.4,2.3,3.2,2.4,5.4v18.6h-6.6v-16.1c0-1.3-0.4-2.3-1.1-3c-0.7-0.8-1.7-1.2-3.2-1.2c-1.3,0-2.5,0.4-3.6,1.2
						s-1.9,1.9-2.5,3.3c-0.6,1.4-0.9,3-0.9,4.9v11h-6.6v-24.9h6V760.2z"/>
					<path class="st0" d="M777,749.2h6.7v11h6.5v5.2h-6.5v19.7H777v-19.7h-4.2v-5.2h4.2V749.2z"/>
					<path class="st0" d="M794.7,751.1c0-1,0.4-1.8,1.2-2.5s1.7-1,2.6-1s1.8,0.3,2.6,1s1.1,1.5,1.1,2.5c0,1.1-0.4,1.9-1.1,2.6
						c-0.8,0.6-1.6,1-2.6,1s-1.8-0.3-2.6-1C795.1,753.1,794.7,752.2,794.7,751.1z M795,760.2h6.6v24.9H795V760.2z"/>
					<path class="st0" d="M814.9,760.2l0.5,5.1l-0.2-0.4c0.9-1.8,2.2-3.2,3.9-4.2c1.6-1,3.5-1.5,5.6-1.5c1.4,0,2.7,0.2,3.7,0.6
						c1.1,0.4,2,1,2.7,1.8s1.2,1.8,1.4,3l-0.3,0.2c1-1.7,2.3-3.1,3.9-4.1c1.6-1,3.3-1.5,5.1-1.5c2.5,0,4.4,0.7,5.8,2.1
						c1.4,1.4,2.2,3.2,2.2,5.4v18.6h-6.5v-16c0-1.2-0.3-2.2-0.8-3s-1.4-1.2-2.6-1.3c-1.4,0-2.6,0.4-3.7,1.3c-1,0.9-1.8,2-2.4,3.4
						c-0.6,1.4-0.8,2.9-0.8,4.4v11.2h-6.7v-16c0-1.2-0.3-2.2-0.8-3s-1.4-1.2-2.7-1.3c-1.4,0-2.6,0.4-3.6,1.3c-1,0.9-1.8,2-2.4,3.4
						c-0.6,1.4-0.8,2.9-0.8,4.4v11.1H809v-24.9L814.9,760.2L814.9,760.2z"/>
					<path class="st0" d="M854.8,772.4c0-2.5,0.6-4.8,1.8-6.8s2.9-3.6,5-4.8s4.6-1.7,7.3-1.7s5.1,0.6,7.2,1.7
						c2.1,1.2,3.7,2.7,4.8,4.7c1.2,2,1.7,4.3,1.7,6.8c0,2.6-0.6,4.8-1.7,6.9c-1.2,2-2.8,3.6-4.8,4.8c-2.1,1.2-4.5,1.8-7.3,1.8
						c-2.7,0-5-0.5-7.1-1.6s-3.7-2.6-5-4.6C855.4,777.5,854.8,775.1,854.8,772.4z M861.4,772.4c0,1.5,0.3,2.8,1,4
						c0.6,1.2,1.5,2.1,2.6,2.8s2.3,1,3.7,1c1.5,0,2.7-0.3,3.8-1s1.9-1.6,2.6-2.8c0.6-1.2,0.9-2.5,0.9-4s-0.3-2.8-0.9-4
						c-0.6-1.2-1.5-2.1-2.6-2.9c-1.1-0.7-2.3-1.1-3.7-1.1s-2.7,0.4-3.7,1.1c-1.1,0.7-1.9,1.7-2.6,2.9
						C861.7,769.6,861.4,770.9,861.4,772.4z"/>
					<path class="st0" d="M895.4,785.6c-1.9,0-3.7-0.3-5.4-1s-3.1-1.7-4.3-2.9l2.8-3.7c1.1,1,2.2,1.8,3.3,2.3s2.1,0.7,3.1,0.7
						c0.7,0,1.4-0.1,2-0.2c0.6-0.2,1.1-0.4,1.4-0.9c0.4-0.4,0.5-1,0.5-1.6c0-0.8-0.3-1.4-0.8-1.9s-1.2-0.8-2.1-1.1
						c-0.9-0.3-1.8-0.6-2.7-0.9c-2.2-0.7-3.8-1.6-4.8-2.9c-1.1-1.3-1.6-2.8-1.6-4.5c0-1.3,0.3-2.6,1-3.8s1.7-2.2,3.1-3
						c1.4-0.8,3.1-1.1,5.2-1.1c1.8,0,3.5,0.2,4.9,0.6c1.4,0.4,2.7,1.1,3.9,2.1l-2.5,4c-0.7-0.7-1.6-1.2-2.5-1.6
						c-0.9-0.4-1.8-0.6-2.6-0.6c-0.7,0-1.3,0.1-1.9,0.3c-0.6,0.2-1,0.5-1.3,0.9s-0.5,0.8-0.5,1.4c0,0.8,0.2,1.4,0.8,1.9
						s1.3,0.8,2.2,1.1s1.8,0.6,2.7,0.9c1.2,0.4,2.2,0.8,3.2,1.4c0.9,0.6,1.7,1.4,2.2,2.3c0.5,0.9,0.8,2,0.8,3.3
						c0,1.5-0.4,2.9-1.1,4.2c-0.7,1.3-1.9,2.4-3.4,3.2C899.5,785.2,897.7,785.6,895.4,785.6z"/>
					<path class="st0" d="M916.9,780c-0.9,2-1.7,4.1-2.6,6.1c-0.8,2-1.7,4.1-2.6,6.1h-5.3c0.8-2,1.6-4.1,2.3-6.1s1.5-4.1,2.3-6.1
						H916.9z"/>
					<path class="st0" d="M949.2,785.7c-2.4,0-4.5-0.5-6.4-1.5s-3.4-2.4-4.5-4.4c-1.1-1.9-1.6-4.3-1.6-7.2c0-2.8,0.6-5.3,1.7-7.3
						c1.2-2,2.7-3.6,4.6-4.7c1.9-1.1,4-1.6,6.2-1.6c2.4,0,4.3,0.5,5.8,1.4s2.6,2.1,3.5,3.4l-0.4,0.9l0.6-4.6h6.2V785h-6.7v-6
						l0.6,1.6c-0.2,0.2-0.5,0.6-0.9,1.1c-0.5,0.5-1.1,1.1-1.9,1.7c-0.8,0.6-1.8,1.2-2.9,1.6C952,785.5,950.7,785.7,949.2,785.7z
						 M951,780.3c1.3,0,2.4-0.2,3.3-0.6c1-0.4,1.8-1,2.4-1.8c0.7-0.8,1.2-1.8,1.5-2.9v-5.4c-0.3-1-0.8-1.9-1.6-2.7
						c-0.7-0.8-1.6-1.4-2.6-1.8c-1-0.4-2.1-0.6-3.3-0.6c-1.4,0-2.6,0.3-3.8,1c-1.1,0.7-2,1.6-2.7,2.8s-1,2.6-1,4.1s0.4,2.8,1.1,4
						c0.7,1.2,1.7,2.2,2.8,2.9C948.4,780,949.7,780.3,951,780.3z"/>
					<path class="st0" d="M972.3,739.1h6.6v46h-6.6V739.1z"/>
					<path class="st0" d="M998.7,797.6c-2,0-3.7-0.2-5.2-0.7s-2.7-1.1-3.9-1.9c-1.1-0.8-2.2-1.6-3.1-2.4l3.8-4.5
						c1.1,1.1,2.3,1.9,3.6,2.7c1.3,0.7,2.8,1.1,4.6,1.1c1.7,0,3.1-0.3,4.3-0.8s2.1-1.3,2.8-2.3s1-2.2,1-3.6l0.1-6.2l0.4,1.3
						c-0.7,1.5-1.9,2.8-3.7,3.9c-1.8,1.1-4,1.6-6.6,1.6c-2.3,0-4.4-0.6-6.3-1.7c-1.9-1.2-3.5-2.7-4.6-4.7s-1.7-4.3-1.7-6.8
						c0-2.6,0.6-4.9,1.8-6.9s2.8-3.6,4.8-4.8s4.1-1.7,6.3-1.7s4.2,0.4,5.9,1.2s3,1.8,3.9,3l-0.4,0.9l0.8-3.9h6v25
						c0,2.4-0.6,4.5-1.9,6.3c-1.2,1.8-2.9,3.3-5.1,4.4C1004.1,797,1001.6,797.6,998.7,797.6z M990.8,772.4c0,1.5,0.4,2.8,1.1,4
						c0.7,1.2,1.7,2.2,2.9,2.9s2.6,1,4,1c1.3,0,2.5-0.2,3.5-0.6c1-0.4,1.9-1,2.7-1.8s1.3-1.7,1.7-2.8v-5.5c-0.4-1-0.9-1.9-1.7-2.7
						s-1.7-1.4-2.7-1.8s-2.2-0.6-3.5-0.6c-1.5,0-2.8,0.3-4,1s-2.2,1.6-2.9,2.8C991.2,769.4,990.8,770.8,990.8,772.4z"/>
					<path class="st0" d="M1018.7,772.4c0-2.5,0.6-4.8,1.8-6.8s2.9-3.6,5-4.8s4.6-1.7,7.3-1.7c2.7,0,5.1,0.6,7.2,1.7
						c2.1,1.2,3.7,2.7,4.8,4.7c1.2,2,1.7,4.3,1.7,6.8c0,2.6-0.6,4.8-1.7,6.9c-1.2,2-2.8,3.6-4.8,4.8c-2.1,1.2-4.5,1.8-7.3,1.8
						c-2.7,0-5-0.5-7.1-1.6s-3.7-2.6-5-4.6C1019.3,777.5,1018.7,775.1,1018.7,772.4z M1025.3,772.4c0,1.5,0.3,2.8,1,4
						c0.6,1.2,1.5,2.1,2.6,2.8s2.3,1,3.7,1c1.5,0,2.7-0.3,3.8-1c1.1-0.7,1.9-1.6,2.6-2.8c0.6-1.2,0.9-2.5,0.9-4s-0.3-2.8-0.9-4
						s-1.5-2.1-2.6-2.9c-1.1-0.7-2.3-1.1-3.7-1.1s-2.7,0.4-3.7,1.1c-1.1,0.7-1.9,1.7-2.6,2.9
						C1025.6,769.6,1025.3,770.9,1025.3,772.4z"/>
					<path class="st0" d="M1076.5,785.6c-1.9,0-3.7-0.3-5.4-1s-3.1-1.7-4.3-2.9l2.8-3.7c1.1,1,2.2,1.8,3.3,2.3
						c1.1,0.5,2.1,0.7,3.1,0.7c0.7,0,1.4-0.1,2-0.2c0.6-0.2,1.1-0.4,1.4-0.9c0.4-0.4,0.5-1,0.5-1.6c0-0.8-0.3-1.4-0.8-1.9
						s-1.2-0.8-2.1-1.1s-1.8-0.6-2.7-0.9c-2.2-0.7-3.8-1.6-4.8-2.9c-1.1-1.3-1.6-2.8-1.6-4.5c0-1.3,0.3-2.6,1-3.8s1.7-2.2,3.1-3
						s3.1-1.1,5.2-1.1c1.8,0,3.5,0.2,4.9,0.6c1.4,0.4,2.7,1.1,3.9,2.1l-2.5,4c-0.7-0.7-1.6-1.2-2.5-1.6c-0.9-0.4-1.8-0.6-2.6-0.6
						c-0.7,0-1.3,0.1-1.9,0.3s-1,0.5-1.3,0.9s-0.5,0.8-0.5,1.4c0,0.8,0.2,1.4,0.8,1.9c0.6,0.5,1.3,0.8,2.2,1.1
						c0.9,0.3,1.8,0.6,2.7,0.9c1.2,0.4,2.2,0.8,3.2,1.4c0.9,0.6,1.7,1.4,2.2,2.3c0.5,0.9,0.8,2,0.8,3.3c0,1.5-0.4,2.9-1.1,4.2
						s-1.9,2.4-3.4,3.2C1080.6,785.2,1078.8,785.6,1076.5,785.6z"/>
					<path class="st0" d="M1102.8,785.7c-2.4,0-4.5-0.5-6.4-1.5s-3.4-2.4-4.5-4.4c-1.1-1.9-1.6-4.3-1.6-7.2c0-2.8,0.6-5.3,1.7-7.3
						c1.2-2,2.7-3.6,4.6-4.7c1.9-1.1,4-1.6,6.2-1.6c2.4,0,4.3,0.5,5.8,1.4s2.6,2.1,3.5,3.4l-0.4,0.9l0.6-4.6h6.2V785h-6.7v-6
						l0.6,1.6c-0.2,0.2-0.5,0.6-0.9,1.1c-0.5,0.5-1.1,1.1-1.9,1.7c-0.8,0.6-1.8,1.2-2.9,1.6C1105.5,785.5,1104.2,785.7,1102.8,785.7
						z M1104.5,780.3c1.3,0,2.4-0.2,3.3-0.6c1-0.4,1.8-1,2.4-1.8c0.7-0.8,1.2-1.8,1.5-2.9v-5.4c-0.3-1-0.8-1.9-1.6-2.7
						c-0.7-0.8-1.6-1.4-2.6-1.8c-1-0.4-2.1-0.6-3.3-0.6c-1.4,0-2.6,0.3-3.8,1c-1.1,0.7-2,1.6-2.7,2.8s-1,2.6-1,4.1s0.4,2.8,1.1,4
						s1.7,2.2,2.8,2.9C1101.9,780,1103.2,780.3,1104.5,780.3z"/>
					<path class="st0" d="M1125.8,739.1h6.6v46h-6.6V739.1z"/>
					<path class="st0" d="M1139.5,751.1c0-1,0.4-1.8,1.2-2.5c0.8-0.7,1.7-1,2.6-1s1.8,0.3,2.6,1c0.8,0.7,1.1,1.5,1.1,2.5
						c0,1.1-0.4,1.9-1.1,2.6c-0.8,0.6-1.6,1-2.6,1s-1.8-0.3-2.6-1C1139.9,753.1,1139.5,752.2,1139.5,751.1z M1139.8,760.2h6.6v24.9
						h-6.6V760.2z"/>
					<path class="st0" d="M1151.8,772.4c0-2.5,0.6-4.8,1.8-6.8c1.2-2,2.9-3.6,5-4.8s4.6-1.7,7.3-1.7c2.7,0,5.1,0.6,7.2,1.7
						c2.1,1.2,3.7,2.7,4.8,4.7c1.2,2,1.7,4.3,1.7,6.8c0,2.6-0.6,4.8-1.7,6.9c-1.2,2-2.8,3.6-4.8,4.8c-2.1,1.2-4.5,1.8-7.3,1.8
						c-2.7,0-5-0.5-7.1-1.6s-3.7-2.6-5-4.6C1152.4,777.5,1151.8,775.1,1151.8,772.4z M1158.4,772.4c0,1.5,0.3,2.8,1,4
						c0.6,1.2,1.5,2.1,2.6,2.8s2.3,1,3.7,1c1.5,0,2.7-0.3,3.8-1c1.1-0.7,1.9-1.6,2.6-2.8c0.6-1.2,0.9-2.5,0.9-4s-0.3-2.8-0.9-4
						s-1.5-2.1-2.6-2.9c-1.1-0.7-2.3-1.1-3.7-1.1s-2.7,0.4-3.7,1.1c-1.1,0.7-1.9,1.7-2.6,2.9
						C1158.7,769.6,1158.4,770.9,1158.4,772.4z M1173.2,747.7l-8,8h-4.1l4.8-8H1173.2z"/>
					<path class="st0" d="M1208.1,760.2l0.5,5.1l-0.2-0.4c0.9-1.8,2.2-3.2,3.9-4.2c1.6-1,3.5-1.5,5.6-1.5c1.4,0,2.7,0.2,3.7,0.6
						c1.1,0.4,2,1,2.7,1.8s1.2,1.8,1.4,3l-0.3,0.2c1-1.7,2.3-3.1,3.9-4.1s3.3-1.5,5.1-1.5c2.5,0,4.4,0.7,5.8,2.1
						c1.4,1.4,2.2,3.2,2.2,5.4v18.6h-6.5v-16c0-1.2-0.3-2.2-0.8-3s-1.4-1.2-2.6-1.3c-1.4,0-2.6,0.4-3.7,1.3c-1,0.9-1.8,2-2.4,3.4
						s-0.8,2.9-0.8,4.4v11.2h-6.7v-16c0-1.2-0.3-2.2-0.8-3s-1.4-1.2-2.7-1.3c-1.4,0-2.6,0.4-3.6,1.3c-1,0.9-1.8,2-2.4,3.4
						s-0.8,2.9-0.8,4.4v11.1h-6.6v-24.9L1208.1,760.2L1208.1,760.2z"/>
					<path class="st0" d="M1260.4,785.7c-2.4,0-4.5-0.5-6.4-1.5s-3.4-2.4-4.5-4.4c-1.1-1.9-1.6-4.3-1.6-7.2c0-2.8,0.6-5.3,1.7-7.3
						c1.2-2,2.7-3.6,4.6-4.7c1.9-1.1,4-1.6,6.2-1.6c2.4,0,4.3,0.5,5.8,1.4s2.6,2.1,3.5,3.4l-0.4,0.9l0.6-4.6h6.2V785h-6.7v-6
						l0.6,1.6c-0.2,0.2-0.5,0.6-0.9,1.1c-0.5,0.5-1.1,1.1-1.9,1.7c-0.8,0.6-1.8,1.2-2.9,1.6C1263.2,785.5,1261.9,785.7,1260.4,785.7
						z M1262.2,780.3c1.3,0,2.4-0.2,3.3-0.6c1-0.4,1.8-1,2.4-1.8c0.7-0.8,1.2-1.8,1.5-2.9v-5.4c-0.3-1-0.8-1.9-1.6-2.7
						c-0.7-0.8-1.6-1.4-2.6-1.8c-1-0.4-2.1-0.6-3.3-0.6c-1.4,0-2.6,0.3-3.8,1c-1.1,0.7-2,1.6-2.7,2.8s-1,2.6-1,4.1s0.4,2.8,1.1,4
						s1.7,2.2,2.8,2.9C1259.6,780,1260.9,780.3,1262.2,780.3z"/>
					<path class="st0" d="M1283.5,739.1h6.6v46h-6.6V739.1z"/>
					<path class="st0" d="M1295.7,778.9c0.7-0.7,1.6-1,2.4-1s1.6,0.3,2.4,1c0.7,0.7,1.1,1.5,1.1,2.6s-0.4,2-1.1,2.6s-1.5,1-2.4,1
						s-1.7-0.3-2.4-1c-0.7-0.6-1.1-1.5-1.1-2.6C1294.6,780.5,1294.9,779.6,1295.7,778.9z"/>
				</g>
			</g>
		</g>
		<g>
			<path class="st43" d="M1347.7,682.8c-53.3,0-773.8-1.6-773.8-1.6c-0.3-0.7-91.5-112.4,23.3-229.3c56.9-57.9-52.2-132.9,0-197.3
				c89.5-110.3,178-48.2,251.8-79.2c13-5.5,26.1-14.3,39.2-27.8c7.4-7.6,15.4-14.3,24.1-20c1.3-0.9,2.7-1.7,4-2.6
				c5.2-3.2,10.5-6.1,16.1-8.7c3.7-1.8,7.5-3.4,11.4-4.9l0,0c6.1-2.4,12.4-4.4,18.8-6.1c9.1-2.4,18.5-4.3,28.1-5.5
				c4.2-0.5,8.4-1,12.6-1.3c82.4-6.2,175.2,28.7,223,79.6c9.6,10.3,53.5,63.3,18.9,136.3c-21.8,46.1,69.5,90,102,142.6
				C1429.7,590.7,1348.4,681,1347.7,682.8z"/>
			<g class="st44">
				<path class="st45" d="M1161.2,371.9c-2.2,6.1-4.9,11.8-8,17.2c-7.5,12.9-17.6,23.7-29.3,32.1c-27.2,19.5-63.2,25.7-96.9,13.4
					c-40.2-14.6-66-51.2-68.7-91.3c-0.4-5.3-0.3-10.6,0.1-16c0.8-9,2.7-18,5.9-26.9c2.6-7.2,5.9-13.9,9.9-20.1
					c0-0.1,0.1-0.1,0.1-0.2c10.9-17.2,26.3-30.4,44.1-38.7c5-2.4,10.3-4.3,15.6-5.9c2.6-0.7,5.2-1.4,7.8-1.9
					c18.3-3.8,37.9-2.7,56.8,4.2c2.5,0.9,5,1.9,7.3,3c3.4,1.5,6.6,3.2,9.8,5c13.2,7.7,24.2,18,32.7,30l0,0
					c5.3,7.5,9.5,15.6,12.7,24.2c1.7,4.5,3,9.1,4,13.8c0.6,2.9,1.2,5.9,1.6,8.9c0.9,7.2,1.1,14.5,0.5,21.9
					C1166.5,353.6,1164.5,362.9,1161.2,371.9z"/>
				<g>
					<path class="st46" d="M1045.3,279.9c-6.2,4.8-4.5,17.6-15.3,10.4c-10.7-7.2-17.4-11.2-20.5-4.9c-3,6.3,6.5,9.8,4,16.6
						c-2.5,6.9-7.6,7.6-12.9,2c-5.4-5.6-5.5-11.1-14.2-10.9s-12.4-3.4-12-9.9c0.1-1.1,0-2.1-0.3-3c0-0.1,0.1-0.1,0.1-0.2
						c10.9-17.2,26.3-30.4,44.1-38.7c5-2.4,10.3-4.3,15.6-5.9c2.6-0.7,5.2-1.4,7.8-1.9c3,1.2,6.3,3.7,8,8.7c3.8,11,9.9,8.4,4.7,17.7
						c-5.2,9.2-3.1,11.5,2.6,13.2s12.2,4.1,11.3,8.6C1067.5,286.1,1051.5,275.1,1045.3,279.9z"/>
					<path class="st46" d="M1161.2,371.9c-2.2,6.1-4.9,11.8-8,17.2c-7.5,12.9-17.6,23.7-29.3,32.1c-2.9-0.1-5.6-1.1-7.8-3.1
						c-10.5-9.4,3.4-19.3,10.7-24.2c7.3-4.8-6.3-6.5-13.1-15.9c-6.9-9.4,9.2-22.2-1.1-22.9c-10.3-0.7-22.9-1.4-25-12.4
						s8.7-8.8,6.9-18.1c-1.9-9.3,7.1-11.1,16.7-8.4s10.8-4.4,22.7-1.2c11.9,3.2,6.3,17.9,19.4,21.5c13.1,3.7,11.5,6.4,11.5,6.4
						c0.9,0.3,1.8,0.8,2.5,1.5C1166.5,353.6,1164.5,362.9,1161.2,371.9z"/>
					<path class="st46" d="M1166.7,322.6c-12.5,1.3-11.7-14.3-22.3-13.4c-10.7,0.9-6.1-6.7-11.4-14.5c-5.3-7.9-23.2-3.6-19.5-11.5
						c3.6-7.9,13.6-1.7,18.3-7.4c4.7-5.7,14.6-0.3,14.6-0.3c0.7,0,1.4,0.1,2.1,0.3l0,0c5.3,7.5,9.5,15.6,12.7,24.2
						c1.7,4.5,3,9.1,4,13.8C1165.7,316.7,1166.3,319.6,1166.7,322.6z"/>
					<path class="st46" d="M1087.5,261.9c0,0,8.5-6,0.5-11.6s-8.9-2.4-15.6-5.7c-6.6-3.2-11.2,1.1-8.2,8.8s3.2,20.4,10,16.1
						C1081,265.3,1081.8,260.4,1087.5,261.9z"/>
				</g>
			</g>
			<path class="st47" d="M597.7,681.4h36.5c2-1.7-1.4-5.4-4.8-5.7c-1.5-0.1-3.4,0.2-5.6,0.7c-0.5-6.7-3.4-36.7-14.2-35.5
				c-12.2,1.4,0,13.2,3.4,20.2c2.5,5.2,5.2,12.7,6.5,16.2c-1,0.2-2,0.4-3.1,0.6c-1.6-5-7.6-21.6-15.2-20.6c-9,1.1-5.4,7.8,1,11.8
				c4.7,2.9,10.4,7.1,13.1,9.1c-2.3,0.4-4.7,0.6-7.1,0.6C601.9,678.6,598.9,680.4,597.7,681.4z"/>
			<path class="st47" d="M1179.2,681.4h-33.9c-1.8-1.5,1.3-5,4.5-5.3c1.4-0.1,3.2,0.2,5.2,0.6c0.5-6.2,3.1-34.1,13.2-33
				c11.3,1.3,0,12.3-3.2,18.8c-2.4,4.8-4.9,11.8-6,15c0.9,0.2,1.9,0.4,2.8,0.6c1.5-4.6,7.1-20.1,14.2-19.2c8.3,1.1,5,7.3-0.9,10.9
				c-4.3,2.7-9.6,6.6-12.2,8.4c2.1,0.3,4.4,0.6,6.6,0.5C1175.2,678.8,1178.1,680.5,1179.2,681.4z"/>
			<g>
				<path class="st48" d="M1203.4,459c0,0,0.8-8-3.4-7.8c-4.2,0.3-5.3,2.2-4.8,3.7s4.6,6.7,4.6,6.7L1203.4,459z"/>
				<path class="st42" d="M1268.9,475.1c0,0-4.7,5.5-14.7,11.8c-0.9,0.6-1.9,1.2-3,1.8c-3.9,2.3-8.4,4.6-13.7,6.7
					c-0.6,0.2-1.3,0.5-2,0.8c-6,2.2-17,5.2-23.9,5.5c-0.6,0-1.2,0-1.7,0c-10.4-0.4-11.7-40.8-11.7-40.8s1.2-4,6.5-3
					c0,0,8.1,22.8,11,24.7c2.6,1.7,17.4-20.9,30.2-22.4C1254.6,459,1268.9,475.1,1268.9,475.1z"/>
				<path class="st49" d="M1240.9,671.9c0,0,0.8,8.9-1.1,9.8h-24c0,0,0-2.8,3.9-3.4c3.9-0.6,10.6-2.9,11.8-7.9
					C1232.6,665.4,1240.9,671.9,1240.9,671.9z"/>
				<path class="st50" d="M1223.3,564.4c0.1,5.8,0.4,11.8,0.9,17.2c2.6,25.6,3.5,56.4,3.9,62.4c0.6,10.3,2.7,26.8,2.7,26.8
					s4.1,3.8,11.9,2c0,0,6.5-23.8,8-48.8c0-0.4,0-0.8,0.1-1.2c0.2-3.3,0.3-7.1,0.5-11.2c1.2-27.3,2.5-68,2.5-68l-30.2-7.1
					C1223.7,536.6,1223,549.9,1223.3,564.4z"/>
				<path class="st51" d="M1223.3,564.4c7.6,13.2,22.2,37.5,28.1,47.2c1.2-27.3,2.5-68,2.5-68l-30.2-7.1
					C1223.7,536.6,1223,549.9,1223.3,564.4z"/>
				<path class="st52" d="M1235.5,496.2c-6,2.2-17,5.2-23.9,5.5c1-0.2,8.7-1.7,11.5-5.1c3-3.7,8.1-13.6,12.2-9.5
					C1237.2,489,1236.6,492.7,1235.5,496.2z"/>
				<path class="st48" d="M1286.2,560.1c0,0,1.9,7.3,1.6,9c-0.3,1.6-2.1,7.2-3.3,8.5c-1.1,1.4-1.2-6-1.9-7.1c-0.8-1.2-0.3,2.7-1,3.1
					c-0.6,0.3-1.6-2.9-2.1-4.1c-0.5-1.2,1.6-5.2,1.8-8.1C1281.5,558.5,1286.2,560.1,1286.2,560.1z"/>
				<path class="st49" d="M1300.8,661.8c0,0,4.3,3.9,3.4,6.7c-0.8,2.8-4.7,4.6-5.2,8s-2.6,5.2-4.5,5.2s-9,0-9,0s-1.4-2.4,2-3.1
					c3.3-0.7,4.6-4.7,4.4-8.4s0.3-8.6,0.3-8.6l7.1-1.6L1300.8,661.8z"/>
				<path class="st50" d="M1228.4,544.3c0,0,28.2,60.4,43.3,86.9c15,26.5,19.7,33.9,19.7,33.9s8.6-3.4,9.4-5.7
					c0,0-5.7-51.2-15.8-63.7c-5.7-7.1-12.4-28.2-12.7-35.6c-0.3-7.4-6.9-25.1-6.9-25.1L1228.4,544.3z"/>
				<path class="st42" d="M1223.2,541.1c0,0,9.2,9.9,24.8,12.9c6.9,1.3,20.8,2.6,24.2-2.3c0.8-1.1,0.8-2.8,0.6-5.5
					c-0.5-6.9-2.2-20.2,5.6-47c0.7-2.5,1.2-4.9,1.5-7.2c1.7-13.7,1.5-24-10.4-29.5c-17.8-8.3-25.1-1.5-25.1-1.5s-9.5,4.4-13.8,17.3
					C1222.1,504.2,1223.2,541.1,1223.2,541.1z"/>
				<path class="st48" d="M1258.9,460.3c-3,2.1-8.3,3.4-13.3,0.9c-0.4-0.2-0.3-2.9-0.2-5.5c0.1-2.6,0.3-5.1,0.3-5.1l6.3-4.2l6-4
					C1257.4,456.1,1260.3,459.3,1258.9,460.3z"/>
				<path class="st53" d="M1257,448.1c0,0-4.1,6.2-11.6,7.6c0.1-2.6,0.4-5.4,0.4-5.4l6.3-3.8L1257,448.1z"/>
				<path class="st48" d="M1240.1,449c0,0,15.3,5.7,18.7-3.7c3.4-9.4,7.7-15.1-2-19.1c-9.6-4-12.8-1.1-14.8,1.7
					C1240.2,430.8,1236.2,447.3,1240.1,449z"/>
				<path class="st54" d="M1268.3,427.2c0.2-0.1,0.5-0.2,1.3-0.1c0,0-0.5-0.5-1.3-0.7c0-1.1-0.1-3-1.8-3.8c0,0,0.8,0.7,0.8,1.8
					c-1.6-2.5-5.7-4.9-18-6.3c-16.2-1.9-13,9.4-11.2,11s7.7-0.7,11.5,0.4s3.4,6.8,4.6,7.8s0.9-0.4,2.8-0.9s1.5,2.5,0.6,4.3
					s1,4.8,1,4.8s0,0,3-2.2s7.5-12.9,6.9-15.5C1268.4,427.7,1268.4,427.5,1268.3,427.2z"/>
				<path class="st52" d="M1272.8,546.2c-0.5-6.9-2.2-20.2,5.6-47c0.7-2.5,1.2-4.9,1.5-7.2l0,0c-5.8-1.9-16.4,2.3-16.4,2.3
					S1261.1,529.8,1272.8,546.2z"/>
				<path class="st42" d="M1272.8,464.3c0,0,7.2,2.6,11.7,21.5c3,12.5,8.6,30.9,9.2,36.7s-6.3,39.6-6.3,39.6s-1,0.7-3.4,0.2
					c-2.3-0.5-3.4-2-3.4-2s-1.7-22.5-1.2-33.2c0.2-4.4-20.5-32.4-31.6-36C1243.4,489.8,1272.8,464.3,1272.8,464.3z"/>
				<path class="st55" d="M1172.8,439.8c0,0,20.7-0.6,44.5,3.8l2.5-6.3l2.7-6.9c0,0-23.9-10.3-38.3-24.7L1172.8,439.8z"/>
				<path class="st56" d="M1184.5,405.5l-11.9,35l0,0c-1.7-0.5-2.7-2.4-2.1-4.1L1181,407C1181.5,405.6,1183.1,404.9,1184.5,405.5
					L1184.5,405.5z"/>
				<path class="st56" d="M1195.9,465.9L1195.9,465.9c2.3,0.5,4.6-1,5-3.4l4.1-20.4c0.5-2.3-1-4.6-3.4-5l0,0c-2.3-0.5-4.6,1-5,3.4
					l-4.1,20.4C1192,463.2,1193.6,465.4,1195.9,465.9z"/>
				<path class="st57" d="M1172.8,439.8c0,0,20.7-0.6,44.5,3.8l2.5-6.3C1197.4,432.8,1172.8,439.8,1172.8,439.8z"/>
				<path class="st56" d="M1210.7,442.4l6.5,1.1c-0.1,0,6,1.2,8-4.2c0.2-0.4,0.3-0.7,0.4-1.2c1.6-6.7-2.1-8-2.1-8l-8.3-3.2l-2.6,9.3
					l0,0L1210.7,442.4z"/>
				<path class="st58" d="M1210.7,442.4l6.5,1.1c-0.1,0,6,1.2,8-4.2c-3.7-2.7-12.7-3-12.7-3l0,0L1210.7,442.4z"/>
				<path class="st48" d="M1196.4,446.1c0,0,3.2,1.3,2.6,2.7c-0.6,1.4-4.6,3.3-5.2,2.2C1193.1,449.9,1194.4,444.9,1196.4,446.1z"/>
				<path class="st48" d="M1203.5,457.7c0,0,0.6-3.2,0.6-4.7s0.2-2.7-0.1-2.7c-0.3,0-0.6,0.2-0.7,0.7s-0.7,3.4-0.7,3.4l0.3,2.9
					L1203.5,457.7z"/>
			</g>
			<g>
				<path class="st1" d="M891,455.6l-17.9,212.8c0,0-1.9,12.9,7.7,12.9c15.8,0,78.5,0,78.5,0s-11.9-2.7-11.7-8.7
					c0.2-7.1,20.9-219,20.9-219L891,455.6z"/>
				<path class="st1" d="M965.2,677.6c-3.1,0-63.9,0.1-79.2-0.1c-6.7-0.1-7.9-6-7.9-9.8c0-1.8,0.2-3.2,0.2-3.2l0.5-5.5l1.2-14.1
					l1-12.5l1.3-16l1.1-13.5l12.7-151.2l77.5-2c0,0-8.7,88.7-14.9,153.2c-0.7,7.2-1.3,14.1-2,20.5c-0.2,2.1-0.4,4.1-0.6,6
					c-0.6,6.1-1.1,11.7-1.6,16.7c-0.2,2.6-0.5,5-0.7,7.3c-0.8,8.7-1.3,14.3-1.3,15.3c0,0.6,0,1.2,0.2,1.7
					C954.2,677.3,964.1,677.6,965.2,677.6z"/>
				<polygon class="st1" points="702.6,339.8 746.2,514.9 752.2,538.9 772.5,620.5 1149.8,620.5 1074.9,339.8 				"/>
				<polygon class="st52" points="702.6,339.8 696.6,341.8 764.5,626.6 772.5,620.5 				"/>
				<polygon class="st52" points="764.5,626.6 1139.4,626.6 1149.8,620.5 772.5,620.5 				"/>
				<rect x="896.1" y="677.5" class="st1" width="81.2" height="3.9"/>
				<polygon class="st52" points="956.7,626.6 956.3,629.5 879.9,644.9 881,632.5 881.5,626.6 				"/>
				<path class="st52" d="M965.2,677.6c-3.1,0-63.9,0.1-79.2-0.1c-6.7-0.1-7.9-6-7.9-9.8l76-14.3c-0.8,8.7-1.3,14.3-1.3,15.3
					c0,0.6,0,1.2,0.2,1.7C954.2,677.3,964.1,677.6,965.2,677.6z"/>
				<polygon class="st1" points="702.6,339.8 1074.9,339.8 1135.3,565.4 758.8,565.4 				"/>
				<polygon class="st59" points="1117.8,555.6 769.2,555.6 756.7,506 751.9,486.8 750,479 737.2,428 736.5,425.3 729.7,398.3 
					726.7,386.3 724.1,376 718.1,351.9 1061.6,351.9 1068.3,376 1071.1,386.3 1074.4,398.3 1096.3,477.8 1096.3,477.8 1098.2,484.5 
					1099.1,487.7 1114.2,542.5 				"/>
				<polygon class="st60" points="1068.3,376 724.1,376 718.1,351.9 1061.6,351.9 				"/>
				<g>
					<path class="st61" d="M732.3,362.8c-0.4-1.7,0.6-3,2.3-3s3.4,1.3,3.8,3c0.4,1.7-0.6,3-2.3,3S732.7,364.4,732.3,362.8z"/>
					<path class="st61" d="M742.3,362.8c-0.4-1.7,0.6-3,2.3-3s3.4,1.3,3.8,3c0.4,1.7-0.6,3-2.3,3
						C744.4,365.8,742.7,364.4,742.3,362.8z"/>
					<path class="st61" d="M753.1,362.8c-0.4-1.7,0.6-3,2.3-3s3.4,1.3,3.8,3c0.4,1.7-0.6,3-2.3,3
						C755.2,365.8,753.5,364.4,753.1,362.8z"/>
				</g>
			</g>
			<path class="st1" d="M993.3,211.7c14.1-16.5,35.8-49.8,50.4-66.8c3-3.5,0.5-8.9-4.1-8.9H1013l25.1-56.8c1.1-2.4-2.2-4.4-3.8-2.2
				l-60.7,81.2c-1.8,2.4,0.2,5.7,3.1,5.3l30.1-3.7L988.9,209C987.9,211.8,991.4,213.9,993.3,211.7z"/>
			<path class="st42" d="M868,312.4c3.2-16.3,5.2-46.5,8.5-63.2c0.7-3.5-3-6.1-6.1-4.4l-17.7,10l-4.6-47.1c-0.2-2-3.1-2.1-3.4-0.1
				l-9.9,76.7c-0.3,2.2,2.2,3.7,4.1,2.4l18.6-13.7l6.5,39.4C864.4,314.5,867.5,314.6,868,312.4z"/>
			<g>
				<path class="st62" d="M1133,560.4l-302.9,25.5c-23,1.9-39.6-21.5-30.2-42.6l128.3-287.2c9.7-21.8,39.7-24.3,52.9-4.5
					l174.6,261.7C1168.5,532.6,1156,558.5,1133,560.4z"/>
				<g>
					<g>
						<path class="st42" d="M1134,571.9l-302.9,25.5c-14.9,1.3-29-5.3-37.6-17.5c-8.7-12.2-10.2-27.6-4.1-41.3l128.3-287.2
							c6.3-14.1,19.3-23.3,34.7-24.6s29.7,5.6,38.3,18.5L1165.3,507c8.3,12.4,9.4,27.9,2.9,41.4
							C1161.6,561.8,1148.9,570.6,1134,571.9z M954.3,249.8c-6.9,0.6-12.8,4.7-15.6,11.1L810.4,548c-2.7,6.1-2.1,13.1,1.8,18.6
							c3.9,5.5,10.2,8.4,16.9,7.9L1132,549c6.7-0.6,12.5-4.5,15.4-10.6s2.4-13-1.3-18.6L971.6,258.1
							C967.7,252.3,961.3,249.2,954.3,249.8z"/>
					</g>
				</g>
				<g>
					<g>
						<path class="st42" d="M947.2,516.5c-0.3-3.9,0.1-7.6,1.2-11c1.1-3.4,2.8-6.5,5.2-9.1c2.3-2.6,5.2-4.8,8.7-6.5
							s7.4-2.7,11.9-3.1s8.6,0,12.4,1c3.8,1.1,7,2.7,9.7,4.9c2.7,2.2,5,4.9,6.6,8.1c1.7,3.2,2.7,6.7,3,10.6
							c0.3,3.9-0.1,7.5-1.2,10.9c-1.1,3.4-2.8,6.4-5.2,9c-2.3,2.6-5.3,4.8-8.8,6.5s-7.5,2.7-12,3.1c-4.5,0.4-8.6,0-12.3-1
							c-3.7-1.1-6.9-2.7-9.7-4.9c-2.7-2.2-5-4.9-6.6-8C948.5,523.9,947.6,520.4,947.2,516.5z M994.1,461.7l-43.6,3.7l-18.7-148.6
							l56-4.7L994.1,461.7z"/>
					</g>
				</g>
			</g>
			<g>
				<path class="st48" d="M759.1,470.8c0,0,0.9-2.1,1.6-3.1c0.6-1,3.2-4,3.7-3.3c0.4,0.7,2.2,5.2,1.3,6.5c-1,1.3,0.1,3.5-4.7,4.8
					L759.1,470.8z"/>
				<path class="st42" d="M706.6,457.3c0,0,24.2,20.2,33.6,18.3c7.4-1.5,19-5.2,19-5.2s3.1,2.9,2.2,6.4c0,0-14.9,14-25.4,14.1
					c-16.5,0.1-24.4-8.2-24.4-8.2L706.6,457.3z"/>
				<path class="st63" d="M664.2,670.4c0,0,0.7,11.3,2.9,11.5c0.3,0,11.1,0,11.1,0l13.8-0.1c0,0-0.1-3.3-4.1-4s-10.8-3.5-13.3-8.9
					C672.1,663.3,664.2,670.4,664.2,670.4z"/>
				<path class="st50" d="M663.4,671.1c0,0,4.2,1.4,7.5,1.4c3.7,0,7-1,7-1s0.8-7.7,5.1-24.5c2.3-8.8,5.5-20.2,10.2-34.3
					c12.8-39,16.7-61.8,17.1-64c0-0.1,0-0.2,0-0.2l0,0l-39.4-17.3c0,0,4.9,53.8-1.3,74.4c-0.9,2.9-1.6,6.2-2.3,9.9
					C663.3,637.9,663.4,671.1,663.4,671.1z"/>
				<path class="st51" d="M683,647c2.3-8.8,5.5-20.2,10.2-34.3c12.8-39,16.7-61.8,17.1-64c0-0.1,0-0.1,0-0.2l-39.4-17.3
					c0,0,4.9,53.8-1.3,74.4C668.6,608.5,683,647,683,647z"/>
				<path class="st64" d="M695,670.4c0,0,0.7,11.3,2.9,11.5c0.3,0,11.1,0,11.1,0l13.8-0.1c0,0-0.1-3.3-4.1-4s-10.8-3.5-13.3-8.9
					C702.8,663.3,695,670.4,695,670.4z"/>
				<path class="st50" d="M717.3,532.5c0,0,0.5,34.8-5.5,77.6s-4,60.9-4,60.9s-4.1,1.3-5.8,1.5c-4.3,0.3-8.6-1-8.6-1
					s-8.6-42.8-6.2-64.2c2.5-21.4-11.8-73.5-11.8-73.5L717.3,532.5z"/>
				<path class="st48" d="M689.4,451l7.7,5l7-2c1.3-1.8,1.6-5.4,1.6-8.4s-0.3-5.6-0.3-5.6l-10.4-4.6l-3.9-1.7c0,0.1,0.3,3.2,0.3,3.6
					C692.2,445.5,689.4,451,689.4,451z"/>
				<path class="st42" d="M717.5,542.2c-9.6,9.2-45.8,7.7-48.1-2.5c-2.2-10.2,2.4-86.7,18.8-91.5c3.4-1,21.5,4.9,21.5,4.9
					s2.8,7.4,4.7,16.9c0.4,1.8,1.4,21.4,2.2,39.7c0.4,8.6,0.7,16.8,0.8,22.9C717.7,538.3,717.7,542,717.5,542.2z"/>
				<path class="st65" d="M692.3,437.5c2.1,3.6,9.5,6.7,13.4,8.1c0-3-0.3-5.6-0.3-5.6l-10.4-4.6
					C692.7,435.4,691.3,435.9,692.3,437.5z"/>
				<path class="st48" d="M709.3,439.4c0,0-16.7,5.2-19.8-5.2c-3.1-10.5-7.3-16.8,3.2-20.6c10.5-3.8,13.8-0.4,15.7,2.8
					C710.3,419.6,713.6,437.8,709.3,439.4z"/>
				<path class="st66" d="M707.8,415.4c0,0-1.1,12.2-3.6,11.7s-5.3-1.7-4.9,2c0.4,3.7-2.4,10-6.1,9.9c-7.8,0-16.3-20-14.1-23.8
					C685.2,404.2,716.7,402,707.8,415.4z"/>
				<path class="st42" d="M705.3,448.4c-0.2-0.1-12.5-5.6-13.9-5.1s-3.2,4.8-3.2,4.8l21.5,4.9C709.8,453,708.1,449.6,705.3,448.4z"
					/>
				<g>
					<path class="st67" d="M781.5,507.7l-68.6,64.6c-1.3,1.3-3,1.7-3.8,0.9l-2.3-2.5c-0.7-0.8-0.2-2.4,1.1-3.7l68.6-64.6
						c1.3-1.3,3-1.7,3.8-0.9l2.3,2.5C783.3,504.8,782.8,506.4,781.5,507.7z"/>
					<path class="st57" d="M743,543.9l-30.1,28.3c-1.3,1.3-3,1.7-3.8,0.9l-2.3-2.5c-0.7-0.8-0.2-2.4,1.1-3.7l30.1-28.3L743,543.9z"
						/>
					<path class="st67" d="M765.7,483.3c2.6,8.7,7.5,16.8,14.6,23.5c21.6,20.3,55.6,19.3,76-2.3c20.1-21.3,19.3-54.7-1.5-75.2
						c-0.3-0.3-0.6-0.5-0.8-0.8c-21.6-20.3-55.6-19.3-76,2.3C764.3,445.3,760.3,465.5,765.7,483.3z M781.1,433.7
						c11.8-12.6,28.7-17.6,44.5-14.9c9.2,1.6,18.1,5.8,25.4,12.7c19.9,18.7,20.9,50.1,2.1,70c-6.9,7.3-15.5,12.1-24.6,14.3
						c-15.6,3.7-32.8-0.3-45.4-12.1C763.3,485,762.4,453.6,781.1,433.7z"/>
					<g class="st68">
						<path class="st69" d="M853.2,501.6c-6.9,7.3-15.5,12.1-24.6,14.3c-15.6,3.7-32.8-0.3-45.4-12.1c-19.9-18.7-20.9-50.1-2.1-70
							c11.8-12.6,28.7-17.6,44.5-14.9c9.2,1.6,18.1,5.8,25.4,12.7C871,450.3,872,481.6,853.2,501.6z"/>
					</g>
				</g>
				<path class="st50" d="M717.5,532.6c-37.8-26.9-34.7-62.9-34.7-62.9c13.8,7.8,27.5,25,33.8,40
					C717.1,518.2,717.4,526.5,717.5,532.6z"/>
				<g>
					<path class="st48" d="M754.8,520.3c2.7-0.6,4.5-2.6,4.8-3c0,0,1.1,0.1-0.2,2.5c-0.1,0.2-0.4,0.7-0.5,1.1
						c-0.1,0.2,0,0.3,0.2,0.3c1.5,0.1,3.1-0.5,6,0.1c0.4,0.1,0.5,1.1,0.5,1.5c0,0.7,0,1.5-0.8,2.6c-0.5,0.6-1.8,1.3-4.8,2.5
						c-1.1,0.5-4.4,0.1-7.4-0.9l-2.4-1.1l0.8-4.5l0.6,0.1C752.6,521.7,753.8,520.6,754.8,520.3z"/>
					<path class="st42" d="M694.6,453c0,0-34,6.5,10,55.6c7,7.9,45,18.1,45,18.1s3.9-3.3,1.9-5.9c0,0-26.1-19-31.9-22
						c-2.6-1.4-10-30.3-14.3-37.3C701.1,454.6,694.6,453,694.6,453z"/>
				</g>
				<path class="st48" d="M760.1,471.4c0,0,1.1-2.1,1.3-3.2s1.6-4.4,2.2-5c0.2-0.2,1,0.1,1.1,1.1c0,0.4-0.2,1.2-0.5,2.1
					c-0.6,1.5-0.5,3.6-0.7,4.3C762.9,472.4,760.1,471.4,760.1,471.4z"/>
			</g>
			<g>
				<g>
					<path class="st48" d="M773.6,387.1c-0.6,0.7-0.7,1.4-0.4,2.2l0,0c0.5,1.5,2.3,3.1,4.3,4.7c0.3,0.2,0.5,0.4,0.7,0.6
						c0.1,0,0.1,0.1,0.2,0.1l0.1,0.1c1.9,1.7,1.2,2.1,4.6,5.7c3.9,4,6.5,4.1,7.3,3.7c0.6-0.3-0.7-2.5-2.1-4.9
						c-0.1-0.1-0.1-0.2-0.2-0.4c-0.2-0.3-0.4-0.6-0.6-1c-1.7-2.9-1.3-4.2-0.9-8.6c0.3-3.5,5.4-19.5,5.4-19.5l-7.4-1.3
						c0,0-2.2,12.8-4.7,14.7c-1.3,1-2.8,1.1-4.1,1.8c-0.1,0.1-0.2,0.1-0.3,0.2C774.9,386,774.2,386.5,773.6,387.1z"/>
					<path class="st51" d="M773.6,387.1c-0.6,0.7-0.7,1.4-0.4,2.2l0,0c0.6,1.5,2.3,3.1,4.3,4.7c0.3,0.2,0.5,0.4,0.7,0.6
						c0.1,0,0.1,0.1,0.2,0.1l0.1,0.1c1.9,1.7,1.2,2.1,4.6,5.7c3.9,4,6.5,4.1,7.3,3.7c0.6-0.3-0.7-2.5-2.1-4.9
						c-0.8-0.3-4.3-1.7-6.9-5.1c-2.2-2.9-3.8-6.5-5.3-8.8c-0.2,0-0.3-0.1-0.4-0.1C774.9,386,774.2,386.5,773.6,387.1z"/>
					<path class="st48" d="M833.4,382.5c0.5,2.3,3.7,1.9,7.4,1c3.6-0.9,2.8,0.2,8-0.4s6.8-2.5,6.9-3.3c0.1-0.7-2.4-0.9-5.2-1.2
						c-0.3,0-0.7-0.1-1-0.1c-3.1-0.4-5.4-2.4-8.2-4c-2.7-1.6-6.7-7.9-6.7-7.9l-7.1,0.6c0,0,3.7,5.7,5.2,8.1c0.8,1.5,0.8,3.4,0.7,4.9
						C833.3,380.9,833.3,381.7,833.4,382.5z"/>
					<path class="st51" d="M840.8,383.5c3.6-0.9,2.8,0.2,8-0.4s6.8-2.5,6.9-3.3c0.1-0.7-2.4-0.9-5.2-1.2v0.1c0,0-3.1,2.2-7.4,2.3
						c-3.5,0.1-7.3-0.9-9.7-0.9c-0.1,0.8-0.1,1.6,0.1,2.4C833.9,384.8,837.2,384.4,840.8,383.5z"/>
					<path class="st51" d="M806.2,337l-6.7,17.9l-8.7,23.4c0,0-2.4,0.2-4.6-0.4c-2.1-0.6-4.5-2.2-4.5-2.2s2.4-25.1,6.9-39.5
						c1.2-3.7,2.4-6.7,3.9-8.4C799.5,319.5,806.2,337,806.2,337z"/>
					<path class="st42" d="M799.4,308.5c-3.8-1.2-13.7,0-24.4,1.9c-3,0.5-6-0.8-7.5-3.4l0,0l-27-2.1c0,0-8.9,19.8-4,32.3
						c0.7,1.9,2.3,3,4.7,3l0,0c0,0,16.3,0,21.5,0c13.4,0,28.4-9.2,30.4-9.6c3.2-0.6,4.4,5.7,7.6,12.4c3.2,6.7,29.8,29.5,29.8,29.5
						s4.1,0,5.8-0.6c1.8-0.7,2.5-1.6,2.5-1.6S809.2,311.7,799.4,308.5z"/>
					<path class="st51" d="M764.6,227.7c-2-1.2-4-1.4-5.2-1.3c-0.8,0-1.7,0-2.5-0.2c-10.3-1.5-16.5,13.4-16.9,18
						c-0.7,8.3-5.1,9.6-11.2,14.8c-12.4,10.4-8.8,22.5-2,27c4.1,2.7,11.2,0,11.2,0c0.1,0.1,19.6-10.9,29.2-16.2
						C781.7,267.8,770.4,231.2,764.6,227.7z"/>
					<path class="st48" d="M759.3,265.3c0,0-4.7,1.7-7.9,0.2c-3-1.3-5.3-6.3-5.2-6.3c1.4-0.1,2.9-1.3,4-9.1l0.6,0.2l9.8,3.5
						c0,0-0.7,3.1-1.2,6.1C759,262.6,758.7,265,759.3,265.3z"/>
					<path class="st70" d="M760.5,253.9c0,0-0.4,1.7-1,4.9c-5.6-1-8-5.3-8.8-8.4L760.5,253.9z"/>
					<path class="st48" d="M762,257.1c0,0-13.4-1.8-12.1-10.1c1.2-8.3,0.4-14.1,9-13.3s9.8,4.2,10,7.1
						C769.1,243.6,765.5,257.3,762,257.1z"/>
					<path class="st51" d="M768.3,236.1c0,0-8.6,7.4-14.4,8c-5.8,0.6-8-1.3-8-1.3s3.4-2.8,5.5-7.4c0.6-1.4,1.9-2.3,3.4-2.4
						C759,232.6,766.8,232.5,768.3,236.1z"/>
					<path class="st51" d="M763,235.5c0,0,2.9,2.8,3.8,4.8c0.9,2,1.1,6.7,0.4,8.6c0,0,4.5-8.7,1.9-12.9
						C766.4,231.5,763,235.5,763,235.5z"/>
					<path class="st1" d="M770.5,285c-0.4,27.1-0.1,21.4-3.1,24c-0.7,0.6-2.7,1-5.4,1.2c-8.3,0.5-22.9-0.8-23.5-2.4
						c-1.9-5.3-0.6-7-2.2-15.1c-0.2-0.9-0.4-1.8-0.6-2.8c-1.3-5.6-2.6-7.5,2.1-16.5c4.3-8.1,8.7-14.7,9.1-14.5
						c11.3,6.7,12.2,1.1,12.2,1.1S770.7,271.8,770.5,285z"/>
					<path class="st42" d="M799.5,354.9l-8.7,23.4c0,0-2.4,0.2-4.6-0.4c-2.1-0.6-4.5-2.2-4.5-2.2s2.4-25.1,6.9-39.5L799.5,354.9z"/>
					<path class="st1" d="M759.3,260.1c0,0,11.6,2,13,7s5.9,35.4,5.9,35.4s-3.3,3.2-6,0.5s-8.6-28.5-8.6-28.5L759.3,260.1z"/>
					<path class="st52" d="M762.1,310.2c-8.3,0.5-22.9-0.8-23.5-2.4c-1.9-5.3-0.6-7-2.2-15.1l4-11.3c0,0-0.7,12.6,3,15.9
						s15.2,6.4,17,9.1C761.4,307.8,761.9,309.1,762.1,310.2z"/>
					<path class="st48" d="M752.6,304.9c0,0,8.2-1.8,9.5-1.1c1.3,0.7,4.6,3.4,5,4.3s-2.9-0.7-4-1c-0.7-0.2-2.6,0.5-3.5,0.8
						c-3.9,1.3-6.2,0.6-6.2,0.6L752.6,304.9z"/>
					<path class="st1" d="M747.1,259c0,0-11,0.7-14.8,6c-5.4,7.5-16,39.3-9.9,43.6c6.9,4.8,31.2,1.3,31.2,1.3s0.8-3.8-0.3-5.6
						c-1.1-1.8-19.5-4.8-20.3-5.6c-0.8-0.8,10.6-16.5,10.6-19C743.6,277,747.1,259,747.1,259z"/>
					<path class="st48" d="M762.5,306.1c0,0,1.7,2.2,2.3,2.5s0.9,0.2,0.9,0.2l-1.2-2.1L762.5,306.1z"/>
					<path class="st48" d="M762.1,303.8l5,2.4c0,0-0.2,0.3-0.8,0.3s-2.2-0.6-2.2-0.6L762.1,303.8z"/>
				</g>
				<polygon class="st51" points="804.7,309.5 752.6,309.5 752.6,310.7 804.2,310.7 				"/>
				<polygon class="st51" points="764.8,310.7 804.2,310.7 816.1,281.1 776.7,281.1 				"/>
				<path class="st0" d="M794.3,295.9c0.3-1-0.3-1.9-1.3-1.9s-2.1,0.8-2.4,1.9c-0.3,1,0.3,1.9,1.3,1.9
					C792.9,297.8,794,296.9,794.3,295.9z"/>
			</g>
			<g>
				<path class="st66" d="M1061.4,422c-5.3-1.8-9,0.5-9,0.5c-15.3,0.6-15.9,16.3-14.1,22.2c2.5,8.2-6.4,14.7,3.5,18
					c11.5,3.9,21.1-0.7,20.5,1.3C1098.7,466.8,1073.5,426,1061.4,422z"/>
				<path class="st42" d="M1045.5,498.3c0,0-1.5,2.9-4.1,6.2c-3.2,4-19.9-5.5-18.4-6.2c1.4-0.7,9.8-24.9,11.8-27.9s8.8-4.6,8.8-4.6
					L1045.5,498.3z"/>
				<path class="st71" d="M1101.9,661.3c0,0,4.6,4.2,3.7,7.2s-5.1,5-5.6,8.6c-0.6,3.7-2.8,5.6-4.8,5.6s-9.6,0-9.6,0
					s-1.5-2.6,2.1-3.3c3.6-0.8,5-5.1,4.7-9c-0.2-4,0.3-9.3,0.3-9.3l7.6-1.8L1101.9,661.3z"/>
				<path class="st49" d="M1062.9,663.1c0,0,1.7,17.8-0.4,18.8l-25.9-0.1c0,0,0-3,4.2-3.7s11.5-3.1,12.7-8.5
					C1054.7,664.3,1062.9,663.1,1062.9,663.1z"/>
				<path class="st42" d="M1082.8,486.3c0,0,0.4,5.4,0,12c-0.3,4.3-4.6,10.1-5.3,11.6c-1.6,3.6-3.3,4.2-3.3,4.2l-13.6,3.3l-4.8,1.2
					l-15.1-4.5c0,0-6.9-19.2-4.1-29.9c2.8-10.8,7-18.3,7-18.3s10.2-2.3,28.3-1L1082.8,486.3z"/>
				<path class="st50" d="M1084.1,498.4c-0.3,4.3-5.9,10-6.5,11.4c-1.6,3.6-3.3,4.2-3.3,4.2l-13.6,3.3l-2.5-7
					c0,0,19.9-5.2,16.7-23.6L1084.1,498.4z"/>
				<path class="st51" d="M1041.7,516.9c0,0-7.5,23.2-7.9,31.1c-0.5,7.9,14.3,112.4,14.9,116c0.6,3.4,4.8,5.6,4.8,5.6s2,1.2,4.8,0.4
					c3.9-1.1,5.1-2.4,5.1-2.4s5.8-74.5,2.2-101.1c-3.6-26.6-3.6-49.6-3.6-49.6H1041.7z"/>
				<path class="st50" d="M1073.4,516.2c0,0,11.4,15.3,12.4,25.6c1.1,10.3,1.7,46.6,3.9,56.7c2.3,10.1,10.6,29.4,10.6,60.8
					c0,0-0.9,1.8-3.5,2.8c-0.9,0.3-2,0.6-3.1,0.9c-2.2,0.5-4.5-0.6-5.5-2.6c-5.6-11.3-23.5-47.8-24.4-55.4
					c-0.6-5.4-6.3-40.8-18.6-61.6c-3-5,1.8-24.9,1.8-24.9L1073.4,516.2z"/>
				<path class="st51" d="M1040.5,513.3c0,0,3,2.4,8.9,2.5c7.1,0.1,24.7-1.8,24.7-1.8s0.8,2.2,0.8,4.5c0,0-21.5,5.4-34,0.8
					C1041,519.3,1039.4,516.3,1040.5,513.3z"/>
				<g>
					<path class="st0" d="M1047.8,522c-1.8,0-3.2-1.6-3.2-3.7s1.5-3.7,3.2-3.7s3.2,1.6,3.2,3.7S1049.6,522,1047.8,522z
						 M1047.8,515.7c-1.2,0-2.2,1.2-2.2,2.6s1,2.6,2.2,2.6s2.2-1.2,2.2-2.6S1049,515.7,1047.8,515.7z"/>
				</g>
				<polygon class="st1" points="1063.3,528.6 1031,528.9 1015.1,491.5 1047.4,491.2 				"/>
				<path class="st48" d="M1059.1,511.7l-2.4-2.9c0,0-1.6-1.4-2.8-1.7c-1.2-0.2-3.6-1.7-3.9-1.3c-0.2,0.4,1.9,3.2,1.9,3.2h0.1
					c-2.4,1.8-8.6,0.2-9.4,1c-0.9,0.9,1.3,2.9,2.4,4s4.5,2.9,7.2,2.1c1.9-0.6,4.9-1.2,4.9-1.2L1059.1,511.7z"/>
				<path class="st48" d="M1017.5,498.1c0,0,2-2.3,3.3-1.2c1.3,1.1-0.3,6.6-1.6,6C1018,502.4,1016.8,498.8,1017.5,498.1z"/>
				<path class="st42" d="M1071.9,464.8c0,0,9.3,1,15.9,13.1c5.2,9.5,14.2,27.1,10.8,32c-1.5,2.2-15.7,9.9-43.1,5.5
					c0,0,0.4-3.5,2.6-5.1c0,0,23.1-7.4,23-8.9c-0.1-2.8-3.1-5.2-16-18.1C1061.7,479.8,1071.9,464.8,1071.9,464.8z"/>
				<path class="st48" d="M1064.8,465.3c0.3-0.4-0.1-1.8-0.6-4.3c-0.5-2.3-1.2-5.8-1.2-9.8l-0.7,0.1l-11.5,1.9c0,0,0.3,3.1,0.3,6
					c0,0,0,0,0,0.1c0,2.5-0.7,6.3,0.2,6.8C1055.6,468.5,1063.6,466.9,1064.8,465.3z"/>
				<path class="st72" d="M1050.8,453.2c0,0,0.2,4.3,0.2,7.2c6.4-0.2,9.8-6.4,11.2-9.1L1050.8,453.2z"/>
				<path class="st48" d="M1050.1,458.3c0,0,15-2.1,13.6-11.5c-1.5-9.3-0.5-15.9-10.2-14.9s-11,4.8-11.2,8.1
					C1042,443.2,1046.2,458.6,1050.1,458.3z"/>
				<path class="st66" d="M1046.6,432.7c0,0,5.9,10.3,12.4,10.9c6.6,0.6,9-1.5,9-1.5s-5.4-3.1-7.5-9.6
					C1060.6,432.5,1048.9,427,1046.6,432.7z"/>
				<path class="st66" d="M1047.8,433.5c0,0-2.9,1.6-3.8,4s-1.5,5.4-0.7,8.9c0,0-4.3-7-1.5-11.7
					C1044.9,429.6,1047.8,433.5,1047.8,433.5z"/>
			</g>
			<path class="st51" d="M1379.1,684.1H545.5c-0.6,0-1.1-0.5-1.1-1.1v-0.4c0-0.6,0.5-1.1,1.1-1.1H1379c0.6,0,1.1,0.5,1.1,1.1v0.4
				C1380.2,683.6,1379.7,684.1,1379.1,684.1z"/>
		</g>
	</g>
</g>
</svg>
