<svg xmlns="http://www.w3.org/2000/svg" xmlns:xlink="http://www.w3.org/1999/xlink" width="1137" height="579.115" viewBox="0 0 1137 579.115">
  <defs>
    <linearGradient id="linear-gradient" x1="-50.484" y1="114.469" x2="-53.399" y2="118.024" gradientUnits="objectBoundingBox">
      <stop offset="0" stop-color="#09005d"/>
      <stop offset="1" stop-color="#1a0f91"/>
    </linearGradient>
    <linearGradient id="linear-gradient-2" x1="-12.193" y1="277.102" x2="-13.271" y2="283.465" xlink:href="#linear-gradient"/>
    <linearGradient id="linear-gradient-3" x1="-7.165" y1="280.363" x2="-7.61" y2="286.574" xlink:href="#linear-gradient"/>
    <linearGradient id="linear-gradient-4" x1="479.067" y1="0.5" x2="480.067" y2="0.5" gradientUnits="objectBoundingBox">
      <stop offset="0" stop-color="#4042e2"/>
      <stop offset="1" stop-color="#4f52ff"/>
    </linearGradient>
    <linearGradient id="linear-gradient-5" x1="492.92" y1="0.5" x2="493.92" y2="0.5" xlink:href="#linear-gradient"/>
    <linearGradient id="linear-gradient-6" x1="1698.733" y1="0.5" x2="1699.733" y2="0.5" gradientUnits="objectBoundingBox">
      <stop offset="0" stop-color="#ff928e"/>
      <stop offset="1" stop-color="#feb3b1"/>
    </linearGradient>
    <linearGradient id="linear-gradient-7" x1="1238.098" y1="0.5" x2="1239.098" y2="0.5" xlink:href="#linear-gradient-4"/>
    <linearGradient id="linear-gradient-8" x1="843.835" y1="0.5" x2="844.835" y2="0.5" xlink:href="#linear-gradient"/>
    <linearGradient id="linear-gradient-9" x1="1411.169" y1="0.5" x2="1412.169" y2="0.5" xlink:href="#linear-gradient-6"/>
    <linearGradient id="linear-gradient-10" x1="-0.825" y1="-17.575" x2="0.293" y2="-2.32" xlink:href="#linear-gradient"/>
    <linearGradient id="linear-gradient-11" x1="952.069" y1="0.1" x2="949.68" y2="1.142" xlink:href="#linear-gradient-6"/>
    <linearGradient id="linear-gradient-12" x1="511.997" y1="0.5" x2="512.997" y2="0.5" xlink:href="#linear-gradient-6"/>
    <linearGradient id="linear-gradient-13" x1="0.23" y1="-0.241" x2="0.898" y2="1.483" gradientUnits="objectBoundingBox">
      <stop offset="0" stop-color="#ff928e"/>
      <stop offset="0.105" stop-color="#ff9592"/>
      <stop offset="1" stop-color="#feb3b1"/>
    </linearGradient>
    <linearGradient id="linear-gradient-14" x1="676.238" y1="-1.222" x2="674.545" y2="3.818" xlink:href="#linear-gradient-6"/>
    <linearGradient id="linear-gradient-15" x1="1432.833" y1="0.5" x2="1433.833" y2="0.5" xlink:href="#linear-gradient-6"/>
    <linearGradient id="linear-gradient-16" x1="484.32" y1="74.372" x2="485.105" y2="73.078" xlink:href="#linear-gradient-6"/>
    <linearGradient id="linear-gradient-17" x1="382.78" y1="0.154" x2="383.509" y2="1.105" xlink:href="#linear-gradient"/>
    <linearGradient id="linear-gradient-18" x1="1977.823" y1="240.946" x2="1981.034" y2="236.725" xlink:href="#linear-gradient-6"/>
    <linearGradient id="linear-gradient-19" x1="0" y1="0.5" x2="1" y2="0.5" xlink:href="#linear-gradient-4"/>
    <linearGradient id="linear-gradient-22" x1="0" y1="0.5" x2="1" y2="0.5" xlink:href="#linear-gradient-4"/>
    <linearGradient id="linear-gradient-23" x1="-0.183" y1="-0.178" x2="1.099" y2="0.971" xlink:href="#linear-gradient-6"/>
    <linearGradient id="linear-gradient-24" x1="107.716" y1="5.607" x2="108.479" y2="4.248" xlink:href="#linear-gradient-6"/>
    <linearGradient id="linear-gradient-25" x1="185.697" y1="5.836" x2="187.016" y2="4.383" xlink:href="#linear-gradient-6"/>
    <linearGradient id="linear-gradient-26" x1="310.595" y1="0.5" x2="311.595" y2="0.5" gradientUnits="objectBoundingBox">
      <stop offset="0" stop-color="#f9b776"/>
      <stop offset="1" stop-color="#f47960"/>
    </linearGradient>
    <linearGradient id="linear-gradient-27" x1="170.081" y1="0.479" x2="174.062" y2="0.754" xlink:href="#linear-gradient-6"/>
    <linearGradient id="linear-gradient-28" x1="88.176" y1="0.426" x2="87.453" y2="1.36" xlink:href="#linear-gradient"/>
    <linearGradient id="linear-gradient-29" x1="92.55" y1="-6.768" x2="93.278" y2="-5.719" xlink:href="#linear-gradient-6"/>
  </defs>
  <g id="Grupo_1506" data-name="Grupo 1506" transform="translate(-392.034 -118.624)">
    <g id="Grupo_1490" data-name="Grupo 1490" transform="translate(40.111 23.79)">
      <g id="Grupo_1459" data-name="Grupo 1459" transform="translate(499.916 244.06)">
        <path id="Trazado_1131" data-name="Trazado 1131" d="M708.019,576.239H511.276a11.36,11.36,0,0,1-11.36-11.359V270.2a11.361,11.361,0,0,1,11.329-11.36l198.317-.532a11.36,11.36,0,0,1,11.39,11.42L719.378,564.94A11.359,11.359,0,0,1,708.019,576.239Z" transform="translate(-499.916 -258.312)" fill="#d4e2f4"/>
        <path id="Trazado_1132" data-name="Trazado 1132" d="M699.437,274.241l-175.92,1.084A11.526,11.526,0,0,0,512.062,286.9l1.227,264.482A11.527,11.527,0,0,0,524.6,562.857l170.928,3.118a11.526,11.526,0,0,0,11.736-11.363l3.764-268.683A11.527,11.527,0,0,0,699.437,274.241Z" transform="translate(-500.975 -259.701)" fill="#acbfe3"/>
        <rect id="Rectángulo_574" data-name="Rectángulo 574" width="142.442" height="8.109" rx="3.778" transform="translate(48.867 25.91)" fill="#d4e2f4"/>
        <path id="Trazado_1133" data-name="Trazado 1133" d="M680.949,306.839h0a3.448,3.448,0,0,1-3.38,3.261L559.028,312.26a3.449,3.449,0,0,1-3.512-3.448v-.281a3.448,3.448,0,0,1,3.394-3.448L677.451,303.2A3.449,3.449,0,0,1,680.949,306.839Z" transform="translate(-504.763 -262.226)" fill="#d4e2f4"/>
        <path id="Trazado_1134" data-name="Trazado 1134" d="M689.814,561.105l-160.333-1.924a9.823,9.823,0,0,1-9.7-10.011l4.125-217.5a9.825,9.825,0,0,1,10.014-9.638l160.054,3.115a9.84,9.84,0,0,1,9.632,10h0l-3.847,216.313a9.849,9.849,0,0,1-9.824,9.651ZM529.179,327.129a6.512,6.512,0,0,0-2.008,4.6l-4.125,217.5a6.555,6.555,0,0,0,6.475,6.68l160.333,1.924a6.545,6.545,0,0,0,6.633-6.439l3.848-216.313h0a6.564,6.564,0,0,0-6.427-6.669L533.852,325.3l-.13,0A6.51,6.51,0,0,0,529.179,327.129Z" transform="translate(-501.647 -263.867)" fill="#d4e2f4"/>
        <path id="Trazado_1135" data-name="Trazado 1135" d="M525.645,349.14H700.26a1.635,1.635,0,0,0,0-3.27H525.645a1.635,1.635,0,1,0,0,3.27Z" transform="translate(-502.017 -265.945)" fill="#d4e2f4"/>
      </g>
      <g id="Grupo_1461" data-name="Grupo 1461" transform="translate(622.777 94.834)">
        <path id="Trazado_1136" data-name="Trazado 1136" d="M950.418,476.433,938.526,583.084h137.965l-17.97-106.651Z" transform="translate(-661.016 -128.103)" fill="#8dabd9"/>
        <path id="Trazado_1137" data-name="Trazado 1137" d="M634.511,127.548V420.935a44.508,44.508,0,0,0,43.36,44.494c107.16,2.763,481.953,9.463,583.962,7.96a32.749,32.749,0,0,0,32.242-31.816c1.967-68.158,5.162-232.056-6.661-308.146A33.7,33.7,0,0,0,1255.19,104.9C1165.4,102.03,768.1,92.909,666.137,95.2A32.351,32.351,0,0,0,634.511,127.548Z" transform="translate(-634.511 -94.834)" fill="#4abbec"/>
        <path id="Trazado_1138" data-name="Trazado 1138" d="M654.679,127.208V405.947a25.787,25.787,0,0,0,25.4,25.784l568.835,7.028a25.1,25.1,0,0,0,25.471-25l.952-276.249a18.354,18.354,0,0,0-17.908-18.417L675.049,107.327A19.886,19.886,0,0,0,654.679,127.208Z" transform="translate(-636.269 -95.923)" fill="#4abbec"/>
        <path id="Trazado_1139" data-name="Trazado 1139" d="M672.356,137.015V398.636a24.374,24.374,0,0,0,24.187,24.2l541.623,6.6a23.735,23.735,0,0,0,24.253-23.465l.906-259.283a17.345,17.345,0,0,0-17.051-17.286L691.752,118.355A18.81,18.81,0,0,0,672.356,137.015Z" transform="translate(-637.81 -96.884)" fill="#c8e6ee"/>
        <path id="Trazado_1140" data-name="Trazado 1140" d="M1278.585,481.838h-.015l-623.99-10.633a.872.872,0,1,1,.029-1.744l623.99,10.633a.872.872,0,0,1-.015,1.744Z" transform="translate(-636.186 -127.495)" fill="#fff"/>
        <g id="Grupo_1460" data-name="Grupo 1460" transform="translate(329.196 352.599)">
          <path id="Trazado_1141" data-name="Trazado 1141" d="M1002.513,495.838a7.365,7.365,0,1,1,7.365-7.365A7.374,7.374,0,0,1,1002.513,495.838Zm0-12.985a5.62,5.62,0,1,0,5.62,5.62A5.627,5.627,0,0,0,1002.513,482.853Z" transform="translate(-995.148 -481.109)" fill="#fff"/>
        </g>
        <path id="Trazado_1142" data-name="Trazado 1142" d="M1102.107,614.32H900.186c-5.486,0-9.606-3.906-8.545-8.1l2.591-10.247c.779-3.081,4.169-5.344,8.2-5.469l194.659-6.075c4.206-.131,7.932,2.1,8.848,5.3l4.671,16.321C1111.82,610.294,1107.681,614.32,1102.107,614.32Z" transform="translate(-656.914 -137.517)" fill="#1894b5"/>
        <path id="Trazado_1143" data-name="Trazado 1143" d="M1020.015,594.181a.872.872,0,0,1-.013-1.744l8.34-.122a.9.9,0,0,1,.886.86.872.872,0,0,1-.86.885l-8.34.122Z" transform="translate(-668.044 -138.205)" fill="#fff"/>
        <path id="Trazado_1144" data-name="Trazado 1144" d="M899.764,609.6a.89.89,0,0,1-.138-.011.872.872,0,0,1-.724-1l1.19-7.452a8.525,8.525,0,0,1,8.31-7.195l88.473-1.294a.872.872,0,0,1,.026,1.744l-88.473,1.294a6.784,6.784,0,0,0-6.613,5.724l-1.19,7.453A.872.872,0,0,1,899.764,609.6Z" transform="translate(-657.56 -138.235)" fill="#fff"/>
      </g>
      <g id="Grupo_1462" data-name="Grupo 1462" transform="translate(663.426 176.792)">
        <path id="Trazado_1145" data-name="Trazado 1145" d="M900.9,358.128,692.988,360.6c-8.007.095-14.319,5.279-13.928,11.439l3.462,54.447c.37,5.809,6.593,10.373,14.146,10.373h204.45c7.822,0,14.162-4.883,14.162-10.906v-56.92C915.281,362.944,908.807,358.034,900.9,358.128Z" transform="translate(-679.043 -199.747)" fill="#fff" opacity="0.52"/>
        <path id="Trazado_1146" data-name="Trazado 1146" d="M1182.125,341.535l-207.913,3.026c-8.006.116-14.318,6.46-13.927,14l3.462,66.621c.369,7.108,6.593,12.693,14.146,12.693h204.449c7.822,0,14.163-5.975,14.163-13.345V354.879C1196.506,347.428,1190.031,341.42,1182.125,341.535Z" transform="translate(-703.561 -198.3)" fill="#fff" opacity="0.52"/>
        <path id="Trazado_1147" data-name="Trazado 1147" d="M1013.543,184.62H692.491a8.769,8.769,0,0,0-9.028,8.485V275.59a8.769,8.769,0,0,0,9.028,8.486h321.053a8.77,8.77,0,0,0,9.029-8.486V193.1A8.769,8.769,0,0,0,1013.543,184.62Z" transform="translate(-679.428 -184.62)" fill="#fff" opacity="0.52"/>
        <path id="Trazado_1148" data-name="Trazado 1148" d="M1293.253,189.678H1164.822a4.426,4.426,0,0,0-1.12.107c-10.736,2.814-14.35-6.186-18.525,7.483-.167.548.217,1.128.217,1.7v81.678c0,4.686,8.448,8.485,18.869,8.485h128.99c10.421,0,18.869-3.8,18.869-8.485V198.164C1312.121,193.477,1303.673,189.678,1293.253,189.678Z" transform="translate(-719.678 -185.04)" fill="#fff" opacity="0.52"/>
      </g>
      <g id="Grupo_1463" data-name="Grupo 1463" transform="translate(568.857 403.023)">
        <path id="Trazado_1149" data-name="Trazado 1149" d="M588.375,589.977H785.117c6.274,0,11.36-3.757,11.36-8.392V441.243c0-4.626-5.067-8.38-11.329-8.392l-198.317-.393c-6.308-.013-11.423,3.775-11.389,8.436l1.573,140.735C577.049,586.247,582.125,589.977,588.375,589.977Z" transform="translate(-575.442 -432.458)" fill="#d4e2f4"/>
        <path id="Trazado_1150" data-name="Trazado 1150" d="M599.063,444.225l175.92.8c6.36.029,11.485,3.857,11.456,8.555l-1.228,118.035c-.029,4.627-5.054,8.391-11.316,8.475l-170.928,2.3c-6.384.086-11.646-3.678-11.735-8.394L587.468,452.86C587.378,448.09,592.607,444.2,599.063,444.225Z" transform="translate(-576.49 -433.484)" fill="#acbfe3"/>
        <path id="Trazado_1151" data-name="Trazado 1151" d="M608.007,455.975v.9c0,1.407,1.544,2.548,3.449,2.548H747c1.9,0,3.449-1.141,3.449-2.548v-.9c0-1.408-1.544-2.548-3.449-2.548H611.456C609.552,453.427,608.007,454.567,608.007,455.975Z" transform="translate(-578.281 -434.286)" fill="#d4e2f4"/>
        <path id="Trazado_1152" data-name="Trazado 1152" d="M624.575,468.308h0c.1,1.334,1.574,2.385,3.381,2.409l118.54,1.6c1.929.026,3.512-1.122,3.512-2.547v-.208c0-1.391-1.511-2.526-3.394-2.548l-118.541-1.388C626.073,465.6,624.467,466.832,624.575,468.308Z" transform="translate(-579.725 -435.349)" fill="#d4e2f4"/>
        <path id="Trazado_1153" data-name="Trazado 1153" d="M600.193,571.68l-3.847-82.449v-.037a6.684,6.684,0,0,1,1.966-4.782,10.847,10.847,0,0,1,7.674-3.049l160.054-2.3h.184c5.325,0,9.713,3.346,9.819,7.489l4.128,83.369a6.677,6.677,0,0,1-1.976,4.8,10.865,10.865,0,0,1-7.733,3.038l-160.334,1.421h-.118C604.6,579.183,600.294,575.888,600.193,571.68Zm165.893-89.348-160.053,2.3a7.688,7.688,0,0,0-5.366,2.047,3.45,3.45,0,0,0-1.053,2.421l3.847,82.466c.057,2.37,3.051,4.349,6.556,4.349h.083l160.333-1.421a7.7,7.7,0,0,0,5.411-2.04,3.433,3.433,0,0,0,1.062-2.41l-4.128-83.369c-.061-2.374-3.048-4.342-6.555-4.342Zm-168.115,6.823h0Z" transform="translate(-577.264 -436.521)" fill="#d4e2f4"/>
        <path id="Trazado_1154" data-name="Trazado 1154" d="M600.256,499.945H774.871a1.634,1.634,0,0,0,0-3.269H600.256a1.634,1.634,0,1,0,0,3.269Z" transform="translate(-577.463 -438.057)" fill="#d4e2f4"/>
      </g>
      <g id="Grupo_1464" data-name="Grupo 1464" transform="translate(691.224 500.755)">
        <path id="Trazado_1155" data-name="Trazado 1155" d="M915.941,547.434l-1.532,54.658c-.12,4.246-5.9,7.65-12.978,7.65H722.475c-7.168,0-12.979-3.483-12.979-7.781V550.805c0-4.2,5.558-7.64,12.559-7.776l180.487-3.5C909.958,539.383,916.065,542.988,915.941,547.434Z" transform="translate(-709.496 -539.523)" fill="#d4e2f4"/>
        <path id="Trazado_1156" data-name="Trazado 1156" d="M902.357,553.668l-3.883,50.262c-.149,1.93-2.832,3.439-6.055,3.4l-162.956-1.72c-3.249-.035-5.852-1.623-5.852-3.571v-43.59c0-1.9,2.49-3.472,5.662-3.566l166.839-4.952C899.623,549.832,902.521,551.563,902.357,553.668Z" transform="translate(-710.727 -540.431)" fill="#acbfe3"/>
        <path id="Trazado_1157" data-name="Trazado 1157" d="M891.041,558.971v3.62c0,1.276-1.744,2.3-3.873,2.285L746.617,563.5c-2.08-.021-3.749-1.038-3.749-2.285h0c0-1.239,1.645-2.251,3.71-2.284l140.551-2.246C889.272,556.652,891.041,557.685,891.041,558.971Z" transform="translate(-712.405 -541.02)" fill="#d4e2f4"/>
        <path id="Trazado_1158" data-name="Trazado 1158" d="M889.381,573.9v3.322c0,1.293-1.789,2.328-3.944,2.283L751.57,576.714c-2.052-.043-3.679-1.052-3.679-2.284v-1.035c0-1.267,1.722-2.293,3.836-2.285l133.867.509C887.689,571.628,889.381,572.648,889.381,573.9Z" transform="translate(-712.843 -542.277)" fill="#d4e2f4"/>
      </g>
      <g id="Grupo_1467" data-name="Grupo 1467" transform="translate(1061.062 218.681)">
        <path id="Trazado_1159" data-name="Trazado 1159" d="M1139.61,275.6l191.044,1.578a19.792,19.792,0,0,1,19.611,18.948l11.815,277.1a14.6,14.6,0,0,1-14.438,15.217l-218.994,2.172a13.853,13.853,0,0,1-13.991-13.968l2.3-278.763A22.466,22.466,0,0,1,1139.61,275.6Z" transform="translate(-1114.656 -234.441)" fill="#f8ad00"/>
        <path id="Trazado_1160" data-name="Trazado 1160" d="M1161.321,610.841h0l-24.5-.518a15.213,15.213,0,0,1-14.832-15.275l.306-36.992a.624.624,0,0,1,.629-.619.632.632,0,0,1,.619.63l-.306,36.991a13.96,13.96,0,0,0,13.611,14.017l24.5.518a.624.624,0,0,1-.024,1.248Z" transform="translate(-1115.296 -259.011)" fill="#fff" opacity="0.7"/>
        <path id="Trazado_1161" data-name="Trazado 1161" d="M1123.041,545.561a.625.625,0,0,1-.613-.629l.049-5.991a.624.624,0,0,1,.629-.619h0a.625.625,0,0,1,.615.629l-.049,5.991a.625.625,0,0,1-.629.619Z" transform="translate(-1115.334 -257.345)" fill="#fff" opacity="0.7"/>
        <g id="Grupo_1465" data-name="Grupo 1465" transform="translate(17.41 38.855)">
          <path id="Trazado_1162" data-name="Trazado 1162" d="M1141.879,273.143c26.059,3.754,115.681,15.436,189.9,10.355a6.034,6.034,0,0,1,6.451,5.744l12.489,278.336a6.944,6.944,0,0,1-6.584,7.249c-31.211,1.589-159.745,7.665-205.531,2.487a5.5,5.5,0,0,1-4.877-5.485l.695-292.238A6.525,6.525,0,0,1,1141.879,273.143Z" transform="translate(-1133.729 -273.076)" fill="#7d97f4"/>
          <path id="Trazado_1163" data-name="Trazado 1163" d="M1144.9,281.075c25.078,3.612,111.325,14.855,182.752,9.965a5.807,5.807,0,0,1,6.208,5.529l12.018,267.855a6.682,6.682,0,0,1-6.336,6.976c-30.035,1.528-153.729,7.376-197.79,2.393a5.3,5.3,0,0,1-4.695-5.279l.668-281.234A6.28,6.28,0,0,1,1144.9,281.075Z" transform="translate(-1134.02 -273.767)" fill="#4abbec"/>
          <path id="Trazado_1164" data-name="Trazado 1164" d="M1328,317.132a1.534,1.534,0,0,0,1.561-1.64l-.031-.546a1.817,1.817,0,0,0-1.752-1.68l-162.574-2.624c-.911-.015-1.2.56-.635,1.278l2.023,2.584a3.9,3.9,0,0,0,2.677,1.318Z" transform="translate(-1136.393 -276.351)" fill="#fff"/>
          <path id="Trazado_1165" data-name="Trazado 1165" d="M1165.111,322.364c-.911-.015-1.2.56-.635,1.278l2.024,2.584a3.9,3.9,0,0,0,2.676,1.318l158.732,1.311a1.533,1.533,0,0,0,1.56-1.64l-.031-.546a1.816,1.816,0,0,0-1.752-1.68Z" transform="translate(-1136.385 -277.373)" fill="#fff"/>
          <path id="Trazado_1166" data-name="Trazado 1166" d="M1192.316,426.339l-.059,0-21.5.312a5.828,5.828,0,0,1-6.067-4.817l-2.326-17.99a3.972,3.972,0,0,1,.866-3.009,4.773,4.773,0,0,1,3.285-1.722h0c1.81-.167,4.3-.44,7.045-.74,5.97-.654,12.737-1.4,16.719-1.541l.089,0a6.047,6.047,0,0,1,6.083,4.1c1.222,4.12,1.313,11.963,1.3,20.321A5.364,5.364,0,0,1,1192.316,426.339Zm-25.637-25.475a3,3,0,0,0-2.078,1.07,2.231,2.231,0,0,0-.5,1.687l2.325,17.99a4.082,4.082,0,0,0,4.3,3.288l21.5-.312h.042a3.612,3.612,0,0,0,3.725-3.331c.012-8.222-.074-15.925-1.229-19.82a4.345,4.345,0,0,0-4.425-2.847c-3.919.143-10.946.914-16.593,1.532-2.754.3-5.256.576-7.073.745Z" transform="translate(-1136.223 -283.865)" fill="#fff"/>
          <path id="Trazado_1167" data-name="Trazado 1167" d="M1169.412,403c4.508-.417,14.3-1.65,18.952-1.821a4.163,4.163,0,0,1,4.234,2.777c.978,3.3,1.02,9.924,1.01,16.038a3.577,3.577,0,0,1-3.7,3.363l-17.182.249a3.969,3.969,0,0,1-4.142-3.239l-1.858-14.375A2.792,2.792,0,0,1,1169.412,403Z" transform="translate(-1136.604 -284.243)" fill="#fff"/>
          <path id="Trazado_1168" data-name="Trazado 1168" d="M1215.117,408.153a1.18,1.18,0,0,0-1.195,1.592l2.171,7.492a2.272,2.272,0,0,0,2.116,1.551l108.449-2.616a1.617,1.617,0,0,0,1.579-1.694l-.216-4.706a1.756,1.756,0,0,0-1.733-1.654Z" transform="translate(-1140.715 -284.849)" fill="#fff"/>
          <path id="Trazado_1169" data-name="Trazado 1169" d="M1170.592,404.727h0a3.3,3.3,0,0,1,4.58,1.128l4.424,7.5a1.06,1.06,0,0,0,1.89-.128l9.951-23.665a1.174,1.174,0,0,1,2.256.454,46.231,46.231,0,0,1-12.674,32.491s-6.364-2.3-11.712-13.327A3.461,3.461,0,0,1,1170.592,404.727Z" transform="translate(-1136.801 -283.168)" fill="#bbce00"/>
          <path id="Trazado_1170" data-name="Trazado 1170" d="M1193.23,373.444l-.059,0-21.5.312a5.83,5.83,0,0,1-6.067-4.817l-2.325-17.99a3.975,3.975,0,0,1,.866-3.01,4.768,4.768,0,0,1,3.285-1.721h0c1.81-.167,4.3-.441,7.044-.74,5.971-.654,12.737-1.4,16.72-1.542l.088,0a6.048,6.048,0,0,1,6.084,4.1c1.222,4.12,1.313,11.963,1.3,20.321A5.365,5.365,0,0,1,1193.23,373.444Zm-25.638-25.476a3.009,3.009,0,0,0-2.078,1.071,2.229,2.229,0,0,0-.5,1.687l2.326,17.99a4.082,4.082,0,0,0,4.3,3.288l21.5-.312h.043a3.612,3.612,0,0,0,3.724-3.331c.012-8.222-.074-15.925-1.229-19.82a4.342,4.342,0,0,0-4.425-2.847c-3.919.143-10.946.914-16.593,1.531-2.753.3-5.255.576-7.073.745Z" transform="translate(-1136.302 -279.253)" fill="#fff"/>
          <path id="Trazado_1171" data-name="Trazado 1171" d="M1170.325,350.1c4.508-.418,14.3-1.651,18.952-1.821a4.163,4.163,0,0,1,4.235,2.777c.979,3.3,1.019,9.923,1.01,16.038a3.578,3.578,0,0,1-3.7,3.363l-17.181.249a3.969,3.969,0,0,1-4.143-3.239l-1.858-14.376A2.79,2.79,0,0,1,1170.325,350.1Z" transform="translate(-1136.684 -279.632)" fill="#fff"/>
          <path id="Trazado_1172" data-name="Trazado 1172" d="M1216.031,355.258a1.18,1.18,0,0,0-1.2,1.591l2.171,7.491a2.272,2.272,0,0,0,2.117,1.551l108.448-2.615a1.618,1.618,0,0,0,1.58-1.7l-.216-4.7a1.756,1.756,0,0,0-1.733-1.654Z" transform="translate(-1140.795 -280.237)" fill="#fff"/>
          <path id="Trazado_1173" data-name="Trazado 1173" d="M1171.506,351.832h0a3.3,3.3,0,0,1,4.581,1.128l4.422,7.5a1.06,1.06,0,0,0,1.89-.128l9.952-23.665a1.174,1.174,0,0,1,2.256.453,46.232,46.232,0,0,1-12.674,32.492s-6.364-2.3-11.711-13.327A3.461,3.461,0,0,1,1171.506,351.832Z" transform="translate(-1136.88 -278.557)" fill="#bbce00"/>
          <path id="Trazado_1174" data-name="Trazado 1174" d="M1193.533,476.808l-.058,0-21.5.312a5.829,5.829,0,0,1-6.067-4.817l-2.325-17.989a3.973,3.973,0,0,1,.866-3.01,4.765,4.765,0,0,1,3.284-1.722h0c1.811-.167,4.3-.44,7.045-.74,5.971-.654,12.738-1.4,16.719-1.542l.088,0a6.049,6.049,0,0,1,6.085,4.106c1.221,4.12,1.313,11.963,1.3,20.32A5.365,5.365,0,0,1,1193.533,476.808ZM1167.9,451.333a3.008,3.008,0,0,0-2.078,1.069,2.234,2.234,0,0,0-.5,1.689l2.325,17.989a4.084,4.084,0,0,0,4.3,3.288l21.5-.312h.042a3.612,3.612,0,0,0,3.725-3.331c.012-8.222-.074-15.925-1.229-19.819a4.369,4.369,0,0,0-4.425-2.848c-3.919.143-10.947.914-16.593,1.532-2.754.3-5.256.575-7.073.745Z" transform="translate(-1136.329 -288.265)" fill="#fff"/>
          <path id="Trazado_1175" data-name="Trazado 1175" d="M1170.629,453.465c4.508-.417,14.3-1.65,18.952-1.821a4.163,4.163,0,0,1,4.234,2.777c.979,3.3,1.02,9.924,1.01,16.039a3.575,3.575,0,0,1-3.7,3.362l-17.181.249a3.969,3.969,0,0,1-4.143-3.238l-1.858-14.376A2.791,2.791,0,0,1,1170.629,453.465Z" transform="translate(-1136.71 -288.643)" fill="#fff"/>
          <path id="Trazado_1176" data-name="Trazado 1176" d="M1216.335,458.623a1.179,1.179,0,0,0-1.2,1.591l2.171,7.491a2.272,2.272,0,0,0,2.116,1.551l108.449-2.616a1.618,1.618,0,0,0,1.58-1.694l-.217-4.706a1.756,1.756,0,0,0-1.733-1.654Z" transform="translate(-1140.821 -289.249)" fill="#fff"/>
          <path id="Trazado_1177" data-name="Trazado 1177" d="M1171.809,455.2h0a3.3,3.3,0,0,1,4.581,1.128l4.423,7.5a1.06,1.06,0,0,0,1.89-.128l9.951-23.665a1.175,1.175,0,0,1,2.257.454,46.239,46.239,0,0,1-12.673,32.491s-6.365-2.3-11.712-13.327A3.462,3.462,0,0,1,1171.809,455.2Z" transform="translate(-1136.907 -287.568)" fill="#bbce00"/>
          <path id="Trazado_1178" data-name="Trazado 1178" d="M1192.5,525.325h-.057l-21.5.311a5.829,5.829,0,0,1-6.068-4.817l-2.325-17.989a3.972,3.972,0,0,1,.866-3.009,4.77,4.77,0,0,1,3.285-1.722h0c1.808-.166,4.3-.439,7.037-.739,5.678-.622,12.744-1.4,16.728-1.541a6.131,6.131,0,0,1,6.171,4.1c1.222,4.12,1.313,11.963,1.3,20.32A5.369,5.369,0,0,1,1192.5,525.325Zm-25.636-25.477a3.009,3.009,0,0,0-2.078,1.071,2.226,2.226,0,0,0-.495,1.687l2.325,17.989a4.081,4.081,0,0,0,4.3,3.288l21.5-.311c2.026-.085,3.764-1.525,3.766-3.333.012-8.222-.073-15.924-1.229-19.819a4.394,4.394,0,0,0-4.425-2.847c-3.92.142-10.952.913-16.6,1.532-2.75.3-5.25.575-7.067.744Z" transform="translate(-1136.239 -292.495)" fill="#fff"/>
          <path id="Trazado_1179" data-name="Trazado 1179" d="M1169.6,501.98c4.507-.417,14.3-1.65,18.951-1.82a4.162,4.162,0,0,1,4.235,2.777c.979,3.3,1.02,9.923,1.01,16.038a3.578,3.578,0,0,1-3.7,3.363l-17.181.249a3.97,3.97,0,0,1-4.143-3.239l-1.858-14.376A2.792,2.792,0,0,1,1169.6,501.98Z" transform="translate(-1136.62 -292.873)" fill="#fff"/>
          <path id="Trazado_1180" data-name="Trazado 1180" d="M1215.3,507.138a1.179,1.179,0,0,0-1.195,1.591l2.17,7.492a2.273,2.273,0,0,0,2.117,1.551l108.449-2.615a1.617,1.617,0,0,0,1.579-1.694l-.216-4.706a1.755,1.755,0,0,0-1.733-1.654Z" transform="translate(-1140.731 -293.478)" fill="#fff"/>
          <path id="Trazado_1181" data-name="Trazado 1181" d="M1170.775,503.712h0a3.3,3.3,0,0,1,4.581,1.128l4.424,7.5a1.06,1.06,0,0,0,1.889-.128l9.951-23.665a1.174,1.174,0,0,1,2.256.453,46.228,46.228,0,0,1-12.674,32.491s-6.364-2.3-11.711-13.326A3.461,3.461,0,0,1,1170.775,503.712Z" transform="translate(-1136.817 -291.798)" fill="#bbce00"/>
          <path id="Trazado_1182" data-name="Trazado 1182" d="M1191.029,575.366h-.058l-21.5.312a5.828,5.828,0,0,1-6.067-4.817l-2.325-17.99a3.965,3.965,0,0,1,.866-3.009,4.769,4.769,0,0,1,3.285-1.722h0c1.81-.167,4.3-.44,7.044-.74,5.97-.654,12.737-1.4,16.72-1.541a6.116,6.116,0,0,1,6.172,4.1c1.222,4.121,1.313,11.963,1.3,20.32A5.368,5.368,0,0,1,1191.029,575.366Zm-25.637-25.476a3.007,3.007,0,0,0-2.078,1.07,2.231,2.231,0,0,0-.5,1.687l2.325,17.991a4.084,4.084,0,0,0,4.3,3.287l21.5-.312h.043a3.611,3.611,0,0,0,3.724-3.33c.012-8.223-.074-15.926-1.229-19.821a4.422,4.422,0,0,0-4.425-2.846c-3.919.142-10.947.913-16.593,1.531-2.753.3-5.256.576-7.073.745Z" transform="translate(-1136.111 -296.857)" fill="#fff"/>
          <path id="Trazado_1183" data-name="Trazado 1183" d="M1168.126,552.022c4.508-.417,14.3-1.65,18.952-1.821a4.164,4.164,0,0,1,4.234,2.777c.978,3.3,1.019,9.924,1.01,16.039a3.577,3.577,0,0,1-3.7,3.362l-17.181.249a3.97,3.97,0,0,1-4.143-3.238l-1.858-14.376A2.791,2.791,0,0,1,1168.126,552.022Z" transform="translate(-1136.492 -297.236)" fill="#fff"/>
          <path id="Trazado_1184" data-name="Trazado 1184" d="M1213.831,557.18a1.18,1.18,0,0,0-1.2,1.591l2.171,7.492a2.274,2.274,0,0,0,2.117,1.551l108.448-2.616a1.618,1.618,0,0,0,1.58-1.694l-.217-4.706a1.754,1.754,0,0,0-1.732-1.654Z" transform="translate(-1140.603 -297.841)" fill="#fff"/>
          <path id="Trazado_1185" data-name="Trazado 1185" d="M1169.305,553.753h0a3.3,3.3,0,0,1,4.581,1.129l4.423,7.5a1.059,1.059,0,0,0,1.89-.127l9.951-23.665a1.175,1.175,0,0,1,2.257.453,46.238,46.238,0,0,1-12.674,32.491s-6.364-2.3-11.711-13.326A3.463,3.463,0,0,1,1169.305,553.753Z" transform="translate(-1136.688 -296.161)" fill="#bbce00"/>
        </g>
        <path id="Trazado_1186" data-name="Trazado 1186" d="M1257.746,234.795c-6.861-4.858-12.862-4.812-17.1-3.6a8.426,8.426,0,0,0-6.057,8.809l1.658,19.9,21.66,2.1S1271.2,244.322,1257.746,234.795Zm-9.665,15.962a5.4,5.4,0,1,1,5.451-5.36A5.405,5.405,0,0,1,1248.081,250.756Z" transform="translate(-1125.11 -230.509)" fill="url(#linear-gradient)"/>
        <g id="Grupo_1466" data-name="Grupo 1466" transform="translate(111.562 2.377)">
          <path id="Trazado_1187" data-name="Trazado 1187" d="M1238.313,252.263a1.07,1.07,0,0,1-.693-.916l-.264-3.168a1.074,1.074,0,0,1,2.14-.178l.264,3.169a1.073,1.073,0,0,1-.98,1.158A1.06,1.06,0,0,1,1238.313,252.263Zm-.518-6.21a1.073,1.073,0,0,1-.693-.916l-.2-2.405a8.593,8.593,0,0,1,6.169-8.966,16.751,16.751,0,0,1,8.192-.269,1.074,1.074,0,0,1-.449,2.1,14.629,14.629,0,0,0-7.152.233,6.441,6.441,0,0,0-4.62,6.724l.2,2.406a1.074,1.074,0,0,1-.981,1.158A1.062,1.062,0,0,1,1237.8,246.053Z" transform="translate(-1236.873 -233.114)" fill="#bdd0fb"/>
        </g>
        <path id="Trazado_1188" data-name="Trazado 1188" d="M1203.885,274.983l.082-10a6.1,6.1,0,0,1,6.36-6.045l68.9,2.931a5.933,5.933,0,0,1,5.673,5.621l.5,9.609Z" transform="translate(-1122.436 -232.988)" fill="url(#linear-gradient-2)"/>
        <path id="Trazado_1189" data-name="Trazado 1189" d="M1228.837,263.21a.624.624,0,0,1,.016-1.248l2.963.025a.616.616,0,0,1,.619.629.624.624,0,0,1-.629.619l-2.964-.025Z" transform="translate(-1124.557 -233.251)" fill="#bdd0fb"/>
        <path id="Trazado_1190" data-name="Trazado 1190" d="M1207.525,272.567a1.073,1.073,0,0,1-.7-1.014l.033-4.044a6.219,6.219,0,0,1,6.268-6.166l10.9.09a1.074,1.074,0,0,1-.018,2.148l-10.9-.09a4.073,4.073,0,0,0-4.1,4.036l-.034,4.044a1.072,1.072,0,0,1-1.452,1Z" transform="translate(-1122.692 -233.197)" fill="#bdd0fb"/>
        <path id="Trazado_1191" data-name="Trazado 1191" d="M1179.605,272.312l120.521.993a8.908,8.908,0,0,1,8.718,7.46l.1.59a7.651,7.651,0,0,1-7.612,8.894l-123.649-1.021a4.974,4.974,0,0,1-4.925-5.253l.311-5.533A6.5,6.5,0,0,1,1179.605,272.312Z" transform="translate(-1119.721 -234.154)" fill="url(#linear-gradient-3)"/>
      </g>
      <path id="Trazado_1192" data-name="Trazado 1192" d="M979.53,286.743a358.228,358.228,0,0,1,40.262,46.994c17.274-39.386,35.687-75.977,55.62-108.847l48.876-16.291c-33.671,43.9-69.565,109.329-100.251,174.949-22.188-31.27-44.357-62.476-60.346-73.549Z" transform="translate(-40.433 -9.918)" fill="#f8ad00"/>
      <g id="Grupo_1478" data-name="Grupo 1478" transform="translate(625.933 327.332)">
        <g id="Grupo_1477" data-name="Grupo 1477">
          <g id="Grupo_1476" data-name="Grupo 1476">
            <g id="Grupo_1473" data-name="Grupo 1473" transform="translate(136.911 40.165)">
              <g id="Grupo_1468" data-name="Grupo 1468" transform="translate(55.945 203.206)">
                <path id="Trazado_1193" data-name="Trazado 1193" d="M850.021,634c4.712.407,12.89,1.069,19.336,1.353,3.876.171,6.107-.209,7.392-.724,0,.145-.006.282-.013.409a1.333,1.333,0,0,1-1.266,1.26,226.444,226.444,0,0,1-25.319.026.95.95,0,0,1-.773-1.427A7.832,7.832,0,0,1,850.021,634Z" transform="translate(-849.245 -617.709)" fill="url(#linear-gradient-4)"/>
                <path id="Trazado_1194" data-name="Trazado 1194" d="M869.431,634.447c-6.446-.284-14.624-.946-19.336-1.353,4.633-5.683,19.336-9.514,19.336-9.514h4.153a17.418,17.418,0,0,1,3.239,10.143C875.538,634.238,873.307,634.618,869.431,634.447Z" transform="translate(-849.319 -616.801)" fill="url(#linear-gradient-5)"/>
                <path id="Trazado_1195" data-name="Trazado 1195" d="M875.854,616.153l-.389,7.69a1.756,1.756,0,0,1-1.5,1.651,6.826,6.826,0,0,1-3.119-.258,2.077,2.077,0,0,1-1.4-1.6l-1.344-7.486Z" transform="translate(-850.889 -616.153)" fill="url(#linear-gradient-6)"/>
              </g>
              <g id="Grupo_1470" data-name="Grupo 1470" transform="translate(120.905 196.019)">
                <g id="Grupo_1469" data-name="Grupo 1469" transform="translate(1.829 7.137)">
                  <path id="Trazado_1196" data-name="Trazado 1196" d="M935.005,635.184a3.73,3.73,0,0,0,3.355-2.481l.007.031a2.655,2.655,0,0,1-1.789,3.028,11.686,11.686,0,0,1-4.955.775,4.925,4.925,0,0,1-3.715-1.713l-.012-.016C929.437,635.57,931.6,635.66,935.005,635.184Z" transform="translate(-922.89 -617.546)" fill="url(#linear-gradient-7)"/>
                  <path id="Trazado_1197" data-name="Trazado 1197" d="M924.893,616.1h3.425c5.217-.107,8.492,10.9,9.564,15.156a3.73,3.73,0,0,1-3.355,2.481c-3.408.476-5.568.386-7.108-.376-2.818-3.708-4.215-9.14-4.887-12.309A4.323,4.323,0,0,1,924.893,616.1Z" transform="translate(-922.411 -616.098)" fill="url(#linear-gradient-8)"/>
                </g>
                <path id="Trazado_1198" data-name="Trazado 1198" d="M927.7,608.279l1.9,7.564a2.054,2.054,0,0,1-1.068,2.327,7.288,7.288,0,0,1-3.938.954,1.715,1.715,0,0,1-1.4-1.144l-2.791-7.958Z" transform="translate(-920.408 -608.279)" fill="url(#linear-gradient-9)"/>
              </g>
              <path id="Trazado_1199" data-name="Trazado 1199" d="M923.9,600.4c-2.366,2.1-10.062,2.376-10.062,2.376-27.721-66.534-39.061-75.986-39.061-75.986,4,25.113.645,80.71.645,80.71-4.574,2.019-10.472,0-10.472,0A428.552,428.552,0,0,0,850.8,502.269c18.736-.422,28.7-6.832,31.953-9.406C898.369,518.042,923.9,600.4,923.9,600.4Z" transform="translate(-793.435 -402.198)" fill="#4abbec"/>
              <path id="Trazado_1200" data-name="Trazado 1200" d="M875.591,409c3.546,17.69,2.276,49.35,1.44,63.791-.235,4.058,2.6,9.686,4.889,13.524a1.2,1.2,0,0,1-.486,1.693c-3.835,1.971-16.825,8.079-31.88,8.839a2.148,2.148,0,0,1-2.16-1.6c-11.167-41.7-24.139-68.345-24.139-68.345C837.576,404.028,875.591,409,875.591,409Z" transform="translate(-791.034 -394.847)" fill="#bbce00"/>
              <path id="Trazado_1201" data-name="Trazado 1201" d="M873.9,527.26a.889.889,0,0,0,.758-1.349,27.852,27.852,0,0,0-10.991-9.543.888.888,0,1,0-.771,1.6,26.572,26.572,0,0,1,10.246,8.866A.888.888,0,0,0,873.9,527.26Z" transform="translate(-794.445 -404.24)" fill="url(#linear-gradient-10)"/>
              <g id="Grupo_1471" data-name="Grupo 1471" transform="translate(80.596 14.15)">
                <path id="Trazado_1202" data-name="Trazado 1202" d="M903.64,464.541c-1.139,8.24-4.5,17.229-11.238,26.777l-2.559-2.087a79.041,79.041,0,0,0,1.274-25.591C895.272,462.829,900.177,463.664,903.64,464.541Z" transform="translate(-877.435 -413.772)" fill="url(#linear-gradient-11)"/>
                <path id="Trazado_1203" data-name="Trazado 1203" d="M876.25,430.867l3.961-21.826s26.465,20.23,22.244,50.768c-3.463-.876-8.369-1.712-12.522-.9C888.724,449.108,885.11,438.469,876.25,430.867Z" transform="translate(-876.25 -409.041)" fill="#bbce00"/>
              </g>
              <g id="Grupo_1472" data-name="Grupo 1472" transform="translate(0 32.05)">
                <path id="Trazado_1204" data-name="Trazado 1204" d="M822.33,428.65l10.215,22c-1.652,13.282-8.787,19.026-16.481,21.228a46.673,46.673,0,0,0-3.43-14.328C822.464,447.4,822.33,428.65,822.33,428.65Z" transform="translate(-790.107 -428.65)" fill="#bbce00"/>
                <path id="Trazado_1205" data-name="Trazado 1205" d="M810.482,460.313a46.673,46.673,0,0,1,3.43,14.328c-20.527,7.963-25.957-7.481-25.957-7.481l3.794-.669C800.316,467.393,806.3,464.631,810.482,460.313Z" transform="translate(-787.956 -431.41)" fill="url(#linear-gradient-12)"/>
              </g>
              <path id="Trazado_1206" data-name="Trazado 1206" d="M833.567,398.427l4.931,18.13a3.528,3.528,0,0,0,4.717,2.347,71.624,71.624,0,0,0,7.108-3.247A4.753,4.753,0,0,0,852,408.827l-10.253-15.288Z" transform="translate(-791.932 -393.539)" fill="url(#linear-gradient-13)"/>
            </g>
            <path id="Trazado_1207" data-name="Trazado 1207" d="M777.345,454.523l126.374,45.994a9.677,9.677,0,0,1,5.5,13.1l-.383.843a8.994,8.994,0,0,1-11.964,4.44L774.163,462.134Z" transform="translate(-649.843 -358.691)" fill="#f8ad00"/>
            <ellipse id="Elipse_63" data-name="Elipse 63" cx="62.384" cy="61.259" rx="62.384" ry="61.259" transform="translate(7.032 6.906)" fill="#c8e6ee" opacity="0.72"/>
            <path id="Trazado_1208" data-name="Trazado 1208" d="M637.969,417.7c0,37.646,31.079,68.165,69.416,68.165S776.8,455.348,776.8,417.7s-31.079-68.164-69.417-68.164S637.969,380.056,637.969,417.7Zm10.2,0c0-32.116,26.513-58.151,59.219-58.151s59.22,26.035,59.22,58.151-26.514,58.152-59.22,58.152S648.166,449.818,648.166,417.7Z" transform="translate(-637.969 -349.538)" fill="#f8ad00"/>
            <g id="Grupo_1474" data-name="Grupo 1474" transform="translate(34.501 4.486)">
              <path id="Trazado_1209" data-name="Trazado 1209" d="M774.819,426.309a.122.122,0,0,1-.026,0,.2.2,0,0,1-.174-.225c.2-1.595.348-3.221.427-4.835a.189.189,0,0,1,.211-.191.2.2,0,0,1,.191.21c-.08,1.625-.226,3.262-.43,4.867A.2.2,0,0,1,774.819,426.309Zm-.477-19.06a.2.2,0,0,1-.2-.166,62.124,62.124,0,0,0-3.7-12.68,63.471,63.471,0,0,0-23.323-28.471,65.479,65.479,0,0,0-71.046-1.189.2.2,0,0,1-.214-.341,65.882,65.882,0,0,1,71.484,1.2,63.863,63.863,0,0,1,23.469,28.651,62.423,62.423,0,0,1,3.729,12.763.2.2,0,0,1-.162.233A.231.231,0,0,1,774.343,407.249Z" transform="translate(-675.765 -354.452)" fill="#91b3fa"/>
            </g>
            <path id="Trazado_1210" data-name="Trazado 1210" d="M889.365,491.215l-11.947-.974-5.174,4.769s1.224,1.692,5.051.719a54.816,54.816,0,0,1,9.069-1.21s5.283,2.382,5.347-2.075Z" transform="translate(-658.394 -361.805)" fill="url(#linear-gradient-14)"/>
            <path id="Trazado_1211" data-name="Trazado 1211" d="M788.853,470.045c-1.033.807-4.573-.878-6.739-2.043a2.493,2.493,0,0,1-1.2-2.945c.522-1.644,1.39-3.765,2.46-4.034C785.145,460.58,793.111,466.719,788.853,470.045Z" transform="translate(-650.421 -359.256)" fill="url(#linear-gradient-15)"/>
            <path id="Trazado_1212" data-name="Trazado 1212" d="M912.014,520.962a.2.2,0,0,1-.066-.391c3.679-1.272,5.607-3.347,5.729-6.168a6.85,6.85,0,0,0-4.478-6.593l-15.174-5.917a.2.2,0,0,1,.146-.374l15.174,5.917a7.252,7.252,0,0,1,4.734,6.984c-.131,3-2.149,5.2-6,6.531A.212.212,0,0,1,912.014,520.962Z" transform="translate(-660.63 -362.787)" fill="#91b3fa"/>
            <path id="Trazado_1213" data-name="Trazado 1213" d="M892.788,499.835a.188.188,0,0,1-.073-.014l-1.966-.767a.2.2,0,1,1,.146-.374l1.966.767a.2.2,0,0,1-.073.388Z" transform="translate(-659.996 -362.539)" fill="#91b3fa"/>
            <g id="Grupo_1475" data-name="Grupo 1475" transform="translate(172.19 17.014)">
              <path id="Trazado_1214" data-name="Trazado 1214" d="M831.958,379.4s-4.082,9.377-4.356,14.3-1.335,8.115,4.356,9.106,10.486-1.844,13.083-6.747c0,0,4.069-7.554,3.157-10.648S831.958,379.4,831.958,379.4Z" transform="translate(-826.669 -369.155)" fill="url(#linear-gradient-16)"/>
              <path id="Trazado_1215" data-name="Trazado 1215" d="M843.031,391.552h-.719s2.965-6.08.36-7.148-12.921-3.173-15.147-6.833a6.808,6.808,0,0,1,2.631-9.364.383.383,0,0,1,.487.18l.237.449a.386.386,0,0,0,.713-.073h0a.385.385,0,0,1,.694-.106c.681,1.094,2.526,2.874,7.475,3.788,7.021,1.3,11.663,4.138,11.777,8.99a.387.387,0,0,0,.6.317c.518-.316,1.348-.464,2.456.468,1.928,1.621,1.139,5.827-3.087,9.286a.385.385,0,0,0,.018.62c.766.5,1.908,1.685-1.052,3.267-3.028,1.618-4.819,1.442-5.5,1.27a.386.386,0,0,1-.293-.4l.266-4.3a.386.386,0,0,0-.386-.41Z" transform="translate(-826.605 -368.177)" fill="url(#linear-gradient-17)"/>
              <path id="Trazado_1216" data-name="Trazado 1216" d="M844.407,394.33s1.557-5.99,4.243-4.31-1.394,6.712-3.553,6.936Z" transform="translate(-828.157 -370.055)" fill="url(#linear-gradient-18)"/>
            </g>
          </g>
        </g>
        <path id="Trazado_1217" data-name="Trazado 1217" d="M680.074,410.875l23.621,18.385,45.347-37.169,11.7,13.358-57.047,59.686L667.142,425.1Z" transform="translate(-640.512 -353.248)" fill="#fff"/>
      </g>
      <path id="Trazado_1218" data-name="Trazado 1218" d="M1288.059,138.212c-31.543-.845-187.573-5.818-219.6-6.84-3.16-.1-5.751,4.534-5.751,10.287v26.59c0,5.682,2.53,10.288,5.652,10.288h219.609c3.122,0,5.652-4.606,5.652-10.288V148.5C1293.626,142.876,1291.148,138.295,1288.059,138.212Z" transform="translate(-49.066 -3.185)" fill="#f8ad00"/>
      <g id="Grupo_1479" data-name="Grupo 1479" transform="translate(1020.735 133.559)">
        <path id="Trazado_1219" data-name="Trazado 1219" d="M1079.917,172.634l8.151-4.269a2.174,2.174,0,0,1,2.023,0l8.138,4.295a2.175,2.175,0,0,0,3.158-2.288l-1.542-9.071a2.175,2.175,0,0,1,.628-1.923l6.6-6.413a2.174,2.174,0,0,0-1.2-3.711l-9.1-1.336a2.174,2.174,0,0,1-1.635-1.192l-4.059-8.257a2.174,2.174,0,0,0-3.9-.005l-4.085,8.245a2.173,2.173,0,0,1-1.638,1.187l-9.107,1.309a2.174,2.174,0,0,0-1.21,3.707l6.579,6.433a2.177,2.177,0,0,1,.623,1.925l-1.569,9.066A2.174,2.174,0,0,0,1079.917,172.634Z" transform="translate(-1070.478 -137.258)" fill="#fff"/>
      </g>
      <g id="Grupo_1480" data-name="Grupo 1480" transform="translate(1062.791 134.759)">
        <path id="Trazado_1220" data-name="Trazado 1220" d="M1125.99,173.949l8.151-4.269a2.173,2.173,0,0,1,2.024,0l8.138,4.294a2.173,2.173,0,0,0,3.157-2.287l-1.541-9.072a2.174,2.174,0,0,1,.628-1.923l6.6-6.413a2.174,2.174,0,0,0-1.2-3.71l-9.1-1.337a2.172,2.172,0,0,1-1.635-1.191l-4.06-8.257a2.174,2.174,0,0,0-3.9-.006l-4.085,8.245a2.175,2.175,0,0,1-1.639,1.187l-9.108,1.309a2.174,2.174,0,0,0-1.21,3.706l6.58,6.433a2.175,2.175,0,0,1,.621,1.926l-1.569,9.066A2.174,2.174,0,0,0,1125.99,173.949Z" transform="translate(-1116.55 -138.572)" fill="#fff"/>
      </g>
      <g id="Grupo_1481" data-name="Grupo 1481" transform="translate(1105.214 134.995)">
        <path id="Trazado_1221" data-name="Trazado 1221" d="M1172.464,174.208l8.151-4.27a2.176,2.176,0,0,1,2.024,0l8.138,4.294a2.174,2.174,0,0,0,3.157-2.287l-1.542-9.072a2.173,2.173,0,0,1,.629-1.923l6.6-6.413a2.173,2.173,0,0,0-1.2-3.71l-9.1-1.337a2.174,2.174,0,0,1-1.636-1.192l-4.059-8.256a2.174,2.174,0,0,0-3.9-.006l-4.085,8.245a2.176,2.176,0,0,1-1.639,1.188l-9.108,1.309a2.174,2.174,0,0,0-1.21,3.706l6.579,6.433a2.172,2.172,0,0,1,.623,1.925l-1.569,9.067A2.174,2.174,0,0,0,1172.464,174.208Z" transform="translate(-1163.025 -138.831)" fill="#fff"/>
      </g>
      <g id="Grupo_1482" data-name="Grupo 1482" transform="translate(1146.393 135.478)">
        <path id="Trazado_1222" data-name="Trazado 1222" d="M1217.577,174.737l8.151-4.269a2.172,2.172,0,0,1,2.023,0l8.138,4.294a2.174,2.174,0,0,0,3.158-2.287l-1.542-9.072a2.174,2.174,0,0,1,.628-1.923l6.6-6.413a2.174,2.174,0,0,0-1.2-3.71l-9.1-1.337a2.174,2.174,0,0,1-1.635-1.191l-4.06-8.257a2.174,2.174,0,0,0-3.9-.006l-4.085,8.245a2.175,2.175,0,0,1-1.638,1.187L1210,151.31a2.175,2.175,0,0,0-1.211,3.707l6.58,6.432a2.178,2.178,0,0,1,.623,1.926l-1.57,9.066A2.174,2.174,0,0,0,1217.577,174.737Z" transform="translate(-1208.137 -139.36)" fill="#fff"/>
      </g>
      <g id="Grupo_1483" data-name="Grupo 1483" transform="translate(1198.171 374.213)">
        <path id="Trazado_1223" data-name="Trazado 1223" d="M1267.465,619.694a2.535,2.535,0,0,0,2.561-1.937l40.456-214.152a2.365,2.365,0,0,0-2.132-2.677,2.587,2.587,0,0,0-3,1.9L1264.9,616.985a2.365,2.365,0,0,0,2.132,2.677A2.938,2.938,0,0,0,1267.465,619.694Z" transform="translate(-1264.861 -400.896)" fill="#bbce00"/>
        <path id="Trazado_1224" data-name="Trazado 1224" d="M1412.428,619.961a2.927,2.927,0,0,0,.517-.047,2.346,2.346,0,0,0,2.036-2.737l-47.69-211.366a2.6,2.6,0,0,0-3.063-1.818,2.345,2.345,0,0,0-2.035,2.737l47.69,211.366A2.548,2.548,0,0,0,1412.428,619.961Z" transform="translate(-1273.342 -401.161)" fill="#bbce00"/>
        <path id="Trazado_1225" data-name="Trazado 1225" d="M1301.283,461.4h69.134a2.338,2.338,0,1,0,0-4.647h-69.134a2.338,2.338,0,1,0,0,4.647Z" transform="translate(-1267.809 -405.765)" fill="url(#linear-gradient-19)"/>
        <path id="Trazado_1226" data-name="Trazado 1226" d="M1302.665,461.4h66.625a2.33,2.33,0,1,0,0-4.647h-66.625a2.33,2.33,0,1,0,0,4.647Z" transform="translate(-1267.938 -405.765)" fill="#bbce00"/>
        <path id="Trazado_1227" data-name="Trazado 1227" d="M1301.283,503.818h69.134a2.338,2.338,0,1,0,0-4.647h-69.134a2.338,2.338,0,1,0,0,4.647Z" transform="translate(-1267.809 -409.463)" fill="url(#linear-gradient-19)"/>
        <path id="Trazado_1228" data-name="Trazado 1228" d="M1294.406,503.818h83.815a2.338,2.338,0,1,0,0-4.647h-83.815a2.338,2.338,0,1,0,0,4.647Z" transform="translate(-1267.21 -409.463)" fill="#bbce00"/>
        <path id="Trazado_1229" data-name="Trazado 1229" d="M1301.283,546.238h69.134a2.338,2.338,0,1,0,0-4.647h-69.134a2.338,2.338,0,1,0,0,4.647Z" transform="translate(-1267.809 -413.162)" fill="url(#linear-gradient-19)"/>
        <path id="Trazado_1230" data-name="Trazado 1230" d="M1285.636,546.238h100.326a2.338,2.338,0,1,0,0-4.647H1285.636a2.338,2.338,0,1,0,0,4.647Z" transform="translate(-1266.445 -413.162)" fill="#bbce00"/>
        <path id="Trazado_1231" data-name="Trazado 1231" d="M1301.283,588.657h94.109a2.338,2.338,0,1,0,0-4.646h-94.109a2.338,2.338,0,1,0,0,4.646Z" transform="translate(-1267.809 -416.86)" fill="url(#linear-gradient-22)"/>
        <path id="Trazado_1232" data-name="Trazado 1232" d="M1278.542,588.657h114.867a2.338,2.338,0,1,0,0-4.646H1278.542a2.338,2.338,0,1,0,0,4.646Z" transform="translate(-1265.827 -416.86)" fill="#bbce00"/>
      </g>
      <g id="Grupo_1486" data-name="Grupo 1486" transform="translate(795.26 281.232)">
        <g id="Grupo_1484" data-name="Grupo 1484" transform="translate(34.631 6.686)">
          <path id="Trazado_1233" data-name="Trazado 1233" d="M900.014,375.125a2.358,2.358,0,0,1-2.257-1.07l-2.8-4.364a28.7,28.7,0,0,1-7.2-1.127l-4,3.305a2.353,2.353,0,0,1-2.729.194l-6.33-3.862a2.353,2.353,0,0,1-1.074-2.518l1.109-5.062a28.692,28.692,0,0,1-4.3-5.883l-5.159-.488a2.357,2.357,0,0,1-2.068-1.79l-1.747-7.21a2.355,2.355,0,0,1,1.021-2.539l4.362-2.8a28.773,28.773,0,0,1,1.127-7.2l-3.305-4a2.358,2.358,0,0,1-.2-2.728l3.863-6.334a2.357,2.357,0,0,1,2.516-1.074l5.066,1.11a28.7,28.7,0,0,1,5.883-4.3l.488-5.158a2.357,2.357,0,0,1,1.789-2.068l7.209-1.747a2.351,2.351,0,0,1,2.537,1.013l2.8,4.37a28.734,28.734,0,0,1,7.2,1.127l4-3.305a2.361,2.361,0,0,1,2.725-.2l6.337,3.866a2.358,2.358,0,0,1,1.075,2.512l-1.11,5.069a28.731,28.731,0,0,1,4.295,5.883l5.16.488a2.359,2.359,0,0,1,2.068,1.791l1.746,7.209a2.354,2.354,0,0,1-1.02,2.539l-4.362,2.8a28.772,28.772,0,0,1-1.127,7.2l3.305,4a2.36,2.36,0,0,1,.194,2.728l-3.863,6.333a2.354,2.354,0,0,1-2.512,1.075l-5.069-1.11a28.783,28.783,0,0,1-5.883,4.3l-.488,5.159a2.361,2.361,0,0,1-1.789,2.068l-7.212,1.746A2.292,2.292,0,0,1,900.014,375.125Zm-13.05-10.695.969.319a25.064,25.064,0,0,0,8.032,1.257l1.021-.007,3.368,5.259,5.354-1.3.589-6.218.909-.46a25.054,25.054,0,0,0,6.566-4.793l.715-.727,6.1,1.337,2.868-4.7-3.982-4.815.318-.969a25.066,25.066,0,0,0,1.259-8.031l-.007-1.02,5.258-3.368-1.3-5.354-6.217-.589-.459-.91a25.116,25.116,0,0,0-4.794-6.566l-.727-.715,1.337-6.1-4.7-2.868-4.816,3.983-.969-.319a25.07,25.07,0,0,0-8.031-1.259l-1.02.008-3.368-5.259-5.354,1.3-.589,6.217-.91.46a25.048,25.048,0,0,0-6.565,4.794l-.716.727L871,322.4l-2.869,4.7,3.983,4.815-.319.969a25.038,25.038,0,0,0-1.258,8.032l.007,1.02-5.258,3.368,1.3,5.353,6.217.589.459.91a25.06,25.06,0,0,0,4.8,6.566l.727.716-1.337,6.1,4.7,2.868Zm-5.551,4.59,0,0Zm-4.17-2.547v0Zm-.614-1.428,0,0ZM871.5,321.582l0,0Zm26.42,38.717A19.735,19.735,0,1,1,915.4,340.2a1.848,1.848,0,1,1-3.694.093,16.128,16.128,0,0,0-.45-3.388,16.044,16.044,0,1,0-4.347,15.228,1.848,1.848,0,0,1,2.593,2.633,19.724,19.724,0,0,1-9.2,5.109A19.982,19.982,0,0,1,897.922,360.3Z" transform="translate(-861.406 -306.359)" fill="#fff"/>
          <path id="Trazado_1234" data-name="Trazado 1234" d="M899.258,351.611a8.437,8.437,0,1,1,6.479-12.313h0a8.444,8.444,0,0,1-6.479,12.313Zm-1.534-13.091a4.74,4.74,0,1,0,4.744,2.5h0a4.748,4.748,0,0,0-4.744-2.5Z" transform="translate(-863.885 -308.838)" fill="#fff"/>
        </g>
        <g id="Grupo_1485" data-name="Grupo 1485">
          <path id="Trazado_1235" data-name="Trazado 1235" d="M838.532,333.037a1.623,1.623,0,0,1-.6-.041l-3.454-.893a1.633,1.633,0,0,1-1.218-1.445l-.176-2.232a14.328,14.328,0,0,1-2.481-1.868l-2.187.445a1.622,1.622,0,0,1-1.727-.765l-1.813-3.08a1.626,1.626,0,0,1,.166-1.887l1.447-1.7a14.307,14.307,0,0,1-.43-3.074l-1.864-1.233a1.636,1.636,0,0,1-.677-1.769l.893-3.453a1.656,1.656,0,0,1,1.451-1.217l2.226-.176a14.229,14.229,0,0,1,1.867-2.48l-.445-2.187a1.636,1.636,0,0,1,.773-1.731l3.072-1.81a1.635,1.635,0,0,1,1.891.169l1.693,1.445a14.322,14.322,0,0,1,3.073-.432l1.233-1.862a1.632,1.632,0,0,1,1.769-.677l3.452.893a1.629,1.629,0,0,1,1.218,1.444l.176,2.233a14.273,14.273,0,0,1,2.48,1.867l2.185-.444a1.63,1.63,0,0,1,1.735.777l1.807,3.066a1.63,1.63,0,0,1-.159,1.881l-1.453,1.7a14.3,14.3,0,0,1,.43,3.073l1.863,1.234a1.631,1.631,0,0,1,.677,1.77l-.893,3.451a1.636,1.636,0,0,1-1.444,1.217l-2.233.177a14.306,14.306,0,0,1-1.867,2.479l.445,2.189a1.629,1.629,0,0,1-.768,1.727l-3.076,1.812a1.629,1.629,0,0,1-1.891-.169l-1.693-1.445a14.384,14.384,0,0,1-3.074.432l-1.233,1.863A1.625,1.625,0,0,1,838.532,333.037Zm-1.141-2.251,0,0Zm10.107-1.429.008.007Zm-1.31-.109,0,0Zm-10.227.374,1.879.486,1.616-2.439.764.018a11.505,11.505,0,0,0,3.713-.521l.73-.227,2.224,1.9,1.671-.985-.581-2.865.552-.529a11.575,11.575,0,0,0,2.257-2.995l.354-.677,2.917-.231.486-1.879L852.1,317.06l.017-.765a11.528,11.528,0,0,0-.52-3.712l-.228-.729,1.9-2.225-.985-1.672-2.864.581-.529-.552a11.558,11.558,0,0,0-3-2.256l-.676-.355-.231-2.916-1.88-.486-1.616,2.439-.764-.017a11.578,11.578,0,0,0-3.712.52l-.73.227-2.225-1.9-1.671.985.581,2.864-.552.529a11.565,11.565,0,0,0-2.257,3l-.354.676-2.916.232-.486,1.879,2.439,1.615-.017.765a11.553,11.553,0,0,0,.52,3.712l.228.731-1.9,2.223.985,1.672,2.865-.582.529.554a11.548,11.548,0,0,0,2.995,2.255l.677.355Zm12.758-.977,0,.007Zm-21.566-5.576,0,0Zm.11-1.322,0,.007Zm27.482-3.859v0Zm-1.063-7.56,0,0Zm-.6-2.534h0Zm-1.215-.539.006.012Zm.935-.819h0Zm-21.113-1.8,0,0Zm14.08-1.979.006,0Zm-3.451-.893h0Zm-8.878.948.007.007Zm8.125,23.241a9.991,9.991,0,1,1,8.323-13.068,1.386,1.386,0,0,1-2.633.871,7.218,7.218,0,1,0-.518,5.726,1.385,1.385,0,1,1,2.434,1.324,10.024,10.024,0,0,1-7.607,5.146Z" transform="translate(-823.468 -299.035)" fill="#fff"/>
        </g>
      </g>
      <g id="Grupo_1489" data-name="Grupo 1489" transform="translate(1186.705 122.33)">
        <g id="Grupo_1487" data-name="Grupo 1487" transform="translate(0)">
          <path id="Trazado_1236" data-name="Trazado 1236" d="M1274.446,197.211l15.673-9.788a4.368,4.368,0,0,1,4.053-.3l16.948,7.363a4.366,4.366,0,0,0,5.976-5.06l-4.466-17.931a4.367,4.367,0,0,1,.966-3.947l12.239-13.844a4.365,4.365,0,0,0-2.965-7.247l-18.433-1.294a4.365,4.365,0,0,1-3.455-2.138L1291.6,127.1a4.366,4.366,0,0,0-7.809.581l-6.927,17.131a4.366,4.366,0,0,1-3.1,2.626l-18.039,4.005a4.367,4.367,0,0,0-1.861,7.607l14.152,11.881a4.366,4.366,0,0,1,1.539,3.761l-1.765,18.394A4.367,4.367,0,0,0,1274.446,197.211Z" transform="translate(-1252.299 -124.956)" fill="#fff"/>
        </g>
        <g id="Grupo_1488" data-name="Grupo 1488" transform="translate(2.409 46.953)">
          <path id="Trazado_1237" data-name="Trazado 1237" d="M1317.6,189.716s-25.7,32.907,3.622,66.376l11.024-1.027c-.634.059-3.258-5.924-3.52-6.445a113.887,113.887,0,0,1-6.8-16.684,76.955,76.955,0,0,1-3.868-22.012,50.335,50.335,0,0,1,1.111-11.474c.473-2.157,1.277-3.811,3.409-4.692a10.884,10.884,0,0,0,5.592-4.788,8.436,8.436,0,0,0-3.987-11.6c-.69-.33-6-1.557-6-.648,0,2.1,1.306,3.941,2.161,5.86C1321.944,186.172,1320.54,187.924,1317.6,189.716Z" transform="translate(-1259.493 -176.393)" fill="url(#linear-gradient-23)"/>
          <path id="Trazado_1238" data-name="Trazado 1238" d="M1334.013,366.658s20.824,45.386,31.75,64.185c0,0,2.17,11.828,0,15.548l-1.849.822,8.631-.257s.767-15.91.168-16.8a2.2,2.2,0,0,0-1.8-.831s-3.7-29.32-14.418-35.577l-10.387-35.774Z" transform="translate(-1261.832 -192.224)" fill="url(#linear-gradient-24)"/>
          <path id="Trazado_1239" data-name="Trazado 1239" d="M1362.731,456.248c-.013.208,6.739.113,10.407.046a2.917,2.917,0,0,0,2.8-2.3l2.771-14.552a2.617,2.617,0,0,0-1.987-3.04l-1.547-.354s-2.205,3.026-1.512,5.875,1.313,10.227-.442,11.087-6.8,1.01-6.8,1.01S1362.847,454.374,1362.731,456.248Z" transform="translate(-1264.336 -199.031)" fill="#4abbec"/>
          <path id="Trazado_1240" data-name="Trazado 1240" d="M1312.354,457.742a.762.762,0,0,0,.384,1.424c6.138-.062,19.892-.256,21.115-.764,1.577-.656-.575-6.327-2.842-8.245l-12.511,4.083Z" transform="translate(-1259.91 -200.261)" fill="#4abbec"/>
          <path id="Trazado_1241" data-name="Trazado 1241" d="M1308.136,364.315s13.457,65.1,17.264,77.8l-9.006,5.651s4.513-.768,7.859-1.01,6.424-4.083,6.424-4.083l-1.079-1.721s-3.375-64.745-2.553-72.1Z" transform="translate(-1259.576 -192.777)" fill="url(#linear-gradient-25)"/>
          <path id="Trazado_1242" data-name="Trazado 1242" d="M1301.4,251.237c5.158,1.43,22.632,6.027,33.541,5.839l-6.7,37.8.533,6.165-21.838-.1s-6.148-14.277-11-21.4c-1.4-2.056-.358-4.508.435-6.865l-1.091-.727a2.969,2.969,0,0,1-1.177-3.395l5.318-16.271A1.624,1.624,0,0,1,1301.4,251.237Z" transform="translate(-1258.34 -182.913)" fill="#bbce00"/>
          <path id="Trazado_1243" data-name="Trazado 1243" d="M1306.108,302.089l.429,3.734s-6.172,18.483,3.086,61.65c0,0,20.049,5.68,36.527-7.911,0,0-4.649-40.744-5.918-42.641-6.324-9.453-10.537-11.508-10.537-11.508l-.191-4.08S1311.881,304.519,1306.108,302.089Z" transform="translate(-1259.261 -187.286)" fill="#bbce00"/>
          <path id="Trazado_1244" data-name="Trazado 1244" d="M1315.624,253.243c-.077-.1,4.559-14,4.559-14l6.641.6,2.594,15.763S1319.01,257.713,1315.624,253.243Z" transform="translate(-1260.229 -181.873)" fill="url(#linear-gradient-26)"/>
          <path id="Trazado_1245" data-name="Trazado 1245" d="M1325.038,215.177c-.443.276-14.19,5.957-11.236,20.229a2.678,2.678,0,0,0,1.523,1.909,23.284,23.284,0,0,0,11.555,1.912c7.2-.732,11.92-13.3,11.72-16.956S1329.427,212.444,1325.038,215.177Z" transform="translate(-1260.034 -179.716)" fill="url(#linear-gradient-27)"/>
          <path id="Trazado_1246" data-name="Trazado 1246" d="M1329.422,209.132c-.361.047-7.944,2.688-4.184,8.183s5.171,8.729,3.393,11.142c-1.62,2.2-5.21.946-4.9,5.519a2.565,2.565,0,0,1-1.093,2.319c-3.383,2.29-11.635,9.337-3.459,19.388a2.559,2.559,0,0,1,.288,2.864c-2.4,4.295-7.425,16.878,10.786,23.858,18,6.9,24.493-4.866,26.308-9.568a2.51,2.51,0,0,1,2.483-1.588c1.977.094,4.78-.236,4.651-2.878a6.6,6.6,0,0,0-2.264-4.2,2.507,2.507,0,0,1,.483-3.948,4.913,4.913,0,0,0,2.425-3.05c1.091-4.041-1.086-16.125-12.669-18.172a2.734,2.734,0,0,1-2.118-2.047l-.007-.044a2.5,2.5,0,0,1,.93-2.462,6.5,6.5,0,0,0,2.295-8.468,9.493,9.493,0,0,0-7.419-5.613,2.523,2.523,0,0,1-2.068-3.015C1344.109,213.49,1343.393,207.3,1329.422,209.132Z" transform="translate(-1260.234 -179.219)" fill="url(#linear-gradient-28)"/>
          <path id="Trazado_1247" data-name="Trazado 1247" d="M1270.094,196.132S1268.238,230,1299.068,247.3l-7.422,16.929s-27.914-16.883-26.882-62.932a5.357,5.357,0,0,0-1.31-3.607l-5.933-6.883a10.649,10.649,0,0,1-2.265-9.537l.781-3.122a1.618,1.618,0,0,1,2.382-1.007l.621.361a10.886,10.886,0,0,1,4.472,4.97l2.979,4.7c1.088,2.433,1.342,3.453,4,3.224l4.936.056Z" transform="translate(-1254.938 -176.44)" fill="url(#linear-gradient-29)"/>
        </g>
      </g>
    </g>
    <text id="_Felicidades_tu_crédito_fue_preaprobado_" data-name="¡Felicidades, tu crédito fue preaprobado!" transform="translate(392.034 681.739)" fill="#f8ad00" font-size="65.028" font-family="JosefinSans-SemiBold, Josefin Sans" font-weight="600" letter-spacing="-0.028em"><tspan x="0" y="0">¡Felicidades, tu crédito fue preaprobado!</tspan></text>
  </g>
</svg>
