<?xml version="1.0" encoding="utf-8"?>
<!-- Generator: Adobe Illustrator 26.0.1, SVG Export Plug-In . SVG Version: 6.00 Build 0)  -->
<svg version="1.1" id="Capa_1" xmlns="http://www.w3.org/2000/svg" xmlns:xlink="http://www.w3.org/1999/xlink" x="0px" y="0px"
	 viewBox="0 0 1920 933.3" style="enable-background:new 0 0 1920 933.3;" xml:space="preserve">
<style type="text/css">
	.st0{fill:#FFFFFF;}
	.st1{fill:#00233D;}
	.st2{fill:#002440;}
	.st3{fill:#002643;}
	.st4{fill:#002746;}
	.st5{fill:#002849;}
	.st6{fill:#002A4C;}
	.st7{fill:#002B4F;}
	.st8{fill:#002D52;}
	.st9{fill:#002E55;}
	.st10{fill:#002F58;}
	.st11{fill:#00315A;}
	.st12{fill:#00325D;}
	.st13{fill:#003360;}
	.st14{fill:#003563;}
	.st15{fill:#003666;}
	.st16{fill:#003869;}
	.st17{fill:#00396C;}
	.st18{fill:#003A6F;}
	.st19{fill:#003C72;}
	.st20{fill:#003D75;}
	.st21{fill:#FFFFFF;}
	.st22{fill:#E8F2FA;}
	.st23{opacity:0.5;}
	.st24{opacity:0.3;fill:#29ACE3;}
	.st25{fill:#2D3554;}
	.st26{opacity:0.5;fill:#29ACE3;}
	.st27{fill:#29ACE3;}
	.st28{opacity:0.3;}
	.st29{fill:#FFDD00;}
	.st30{fill:#DDB300;}
	.st31{fill:#1D4071;}
	.st32{fill:#1F3865;}
	.st33{fill:#FFAE73;}
	.st34{fill:#F9924F;}
	.st35{fill:#1E3865;}
	.st36{fill:#0B3563;}
	.st37{fill:#002E51;}
	.st38{fill:#173359;}
	.st39{fill:#F8CAA4;}
	.st40{fill:#AA8D00;}
	.st41{fill:#FF7B35;}
	.st42{fill:#F48F4E;}
	.st43{fill:#838383;}
	.st44{opacity:0.8;}
	.st45{opacity:0.69;fill:#29ACE3;}
	.st46{fill:#9CCC98;}
	.st47{fill:#F5A977;}
	.st48{fill:#193257;}
	.st49{fill:#B79400;}
	.st50{fill:#01263D;}
	.st51{fill:#F29154;}
	.st52{fill:#293967;}
	.st53{fill:#ACBFE3;}
	.st54{fill:#F18E37;}
	.st55{fill:#7392CB;}
	.st56{fill:#ED750F;}
	.st57{fill:#DFF0F4;}
	.st58{fill:#E6F2FC;}
	.st59{fill:#E4EDF9;}
	.st60{fill:#153D68;}
	.st61{fill:#224E9A;}
	.st62{fill:#0E457F;}
	.st63{fill:#F39B64;}
	.st64{fill:#1B3660;}
	.st65{fill:#084D88;}
	.st66{fill:#AECCEC;}
	.st67{fill:#F29053;}
	.st68{fill:#114481;}
	.st69{fill:#F18E4E;}
	.st70{fill:#013059;}
	.st71{fill:#01315B;}
	.st72{fill:#01325D;}
	.st73{fill:#01335F;}
	.st74{fill:#013461;}
	.st75{fill:#013563;}
	.st76{fill:#013665;}
	.st77{fill:#013767;}
	.st78{fill:#003769;}
	.st79{fill:#00386B;}
	.st80{fill:#00396D;}
	.st81{fill:#003B71;}
	.st82{fill:#003C73;}
	.st83{fill:#012744;}
	.st84{fill:#012847;}
	.st85{fill:#012949;}
	.st86{fill:#012A4C;}
	.st87{fill:#012C4E;}
	.st88{fill:#012D51;}
	.st89{fill:#012E53;}
	.st90{fill:#012F56;}
	.st91{fill:#00335E;}
	.st92{fill:#003460;}
	.st93{fill:#003768;}
	.st94{fill:#003A6D;}
	.st95{fill:#003B70;}
	.st96{opacity:0.5;fill:#BC9D02;}
	.st97{opacity:0.5;fill:#FFDD00;}
	.st98{fill:#FFF0A9;}
	.st99{fill:#0064AF;}
	.st100{fill:#C8E6EE;}
	.st101{opacity:0.52;fill:#FFFFFF;}
	.st102{fill:#BC9D02;}
	.st103{fill:#014A7C;}
	.st104{opacity:0.7;fill:#FFFFFF;}
	.st105{fill:#015DA7;}
	.st106{fill:#19ABE3;}
	.st107{fill:#FFEB8A;}
	.st108{fill:url(#SVGID_1_);}
	.st109{fill:url(#SVGID_00000164511294276476087670000010543379418439143309_);}
	.st110{fill:#013451;}
	.st111{fill:url(#SVGID_00000103257335490730368690000010510907858002930107_);}
	.st112{fill:url(#SVGID_00000134221978211141848120000001076748606365499326_);}
	.st113{fill:url(#SVGID_00000141437642859057007420000004649322103015915152_);}
	.st114{opacity:0.72;fill:#C8E6EE;}
	.st115{fill:#91B3FA;}
	.st116{fill:url(#SVGID_00000092436294511648010420000004790624087890946999_);}
	.st117{fill:url(#SVGID_00000137133936514874358390000003863020647518239664_);}
	.st118{fill:url(#SVGID_00000039814968567068429240000011359031355073443461_);}
	.st119{fill:url(#SVGID_00000168079923932722215310000000266522580552894123_);}
	.st120{fill:url(#SVGID_00000109721526933618908840000010255992651510965900_);}
	.st121{fill:#D3AF00;}
	.st122{fill:url(#SVGID_00000049913994548192205530000007561183106092416915_);}
	.st123{fill:url(#SVGID_00000181794201846973637250000003986775436664274072_);}
	.st124{fill:url(#SVGID_00000147199401390439426170000011639894712246449312_);}
	.st125{fill:url(#SVGID_00000052802677305808374930000017290109301034028210_);}
	.st126{fill:url(#SVGID_00000078046362462566406790000000004900836456182967_);}
	.st127{fill:#4ABBEC;}
	.st128{fill:url(#SVGID_00000183964438662800916010000009760548001244456596_);}
	.st129{fill:url(#SVGID_00000179611038555161371740000002974169949243677097_);}
	.st130{fill:url(#SVGID_00000093878260302965194050000017977451116911069350_);}
	.st131{fill:url(#SVGID_00000059307419089658234710000012244250279831976382_);}
	.st132{fill:url(#SVGID_00000020362501916007074740000010705650911198901152_);}
	.st133{fill:#013666;}
	.st134{fill:#013766;}
	.st135{fill:#013768;}
	.st136{fill:#013869;}
	.st137{fill:#01386A;}
	.st138{fill:#01396B;}
	.st139{fill:#01396C;}
	.st140{fill:#01396D;}
	.st141{fill:#003A6E;}
	.st142{fill:#003C74;}
	.st143{fill:#003D74;}
	.st144{fill:#6B6A6A;}
	.st145{fill:#F5F5F5;}
	.st146{fill:#1A2E35;}
	.st147{fill:#FF4F5B;}
	.st148{fill:#FFBF9D;}
	.st149{fill:#FF9A6C;}
	.st150{fill:#375A64;}
	.st151{opacity:0.4;}
	.st152{fill:#E1E1E1;}
	.st153{fill:#F8AD00;}
	.st154{fill:#808D97;}
	.st155{opacity:0.6;}
	.st156{fill:#FAFAFA;}
	.st157{enable-background:new    ;}
	.st158{fill:#716263;}
	.st159{fill:none;stroke:#716263;stroke-miterlimit:10;}
	.st160{fill:#30B3A7;}
	.st161{fill:none;stroke:#30B3A7;stroke-miterlimit:10;}
	.st162{fill:#CCAA00;}
	.st163{fill:#EFE095;}
	.st164{fill:#E4EFFA;}
	.st165{fill:#A08500;}
	.st166{fill:#011826;}
	.st167{fill:#9BD6F3;}
	.st168{fill:#182844;}
	.st169{fill:#2C3454;}
	.st170{fill:#001321;}
	.st171{fill:#001525;}
	.st172{fill:#00172A;}
	.st173{fill:#001A2E;}
	.st174{fill:#001C33;}
	.st175{fill:#001E37;}
	.st176{fill:#00203C;}
	.st177{fill:#002240;}
	.st178{fill:#002544;}
	.st179{fill:#002749;}
	.st180{fill:#00294D;}
	.st181{fill:#002B52;}
	.st182{fill:#002E56;}
	.st183{fill:#00305A;}
	.st184{fill:#00325F;}
	.st185{fill:#003463;}
	.st186{fill:#003668;}
</style>
<g>
	<rect class="st0" width="1920" height="933.3"/>
	<g>
		<g>
			<path class="st70" d="M1216.9,907H717.8c-21.1,0-38.1-17.1-38.1-38.1v-25.9c0-21.1,17.1-38.1,38.1-38.1h499.1
				c21.1,0,38.1,17.1,38.1,38.1v25.9C1255,889.9,1238,907,1216.9,907z"/>
			<path class="st71" d="M1216.5,906.3H717.5c-21.1,0-38.1-17.1-38.1-38.1v-25.9c0-21.1,17.1-38.1,38.1-38.1h499.1
				c21.1,0,38.1,17.1,38.1,38.1v25.9C1254.6,889.2,1237.6,906.3,1216.5,906.3z"/>
			<path class="st72" d="M1216.1,905.5H717.1c-21.1,0-38.1-17.1-38.1-38.1v-25.9c0-21.1,17.1-38.1,38.1-38.1h499.1
				c21.1,0,38.1,17.1,38.1,38.1v25.9C1254.3,888.4,1237.2,905.5,1216.1,905.5z"/>
			<path class="st73" d="M1215.7,904.8H716.7c-21.1,0-38.1-17.1-38.1-38.1v-25.9c0-21.1,17.1-38.1,38.1-38.1h499.1
				c21.1,0,38.1,17.1,38.1,38.1v25.9C1253.9,887.7,1236.8,904.8,1215.7,904.8z"/>
			<path class="st74" d="M1215.3,904H716.3c-21.1,0-38.1-17.1-38.1-38.1v-25.9c0-21.1,17.1-38.1,38.1-38.1h499.1
				c21.1,0,38.1,17.1,38.1,38.1v25.9C1253.5,886.9,1236.4,904,1215.3,904z"/>
			<path class="st75" d="M1214.9,903.3H715.9c-21.1,0-38.1-17.1-38.1-38.1v-25.9c0-21.1,17.1-38.1,38.1-38.1h499.1
				c21.1,0,38.1,17.1,38.1,38.1v25.9C1253.1,886.2,1236,903.3,1214.9,903.3z"/>
			<path class="st76" d="M1214.5,902.5H715.5c-21.1,0-38.1-17.1-38.1-38.1v-25.9c0-21.1,17.1-38.1,38.1-38.1h499.1
				c21.1,0,38.1,17.1,38.1,38.1v25.9C1252.7,885.4,1235.6,902.5,1214.5,902.5z"/>
			<path class="st77" d="M1214.1,901.8H715.1c-21.1,0-38.1-17.1-38.1-38.1v-25.9c0-21.1,17.1-38.1,38.1-38.1h499.1
				c21.1,0,38.1,17.1,38.1,38.1v25.9C1252.3,884.7,1235.2,901.8,1214.1,901.8z"/>
			<path class="st78" d="M1213.7,901H714.7c-21.1,0-38.1-17.1-38.1-38.1v-25.9c0-21.1,17.1-38.1,38.1-38.1h499.1
				c21.1,0,38.1,17.1,38.1,38.1v25.9C1251.9,883.9,1234.8,901,1213.7,901z"/>
			<path class="st79" d="M1213.3,900.3H714.3c-21.1,0-38.1-17.1-38.1-38.1v-25.9c0-21.1,17.1-38.1,38.1-38.1h499.1
				c21.1,0,38.1,17.1,38.1,38.1v25.9C1251.5,883.2,1234.4,900.3,1213.3,900.3z"/>
			<path class="st80" d="M1212.9,899.5H713.9c-21.1,0-38.1-17.1-38.1-38.1v-25.9c0-21.1,17.1-38.1,38.1-38.1h499.1
				c21.1,0,38.1,17.1,38.1,38.1v25.9C1251.1,882.4,1234,899.5,1212.9,899.5z"/>
			<path class="st18" d="M1212.5,898.8H713.5c-21.1,0-38.1-17.1-38.1-38.1v-25.9c0-21.1,17.1-38.1,38.1-38.1h499.1
				c21.1,0,38.1,17.1,38.1,38.1v25.9C1250.7,881.7,1233.6,898.8,1212.5,898.8z"/>
			<path class="st81" d="M1212.2,898H713.1c-21.1,0-38.1-17.1-38.1-38.1v-25.9c0-21.1,17.1-38.1,38.1-38.1h499.1
				c21.1,0,38.1,17.1,38.1,38.1v25.9C1250.3,880.9,1233.2,898,1212.2,898z"/>
			<path class="st82" d="M1211.8,897.3H712.7c-21.1,0-38.1-17.1-38.1-38.1v-25.9c0-21.1,17.1-38.1,38.1-38.1h499.1
				c21.1,0,38.1,17.1,38.1,38.1v25.9C1249.9,880.2,1232.8,897.3,1211.8,897.3z"/>
			<path class="st20" d="M1211.4,896.5H712.3c-21.1,0-38.1-17.1-38.1-38.1v-25.9c0-21.1,17.1-38.1,38.1-38.1h499.1
				c21.1,0,38.1,17.1,38.1,38.1v25.9C1249.5,879.4,1232.4,896.5,1211.4,896.5z"/>
		</g>
		<g>
			<path class="st21" d="M753.9,814.8H765V871h-11.1V814.8z"/>
			<path class="st21" d="M785.3,837.6l0.8,6L786,843c1.2-2.1,2.8-3.8,5-5.1c2.1-1.3,4.8-1.9,7.9-1.9c3.2,0,5.8,0.9,7.9,2.8
				c2.1,1.9,3.2,4.3,3.2,7.2v25h-10.7v-21c-0.1-1.5-0.4-2.7-1.2-3.6c-0.7-0.9-2-1.3-3.7-1.3c-1.6,0-3.1,0.5-4.3,1.6
				c-1.2,1.1-2.2,2.5-2.8,4.4c-0.7,1.8-1,3.9-1,6.3V871h-10.7v-33.4H785.3z"/>
			<path class="st21" d="M818.6,825.8c0-1.6,0.6-2.9,1.9-3.9c1.2-1,2.6-1.5,4-1.5c1.4,0,2.7,0.5,3.9,1.5c1.2,1,1.8,2.3,1.8,3.9
				c0,1.6-0.6,2.9-1.8,3.9c-1.2,1-2.5,1.5-3.9,1.5c-1.4,0-2.8-0.5-4-1.5C819.2,828.6,818.6,827.3,818.6,825.8z M818.8,837.6h10.7
				V871h-10.7V837.6z"/>
			<path class="st21" d="M866.7,868c-1.5,1.2-3.3,2.1-5.5,2.8c-2.2,0.7-4.4,1.1-6.5,1.1c-3.8,0-7.1-0.7-10-2.1c-2.8-1.4-5-3.4-6.6-6
				c-1.6-2.6-2.3-5.8-2.3-9.5c0-3.7,0.8-6.9,2.5-9.5c1.7-2.6,3.9-4.6,6.6-6c2.7-1.4,5.6-2.1,8.6-2.1c3,0,5.6,0.4,7.8,1.2
				c2.2,0.8,4.1,1.9,5.7,3.2l-5.2,6.9c-0.7-0.6-1.7-1.1-2.9-1.7c-1.2-0.6-2.7-0.9-4.4-0.9c-1.5,0-2.8,0.4-4,1.1s-2.2,1.8-2.9,3.1
				c-0.7,1.3-1.1,2.9-1.1,4.6c0,1.6,0.4,3.1,1.1,4.5s1.8,2.5,3.2,3.2c1.3,0.8,2.9,1.2,4.8,1.2c1.2,0,2.3-0.2,3.2-0.5
				c1-0.3,1.8-0.8,2.6-1.4L866.7,868z"/>
			<path class="st21" d="M872.6,825.8c0-1.6,0.6-2.9,1.9-3.9c1.2-1,2.6-1.5,4-1.5c1.4,0,2.7,0.5,3.9,1.5c1.2,1,1.8,2.3,1.8,3.9
				c0,1.6-0.6,2.9-1.8,3.9s-2.5,1.5-3.9,1.5c-1.4,0-2.8-0.5-4-1.5C873.2,828.6,872.6,827.3,872.6,825.8z M872.8,837.6h10.7V871
				h-10.7V837.6z"/>
			<path class="st21" d="M906.4,871.9c-3.1,0-5.9-0.6-8.4-1.9c-2.5-1.2-4.5-3.2-6-5.8c-1.5-2.6-2.2-5.9-2.2-9.9c0-3.8,0.8-7,2.3-9.8
				c1.5-2.7,3.5-4.9,6-6.4c2.5-1.5,5.1-2.3,7.9-2.3c3.3,0,5.8,0.5,7.5,1.6c1.7,1.1,3.1,2.3,4.2,3.6l-0.5,1.3l1-4.9h9.9V871h-10.7
				v-7.3l0.8,2.3c-0.1,0-0.4,0.3-0.9,0.9c-0.5,0.6-1.3,1.3-2.3,2.1c-1,0.8-2.2,1.5-3.7,2.1S908.4,871.9,906.4,871.9z M909.5,863.2
				c1.3,0,2.4-0.2,3.4-0.6s1.9-0.9,2.7-1.7c0.8-0.7,1.4-1.7,2-2.8V850c-0.4-1.1-1-2.1-1.8-2.9c-0.8-0.8-1.8-1.4-2.9-1.8
				c-1.1-0.4-2.4-0.6-3.7-0.6c-1.5,0-2.9,0.4-4.2,1.2c-1.3,0.8-2.3,1.9-3.1,3.2s-1.1,3-1.1,4.7c0,1.8,0.4,3.4,1.2,4.8
				c0.8,1.4,1.9,2.5,3.2,3.4C906.4,862.8,907.9,863.2,909.5,863.2z"/>
			<path class="st21" d="M946.7,837.6l1,9.2l-0.2-1.4c1-2,2.3-3.7,4-5.1c1.7-1.4,3.3-2.5,5-3.2c1.7-0.8,2.9-1.1,3.8-1.1l-0.5,10.7
				c-2.5-0.3-4.6,0.1-6.4,1.2c-1.8,1.1-3.2,2.6-4.1,4.4c-1,1.8-1.5,3.7-1.5,5.7V871h-10.6v-33.4H946.7z"/>
			<path class="st21" d="M999.8,871.7c-2.8,0-5.3-0.5-7.7-1.5s-4.4-2.3-6-4l4.4-5.9c1.6,1.5,3.1,2.5,4.5,3.2c1.4,0.6,2.7,1,3.8,1
				c0.9,0,1.6-0.1,2.3-0.3c0.7-0.2,1.2-0.5,1.6-0.8c0.4-0.4,0.6-0.9,0.6-1.5c0-0.9-0.3-1.6-1-2.1c-0.7-0.5-1.6-0.9-2.6-1.3
				c-1.1-0.3-2.2-0.7-3.4-1c-3.1-1-5.3-2.4-6.6-4.2c-1.3-1.9-2-3.9-2-6.1c0-1.7,0.4-3.4,1.3-5.1c0.9-1.7,2.3-3.1,4.3-4.3
				c2-1.1,4.5-1.7,7.6-1.7c2.8,0,5.2,0.3,7.1,0.8c1.9,0.6,3.8,1.5,5.5,2.8l-4,6.3c-1-0.8-2-1.4-3.2-1.9c-1.2-0.5-2.3-0.8-3.3-0.9
				c-0.9-0.1-1.7,0.1-2.3,0.3c-0.6,0.3-1.1,0.6-1.5,1c-0.4,0.4-0.5,0.8-0.5,1.3c-0.1,1,0.3,1.7,1.1,2.3c0.8,0.6,1.8,1,3,1.3
				c1.2,0.3,2.4,0.7,3.6,1.1c1.6,0.5,3,1.2,4.2,2.1c1.2,0.9,2.1,1.9,2.7,3.1c0.6,1.2,1,2.6,1,4.3c0,2-0.5,4-1.6,5.8
				c-1,1.8-2.6,3.3-4.7,4.4C1005.8,871.1,1003.1,871.7,999.8,871.7z"/>
			<path class="st21" d="M1037.4,871.9c-4.1,0-7.5-0.8-10.3-2.3c-2.8-1.5-5-3.6-6.5-6.3c-1.5-2.7-2.2-5.8-2.2-9.3
				c0-3.4,0.9-6.4,2.6-9.1c1.7-2.7,4-4.8,7-6.5c2.9-1.6,6.1-2.4,9.7-2.4c4.8,0,8.7,1.4,11.8,4.2c3.1,2.8,5.1,6.8,6,12l-26,8.2
				l-2.4-5.8l18.8-6.3l-2.2,1c-0.4-1.3-1.1-2.5-2.2-3.5c-1-1-2.6-1.5-4.7-1.5c-1.6,0-3,0.4-4.2,1.1c-1.2,0.7-2.1,1.8-2.7,3.1
				c-0.6,1.4-1,2.9-1,4.8c0,2.1,0.4,3.8,1.1,5.2c0.8,1.4,1.8,2.5,3.1,3.2c1.3,0.7,2.8,1.1,4.4,1.1c1.2,0,2.3-0.2,3.4-0.6
				c1.1-0.4,2.2-0.9,3.2-1.6l4.7,7.9c-1.8,1-3.7,1.8-5.8,2.4C1041.2,871.6,1039.2,871.9,1037.4,871.9z"/>
			<path class="st21" d="M1071.9,871.7c-2.7,0-5.3-0.5-7.7-1.5c-2.4-1-4.4-2.3-6-4l4.4-5.9c1.6,1.5,3.1,2.5,4.5,3.2
				c1.4,0.6,2.7,1,3.8,1c0.9,0,1.6-0.1,2.3-0.3c0.7-0.2,1.2-0.5,1.6-0.8c0.4-0.4,0.6-0.9,0.6-1.5c0-0.9-0.3-1.6-1-2.1
				c-0.7-0.5-1.6-0.9-2.6-1.3c-1.1-0.3-2.2-0.7-3.4-1c-3.1-1-5.3-2.4-6.6-4.2c-1.3-1.9-2-3.9-2-6.1c0-1.7,0.4-3.4,1.3-5.1
				c0.9-1.7,2.3-3.1,4.3-4.3c2-1.1,4.5-1.7,7.6-1.7c2.8,0,5.2,0.3,7.1,0.8c1.9,0.6,3.8,1.5,5.5,2.8l-4,6.3c-1-0.8-2.1-1.4-3.2-1.9
				c-1.2-0.5-2.3-0.8-3.3-0.9c-0.9-0.1-1.7,0.1-2.3,0.3c-0.6,0.3-1.1,0.6-1.5,1c-0.4,0.4-0.5,0.8-0.5,1.3c-0.1,1,0.3,1.7,1.1,2.3
				c0.8,0.6,1.8,1,3,1.3c1.2,0.3,2.4,0.7,3.6,1.1c1.6,0.5,3,1.2,4.2,2.1c1.2,0.9,2.1,1.9,2.7,3.1c0.6,1.2,1,2.6,1,4.3
				c0,2-0.5,4-1.6,5.8c-1,1.8-2.6,3.3-4.7,4.4C1077.9,871.1,1075.2,871.7,1071.9,871.7z"/>
			<path class="st21" d="M1092.9,825.8c0-1.6,0.6-2.9,1.9-3.9c1.2-1,2.6-1.5,4-1.5c1.4,0,2.7,0.5,3.9,1.5c1.2,1,1.8,2.3,1.8,3.9
				c0,1.6-0.6,2.9-1.8,3.9s-2.5,1.5-3.9,1.5c-1.4,0-2.8-0.5-4-1.5C1093.5,828.6,1092.9,827.3,1092.9,825.8z M1093.1,837.6h10.7V871
				h-10.7V837.6z"/>
			<path class="st21" d="M1110,853.9c0-3.4,0.8-6.5,2.4-9.2c1.6-2.7,3.9-4.8,6.8-6.4c2.9-1.6,6.2-2.3,10-2.3c3.8,0,7.1,0.8,9.9,2.3
				c2.8,1.6,5,3.7,6.5,6.4c1.5,2.7,2.3,5.8,2.3,9.2c0,3.4-0.8,6.5-2.3,9.2c-1.5,2.7-3.7,4.9-6.5,6.5c-2.8,1.6-6.2,2.4-10.1,2.4
				c-3.7,0-6.9-0.7-9.8-2.1c-2.9-1.4-5.1-3.5-6.8-6.2C1110.9,860.9,1110,857.6,1110,853.9z M1120.8,853.9c0,1.7,0.4,3.3,1.1,4.7
				c0.7,1.4,1.7,2.5,2.9,3.3c1.2,0.8,2.6,1.2,4.1,1.2c1.7,0,3.1-0.4,4.4-1.2c1.2-0.8,2.2-1.9,2.8-3.3s1-3,1-4.7c0-1.8-0.3-3.4-1-4.7
				c-0.7-1.4-1.6-2.5-2.8-3.3c-1.2-0.8-2.7-1.2-4.4-1.2c-1.5,0-2.9,0.4-4.1,1.2c-1.2,0.8-2.2,1.9-2.9,3.3
				C1121.2,850.6,1120.8,852.2,1120.8,853.9z M1140.2,821.8l-11.3,10.3h-6.5l6-10.3H1140.2z"/>
			<path class="st21" d="M1163.8,837.6l0.8,6l-0.2-0.5c1.2-2.1,2.8-3.8,5-5.1c2.1-1.3,4.8-1.9,7.9-1.9c3.2,0,5.8,0.9,7.9,2.8
				c2.1,1.9,3.2,4.3,3.2,7.2v25h-10.7v-21c-0.1-1.5-0.4-2.7-1.2-3.6c-0.7-0.9-2-1.3-3.7-1.3c-1.6,0-3.1,0.5-4.3,1.6
				c-1.2,1.1-2.2,2.5-2.8,4.4c-0.7,1.8-1,3.9-1,6.3V871h-10.7v-33.4H1163.8z"/>
		</g>
	</g>
	<g>
		<g>
			<path class="st96" d="M727.9,606.6H512.4c-6.9,0-12.4-5.6-12.4-12.4V271.3c0-6.9,5.6-12.4,12.4-12.4l217.3-0.6
				c6.9,0,12.5,5.6,12.5,12.5l-1.7,323.4C740.3,601.1,734.7,606.6,727.9,606.6z"/>
			<path class="st97" d="M717.3,274.2l-192.7,1.2c-7,0-12.6,5.7-12.5,12.7l1.3,289.7c0,6.9,5.5,12.4,12.4,12.6l187.3,3.4
				c7,0.1,12.8-5.5,12.9-12.4L730,287C730.1,280,724.4,274.2,717.3,274.2z"/>
			<path class="st98" d="M709.5,290.5v1.3c0,2.1-1.7,3.8-3.8,3.8H557.2c-2.1,0-3.8-1.7-3.8-3.8v-1.3c0-2.1,1.7-3.8,3.8-3.8h148.5
				C707.8,286.7,709.5,288.4,709.5,290.5z"/>
			<path class="st98" d="M692.9,307.2L692.9,307.2c-0.1,2-1.7,3.5-3.7,3.6l-129.9,2.4c-2.1,0-3.8-1.7-3.8-3.8V309
				c0-2.1,1.7-3.7,3.7-3.8l129.9-2.1C691.3,303.2,693,305,692.9,307.2z"/>
			<path class="st98" d="M706.1,583.9l-175.6-2.1c-2.9,0-5.6-1.2-7.6-3.3c-2-2.1-3.1-4.8-3-7.7l4.5-238.3c0.1-2.9,1.2-5.6,3.3-7.6
				c2.1-2,4.8-3,7.7-3l175.3,3.4c5.9,0.1,10.7,5,10.6,11v0l-4.2,237c-0.1,5.9-4.9,10.6-10.8,10.6
				C706.1,583.9,706.1,583.9,706.1,583.9z M530.1,327.6c-1.4,1.3-2.2,3.1-2.2,5l-4.5,238.3c0,1.9,0.7,3.8,2,5.1
				c1.3,1.4,3.1,2.2,5.1,2.2l175.6,2.1c3.9,0.1,7.2-3.1,7.3-7.1l4.2-237v0c0.1-4-3.1-7.2-7-7.3l-175.3-3.4c0,0-0.1,0-0.1,0
				C533.2,325.6,531.4,326.3,530.1,327.6z"/>
			<path class="st98" d="M525.8,349.5h191.3c1,0,1.8-0.8,1.8-1.8c0-1-0.8-1.8-1.8-1.8H525.8c-1,0-1.8,0.8-1.8,1.8
				C524,348.6,524.8,349.5,525.8,349.5z"/>
		</g>
		<g>
			<polygon class="st99" points="951.6,476.4 938.5,593.3 1089.7,593.3 1070,476.4 			"/>
			<path class="st20" d="M634.5,130.7v321.4c0,26.4,21.1,48.1,47.5,48.7c117.4,3,528,10.4,639.7,8.7c19.2-0.3,34.8-15.7,35.3-34.9
				c2.2-74.7,5.7-254.2-7.3-337.6c-2.7-17.6-17.5-30.7-35.3-31.2c-98.4-3.1-533.6-13.1-645.3-10.6
				C649.9,95.7,634.5,111.4,634.5,130.7z"/>
			<path class="st26" d="M654.7,129.1v305.4c0,15.4,12.4,28,27.8,28.2l623.2,7.7c15.3,0.2,27.8-12.1,27.9-27.4l1-302.6
				c0-10.9-8.7-19.9-19.6-20.2l-638-12.9C664.8,107,654.7,116.9,654.7,129.1z"/>
			<path class="st100" d="M672.4,138.8v286.6c0,14.5,11.8,26.3,26.5,26.5l593.4,7.2c14.6,0.2,26.5-11.3,26.6-25.7l1-284
				c0-10.3-8.3-18.7-18.7-18.9l-607.5-12.1C682,118.1,672.4,127.3,672.4,138.8z"/>
			<path class="st21" d="M1338.3,483L1338.3,483l-683.6-11.6c-0.5,0-0.9-0.4-0.9-1c0-0.5,0.5-1,1-0.9l683.6,11.6
				c0.5,0,0.9,0.4,0.9,1C1339.2,482.6,1338.8,483,1338.3,483z"/>
			<g>
				<path class="st21" d="M1003.2,497.2c-4.4,0-8.1-3.6-8.1-8.1c0-4.4,3.6-8.1,8.1-8.1c4.4,0,8.1,3.6,8.1,8.1
					C1011.3,493.6,1007.7,497.2,1003.2,497.2z M1003.2,483c-3.4,0-6.2,2.8-6.2,6.2c0,3.4,2.8,6.2,6.2,6.2c3.4,0,6.2-2.8,6.2-6.2
					C1009.4,485.8,1006.6,483,1003.2,483z"/>
			</g>
			<path class="st20" d="M1122.2,617.2H901c-6,0-10.5-4.3-9.4-8.9l2.8-11.2c0.9-3.4,4.6-5.9,9-6l213.3-6.7c4.6-0.1,8.7,2.3,9.7,5.8
				l5.1,17.9C1132.9,612.8,1128.3,617.2,1122.2,617.2z"/>
			<path class="st21" d="M1020.1,594.4c-0.5,0-0.9-0.4-1-0.9c0-0.5,0.4-1,0.9-1l9.1-0.1c0.5,0,1,0.4,1,0.9c0,0.5-0.4,1-0.9,1
				L1020.1,594.4L1020.1,594.4z"/>
			<path class="st21" d="M899.8,611.2c0,0-0.1,0-0.2,0c-0.5-0.1-0.9-0.6-0.8-1.1l1.3-8.2c0.7-4.5,4.5-7.8,9.1-7.9l96.9-1.4
				c0.5,0,1,0.4,1,0.9c0,0.5-0.4,1-0.9,1l-96.9,1.4c-3.6,0.1-6.7,2.7-7.2,6.3l-1.3,8.2C900.7,610.9,900.3,611.2,899.8,611.2z"/>
		</g>
		<g>
			<path class="st101" d="M922.1,358.1l-227.8,2.7c-8.8,0.1-15.7,5.8-15.3,12.5l3.8,59.6c0.4,6.4,7.2,11.4,15.5,11.4h224
				c8.6,0,15.5-5.3,15.5-11.9v-62.4C937.8,363.4,930.8,358,922.1,358.1z"/>
			<path class="st101" d="M1203.3,341.5l-227.8,3.3c-8.8,0.1-15.7,7.1-15.3,15.3l3.8,73c0.4,7.8,7.2,13.9,15.5,13.9h224
				c8.6,0,15.5-6.5,15.5-14.6v-76.3C1219.1,348,1212,341.4,1203.3,341.5z"/>
			<path class="st101" d="M1045.1,184.6H693.4c-5.5,0-9.9,4.2-9.9,9.3v90.4c0,5.1,4.4,9.3,9.9,9.3h351.7c5.5,0,9.9-4.2,9.9-9.3
				v-90.4C1055,188.8,1050.5,184.6,1045.1,184.6z"/>
			<path class="st101" d="M1307.4,189.7l-140.7,0c-0.4,0-0.8,0-1.2,0.1c-11.8,3.1-15.7-6.8-20.3,8.2c-0.2,0.6,0.2,1.2,0.2,1.9v89.5
				c0,5.1,9.3,9.3,20.7,9.3h141.3c11.4,0,20.7-4.2,20.7-9.3V199C1328.1,193.9,1318.8,189.7,1307.4,189.7z"/>
		</g>
		<g>
			<path class="st102" d="M589.6,605h215.5c6.9,0,12.4-4.1,12.4-9.2V442.1c0-5.1-5.6-9.2-12.4-9.2l-217.3-0.4
				c-6.9,0-12.5,4.1-12.5,9.2l1.7,154.2C577.2,600.9,582.8,605,589.6,605z"/>
			<path class="st29" d="M600.2,444.2l192.7,0.9c7,0,12.6,4.2,12.5,9.4l-1.3,129.3c0,5.1-5.5,9.2-12.4,9.3l-187.3,2.5
				c-7,0.1-12.8-4-12.9-9.2l-4.1-132.7C587.4,448.5,593.1,444.2,600.2,444.2z"/>
			<path class="st98" d="M608,456.2v1c0,1.5,1.7,2.8,3.8,2.8h148.5c2.1,0,3.8-1.2,3.8-2.8v-1c0-1.5-1.7-2.8-3.8-2.8H611.8
				C609.7,453.4,608,454.7,608,456.2z"/>
			<path class="st98" d="M624.6,468.6L624.6,468.6c0.1,1.5,1.7,2.6,3.7,2.6l129.9,1.7c2.1,0,3.8-1.2,3.8-2.8v-0.2
				c0-1.5-1.7-2.8-3.7-2.8l-129.9-1.5C626.2,465.6,624.5,466.9,624.6,468.6z"/>
			<path class="st98" d="M600.6,580.5l-4.2-90.3c0,0,0,0,0,0c0-1.9,0.7-3.7,2.2-5.2c2-2.1,5.1-3.3,8.4-3.3l175.3-2.5
				c0.1,0,0.1,0,0.2,0c5.8,0,10.6,3.7,10.8,8.2l4.5,91.3c0,1.9-0.7,3.8-2.2,5.3c-2,2.1-5.1,3.3-8.5,3.3l-175.6,1.6c0,0-0.1,0-0.1,0
				C605.4,588.7,600.7,585.1,600.6,580.5z M782.3,482.6L607,485.2c-2.4,0-4.6,0.9-5.9,2.2c-0.5,0.6-1.2,1.5-1.2,2.7l4.2,90.3
				c0.1,2.6,3.3,4.8,7.2,4.8c0,0,0.1,0,0.1,0l175.6-1.6c2.4,0,4.6-0.9,5.9-2.2c0.5-0.6,1.2-1.5,1.2-2.6l-4.5-91.3
				c-0.1-2.6-3.3-4.8-7.2-4.8C782.4,482.6,782.3,482.6,782.3,482.6z M598.1,490.1L598.1,490.1L598.1,490.1z"/>
			<path class="st98" d="M600.4,500.3h191.3c1,0,1.8-0.8,1.8-1.8c0-1-0.8-1.8-1.8-1.8H600.4c-1,0-1.8,0.8-1.8,1.8
				C598.6,499.5,599.4,500.3,600.4,500.3z"/>
		</g>
		<g>
			<path class="st102" d="M935.7,548.2l-1.7,59.9c-0.1,4.7-6.5,8.4-14.2,8.4h-196c-7.9,0-14.2-3.8-14.2-8.5v-56
				c0-4.6,6.1-8.4,13.8-8.5l197.7-3.8C929.1,539.4,935.8,543.3,935.7,548.2z"/>
			<path class="st29" d="M919.4,554l-4.3,55.1c-0.2,2.1-3.1,3.8-6.6,3.7L730,610.9c-3.6,0-6.4-1.8-6.4-3.9v-47.8
				c0-2.1,2.7-3.8,6.2-3.9l182.8-5.4C916.4,549.8,919.6,551.7,919.4,554z"/>
			<path class="st98" d="M905.2,559.2v4c0,1.4-1.9,2.5-4.2,2.5l-154-1.5c-2.3,0-4.1-1.1-4.1-2.5l0,0c0-1.4,1.8-2.5,4.1-2.5l154-2.5
				C903.3,556.6,905.2,557.8,905.2,559.2z"/>
			<path class="st98" d="M902.9,574.2v3.6c0,1.4-2,2.6-4.3,2.5l-146.7-3.1c-2.2,0-4-1.2-4-2.5v-1.1c0-1.4,1.9-2.5,4.2-2.5l146.7,0.6
				C901,571.7,902.9,572.8,902.9,574.2z"/>
		</g>
		<g>
			<path class="st103" d="M1142,275.6l209.3,1.7c11.5,0.1,21,9.2,21.5,20.8l12.9,303.6c0.4,9-6.8,16.6-15.8,16.7l-239.9,2.4
				c-8.5,0.1-15.4-6.8-15.3-15.3l2.5-305.4C1117.3,286.4,1128.4,275.5,1142,275.6z"/>
			<path class="st104" d="M1165.1,615.9L1165.1,615.9l-26.8-0.6c-9-0.2-16.3-7.7-16.2-16.7l0.3-40.5c0-0.4,0.3-0.7,0.7-0.7
				c0.4,0,0.7,0.3,0.7,0.7l-0.3,40.5c-0.1,8.3,6.6,15.2,14.9,15.4l26.8,0.6c0.4,0,0.7,0.3,0.7,0.7
				C1165.8,615.6,1165.5,615.9,1165.1,615.9z"/>
			<path class="st104" d="M1123.1,546.3c-0.4,0-0.7-0.3-0.7-0.7l0.1-6.6c0-0.4,0.3-0.7,0.7-0.7c0,0,0,0,0,0c0.4,0,0.7,0.3,0.7,0.7
				l-0.1,6.6C1123.8,546,1123.5,546.3,1123.1,546.3C1123.1,546.3,1123.1,546.3,1123.1,546.3z"/>
			<g>
				<path class="st105" d="M1142.7,273.1c28.5,4.1,126.7,16.9,208,11.3c3.7-0.3,6.9,2.6,7.1,6.3l13.7,304.9c0.2,4.2-3,7.7-7.2,7.9
					c-34.2,1.7-175,8.4-225.2,2.7c-3.1-0.3-5.4-2.9-5.3-6l0.8-320.1C1134.5,275.9,1138.4,272.5,1142.7,273.1z"/>
				<path class="st106" d="M1145.7,281.1c27.5,4,122,16.3,200.2,10.9c3.6-0.2,6.6,2.5,6.8,6.1l13.2,293.4c0.2,4-2.9,7.4-6.9,7.6
					c-32.9,1.7-168.4,8.1-216.7,2.6c-2.9-0.3-5.1-2.8-5.1-5.8l0.7-308.1C1137.8,283.7,1141.5,280.5,1145.7,281.1z"/>
				<path class="st21" d="M1343.6,317.8c1,0,1.8-0.8,1.7-1.8l0-0.6c-0.1-1-0.9-1.8-1.9-1.8l-178.1-2.9c-1,0-1.3,0.6-0.7,1.4l2.2,2.8
					c0.6,0.8,1.9,1.4,2.9,1.4L1343.6,317.8z"/>
				<path class="st21" d="M1165.2,322.4c-1,0-1.3,0.6-0.7,1.4l2.2,2.8c0.6,0.8,1.9,1.4,2.9,1.4l173.9,1.4c1,0,1.8-0.8,1.7-1.8l0-0.6
					c-0.1-1-0.9-1.8-1.9-1.8L1165.2,322.4z"/>
				<path class="st21" d="M1195.2,429.2C1195.2,429.2,1195.1,429.2,1195.2,429.2l-23.6,0.3c-3.4,0-6.3-2.2-6.6-5.3l-2.5-19.7
					c-0.2-1.2,0.2-2.3,0.9-3.3c0.9-1.1,2.2-1.8,3.6-1.9l0,0c2-0.2,4.7-0.5,7.7-0.8c6.5-0.7,14-1.5,18.3-1.7c0,0,0.1,0,0.1,0
					c3.1-0.1,5.9,1.8,6.7,4.5c1.3,4.5,1.4,13.1,1.4,22.3C1201.1,426.6,1198.5,429.1,1195.2,429.2z M1167.1,401.2
					c-0.9,0.1-1.7,0.5-2.3,1.2c-0.4,0.5-0.6,1.2-0.5,1.8l2.5,19.7c0.3,2.1,2.3,3.6,4.7,3.6l23.6-0.3c0,0,0,0,0,0
					c2.3-0.1,4.1-1.7,4.1-3.6c0-9-0.1-17.4-1.3-21.7c-0.6-1.9-2.6-3.3-4.8-3.1c-4.3,0.2-12,1-18.2,1.7
					C1171.8,400.8,1169.1,401.1,1167.1,401.2L1167.1,401.2z"/>
				<path class="st21" d="M1169.7,403.2c4.9-0.5,15.7-1.8,20.8-2c2.2-0.1,4.1,1.2,4.6,3c1.1,3.6,1.1,10.9,1.1,17.6
					c0,2-1.8,3.7-4.1,3.7l-18.8,0.3c-2.3,0-4.3-1.5-4.5-3.5l-2-15.7C1166.5,404.8,1167.8,403.3,1169.7,403.2z"/>
				<path class="st21" d="M1215.2,408.2c-1,0-1.6,0.8-1.3,1.7l2.4,8.2c0.3,1,1.3,1.7,2.3,1.7l118.8-2.9c1,0,1.8-0.9,1.7-1.9
					l-0.2-5.2c0-1-0.9-1.8-1.9-1.8L1215.2,408.2z"/>
				<path class="st105" d="M1170.7,406.2L1170.7,406.2c1.7-1.1,4-0.5,5,1.2l4.8,8.2c0.5,0.8,1.7,0.7,2.1-0.1l10.9-25.9
					c0.5-1.3,2.5-0.9,2.5,0.5c0.1,7.8-1.7,22.8-13.9,35.6c0,0-7-2.5-12.8-14.6C1168.5,409.4,1169.1,407.3,1170.7,406.2z"/>
				<path class="st21" d="M1196.1,376.3C1196.1,376.3,1196.1,376.3,1196.1,376.3l-23.6,0.3c-3.4,0-6.3-2.2-6.6-5.3l-2.5-19.7
					c-0.2-1.2,0.2-2.3,0.9-3.3c0.9-1.1,2.2-1.8,3.6-1.9l0,0c2-0.2,4.7-0.5,7.7-0.8c6.5-0.7,14-1.5,18.3-1.7c0,0,0.1,0,0.1,0
					c3.1-0.1,5.9,1.8,6.7,4.5c1.3,4.5,1.4,13.1,1.4,22.3C1202,373.7,1199.4,376.2,1196.1,376.3z M1168,348.4
					c-0.9,0.1-1.7,0.5-2.3,1.2c-0.4,0.5-0.6,1.2-0.5,1.8l2.5,19.7c0.3,2.1,2.3,3.6,4.7,3.6l23.6-0.3c0,0,0,0,0,0
					c2.3-0.1,4.1-1.7,4.1-3.6c0-9-0.1-17.4-1.3-21.7c-0.6-1.9-2.6-3.3-4.8-3.1c-4.3,0.2-12,1-18.2,1.7
					C1172.7,347.9,1170,348.2,1168,348.4L1168,348.4z"/>
				<path class="st21" d="M1170.6,350.3c4.9-0.5,15.7-1.8,20.8-2c2.2-0.1,4.1,1.2,4.6,3c1.1,3.6,1.1,10.9,1.1,17.6
					c0,2-1.8,3.7-4.1,3.7l-18.8,0.3c-2.3,0-4.3-1.5-4.5-3.5l-2-15.7C1167.4,351.9,1168.8,350.4,1170.6,350.3z"/>
				<path class="st21" d="M1216.2,355.3c-1,0-1.6,0.8-1.3,1.7l2.4,8.2c0.3,1,1.3,1.7,2.3,1.7l118.8-2.9c1,0,1.8-0.9,1.7-1.9
					l-0.2-5.2c0-1-0.9-1.8-1.9-1.8L1216.2,355.3z"/>
				<path class="st105" d="M1171.7,353.3L1171.7,353.3c1.7-1.1,4-0.5,5,1.2l4.8,8.2c0.5,0.8,1.7,0.7,2.1-0.1l10.9-25.9
					c0.5-1.3,2.5-0.9,2.5,0.5c0.1,7.8-1.7,22.8-13.9,35.6c0,0-7-2.5-12.8-14.6C1169.4,356.5,1170,354.4,1171.7,353.3z"/>
				<path class="st21" d="M1196.4,479.6C1196.4,479.6,1196.4,479.6,1196.4,479.6l-23.6,0.3c-3.4,0-6.3-2.2-6.6-5.3l-2.5-19.7
					c-0.2-1.2,0.2-2.3,0.9-3.3c0.9-1.1,2.2-1.8,3.6-1.9l0,0c2-0.2,4.7-0.5,7.7-0.8c6.5-0.7,14-1.5,18.3-1.7c0,0,0.1,0,0.1,0
					c3.1-0.1,5.9,1.8,6.7,4.5c1.3,4.5,1.4,13.1,1.4,22.3C1202.3,477.1,1199.7,479.5,1196.4,479.6z M1168.3,451.7
					c-0.9,0.1-1.7,0.5-2.3,1.2c-0.4,0.5-0.6,1.2-0.5,1.8l2.5,19.7c0.3,2.1,2.3,3.6,4.7,3.6l23.6-0.3c0,0,0,0,0,0
					c2.3-0.1,4.1-1.7,4.1-3.6c0-9-0.1-17.4-1.3-21.7c-0.6-1.9-2.6-3.2-4.8-3.1c-4.3,0.2-12,1-18.2,1.7
					C1173,451.2,1170.3,451.5,1168.3,451.7L1168.3,451.7z"/>
				<path class="st21" d="M1170.9,453.6c4.9-0.5,15.7-1.8,20.8-2c2.2-0.1,4.1,1.2,4.6,3c1.1,3.6,1.1,10.9,1.1,17.6
					c0,2-1.8,3.7-4.1,3.7l-18.8,0.3c-2.3,0-4.3-1.5-4.5-3.5l-2-15.7C1167.7,455.3,1169.1,453.8,1170.9,453.6z"/>
				<path class="st21" d="M1216.5,458.6c-1,0-1.6,0.8-1.3,1.7l2.4,8.2c0.3,1,1.3,1.7,2.3,1.7l118.8-2.9c1,0,1.8-0.9,1.7-1.9
					l-0.2-5.2c0-1-0.9-1.8-1.9-1.8L1216.5,458.6z"/>
				<path class="st105" d="M1172,456.7L1172,456.7c1.7-1.1,4-0.5,5,1.2l4.8,8.2c0.5,0.8,1.7,0.7,2.1-0.1l10.9-25.9
					c0.5-1.3,2.5-0.9,2.5,0.5c0.1,7.8-1.7,22.8-13.9,35.6c0,0-7-2.5-12.8-14.6C1169.7,459.8,1170.3,457.7,1172,456.7z"/>
				<path class="st21" d="M1195.4,528.1C1195.3,528.1,1195.3,528.1,1195.4,528.1l-23.6,0.3c-3.4,0.1-6.3-2.2-6.6-5.3l-2.5-19.7
					c-0.2-1.2,0.2-2.3,0.9-3.3c0.9-1.1,2.2-1.8,3.6-1.9l0,0c2-0.2,4.7-0.5,7.7-0.8c6.2-0.7,14-1.5,18.3-1.7c3.1-0.1,5.9,1.7,6.8,4.5
					c1.3,4.5,1.4,13.1,1.4,22.3C1201.3,525.6,1198.6,528.1,1195.4,528.1z M1167.3,500.2c-0.9,0.1-1.7,0.5-2.3,1.2
					c-0.4,0.5-0.6,1.2-0.5,1.8l2.5,19.7c0.3,2.1,2.3,3.6,4.7,3.6l23.6-0.3c2.2-0.1,4.1-1.7,4.1-3.7c0-9-0.1-17.4-1.3-21.7
					c-0.6-1.9-2.6-3.2-4.8-3.1c-4.3,0.2-12,1-18.2,1.7C1172,499.7,1169.3,500,1167.3,500.2L1167.3,500.2z"/>
				<path class="st21" d="M1169.9,502.2c4.9-0.5,15.7-1.8,20.8-2c2.2-0.1,4.1,1.2,4.6,3c1.1,3.6,1.1,10.9,1.1,17.6
					c0,2-1.8,3.7-4.1,3.7l-18.8,0.3c-2.3,0-4.3-1.5-4.5-3.5l-2-15.7C1166.7,503.8,1168,502.3,1169.9,502.2z"/>
				<path class="st21" d="M1215.4,507.1c-1,0-1.6,0.8-1.3,1.7l2.4,8.2c0.3,1,1.3,1.7,2.3,1.7l118.8-2.9c1,0,1.8-0.9,1.7-1.9
					l-0.2-5.2c0-1-0.9-1.8-1.9-1.8L1215.4,507.1z"/>
				<path class="st105" d="M1170.9,505.2L1170.9,505.2c1.7-1.1,4-0.5,5,1.2l4.8,8.2c0.5,0.8,1.7,0.7,2.1-0.1l10.9-25.9
					c0.5-1.3,2.5-0.9,2.5,0.5c0.1,7.8-1.7,22.8-13.9,35.6c0,0-7-2.5-12.8-14.6C1168.7,508.4,1169.3,506.3,1170.9,505.2z"/>
				<path class="st21" d="M1193.9,578.2C1193.9,578.2,1193.9,578.2,1193.9,578.2l-23.6,0.3c-3.4,0-6.3-2.2-6.6-5.3l-2.5-19.7
					c-0.2-1.2,0.2-2.3,0.9-3.3c0.9-1.1,2.2-1.8,3.6-1.9l0,0c2-0.2,4.7-0.5,7.7-0.8c6.5-0.7,14-1.5,18.3-1.7c3.2,0,5.9,1.7,6.8,4.5
					c1.3,4.5,1.4,13.1,1.4,22.3C1199.8,575.6,1197.2,578.1,1193.9,578.2z M1165.8,550.3c-0.9,0.1-1.7,0.5-2.3,1.2
					c-0.4,0.5-0.6,1.2-0.5,1.8l2.5,19.7c0.3,2.1,2.3,3.6,4.7,3.6l23.6-0.3c0,0,0,0,0,0c2.3-0.1,4.1-1.7,4.1-3.6
					c0-9-0.1-17.4-1.3-21.7c-0.6-1.9-2.6-3.2-4.8-3.1c-4.3,0.2-12,1-18.2,1.7C1170.5,549.8,1167.8,550.1,1165.8,550.3L1165.8,550.3z
					"/>
				<path class="st21" d="M1168.4,552.2c4.9-0.5,15.7-1.8,20.8-2c2.2-0.1,4.1,1.2,4.6,3c1.1,3.6,1.1,10.9,1.1,17.6
					c0,2-1.8,3.7-4.1,3.7l-18.8,0.3c-2.3,0-4.3-1.5-4.5-3.5l-2-15.7C1165.2,553.8,1166.6,552.4,1168.4,552.2z"/>
				<path class="st21" d="M1214,557.2c-1,0-1.6,0.8-1.3,1.7l2.4,8.2c0.3,1,1.3,1.7,2.3,1.7l118.8-2.9c1,0,1.8-0.9,1.7-1.9l-0.2-5.2
					c0-1-0.9-1.8-1.9-1.8L1214,557.2z"/>
				<path class="st105" d="M1169.5,555.3L1169.5,555.3c1.7-1.1,4-0.5,5,1.2l4.8,8.2c0.5,0.8,1.7,0.7,2.1-0.1l10.9-25.9
					c0.5-1.3,2.5-0.9,2.5,0.5c0.1,7.8-1.7,22.8-13.9,35.6c0,0-7-2.5-12.8-14.6C1167.2,558.4,1167.8,556.3,1169.5,555.3z"/>
			</g>
			<path class="st29" d="M1260,235.2c-7.5-5.3-14.1-5.3-18.7-3.9c-4.2,1.2-7,5.3-6.6,9.6l1.8,21.8l23.7,2.3
				C1260.1,265,1274.7,245.6,1260,235.2z M1249.4,252.7c-3.3,0-5.9-2.7-5.9-6c0-3.3,2.7-5.9,6-5.9c3.3,0,5.9,2.7,5.9,6
				C1255.3,250.1,1252.6,252.7,1249.4,252.7z"/>
			<g>
				<path class="st107" d="M1238.5,254.1c-0.4-0.2-0.7-0.5-0.8-1l-0.3-3.5c-0.1-0.6,0.4-1.2,1.1-1.3c0.6-0.1,1.2,0.4,1.3,1.1
					l0.3,3.5c0.1,0.6-0.4,1.2-1.1,1.3C1238.8,254.2,1238.6,254.2,1238.5,254.1z M1237.9,247.3c-0.4-0.2-0.7-0.5-0.8-1l-0.2-2.6
					c-0.4-4.5,2.5-8.6,6.8-9.8c2.9-0.8,6-0.9,9-0.3c0.6,0.1,1,0.8,0.9,1.4c-0.1,0.6-0.8,1-1.4,0.9c-2.6-0.6-5.3-0.5-7.8,0.3
					c-3.2,0.9-5.3,4-5.1,7.4l0.2,2.6c0.1,0.6-0.4,1.2-1.1,1.3C1238.2,247.4,1238,247.3,1237.9,247.3z"/>
			</g>
			<path class="st29" d="M1203.9,276.5l0.1-11c0-3.8,3.2-6.8,7-6.6l75.5,3.2c3.3,0.1,6,2.8,6.2,6.2l0.5,10.5L1203.9,276.5z"/>
			<path class="st107" d="M1228.9,263.3c-0.4,0-0.7-0.3-0.7-0.7c0-0.4,0.3-0.7,0.7-0.7l3.2,0c0.4,0,0.7,0.3,0.7,0.7
				c0,0.4-0.3,0.7-0.7,0.7L1228.9,263.3C1228.9,263.3,1228.9,263.3,1228.9,263.3z"/>
			<path class="st107" d="M1207.6,273.6c-0.4-0.2-0.8-0.6-0.8-1.1l0-4.4c0-1.8,0.7-3.5,2-4.8c1.3-1.3,3-2,4.8-2l11.9,0.1
				c0.6,0,1.2,0.5,1.2,1.2c0,0.6-0.5,1.2-1.2,1.2l-11.9-0.1c-2.5,0-4.5,2-4.5,4.4l0,4.4c0,0.6-0.5,1.2-1.2,1.2
				C1207.9,273.7,1207.7,273.7,1207.6,273.6z"/>
			<path class="st29" d="M1180.3,272.3l132,1.1c4.7,0,8.8,3.5,9.5,8.2l0.1,0.6c0.8,5.1-3.1,9.8-8.3,9.7l-135.5-1.1
				c-3.1,0-5.6-2.6-5.4-5.8l0.3-6.1C1173.3,275.2,1176.5,272.3,1180.3,272.3z"/>
		</g>
		<path class="st29" d="M981,294.2c16.8,16.6,31.4,33.8,44.1,51.5c18.9-43.1,39.1-83.2,60.9-119.2l53.5-17.8
			c-36.9,48.1-76.2,119.8-109.8,191.7c-24.3-34.3-48.6-68.4-66.1-80.6L981,294.2z"/>
		<g>
			<g>
				<g>
					<g>
						<g>
							<path class="st103" d="M850.1,634c5.2,0.4,14.1,1.2,21.2,1.5c4.2,0.2,6.7-0.2,8.1-0.8c0,0.2,0,0.3,0,0.4
								c0,0.7-0.6,1.3-1.4,1.4c-13.3,0.7-24,0.3-27.7,0c-0.8,0-1.2-0.9-0.8-1.6C849.6,634.7,849.8,634.3,850.1,634z"/>
							<path class="st26" d="M871.3,635.5c-7.1-0.3-16-1-21.2-1.5c5.1-6.2,21.2-10.4,21.2-10.4h4.5c3.1,4.5,3.6,8.8,3.5,11.1
								C878,635.3,875.5,635.7,871.3,635.5z"/>

								<linearGradient id="SVGID_1_" gradientUnits="userSpaceOnUse" x1="6149.3115" y1="621.3104" x2="6157.7988" y2="621.3104" gradientTransform="matrix(-1 0 0 1 7025.9053 0)">
								<stop  offset="0" style="stop-color:#FF928E"/>
								<stop  offset="1" style="stop-color:#FEB3B1"/>
							</linearGradient>
							<path class="st108" d="M876.6,616.2l-0.4,8.4c0,0.9-0.7,1.7-1.6,1.8c-0.9,0.1-2.1,0.1-3.4-0.3c-0.8-0.3-1.4-0.9-1.5-1.7
								l-1.5-8.2H876.6z"/>
						</g>
						<g>
							<g>
								<path class="st103" d="M935.7,635.4c2.2-0.3,3.3-1.5,3.7-2.7c0,0,0,0,0,0c0.3,1.3-0.4,2.7-2,3.3c-1.8,0.8-3.9,0.9-5.4,0.8
									c-1.7-0.1-3.2-0.8-4.1-1.9l0,0C929.6,635.8,932,635.9,935.7,635.4z"/>
								<path class="st26" d="M925.1,616.1h3.8c5.7-0.1,9.3,11.9,10.5,16.6c-0.4,1.2-1.4,2.4-3.7,2.7c-3.7,0.5-6.1,0.4-7.8-0.4
									c-3.1-4.1-4.6-10-5.4-13.5C921.7,617.6,925.1,616.1,925.1,616.1z"/>
							</g>

								<linearGradient id="SVGID_00000057846182072578151170000009895770815348168104_" gradientUnits="userSpaceOnUse" x1="6095.3545" y1="614.2351" x2="6105.4976" y2="614.2351" gradientTransform="matrix(-1 0 0 1 7025.9053 0)">
								<stop  offset="0" style="stop-color:#FF928E"/>
								<stop  offset="1" style="stop-color:#FEB3B1"/>
							</linearGradient>
							<path style="fill:url(#SVGID_00000057846182072578151170000009895770815348168104_);" d="M928.4,608.3l2.1,8.3
								c0.3,1-0.2,2.1-1.2,2.5c-1.2,0.6-2.8,1.2-4.3,1c-0.7-0.1-1.3-0.6-1.5-1.3l-3.1-8.7L928.4,608.3z"/>
						</g>
						<path class="st103" d="M930.9,610.7c-2.6,2.3-11,2.6-11,2.6c-30.4-72.9-42.8-83.2-42.8-83.2c4.4,27.5,0.7,88.4,0.7,88.4
							c-5,2.2-11.5,0-11.5,0c-0.4-45-7.3-84.3-15.5-115.3c20.5-0.5,31.4-7.5,35-10.3C902.9,520.4,930.9,610.7,930.9,610.7z"/>
						<path class="st29" d="M880.6,409c3.9,19.4,2.5,54.1,1.6,69.9c-0.3,4.4,2.8,10.6,5.4,14.8c0.4,0.7,0.2,1.5-0.5,1.9
							c-4.2,2.2-18.4,8.9-34.9,9.7c-1.1,0.1-2.1-0.7-2.4-1.8c-12.2-45.7-26.4-74.9-26.4-74.9C838.9,403.6,880.6,409,880.6,409z"/>
						<path class="st110" d="M875,528.3c0.2,0,0.3,0,0.5-0.1c0.5-0.3,0.6-0.9,0.3-1.3c-0.2-0.3-4.1-6.6-12-10.5
							c-0.5-0.2-1.1,0-1.3,0.5c-0.2,0.5,0,1.1,0.5,1.3c7.4,3.6,11.2,9.7,11.2,9.7C874.4,528.1,874.7,528.3,875,528.3z"/>
						<g>

								<linearGradient id="SVGID_00000048483504088216764550000010715484356283655833_" gradientUnits="userSpaceOnUse" x1="6141.8247" y1="466.3862" x2="6105.7173" y2="498.3603" gradientTransform="matrix(-1 0 0 1 7025.9053 0)">
								<stop  offset="0" style="stop-color:#FF928E"/>
								<stop  offset="1" style="stop-color:#FEB3B1"/>
							</linearGradient>
							<path style="fill:url(#SVGID_00000048483504088216764550000010715484356283655833_);" d="M905,464.7
								c-1.2,9-4.9,18.9-12.3,29.3l-2.8-2.3c0,0,3.2-13.1,1.4-28C895.8,462.8,901.2,463.7,905,464.7z"/>
							<path class="st29" d="M876.2,433l4.3-23.9c0,0,29,22.2,24.4,55.6c-3.8-1-9.2-1.9-13.7-1C889.9,452.9,886,441.3,876.2,433z"/>
						</g>
						<g>
							<path class="st29" d="M823.3,428.7l11.2,24.1c-1.8,14.6-9.6,20.8-18.1,23.3c-0.5-6.6-2.2-12-3.8-15.7
								C823.4,449.2,823.3,428.7,823.3,428.7z"/>

								<linearGradient id="SVGID_00000003074538627049830780000010278881547131642251_" gradientUnits="userSpaceOnUse" x1="6209.5127" y1="469.4106" x2="6237.9492" y2="469.4106" gradientTransform="matrix(-1 0 0 1 7025.9053 0)">
								<stop  offset="0" style="stop-color:#FF928E"/>
								<stop  offset="1" style="stop-color:#FEB3B1"/>
							</linearGradient>
							<path style="fill:url(#SVGID_00000003074538627049830780000010278881547131642251_);" d="M812.6,460.3
								c1.6,3.7,3.2,9.1,3.8,15.7c-22.5,8.7-28.4-8.2-28.4-8.2l4.2-0.7C801.5,468.1,808.1,465,812.6,460.3z"/>
						</g>

							<linearGradient id="SVGID_00000060724365807364906360000013323814622060597422_" gradientUnits="userSpaceOnUse" x1="838.4186" y1="386.7649" x2="852.5013" y2="435.1744">
							<stop  offset="0" style="stop-color:#FF928E"/>
							<stop  offset="0.1052" style="stop-color:#FF9592"/>
							<stop  offset="1" style="stop-color:#FEB3B1"/>
						</linearGradient>
						<path style="fill:url(#SVGID_00000060724365807364906360000013323814622060597422_);" d="M833.6,398.9l5.4,19.9
							c0.6,2.2,3,3.4,5.2,2.6c2.3-0.9,5.3-2.2,7.8-3.6c2.7-1.5,3.5-4.9,1.8-7.5l-11.2-16.7L833.6,398.9z"/>
					</g>
					<path class="st106" d="M777.6,454.5l138.4,50.4c5.8,2.1,8.6,8.7,6,14.3l-0.4,0.9c-2.3,5-8.1,7.2-13.1,4.9l-134.4-62.2
						L777.6,454.5z"/>
					<ellipse class="st114" cx="714" cy="424.2" rx="68.3" ry="67.1"/>
					<path class="st103" d="M638,424.2c0,41.2,34,74.7,76,74.7c42,0,76-33.4,76-74.7c0-41.2-34-74.7-76-74.7
						C672,349.5,638,383,638,424.2z M649.1,424.2c0-35.2,29-63.7,64.9-63.7c35.8,0,64.9,28.5,64.9,63.7c0,35.2-29,63.7-64.9,63.7
						C678.2,487.9,649.1,459.4,649.1,424.2z"/>
					<g>
						<path class="st115" d="M784.3,433.2C784.3,433.2,784.3,433.2,784.3,433.2c-0.1,0-0.2-0.1-0.2-0.2c0.2-1.7,0.4-3.5,0.5-5.3
							c0-0.1,0.1-0.2,0.2-0.2c0.1,0,0.2,0.1,0.2,0.2c-0.1,1.8-0.2,3.6-0.5,5.3C784.5,433.1,784.4,433.2,784.3,433.2z M783.8,412.3
							c-0.1,0-0.2-0.1-0.2-0.2c-0.9-4.8-2.2-9.4-4.1-13.9c-5.2-12.6-14-23.4-25.5-31.2c-11.8-7.9-25.6-12.1-39.9-12.1
							c-13.5,0-26.6,3.7-37.9,10.8c-0.1,0.1-0.2,0-0.3-0.1c-0.1-0.1,0-0.2,0.1-0.3c11.4-7.1,24.6-10.9,38.1-10.9
							c14.4,0,28.3,4.2,40.2,12.2c11.6,7.8,20.5,18.7,25.7,31.4c1.9,4.5,3.2,9.2,4.1,14C784,412.2,783.9,412.3,783.8,412.3
							C783.8,412.3,783.8,412.3,783.8,412.3z"/>
					</g>

						<linearGradient id="SVGID_00000042007615374599029700000012887875587004851643_" gradientUnits="userSpaceOnUse" x1="6156.084" y1="482.4884" x2="6119.9761" y2="514.4628" gradientTransform="matrix(-1 0 0 1 7025.9053 0)">
						<stop  offset="0" style="stop-color:#FF928E"/>
						<stop  offset="1" style="stop-color:#FEB3B1"/>
					</linearGradient>
					<path style="fill:url(#SVGID_00000042007615374599029700000012887875587004851643_);" d="M891,491.3l-13.1-1.1l-5.7,5.2
						c0,0,1.3,1.9,5.5,0.8c4.2-1.1,9.9-1.3,9.9-1.3s5.8,2.6,5.9-2.3L891,491.3z"/>

						<linearGradient id="SVGID_00000048470312119807998380000008892145692386593972_" gradientUnits="userSpaceOnUse" x1="6234.9282" y1="466.071" x2="6245.1113" y2="466.071" gradientTransform="matrix(-1 0 0 1 7025.9053 0)">
						<stop  offset="0" style="stop-color:#FF928E"/>
						<stop  offset="1" style="stop-color:#FEB3B1"/>
					</linearGradient>
					<path style="fill:url(#SVGID_00000048470312119807998380000008892145692386593972_);" d="M789.6,470.9c-1.1,0.9-5-1-7.4-2.2
						c-1.2-0.6-1.7-2-1.3-3.2c0.6-1.8,1.5-4.1,2.7-4.4C785.6,460.5,794.3,467.3,789.6,470.9z"/>
					<path class="st115" d="M913.4,522.8c-0.1,0-0.2-0.1-0.2-0.1c0-0.1,0-0.2,0.1-0.3c4-1.4,6.1-3.7,6.3-6.8c0.1-3.1-1.8-6-4.9-7.2
						l-16.6-6.5c-0.1,0-0.2-0.2-0.1-0.3c0-0.1,0.2-0.2,0.3-0.1l16.6,6.5c3.2,1.3,5.3,4.3,5.2,7.7
						C919.9,518.9,917.7,521.3,913.4,522.8C913.4,522.8,913.4,522.8,913.4,522.8z"/>
					<path class="st115" d="M893,499.9C893,499.9,892.9,499.9,893,499.9l-2.2-0.9c-0.1,0-0.2-0.2-0.1-0.3c0-0.1,0.2-0.2,0.3-0.1
						l2.2,0.8c0.1,0,0.2,0.2,0.1,0.3C893.2,499.9,893.1,499.9,893,499.9z"/>
					<g>

							<linearGradient id="SVGID_00000074412286078488583070000018262434008115950497_" gradientUnits="userSpaceOnUse" x1="2824.4648" y1="2302.3762" x2="2842.5085" y2="2268.9297" gradientTransform="matrix(-1 0 0 1 4692.9053 0)">
							<stop  offset="0" style="stop-color:#FF928E"/>
							<stop  offset="1" style="stop-color:#FEB3B1"/>
						</linearGradient>
						<path style="fill:url(#SVGID_00000074412286078488583070000018262434008115950497_);" d="M832.4,379.4c0,0-4.5,10.3-4.8,15.7
							c-0.3,5.4-1.5,8.9,4.8,10s11.5-2,14.3-7.4c0,0,4.5-8.3,3.5-11.7C849.2,382.6,832.4,379.4,832.4,379.4z"/>

							<linearGradient id="SVGID_00000119811063998970102390000014410371447265903789_" gradientUnits="userSpaceOnUse" x1="3843.4832" y1="372.9973" x2="3866.6323" y2="402.8019" gradientTransform="matrix(-1 0 0 1 4692.9053 0)">
							<stop  offset="0" style="stop-color:#09005D"/>
							<stop  offset="1" style="stop-color:#1A0F91"/>
						</linearGradient>
						<path style="fill:url(#SVGID_00000119811063998970102390000014410371447265903789_);" d="M844.6,393.8h-0.8
							c0,0,3.2-6.7,0.4-7.8c-2.9-1.2-14.2-3.5-16.6-7.5c-2.4-3.9-0.3-8.9,2.9-10.3c0.2-0.1,0.4,0,0.5,0.2l0.3,0.5
							c0.2,0.3,0.7,0.3,0.8-0.1l0,0c0.1-0.3,0.6-0.4,0.8-0.1c0.7,1.2,2.8,3.1,8.2,4.2c7.7,1.4,12.8,4.5,12.9,9.8
							c0,0.3,0.4,0.5,0.7,0.3c0.6-0.3,1.5-0.5,2.7,0.5c2.1,1.8,1.2,6.4-3.4,10.2c-0.2,0.2-0.2,0.5,0,0.7c0.8,0.5,2.1,1.8-1.2,3.6
							c-3.3,1.8-5.3,1.6-6,1.4c-0.2-0.1-0.3-0.2-0.3-0.4l0.3-4.7c0-0.2-0.2-0.4-0.4-0.4H844.6z"/>

							<linearGradient id="SVGID_00000091722525551002644100000010230233789313317769_" gradientUnits="userSpaceOnUse" x1="2817.9353" y1="2298.8516" x2="2835.979" y2="2265.4048" gradientTransform="matrix(-1 0 0 1 4692.9053 0)">
							<stop  offset="0" style="stop-color:#FF928E"/>
							<stop  offset="1" style="stop-color:#FEB3B1"/>
						</linearGradient>
						<path style="fill:url(#SVGID_00000091722525551002644100000010230233789313317769_);" d="M844.4,394.8c0,0,1.7-6.6,4.6-4.7
							c2.9,1.8-1.5,7.4-3.9,7.6L844.4,394.8z"/>
					</g>
				</g>
			</g>
			<polygon class="st103" points="681.3,412.7 707.2,432.8 756.9,392.1 769.7,406.7 707.2,472.1 667.1,428.3 			"/>
		</g>
		<path class="st103" d="M1309.6,138.9c-34.6-0.9-205.5-6.4-240.6-7.5c-3.5-0.1-6.3,5-6.3,11.3v29.1c0,6.2,2.8,11.3,6.2,11.3h240.6
			c3.4,0,6.2-5,6.2-11.3v-21.6C1315.7,144,1313,139,1309.6,138.9z"/>
		<g>
			<path class="st21" d="M1080.8,176l8.9-4.7c0.7-0.4,1.5-0.4,2.2,0l8.9,4.7c1.7,0.9,3.8-0.6,3.5-2.5l-1.7-9.9
				c-0.1-0.8,0.1-1.6,0.7-2.1l7.2-7c1.4-1.4,0.6-3.8-1.3-4.1l-10-1.5c-0.8-0.1-1.4-0.6-1.8-1.3l-4.4-9c-0.9-1.8-3.4-1.8-4.3,0
				l-4.5,9c-0.3,0.7-1,1.2-1.8,1.3l-10,1.4c-2,0.3-2.7,2.7-1.3,4.1l7.2,7c0.6,0.5,0.8,1.3,0.7,2.1l-1.7,9.9
				C1077,175.4,1079.1,176.9,1080.8,176z"/>
		</g>
		<g>
			<path class="st21" d="M1126.9,177.3l8.9-4.7c0.7-0.4,1.5-0.4,2.2,0l8.9,4.7c1.7,0.9,3.8-0.6,3.5-2.5l-1.7-9.9
				c-0.1-0.8,0.1-1.6,0.7-2.1l7.2-7c1.4-1.4,0.6-3.8-1.3-4.1l-10-1.5c-0.8-0.1-1.4-0.6-1.8-1.3l-4.4-9c-0.9-1.8-3.4-1.8-4.3,0
				l-4.5,9c-0.3,0.7-1,1.2-1.8,1.3l-10,1.4c-2,0.3-2.7,2.7-1.3,4.1l7.2,7c0.6,0.5,0.8,1.3,0.7,2.1l-1.7,9.9
				C1123.1,176.8,1125.1,178.2,1126.9,177.3z"/>
		</g>
		<g>
			<path class="st21" d="M1173.4,177.6l8.9-4.7c0.7-0.4,1.5-0.4,2.2,0l8.9,4.7c1.7,0.9,3.8-0.6,3.5-2.5l-1.7-9.9
				c-0.1-0.8,0.1-1.6,0.7-2.1l7.2-7c1.4-1.4,0.6-3.8-1.3-4.1l-10-1.5c-0.8-0.1-1.4-0.6-1.8-1.3l-4.4-9c-0.9-1.8-3.4-1.8-4.3,0
				l-4.5,9c-0.3,0.7-1,1.2-1.8,1.3l-10,1.4c-2,0.3-2.7,2.7-1.3,4.1l7.2,7c0.6,0.5,0.8,1.3,0.7,2.1l-1.7,9.9
				C1169.6,177,1171.6,178.5,1173.4,177.6z"/>
		</g>
		<g>
			<path class="st21" d="M1218.5,178.1l8.9-4.7c0.7-0.4,1.5-0.4,2.2,0l8.9,4.7c1.7,0.9,3.8-0.6,3.5-2.5l-1.7-9.9
				c-0.1-0.8,0.1-1.6,0.7-2.1l7.2-7c1.4-1.4,0.6-3.8-1.3-4.1l-10-1.5c-0.8-0.1-1.4-0.6-1.8-1.3l-4.4-9c-0.9-1.8-3.4-1.8-4.3,0
				l-4.5,9c-0.3,0.7-1,1.2-1.8,1.3l-10,1.4c-2,0.3-2.7,2.7-1.3,4.1l7.2,7c0.6,0.5,0.8,1.3,0.7,2.1l-1.7,9.9
				C1214.7,177.5,1216.7,179,1218.5,178.1z"/>
		</g>
		<g>
			<path class="st29" d="M1267.7,640.6c1.4,0,2.6-0.9,2.8-2.1l44.3-234.6c0.3-1.4-0.8-2.7-2.3-2.9c-1.6-0.2-3,0.7-3.3,2.1
				l-44.3,234.6c-0.3,1.4,0.8,2.7,2.3,2.9C1267.4,640.6,1267.6,640.6,1267.7,640.6z"/>
			<path class="st29" d="M1417.2,640.6c0.2,0,0.4,0,0.6-0.1c1.5-0.3,2.5-1.6,2.2-3L1367.8,406c-0.3-1.4-1.8-2.3-3.4-2
				c-1.5,0.3-2.5,1.6-2.2,3l52.2,231.6C1414.7,639.8,1415.9,640.6,1417.2,640.6z"/>
			<path class="st121" d="M1301.5,461.8h75.7c1.6,0,2.8-1.1,2.8-2.5c0-1.4-1.3-2.5-2.8-2.5h-75.7c-1.6,0-2.8,1.1-2.8,2.5
				C1298.7,460.7,1300,461.8,1301.5,461.8z"/>
			<path class="st29" d="M1302.9,461.8h73c1.5,0,2.7-1.1,2.7-2.5c0-1.4-1.2-2.5-2.7-2.5h-73c-1.5,0-2.7,1.1-2.7,2.5
				C1300.2,460.7,1301.4,461.8,1302.9,461.8z"/>

				<linearGradient id="SVGID_00000016033493878415758760000005267845010825402038_" gradientUnits="userSpaceOnUse" x1="1298.6821" y1="501.7165" x2="1380.1168" y2="501.7165">
				<stop  offset="0" style="stop-color:#4042E2"/>
				<stop  offset="1" style="stop-color:#4F52FF"/>
			</linearGradient>
			<path style="fill:url(#SVGID_00000016033493878415758760000005267845010825402038_);" d="M1301.5,504.3h75.7
				c1.6,0,2.8-1.1,2.8-2.5c0-1.4-1.3-2.5-2.8-2.5h-75.7c-1.6,0-2.8,1.1-2.8,2.5C1298.7,503.1,1300,504.3,1301.5,504.3z"/>
			<path class="st29" d="M1294.7,504.3h91.8c1.6,0,2.8-1.1,2.8-2.5c0-1.4-1.3-2.5-2.8-2.5h-91.8c-1.6,0-2.8,1.1-2.8,2.5
				C1291.8,503.1,1293.1,504.3,1294.7,504.3z"/>

				<linearGradient id="SVGID_00000147920887556376128420000008540849537593811889_" gradientUnits="userSpaceOnUse" x1="1298.6821" y1="544.1364" x2="1380.1168" y2="544.1364">
				<stop  offset="0" style="stop-color:#4042E2"/>
				<stop  offset="1" style="stop-color:#4F52FF"/>
			</linearGradient>
			<path style="fill:url(#SVGID_00000147920887556376128420000008540849537593811889_);" d="M1301.5,546.7h75.7
				c1.6,0,2.8-1.1,2.8-2.5s-1.3-2.5-2.8-2.5h-75.7c-1.6,0-2.8,1.1-2.8,2.5S1300,546.7,1301.5,546.7z"/>
			<path class="st29" d="M1285.9,546.7h109.9c1.6,0,2.8-1.1,2.8-2.5s-1.3-2.5-2.8-2.5h-109.9c-1.6,0-2.8,1.1-2.8,2.5
				S1284.3,546.7,1285.9,546.7z"/>

				<linearGradient id="SVGID_00000181783714096463690560000010220607826910980515_" gradientUnits="userSpaceOnUse" x1="1298.6821" y1="586.5563" x2="1407.4768" y2="586.5563">
				<stop  offset="0" style="stop-color:#4042E2"/>
				<stop  offset="1" style="stop-color:#4F52FF"/>
			</linearGradient>
			<path style="fill:url(#SVGID_00000181783714096463690560000010220607826910980515_);" d="M1301.5,589.1h103.1
				c1.6,0,2.8-1.1,2.8-2.5s-1.3-2.5-2.8-2.5h-103.1c-1.6,0-2.8,1.1-2.8,2.5S1300,589.1,1301.5,589.1z"/>
			<path class="st29" d="M1278.8,589.1h125.8c1.6,0,2.8-1.1,2.8-2.5s-1.3-2.5-2.8-2.5h-125.8c-1.6,0-2.8,1.1-2.8,2.5
				S1277.2,589.1,1278.8,589.1z"/>
		</g>
		<g>
			<g>
				<path class="st21" d="M903.7,381.7c-1,0.1-1.9-0.3-2.5-1.2l-3.1-4.8c-2.7-0.1-5.3-0.5-7.9-1.2l-4.4,3.6c-0.8,0.7-2,0.8-3,0.2
					l-6.9-4.2c-0.9-0.6-1.4-1.7-1.2-2.8l1.2-5.5c-1.8-1.9-3.4-4.1-4.7-6.4l-5.7-0.5c-1.1-0.1-2-0.9-2.3-2l-1.9-7.9
					c-0.3-1.1,0.2-2.2,1.1-2.8l4.8-3.1c0.1-2.7,0.5-5.3,1.2-7.9l-3.6-4.4c-0.7-0.8-0.8-2-0.2-3l4.2-6.9c0.6-0.9,1.7-1.4,2.8-1.2
					l5.5,1.2c1.9-1.8,4.1-3.4,6.4-4.7l0.5-5.7c0.1-1.1,0.9-2,2-2.3l7.9-1.9c1.1-0.3,2.2,0.2,2.8,1.1l3.1,4.8
					c2.7,0.1,5.3,0.5,7.9,1.2l4.4-3.6c0.8-0.7,2-0.8,3-0.2l6.9,4.2c0.9,0.6,1.4,1.7,1.2,2.8l-1.2,5.6c1.8,1.9,3.4,4.1,4.7,6.4
					l5.7,0.5c1.1,0.1,2,0.9,2.3,2l1.9,7.9c0.3,1.1-0.2,2.2-1.1,2.8l-4.8,3.1c-0.1,2.7-0.5,5.3-1.2,7.9l3.6,4.4
					c0.7,0.9,0.8,2.1,0.2,3l-4.2,6.9c-0.6,0.9-1.7,1.4-2.8,1.2l-5.6-1.2c-1.9,1.8-4.1,3.4-6.4,4.7l-0.5,5.7c-0.1,1.1-0.9,2-2,2.3
					l-7.9,1.9C903.9,381.7,903.8,381.7,903.7,381.7z M889.4,370l1.1,0.3c2.9,0.9,5.8,1.4,8.8,1.4l1.1,0l3.7,5.8l5.9-1.4l0.6-6.8
					l1-0.5c2.7-1.3,5.1-3.1,7.2-5.3l0.8-0.8l6.7,1.5l3.1-5.2l-4.4-5.3l0.3-1.1c0.9-2.8,1.4-5.8,1.4-8.8l0-1.1l5.8-3.7l-1.4-5.9
					l-6.8-0.6l-0.5-1c-1.3-2.7-3.1-5.1-5.3-7.2l-0.8-0.8l1.5-6.7l-5.2-3.1l-5.3,4.4l-1.1-0.3c-2.8-0.9-5.8-1.4-8.8-1.4l-1.1,0
					l-3.7-5.8l-5.9,1.4l-0.6,6.8l-1,0.5c-2.7,1.3-5.1,3.1-7.2,5.3l-0.8,0.8l-6.7-1.5l-3.1,5.2l4.4,5.3l-0.3,1.1
					c-0.9,2.8-1.4,5.8-1.4,8.8l0,1.1l-5.8,3.7l1.4,5.9l6.8,0.6l0.5,1c1.3,2.7,3.1,5.1,5.3,7.2l0.8,0.8l-1.5,6.7l5.2,3.1L889.4,370z
					 M883.3,375C883.3,375,883.3,375,883.3,375L883.3,375z M878.8,372.2L878.8,372.2C878.8,372.2,878.8,372.2,878.8,372.2z
					 M878.1,370.7L878.1,370.7C878.1,370.7,878.1,370.7,878.1,370.7z M872.5,323L872.5,323C872.5,323,872.5,323,872.5,323z
					 M901.4,365.5c-4.8,0.6-9.6-0.5-13.7-3c-4.9-3-8.4-7.8-9.8-13.4c-2.8-11.6,4.3-23.3,15.9-26.1c5.6-1.4,11.4-0.5,16.4,2.6
					c4.9,3,8.4,7.8,9.8,13.4c0.4,1.5,0.6,3,0.6,4.6c0,1.1-0.9,2-2,2.1c-1.1,0-2-0.9-2.1-2c0-1.2-0.2-2.5-0.5-3.7
					c-1.1-4.6-3.9-8.4-7.9-10.9c-4-2.4-8.7-3.2-13.3-2.1c-9.4,2.3-15.2,11.8-13,21.2c1.1,4.6,3.9,8.4,7.9,10.9
					c4,2.4,8.7,3.2,13.3,2.1c3.1-0.8,5.9-2.3,8.2-4.5c0.8-0.8,2.1-0.8,2.9,0c0.8,0.8,0.8,2.1,0,2.9c-2.8,2.7-6.3,4.7-10.1,5.6
					C903.2,365.2,902.3,365.3,901.4,365.5z"/>
				<path class="st21" d="M900.2,353.2c-1.3,0.1-2.6,0-3.8-0.4c-2.4-0.7-4.3-2.3-5.4-4.5c-1.2-2.2-1.4-4.7-0.7-7
					c0.7-2.4,2.3-4.3,4.5-5.4c2.2-1.2,4.7-1.4,7-0.7c2.4,0.7,4.3,2.3,5.4,4.5l0,0c2.4,4.5,0.6,10.1-3.9,12.5
					C902.4,352.7,901.3,353.1,900.2,353.2z M898.5,338.9c-0.6,0.1-1.2,0.3-1.8,0.6c-1.2,0.6-2.1,1.7-2.5,3.1c-0.4,1.3-0.3,2.7,0.4,4
					c0.6,1.2,1.7,2.1,3.1,2.5c1.3,0.4,2.7,0.3,4-0.4c2.5-1.3,3.5-4.5,2.2-7l0,0c-0.6-1.2-1.7-2.1-3.1-2.5
					C899.9,338.9,899.2,338.8,898.5,338.9z"/>
			</g>
			<g>
				<path class="st21" d="M840,336.3c-0.2,0-0.4,0-0.7,0l-3.8-1c-0.7-0.2-1.3-0.8-1.3-1.6l-0.2-2.4c-1-0.6-1.9-1.3-2.7-2l-2.4,0.5
					c-0.7,0.2-1.5-0.2-1.9-0.8l-2-3.4c-0.4-0.7-0.3-1.5,0.2-2.1l1.6-1.9c-0.3-1.1-0.4-2.2-0.5-3.4l-2-1.4c-0.6-0.4-0.9-1.2-0.7-1.9
					l1-3.8c0.2-0.7,0.9-1.3,1.6-1.3l2.4-0.2c0.6-1,1.3-1.9,2-2.7l-0.5-2.4c-0.1-0.8,0.2-1.5,0.8-1.9l3.4-2c0.7-0.4,1.5-0.3,2.1,0.2
					l1.9,1.6c1.1-0.3,2.2-0.4,3.4-0.5l1.4-2c0.4-0.6,1.2-0.9,1.9-0.7l3.8,1c0.7,0.2,1.3,0.8,1.3,1.6l0.2,2.4c1,0.6,1.9,1.3,2.7,2
					l2.4-0.5c0.7-0.2,1.5,0.2,1.9,0.9l2,3.4c0.4,0.7,0.3,1.5-0.2,2.1l-1.6,1.9c0.3,1.1,0.4,2.2,0.5,3.4l2,1.4
					c0.6,0.4,0.9,1.2,0.7,1.9l-1,3.8c-0.2,0.7-0.8,1.3-1.6,1.3l-2.4,0.2c-0.6,1-1.3,1.9-2,2.7l0.5,2.4c0.2,0.7-0.2,1.5-0.8,1.9
					l-3.4,2c-0.7,0.4-1.5,0.3-2.1-0.2L846,333c-1.1,0.3-2.2,0.4-3.4,0.5l-1.4,2C841,335.9,840.5,336.2,840,336.3z M838.7,333.8
					C838.7,333.8,838.7,333.8,838.7,333.8L838.7,333.8z M849.8,332.3L849.8,332.3C849.8,332.3,849.8,332.3,849.8,332.3z
					 M848.4,332.1C848.4,332.1,848.4,332.1,848.4,332.1L848.4,332.1z M837.2,332.5l2.1,0.5l1.8-2.7l0.8,0c1.4,0,2.8-0.2,4.1-0.6
					l0.8-0.2l2.4,2.1l1.8-1.1l-0.6-3.1l0.6-0.6c1-1,1.8-2.1,2.5-3.3l0.4-0.7l3.2-0.3l0.5-2.1l-2.7-1.8l0-0.8c0-1.4-0.2-2.8-0.6-4.1
					l-0.2-0.8l2.1-2.4l-1.1-1.8l-3.1,0.6l-0.6-0.6c-1-1-2.1-1.8-3.3-2.5l-0.7-0.4l-0.3-3.2l-2.1-0.5l-1.8,2.7l-0.8,0
					c-1.4,0-2.8,0.2-4.1,0.6l-0.8,0.2l-2.4-2.1l-1.8,1.1l0.6,3.1l-0.6,0.6c-1,1-1.8,2.1-2.5,3.3l-0.4,0.7l-3.2,0.3l-0.5,2.1l2.7,1.8
					l0,0.8c0,1.4,0.2,2.8,0.6,4.1l0.2,0.8l-2.1,2.4l1.1,1.8l3.1-0.6l0.6,0.6c1,1,2.1,1.8,3.3,2.5l0.7,0.4L837.2,332.5z M851.1,331.5
					C851.1,331.5,851.1,331.5,851.1,331.5L851.1,331.5z M827.5,325.4L827.5,325.4C827.5,325.4,827.5,325.4,827.5,325.4z
					 M827.6,323.9L827.6,323.9C827.6,323.9,827.6,323.9,827.6,323.9z M857.7,319.7C857.7,319.7,857.7,319.7,857.7,319.7L857.7,319.7
					z M856.6,311.4C856.6,311.4,856.6,311.4,856.6,311.4L856.6,311.4z M855.9,308.6L855.9,308.6
					C855.9,308.6,855.9,308.6,855.9,308.6z M854.6,308C854.6,308,854.6,308,854.6,308L854.6,308z M855.6,307.1L855.6,307.1
					L855.6,307.1z M832.5,305.2L832.5,305.2C832.5,305.2,832.5,305.2,832.5,305.2z M847.9,303C847.9,303,847.9,303,847.9,303
					L847.9,303z M844.1,302C844.1,302,844.1,302,844.1,302L844.1,302z M834.4,303.1C834.4,303.1,834.4,303.1,834.4,303.1
					L834.4,303.1z M843.3,328.5c-1.3,0.2-2.7,0.1-4-0.3c-2.8-0.7-5.2-2.5-6.7-5c-1.5-2.5-1.9-5.5-1.2-8.3c0.7-2.8,2.5-5.2,5-6.7
					c5.2-3.1,11.9-1.3,15,3.9c0.4,0.7,0.7,1.4,1,2.1c0.3,0.8-0.2,1.7-1,1.9c-0.8,0.3-1.7-0.2-1.9-1c-0.2-0.5-0.4-1-0.7-1.5
					c-2.2-3.8-7.1-5-10.8-2.8c-1.8,1.1-3.1,2.8-3.6,4.8c-0.5,2-0.2,4.2,0.8,6c1.1,1.8,2.8,3.1,4.8,3.6c2,0.5,4.2,0.2,6-0.8
					c1.2-0.7,2.2-1.8,2.9-3c0.4-0.7,1.3-1,2.1-0.6c0.7,0.4,1,1.3,0.6,2.1c-0.9,1.7-2.3,3.2-4.1,4.2
					C846.2,327.9,844.8,328.4,843.3,328.5z"/>
			</g>
		</g>
		<g>
			<g>
				<path class="st21" d="M1276.6,204.1l17.2-10.7c1.3-0.8,3-1,4.4-0.3l18.6,8.1c3.6,1.6,7.5-1.7,6.5-5.5l-4.9-19.6
					c-0.4-1.5,0-3.1,1.1-4.3l13.4-15.2c2.6-3,0.7-7.7-3.2-7.9l-20.2-1.4c-1.6-0.1-3-1-3.8-2.3l-10.3-17.4c-2-3.4-7.1-3-8.6,0.6
					l-7.6,18.8c-0.6,1.5-1.9,2.5-3.4,2.9L1256,154c-3.9,0.9-5.1,5.8-2,8.3l15.5,13c1.2,1,1.8,2.6,1.7,4.1l-1.9,20.2
					C1268.9,203.5,1273.2,206.2,1276.6,204.1z"/>
			</g>
			<g>

					<linearGradient id="SVGID_00000160149825759424174290000002261748869723865245_" gradientUnits="userSpaceOnUse" x1="1302.1475" y1="160.8407" x2="1337.3544" y2="261.1805">
					<stop  offset="0" style="stop-color:#FF928E"/>
					<stop  offset="1" style="stop-color:#FEB3B1"/>
				</linearGradient>
				<path style="fill:url(#SVGID_00000160149825759424174290000002261748869723865245_);" d="M1318.6,191c0,0-28.2,36,4,72.7
					c0,0,12.1-1.1,12.1-1.1c-0.7,0.1-3.6-6.5-3.9-7.1c-2.9-5.9-5.5-12-7.5-18.3c-2.5-7.8-4.1-15.9-4.2-24.1
					c-0.1-4.2,0.3-8.4,1.2-12.6c0.5-2.4,1.4-4.2,3.7-5.1c2.5-1,4.9-2.8,6.1-5.2c1.3-2.4,1.4-5.4,0.3-7.9c-0.9-2.1-2.6-3.8-4.7-4.8
					c-0.8-0.4-6.6-1.7-6.6-0.7c0,2.3,1.4,4.3,2.4,6.4C1323.4,187.1,1321.8,189,1318.6,191z"/>

					<linearGradient id="SVGID_00000031177386380829164300000006820467201439789755_" gradientUnits="userSpaceOnUse" x1="5927.5991" y1="906.1259" x2="5960.166" y2="773.2194" gradientTransform="matrix(1 0 0 1 -4693.6875 0)">
					<stop  offset="0" style="stop-color:#FF928E"/>
					<stop  offset="1" style="stop-color:#FEB3B1"/>
				</linearGradient>
				<path style="fill:url(#SVGID_00000031177386380829164300000006820467201439789755_);" d="M1334,367.5c0,0,22.8,49.7,34.8,70.3
					c0,0,2.4,13,0,17l-2,0.9l9.5-0.3c0,0,0.8-17.4,0.2-18.4c-0.7-1-2-0.9-2-0.9s-4.1-32.1-15.8-39l-11.4-39.2L1334,367.5z"/>
				<path class="st127" d="M1362.7,458.2c0,0.2,7.4,0.1,11.4,0.1c1.5,0,2.7-1.1,3.1-2.5l3-15.9c0.3-1.5-0.7-3-2.2-3.3l-1.7-0.4
					c0,0-2.4,3.3-1.7,6.4c0.8,3.1,1.4,11.2-0.5,12.1c-1.9,0.9-7.5,1.1-7.5,1.1S1362.9,456.1,1362.7,458.2z"/>
				<path class="st127" d="M1312.4,458.5c-0.7,0.4-0.4,1.6,0.4,1.6c6.7-0.1,21.8-0.3,23.1-0.8c1.7-0.7-0.6-6.9-3.1-9l-13.7,4.5
					L1312.4,458.5z"/>

					<linearGradient id="SVGID_00000041295029992104994930000013825215603593207459_" gradientUnits="userSpaceOnUse" x1="5893.9473" y1="897.8796" x2="5926.5137" y2="764.9731" gradientTransform="matrix(1 0 0 1 -4693.6875 0)">
					<stop  offset="0" style="stop-color:#FF928E"/>
					<stop  offset="1" style="stop-color:#FEB3B1"/>
				</linearGradient>
				<path style="fill:url(#SVGID_00000041295029992104994930000013825215603593207459_);" d="M1308.1,364.3c0,0,14.7,71.3,18.9,85.2
					l-9.9,6.2c0,0,4.9-0.8,8.6-1.1c3.7-0.3,7-4.5,7-4.5l-1.2-1.9c0,0-3.7-70.9-2.8-79L1308.1,364.3z"/>
				<path class="st20" d="M1302.1,251.2c5.7,1.6,24.8,6.6,36.7,6.4l-7.3,41.4l0.6,6.8l-23.9-0.1c0,0-6.7-15.6-12-23.4
					c-1.5-2.3-0.4-4.9,0.5-7.5l-1.2-0.8c-1.2-0.8-1.7-2.3-1.3-3.7l5.8-17.8C1300.2,251.5,1301.2,251,1302.1,251.2z"/>
				<path class="st29" d="M1306.3,302.2l0.5,4.1c0,0-6.8,20.2,3.4,67.5c0,0,22,6.2,40-8.7c0,0-5.1-44.6-6.5-46.7
					c-6.9-10.4-11.5-12.6-11.5-12.6l-0.2-4.5C1331.9,301.3,1312.6,304.8,1306.3,302.2z"/>

					<linearGradient id="SVGID_00000114035303025199925800000005099697969260462212_" gradientUnits="userSpaceOnUse" x1="6009.3105" y1="248.4819" x2="6024.4224" y2="248.4819" gradientTransform="matrix(1 0 0 1 -4693.6875 0)">
					<stop  offset="0" style="stop-color:#F9B776"/>
					<stop  offset="1" style="stop-color:#F47960"/>
				</linearGradient>
				<path style="fill:url(#SVGID_00000114035303025199925800000005099697969260462212_);" d="M1315.6,254.6c-0.1-0.1,5-15.3,5-15.3
					l7.3,0.7l2.8,17.3C1330.7,257.2,1319.3,259.5,1315.6,254.6z"/>

					<linearGradient id="SVGID_00000082356347377555559910000000480876022049549702_" gradientUnits="userSpaceOnUse" x1="6012.5386" y1="227.5391" x2="6122.5347" y2="235.0188" gradientTransform="matrix(1 0 0 1 -4693.6875 0)">
					<stop  offset="0" style="stop-color:#FF928E"/>
					<stop  offset="1" style="stop-color:#FEB3B1"/>
				</linearGradient>
				<path style="fill:url(#SVGID_00000082356347377555559910000000480876022049549702_);" d="M1326.2,215.2
					c-0.5,0.3-15.5,6.5-12.3,22.2c0.2,0.9,0.8,1.7,1.7,2.1c2.2,1,7,2.7,12.7,2.1c7.9-0.8,13.1-14.6,12.8-18.6
					C1340.8,219,1331,212.2,1326.2,215.2z"/>

					<linearGradient id="SVGID_00000101084563105611259660000008745636796349125011_" gradientUnits="userSpaceOnUse" x1="6040.4937" y1="244.1506" x2="6001.7749" y2="321.5878" gradientTransform="matrix(1 0 0 1 -4693.6875 0)">
					<stop  offset="0" style="stop-color:#09005D"/>
					<stop  offset="1" style="stop-color:#1A0F91"/>
				</linearGradient>
				<path style="fill:url(#SVGID_00000101084563105611259660000008745636796349125011_);" d="M1330.7,209.2c-0.4,0.1-8.7,2.9-4.6,9
					c4.1,6,5.7,9.6,3.7,12.2c-1.8,2.4-5.7,1-5.4,6c0.1,1-0.4,2-1.2,2.5c-3.7,2.5-12.7,10.2-3.8,21.2c0.7,0.9,0.9,2.1,0.3,3.1
					c-2.6,4.7-8.1,18.5,11.8,26.1c19.7,7.6,26.8-5.3,28.8-10.5c0.4-1.1,1.5-1.8,2.7-1.7c2.2,0.1,5.2-0.3,5.1-3.2
					c-0.1-1.8-1.2-3.3-2.5-4.6c-1.3-1.3-1-3.4,0.5-4.3c1.2-0.7,2.2-1.7,2.7-3.3c1.2-4.4-1.2-17.7-13.9-19.9
					c-1.1-0.2-2.2-1.2-2.3-2.2c0,0,0,0,0,0c-0.2-1,0.2-2.1,1-2.7c2-1.5,4.6-4.5,2.5-9.3c-1.9-4.3-5.5-5.7-8.1-6.1
					c-1.6-0.3-2.6-1.7-2.3-3.3C1346.8,213.9,1346,207.2,1330.7,209.2z"/>

					<linearGradient id="SVGID_00000027596924759981899350000008781321929486176654_" gradientUnits="userSpaceOnUse" x1="5729.2417" y1="-470.4001" x2="5764.4487" y2="-370.0601" gradientTransform="matrix(1 0 0 1 -4693.6875 0)">
					<stop  offset="0" style="stop-color:#FF928E"/>
					<stop  offset="1" style="stop-color:#FEB3B1"/>
				</linearGradient>
				<path style="fill:url(#SVGID_00000027596924759981899350000008781321929486176654_);" d="M1271.5,198c0,0-2,37.1,31.7,56.1
					l-8.1,18.5c0,0-30.6-18.5-29.4-68.9c0-1.4-0.5-2.9-1.4-4l-6.5-7.5c-2.5-2.9-3.4-6.8-2.5-10.4l0.9-3.4c0.3-1.1,1.6-1.7,2.6-1.1
					l0.7,0.4c2.2,1.3,3.9,3.2,4.9,5.4l3.3,5.1c1.2,2.7,1.5,3.8,4.4,3.5l5.4,0.1L1271.5,198z"/>
			</g>
		</g>
	</g>
	<g>
		<g>
			<path class="st20" d="M402.8,704c0.8,0.7,1.2,1.7,1.2,2.8c0,1.1-0.4,2.1-1.2,2.9c-0.8,0.8-1.9,1.2-3.1,1.2
				c-1.3,0-2.4-0.4-3.2-1.2c-0.8-0.8-1.3-1.7-1.3-2.9c0-1.1,0.4-2.1,1.3-2.8c0.8-0.7,1.9-1.1,3.2-1.1S402,703.2,402.8,704z
				 M396.2,715.6h6.5v37h-6.5V715.6z"/>
			<path class="st20" d="M410.9,691.4h28.7v7.3h-21.2V712H437v7.2h-18.5v19.5h-7.5V691.4z"/>
			<path class="st20" d="M456.1,739.5c-3.2,0-5.9-0.6-8.2-1.9c-2.3-1.3-4.1-3-5.3-5.2c-1.2-2.2-1.8-4.7-1.8-7.6
				c0-2.7,0.7-5.2,2.1-7.4c1.4-2.2,3.3-4,5.6-5.3c2.4-1.3,5-2,7.8-2c3.8,0,6.9,1.1,9.3,3.3s4.1,5.3,4.9,9.2l-22.2,7.5l-1.7-4.1
				l17.3-6.2l-1.4,0.8c-0.5-1.3-1.3-2.4-2.3-3.3s-2.6-1.5-4.5-1.5c-1.5,0-2.9,0.4-4,1.1s-2.1,1.7-2.8,3c-0.7,1.3-1,2.8-1,4.5
				c0,1.9,0.4,3.5,1.1,4.8c0.7,1.3,1.7,2.3,3,3.1c1.3,0.7,2.7,1.1,4.3,1.1c1.1,0,2.2-0.2,3.3-0.6c1-0.4,2-0.9,2.9-1.6l3.3,5.4
				c-1.5,0.9-3.1,1.6-4.7,2.2C459.4,739.2,457.7,739.5,456.1,739.5z"/>
			<path class="st20" d="M475.9,688h7.3v50.7h-7.3V688z"/>
			<path class="st20" d="M491,701.3c0-1.1,0.4-2,1.3-2.7c0.9-0.7,1.9-1.1,2.9-1.1s2,0.4,2.8,1.1c0.8,0.7,1.3,1.6,1.3,2.7
				c0,1.2-0.4,2.1-1.3,2.8c-0.8,0.7-1.8,1.1-2.8,1.1s-2-0.4-2.9-1.1C491.5,703.4,491,702.5,491,701.3z M491.4,711.2h7.3v27.5h-7.3
				V711.2z"/>
			<path class="st20" d="M529.6,736.3c-1.2,1-2.7,1.7-4.5,2.3s-3.5,0.9-5.3,0.9c-3,0-5.7-0.6-8-1.8c-2.3-1.2-4.1-2.9-5.4-5
				c-1.3-2.1-1.9-4.7-1.9-7.7s0.7-5.6,2-7.7c1.4-2.1,3.2-3.8,5.4-5s4.6-1.8,7.2-1.8c2.3,0,4.3,0.3,6.1,0.9c1.8,0.6,3.3,1.5,4.6,2.6
				l-3.6,4.7c-0.7-0.6-1.5-1.1-2.7-1.6c-1.1-0.5-2.4-0.7-3.8-0.7s-2.8,0.4-4,1.1c-1.2,0.7-2.2,1.7-2.9,3c-0.7,1.3-1,2.7-1,4.4
				c0,1.6,0.4,3,1.1,4.3c0.7,1.3,1.7,2.3,3,3.1c1.3,0.8,2.8,1.1,4.5,1.1c1.1,0,2.1-0.2,3.1-0.5c0.9-0.3,1.7-0.8,2.5-1.3L529.6,736.3
				z"/>
			<path class="st20" d="M534.9,701.3c0-1.1,0.4-2,1.3-2.7c0.9-0.7,1.9-1.1,2.9-1.1c1,0,2,0.4,2.8,1.1c0.8,0.7,1.3,1.6,1.3,2.7
				c0,1.2-0.4,2.1-1.3,2.8c-0.8,0.7-1.8,1.1-2.8,1.1c-1,0-2-0.4-2.9-1.1C535.4,703.4,534.9,702.5,534.9,701.3z M535.2,711.2h7.3
				v27.5h-7.3V711.2z"/>
			<path class="st20" d="M562,739.5c-2.6,0-4.9-0.6-6.9-1.8c-2.1-1.2-3.7-2.9-4.8-5.2c-1.2-2.3-1.8-4.9-1.8-7.9
				c0-3.1,0.6-5.7,1.9-7.9c1.3-2.2,3-3.8,5.2-5c2.2-1.1,4.6-1.7,7.4-1.7c2,0,3.9,0.4,5.7,1.2c1.8,0.8,3.3,1.9,4.4,3.3l-0.1,2.5V688
				h7.2v50.7h-7.3v-6.2l0.7,1.8c-1.4,1.5-3,2.7-4.9,3.7C566.6,739,564.4,739.5,562,739.5z M564.2,733.3c1.5,0,2.8-0.2,3.9-0.7
				c1.1-0.5,2.1-1.2,2.9-2c0.8-0.8,1.4-1.9,1.8-3.2v-5.8c-0.3-1.2-0.9-2.2-1.7-3.1c-0.8-0.9-1.8-1.5-3-2c-1.2-0.5-2.4-0.7-3.8-0.7
				c-1.5,0-2.9,0.4-4.2,1.1c-1.3,0.7-2.3,1.7-3.1,3c-0.8,1.3-1.2,2.8-1.2,4.5c0,1.6,0.4,3.1,1.2,4.5c0.8,1.3,1.8,2.4,3.1,3.2
				S562.8,733.3,564.2,733.3z"/>
			<path class="st20" d="M599.8,739.5c-2.6,0-5-0.5-7.1-1.6c-2.1-1.1-3.8-2.7-5-4.8c-1.2-2.1-1.8-4.8-1.8-8c0-3.1,0.6-5.8,1.9-8
				c1.3-2.2,3-4,5.1-5.2c2.1-1.2,4.4-1.8,6.9-1.8c2.6,0,4.8,0.5,6.4,1.6c1.6,1,2.9,2.3,3.9,3.7l-0.5,1l0.7-5.1h6.8v27.5h-7.3V732
				l0.7,1.8c-0.2,0.3-0.5,0.7-1,1.3c-0.5,0.6-1.2,1.2-2.1,1.9c-0.9,0.7-2,1.3-3.2,1.8C602.9,739.2,601.4,739.5,599.8,739.5z
				 M601.8,733.5c1.4,0,2.6-0.2,3.7-0.7c1.1-0.5,2-1.1,2.7-2c0.7-0.9,1.3-1.9,1.6-3.2v-6c-0.3-1.1-0.9-2.1-1.7-3
				c-0.8-0.8-1.7-1.5-2.8-2c-1.1-0.5-2.3-0.7-3.6-0.7c-1.5,0-2.9,0.4-4.2,1.1c-1.3,0.7-2.3,1.8-3,3.1c-0.7,1.3-1.1,2.8-1.1,4.6
				c0,1.6,0.4,3.1,1.2,4.5c0.8,1.4,1.8,2.4,3.1,3.2C598.9,733.1,600.3,733.5,601.8,733.5z"/>
			<path class="st20" d="M636.5,739.5c-2.6,0-4.9-0.6-6.9-1.8c-2.1-1.2-3.7-2.9-4.8-5.2c-1.2-2.3-1.8-4.9-1.8-7.9
				c0-3.1,0.6-5.7,1.9-7.9c1.3-2.2,3-3.8,5.2-5c2.2-1.1,4.6-1.7,7.4-1.7c2,0,3.9,0.4,5.7,1.2c1.8,0.8,3.3,1.9,4.4,3.3l-0.1,2.5V688
				h7.2v50.7h-7.3v-6.2l0.7,1.8c-1.4,1.5-3,2.7-4.9,3.7C641.2,739,639,739.5,636.5,739.5z M638.8,733.3c1.5,0,2.8-0.2,3.9-0.7
				c1.1-0.5,2.1-1.2,2.9-2c0.8-0.8,1.4-1.9,1.8-3.2v-5.8c-0.3-1.2-0.9-2.2-1.7-3.1c-0.8-0.9-1.8-1.5-3-2c-1.2-0.5-2.5-0.7-3.8-0.7
				c-1.5,0-2.9,0.4-4.2,1.1c-1.3,0.7-2.3,1.7-3.1,3c-0.8,1.3-1.2,2.8-1.2,4.5c0,1.6,0.4,3.1,1.2,4.5c0.8,1.3,1.8,2.4,3.1,3.2
				C635.9,732.9,637.3,733.3,638.8,733.3z"/>
			<path class="st20" d="M675.8,739.5c-3.2,0-5.9-0.6-8.2-1.9c-2.3-1.3-4.1-3-5.3-5.2c-1.2-2.2-1.8-4.7-1.8-7.6
				c0-2.7,0.7-5.2,2.1-7.4c1.4-2.2,3.3-4,5.6-5.3c2.4-1.3,5-2,7.8-2c3.8,0,6.9,1.1,9.3,3.3s4.1,5.3,4.9,9.2l-22.2,7.5l-1.7-4.1
				l17.3-6.2l-1.4,0.8c-0.5-1.3-1.3-2.4-2.3-3.3s-2.6-1.5-4.5-1.5c-1.5,0-2.9,0.4-4,1.1s-2.1,1.7-2.8,3c-0.7,1.3-1,2.8-1,4.5
				c0,1.9,0.4,3.5,1.1,4.8c0.7,1.3,1.7,2.3,3,3.1c1.3,0.7,2.7,1.1,4.3,1.1c1.1,0,2.2-0.2,3.3-0.6c1-0.4,2-0.9,2.9-1.6l3.3,5.4
				c-1.5,0.9-3.1,1.6-4.7,2.2C679.1,739.2,677.4,739.5,675.8,739.5z"/>
			<path class="st20" d="M703.9,739.3c-2.1,0-4.1-0.4-6-1.1c-1.9-0.7-3.5-1.8-4.7-3.3l3.1-4c1.2,1.1,2.4,2,3.6,2.5
				c1.2,0.5,2.3,0.8,3.4,0.8c0.8,0,1.6-0.1,2.2-0.3c0.7-0.2,1.2-0.5,1.6-0.9c0.4-0.5,0.6-1.1,0.6-1.8c0-0.9-0.3-1.5-0.9-2
				c-0.6-0.5-1.4-0.9-2.3-1.2c-1-0.3-2-0.6-3-1c-2.4-0.7-4.2-1.8-5.3-3.3c-1.2-1.4-1.8-3.1-1.8-4.9c0-1.4,0.4-2.8,1.1-4.2
				c0.7-1.3,1.9-2.4,3.4-3.3c1.5-0.8,3.4-1.3,5.7-1.3c2,0,3.8,0.2,5.4,0.7c1.6,0.5,3,1.2,4.4,2.3l-2.8,4.4c-0.8-0.7-1.8-1.3-2.8-1.8
				c-1-0.4-2-0.7-2.9-0.7c-0.8,0-1.5,0.1-2.1,0.3c-0.6,0.3-1.1,0.6-1.5,1c-0.4,0.4-0.6,0.9-0.6,1.5c0,0.9,0.2,1.6,0.9,2.1
				s1.4,0.9,2.4,1.2c1,0.3,2,0.6,3,1c1.3,0.4,2.5,0.9,3.5,1.6c1,0.7,1.9,1.5,2.5,2.5c0.6,1,0.9,2.2,0.9,3.6c0,1.6-0.4,3.2-1.2,4.6
				c-0.8,1.5-2.1,2.6-3.7,3.5S706.4,739.3,703.9,739.3z"/>
			<path class="st20" d="M727.6,733.1c-1,2.3-1.9,4.5-2.8,6.8c-0.9,2.3-1.9,4.5-2.8,6.8h-5.9c0.9-2.3,1.7-4.5,2.5-6.8
				c0.8-2.3,1.7-4.5,2.5-6.8H727.6z"/>
			<path class="st20" d="M754.3,699.1h7.3v12.1h7.2v5.7h-7.2v21.8h-7.3V717h-4.7v-5.7h4.7V699.1z"/>
			<path class="st20" d="M782.9,739.9c-2.5,0-4.5-0.8-6.2-2.3c-1.6-1.5-2.5-3.5-2.6-5.9v-20.5h7.3V729c0.1,1.4,0.5,2.5,1.2,3.4
				c0.7,0.9,1.8,1.3,3.3,1.4c1.4,0,2.7-0.5,3.8-1.4c1.1-0.9,2-2.1,2.6-3.7c0.7-1.6,1-3.3,1-5.3v-12.2h7.3v27.5h-6.6l-0.6-6l0.2,0.9
				c-0.6,1.3-1.4,2.4-2.4,3.3c-1,1-2.3,1.7-3.6,2.2S784.7,739.9,782.9,739.9z"/>
			<path class="st20" d="M850.6,736.3c-1.2,1-2.7,1.7-4.5,2.3s-3.5,0.9-5.3,0.9c-3,0-5.7-0.6-8-1.8c-2.3-1.2-4.1-2.9-5.4-5
				s-1.9-4.7-1.9-7.7s0.7-5.6,2-7.7c1.4-2.1,3.2-3.8,5.4-5s4.6-1.8,7.2-1.8c2.3,0,4.3,0.3,6.1,0.9c1.8,0.6,3.3,1.5,4.6,2.6l-3.6,4.7
				c-0.6-0.6-1.5-1.1-2.7-1.6c-1.1-0.5-2.4-0.7-3.8-0.7c-1.4,0-2.8,0.4-4,1.1c-1.2,0.7-2.2,1.7-2.9,3c-0.7,1.3-1,2.7-1,4.4
				c0,1.6,0.4,3,1.1,4.3s1.7,2.3,3,3.1c1.3,0.8,2.8,1.1,4.5,1.1c1.1,0,2.1-0.2,3.1-0.5c0.9-0.3,1.7-0.8,2.5-1.3L850.6,736.3z"/>
			<path class="st20" d="M862.7,711.2l0.7,7.8l-0.3-1.2c0.7-1.6,1.8-3,3.2-4.2c1.4-1.1,2.8-2,4.2-2.7c1.4-0.6,2.6-1,3.6-1l-0.4,7.3
				c-2-0.2-3.8,0.2-5.4,1.1c-1.5,0.9-2.7,2.1-3.6,3.7c-0.8,1.5-1.3,3.2-1.3,4.8v11.8h-7.3v-27.5H862.7z"/>
			<path class="st20" d="M891.5,739.5c-3.2,0-5.9-0.6-8.2-1.9c-2.3-1.3-4.1-3-5.3-5.2s-1.8-4.7-1.8-7.6c0-2.7,0.7-5.2,2.1-7.4
				c1.4-2.2,3.3-4,5.6-5.3c2.4-1.3,5-2,7.8-2c3.8,0,6.9,1.1,9.3,3.3c2.4,2.2,4.1,5.3,4.9,9.2l-22.2,7.5l-1.7-4.1l17.3-6.2l-1.4,0.8
				c-0.5-1.3-1.3-2.4-2.3-3.3s-2.6-1.5-4.5-1.5c-1.5,0-2.9,0.4-4,1.1c-1.2,0.7-2.1,1.7-2.8,3c-0.7,1.3-1,2.8-1,4.5
				c0,1.9,0.4,3.5,1.1,4.8c0.7,1.3,1.7,2.3,3,3.1c1.3,0.7,2.7,1.1,4.3,1.1c1.1,0,2.2-0.2,3.3-0.6c1-0.4,2-0.9,2.9-1.6l3.3,5.4
				c-1.5,0.9-3.1,1.6-4.7,2.2C894.8,739.2,893.1,739.5,891.5,739.5z M899.7,697.5l-8.8,8.8h-4.6l5.3-8.8H899.7z"/>
			<path class="st20" d="M922.5,739.5c-2.6,0-4.9-0.6-6.9-1.8c-2.1-1.2-3.7-2.9-4.8-5.2c-1.2-2.3-1.8-4.9-1.8-7.9
				c0-3.1,0.6-5.7,1.9-7.9c1.3-2.2,3-3.8,5.2-5c2.2-1.1,4.6-1.7,7.4-1.7c2,0,3.9,0.4,5.7,1.2c1.8,0.8,3.3,1.9,4.4,3.3l-0.1,2.5V688
				h7.2v50.7h-7.3v-6.2l0.7,1.8c-1.4,1.5-3,2.7-4.9,3.7C927.2,739,925,739.5,922.5,739.5z M924.8,733.3c1.5,0,2.8-0.2,3.9-0.7
				c1.1-0.5,2.1-1.2,2.9-2c0.8-0.8,1.4-1.9,1.8-3.2v-5.8c-0.3-1.2-0.9-2.2-1.7-3.1c-0.8-0.9-1.8-1.5-3-2c-1.2-0.5-2.5-0.7-3.8-0.7
				c-1.5,0-2.9,0.4-4.2,1.1c-1.3,0.7-2.3,1.7-3.1,3c-0.8,1.3-1.2,2.8-1.2,4.5c0,1.6,0.4,3.1,1.2,4.5c0.8,1.3,1.8,2.4,3.1,3.2
				C922,732.9,923.3,733.3,924.8,733.3z"/>
			<path class="st20" d="M948.5,701.3c0-1.1,0.4-2,1.3-2.7c0.9-0.7,1.9-1.1,2.9-1.1s2,0.4,2.8,1.1c0.8,0.7,1.3,1.6,1.3,2.7
				c0,1.2-0.4,2.1-1.3,2.8c-0.8,0.7-1.8,1.1-2.8,1.1s-2-0.4-2.9-1.1C948.9,703.4,948.5,702.5,948.5,701.3z M948.8,711.2h7.3v27.5
				h-7.3V711.2z"/>
			<path class="st20" d="M966.9,699.1h7.3v12.1h7.2v5.7h-7.2v21.8h-7.3V717h-4.7v-5.7h4.7V699.1z"/>
			<path class="st20" d="M984.4,724.7c0-2.8,0.7-5.3,2-7.5c1.3-2.2,3.2-4,5.5-5.3c2.3-1.3,5-1.9,8.1-1.9c3,0,5.6,0.6,7.9,1.9
				c2.3,1.3,4.1,3,5.3,5.2c1.3,2.2,1.9,4.7,1.9,7.5c0,2.8-0.6,5.3-1.9,7.6c-1.3,2.2-3.1,4-5.3,5.3c-2.3,1.3-5,2-8.1,2
				c-2.9,0-5.6-0.6-7.9-1.8c-2.3-1.2-4.1-2.9-5.5-5.1S984.4,727.7,984.4,724.7z M991.7,724.8c0,1.6,0.4,3.1,1.1,4.5
				c0.7,1.3,1.7,2.4,2.9,3.1c1.2,0.8,2.5,1.1,4.1,1.1c1.6,0,3-0.4,4.2-1.1c1.2-0.8,2.1-1.8,2.8-3.1c0.7-1.3,1-2.8,1-4.5
				c0-1.6-0.3-3.1-1-4.4c-0.7-1.3-1.6-2.4-2.8-3.2c-1.2-0.8-2.6-1.2-4.1-1.2s-2.9,0.4-4.1,1.2c-1.2,0.8-2.1,1.8-2.9,3.2
				C992.1,721.6,991.7,723.1,991.7,724.8z"/>
			<path class="st20" d="M1042.4,738.7v-21.1h-4.7v-6.5h4.7v-10.7c0-3.9,1-6.9,2.9-9c1.9-2.2,4.7-3.3,8.4-3.3c1,0,2.2,0.2,3.4,0.5
				c1.3,0.3,2.3,0.8,3.3,1.4l-3.1,5.3c-0.3-0.5-0.8-0.8-1.3-0.9c-0.5-0.2-1.1-0.2-1.5-0.2c-1.5,0-2.6,0.5-3.5,1.5
				c-0.9,1-1.3,2.6-1.3,4.9v10.6h8.5v6.5h-8.5v21.1H1042.4z"/>
			<path class="st20" d="M1073,739.9c-2.5,0-4.5-0.8-6.2-2.3c-1.6-1.5-2.5-3.5-2.6-5.9v-20.5h7.3V729c0.1,1.4,0.5,2.5,1.2,3.4
				c0.7,0.9,1.8,1.3,3.3,1.4c1.4,0,2.7-0.5,3.8-1.4c1.1-0.9,2-2.1,2.6-3.7c0.7-1.6,1-3.3,1-5.3v-12.2h7.3v27.5h-6.6l-0.6-6l0.2,0.9
				c-0.6,1.3-1.4,2.4-2.4,3.3c-1,1-2.3,1.7-3.6,2.2C1076.3,739.7,1074.7,739.9,1073,739.9z"/>
			<path class="st20" d="M1112,739.5c-3.2,0-5.9-0.6-8.2-1.9c-2.3-1.3-4.1-3-5.3-5.2c-1.2-2.2-1.8-4.7-1.8-7.6
				c0-2.7,0.7-5.2,2.1-7.4c1.4-2.2,3.3-4,5.6-5.3c2.4-1.3,5-2,7.8-2c3.8,0,6.9,1.1,9.3,3.3s4.1,5.3,4.9,9.2l-22.2,7.5l-1.7-4.1
				l17.3-6.2l-1.4,0.8c-0.5-1.3-1.3-2.4-2.3-3.3s-2.6-1.5-4.5-1.5c-1.5,0-2.9,0.4-4,1.1s-2.1,1.7-2.8,3c-0.7,1.3-1,2.8-1,4.5
				c0,1.9,0.4,3.5,1.1,4.8c0.7,1.3,1.7,2.3,3,3.1c1.3,0.7,2.7,1.1,4.3,1.1c1.1,0,2.2-0.2,3.3-0.6c1-0.4,2-0.9,2.9-1.6l3.3,5.4
				c-1.5,0.9-3.1,1.6-4.7,2.2C1115.2,739.2,1113.6,739.5,1112,739.5z"/>
			<path class="st20" d="M1167.4,739.5c-2,0-3.8-0.4-5.6-1.2c-1.8-0.8-3.2-2-4.2-3.4l0.4-2.2v19.3h-7.3v-41.2h6.2l1,6.4l-0.7-2
				c1.3-1.5,3-2.7,4.9-3.7c1.9-1,4.1-1.5,6.5-1.5c2.6,0,4.9,0.6,7,1.8c2,1.2,3.7,2.9,4.8,5.1c1.2,2.2,1.8,4.9,1.8,7.9
				c0,3-0.7,5.6-2,7.8c-1.3,2.2-3.1,3.8-5.3,5C1172.8,738.9,1170.3,739.5,1167.4,739.5z M1166,733.7c1.6,0,3.1-0.4,4.5-1.1
				c1.3-0.7,2.4-1.8,3.3-3.1c0.8-1.3,1.2-2.8,1.2-4.5c0-1.7-0.4-3.3-1.2-4.6c-0.8-1.3-1.8-2.4-3.1-3.1c-1.3-0.8-2.7-1.1-4.3-1.1
				c-1.4,0-2.6,0.2-3.8,0.7c-1.1,0.5-2.1,1.2-2.9,2c-0.8,0.9-1.4,1.9-1.8,3.1v5.5c0.3,1.2,0.8,2.2,1.5,3.2c0.8,0.9,1.7,1.6,2.8,2.1
				C1163.5,733.4,1164.7,733.7,1166,733.7z"/>
			<path class="st20" d="M1194.7,711.2l0.7,7.8l-0.3-1.2c0.7-1.6,1.8-3,3.2-4.2c1.4-1.1,2.8-2,4.2-2.7c1.4-0.6,2.6-1,3.6-1l-0.4,7.3
				c-2-0.2-3.8,0.2-5.4,1.1c-1.5,0.9-2.7,2.1-3.6,3.7c-0.8,1.5-1.3,3.2-1.3,4.8v11.8h-7.3v-27.5H1194.7z"/>
			<path class="st20" d="M1223.6,739.5c-3.2,0-5.9-0.6-8.2-1.9c-2.3-1.3-4.1-3-5.3-5.2c-1.2-2.2-1.8-4.7-1.8-7.6
				c0-2.7,0.7-5.2,2.1-7.4c1.4-2.2,3.3-4,5.6-5.3c2.4-1.3,5-2,7.8-2c3.8,0,6.9,1.1,9.3,3.3s4.1,5.3,4.9,9.2l-22.2,7.5l-1.7-4.1
				l17.3-6.2l-1.4,0.8c-0.5-1.3-1.3-2.4-2.3-3.3s-2.6-1.5-4.5-1.5c-1.5,0-2.9,0.4-4,1.1s-2.1,1.7-2.8,3c-0.7,1.3-1,2.8-1,4.5
				c0,1.9,0.4,3.5,1.1,4.8c0.7,1.3,1.7,2.3,3,3.1c1.3,0.7,2.7,1.1,4.3,1.1c1.1,0,2.2-0.2,3.3-0.6c1-0.4,2-0.9,2.9-1.6l3.3,5.4
				c-1.5,0.9-3.1,1.6-4.7,2.2C1226.8,739.2,1225.2,739.5,1223.6,739.5z"/>
			<path class="st20" d="M1254.9,739.5c-2.6,0-5-0.5-7.1-1.6c-2.1-1.1-3.8-2.7-5-4.8s-1.8-4.8-1.8-8c0-3.1,0.6-5.8,1.9-8
				c1.3-2.2,3-4,5.1-5.2c2.1-1.2,4.4-1.8,6.9-1.8c2.6,0,4.8,0.5,6.4,1.6s2.9,2.3,3.9,3.7l-0.5,1l0.7-5.1h6.8v27.5h-7.3V732l0.7,1.8
				c-0.2,0.3-0.5,0.7-1,1.3c-0.5,0.6-1.2,1.2-2.1,1.9c-0.9,0.7-2,1.3-3.2,1.8C1257.9,739.2,1256.5,739.5,1254.9,739.5z
				 M1256.8,733.5c1.4,0,2.6-0.2,3.7-0.7c1.1-0.5,2-1.1,2.7-2c0.7-0.9,1.3-1.9,1.6-3.2v-6c-0.3-1.1-0.9-2.1-1.7-3
				c-0.8-0.8-1.7-1.5-2.8-2c-1.1-0.5-2.3-0.7-3.6-0.7c-1.5,0-2.9,0.4-4.2,1.1c-1.3,0.7-2.3,1.8-3,3.1c-0.7,1.3-1.1,2.8-1.1,4.6
				c0,1.6,0.4,3.1,1.2,4.5c0.8,1.4,1.8,2.4,3.1,3.2C1254,733.1,1255.4,733.5,1256.8,733.5z"/>
			<path class="st20" d="M1297,739.5c-2,0-3.8-0.4-5.6-1.2c-1.8-0.8-3.2-2-4.2-3.4l0.4-2.2v19.3h-7.3v-41.2h6.2l1,6.4l-0.6-2
				c1.3-1.5,3-2.7,4.9-3.7c1.9-1,4.1-1.5,6.5-1.5c2.6,0,4.9,0.6,7,1.8c2,1.2,3.7,2.9,4.8,5.1c1.2,2.2,1.8,4.9,1.8,7.9
				c0,3-0.7,5.6-2,7.8c-1.3,2.2-3.1,3.8-5.3,5C1302.4,738.9,1299.9,739.5,1297,739.5z M1295.6,733.7c1.6,0,3.1-0.4,4.5-1.1
				c1.3-0.7,2.4-1.8,3.3-3.1s1.2-2.8,1.2-4.5c0-1.7-0.4-3.3-1.2-4.6c-0.8-1.3-1.8-2.4-3.1-3.1c-1.3-0.8-2.7-1.1-4.3-1.1
				c-1.4,0-2.6,0.2-3.8,0.7c-1.1,0.5-2.1,1.2-2.9,2s-1.4,1.9-1.8,3.1v5.5c0.3,1.2,0.8,2.2,1.5,3.2c0.8,0.9,1.7,1.6,2.8,2.1
				C1293.1,733.4,1294.3,733.7,1295.6,733.7z"/>
			<path class="st20" d="M1324.3,711.2l0.7,7.8l-0.3-1.2c0.7-1.6,1.8-3,3.2-4.2c1.4-1.1,2.8-2,4.2-2.7c1.4-0.6,2.6-1,3.6-1l-0.4,7.3
				c-2-0.2-3.8,0.2-5.4,1.1c-1.5,0.9-2.7,2.1-3.6,3.7c-0.8,1.5-1.3,3.2-1.3,4.8v11.8h-7.3v-27.5H1324.3z"/>
			<path class="st20" d="M1337.8,724.7c0-2.8,0.7-5.3,2-7.5c1.3-2.2,3.2-4,5.5-5.3c2.3-1.3,5-1.9,8.1-1.9c3,0,5.6,0.6,7.9,1.9
				c2.3,1.3,4.1,3,5.3,5.2c1.3,2.2,1.9,4.7,1.9,7.5c0,2.8-0.6,5.3-1.9,7.6c-1.3,2.2-3.1,4-5.3,5.3c-2.3,1.3-5,2-8.1,2
				c-2.9,0-5.6-0.6-7.9-1.8c-2.3-1.2-4.1-2.9-5.5-5.1C1338.5,730.4,1337.8,727.7,1337.8,724.7z M1345.1,724.8c0,1.6,0.4,3.1,1.1,4.5
				c0.7,1.3,1.7,2.4,2.9,3.1c1.2,0.8,2.5,1.1,4.1,1.1c1.6,0,3-0.4,4.2-1.1c1.2-0.8,2.1-1.8,2.8-3.1c0.7-1.3,1-2.8,1-4.5
				c0-1.6-0.3-3.1-1-4.4s-1.6-2.4-2.8-3.2c-1.2-0.8-2.6-1.2-4.1-1.2s-2.9,0.4-4.1,1.2s-2.1,1.8-2.9,3.2
				C1345.4,721.6,1345.1,723.1,1345.1,724.8z"/>
			<path class="st20" d="M1391.7,739.5c-2.5,0-4.6-0.5-6.4-1.4s-3.2-2.2-4.3-3.8l0.7-1.9v6.4h-7.3V688h7.3v28.9l-0.2-2.6
				c1.1-1.2,2.7-2.2,4.6-3.1c2-0.8,4.2-1.2,6.6-1.2c2.4,0,4.7,0.6,6.7,1.7c2,1.1,3.6,2.8,4.8,5c1.2,2.2,1.8,4.7,1.8,7.7
				c0,3.1-0.7,5.8-2,8c-1.3,2.2-3.1,4-5.3,5.2C1396.6,738.8,1394.2,739.5,1391.7,739.5z M1390.1,733.3c1.6,0,3.1-0.4,4.4-1.2
				s2.3-1.8,3.1-3.2c0.7-1.3,1.1-2.8,1.1-4.5c0-1.6-0.4-3.1-1.1-4.4s-1.8-2.3-3.1-3.1c-1.3-0.8-2.7-1.1-4.3-1.1
				c-1.3,0-2.6,0.2-3.7,0.7c-1.1,0.5-2.1,1.1-2.9,2c-0.8,0.8-1.4,1.8-1.8,3.1v6c0.4,1.2,1,2.2,1.8,3.1c0.8,0.9,1.7,1.5,2.9,2
				C1387.4,733,1388.7,733.3,1390.1,733.3z"/>
			<path class="st20" d="M1423.4,739.5c-2.6,0-5-0.5-7.1-1.6c-2.1-1.1-3.8-2.7-5-4.8c-1.2-2.1-1.8-4.8-1.8-8c0-3.1,0.6-5.8,1.9-8
				c1.3-2.2,3-4,5.1-5.2c2.1-1.2,4.4-1.8,6.9-1.8c2.6,0,4.8,0.5,6.4,1.6c1.6,1,2.9,2.3,3.9,3.7l-0.5,1l0.7-5.1h6.8v27.5h-7.3V732
				l0.7,1.8c-0.2,0.3-0.5,0.7-1,1.3c-0.5,0.6-1.2,1.2-2.1,1.9c-0.9,0.7-2,1.3-3.2,1.8C1426.5,739.2,1425,739.5,1423.4,739.5z
				 M1425.4,733.5c1.4,0,2.6-0.2,3.7-0.7c1.1-0.5,2-1.1,2.7-2c0.7-0.9,1.3-1.9,1.6-3.2v-6c-0.3-1.1-0.9-2.1-1.7-3
				c-0.8-0.8-1.7-1.5-2.8-2c-1.1-0.5-2.3-0.7-3.6-0.7c-1.5,0-2.9,0.4-4.2,1.1c-1.3,0.7-2.3,1.8-3,3.1c-0.7,1.3-1.1,2.8-1.1,4.6
				c0,1.6,0.4,3.1,1.2,4.5c0.8,1.4,1.8,2.4,3.1,3.2C1422.5,733.1,1423.9,733.5,1425.4,733.5z"/>
			<path class="st20" d="M1460.1,739.5c-2.6,0-4.9-0.6-6.9-1.8c-2.1-1.2-3.7-2.9-4.8-5.2c-1.2-2.3-1.8-4.9-1.8-7.9
				c0-3.1,0.6-5.7,1.9-7.9c1.3-2.2,3-3.8,5.2-5c2.2-1.1,4.6-1.7,7.4-1.7c2,0,3.9,0.4,5.7,1.2s3.3,1.9,4.4,3.3l-0.1,2.5V688h7.2v50.7
				h-7.3v-6.2l0.7,1.8c-1.4,1.5-3,2.7-4.9,3.7C1464.8,739,1462.6,739.5,1460.1,739.5z M1462.4,733.3c1.5,0,2.8-0.2,3.9-0.7
				c1.1-0.5,2.1-1.2,2.9-2c0.8-0.8,1.4-1.9,1.8-3.2v-5.8c-0.3-1.2-0.9-2.2-1.7-3.1c-0.8-0.9-1.8-1.5-3-2c-1.2-0.5-2.4-0.7-3.8-0.7
				c-1.5,0-2.9,0.4-4.2,1.1c-1.3,0.7-2.3,1.7-3.1,3c-0.8,1.3-1.2,2.8-1.2,4.5c0,1.6,0.4,3.1,1.2,4.5c0.8,1.3,1.8,2.4,3.1,3.2
				S1460.9,733.3,1462.4,733.3z"/>
			<path class="st20" d="M1484.1,724.7c0-2.8,0.7-5.3,2-7.5c1.3-2.2,3.2-4,5.5-5.3c2.3-1.3,5-1.9,8.1-1.9c3,0,5.6,0.6,7.9,1.9
				c2.3,1.3,4.1,3,5.3,5.2c1.3,2.2,1.9,4.7,1.9,7.5c0,2.8-0.6,5.3-1.9,7.6c-1.3,2.2-3.1,4-5.3,5.3c-2.3,1.3-5,2-8.1,2
				c-2.9,0-5.6-0.6-7.9-1.8c-2.3-1.2-4.1-2.9-5.5-5.1S1484.1,727.7,1484.1,724.7z M1491.4,724.8c0,1.6,0.4,3.1,1.1,4.5
				c0.7,1.3,1.7,2.4,2.9,3.1c1.2,0.8,2.5,1.1,4.1,1.1c1.6,0,3-0.4,4.2-1.1c1.2-0.8,2.1-1.8,2.8-3.1c0.7-1.3,1-2.8,1-4.5
				c0-1.6-0.3-3.1-1-4.4s-1.6-2.4-2.8-3.2c-1.2-0.8-2.6-1.2-4.1-1.2s-2.9,0.4-4.1,1.2s-2.1,1.8-2.9,3.2S1491.4,723.1,1491.4,724.8z"
				/>
			<path class="st20" d="M1522.3,738.9c-1.3,0-2.4-0.4-3.2-1.1c-0.8-0.7-1.3-1.7-1.3-2.8c0-1.1,0.4-2.1,1.3-2.9
				c0.8-0.8,1.9-1.2,3.2-1.2c1.3,0,2.3,0.4,3.1,1.2c0.8,0.8,1.2,1.7,1.2,2.9c0,1.1-0.4,2.1-1.2,2.8
				C1524.6,738.6,1523.6,738.9,1522.3,738.9z M1518.8,689.2h6.5v37.1h-6.5V689.2z"/>
		</g>
	</g>
</g>
</svg>
