<?xml version="1.0" encoding="utf-8"?>
<!-- Generator: Adobe Illustrator 26.0.2, SVG Export Plug-In . SVG Version: 6.00 Build 0)  -->
<svg version="1.1" id="Capa_1" xmlns="http://www.w3.org/2000/svg" xmlns:xlink="http://www.w3.org/1999/xlink" x="0px" y="0px"
	 viewBox="0 0 620 620" style="enable-background:new 0 0 620 620;" xml:space="preserve">
<style type="text/css">
	.st0{fill:#4ABBEC;}
	.st1{fill:#757575;}
	.st2{fill:#FFFFFF;}
</style>
<g>
	<g>
		
			<image style="overflow:visible;opacity:0.34;" width="2105" height="2106" xlink:href="3BACEB3F.png"  transform="matrix(0.24 0 0 0.24 58.5 59.28)">
		</image>
		<g>
			<circle class="st0" cx="310" cy="310" r="246.5"/>
		</g>
	</g>
	<g>
		<g>
			<path class="st2" d="M309.9,347.5c-41.8,0-75.8-34-75.8-75.8s34-75.8,75.8-75.8s75.8,34,75.8,75.8S351.7,347.5,309.9,347.5z
				 M309.9,206.2c-36.1,0-65.4,29.4-65.4,65.4s29.4,65.4,65.4,65.4s65.4-29.4,65.4-65.4S346,206.2,309.9,206.2z"/>
			<path class="st2" d="M428,269.9c0-11.7-5.9-22-14.9-28.2c-5.1-53.2-50-94.9-104.5-94.9c-55.5,0-101,43.3-104.7,97.8
				c-6.9,6.2-11.3,15.2-11.3,25.3c0,18.8,15.2,34,34,34v-68c-1.7,0-3.3,0.2-5,0.4c7.4-41.4,43.5-72.9,87-72.9
				c43.3,0,79.4,31.3,86.9,72.5c-0.5,0-1-0.1-1.5-0.1v49.4h-52.8c-3-4.8-8.4-8.1-14.5-8.1c-9.5,0-17.2,7.7-17.2,17.2
				c0,9.5,7.7,17.2,17.2,17.2c6,0,11.3-3.1,14.4-7.8h53v0.1c0.9,0,1.8-0.1,2.7-0.1h0.3v0C414.3,302.2,428,287.7,428,269.9z"/>
			<path class="st2" d="M433.2,473.2H186.8v-40.7c0-43.4,35.3-78.7,78.7-78.7h88.9c43.4,0,78.7,35.3,78.7,78.7V473.2z M197.2,462.8
				h225.5v-30.3c0-37.7-30.7-68.3-68.3-68.3h-88.9c-37.7,0-68.3,30.7-68.3,68.3V462.8z"/>
		</g>
	</g>
</g>
</svg>
