<?xml version="1.0" encoding="utf-8"?>
<!-- Generator: Adobe Illustrator 26.0.1, SVG Export Plug-In . SVG Version: 6.00 Build 0)  -->
<svg version="1.1" id="Capa_1" xmlns="http://www.w3.org/2000/svg" xmlns:xlink="http://www.w3.org/1999/xlink" x="0px" y="0px"
	 viewBox="0 0 1920 832.3" style="enable-background:new 0 0 1920 832.3;" xml:space="preserve">
<style type="text/css">
	.st0{fill:#EFF4F6;}
	.st1{fill:#00233D;}
	.st2{fill:#002440;}
	.st3{fill:#002643;}
	.st4{fill:#002746;}
	.st5{fill:#002849;}
	.st6{fill:#002A4C;}
	.st7{fill:#002B4F;}
	.st8{fill:#002D52;}
	.st9{fill:#002E55;}
	.st10{fill:#002F58;}
	.st11{fill:#00315A;}
	.st12{fill:#00325D;}
	.st13{fill:#003360;}
	.st14{fill:#003563;}
	.st15{fill:#003666;}
	.st16{fill:#003869;}
	.st17{fill:#00396C;}
	.st18{fill:#003A6F;}
	.st19{fill:#003C72;}
	.st20{fill:#003D75;}
	.st21{fill:#FFFFFF;}
	.st22{fill:#E8F2FA;}
	.st23{opacity:0.5;}
	.st24{opacity:0.3;fill:#29ACE3;}
	.st25{fill:#2D3554;}
	.st26{opacity:0.5;fill:#29ACE3;}
	.st27{fill:#29ACE3;}
	.st28{opacity:0.3;}
	.st29{fill:#FFDD00;}
	.st30{fill:#DDB300;}
	.st31{fill:#1D4071;}
	.st32{fill:#1F3865;}
	.st33{fill:#FFAE73;}
	.st34{fill:#F9924F;}
	.st35{fill:#1E3865;}
	.st36{fill:#0B3563;}
	.st37{fill:#002E51;}
	.st38{fill:#173359;}
	.st39{fill:#F8CAA4;}
	.st40{fill:#AA8D00;}
	.st41{fill:#FF7B35;}
	.st42{fill:#F48F4E;}
	.st43{fill:#838383;}
	.st44{opacity:0.8;}
	.st45{opacity:0.69;fill:#29ACE3;}
	.st46{fill:#9CCC98;}
	.st47{fill:#F5A977;}
	.st48{fill:#193257;}
	.st49{fill:#B79400;}
	.st50{fill:#01263D;}
	.st51{fill:#F29154;}
	.st52{fill:#293967;}
	.st53{fill:#ACBFE3;}
	.st54{fill:#F18E37;}
	.st55{fill:#7392CB;}
	.st56{fill:#ED750F;}
	.st57{fill:#DFF0F4;}
	.st58{fill:#E6F2FC;}
	.st59{fill:#E4EDF9;}
	.st60{fill:#153D68;}
	.st61{fill:#224E9A;}
	.st62{fill:#0E457F;}
	.st63{fill:#F39B64;}
	.st64{fill:#1B3660;}
	.st65{fill:#084D88;}
	.st66{fill:#AECCEC;}
	.st67{fill:#F29053;}
	.st68{fill:#114481;}
	.st69{fill:#F18E4E;}
	.st70{fill:#013059;}
	.st71{fill:#01315B;}
	.st72{fill:#01325D;}
	.st73{fill:#01335F;}
	.st74{fill:#013461;}
	.st75{fill:#013563;}
	.st76{fill:#013665;}
	.st77{fill:#013767;}
	.st78{fill:#003769;}
	.st79{fill:#00386B;}
	.st80{fill:#00396D;}
	.st81{fill:#003B71;}
	.st82{fill:#003C73;}
	.st83{fill:#012744;}
	.st84{fill:#012847;}
	.st85{fill:#012949;}
	.st86{fill:#012A4C;}
	.st87{fill:#012C4E;}
	.st88{fill:#012D51;}
	.st89{fill:#012E53;}
	.st90{fill:#012F56;}
	.st91{fill:#00335E;}
	.st92{fill:#003460;}
	.st93{fill:#003768;}
	.st94{fill:#003A6D;}
	.st95{fill:#003B70;}
	.st96{opacity:0.5;fill:#BC9D02;}
	.st97{opacity:0.5;fill:#FFDD00;}
	.st98{fill:#FFF0A9;}
	.st99{fill:#0064AF;}
	.st100{fill:#C8E6EE;}
	.st101{opacity:0.52;fill:#FFFFFF;}
	.st102{fill:#BC9D02;}
	.st103{fill:#014A7C;}
	.st104{opacity:0.7;fill:#FFFFFF;}
	.st105{fill:#015DA7;}
	.st106{fill:#19ABE3;}
	.st107{fill:#FFEB8A;}
	.st108{fill:url(#SVGID_1_);}
	.st109{fill:url(#SVGID_00000146461927980570362300000012775068578968135611_);}
	.st110{fill:#013451;}
	.st111{fill:url(#SVGID_00000019668118214672083210000000412624118324643775_);}
	.st112{fill:url(#SVGID_00000154424590382077241640000017436317285637681074_);}
	.st113{fill:url(#SVGID_00000100358904413657867080000013836891264470149039_);}
	.st114{opacity:0.72;fill:#C8E6EE;}
	.st115{fill:#91B3FA;}
	.st116{fill:url(#SVGID_00000165940369745855268600000008397639492846517637_);}
	.st117{fill:url(#SVGID_00000013183430696400003180000015427563595083793579_);}
	.st118{fill:url(#SVGID_00000106144120820408815130000008275700858303036305_);}
	.st119{fill:url(#SVGID_00000137845006220453430960000010009240549647037862_);}
	.st120{fill:url(#SVGID_00000078743142261192537160000012276278322148822455_);}
	.st121{fill:#D3AF00;}
	.st122{fill:url(#SVGID_00000006694752231940689700000013574083982787515784_);}
	.st123{fill:url(#SVGID_00000063604454144050092870000012071100830391490957_);}
	.st124{fill:url(#SVGID_00000024713779755301916830000005941470262000765877_);}
	.st125{fill:url(#SVGID_00000008835894692274896340000000607999848085711785_);}
	.st126{fill:url(#SVGID_00000173846176843407388790000005174016153618409877_);}
	.st127{fill:#4ABBEC;}
	.st128{fill:url(#SVGID_00000057110543226622695340000012276985377790966157_);}
	.st129{fill:url(#SVGID_00000059308558485230719750000010106248748618066821_);}
	.st130{fill:url(#SVGID_00000120540645592421098940000016571246138036439994_);}
	.st131{fill:url(#SVGID_00000142869839350762499070000008465495465367191458_);}
	.st132{fill:url(#SVGID_00000018931771179475114730000009361250755528873123_);}
	.st133{fill:#013666;}
	.st134{fill:#013766;}
	.st135{fill:#013768;}
	.st136{fill:#013869;}
	.st137{fill:#01386A;}
	.st138{fill:#01396B;}
	.st139{fill:#01396C;}
	.st140{fill:#01396D;}
	.st141{fill:#003A6E;}
	.st142{fill:#003C74;}
	.st143{fill:#003D74;}
	.st144{fill:#6B6A6A;}
	.st145{fill:#F5F5F5;}
	.st146{fill:#1A2E35;}
	.st147{fill:#FF4F5B;}
	.st148{fill:#FFBF9D;}
	.st149{fill:#FF9A6C;}
	.st150{fill:#375A64;}
	.st151{opacity:0.4;}
	.st152{fill:#E1E1E1;}
	.st153{fill:#F8AD00;}
	.st154{fill:#808D97;}
	.st155{opacity:0.6;}
	.st156{fill:#FAFAFA;}
	.st157{enable-background:new    ;}
	.st158{fill:#716263;}
	.st159{fill:none;stroke:#716263;stroke-miterlimit:10;}
	.st160{fill:#30B3A7;}
	.st161{fill:none;stroke:#30B3A7;stroke-miterlimit:10;}
	.st162{fill:#CCAA00;}
	.st163{fill:#EFE095;}
	.st164{fill:#E4EFFA;}
	.st165{fill:#A08500;}
	.st166{fill:#011826;}
	.st167{fill:#9BD6F3;}
	.st168{fill:#182844;}
	.st169{fill:#2C3454;}
	.st170{fill:#001321;}
	.st171{fill:#001525;}
	.st172{fill:#00172A;}
	.st173{fill:#001A2E;}
	.st174{fill:#001C33;}
	.st175{fill:#001E37;}
	.st176{fill:#00203C;}
	.st177{fill:#002240;}
	.st178{fill:#002544;}
	.st179{fill:#002749;}
	.st180{fill:#00294D;}
	.st181{fill:#002B52;}
	.st182{fill:#002E56;}
	.st183{fill:#00305A;}
	.st184{fill:#00325F;}
	.st185{fill:#003463;}
	.st186{fill:#003668;}
</style>
<g>
	<rect y="0" class="st0" width="1920" height="832.3"/>
	<g>
		<path class="st21" d="M947.2,584.4l5.4-3.5c0.4-0.3,1-0.3,1.5,0c0.6,0.4,1.2,0.8,1.8,1.1c1.1,0.6,2.3,1.2,3.5,1.6
			c0.5,0.2,0.9,0.7,1,1.3l0.5,7.1c0,0.8,0.6,1.4,1.4,1.4l6.1,0.3c0.7,0,1.3-0.5,1.3-1.2l0.7-6.5c0.1-0.6,0.5-1.1,1.1-1.2
			c2.5-0.4,5-1.3,7.3-2.6c0.5-0.3,1.3-0.2,1.7,0.3l2.6,3c0.5,0.6,1.3,0.7,1.9,0.2l4.8-3.7c0.1-0.1,0.2-0.2,0.3-0.3
			c0.4-0.5,0.4-1.1,0.1-1.7l-2.5-4.4l-0.6-1.1c0.6-1,1.2-2,1.7-3.1c0.7-1.5,1.3-3,1.7-4.5c0.2-0.6,0.6-1,1.2-1l5.3-0.3
			c0.7,0,1.3-0.7,1.3-1.4l0-5l0-1.4c0-0.8-0.5-1.5-1.3-1.6l-5.1-0.8c-0.6-0.1-1.1-0.6-1.2-1.2c-0.4-1.8-0.9-3.6-1.7-5.3
			c-0.1-0.2-0.1-0.3-0.2-0.4c0,0,0-0.1-0.1-0.1c-0.2-0.6,0-1.2,0.4-1.6l4.4-4.3c0.1,0,0.1-0.1,0.1-0.2c0.4-0.5,0.4-1.3,0-1.8
			l-3.6-5.2c-0.4-0.6-1.2-0.8-1.9-0.4l-5.6,3.6c-0.5,0.3-1.1,0.3-1.5-0.1c-1-0.8-2.1-1.5-3.2-2.2c-0.6-0.3-1.2-0.7-1.8-0.9
			c-0.5-0.2-0.9-0.7-0.9-1.3l-0.5-6.8c-0.1-0.8-0.6-1.4-1.3-1.4l-6-0.2c-0.7,0-1.3,0.5-1.4,1.3L965,532c-0.1,0.7-0.6,1.2-1.2,1.3
			c-2.5,0.2-5,0.9-7.3,1.9c-0.5,0.3-1.2,0.1-1.6-0.4l-3.7-4.4c-0.5-0.6-1.3-0.7-1.9-0.2l-4.8,3.7c-0.6,0.4-0.7,1.3-0.3,2l0.1,0.3
			l3,5.1c0.3,0.5,0.3,1.2-0.1,1.7l0,0c-0.8,1.2-1.6,2.5-2.3,3.9c-0.4,0.7-0.7,1.5-0.9,2.2c-0.2,0.5-0.6,0.9-1.2,0.9l-5.4,0.3
			c-0.7,0-1.3,0.7-1.3,1.5l0,6.4c0,0.2,0,0.4,0.1,0.5c0.2,0.5,0.6,0.9,1.2,1l4.1,0.6c0.5,0.1,0.9,0.4,1.1,0.9c0,0.1,0.1,0.3,0.1,0.4
			c0.4,3.5,1.5,6.8,3.1,9.9c0.3,0.5,0.2,1.2-0.1,1.6c0,0.1-0.1,0.1-0.2,0.2l-3.6,3.5c-0.5,0.5-0.6,1.4-0.2,2l0.1,0.1l3.5,5.1
			C945.8,584.7,946.6,584.8,947.2,584.4z M975.7,549.3c0.7,0.7,1.4,1.5,2,2.5c1.2,1.8,2.2,5,2.2,7.2c0,0.2,0,0.5,0,0.7
			c-0.5,13.9-16.1,18.8-24.2,7.3c-1.1-1.5-1.9-4-2.2-6.1c-0.1-0.5-0.1-1-0.1-1.4c0-2,0.3-3.8,0.9-5.4
			C957.5,544.9,968.5,542.1,975.7,549.3z"/>
	</g>
	<g>
		<g>
			<g>
				<path class="st20" d="M1175.9,304.3l12.6-1.4c1.1-0.1,2.1,0.4,2.6,1.3c0.7,1.1,1.5,2.2,2.3,3.3c1.5,2,3.2,3.9,5,5.6
					c0.8,0.8,1.1,2,0.7,3.1l-4.9,12.3c-0.5,1.3,0,2.8,1.3,3.5l10.8,5.4c1.2,0.6,2.7,0.2,3.5-0.9l6.6-10.3c0.6-1,1.8-1.5,3-1.2
					c5,1.3,10.2,1.9,15.4,1.6c1.3-0.1,2.4,0.7,2.8,1.9l2.2,7.1c0.4,1.3,1.8,2.2,3.2,1.9l11.8-2.4c0.2,0,0.5-0.1,0.7-0.2
					c1-0.5,1.7-1.6,1.5-2.8l-1-9.4l-0.3-2.3c2-1.1,3.9-2.4,5.7-3.8c2.5-1.9,4.7-4,6.7-6.2c0.8-0.8,2-1.1,3-0.7l9.9,3.9
					c1.4,0.5,2.9-0.1,3.5-1.4l4.1-8.3l1.2-2.4c0.6-1.3,0.2-2.9-1-3.7l-8.6-5.5c-1-0.6-1.5-1.8-1.2-2.9c0.8-3.4,1.3-6.8,1.3-10.3
					c0-0.3,0-0.6,0-0.9c0-0.1,0-0.2,0-0.3c0.1-1.1,0.9-2,2-2.4l11.5-3.6c0.1,0,0.3-0.1,0.4-0.1c1.1-0.5,1.8-1.8,1.5-3l-2.3-11.8
					c-0.3-1.4-1.6-2.4-3-2.2l-13.1,1.4c-1.1,0.1-2.2-0.4-2.7-1.4c-1.2-2.2-2.5-4.3-4.1-6.3c-0.8-1.1-1.7-2.1-2.6-3.1
					c-0.7-0.8-0.9-2-0.5-3l4.7-11.8c0.5-1.3,0-2.8-1.3-3.4l-10.7-5.3c-1.3-0.6-2.9-0.2-3.7,1l-5.2,8.1c-0.7,1.1-2,1.6-3.3,1.1
					c-4.8-1.7-9.8-2.6-14.8-2.7c-1.2,0-2.3-0.8-2.6-2l-3.2-10.4c-0.4-1.4-1.9-2.2-3.3-2l-11.7,2.3c-1.4,0.3-2.4,1.6-2.2,3l0.1,0.6
					l1.2,10.9c0.1,1.2-0.5,2.3-1.5,2.8l0,0c-2.5,1.3-5,2.8-7.3,4.6c-1.2,0.9-2.4,1.9-3.6,3c-0.8,0.7-1.9,0.9-2.9,0.6l-10.1-4
					c-1.4-0.6-2.9,0.1-3.6,1.4l-5.3,10.7c-0.1,0.3-0.2,0.6-0.3,0.9c-0.1,1,0.4,2.1,1.3,2.7l6.9,4.4c0.8,0.5,1.3,1.5,1.3,2.5
					c0,0.3-0.1,0.5-0.1,0.8c-2.1,6.1-3,12.6-2.5,19.1c0.1,1.1-0.5,2.1-1.5,2.6c-0.1,0.1-0.3,0.1-0.4,0.2l-9.3,2.9
					c-1.3,0.4-2.2,1.8-1.9,3.2l0.1,0.3l2.3,11.5C1173.1,303.5,1174.4,304.5,1175.9,304.3z M1256.6,268.7c0.7,1.8,1.3,3.7,1.7,5.8
					c0.8,4-0.1,10.2-1.9,13.8c-0.2,0.4-0.4,0.8-0.6,1.1c-12.4,22.9-44.7,18.2-50-7.6c-0.7-3.4-0.2-8.3,1-12.1c0.3-0.9,0.6-1.7,1-2.4
					c1.7-3.3,3.7-6,6-8.3C1227.2,246.5,1249.3,250.7,1256.6,268.7z"/>
			</g>
			<g>
				<path class="st29" d="M1102.4,227.3l8.6-2.9c0.7-0.2,1.5,0,2,0.5c0.7,0.7,1.4,1.3,2.1,2c1.4,1.2,2.8,2.2,4.3,3.2
					c0.7,0.4,1.1,1.2,0.9,2l-1.5,9.4c-0.2,1,0.5,2,1.5,2.2l8.4,2.1c1,0.2,1.9-0.3,2.3-1.2l3-8.2c0.3-0.8,1.1-1.3,1.9-1.3
					c3.7,0.2,7.4-0.2,11-1.2c0.9-0.2,1.8,0.2,2.2,0.9l2.6,4.6c0.5,0.9,1.6,1.2,2.5,0.9l7.9-3.4c0.2-0.1,0.3-0.2,0.4-0.3
					c0.6-0.5,0.9-1.4,0.6-2.2l-2.2-6.4l-0.5-1.6c1.2-1.1,2.4-2.2,3.4-3.5c1.4-1.7,2.7-3.5,3.8-5.4c0.4-0.7,1.2-1.1,2-1l7.5,1.2
					c1,0.2,2-0.5,2.3-1.5l1.6-6.4l0.5-1.8c0.3-1-0.3-2.1-1.3-2.4l-6.8-2.6c-0.8-0.3-1.3-1-1.3-1.9c0.1-2.5-0.2-5-0.6-7.4
					c0-0.2-0.1-0.4-0.1-0.6c0-0.1,0-0.1,0-0.2c-0.1-0.8,0.3-1.6,1-2l7.5-4.3c0.1,0,0.2-0.1,0.2-0.2c0.7-0.5,1-1.5,0.6-2.4l-3.4-7.9
					c-0.4-1-1.5-1.4-2.5-1.1l-9,3c-0.8,0.3-1.6,0-2.1-0.6c-1.2-1.3-2.4-2.6-3.8-3.8c-0.7-0.6-1.5-1.2-2.3-1.8
					c-0.6-0.5-0.9-1.2-0.8-2l1.5-9c0.2-1-0.5-2-1.4-2.2l-8.3-2.1c-1-0.3-2,0.3-2.4,1.3l-2.4,6.5c-0.3,0.9-1.2,1.4-2.1,1.3
					c-3.6-0.4-7.2-0.3-10.8,0.4c-0.8,0.2-1.7-0.2-2.1-1l-3.8-6.8c-0.5-0.9-1.6-1.3-2.6-0.9l-7.8,3.4c-0.9,0.4-1.4,1.5-1.1,2.4
					l0.1,0.4l2.5,7.5c0.3,0.8,0,1.7-0.6,2.2l0,0c-1.6,1.3-3,2.7-4.4,4.3c-0.7,0.9-1.4,1.7-2,2.6c-0.4,0.6-1.2,1-1.9,0.8l-7.7-1.3
					c-1-0.2-2.1,0.5-2.3,1.5l-2.1,8.3c-0.1,0.2-0.1,0.5,0,0.7c0.1,0.7,0.6,1.4,1.3,1.7l5.5,2c0.7,0.3,1.2,0.8,1.3,1.5
					c0,0.2,0,0.4,0,0.6c-0.5,4.6-0.2,9.3,1.1,13.7c0.2,0.8,0,1.6-0.6,2.1c-0.1,0.1-0.2,0.1-0.3,0.2l-6.1,3.5
					c-0.9,0.5-1.2,1.6-0.8,2.5l0.1,0.2l3.3,7.7C1100.3,227.2,1101.4,227.6,1102.4,227.3z M1153.4,190.1c0.8,1.2,1.5,2.4,2.1,3.8
					c1.1,2.7,1.5,7.2,0.8,10c-0.1,0.3-0.2,0.6-0.2,0.9c-5.2,17.9-28.5,19.5-36.1,2.3c-1-2.3-1.4-5.8-1.2-8.6
					c0.1-0.7,0.2-1.3,0.3-1.8c0.7-2.5,1.7-4.8,3-6.7C1129.5,179.1,1145.6,178.6,1153.4,190.1z"/>
			</g>
			<g>
				<path class="st46" d="M484.9,692.5H522c2-1.7-1.4-5.5-4.9-5.8c-1.5-0.1-3.5,0.2-5.7,0.7c-0.5-6.8-3.4-37.3-14.4-36.1
					c-12.4,1.4,0,13.4,3.5,20.6c2.6,5.3,5.3,12.9,6.6,16.4c-1,0.2-2,0.4-3.1,0.6c-1.6-5-7.7-21.9-15.5-21c-9.1,1.2-5.4,7.9,1,12
					c4.7,3,10.5,7.2,13.3,9.2c-2.3,0.4-4.8,0.6-7.3,0.6C489.2,689.6,486.1,691.5,484.9,692.5z"/>
			</g>
			<g>
				<path class="st46" d="M1395,691.6h-42c-2.2-1.9,1.6-6.2,5.5-6.5c1.7-0.1,3.9,0.2,6.4,0.8c0.6-7.7,3.9-42.2,16.3-40.8
					c14,1.6,0,15.2-4,23.3c-2.9,6-6,14.6-7.4,18.6c1.1,0.2,2.3,0.5,3.5,0.7c1.9-5.7,8.7-24.8,17.5-23.7c10.3,1.3,6.2,9-1.1,13.5
					c-5.4,3.3-11.9,8.1-15,10.4c2.6,0.4,5.4,0.7,8.2,0.7C1390.2,688.3,1393.7,690.5,1395,691.6z"/>
			</g>
			<g>
				<g>
					<g>
						<path class="st162" d="M929.4,435.6L909.1,677c0,0-2.1,14.6,8.8,14.7c17.9,0,89.1,0,89.1,0s-13.5-3-13.3-9.9
							c0.2-8.1,23.7-248.4,23.7-248.4L929.4,435.6z"/>
					</g>
					<g>
						<path class="st163" d="M1013.7,687.4c-3.5,0-72.4,0.1-89.8-0.1c-7.6-0.1-8.9-6.8-9-11.1c0-2.1,0.2-3.6,0.2-3.6l0.5-6.3l1.3-16
							l1.2-14.1l1.5-18.2l1.3-15.3l14.4-171.5l87.9-2.3c0,0-9.9,100.6-16.9,173.8c-0.8,8.2-1.5,16-2.2,23.3
							c-0.2,2.3-0.4,4.6-0.6,6.8c-0.7,6.9-1.2,13.3-1.8,18.9c-0.3,3-0.5,5.7-0.8,8.2c-0.9,9.9-1.4,16.2-1.4,17.4
							c0,0.7,0.1,1.3,0.2,2C1001.2,687,1012.3,687.4,1013.7,687.4z"/>
					</g>
					<g>
						<polygon class="st163" points="715.8,304.3 765.3,502.9 772.1,530.1 795.1,622.6 1223,622.6 1138.1,304.3 						"/>
					</g>
					<g>
						<polygon class="st162" points="715.8,304.3 709,306.6 786,629.5 795.1,622.6 						"/>
					</g>
					<g>
						<polygon class="st162" points="786,629.5 1211.2,629.5 1223,622.6 795.1,622.6 						"/>
					</g>
					<g>
						
							<rect x="935.3" y="687.4" transform="matrix(-1 -1.224647e-16 1.224647e-16 -1 1962.6937 1379.1274)" class="st162" width="92.1" height="4.4"/>
					</g>
					<g>
						<polygon class="st162" points="1004,629.5 1003.5,632.9 916.9,650.4 918.1,636.2 918.7,629.5 						"/>
					</g>
					<g class="st23">
						<path class="st29" d="M1013.7,687.4c-3.5,0-72.4,0.1-89.8-0.1c-7.6-0.1-8.9-6.8-9-11.1L1001,660c-0.9,9.9-1.4,16.2-1.4,17.4
							c0,0.7,0.1,1.3,0.2,2C1001.2,687,1012.3,687.4,1013.7,687.4z"/>
					</g>
					<g>
						<polygon class="st29" points="715.8,304.3 1138.1,304.3 1206.6,560.1 779.5,560.1 						"/>
					</g>
					<g>
						<polygon class="st106" points="1186.7,549 791.3,549 777.2,492.8 771.7,471 769.5,462.1 755,404.3 754.2,401.3 746.6,370.7 
							743.1,357 740.2,345.3 733.3,318 1123,318 1130.5,345.3 1133.7,357 1137.5,370.7 1162.3,460.8 1162.3,460.8 1164.4,468.4 
							1165.4,472 1182.6,534.2 						"/>
					</g>
					<g>
						<polygon class="st29" points="940,560.1 795.2,623.4 779.5,560.1 						"/>
					</g>
				</g>
				<g>
					<g>
						<g>
							<g>
								<path class="st164" d="M975.4,462.6c-32.3,0-62.9-26.3-68.3-58.6s16.6-58.6,48.9-58.6c32.3,0,62.9,26.3,68.3,58.6
									S1007.7,462.6,975.4,462.6z M957.6,355.6c-26.7,0-44.9,21.7-40.4,48.5c4.4,26.7,29.8,48.5,56.5,48.5
									c26.7,0,44.9-21.7,40.4-48.5C1009.7,377.3,984.4,355.6,957.6,355.6z"/>
							</g>
						</g>
						<g>
							<g>
								<path class="st29" d="M975.4,462.8c-32.4,0-63.1-26.3-68.4-58.7s16.6-58.7,49-58.7c17.6,0,35.4,7.8,48.8,21.4
									c10.4,10.5,17.3,23.7,19.6,37.3c0.5,2.9-1.5,5.2-4.3,5.2c-2.9,0-5.6-2.3-6-5.2c-1.9-11.2-7.6-22.1-16.1-30.7
									c-11.1-11.2-25.7-17.6-40.2-17.6c-26.7,0-44.7,21.7-40.3,48.3c4.4,26.7,29.7,48.3,56.4,48.3c2.9,0,5.6,2.3,6,5.2
									C980.2,460.4,978.3,462.8,975.4,462.8z"/>
							</g>
						</g>
					</g>
					<g>
						<g>
							<path class="st164" d="M1086.6,507.7l0.9,5.6c0.5,3.1-1.6,5.6-4.6,5.6H886.6c-3.1,0-6-2.5-6.5-5.6l-0.9-5.6
								c-0.5-3.1,1.6-5.6,4.6-5.6h196.2C1083.1,502.2,1086,504.7,1086.6,507.7z"/>
						</g>
						<g>
							<g>
								<path class="st29" d="M1023.2,502.2l2.8,16.7H886.6c-3.1,0-6-2.5-6.5-5.6l-0.9-5.6c-0.5-3.1,1.6-5.6,4.6-5.6H1023.2z"/>
							</g>
							<g>
								<polygon class="st163" points="994.2,502.2 981.6,518.9 952.8,518.9 965.4,502.2 								"/>
							</g>
							<g>
								<polygon class="st163" points="1023.2,502.2 1025.9,518.9 999.2,518.9 1011.8,502.2 								"/>
							</g>
							<g>
								<polygon class="st163" points="947.8,502.2 935.2,518.9 906.3,518.9 919,502.2 								"/>
							</g>
							<g>
								<path class="st163" d="M901.4,502.2l-12.6,16.7h-2.1c-3.1,0-6-2.5-6.5-5.6l-0.9-5.6c-0.5-3.1,1.6-5.6,4.6-5.6H901.4z"/>
							</g>
						</g>
					</g>
				</g>
			</g>
			<g>
				<g>
					<g>
						<path class="st52" d="M690,451c0,0,1-10.8-11.1-10.8c0,0,3.7,1,5.5,3c0,0-7.7-4.5-16.1,2.4c-8.4,6.9-3.2,24.3-5.7,27.6
							c-2.5,3.3-12.4,4-11.2,14.6c1.2,10.7,31.4,24,29.5,32.9c0,0,11.8-17.4,3.4-25.4c0,0,4.1,3.9,4.5,8.5c0,0,1.1-9-4.6-11.9
							c-5.1-2.6-9.2-11.9-8.8-13.6C675.9,476.7,690,451,690,451z"/>
					</g>
					<g>
						<path class="st47" d="M678.1,502.7c0,0,9,37.2,17.8,44.7c5.3,4.5,21.1,14.7,21.1,14.7l-6.6,2.4c0,0-21.9-7.4-26.8-13.2
							c-4.9-5.8-18.3-34.7-18.3-34.7L678.1,502.7z"/>
					</g>
					<g>
						<g>
							<path class="st106" d="M729.8,575.8l-2.1-5.2c-2.3-5.6-7.7-9.3-13.8-9.3h-39V586v105.7h161.5V586H745
								C738.3,586,732.3,582,729.8,575.8z"/>
						</g>
					</g>
					<g>
						<path class="st29" d="M593.5,568.2c0.1,0.1,0.2,0.3,0.2,0.4c2,3.4,6.5,11.8,11.5,21c2.4,4.4,4.8,8.9,7.2,13.2
							c4,7.4,7.7,13.9,9.8,17.4c2.2,3.5,3.8,6,4.4,7c0,0,0,0,0,0c0.2,0.3,0.2,0.7,0.2,1c-0.2,3.1-0.2,6.2,0.1,9.2
							c3,29.9,23.1,45.9,23.1,45.9l6,0.9c0,0-8.5-31.4-11-49.2c-0.4-3-0.6-5.4-0.5-7c0.4-4.6-0.4-11.4-1.9-19.2
							c-2.8-13.9-7.8-30.9-12.2-44.5c-0.3-0.9-8.7-31.3-8.7-31.3c-7.1,6.2-32.9,8.7-32.9,8.7S584.6,552.3,593.5,568.2z"/>
					</g>
					<g>
						<path class="st20" d="M668.7,691.8h-25c0,0-0.6-3.8,0.7-6.7c1.3-2.8,3-2.9,0.2-7.2c1.6,1.6,6.7,2.3,10.3,1.8
							c0.4,0.7,2.9,5.5,4.3,6.6C660.9,687.4,668.2,687,668.7,691.8z"/>
					</g>
					<g>
						<path class="st165" d="M593.5,568.2c0.1,0.1,0.2,0.3,0.2,0.4c2,3.4,12.6,23.1,17.6,32.3c-5.8-23.7-1.8-47.5-1.8-47.5
							L593.5,568.2z"/>
					</g>
					<g>
						<path class="st52" d="M686.6,449.4c0.2-0.7-14.3,6.5-15,7.3c-6.8,7.5-4.8,17.3-1,17.4c2.5,0.1,2,4.2,2,4.2l27.7-11.7
							C700.3,466.7,697,447.2,686.6,449.4z"/>
					</g>
					<g>
						<path class="st20" d="M677.3,497.1c0,0,4.2,8.4,3.7,15.2c0,0-5.1,8-18.3,10.1C662.7,522.4,674,497.1,677.3,497.1z"/>
					</g>
					<g>
						<path class="st29" d="M613,543.6l0.1-4.7c-9.3,1.2-32.1-11.1-32.1-11.1s-9.7,6.5-11.1,25c-0.7,9-4.8,47.2-5.2,58.7
							c-0.2,4.1-0.2,7.1-0.2,8.3c0,0,0,0,0,0c0,0.4-0.2,0.7-0.4,1c-1.9,2.4-3.6,5-5,7.7c-14.2,26.4-6.8,62.4-6.8,62.4l3.3-0.8
							c0,0,12-37.3,19.9-53.4c1.3-2.7,2.5-4.9,3.6-6.1c3-3.6,6.1-9.7,9.1-17C593.9,599.6,613,543.6,613,543.6z"/>
					</g>
					<g>
						<path class="st20" d="M572.1,691.8h-25c0,0-0.6-3.8,0.7-6.7c1.3-2.8,3.2-4,2.7-7.4c1.6,1.6,4.2,3.5,7.8,3
							c0.4,0.7,2.9,4.6,4.3,5.6C564.3,687.4,571.6,687,572.1,691.8z"/>
					</g>
					<g>
						<g>
							<path class="st20" d="M661,527.8c-3.4,0.6,0.5,3.2-4.1,3.7c-6.6,0.7-13.4,1.2-16.9,2.6c-1.3,0.5-2.2,1.2-2.4,2
								c-1.5,4.6-11.3,12.6-11.3,12.6c-43.5-2-46.3-21.4-46.3-21.4c28.2-27.4,52.3-42.4,72.1-44.2c4.8-0.5,11.3,0.2,14.4,1.5
								c6.9,3.1,10.8,12.5,10.8,12.5S673.8,525.6,661,527.8z"/>
						</g>
					</g>
					<g>
						<path class="st166" d="M657,531.6c-6.6,0.7-13.4,1.2-16.9,2.6c-10.3-20.5,8.8-38,8.8-38S655.5,523.3,657,531.6z"/>
					</g>
					<g>
						<path class="st47" d="M662.6,492.5c0,0-16.5-0.9-19.5,9.5c-2.9,10.4,5.5,51.8,7.3,56.1c3.3,7.8,20,31,20,31l5.4-2.8
							c0,0-10.8-33.9-13.2-37.3C658.9,543.6,667.6,497,662.6,492.5z"/>
					</g>
					<g>
						<path class="st47" d="M675.9,586.2c0,0,1.4,1.2,2.5,2.6c1.1,1.4,0.1,1.8,3.3,8c0,0-0.2,0.9-0.9,0.7c-0.7-0.2-3.1-2.5-4.3-2.4
							c0,0-0.9,0.7-1,3.1c-0.1,2.3-0.1,7.2-0.5,8.2c-0.4,0.9-3.3-3.9-4.7-7.4c-1.2-3.1,0-13.5,0-13.5L675.9,586.2z"/>
					</g>
					<g>
						<path class="st20" d="M639.9,515.8c0,0.2,15.6,2.9,25.4-2.1c0,0,8.2-25.5-3.5-24.3c-11.6,1.2-18.5,4.9-18.8,10.5
							C642.7,505.5,639.9,515.8,639.9,515.8z"/>
					</g>
					<g>
						<path class="st47" d="M666.2,486.4c0.2,2.1,0.4,4.5,3.1,7.3c2.1,2.1,5.1,3.8,7.2,1.7c1.1-1.1,2.5-2.7,3.3-3.9
							c1.8-3.1,4-6.3,4-6.3l-9.4-8.2l-0.6-0.5c-2.5,4.3-4.9,6.3-7,7.9C666.2,484.8,666.1,485.6,666.2,486.4z"/>
					</g>
					<g>
						<path class="st51" d="M683.7,485.2c0,0-2.2,3.2-4,6.3c-5.8-3.6-5.8-10.8-5.4-14.5L683.7,485.2z"/>
					</g>
					<g>
						<path class="st47" d="M684,489.3c0,0-14.1-7.9-9.1-16.6c5-8.7,6.6-15.6,15.8-11c9.2,4.6,9,9,8.1,12.3
							C697.8,477.3,687.8,491.1,684,489.3z"/>
					</g>
					<g>
						<path class="st52" d="M701.1,468.9c-0.6-3.9-2.6-4.2-4-4c-5.2-8.6-13.7-5.3-13.7-5.3c-4.5,5.7-11.1,6.7-11.1,6.7
							s1.6,3,8.4,4.9c2.1,0.6,4.4,0.2,6.7-0.5c-4.7,2.6-9.6,3.6-9.6,3.6c8.9,0.8,17.4-7.3,18.2-8.2c0.4,1.3,1.1,3.9,0.7,5.8
							c-0.6,2.6-2.9,7.4-1.5,8C695.2,480,702.1,474.7,701.1,468.9z"/>
					</g>
					<g>
						<path class="st47" d="M719.7,562.2c0,0-3.9,3-1,4.9c3,1.9,8.3,2.5,8.3,1.2C727.1,564,724.9,561,719.7,562.2z"/>
					</g>
				</g>
				<g>
					<path class="st167" d="M717.2,652.9h83.4c3.4,0,6.1-5.3,6.1-9c0.1-11.7-12.4-30.4-40.8-22.1c0,0-8-21.7-36.2-19
						c-16.6,1.5-25.8,18.4-26.9,33.5C702.2,645.3,708.9,652.9,717.2,652.9z"/>
				</g>
				<g>
					<g>
						
							<rect x="746.7" y="635.3" transform="matrix(-1 -1.224647e-16 1.224647e-16 -1 1509.5316 1307.63)" class="st54" width="16.2" height="37.1"/>
					</g>
					<g>
						<polygon class="st54" points="774.8,642.8 734.7,642.8 754.8,623.9 						"/>
					</g>
				</g>
			</g>
			<g>
				<g>
					<polygon class="st21" points="1132.2,469 1111.1,473.9 1100.7,492.8 1092.8,449.6 					"/>
				</g>
				<g>
					
						<rect x="1113.2" y="468.6" transform="matrix(0.7987 -0.6017 0.6017 0.7987 -64.2018 767.5701)" class="st21" width="3.9" height="22.3"/>
				</g>
			</g>
			<g>
				<g>
					<g>
						<path class="st47" d="M803.7,360.7c-0.7,0.8-0.8,1.7-0.4,2.6c0,0,0,0,0,0c0.6,1.8,2.7,3.7,5.2,5.7c0.3,0.3,0.6,0.5,0.8,0.7
							c0.1,0.1,0.1,0.1,0.2,0.2c0,0,0.1,0.1,0.1,0.1c2.3,2.1,1.4,2.6,5.5,6.8c4.7,4.8,7.9,4.9,8.8,4.5c0.8-0.4-0.8-2.9-2.5-5.8
							c-0.1-0.1-0.2-0.3-0.3-0.4c-0.2-0.4-0.5-0.8-0.7-1.2c-2-3.5-1.5-5.1-1-10.3c0.4-4.2,6.5-23.5,6.5-23.5l-8.9-1.5
							c0,0-2.7,15.4-5.7,17.7c-1.6,1.3-3.4,1.3-4.9,2.2c-0.1,0.1-0.2,0.1-0.3,0.2C805.3,359.3,804.4,359.9,803.7,360.7z"/>
					</g>
					<g>
						<path class="st29" d="M803.7,360.7c-0.7,0.8-0.8,1.7-0.4,2.6c0,0,0,0,0,0c0.8,1.8,2.8,3.7,5.2,5.7c0.3,0.3,0.6,0.5,0.8,0.7
							c0.1,0.1,0.1,0.1,0.2,0.2c0,0,0.1,0.1,0.1,0.1c2.3,2.1,1.4,2.6,5.5,6.8c4.7,4.8,7.9,4.9,8.8,4.5c0.8-0.4-0.8-2.9-2.5-5.8
							c-0.9-0.3-5.1-2-8.3-6.1c-2.7-3.5-4.5-7.8-6.4-10.5c-0.2,0-0.3-0.1-0.5-0.1C805.3,359.3,804.4,359.9,803.7,360.7z"/>
					</g>
					<g>
						<path class="st47" d="M875.7,355.1c0.6,2.8,4.5,2.3,8.9,1.2c4.4-1.1,3.3,0.2,9.6-0.5c6.2-0.7,8.1-3,8.3-3.9
							c0.2-0.8-2.9-1.1-6.2-1.5c-0.4,0-0.8-0.1-1.3-0.1c-3.7-0.5-6.5-2.9-9.9-4.9c-3.2-1.9-8-9.5-8-9.5l-8.6,0.7
							c0,0,4.5,6.8,6.2,9.8c1,1.7,1,4.1,0.8,5.8C875.5,353.2,875.5,354.2,875.7,355.1z"/>
					</g>
					<g>
						<path class="st29" d="M884.5,356.4c4.4-1.1,3.3,0.2,9.6-0.5c6.2-0.7,8.1-3,8.3-3.9c0.2-0.8-2.9-1.1-6.2-1.5l0,0.1
							c0,0-3.7,2.7-8.9,2.8c-4.2,0.1-8.7-1.1-11.7-1.1c-0.1,1-0.1,2,0.1,2.9C876.2,357.9,880.2,357.4,884.5,356.4z"/>
					</g>
					<g>
						<path class="st166" d="M842.8,300.3l-8,21.6L824.4,350c0,0-2.8,0.3-5.6-0.5c-2.5-0.7-5.4-2.6-5.4-2.6s2.9-30.2,8.3-47.6
							c1.4-4.5,2.9-8.1,4.7-10.1C834.8,279.4,842.8,300.3,842.8,300.3z"/>
					</g>
					<g>
						<path class="st20" d="M834.7,266.1c-4.6-1.5-16.5,0-29.4,2.3c-3.6,0.6-7.2-1-9-4.1l0,0l-32.5-2.5c0,0-10.7,23.8-4.8,38.9
							c0.9,2.2,2.8,3.6,5.7,3.7c0,0,0,0,0,0c0,0,19.6,0,25.9,0c16.1,0,34.2-11.1,36.5-11.6c3.8-0.8,5.3,6.9,9.2,14.9
							c3.8,8,35.9,35.5,35.9,35.5s4.9,0,7-0.7c2.2-0.8,3-1.9,3-1.9S846.5,269.9,834.7,266.1z"/>
					</g>
					<g>
						<path class="st32" d="M792.9,169c-2.4-1.4-4.8-1.7-6.2-1.6c-1,0-2,0-3-0.2c-12.4-1.8-19.9,16.2-20.3,21.6
							c-0.8,10-6.1,11.5-13.5,17.8c-14.9,12.5-10.5,27.1-2.4,32.5c4.9,3.2,13.5,0,13.5,0c0.1,0.1,23.6-13.1,35.1-19.5
							C813.5,217.2,799.8,173.1,792.9,169z"/>
					</g>
					<g>
						<path class="st47" d="M786.4,214.2c0.1,0-5.7,2-9.5,0.3c-3.6-1.6-6.3-7.5-6.3-7.5c1.6-0.1,3.4-1.5,4.8-10.9l0.7,0.3l11.8,4.2
							c0,0-0.9,3.8-1.4,7.4C786,210.9,785.8,213.8,786.4,214.2z"/>
					</g>
					<g>
						<path class="st67" d="M787.9,200.5c0,0-0.5,2-1.2,5.8c-6.8-1.2-9.7-6.4-10.6-10.1L787.9,200.5z"/>
					</g>
					<g>
						<path class="st47" d="M789.7,204.3c0,0-16.1-2.2-14.6-12.2c1.5-10,0.4-17,10.8-16.1c10.3,1,11.8,5.1,12.1,8.5
							C798.2,188,793.9,204.6,789.7,204.3z"/>
					</g>
					<g>
						<path class="st32" d="M797.3,179.1c0,0-10.3,8.9-17.3,9.6c-7,0.7-9.7-1.5-9.7-1.5s4.1-3.4,6.6-9c0.7-1.6,2.3-2.8,4.1-2.9
							C786,174.9,795.5,174.7,797.3,179.1z"/>
					</g>
					<g>
						<path class="st32" d="M790.9,178.3c0,0,3.4,3.3,4.5,5.8c1,2.4,1.4,8.1,0.5,10.4c0,0,5.4-10.4,2.3-15.5
							C795,173.6,790.9,178.3,790.9,178.3z"/>
					</g>
					<g>
						<path class="st29" d="M800,237.9c-0.5,32.6-0.1,25.8-3.7,28.9c-0.9,0.7-3.3,1.2-6.4,1.4c-10,0.7-27.5-1-28.2-2.8
							c-2.3-6.4-0.7-8.4-2.6-18.1c-0.2-1-0.4-2.2-0.7-3.4c-1.6-6.7-3.2-9,2.5-19.8c5.2-9.8,10.5-17.7,11-17.4
							c13.6,8.1,14.7,1.3,14.7,1.3S800.2,222,800,237.9z"/>
					</g>
					<g>
						<path class="st20" d="M834.8,321.9L824.4,350c0,0-2.8,0.3-5.6-0.5c-2.5-0.7-5.4-2.6-5.4-2.6s2.9-30.2,8.3-47.6L834.8,321.9z"
							/>
					</g>
					<g>
						<path class="st29" d="M786.5,207.9c0,0,14,2.4,15.6,8.4c1.6,6,7.1,42.6,7.1,42.6s-3.9,3.9-7.2,0.6
							c-3.3-3.3-10.3-34.2-10.3-34.2L786.5,207.9z"/>
					</g>
					<g>
						<path class="st165" d="M789.8,268.2c-10,0.7-27.5-1-28.2-2.8c-2.3-6.4-0.7-8.4-2.6-18.1l4.8-13.6c0,0-0.8,15.1,3.7,19.1
							c4.4,4,18.2,7.7,20.4,11C788.9,265.3,789.6,266.9,789.8,268.2z"/>
					</g>
					<g>
						<path class="st47" d="M778.4,261.8c0,0,9.9-2.2,11.4-1.3c1.6,0.9,5.5,4.1,6,5.2c0.5,1.1-3.5-0.8-4.8-1.2
							c-0.8-0.2-3.1,0.5-4.2,0.9c-4.7,1.6-7.5,0.8-7.5,0.8L778.4,261.8z"/>
					</g>
					<g>
						<path class="st29" d="M771.8,206.6c0,0-13.2,0.8-17.8,7.2c-6.4,9-19.2,47.3-11.9,52.4c8.3,5.8,37.6,1.5,37.6,1.5
							s1-4.6-0.4-6.8c-1.4-2.2-23.4-5.8-24.4-6.8c-1-1,12.7-19.8,12.7-22.9C767.6,228.2,771.8,206.6,771.8,206.6z"/>
					</g>
					<g>
						<path class="st47" d="M790.3,263.2c0,0,2.1,2.7,2.7,3s1.1,0.2,1.1,0.2l-1.4-2.5L790.3,263.2z"/>
					</g>
					<g>
						<path class="st47" d="M789.8,260.5l6,2.9c0,0-0.3,0.4-1,0.4c-0.7,0-2.6-0.7-2.6-0.7L789.8,260.5z"/>
					</g>
				</g>
				<g>
					<g>
						<polygon class="st32" points="841.1,267.3 778.4,267.3 778.4,268.7 840.5,268.7 						"/>
					</g>
					<g>
						<polygon class="st32" points="793.1,268.7 840.5,268.7 854.8,233.2 807.4,233.2 						"/>
					</g>
					<g>
						<path class="st21" d="M828.5,251c0.4-1.2-0.4-2.3-1.6-2.3c-1.2,0-2.6,1-2.9,2.3c-0.4,1.2,0.4,2.3,1.6,2.3
							C826.9,253.2,828.2,252.2,828.5,251z"/>
					</g>
				</g>
			</g>
			<g>
				<g>
					<path class="st29" d="M1292.3,413.3c0,0,23,23.4,24.2,33.1c1.2,9.7-11.9,24.9-11.9,24.9L1292.3,413.3z"/>
				</g>
				<g>
					<path class="st168" d="M1279.1,678.5c0,0-0.9,13.7-3.5,13.9c-0.4,0-13.4,0-13.4,0l-16.7-0.1c0,0,0.1-4,5-4.9
						c4.9-0.8,13.1-4.3,16-10.7C1269.6,669.9,1279.1,678.5,1279.1,678.5z"/>
				</g>
				<g>
					<path class="st168" d="M1316.3,678.5c0,0-0.9,13.7-3.5,13.9c-0.4,0-13.4,0-13.4,0l-16.7-0.1c0,0,0.1-4,5-4.9
						c4.9-0.8,13.1-4.3,16-10.7C1306.8,669.9,1316.3,678.5,1316.3,678.5z"/>
				</g>
				<g>
					<path class="st166" d="M1260.9,531.2c0,0,4.3,28,20.5,77.6c16.2,49.6,18.4,71.1,18.4,71.1l17.5-0.5c0,0,0.3-54.2-7.2-79.2
						c-7.5-25-1.4-89.9-1.4-89.9L1260.9,531.2z"/>
				</g>
				<g>
					<path class="st20" d="M1252.5,511.8c0,0-0.7,42.1,6.5,93.8c7.2,51.7,4.7,73.7,4.7,73.7l17.5,0.6c0,0,10.5-51.7,7.6-77.6
						c-2.9-25.9,14.5-88.8,14.5-88.8L1252.5,511.8z"/>
				</g>
				<g>
					<path class="st47" d="M1286.5,413.3l-9.3,6.1l-13.4-2.5c0.2-1.1,1.1-5.6,1.9-9.6c0-0.2,0.1-0.5,0.1-0.7
						c0.7-3.5,1.3-6.4,1.3-6.4l12.6-5.5l4.7-2.1c0,0.1-0.4,3.8-0.4,4.4C1283,406.6,1286.5,413.3,1286.5,413.3z"/>
				</g>
				<g>
					<path class="st165" d="M1267.2,410.2c0.3-0.1,16.2-4.8,17.9-4.2c1.7,0.6,2.7,3.9,2.7,3.9l-26.1,5.8
						C1261.8,415.7,1263.8,411.6,1267.2,410.2z"/>
				</g>
				<g>
					<path class="st29" d="M1309.8,517.1c-2.7,12.3-47.6,13.7-59.2,2.5c-1.3-1.3-1.4-7.2-0.9-15.2c1-15.6,4.2-39.1,4.3-51.1
						c0.1-5.8,0.9-11.7,2-17.1c2.3-11.5,5.7-20.5,5.7-20.5s22-7,26.1-5.8C1307.6,415.8,1312.5,504.8,1309.8,517.1z"/>
				</g>
				<g>
					<path class="st165" d="M1249.8,504.4c1-15.6,4.2-39.1,4.3-51.1c0.1-5.8,0.9-11.7,2-17.1l13.2-2.3
						C1269.2,433.9,1283.8,489.8,1249.8,504.4z"/>
				</g>
				<g>
					<path class="st47" d="M1257,482.6c0,0,0.9,2.2-1,3.6c-1.9,1.4-3.1,3.8-2.7,5.5c0.4,1.7,4.6,4.5,6,4.1c1.4-0.4,4.4-2.7,4.1-3.6
						c-0.3-0.9,2-7.9-1.5-10.6C1258.3,478.9,1257,482.6,1257,482.6z"/>
				</g>
				<g>
					<path class="st29" d="M1271.5,413.3c0,0-12.5,1.7-22.8,16.7c-10.3,15.1-17.1,26.3-15.2,31.8c1.9,5.5,19.1,24.4,22,24.4
						c3,0,7.8-2.1,8-7c0,0-10.9-19.3-8.5-22c1-1.2,14.6-12,16.7-6.5C1275.2,459.6,1271.5,413.3,1271.5,413.3z"/>
				</g>
				<g>
					<path class="st63" d="M1283,397c-2.8,4.7-13,8.7-17.3,10.2c0-0.2,0.1-0.5,0.1-0.7c0.7-3.5,1.3-6.4,1.3-6.4l12.6-5.5
						C1282.4,394.5,1284.1,395.1,1283,397z"/>
				</g>
				<g>
					<path class="st47" d="M1262.3,399.3c0,0,20.2,6.4,24-6.3c3.8-12.6,8.9-20.3-3.8-24.9c-12.7-4.6-16.7-0.5-19,3.4
						C1261.2,375.4,1257.2,397.3,1262.3,399.3z"/>
				</g>
				<g>
					<path class="st64" d="M1264.3,370.2c0,0,1.3,14.7,4.3,14.1c3-0.6,5.8-1.1,5.4,3.3c-0.5,4.4-4.7,9.6,4.7,10.4
						c9.4,0.8,22.9-23.4,20.4-27.9C1291.6,356.8,1253.6,354.1,1264.3,370.2z"/>
				</g>
			</g>
			<g>
				<path class="st169" d="M1503.5,694.7h-1087c-0.8,0-1.4-0.6-1.4-1.4v-0.2c0-0.8,0.6-1.4,1.4-1.4h1087c0.8,0,1.4,0.6,1.4,1.4v0.2
					C1504.9,694.1,1504.3,694.7,1503.5,694.7z"/>
			</g>
		</g>
		<g>
			<g>
				<path class="st170" d="M1315.9,817.3H619c-21.1,0-38.1-17.1-38.1-38.1v-6.3c0-21.1,17.1-38.1,38.1-38.1h696.8
					c21.1,0,38.1,17.1,38.1,38.1v6.3C1354,800.2,1336.9,817.3,1315.9,817.3z"/>
				<path class="st171" d="M1315.5,816.8H618.6c-21.1,0-38.1-17.1-38.1-38.1v-6.3c0-21.1,17.1-38.1,38.1-38.1h696.8
					c21.1,0,38.1,17.1,38.1,38.1v6.3C1353.6,799.7,1336.5,816.8,1315.5,816.8z"/>
				<path class="st172" d="M1315.1,816.4H618.3c-21.1,0-38.1-17.1-38.1-38.1V772c0-21.1,17.1-38.1,38.1-38.1h696.8
					c21.1,0,38.1,17.1,38.1,38.1v6.3C1353.2,799.3,1336.1,816.4,1315.1,816.4z"/>
				<path class="st173" d="M1314.7,815.9H617.9c-21.1,0-38.1-17.1-38.1-38.1v-6.3c0-21.1,17.1-38.1,38.1-38.1h696.8
					c21.1,0,38.1,17.1,38.1,38.1v6.3C1352.8,798.9,1335.7,815.9,1314.7,815.9z"/>
				<path class="st174" d="M1314.3,815.5H617.5c-21.1,0-38.1-17.1-38.1-38.1v-6.3c0-21.1,17.1-38.1,38.1-38.1h696.8
					c21.1,0,38.1,17.1,38.1,38.1v6.3C1352.4,798.4,1335.4,815.5,1314.3,815.5z"/>
				<path class="st175" d="M1313.9,815H617.1c-21.1,0-38.1-17.1-38.1-38.1v-6.3c0-21.1,17.1-38.1,38.1-38.1h696.8
					c21.1,0,38.1,17.1,38.1,38.1v6.3C1352,798,1335,815,1313.9,815z"/>
				<path class="st176" d="M1313.5,814.6H616.7c-21.1,0-38.1-17.1-38.1-38.1v-6.3c0-21.1,17.1-38.1,38.1-38.1h696.8
					c21.1,0,38.1,17.1,38.1,38.1v6.3C1351.6,797.5,1334.6,814.6,1313.5,814.6z"/>
				<path class="st177" d="M1313.1,814.1H616.3c-21.1,0-38.1-17.1-38.1-38.1v-6.3c0-21.1,17.1-38.1,38.1-38.1h696.8
					c21.1,0,38.1,17.1,38.1,38.1v6.3C1351.3,797.1,1334.2,814.1,1313.1,814.1z"/>
				<path class="st178" d="M1312.7,813.7H615.9c-21.1,0-38.1-17.1-38.1-38.1v-6.3c0-21.1,17.1-38.1,38.1-38.1h696.8
					c21.1,0,38.1,17.1,38.1,38.1v6.3C1350.9,796.6,1333.8,813.7,1312.7,813.7z"/>
				<path class="st179" d="M1312.3,813.3H615.5c-21.1,0-38.1-17.1-38.1-38.1v-6.3c0-21.1,17.1-38.1,38.1-38.1h696.8
					c21.1,0,38.1,17.1,38.1,38.1v6.3C1350.5,796.2,1333.4,813.3,1312.3,813.3z"/>
				<path class="st180" d="M1311.9,812.8H615.1c-21.1,0-38.1-17.1-38.1-38.1v-6.3c0-21.1,17.1-38.1,38.1-38.1h696.8
					c21.1,0,38.1,17.1,38.1,38.1v6.3C1350.1,795.7,1333,812.8,1311.9,812.8z"/>
				<path class="st181" d="M1311.5,812.4H614.7c-21.1,0-38.1-17.1-38.1-38.1V768c0-21.1,17.1-38.1,38.1-38.1h696.8
					c21.1,0,38.1,17.1,38.1,38.1v6.3C1349.7,795.3,1332.6,812.4,1311.5,812.4z"/>
				<path class="st182" d="M1311.2,811.9H614.3c-21.1,0-38.1-17.1-38.1-38.1v-6.3c0-21.1,17.1-38.1,38.1-38.1h696.8
					c21.1,0,38.1,17.1,38.1,38.1v6.3C1349.3,794.8,1332.2,811.9,1311.2,811.9z"/>
				<path class="st183" d="M1310.8,811.5H613.9c-21.1,0-38.1-17.1-38.1-38.1v-6.3c0-21.1,17.1-38.1,38.1-38.1h696.8
					c21.1,0,38.1,17.1,38.1,38.1v6.3C1348.9,794.4,1331.8,811.5,1310.8,811.5z"/>
				<path class="st184" d="M1310.4,811H613.6c-21.1,0-38.1-17.1-38.1-38.1v-6.3c0-21.1,17.1-38.1,38.1-38.1h696.8
					c21.1,0,38.1,17.1,38.1,38.1v6.3C1348.5,793.9,1331.4,811,1310.4,811z"/>
				<path class="st185" d="M1310,810.6H613.2c-21.1,0-38.1-17.1-38.1-38.1v-6.3c0-21.1,17.1-38.1,38.1-38.1H1310
					c21.1,0,38.1,17.1,38.1,38.1v6.3C1348.1,793.5,1331,810.6,1310,810.6z"/>
				<path class="st186" d="M1309.6,810.1H612.8c-21.1,0-38.1-17.1-38.1-38.1v-6.3c0-21.1,17.1-38.1,38.1-38.1h696.8
					c21.1,0,38.1,17.1,38.1,38.1v6.3C1347.7,793.1,1330.7,810.1,1309.6,810.1z"/>
				<path class="st17" d="M1309.2,809.7H612.4c-21.1,0-38.1-17.1-38.1-38.1v-6.3c0-21.1,17.1-38.1,38.1-38.1h696.8
					c21.1,0,38.1,17.1,38.1,38.1v6.3C1347.3,792.6,1330.3,809.7,1309.2,809.7z"/>
				<path class="st81" d="M1308.8,809.2H612c-21.1,0-38.1-17.1-38.1-38.1v-6.3c0-21.1,17.1-38.1,38.1-38.1h696.8
					c21.1,0,38.1,17.1,38.1,38.1v6.3C1346.9,792.2,1329.9,809.2,1308.8,809.2z"/>
				<path class="st20" d="M1308.4,808.8H611.6c-21.1,0-38.1-17.1-38.1-38.1v-6.3c0-21.1,17.1-38.1,38.1-38.1h696.8
					c21.1,0,38.1,17.1,38.1,38.1v6.3C1346.5,791.7,1329.5,808.8,1308.4,808.8z"/>
			</g>
			<g>
				<path class="st21" d="M670.5,738.7h31.4v7.3H678v12.7h21.3v7.2H678v12.9h24.8v7.2h-32.3V738.7z"/>
				<path class="st21" d="M718.2,786.7c-2.1,0-4.1-0.4-6-1.1c-1.9-0.7-3.5-1.8-4.7-3.3l3.1-4c1.2,1.1,2.4,2,3.6,2.5
					c1.2,0.5,2.3,0.8,3.4,0.8c0.8,0,1.6-0.1,2.2-0.3c0.7-0.2,1.2-0.5,1.6-0.9c0.4-0.5,0.6-1.1,0.6-1.8c0-0.9-0.3-1.5-0.9-2
					c-0.6-0.5-1.4-0.9-2.3-1.2c-1-0.3-2-0.6-3-1c-2.4-0.7-4.2-1.8-5.3-3.3c-1.2-1.4-1.8-3.1-1.8-4.9c0-1.4,0.4-2.8,1.1-4.2
					c0.7-1.3,1.9-2.4,3.4-3.3c1.5-0.8,3.4-1.3,5.7-1.3c2,0,3.8,0.2,5.4,0.7c1.6,0.5,3,1.2,4.4,2.3l-2.8,4.4
					c-0.8-0.7-1.8-1.3-2.8-1.8c-1-0.4-2-0.7-2.9-0.7c-0.8,0-1.5,0.1-2.1,0.3c-0.6,0.3-1.1,0.6-1.5,1c-0.4,0.4-0.6,0.9-0.6,1.5
					c0,0.9,0.2,1.6,0.9,2.1c0.6,0.5,1.4,0.9,2.4,1.2c1,0.3,2,0.6,3,1c1.3,0.4,2.5,0.9,3.5,1.6c1,0.7,1.9,1.5,2.5,2.5
					c0.6,1,0.9,2.2,0.9,3.6c0,1.6-0.4,3.2-1.2,4.6c-0.8,1.5-2.1,2.6-3.7,3.5C722.8,786.2,720.7,786.7,718.2,786.7z"/>
				<path class="st21" d="M752.3,786.8c-2,0-3.8-0.4-5.6-1.2c-1.8-0.8-3.2-2-4.2-3.4l0.4-2.2v19.3h-7.3V758h6.2l1,6.4l-0.7-2
					c1.3-1.5,3-2.7,4.9-3.7c1.9-1,4.1-1.5,6.5-1.5c2.6,0,4.9,0.6,7,1.8c2,1.2,3.7,2.9,4.8,5.1c1.2,2.2,1.8,4.9,1.8,7.9
					c0,3-0.7,5.6-2,7.8c-1.3,2.2-3.1,3.8-5.3,5C757.7,786.2,755.2,786.8,752.3,786.8z M750.9,781c1.6,0,3.1-0.4,4.5-1.1
					c1.3-0.7,2.4-1.8,3.3-3.1c0.8-1.3,1.2-2.8,1.2-4.5c0-1.7-0.4-3.3-1.2-4.6c-0.8-1.3-1.8-2.4-3.1-3.1c-1.3-0.8-2.7-1.1-4.3-1.1
					c-1.4,0-2.6,0.2-3.8,0.7c-1.1,0.5-2.1,1.2-2.9,2c-0.8,0.9-1.4,1.9-1.8,3.1v5.5c0.3,1.2,0.8,2.2,1.5,3.2c0.8,0.9,1.7,1.6,2.8,2.1
					C748.4,780.8,749.6,781,750.9,781z"/>
				<path class="st21" d="M786.2,786.8c-3.2,0-5.9-0.6-8.2-1.9c-2.3-1.3-4.1-3-5.3-5.2c-1.2-2.2-1.8-4.7-1.8-7.6
					c0-2.7,0.7-5.2,2.1-7.4c1.4-2.2,3.3-4,5.6-5.3c2.4-1.3,5-2,7.8-2c3.8,0,6.9,1.1,9.3,3.3c2.4,2.2,4.1,5.3,4.9,9.2l-22.2,7.5
					l-1.7-4.1l17.3-6.2l-1.4,0.8c-0.5-1.3-1.3-2.4-2.3-3.3c-1.1-1-2.6-1.5-4.5-1.5c-1.5,0-2.9,0.4-4,1.1c-1.2,0.7-2.1,1.7-2.8,3
					c-0.7,1.3-1,2.8-1,4.5c0,1.9,0.4,3.5,1.1,4.8c0.7,1.3,1.7,2.3,3,3.1c1.3,0.7,2.7,1.1,4.3,1.1c1.1,0,2.2-0.2,3.3-0.6
					c1-0.4,2-0.9,2.9-1.6l3.3,5.4c-1.5,0.9-3.1,1.6-4.7,2.2C789.5,786.5,787.8,786.8,786.2,786.8z"/>
				<path class="st21" d="M812.5,758.6l0.7,7.8l-0.3-1.2c0.7-1.6,1.8-3,3.2-4.2c1.4-1.1,2.8-2,4.2-2.7c1.4-0.6,2.6-1,3.6-1l-0.4,7.3
					c-2-0.2-3.8,0.2-5.4,1.1c-1.5,0.9-2.7,2.1-3.6,3.7c-0.8,1.5-1.3,3.2-1.3,4.8v11.8H806v-27.5H812.5z"/>
				<path class="st21" d="M841.3,786.8c-3.2,0-5.9-0.6-8.2-1.9c-2.3-1.3-4.1-3-5.3-5.2c-1.2-2.2-1.8-4.7-1.8-7.6
					c0-2.7,0.7-5.2,2.1-7.4c1.4-2.2,3.3-4,5.6-5.3c2.4-1.3,5-2,7.8-2c3.8,0,6.9,1.1,9.3,3.3c2.4,2.2,4.1,5.3,4.9,9.2l-22.2,7.5
					l-1.7-4.1l17.3-6.2l-1.4,0.8c-0.5-1.3-1.3-2.4-2.3-3.3c-1.1-1-2.6-1.5-4.5-1.5c-1.5,0-2.9,0.4-4,1.1c-1.2,0.7-2.1,1.7-2.8,3
					c-0.7,1.3-1,2.8-1,4.5c0,1.9,0.4,3.5,1.1,4.8c0.7,1.3,1.7,2.3,3,3.1c1.3,0.7,2.7,1.1,4.3,1.1c1.1,0,2.2-0.2,3.3-0.6
					c1-0.4,2-0.9,2.9-1.6l3.3,5.4c-1.5,0.9-3.1,1.6-4.7,2.2C844.5,786.5,842.9,786.8,841.3,786.8z"/>
				<path class="st21" d="M888.8,787.2c-2.5,0-4.5-0.8-6.2-2.3c-1.6-1.5-2.5-3.5-2.6-5.9v-20.5h7.3v17.8c0.1,1.4,0.5,2.5,1.2,3.4
					c0.7,0.9,1.8,1.3,3.3,1.4c1.4,0,2.7-0.5,3.8-1.4c1.1-0.9,2-2.1,2.6-3.7s1-3.3,1-5.3v-12.2h7.3v27.5h-6.6l-0.6-6l0.2,0.9
					c-0.6,1.3-1.4,2.4-2.4,3.3c-1,1-2.3,1.7-3.6,2.2C892.1,787,890.6,787.2,888.8,787.2z"/>
				<path class="st21" d="M921.3,758.6l0.7,5.9l-0.3-0.8c0.9-1.9,2.3-3.4,4.2-4.6c1.9-1.1,4.2-1.7,6.8-1.7c2.6,0,4.7,0.8,6.4,2.3
					c1.7,1.5,2.6,3.5,2.6,5.9v20.5h-7.3v-17.8c0-1.4-0.4-2.5-1.2-3.3c-0.7-0.8-1.9-1.3-3.5-1.3c-1.5,0-2.8,0.4-4,1.3
					c-1.2,0.9-2.1,2.1-2.8,3.6c-0.7,1.5-1,3.3-1,5.4v12.2h-7.3v-27.5H921.3z"/>
				<path class="st21" d="M975.4,758.6l0.6,5.6l-0.2-0.5c1-2,2.5-3.6,4.3-4.7c1.8-1.1,3.9-1.7,6.2-1.7c1.6,0,2.9,0.2,4.1,0.7
					s2.2,1.1,3,2c0.8,0.9,1.3,2,1.5,3.3l-0.3,0.2c1.1-1.9,2.6-3.4,4.4-4.5c1.8-1.1,3.7-1.7,5.7-1.7c2.7,0,4.9,0.8,6.4,2.3
					c1.6,1.5,2.4,3.5,2.5,6v20.5h-7.2v-17.6c0-1.3-0.3-2.5-0.9-3.3c-0.5-0.9-1.5-1.4-2.9-1.5c-1.6,0-2.9,0.5-4.1,1.5
					c-1.1,1-2,2.2-2.6,3.8c-0.6,1.5-0.9,3.2-0.9,4.8v12.4h-7.3v-17.6c0-1.3-0.3-2.5-0.9-3.3c-0.5-0.9-1.5-1.4-3-1.5
					c-1.5,0-2.8,0.5-4,1.5c-1.1,1-2,2.2-2.6,3.8c-0.6,1.5-0.9,3.2-0.9,4.9v12.3h-7.3v-27.5H975.4z"/>
				<path class="st21" d="M1019.4,772c0-2.8,0.7-5.3,2-7.5c1.3-2.2,3.2-4,5.5-5.3c2.3-1.3,5-1.9,8.1-1.9c3,0,5.6,0.6,7.9,1.9
					c2.3,1.3,4.1,3,5.3,5.2c1.3,2.2,1.9,4.7,1.9,7.5c0,2.8-0.6,5.3-1.9,7.6c-1.3,2.2-3.1,4-5.3,5.3c-2.3,1.3-5,2-8.1,2
					c-2.9,0-5.6-0.6-7.9-1.8c-2.3-1.2-4.1-2.9-5.5-5.1C1020.1,777.7,1019.4,775.1,1019.4,772z M1026.7,772.1c0,1.6,0.4,3.1,1.1,4.5
					c0.7,1.3,1.7,2.4,2.9,3.1c1.2,0.8,2.5,1.1,4.1,1.1c1.6,0,3-0.4,4.2-1.1c1.2-0.8,2.1-1.8,2.8-3.1c0.7-1.3,1-2.8,1-4.5
					c0-1.6-0.3-3.1-1-4.4c-0.7-1.3-1.6-2.4-2.8-3.2c-1.2-0.8-2.6-1.2-4.1-1.2c-1.6,0-2.9,0.4-4.1,1.2s-2.1,1.8-2.9,3.2
					C1027,769,1026.7,770.4,1026.7,772.1z"/>
				<path class="st21" d="M1062.5,758.6l0.6,5.6l-0.2-0.5c1-2,2.5-3.6,4.3-4.7c1.8-1.1,3.9-1.7,6.2-1.7c1.6,0,2.9,0.2,4.1,0.7
					s2.2,1.1,3,2c0.8,0.9,1.3,2,1.5,3.3l-0.3,0.2c1.1-1.9,2.6-3.4,4.4-4.5c1.8-1.1,3.7-1.7,5.7-1.7c2.7,0,4.9,0.8,6.4,2.3
					c1.6,1.5,2.4,3.5,2.5,6v20.5h-7.2v-17.6c0-1.3-0.3-2.5-0.9-3.3c-0.5-0.9-1.5-1.4-2.9-1.5c-1.6,0-2.9,0.5-4.1,1.5
					c-1.1,1-2,2.2-2.6,3.8c-0.6,1.5-0.9,3.2-0.9,4.8v12.4h-7.3v-17.6c0-1.3-0.3-2.5-0.9-3.3c-0.5-0.9-1.5-1.4-3-1.5
					c-1.5,0-2.8,0.5-4,1.5c-1.1,1-2,2.2-2.6,3.8c-0.6,1.5-0.9,3.2-0.9,4.9v12.3h-7.3v-27.5H1062.5z"/>
				<path class="st21" d="M1121.8,786.8c-3.2,0-5.9-0.6-8.2-1.9c-2.3-1.3-4.1-3-5.3-5.2c-1.2-2.2-1.8-4.7-1.8-7.6
					c0-2.7,0.7-5.2,2.1-7.4c1.4-2.2,3.3-4,5.6-5.3c2.4-1.3,5-2,7.8-2c3.8,0,6.9,1.1,9.3,3.3c2.4,2.2,4.1,5.3,4.9,9.2l-22.2,7.5
					l-1.7-4.1l17.3-6.2l-1.4,0.8c-0.5-1.3-1.3-2.4-2.3-3.3c-1.1-1-2.6-1.5-4.5-1.5c-1.5,0-2.9,0.4-4,1.1c-1.2,0.7-2.1,1.7-2.8,3
					c-0.7,1.3-1,2.8-1,4.5c0,1.9,0.4,3.5,1.1,4.8c0.7,1.3,1.7,2.3,3,3.1c1.3,0.7,2.7,1.1,4.3,1.1c1.1,0,2.2-0.2,3.3-0.6
					c1-0.4,2-0.9,2.9-1.6l3.3,5.4c-1.5,0.9-3.1,1.6-4.7,2.2C1125.1,786.5,1123.4,786.8,1121.8,786.8z"/>
				<path class="st21" d="M1148.1,758.6l0.7,5.9l-0.3-0.8c0.9-1.9,2.3-3.4,4.2-4.6c1.9-1.1,4.2-1.7,6.8-1.7c2.6,0,4.7,0.8,6.4,2.3
					c1.7,1.5,2.6,3.5,2.6,5.9v20.5h-7.3v-17.8c0-1.4-0.4-2.5-1.2-3.3c-0.7-0.8-1.9-1.3-3.5-1.3c-1.5,0-2.8,0.4-4,1.3
					c-1.2,0.9-2.1,2.1-2.8,3.6c-0.7,1.5-1,3.3-1,5.4v12.2h-7.3v-27.5H1148.1z"/>
				<path class="st21" d="M1179.4,746.5h7.3v12.1h7.2v5.7h-7.2v21.8h-7.3v-21.8h-4.7v-5.7h4.7V746.5z"/>
				<path class="st21" d="M1196.9,772c0-2.8,0.7-5.3,2-7.5c1.3-2.2,3.2-4,5.5-5.3c2.3-1.3,5-1.9,8.1-1.9c3,0,5.6,0.6,7.9,1.9
					c2.3,1.3,4.1,3,5.3,5.2c1.3,2.2,1.9,4.7,1.9,7.5c0,2.8-0.6,5.3-1.9,7.6c-1.3,2.2-3.1,4-5.3,5.3c-2.3,1.3-5,2-8.1,2
					c-2.9,0-5.6-0.6-7.9-1.8c-2.3-1.2-4.1-2.9-5.5-5.1C1197.6,777.7,1196.9,775.1,1196.9,772z M1204.2,772.1c0,1.6,0.4,3.1,1.1,4.5
					c0.7,1.3,1.7,2.4,2.9,3.1c1.2,0.8,2.5,1.1,4.1,1.1c1.6,0,3-0.4,4.2-1.1c1.2-0.8,2.1-1.8,2.8-3.1c0.7-1.3,1-2.8,1-4.5
					c0-1.6-0.3-3.1-1-4.4c-0.7-1.3-1.6-2.4-2.8-3.2c-1.2-0.8-2.6-1.2-4.1-1.2c-1.6,0-2.9,0.4-4.1,1.2s-2.1,1.8-2.9,3.2
					C1204.6,769,1204.2,770.4,1204.2,772.1z"/>
				<path class="st21" d="M1231.4,779.3c0.8-0.8,1.7-1.1,2.7-1.1c0.9,0,1.8,0.4,2.6,1.1c0.8,0.8,1.2,1.7,1.2,2.8
					c0,1.2-0.4,2.2-1.2,2.9c-0.8,0.7-1.7,1.1-2.6,1.1c-1,0-1.8-0.4-2.7-1.1c-0.8-0.7-1.2-1.7-1.2-2.9
					C1230.2,781,1230.6,780,1231.4,779.3z"/>
				<path class="st21" d="M1240.7,779.3c0.8-0.8,1.7-1.1,2.7-1.1c0.9,0,1.8,0.4,2.6,1.1c0.8,0.8,1.2,1.7,1.2,2.8
					c0,1.2-0.4,2.2-1.2,2.9c-0.8,0.7-1.7,1.1-2.6,1.1c-1,0-1.8-0.4-2.7-1.1c-0.8-0.7-1.2-1.7-1.2-2.9
					C1239.4,781,1239.9,780,1240.7,779.3z"/>
				<path class="st21" d="M1249.9,779.3c0.8-0.8,1.7-1.1,2.7-1.1c0.9,0,1.8,0.4,2.6,1.1c0.8,0.8,1.2,1.7,1.2,2.8
					c0,1.2-0.4,2.2-1.2,2.9c-0.8,0.7-1.7,1.1-2.6,1.1c-1,0-1.8-0.4-2.7-1.1c-0.8-0.7-1.2-1.7-1.2-2.9
					C1248.7,781,1249.1,780,1249.9,779.3z"/>
				<path class="st21" d="M1259.1,779.3c0.8-0.8,1.7-1.1,2.7-1.1c0.9,0,1.8,0.4,2.6,1.1c0.8,0.8,1.2,1.7,1.2,2.8
					c0,1.2-0.4,2.2-1.2,2.9c-0.8,0.7-1.7,1.1-2.6,1.1c-1,0-1.8-0.4-2.7-1.1c-0.8-0.7-1.2-1.7-1.2-2.9
					C1257.9,781,1258.3,780,1259.1,779.3z"/>
			</g>
		</g>
	</g>
</g>
</svg>
