<svg xmlns="http://www.w3.org/2000/svg" width="1024.869" height="680.095" viewBox="0 0 1024.869 680.095">
  <g id="Grupo_312" data-name="Grupo 312" transform="translate(0 -34.673)">
    <g id="Grupo_309" data-name="Grupo 309" transform="translate(0 34.673)">
      <g id="Grupo_197" data-name="Grupo 197" transform="translate(8.775)">
        <path id="Trazado_254" data-name="Trazado 254" d="M8735.131,2418.616s-70.882-107.237,6.314-233.406,180.878-62.719,175.86-209.567,214.275-161.091,291.771-118.511,145.92,18.187,238.48,21.158c150.121,4.817,192.145,152.942,150.523,225.028-59.053,102.279,185,114.306,44.516,315.3Z" transform="translate(-8705.419 -1836.172)" fill="#e8f2fa"/>
      </g>
      <g id="Grupo_198" data-name="Grupo 198" transform="translate(155.07 289.219)" opacity="0.3">
        <path id="Trazado_255" data-name="Trazado 255" d="M8861.78,2205.836c-6.978-25.592,34.333-40.558,34.333-40.558s47.98,23.794,55.881,20.394-37.049-28.354-37.049-28.354c13.45-9.749,60.052-13.6,60.052-13.6s24.158,46.433,30.979,41.193-23.488-40.022-23.488-40.022c16.231-3.959,38.562,4.583,38.562,4.583,31.488,16.773,8.325,56.342,8.325,56.342s8.72,15.912,28.909,28.183h0a61.785,61.785,0,0,1,9.645,6.363l-3.764,2.208q-1.348-1.243-2.734-2.321a.028.028,0,0,0-.017-.012l-.04-.031c-.6-.43-1.455-1.04-2.509-1.777l0,0-.006,0c-2.47-1.576-4.223-2.782-5.418-3.694l-.011-.009c-7.59-5.042-17.952-11.334-22.395-11.323a8.463,8.463,0,0,0-.208-2.2c.067.7.136,1.432.208,2.2,1.659,17.581-29.193,38.779-49.295,45.627s-15.25-2.8-10.408-16.684,26.352-23.6,30.443-30.326-6.541-4.821-17.962,3.118-10.383,23.41-28.623,36.59-54.29-14.525-54.29-14.525c15.771-3.688,35.372-25.088,33.594-30.228s-36.933,16.108-43.264,17.967S8868.759,2231.427,8861.78,2205.836Z" transform="translate(-8860.986 -2143.723)" fill="#acbfe3"/>
      </g>
      <g id="Grupo_199" data-name="Grupo 199" transform="translate(583.82 364.817)">
        <path id="Trazado_256" data-name="Trazado 256" d="M9579.938,2398.889c25.662-24.922-12.029-70.647-12.029-70.647s-72.031-5.3-78.87-14.667,62.469-7.5,62.469-7.5c-8.927-20.548-60.39-56.993-60.39-56.993s-59.909,37.331-64.232,26.567,54.731-30.347,54.731-30.347c-16.126-15.735-47.911-21.14-47.911-21.14-48.068-2.136-48.329,59.7-48.329,59.7s-21.041,12.49-52.9,12.883h0a83.164,83.164,0,0,0-15.563.769l2.854,5.145q2.418-.518,4.769-.818a.031.031,0,0,1,.028,0l.067-.009c.99-.088,2.4-.209,4.131-.342h.016c3.948-.135,6.811-.333,8.824-.571l.018,0c12.272-.646,28.622-.84,33.771,2.222a11.4,11.4,0,0,1,1.75-2.41q-.836,1.154-1.75,2.41c-13.99,19.272,7.283,65.055,25.921,86.8s19.627,7.213,23.533-12.227-14.4-45.479-14.535-56.1,10.9-1.109,18.713,15.946-4.011,34.3,8.123,62.12,73,20.393,73,20.393c-15.778-15.1-23.852-53.4-18.258-58.147s31.823,44.043,37.9,50.546S9554.275,2423.812,9579.938,2398.889Z" transform="translate(-9316.91 -2224.112)" fill="#ddeaf8"/>
      </g>
      <g id="Grupo_202" data-name="Grupo 202" transform="translate(205.823 233.414)">
        <g id="Grupo_200" data-name="Grupo 200" transform="translate(22.387)" opacity="0.5">
          <path id="Trazado_257" data-name="Trazado 257" d="M9014.026,2126.552s-32.782-34.15-68.9-42.043a5.257,5.257,0,0,0-5.224,8.395l.156.194C8945.357,2099.6,8988.184,2111.606,9014.026,2126.552Z" transform="translate(-8938.761 -2084.38)" fill="#c2dbf3"/>
        </g>
        <g id="Grupo_201" data-name="Grupo 201" transform="translate(0 22.304)" opacity="0.5">
          <path id="Trazado_258" data-name="Trazado 258" d="M9023.047,2136.947s-54.536-32.456-102.91-28.518a5.576,5.576,0,0,0-5.176,5.694c.084,1.925,1.187,4.2,4.5,6.558C8928.289,2126.965,8985.735,2127.208,9023.047,2136.947Z" transform="translate(-8914.956 -2108.098)" fill="#c2dbf3"/>
        </g>
      </g>
      <g id="Grupo_205" data-name="Grupo 205" transform="translate(694.479 281.141)" opacity="0.5">
        <g id="Grupo_203" data-name="Grupo 203" transform="translate(3.602)" opacity="0.5">
          <path id="Trazado_259" data-name="Trazado 259" d="M9438.413,2213.717s7.783-48.662,34-76.842a5.473,5.473,0,0,1,9.448,4.082c-.006.085-.013.171-.019.258C9481.168,2149.925,9451.654,2185.6,9438.413,2213.717Z" transform="translate(-9438.413 -2135.133)" fill="#acbfe3"/>
        </g>
        <g id="Grupo_204" data-name="Grupo 204" transform="translate(0 6.21)" opacity="0.5">
          <path id="Trazado_260" data-name="Trazado 260" d="M9434.583,2227.987s27.4-60.12,71.115-85.45a5.8,5.8,0,0,1,7.8,1.8c1.07,1.7,1.478,4.3.043,8.28C9509.721,2163.231,9460.723,2197.52,9434.583,2227.987Z" transform="translate(-9434.583 -2141.737)" fill="#acbfe3"/>
        </g>
      </g>
      <g id="Grupo_206" data-name="Grupo 206" transform="translate(465.651 113.011)" opacity="0.2">
        <path id="Trazado_261" data-name="Trazado 261" d="M9199.508,2091.277l19.088-2.1a4.253,4.253,0,0,1,4,1.929q1.649,2.576,3.536,5.05a71.433,71.433,0,0,0,7.532,8.458,4.2,4.2,0,0,1,1.023,4.623l-7.372,18.666a4.122,4.122,0,0,0,2.018,5.234l16.418,8.19a4.076,4.076,0,0,0,5.23-1.434l9.985-15.549a4.092,4.092,0,0,1,4.587-1.76,74.185,74.185,0,0,0,23.27,2.383,4.227,4.227,0,0,1,4.224,2.945l3.338,10.735a4.269,4.269,0,0,0,4.844,2.894l17.865-3.56a3.7,3.7,0,0,0,1.031-.34,4.1,4.1,0,0,0,2.3-4.175l-1.549-14.261-.385-3.475a73.526,73.526,0,0,0,8.675-5.694,74.519,74.519,0,0,0,10.187-9.378,4.091,4.091,0,0,1,4.571-1.089l15.029,5.955a4.242,4.242,0,0,0,5.36-2.06l6.264-12.551,1.784-3.6a4.3,4.3,0,0,0-1.511-5.54l-12.988-8.355a4.088,4.088,0,0,1-1.821-4.461,73.544,73.544,0,0,0,2.027-15.618,12.845,12.845,0,0,0,.043-1.324,2.326,2.326,0,0,1,.03-.445,4.187,4.187,0,0,1,2.964-3.578l17.416-5.459a3.048,3.048,0,0,0,.569-.223,4.26,4.26,0,0,0,2.31-4.607l-3.522-17.816a4.238,4.238,0,0,0-4.612-3.385l-19.908,2.194a4.1,4.1,0,0,1-4.1-2.167,74.867,74.867,0,0,0-6.2-9.551q-1.869-2.449-3.9-4.7a4.315,4.315,0,0,1-.8-4.473l7.079-17.944a4.12,4.12,0,0,0-1.99-5.2l-16.254-8.077a4.306,4.306,0,0,0-5.559,1.525l-7.9,12.3a4.228,4.228,0,0,1-4.927,1.729,74,74,0,0,0-22.441-4.1,4.2,4.2,0,0,1-3.95-2.969l-4.913-15.7a4.349,4.349,0,0,0-4.97-2.956l-17.752,3.5a4.156,4.156,0,0,0-3.332,4.544l.082.833,1.807,16.568a4.247,4.247,0,0,1-2.308,4.264l-.017.013a73.539,73.539,0,0,0-11.027,6.962c-1.883,1.436-3.656,2.946-5.378,4.524a4.167,4.167,0,0,1-4.389.844l-15.257-6.045a4.311,4.311,0,0,0-5.451,2.076l-8.055,16.183a4.648,4.648,0,0,0-.415,1.424,4.293,4.293,0,0,0,1.909,4.024l10.394,6.646a4.289,4.289,0,0,1,1.933,3.744,4.51,4.51,0,0,1-.218,1.166,73.739,73.739,0,0,0-3.828,28.905,4.153,4.153,0,0,1-2.24,3.974,4.205,4.205,0,0,1-.664.269l-14.107,4.41a4.221,4.221,0,0,0-2.877,4.83l.079.415,3.418,17.367A4.3,4.3,0,0,0,9199.508,2091.277Zm122.234-53.842a49.413,49.413,0,0,1,2.565,8.822c1.15,6-.093,15.46-2.817,20.939-.288.589-.59,1.161-.892,1.733-18.77,34.609-67.692,27.576-75.643-11.554-1.03-5.117-.357-12.561,1.487-18.262a26.237,26.237,0,0,1,1.469-3.6,45.589,45.589,0,0,1,9.144-12.508C9277.212,2003.756,9310.775,2010.172,9321.742,2037.434Z" transform="translate(-9191.251 -1956.346)" fill="#8db0dd"/>
      </g>
      <g id="Grupo_207" data-name="Grupo 207" transform="translate(710.3 132.89)">
        <path id="Trazado_262" data-name="Trazado 262" d="M9456.534,2061.276l11.854-1.3a2.647,2.647,0,0,1,2.485,1.2q1.024,1.6,2.2,3.136a44.475,44.475,0,0,0,4.678,5.253,2.608,2.608,0,0,1,.635,2.87l-4.577,11.591a2.56,2.56,0,0,0,1.252,3.251l10.2,5.086a2.532,2.532,0,0,0,3.247-.891l6.2-9.656a2.541,2.541,0,0,1,2.848-1.093A46.069,46.069,0,0,0,9512,2082.2a2.624,2.624,0,0,1,2.621,1.829l2.074,6.667a2.651,2.651,0,0,0,3.008,1.8l11.094-2.212a2.3,2.3,0,0,0,.641-.211,2.542,2.542,0,0,0,1.427-2.593l-.963-8.856-.239-2.158a45.525,45.525,0,0,0,5.388-3.536,46.176,46.176,0,0,0,6.325-5.824,2.541,2.541,0,0,1,2.839-.676l9.335,3.7a2.635,2.635,0,0,0,3.328-1.279l3.89-7.795,1.108-2.237a2.67,2.67,0,0,0-.938-3.441l-8.066-5.188a2.538,2.538,0,0,1-1.131-2.77,45.793,45.793,0,0,0,1.26-9.7c.028-.284.025-.544.026-.823a1.29,1.29,0,0,1,.02-.275,2.6,2.6,0,0,1,1.839-2.222l10.816-3.39a2.006,2.006,0,0,0,.354-.138,2.647,2.647,0,0,0,1.434-2.862l-2.187-11.063a2.632,2.632,0,0,0-2.865-2.1l-12.361,1.363a2.544,2.544,0,0,1-2.549-1.346,46.493,46.493,0,0,0-3.853-5.931q-1.16-1.521-2.421-2.915a2.679,2.679,0,0,1-.5-2.778l4.4-11.143a2.558,2.558,0,0,0-1.235-3.23l-10.094-5.016a2.674,2.674,0,0,0-3.451.947l-4.908,7.639a2.627,2.627,0,0,1-3.06,1.074,45.949,45.949,0,0,0-13.937-2.544,2.611,2.611,0,0,1-2.452-1.843l-3.052-9.75a2.7,2.7,0,0,0-3.085-1.836l-11.025,2.174a2.581,2.581,0,0,0-2.068,2.822l.051.517,1.122,10.289a2.64,2.64,0,0,1-1.433,2.648l-.011.007a45.715,45.715,0,0,0-6.848,4.324c-1.169.891-2.271,1.829-3.34,2.809a2.587,2.587,0,0,1-2.727.524l-9.475-3.753a2.676,2.676,0,0,0-3.385,1.289l-5,10.05a2.932,2.932,0,0,0-.258.884,2.666,2.666,0,0,0,1.186,2.5l6.454,4.127a2.665,2.665,0,0,1,1.2,2.325,2.821,2.821,0,0,1-.135.724,45.779,45.779,0,0,0-2.378,17.95,2.579,2.579,0,0,1-1.39,2.468,2.813,2.813,0,0,1-.413.167l-8.761,2.739a2.621,2.621,0,0,0-1.787,3l.049.257,2.122,10.785A2.668,2.668,0,0,0,9456.534,2061.276Zm75.907-33.436a30.622,30.622,0,0,1,1.593,5.478,24.077,24.077,0,0,1-1.75,13c-.179.366-.365.721-.553,1.077-11.656,21.492-42.038,17.125-46.974-7.175a24.952,24.952,0,0,1,.923-11.341,16.111,16.111,0,0,1,.914-2.234,28.262,28.262,0,0,1,5.677-7.768A24.7,24.7,0,0,1,9532.441,2027.84Z" transform="translate(-9451.407 -1977.485)" fill="#bbce00"/>
      </g>
      <g id="Grupo_208" data-name="Grupo 208" transform="translate(639.477 77.967)">
        <path id="Trazado_263" data-name="Trazado 263" d="M9382.93,1985.392l8.1-2.716a1.888,1.888,0,0,1,1.92.46q.961.964,2.015,1.859a31.76,31.76,0,0,0,4.073,2.963,1.865,1.865,0,0,1,.881,1.911l-1.437,8.808a1.834,1.834,0,0,0,1.37,2.084l7.908,2a1.813,1.813,0,0,0,2.138-1.118l2.868-7.7a1.819,1.819,0,0,1,1.827-1.2,33.009,33.009,0,0,0,10.335-1.165,1.877,1.877,0,0,1,2.113.88l2.466,4.348a1.9,1.9,0,0,0,2.378.8l7.426-3.238a1.672,1.672,0,0,0,.416-.245,1.821,1.821,0,0,0,.6-2.031l-2.022-6.05-.5-1.473a33.04,33.04,0,0,0,6.769-8.333,1.819,1.819,0,0,1,1.884-.906l7.094,1.165a1.886,1.886,0,0,0,2.134-1.4l1.533-6.046.436-1.734a1.911,1.911,0,0,0-1.181-2.265l-6.434-2.4a1.817,1.817,0,0,1-1.213-1.766,32.744,32.744,0,0,0-.6-6.978c-.022-.2-.063-.385-.1-.579a.84.84,0,0,1-.029-.2,1.86,1.86,0,0,1,.948-1.835l7.051-4.02a1.347,1.347,0,0,0,.227-.15,1.894,1.894,0,0,0,.567-2.22l-3.215-7.407a1.886,1.886,0,0,0-2.325-1.035l-8.443,2.836a1.821,1.821,0,0,1-1.987-.553,33.124,33.124,0,0,0-3.6-3.562q-1.043-.889-2.138-1.672a1.919,1.919,0,0,1-.771-1.868l1.378-8.466a1.832,1.832,0,0,0-1.357-2.072l-7.826-1.972a1.913,1.913,0,0,0-2.269,1.188l-2.271,6.093a1.881,1.881,0,0,1-1.978,1.217,32.885,32.885,0,0,0-10.138.343,1.869,1.869,0,0,1-2-.916l-3.619-6.357a1.934,1.934,0,0,0-2.439-.814l-7.383,3.2a1.849,1.849,0,0,0-1.018,2.29l.115.354,2.352,7.028a1.886,1.886,0,0,1-.6,2.071l0,.007a32.725,32.725,0,0,0-4.134,4.068c-.682.8-1.309,1.626-1.907,2.474a1.856,1.856,0,0,1-1.828.782l-7.2-1.183a1.916,1.916,0,0,0-2.172,1.417l-1.969,7.793a2.052,2.052,0,0,0-.047.658,1.912,1.912,0,0,0,1.211,1.568l5.145,1.9a1.908,1.908,0,0,1,1.193,1.443,2.064,2.064,0,0,1,.017.528,32.782,32.782,0,0,0,1.07,12.921,1.847,1.847,0,0,1-.6,1.938,1.927,1.927,0,0,1-.264.181l-5.712,3.25a1.875,1.875,0,0,0-.794,2.371l.073.173,3.128,7.222A1.909,1.909,0,0,0,9382.93,1985.392Zm48.017-34.956a21.874,21.874,0,0,1,1.949,3.59,17.241,17.241,0,0,1,.756,9.364c-.069.283-.146.561-.224.838-4.881,16.813-26.8,18.384-33.958,2.135a17.9,17.9,0,0,1-1.082-8.075,11.6,11.6,0,0,1,.3-1.7,20.226,20.226,0,0,1,2.789-6.3A17.687,17.687,0,0,1,9430.946,1950.437Z" transform="translate(-9376.094 -1919.081)" fill="#f18e37"/>
      </g>
      <g id="Grupo_209" data-name="Grupo 209" transform="translate(63.889 542.999)">
        <path id="Trazado_264" data-name="Trazado 264" d="M8765.763,2452.326h34.9c1.87-1.586-1.294-5.189-4.6-5.432a20.418,20.418,0,0,0-5.327.631c-.479-6.38-3.223-35.057-13.56-33.9-11.622,1.29,0,12.629,3.285,19.342a159.71,159.71,0,0,1,6.176,15.468c-.944.205-1.921.406-2.919.589-1.541-4.73-7.272-20.641-14.562-19.713-8.559,1.085-5.119,7.465.948,11.251,4.449,2.784,9.914,6.743,12.512,8.654a37.14,37.14,0,0,1-6.826.547C8769.812,2449.616,8766.894,2451.378,8765.763,2452.326Z" transform="translate(-8764.026 -2413.587)" fill="#9ccc98"/>
      </g>
      <g id="Grupo_210" data-name="Grupo 210" transform="translate(881.455 537.085)">
        <path id="Trazado_265" data-name="Trazado 265" d="M9673.506,2451.1h-39.465c-2.115-1.794,1.463-5.868,5.2-6.143a23.079,23.079,0,0,1,6.022.714c.543-7.214,3.646-39.641,15.334-38.338,13.143,1.458,0,14.28-3.716,21.871a181.091,181.091,0,0,0-6.981,17.491c1.066.231,2.171.458,3.3.666,1.741-5.349,8.224-23.341,16.466-22.292,9.678,1.227,5.788,8.441-1.071,12.723-5.032,3.148-11.212,7.624-14.148,9.787a42.036,42.036,0,0,0,7.719.618C9668.928,2448.04,9672.228,2450.031,9673.506,2451.1Z" transform="translate(-9633.41 -2407.298)" fill="#9ccc98"/>
      </g>
      <g id="Grupo_237" data-name="Grupo 237" transform="translate(276.39 216.666)">
        <g id="Grupo_222" data-name="Grupo 222">
          <g id="Grupo_211" data-name="Grupo 211" transform="translate(188.045 121.369)">
            <path id="Trazado_266" data-name="Trazado 266" d="M9209.206,2197.78l-19.09,226.984s-2,13.76,8.234,13.784c16.829.04,83.759,0,83.759,0s-12.665-2.865-12.513-9.309c.181-7.6,22.313-233.607,22.313-233.607Z" transform="translate(-9189.958 -2195.632)" fill="#e5690b"/>
          </g>
          <g id="Grupo_212" data-name="Grupo 212" transform="translate(193.546 117.251)">
            <path id="Trazado_267" data-name="Trazado 267" d="M9288.759,2434.26c-3.31.009-68.107.119-84.494-.092-7.143-.088-8.394-6.349-8.454-10.4a20.335,20.335,0,0,1,.217-3.379l.5-5.9,1.266-15.037,1.116-13.284,1.437-17.072,1.21-14.408,13.563-161.288,82.7-2.146s-9.321,94.584-15.914,163.434c-.737,7.671-1.437,15.026-2.084,21.892q-.316,3.288-.608,6.422c-.611,6.514-1.17,12.5-1.656,17.778-.257,2.784-.493,5.37-.706,7.74-.843,9.284-1.335,15.214-1.342,16.34a9.562,9.562,0,0,0,.161,1.838C9277.028,2433.933,9287.516,2434.26,9288.759,2434.26Z" transform="translate(-9195.809 -2191.253)" fill="#f18e37"/>
          </g>
          <g id="Grupo_213" data-name="Grupo 213" transform="translate(6.445 0)">
            <path id="Trazado_268" data-name="Trazado 268" d="M8996.849,2066.571l46.5,186.78,6.366,25.58,21.657,87h402.359l-79.825-299.357Z" transform="translate(-8996.849 -2066.571)" fill="#f18e37"/>
          </g>
          <g id="Grupo_214" data-name="Grupo 214">
            <path id="Trazado_269" data-name="Trazado 269" d="M8996.439,2066.571l-6.444,2.148,72.4,303.707,8.568-6.5Z" transform="translate(-8989.995 -2066.571)" fill="#e5690b"/>
          </g>
          <g id="Grupo_215" data-name="Grupo 215" transform="translate(72.401 299.358)">
            <path id="Trazado_270" data-name="Trazado 270" d="M9066.985,2391.4h399.883l11.042-6.5H9075.554Z" transform="translate(-9066.985 -2384.903)" fill="#ed750f"/>
          </g>
          <g id="Grupo_216" data-name="Grupo 216" transform="translate(212.828 360.257)">
            <rect id="Rectángulo_67" data-name="Rectángulo 67" width="86.581" height="4.114" transform="translate(86.581 4.114) rotate(180)" fill="#f18e37"/>
          </g>
          <g id="Grupo_217" data-name="Grupo 217" transform="translate(195.527 305.854)">
            <path id="Trazado_271" data-name="Trazado 271" d="M9279.787,2391.811l-.447,3.146-81.425,16.449,1.117-13.285.533-6.31Z" transform="translate(-9197.915 -2391.811)" fill="#ec6c05"/>
          </g>
          <g id="Grupo_218" data-name="Grupo 218" transform="translate(193.549 334.518)" opacity="0.5">
            <path id="Trazado_272" data-name="Trazado 272" d="M9288.76,2448.031c-3.31.009-68.107.119-84.494-.092-7.143-.088-8.394-6.349-8.454-10.4l81.041-15.247c-.843,9.284-1.335,15.214-1.342,16.34a9.562,9.562,0,0,0,.161,1.838C9277.029,2447.7,9287.517,2448.031,9288.76,2448.031Z" transform="translate(-9195.812 -2422.291)" fill="#ed750f"/>
          </g>
          <g id="Grupo_219" data-name="Grupo 219" transform="translate(6.444)">
            <path id="Trazado_273" data-name="Trazado 273" d="M8996.848,2066.571h397.058l64.424,240.589H9056.743Z" transform="translate(-8996.848 -2066.571)" fill="#ed750f"/>
          </g>
          <g id="Grupo_220" data-name="Grupo 220" transform="translate(22.89 12.888)">
            <path id="Trazado_274" data-name="Trazado 274" d="M9440.643,2297.551H9068.876l-13.284-52.923-5.14-20.478-2.1-8.351-13.654-54.387-.707-2.831-7.219-28.749-3.229-12.863L9020.794,2106l-6.458-25.722h366.408l7.092,25.722,3.022,10.973,3.547,12.863,23.361,84.743v0l1.98,7.179.921,3.333,16.13,58.5Z" transform="translate(-9014.336 -2080.276)" fill="#4abbec"/>
          </g>
          <g id="Grupo_221" data-name="Grupo 221" transform="translate(66.339 240.589)">
            <path id="Trazado_275" data-name="Trazado 275" d="M9211.391,2322.409l-136.087,59.47-14.765-59.47Z" transform="translate(-9060.539 -2322.409)" fill="#ed750f"/>
          </g>
        </g>
        <g id="Grupo_236" data-name="Grupo 236" transform="translate(159.983 38.617)">
          <g id="Grupo_227" data-name="Grupo 227" transform="translate(25.429)">
            <g id="Grupo_224" data-name="Grupo 224" transform="translate(0.128 0.125)">
              <g id="Grupo_223" data-name="Grupo 223">
                <path id="Trazado_276" data-name="Trazado 276" d="M9252.272,2217.937c-30.374,0-59.182-24.711-64.22-55.085s15.576-55.084,45.949-55.084,59.184,24.712,64.221,55.084S9282.647,2217.937,9252.272,2217.937Zm-16.7-100.671c-25.137,0-42.2,20.45-38.026,45.587s28.011,45.588,53.146,45.588,42.2-20.451,38.027-45.588S9260.714,2117.266,9235.577,2117.266Z" transform="translate(-9187.295 -2107.768)" fill="#e4effa"/>
              </g>
            </g>
            <g id="Grupo_226" data-name="Grupo 226">
              <g id="Grupo_225" data-name="Grupo 225">
                <path id="Trazado_277" data-name="Trazado 277" d="M9252.285,2218.055c-30.443,0-59.318-24.767-64.367-55.211s15.611-55.21,46.055-55.21c16.538,0,33.278,7.322,45.933,20.089a65.978,65.978,0,0,1,18.434,35.121,4.023,4.023,0,0,1-4.065,4.874,5.988,5.988,0,0,1-5.685-4.874,54.3,54.3,0,0,0-15.174-28.915c-10.422-10.515-24.21-16.545-37.826-16.545-25.067,0-42.079,20.394-37.922,45.461s27.934,45.462,53,45.462a5.989,5.989,0,0,1,5.684,4.874A4.024,4.024,0,0,1,9252.285,2218.055Z" transform="translate(-9187.158 -2107.635)" fill="#f18e37"/>
              </g>
            </g>
          </g>
          <g id="Grupo_235" data-name="Grupo 235" transform="translate(0 147.49)">
            <g id="Grupo_228" data-name="Grupo 228">
              <path id="Trazado_278" data-name="Trazado 278" d="M9355.187,2269.7l.875,5.268a4.324,4.324,0,0,1-4.359,5.225H9167.153a6.438,6.438,0,0,1-6.09-5.225l-.874-5.268a4.323,4.323,0,0,1,4.357-5.225H9349.1A6.439,6.439,0,0,1,9355.187,2269.7Z" transform="translate(-9160.118 -2264.473)" fill="#e4effa"/>
            </g>
            <g id="Grupo_234" data-name="Grupo 234">
              <g id="Grupo_229" data-name="Grupo 229">
                <path id="Trazado_279" data-name="Trazado 279" d="M9295.568,2264.473l2.606,15.718H9167.153a6.438,6.438,0,0,1-6.09-5.225l-.874-5.268a4.323,4.323,0,0,1,4.357-5.225Z" transform="translate(-9160.118 -2264.473)" fill="#f18e37"/>
              </g>
              <g id="Grupo_230" data-name="Grupo 230" transform="translate(69.245 0)">
                <path id="Trazado_280" data-name="Trazado 280" d="M9272.767,2264.473l-11.892,15.717h-27.123l11.891-15.717Z" transform="translate(-9233.752 -2264.473)" fill="#ee783e"/>
              </g>
              <g id="Grupo_231" data-name="Grupo 231" transform="translate(112.917 0)">
                <path id="Trazado_281" data-name="Trazado 281" d="M9302.726,2264.473l2.607,15.717h-25.141l11.891-15.717Z" transform="translate(-9280.192 -2264.473)" fill="#ee783e"/>
              </g>
              <g id="Grupo_232" data-name="Grupo 232" transform="translate(25.573 0)">
                <path id="Trazado_282" data-name="Trazado 282" d="M9226.326,2264.473l-11.89,15.717h-27.125l11.891-15.717Z" transform="translate(-9187.312 -2264.473)" fill="#ee783e"/>
              </g>
              <g id="Grupo_233" data-name="Grupo 233">
                <path id="Trazado_283" data-name="Trazado 283" d="M9181.033,2264.473l-11.891,15.718h-1.989a6.438,6.438,0,0,1-6.09-5.225l-.874-5.268a4.323,4.323,0,0,1,4.357-5.225Z" transform="translate(-9160.118 -2264.473)" fill="#ee783e"/>
              </g>
            </g>
          </g>
        </g>
      </g>
      <g id="Grupo_263" data-name="Grupo 263" transform="translate(124 344.447)">
        <g id="Grupo_258" data-name="Grupo 258">
          <g id="Grupo_238" data-name="Grupo 238" transform="translate(98.202)">
            <path id="Trazado_284" data-name="Trazado 284" d="M8968.693,2212.594s.931-10.143-10.4-10.143a13.318,13.318,0,0,1,5.211,2.8s-7.229-4.243-15.094,2.277-2.979,22.874-5.371,25.979-11.707,3.726-10.569,13.765,29.564,22.614,27.738,30.92c0,0,11.141-16.375,3.175-23.848,0,0,3.882,3.656,4.277,8,0,0,1.054-8.487-4.347-11.2-4.779-2.4-8.694-11.188-8.28-12.757S8968.693,2212.594,8968.693,2212.594Z" transform="translate(-8932.372 -2202.451)" fill="#293967"/>
          </g>
          <g id="Grupo_239" data-name="Grupo 239" transform="translate(111.359 58.843)">
            <path id="Trazado_285" data-name="Trazado 285" d="M8958.371,2265.024s8.467,35.026,16.776,42.028c5,4.208,19.851,13.867,19.851,13.867l-6.179,2.242s-20.6-6.958-25.215-12.38-17.241-32.6-17.241-32.6Z" transform="translate(-8946.363 -2265.024)" fill="#f5a977"/>
          </g>
          <g id="Grupo_240" data-name="Grupo 240" transform="translate(120.333 113.872)">
            <path id="Trazado_286" data-name="Trazado 286" d="M9007.559,2337.209l-1.991-4.928a13.974,13.974,0,0,0-12.958-8.742h-36.7v122.719h151.831V2346.83h-85.919A15.377,15.377,0,0,1,9007.559,2337.209Z" transform="translate(-8955.906 -2323.54)" fill="#4abbec"/>
          </g>
          <g id="Grupo_241" data-name="Grupo 241" transform="translate(38.515 87.268)">
            <path id="Trazado_287" data-name="Trazado 287" d="M8874.182,2328.361c.074.135.153.273.231.412,1.854,3.22,6.1,11.111,10.785,19.745,2.215,4.1,4.532,8.362,6.732,12.374,3.789,6.925,7.237,13.093,9.247,16.353,2.047,3.314,3.553,5.642,4.162,6.573l.006,0a1.549,1.549,0,0,1,.2.961,50.293,50.293,0,0,0,.134,8.685c2.823,28.091,21.768,43.146,21.768,43.146l5.631.832s-7.971-29.529-10.318-46.223a32.209,32.209,0,0,1-.431-6.617c.417-4.35-.356-10.735-1.817-18.067-2.6-13.028-7.371-29.019-11.518-41.818-.264-.817-8.185-29.47-8.185-29.47-6.647,5.812-30.9,8.209-30.9,8.209S8865.8,2313.455,8874.182,2328.361Z" transform="translate(-8868.903 -2295.25)" fill="#28539f"/>
          </g>
          <g id="Grupo_242" data-name="Grupo 242" transform="translate(90.873 223.511)">
            <path id="Trazado_288" data-name="Trazado 288" d="M8948.215,2453.208h-23.507a12.91,12.91,0,0,1,.664-6.3c1.177-2.608,2.854-2.691.215-6.779,1.494,1.538,6.295,2.174,9.693,1.717.416.675,2.686,5.2,4.075,6.2C8940.892,2449.152,8947.742,2448.759,8948.215,2453.208Z" transform="translate(-8924.579 -2440.128)" fill="#1f3865"/>
          </g>
          <g id="Grupo_243" data-name="Grupo 243" transform="translate(43.794 106.518)">
            <path id="Trazado_289" data-name="Trazado 289" d="M8874.516,2329.581c.074.135.153.273.231.412,1.854,3.22,11.873,21.726,16.555,30.361-5.425-22.317-1.651-44.633-1.651-44.633Z" transform="translate(-8874.516 -2315.72)" fill="#1f3865"/>
          </g>
          <g id="Grupo_244" data-name="Grupo 244" transform="translate(112.986 8.553)">
            <path id="Trazado_290" data-name="Trazado 290" d="M8966.424,2211.71c.154-.618-13.427,6.137-14.114,6.9-6.369,7.064-4.552,16.283-.908,16.371,2.336.057,1.885,3.943,1.885,3.943l26.036-11.015S8976.187,2209.63,8966.424,2211.71Z" transform="translate(-8948.093 -2211.545)" fill="#293967"/>
          </g>
          <g id="Grupo_245" data-name="Grupo 245" transform="translate(108.866 53.583)">
            <path id="Trazado_291" data-name="Trazado 291" d="M8957.414,2259.43s3.963,7.916,3.467,14.339c0,0-4.777,7.541-17.168,9.451C8943.713,2283.22,8954.366,2259.424,8957.414,2259.43Z" transform="translate(-8943.713 -2259.43)" fill="#bbce00"/>
          </g>
          <g id="Grupo_246" data-name="Grupo 246" transform="translate(3.116 82.363)">
            <path id="Trazado_292" data-name="Trazado 292" d="M8890.263,2304.9l.079-4.4c-8.759,1.1-30.2-10.468-30.2-10.468s-9.164,6.095-10.419,23.5c-.611,8.5-4.485,44.427-4.914,55.156-.156,3.889-.208,6.665-.227,7.773a.015.015,0,0,1,0,.01,1.535,1.535,0,0,1-.372.906,50.032,50.032,0,0,0-4.747,7.275c-13.366,24.87-6.376,58.662-6.376,58.662l3.1-.79s11.3-35.031,18.689-50.183a31.631,31.631,0,0,1,3.345-5.726c2.777-3.374,5.706-9.1,8.593-16C8872.273,2357.587,8890.263,2304.9,8890.263,2304.9Z" transform="translate(-8831.259 -2290.034)" fill="#28539f"/>
          </g>
          <g id="Grupo_247" data-name="Grupo 247" transform="translate(0 223.34)">
            <path id="Trazado_293" data-name="Trazado 293" d="M8851.582,2453.2h-23.507a12.917,12.917,0,0,1,.663-6.3c1.177-2.608,3.02-3.793,2.579-6.949a8.464,8.464,0,0,0,7.327,2.8c.416.675,2.687,4.288,4.078,5.287C8844.259,2449.141,8851.109,2448.748,8851.582,2453.2Z" transform="translate(-8827.946 -2439.947)" fill="#1f3865"/>
          </g>
          <g id="Grupo_248" data-name="Grupo 248" transform="translate(31.061 40.261)">
            <path id="Trazado_294" data-name="Trazado 294" d="M8937.194,2287.424c-3.158.539.516,3.049-3.827,3.521-6.182.674-12.563,1.136-15.906,2.469a3.584,3.584,0,0,0-2.289,1.854c-1.449,4.357-10.627,11.844-10.627,11.844-40.932-1.863-43.569-20.106-43.569-20.106,26.566-25.8,49.167-39.864,67.846-41.6,4.546-.424,10.673.145,13.548,1.425,6.532,2.909,10.113,11.759,10.113,11.759S8949.191,2285.377,8937.194,2287.424Z" transform="translate(-8860.976 -2245.263)" fill="#bbce00"/>
          </g>
          <g id="Grupo_249" data-name="Grupo 249" transform="translate(84.687 52.641)">
            <path id="Trazado_295" data-name="Trazado 295" d="M8936.766,2291.729c-6.182.674-12.562,1.136-15.906,2.469-9.664-19.26,8.268-35.771,8.268-35.771S8935.412,2284,8936.766,2291.729Z" transform="translate(-8918 -2258.428)" fill="#949c21"/>
          </g>
          <g id="Grupo_250" data-name="Grupo 250" transform="translate(89.901 49.167)">
            <path id="Trazado_296" data-name="Trazado 296" d="M8942.429,2254.753s-15.544-.849-18.306,8.909,5.182,48.713,6.894,52.734c3.117,7.319,18.832,29.119,18.832,29.119l5.038-2.609s-10.117-31.914-12.376-35.072C8938.965,2302.876,8947.081,2259,8942.429,2254.753Z" transform="translate(-8923.545 -2254.734)" fill="#f5a977"/>
          </g>
          <g id="Grupo_251" data-name="Grupo 251" transform="translate(115.528 136.659)">
            <path id="Trazado_297" data-name="Trazado 297" d="M8956.511,2348.452a22.977,22.977,0,0,1,2.346,2.407c1.045,1.278.125,1.739,3.129,7.523,0,0-.154.8-.807.656s-2.918-2.39-4.08-2.229c0,0-.83.685-.922,2.952-.086,2.12-.092,6.811-.461,7.693s-3.066-3.7-4.394-7c-1.165-2.9-.03-12.681-.03-12.681Z" transform="translate(-8950.797 -2347.772)" fill="#f5a977"/>
          </g>
          <g id="Grupo_252" data-name="Grupo 252" transform="translate(87.414 46.284)">
            <path id="Trazado_298" data-name="Trazado 298" d="M8920.9,2276.53c.041.229,14.709,2.7,23.883-1.958,0,0,7.666-24.013-3.287-22.864s-17.439,4.6-17.715,9.843S8920.9,2276.53,8920.9,2276.53Z" transform="translate(-8920.9 -2251.668)" fill="#bbce00"/>
          </g>
          <g id="Grupo_253" data-name="Grupo 253" transform="translate(112.087 34.136)">
            <path id="Trazado_299" data-name="Trazado 299" d="M8947.155,2248.121a9.771,9.771,0,0,0,2.949,6.838c1.949,2.006,4.765,3.572,6.743,1.595a21.477,21.477,0,0,0,3.059-3.7c1.709-2.938,3.745-5.939,3.745-5.939l-8.8-7.708-.525-.46a22.428,22.428,0,0,1-6.553,7.437A2.042,2.042,0,0,0,8947.155,2248.121Z" transform="translate(-8947.138 -2238.75)" fill="#f5a977"/>
          </g>
          <g id="Grupo_254" data-name="Grupo 254" transform="translate(119.641 34.595)">
            <path id="Trazado_300" data-name="Trazado 300" d="M8964.129,2246.95s-2.034,3-3.743,5.937c-5.468-3.371-5.475-10.141-5.054-13.648Z" transform="translate(-8955.17 -2239.239)" fill="#f29154"/>
          </g>
          <g id="Grupo_255" data-name="Grupo 255" transform="translate(119.277 18.874)">
            <path id="Trazado_301" data-name="Trazado 301" d="M8964.35,2249.816s-13.277-7.389-8.549-15.585,6.2-14.673,14.875-10.3,8.506,8.44,7.594,11.56S8967.926,2251.527,8964.35,2249.816Z" transform="translate(-8954.782 -2222.522)" fill="#f5a977"/>
          </g>
          <g id="Grupo_256" data-name="Grupo 256" transform="translate(117.881 17.764)">
            <path id="Trazado_302" data-name="Trazado 302" d="M8980.424,2230.637c-.607-3.639-2.456-3.987-3.745-3.744a10.619,10.619,0,0,0-12.915-4.944,18.075,18.075,0,0,1-10.465,6.285s1.542,2.867,7.89,4.642a10.856,10.856,0,0,0,6.262-.5,35.444,35.444,0,0,1-9.011,3.4c8.366.765,16.326-6.882,17.151-7.7a11.925,11.925,0,0,1,.658,5.481c-.552,2.465-2.74,6.93-1.4,7.508C8974.846,2241.06,8981.336,2236.1,8980.424,2230.637Z" transform="translate(-8953.299 -2221.341)" fill="#293967"/>
          </g>
          <g id="Grupo_257" data-name="Grupo 257" transform="translate(160.468 114.504)">
            <path id="Trazado_303" data-name="Trazado 303" d="M9000.539,2324.464s-3.705,2.779-.912,4.6,7.777,2.307,7.8,1.115C9007.493,2326.175,9005.5,2323.329,9000.539,2324.464Z" transform="translate(-8998.585 -2324.212)" fill="#f5a977"/>
          </g>
        </g>
        <g id="Grupo_259" data-name="Grupo 259" transform="translate(146.536 152.737)">
          <path id="Trazado_304" data-name="Trazado 304" d="M8997.345,2412.194H9075.8c3.235,0,5.727-4.946,5.767-8.445.129-10.992-11.668-28.552-38.405-20.777,0,0-7.545-20.366-34.059-17.9-15.566,1.45-24.243,17.332-25.286,31.491C8983.189,2405.019,8989.51,2412.194,8997.345,2412.194Z" transform="translate(-8983.771 -2364.869)" fill="#9bd6f3"/>
        </g>
        <g id="Grupo_262" data-name="Grupo 262" transform="translate(176.576 172.785)">
          <g id="Grupo_260" data-name="Grupo 260" transform="translate(11.259 10.677)">
            <rect id="Rectángulo_68" data-name="Rectángulo 68" width="15.195" height="34.907" transform="translate(15.195 34.907) rotate(180)" fill="#f18e37"/>
          </g>
          <g id="Grupo_261" data-name="Grupo 261">
            <path id="Trazado_305" data-name="Trazado 305" d="M9053.428,2403.913h-37.714l18.856-17.726Z" transform="translate(-9015.714 -2386.188)" fill="#f18e37"/>
          </g>
        </g>
      </g>
      <g id="Grupo_266" data-name="Grupo 266" transform="translate(637.352 353.276)">
        <g id="Grupo_264" data-name="Grupo 264">
          <path id="Trazado_306" data-name="Trazado 306" d="M9410.876,2230.136l-19.826,4.555-9.85,17.8-7.365-40.652Z" transform="translate(-9373.835 -2211.84)" fill="#fff"/>
        </g>
        <g id="Grupo_265" data-name="Grupo 265" transform="translate(13.25 18.934)">
          <rect id="Rectángulo_69" data-name="Rectángulo 69" width="3.622" height="20.955" transform="matrix(0.799, -0.602, 0.602, 0.799, 0, 2.179)" fill="#fff"/>
        </g>
      </g>
      <g id="Grupo_292" data-name="Grupo 292" transform="translate(305.429 87.634)">
        <g id="Grupo_287" data-name="Grupo 287">
          <g id="Grupo_267" data-name="Grupo 267" transform="translate(59.403 161.301)">
            <path id="Trazado_307" data-name="Trazado 307" d="M9084.639,2121.672a2.319,2.319,0,0,0-.412,2.479.022.022,0,0,0,.007.012c.6,1.651,2.572,3.5,4.866,5.338.293.237.553.452.78.652.06.052.12.1.175.157s.092.083.136.121c2.14,1.972,1.335,2.423,5.177,6.425,4.383,4.559,7.4,4.642,8.257,4.226.726-.354-.748-2.772-2.383-5.49-.08-.131-.157-.263-.239-.4-.217-.361-.433-.729-.649-1.092-1.916-3.271-1.424-4.805-.97-9.673.369-3.956,6.154-22.1,6.154-22.1l-8.4-1.447s-2.529,14.447-5.314,16.672c-1.49,1.186-3.158,1.2-4.591,2.08-.1.061-.2.123-.3.188A11.1,11.1,0,0,0,9084.639,2121.672Z" transform="translate(-9084.043 -2100.885)" fill="#f5a977"/>
          </g>
          <g id="Grupo_268" data-name="Grupo 268" transform="translate(59.403 180.241)">
            <path id="Trazado_308" data-name="Trazado 308" d="M9084.639,2122.872a2.319,2.319,0,0,0-.412,2.479.022.022,0,0,0,.007.012c.731,1.65,2.656,3.485,4.873,5.321.291.241.546.462.773.669.06.052.12.1.175.157s.092.083.136.121c2.14,1.972,1.335,2.423,5.177,6.425,4.383,4.559,7.4,4.642,8.257,4.226.726-.354-.748-2.772-2.383-5.49a18.653,18.653,0,0,1-7.811-5.755c-2.543-3.244-4.27-7.379-6-9.918l-.494-.092A11.053,11.053,0,0,0,9084.639,2122.872Z" transform="translate(-9084.043 -2121.026)" fill="#1f3865"/>
          </g>
          <g id="Grupo_269" data-name="Grupo 269" transform="translate(120.993 158.745)">
            <path id="Trazado_309" data-name="Trazado 309" d="M9156.253,2116.266c.519,2.592,4.213,2.159,8.341,1.15s3.146.191,9.021-.46,7.654-2.841,7.834-3.714c.16-.775-2.742-1.048-5.855-1.407-.393-.043-.785-.092-1.179-.141-3.516-.441-6.091-2.709-9.282-4.572-3.025-1.764-7.54-8.954-7.54-8.954l-8.056.638s4.228,6.421,5.863,9.213c.962,1.643.91,3.814.791,5.491A10.306,10.306,0,0,0,9156.253,2116.266Z" transform="translate(-9149.537 -2098.167)" fill="#f5a977"/>
          </g>
          <g id="Grupo_270" data-name="Grupo 270" transform="translate(127.586 172.412)">
            <path id="Trazado_310" data-name="Trazado 310" d="M9165.012,2118.282c4.129-1.008,3.146.191,9.021-.46s7.654-2.841,7.834-3.714c.16-.775-2.742-1.048-5.855-1.407l-.03.06a16.566,16.566,0,0,1-8.413,2.615c-3.985.1-8.207-1.045-10.959-1a10.306,10.306,0,0,0,.062,2.756C9157.189,2119.724,9160.884,2119.291,9165.012,2118.282Z" transform="translate(-9156.548 -2112.701)" fill="#1f3865"/>
          </g>
          <g id="Grupo_271" data-name="Grupo 271" transform="translate(69.193 112.411)">
            <path id="Trazado_311" data-name="Trazado 311" d="M9122.094,2061.811l-7.531,20.267-9.833,26.462a15.923,15.923,0,0,1-5.224-.478,22.656,22.656,0,0,1-5.052-2.458s2.729-28.414,7.823-44.724c1.3-4.187,2.768-7.573,4.382-9.478C9114.556,2042.071,9122.094,2061.811,9122.094,2061.811Z" transform="translate(-9094.454 -2048.897)" fill="#90adda"/>
          </g>
          <g id="Grupo_272" data-name="Grupo 272" transform="translate(16.326 89.092)">
            <path id="Trazado_312" data-name="Trazado 312" d="M9111.086,2028.147c-4.288-1.383-15.474-.022-27.606,2.174a8.234,8.234,0,0,1-8.5-3.837h0l-30.534-2.385s-10.076,22.345-4.56,36.582a5.354,5.354,0,0,0,5.335,3.443h0s18.453.025,24.354.025c15.186,0,32.139-10.438,34.332-10.877,3.589-.719,5.025,6.46,8.615,14s33.741,33.382,33.741,33.382,4.633.046,6.548-.672a6.455,6.455,0,0,0,2.812-1.775S9122.214,2031.737,9111.086,2028.147Z" transform="translate(-9038.235 -2024.1)" fill="#acbfe3"/>
          </g>
          <g id="Grupo_273" data-name="Grupo 273" transform="translate(0.112)">
            <path id="Trazado_313" data-name="Trazado 313" d="M9070.71,1931.17a10.83,10.83,0,0,0-5.833-1.518,16.13,16.13,0,0,1-2.816-.171c-11.653-1.709-18.672,15.219-19.083,20.334-.755,9.391-5.723,10.822-12.715,16.7-14.02,11.792-9.908,25.5-2.243,30.586,4.6,3.054,12.708,0,12.708,0,.114.08,22.173-12.331,33.047-18.318C9090.076,1976.469,9077.259,1935.069,9070.71,1931.17Z" transform="translate(-9020.994 -1929.361)" fill="#1f3865"/>
          </g>
          <g id="Grupo_274" data-name="Grupo 274" transform="translate(28.901 27.232)">
            <path id="Trazado_314" data-name="Trazado 314" d="M9066.484,1975.416c.048.03-5.35,1.873-8.958.275-3.4-1.5-5.969-7.087-5.918-7.09,1.544-.072,3.239-1.422,4.547-10.282l.656.235,11.06,3.98s-.8,3.548-1.319,6.927C9066.115,1972.3,9065.881,1975.015,9066.484,1975.416Z" transform="translate(-9051.607 -1958.319)" fill="#f5a977"/>
          </g>
          <g id="Grupo_275" data-name="Grupo 275" transform="translate(34.105 27.467)">
            <path id="Trazado_315" data-name="Trazado 315" d="M9068.2,1962.549s-.441,1.915-1.085,5.491a12.487,12.487,0,0,1-9.975-9.471Z" transform="translate(-9057.142 -1958.569)" fill="#f29053"/>
          </g>
          <g id="Grupo_276" data-name="Grupo 276" transform="translate(32.998 8.355)">
            <path id="Trazado_316" data-name="Trazado 316" d="M9069.778,1964.859s-15.131-2.03-13.721-11.433.405-16,10.126-15.1,11.055,4.768,11.348,8.021S9073.751,1965.145,9069.778,1964.859Z" transform="translate(-9055.965 -1938.245)" fill="#f5a977"/>
          </g>
          <g id="Grupo_277" data-name="Grupo 277" transform="translate(28.656 7.523)">
            <path id="Trazado_317" data-name="Trazado 317" d="M9076.7,1941.14s-9.686,8.347-16.274,9.02-9.082-1.443-9.082-1.443a25.724,25.724,0,0,0,6.22-8.427,4.637,4.637,0,0,1,3.819-2.732C9066.092,1937.154,9075.009,1936.969,9076.7,1941.14Z" transform="translate(-9051.348 -1937.36)" fill="#1f3865"/>
          </g>
          <g id="Grupo_278" data-name="Grupo 278" transform="translate(47.958 8.745)">
            <path id="Trazado_318" data-name="Trazado 318" d="M9071.873,1940.47s3.241,3.133,4.261,5.457c.984,2.242,1.279,7.606.5,9.736,0,0,5.05-9.817,2.19-14.587C9075.79,1936.019,9071.873,1940.47,9071.873,1940.47Z" transform="translate(-9071.873 -1938.66)" fill="#1f3865"/>
          </g>
          <g id="Grupo_279" data-name="Grupo 279" transform="translate(15.916 37.158)">
            <path id="Trazado_319" data-name="Trazado 319" d="M9078.4,1998.334c-.456,30.629-.125,24.228-3.475,27.134-.808.7-3.077,1.117-6.064,1.315-9.392.623-25.9-.924-26.528-2.66-2.166-6.005-.636-7.871-2.443-17.065-.189-.977-.423-2.036-.7-3.189-1.507-6.315-2.974-8.463,2.372-18.608,4.849-9.19,9.886-16.649,10.338-16.38,12.792,7.594,13.823,1.211,13.823,1.211S9078.627,1983.395,9078.4,1998.334Z" transform="translate(-9037.799 -1968.873)" fill="#f18e37"/>
          </g>
          <g id="Grupo_280" data-name="Grupo 280" transform="translate(69.193 124.395)">
            <path id="Trazado_320" data-name="Trazado 320" d="M9114.563,2082.838l-9.833,26.462a15.923,15.923,0,0,1-5.224-.478,22.656,22.656,0,0,1-5.052-2.458s2.729-28.414,7.823-44.724Z" transform="translate(-9094.454 -2061.64)" fill="#acbfe3"/>
          </g>
          <g id="Grupo_281" data-name="Grupo 281" transform="translate(43.845 38.374)">
            <path id="Trazado_321" data-name="Trazado 321" d="M9067.5,1970.167s13.162,2.232,14.706,7.9,6.635,40.063,6.635,40.063-3.712,3.625-6.8.534-9.727-32.182-9.727-32.182Z" transform="translate(-9067.499 -1970.167)" fill="#f18e37"/>
          </g>
          <g id="Grupo_282" data-name="Grupo 282" transform="translate(18.007 62.586)">
            <path id="Trazado_322" data-name="Trazado 322" d="M9069,2028.394c-9.392.624-25.9-.924-26.528-2.66-2.166-6.005-.636-7.871-2.443-17.065l4.529-12.755s-.75,14.2,3.44,17.94,17.149,7.212,19.186,10.333A11.393,11.393,0,0,1,9069,2028.394Z" transform="translate(-9040.023 -1995.914)" fill="#ed750f"/>
          </g>
          <g id="Grupo_283" data-name="Grupo 283" transform="translate(36.219 87.658)">
            <path id="Trazado_323" data-name="Trazado 323" d="M9059.39,2024.009s9.265-2.063,10.76-1.24,5.148,3.816,5.607,4.858-3.329-.791-4.561-1.121c-.8-.214-2.9.515-3.936.861-4.372,1.459-7.053.708-7.053.708Z" transform="translate(-9059.39 -2022.575)" fill="#f5a977"/>
          </g>
          <g id="Grupo_284" data-name="Grupo 284" transform="translate(0 37.158)">
            <path id="Trazado_324" data-name="Trazado 324" d="M9050.889,1968.874s-12.441.766-16.747,6.774c-6.063,8.455-18.09,44.492-11.2,49.3,7.762,5.413,35.326,1.416,35.326,1.416s.919-4.287-.358-6.362-22.017-5.424-22.974-6.382,11.965-18.666,11.965-21.538S9050.889,1968.874,9050.889,1968.874Z" transform="translate(-9020.874 -1968.874)" fill="#f18e37"/>
          </g>
          <g id="Grupo_285" data-name="Grupo 285" transform="translate(47.428 90.431)">
            <path id="Trazado_325" data-name="Trazado 325" d="M9071.309,2025.523a17.91,17.91,0,0,0,2.578,2.8,1.9,1.9,0,0,0,1.048.224l-1.308-2.355Z" transform="translate(-9071.309 -2025.523)" fill="#f5a977"/>
          </g>
          <g id="Grupo_286" data-name="Grupo 286" transform="translate(46.979 87.852)">
            <path id="Trazado_326" data-name="Trazado 326" d="M9070.832,2022.781l5.645,2.74a1.006,1.006,0,0,1-.936.361,13.467,13.467,0,0,1-2.447-.672Z" transform="translate(-9070.832 -2022.781)" fill="#f5a977"/>
          </g>
        </g>
        <g id="Grupo_291" data-name="Grupo 291" transform="translate(36.219 62.197)">
          <g id="Grupo_288" data-name="Grupo 288" transform="translate(0 32.098)">
            <path id="Trazado_327" data-name="Trazado 327" d="M9118.348,2029.632H9059.39v1.3h58.436Z" transform="translate(-9059.39 -2029.632)" fill="#1f3865"/>
          </g>
          <g id="Grupo_289" data-name="Grupo 289" transform="translate(13.786)">
            <path id="Trazado_328" data-name="Trazado 328" d="M9074.05,2028.9H9118.7l13.431-33.4h-44.579Z" transform="translate(-9074.05 -1995.5)" fill="#1f3865"/>
          </g>
          <g id="Grupo_290" data-name="Grupo 290" transform="translate(42.827 14.575)">
            <path id="Trazado_329" data-name="Trazado 329" d="M9109.27,2013.123a1.547,1.547,0,0,0-1.518-2.125,3.044,3.044,0,0,0-2.734,2.125,1.546,1.546,0,0,0,1.516,2.126A3.048,3.048,0,0,0,9109.27,2013.123Z" transform="translate(-9104.931 -2010.998)" fill="#fff"/>
          </g>
        </g>
      </g>
      <g id="Grupo_307" data-name="Grupo 307" transform="translate(769.363 268.221)">
        <g id="Grupo_293" data-name="Grupo 293" transform="translate(55.529 50.948)">
          <path id="Trazado_330" data-name="Trazado 330" d="M9573.263,2175.571s21.638,22.012,22.744,31.15-11.219,23.4-11.219,23.4Z" transform="translate(-9573.263 -2175.571)" fill="#ed750f"/>
        </g>
        <g id="Grupo_294" data-name="Grupo 294" transform="translate(11.498 296.151)">
          <path id="Trazado_331" data-name="Trazado 331" d="M9558.109,2440.477s-.826,12.879-3.318,13.058c-.332.024-12.64,0-12.64,0l-15.711-.125s.109-3.786,4.705-4.576,12.288-4,15.083-10.066C9549.169,2432.387,9558.109,2440.477,9558.109,2440.477Z" transform="translate(-9526.44 -2436.315)" fill="#182844"/>
        </g>
        <g id="Grupo_295" data-name="Grupo 295" transform="translate(46.493 296.227)">
          <path id="Trazado_332" data-name="Trazado 332" d="M9595.323,2440.558s-.826,12.879-3.32,13.058c-.33.023-12.638,0-12.638,0l-15.712-.126s.111-3.785,4.706-4.575,12.287-4,15.083-10.066C9586.383,2432.468,9595.323,2440.558,9595.323,2440.558Z" transform="translate(-9563.653 -2436.396)" fill="#182844"/>
        </g>
        <g id="Grupo_296" data-name="Grupo 296" transform="translate(26.068 142.246)">
          <path id="Trazado_333" data-name="Trazado 333" d="M9541.934,2292.253s4.053,26.29,19.279,72.977,17.273,66.893,17.273,66.893l16.445-.426s.251-50.985-6.763-74.461-1.341-84.58-1.341-84.58Z" transform="translate(-9541.934 -2272.656)" fill="#1b3660"/>
        </g>
        <g id="Grupo_297" data-name="Grupo 297" transform="translate(18.086 143.571)">
          <path id="Trazado_334" data-name="Trazado 334" d="M9533.465,2274.065a637.908,637.908,0,0,0,6.078,88.244c6.746,48.642,4.38,69.278,4.38,69.278l16.41.581s9.914-48.623,7.154-72.969,13.611-83.488,13.611-83.488Z" transform="translate(-9533.446 -2274.065)" fill="#0d468c"/>
        </g>
        <g id="Grupo_298" data-name="Grupo 298" transform="translate(28.688 31.377)">
          <path id="Trazado_335" data-name="Trazado 335" d="M9566.108,2174.344l-8.756,5.714-12.633-2.382c.177-1.02,1.021-5.246,1.789-9.074.046-.227.093-.452.136-.673.658-3.257,1.227-6.055,1.227-6.055l11.814-5.182,4.4-1.932c-.012.069-.35,3.616-.4,4.133A30.083,30.083,0,0,0,9566.108,2174.344Z" transform="translate(-9544.72 -2154.76)" fill="#f5a977"/>
        </g>
        <g id="Grupo_299" data-name="Grupo 299" transform="translate(26.87 44.035)">
          <path id="Trazado_336" data-name="Trazado 336" d="M9547.854,2172.214c.247-.1,15.229-4.489,16.853-3.948s2.582,3.69,2.582,3.69l-24.5,5.483S9544.724,2173.525,9547.854,2172.214Z" transform="translate(-9542.787 -2168.22)" fill="#ed750f"/>
        </g>
        <g id="Grupo_300" data-name="Grupo 300" transform="translate(15.283 47.639)">
          <path id="Trazado_337" data-name="Trazado 337" d="M9587.22,2272.99c-2.562,11.573-44.8,12.853-55.668,2.321-1.235-1.2-1.284-6.773-.8-14.287.946-14.68,3.929-36.759,4.067-48.041a89.272,89.272,0,0,1,1.836-16.078,130.627,130.627,0,0,1,5.4-19.238s20.646-6.625,24.5-5.482C9585.141,2177.69,9589.783,2261.419,9587.22,2272.99Z" transform="translate(-9530.466 -2172.052)" fill="#f18e37"/>
        </g>
        <g id="Grupo_301" data-name="Grupo 301" transform="translate(15.568 70.328)">
          <path id="Trazado_338" data-name="Trazado 338" d="M9530.768,2262.462c.947-14.68,3.93-36.759,4.068-48.041a89.1,89.1,0,0,1,1.836-16.078l12.416-2.164S9562.771,2248.774,9530.768,2262.462Z" transform="translate(-9530.768 -2196.179)" fill="#ed750f"/>
        </g>
        <g id="Grupo_302" data-name="Grupo 302" transform="translate(18.782 114.237)">
          <path id="Trazado_339" data-name="Trazado 339" d="M9537.737,2244.8a2.92,2.92,0,0,1-.938,3.378c-1.778,1.354-2.936,3.551-2.531,5.159s4.293,4.238,5.646,3.819,4.105-2.531,3.812-3.38,1.864-7.436-1.423-9.981S9537.737,2244.8,9537.737,2244.8Z" transform="translate(-9534.187 -2242.871)" fill="#f5a977"/>
        </g>
        <g id="Grupo_303" data-name="Grupo 303" transform="translate(0 50.99)">
          <path id="Trazado_340" data-name="Trazado 340" d="M9550.229,2175.616s-11.77,1.552-21.444,15.743-16.042,24.743-14.276,29.869,17.92,22.926,20.711,22.933,7.3-2.014,7.565-6.582c0,0-10.236-18.172-7.985-20.727.962-1.091,13.7-11.238,15.665-6.158C9553.716,2219.1,9550.229,2175.616,9550.229,2175.616Z" transform="translate(-9514.214 -2175.616)" fill="#f18e37"/>
        </g>
        <g id="Grupo_304" data-name="Grupo 304" transform="translate(30.477 33.308)">
          <path id="Trazado_341" data-name="Trazado 341" d="M9562.921,2159.176c-2.6,4.385-12.268,8.161-16.3,9.548.046-.227.093-.452.136-.673.658-3.257,1.227-6.055,1.227-6.055l11.814-5.182C9562.407,2156.785,9563.993,2157.372,9562.921,2159.176Z" transform="translate(-9546.622 -2156.813)" fill="#f39b64"/>
        </g>
        <g id="Grupo_305" data-name="Grupo 305" transform="translate(25.032 6.493)">
          <path id="Trazado_342" data-name="Trazado 342" d="M9543.192,2159.569s19,5.972,22.535-5.917,8.372-19.125-3.609-23.441-15.7-.483-17.844,3.2S9538.341,2157.709,9543.192,2159.569Z" transform="translate(-9540.832 -2128.299)" fill="#f5a977"/>
        </g>
        <g id="Grupo_306" data-name="Grupo 306" transform="translate(27.446)">
          <path id="Trazado_343" data-name="Trazado 343" d="M9545.176,2131.853s1.182,13.846,4.047,13.251,5.462-1.034,5.034,3.138-4.41,8.983,4.411,9.74,21.556-21.969,19.142-26.283C9570.843,2119.253,9535.1,2116.667,9545.176,2131.853Z" transform="translate(-9543.398 -2121.394)" fill="#1b3660"/>
        </g>
      </g>
      <g id="Grupo_308" data-name="Grupo 308" transform="translate(0 581.037)">
        <rect id="Rectángulo_70" data-name="Rectángulo 70" width="1024.869" height="2.814" rx="1.393" fill="#2c3454"/>
      </g>
    </g>
    <g id="Grupo_311" data-name="Grupo 311" transform="translate(180.899 636.392)">
      <g id="Grupo_310" data-name="Grupo 310" transform="translate(0 13.021)">
        <rect id="Rectángulo_71" data-name="Rectángulo 71" width="656.088" height="57.392" rx="28.696" transform="translate(7.007 7.963)" fill="#9d6214"/>
        <rect id="Rectángulo_72" data-name="Rectángulo 72" width="656.088" height="57.392" rx="28.696" transform="translate(6.639 7.544)" fill="#a26614"/>
        <rect id="Rectángulo_73" data-name="Rectángulo 73" width="656.088" height="57.392" rx="28.696" transform="translate(6.27 7.125)" fill="#a66913"/>
        <rect id="Rectángulo_74" data-name="Rectángulo 74" width="656.088" height="57.392" rx="28.696" transform="translate(5.901 6.706)" fill="#aa6d12"/>
        <rect id="Rectángulo_75" data-name="Rectángulo 75" width="656.088" height="57.392" rx="28.696" transform="translate(5.532 6.287)" fill="#af7011"/>
        <rect id="Rectángulo_76" data-name="Rectángulo 76" width="656.088" height="57.392" rx="28.696" transform="translate(5.163 5.868)" fill="#b37410"/>
        <rect id="Rectángulo_77" data-name="Rectángulo 77" width="656.088" height="57.392" rx="28.696" transform="translate(4.795 5.449)" fill="#b7780e"/>
        <rect id="Rectángulo_78" data-name="Rectángulo 78" width="656.088" height="57.392" rx="28.696" transform="translate(4.426 5.029)" fill="#bc7c0c"/>
        <rect id="Rectángulo_79" data-name="Rectángulo 79" width="656.088" height="57.392" rx="28.696" transform="translate(4.056 4.61)" fill="#c17f09"/>
        <rect id="Rectángulo_80" data-name="Rectángulo 80" width="656.088" height="57.392" rx="28.696" transform="translate(3.688 4.191)" fill="#c58207"/>
        <rect id="Rectángulo_81" data-name="Rectángulo 81" width="656.088" height="57.392" rx="28.696" transform="translate(3.319 3.772)" fill="#ca8604"/>
        <rect id="Rectángulo_82" data-name="Rectángulo 82" width="656.088" height="57.392" rx="28.696" transform="translate(2.951 3.353)" fill="#cf8b00"/>
        <rect id="Rectángulo_83" data-name="Rectángulo 83" width="656.088" height="57.392" rx="28.696" transform="translate(2.581 2.934)" fill="#d38e00"/>
        <rect id="Rectángulo_84" data-name="Rectángulo 84" width="656.088" height="57.392" rx="28.696" transform="translate(2.212 2.515)" fill="#d99300"/>
        <rect id="Rectángulo_85" data-name="Rectángulo 85" width="656.088" height="57.392" rx="28.696" transform="translate(1.844 2.096)" fill="#de9700"/>
        <rect id="Rectángulo_86" data-name="Rectángulo 86" width="656.088" height="57.392" rx="28.696" transform="translate(1.475 1.676)" fill="#e39b00"/>
        <rect id="Rectángulo_87" data-name="Rectángulo 87" width="656.088" height="57.392" rx="28.696" transform="translate(1.107 1.257)" fill="#e8a000"/>
        <rect id="Rectángulo_88" data-name="Rectángulo 88" width="656.088" height="57.392" rx="28.696" transform="translate(0.737 0.838)" fill="#eea400"/>
        <rect id="Rectángulo_89" data-name="Rectángulo 89" width="656.088" height="57.392" rx="28.696" transform="translate(0.368 0.419)" fill="#f3a900"/>
        <rect id="Rectángulo_90" data-name="Rectángulo 90" width="656.088" height="57.392" rx="28.696" fill="#f8ad00"/>
      </g>
      <text id="Espere_un_momento...." data-name="Espere un momento...." transform="translate(85.111 56)" fill="#fff" font-size="52" font-family="JosefinSans-SemiBold, Josefin Sans" font-weight="600" letter-spacing="-0.028em"><tspan x="0" y="0">Espere un momento....</tspan></text>
    </g>
  </g>
</svg>
