<?xml version="1.0" encoding="utf-8"?>
<!-- Generator: Adobe Illustrator 26.0.2, SVG Export Plug-In . SVG Version: 6.00 Build 0)  -->
<svg version="1.1" id="Capa_1" xmlns="http://www.w3.org/2000/svg" xmlns:xlink="http://www.w3.org/1999/xlink" x="0px" y="0px"
	 viewBox="0 0 620 620" style="enable-background:new 0 0 620 620;" xml:space="preserve">
<style type="text/css">
	.st0{fill:#4ABBEC;}
	.st1{fill:#757575;}
	.st2{fill:#FFFFFF;}
</style>
<g>
	<circle class="st0" cx="310" cy="310" r="246.5"/>
	<g>
		<path class="st2" d="M275.4,375.6v-20.4c0-12.8,1.6-23.5,4.8-32.1c3.2-8.6,7.3-15.9,12.3-22.1s10.1-11.6,15.2-16.5
			c6.9-6.4,13.1-12.7,18.4-19c5.4-6.3,8.1-14.5,8.1-24.8c0-5.6-1.4-10.3-4.2-14.2c-2.8-3.8-6.2-6.8-10.2-9c-4-2.2-7.9-3.2-11.7-3.2
			c-7.4,0-13.6,1.7-18.6,5.2c-5,3.5-9.1,7.9-12.3,13.3c-3.2,5.4-5.9,11-8.3,16.9l-44.2-20.7c1.5-4.6,4.2-10.5,8.1-17.7
			c3.8-7.2,9.3-14.4,16.3-21.5c7-7.2,15.9-13.2,26.5-18c10.6-4.8,23.4-7.3,38.2-7.3c14.6,0,27.7,2.5,39.4,7.5
			c11.6,5,20.9,12.7,27.8,23c6.9,10.4,10.4,24,10.4,40.9c0,14.1-1.9,25.5-5.8,34.2c-3.8,8.7-8.6,16.1-14.2,22.1
			c-5.6,6-11.3,12-16.9,17.8c-4.4,4.4-8.5,9.2-12.5,14.4c-4,5.2-7.1,11.3-9.4,18.2c-2.3,6.9-3.5,15.2-3.5,25v8.1H275.4z
			 M302.3,456.6c-9.2,0-16.8-2.5-22.7-7.5c-5.9-5-8.8-11.6-8.8-19.8c0-8,3-14.6,9-20c6-5.4,13.5-8.1,22.5-8.1c9,0,16.3,2.7,22.1,8.1
			c5.8,5.4,8.6,12,8.6,20c0,8.2-2.8,14.8-8.4,19.8C319,454.2,311.5,456.6,302.3,456.6z"/>
	</g>
</g>
</svg>
