<svg xmlns="http://www.w3.org/2000/svg" width="992.834" height="752.945" viewBox="0 0 992.834 752.945">
  <g id="Grupo_759" data-name="Grupo 759" transform="translate(3488.817 -42.271)">
    <g id="Grupo_743" data-name="Grupo 743" transform="translate(73.211 -4.051)">
      <g id="Grupo_742" data-name="Grupo 742" transform="translate(-3376.91 725.336)">
        <rect id="Rectángulo_254" data-name="Rectángulo 254" width="628.075" height="67.051" rx="33.526" transform="translate(6.054 6.88)" fill="#9d6214"/>
        <rect id="Rectángulo_255" data-name="Rectángulo 255" width="628.075" height="67.051" rx="33.526" transform="translate(5.735 6.517)" fill="#a26613"/>
        <rect id="Rectángulo_256" data-name="Rectángulo 256" width="628.075" height="67.051" rx="33.526" transform="translate(5.417 6.155)" fill="#a76a12"/>
        <rect id="Rectángulo_257" data-name="Rectángulo 257" width="628.075" height="67.051" rx="33.526" transform="translate(5.098 5.793)" fill="#ab6e11"/>
        <rect id="Rectángulo_258" data-name="Rectángulo 258" width="628.075" height="67.051" rx="33.526" transform="translate(4.78 5.431)" fill="#b07210"/>
        <rect id="Rectángulo_259" data-name="Rectángulo 259" width="628.075" height="67.051" rx="33.526" transform="translate(4.461 5.069)" fill="#b5760f"/>
        <rect id="Rectángulo_260" data-name="Rectángulo 260" width="628.075" height="67.051" rx="33.526" transform="translate(4.142 4.707)" fill="#ba7a0e"/>
        <rect id="Rectángulo_261" data-name="Rectángulo 261" width="628.075" height="67.051" rx="33.526" transform="translate(3.824 4.345)" fill="#bf7e0d"/>
        <rect id="Rectángulo_262" data-name="Rectángulo 262" width="628.075" height="67.051" rx="33.526" transform="translate(3.505 3.983)" fill="#c3820c"/>
        <rect id="Rectángulo_263" data-name="Rectángulo 263" width="628.075" height="67.051" rx="33.526" transform="translate(3.186 3.621)" fill="#c8860b"/>
        <rect id="Rectángulo_264" data-name="Rectángulo 264" width="628.075" height="67.051" rx="33.526" transform="translate(2.868 3.259)" fill="#cd8909"/>
        <rect id="Rectángulo_265" data-name="Rectángulo 265" width="628.075" height="67.051" rx="33.526" transform="translate(2.549 2.897)" fill="#d28d08"/>
        <rect id="Rectángulo_266" data-name="Rectángulo 266" width="628.075" height="67.051" rx="33.526" transform="translate(2.231 2.535)" fill="#d69107"/>
        <rect id="Rectángulo_267" data-name="Rectángulo 267" width="628.075" height="67.051" rx="33.526" transform="translate(1.912 2.173)" fill="#db9506"/>
        <rect id="Rectángulo_268" data-name="Rectángulo 268" width="628.075" height="67.051" rx="33.526" transform="translate(1.593 1.81)" fill="#e09905"/>
        <rect id="Rectángulo_269" data-name="Rectángulo 269" width="628.075" height="67.051" rx="33.526" transform="translate(1.275 1.448)" fill="#e59d04"/>
        <rect id="Rectángulo_270" data-name="Rectángulo 270" width="628.075" height="67.051" rx="33.526" transform="translate(0.956 1.086)" fill="#eaa103"/>
        <rect id="Rectángulo_271" data-name="Rectángulo 271" width="628.075" height="67.051" rx="33.526" transform="translate(0.637 0.724)" fill="#eea502"/>
        <rect id="Rectángulo_272" data-name="Rectángulo 272" width="628.075" height="67.051" rx="33.526" transform="translate(0.319 0.362)" fill="#f3a901"/>
        <rect id="Rectángulo_273" data-name="Rectángulo 273" width="628.075" height="67.051" rx="33.526" fill="#f8ad00"/>
      </g>
      <text id="Lo_sentimos" data-name="Lo sentimos" transform="translate(-3195.911 777.757)" fill="#fff" font-size="52" font-family="JosefinSans-SemiBold, Josefin Sans" font-weight="600" letter-spacing="-0.028em"><tspan x="0" y="0">Lo sentimos</tspan></text>
    </g>
    <g id="Grupo_758" data-name="Grupo 758">
      <path id="Trazado_611" data-name="Trazado 611" d="M-3406.723,676.115s-120.494-116.952-43.837-254.55,179.615-68.4,174.633-228.551S-3039.146,19.1-2962.191,65.541s76.492,102.365,235.357,83.861,189.215,135.751,147.884,214.367c-58.641,111.543,162.753,93.146,23.251,312.346Z" fill="#e8f2fa"/>
      <g id="Grupo_744" data-name="Grupo 744">
        <path id="Trazado_612" data-name="Trazado 612" d="M-2877.585,400.916s25.6-108.516,111.974-120.447c0,0,16.805-2.064,22.4,16.441s-27.817,18.638-48.47,26.081S-2860.482,361.988-2877.585,400.916Z" fill="#a9c2ff" opacity="0.3"/>
        <path id="Trazado_613" data-name="Trazado 613" d="M-2879.547,380.607s-8.98-89.885,54.05-121.786c0,0,12.331-6.009,21.5,6.693s-16.4,21.61-30.263,32.754S-2876.7,346.276-2879.547,380.607Z" fill="#a9c2ff" opacity="0.3"/>
      </g>
      <rect id="Rectángulo_274" data-name="Rectángulo 274" width="992.834" height="2.727" rx="1.036" transform="translate(-3488.817 674.528)" fill="#2d3554"/>
      <path id="Trazado_614" data-name="Trazado 614" d="M-3345.559,594.5c-13.334-30.384,35.035-56.491,35.035-56.491s63.737,20.63,72.889,14.972-51.05-28.279-51.05-28.279c14.853-14.533,71.809-27.852,71.809-27.852s38.419,53.018,45.9,45.281-36.413-45.208-36.413-45.208c19.356-7.88,48.555-1.412,48.555-1.412,42.044,14.971,20.65,68.186,20.65,68.186s13.711,18.087,40.946,29.563h0a77.278,77.278,0,0,1,13.1,6.1l-4.25,3.423q-1.9-1.29-3.81-2.37a.033.033,0,0,0-.024-.012l-.055-.031c-.82-.422-1.992-1.019-3.43-1.738l-.006,0-.007,0c-3.345-1.5-5.735-2.667-7.382-3.576l-.014-.009c-10.318-4.845-24.3-10.727-29.79-9.9a10.591,10.591,0,0,0-.661-2.682c.211.856.43,1.747.661,2.682,5.281,21.449-29,53.345-52.615,65.511s-19.385-.665-15.945-18.731,28.275-34.037,32.1-43.116-8.978-4.764-21.651,7.158-8.547,30.873-28.7,50.53-69.845-8-69.845-8c18.837-7.46,39.161-37.539,36.015-43.572s-42.74,26.714-50.231,30.177S-3332.224,624.885-3345.559,594.5Z" fill="#c8dffd"/>
      <path id="Trazado_615" data-name="Trazado 615" d="M-2736.583,631.032c19.453-22.952-15.823-58.161-15.823-58.161s-60.73,1.43-67.218-5.856,51.684-11.36,51.684-11.36c-9.146-16.475-55.2-42.793-55.2-42.793s-47.11,36.129-51.606,27.471,43.347-29.862,43.347-29.862c-14.781-11.858-41.83-13.8-41.83-13.8-40.413,2.126-35.6,53.91-35.6,53.91s-16.6,12.169-43.235,15.092h0a69.979,69.979,0,0,0-12.967,1.911l2.808,4.075c1.322-.42,2.631-.781,3.925-1.073a.026.026,0,0,1,.024-.005l.056-.013c.822-.154,1.994-.37,3.43-.622h.013c3.294-.434,5.674-.833,7.34-1.2l.015,0c10.221-1.54,23.891-3.033,28.45-.889a9.6,9.6,0,0,1,1.269-2.16l-1.269,2.16c-10.141,17.272,11.395,53.865,28.767,70.55s17.017,4.44,18.705-12.151-15.761-36.9-16.735-45.778,9.034-1.816,16.962,11.825-.564,29.042,11.859,51.34,62.768,11.127,62.768,11.127c-14.438-11.36-24.315-42.76-20.019-47.189s30.227,34.278,35.84,39.228S-2756.036,653.985-2736.583,631.032Z" fill="#c8dffd"/>
      <path id="Trazado_616" data-name="Trazado 616" d="M-3220.538,186.415c20.051-33.644,78.3-5.071,78.3-5.071s23.879,75.384,35.589,80.3-7.831-68.438-7.831-68.438c24.148,4.306,75.995,49.9,75.995,49.9s-24.6,73.263-12.038,75.143,18.47-65.982,18.47-65.982c20.842,13.2,34.647,45.684,34.647,45.684,14.443,50.661-51.355,66.591-51.355,66.591s-7.977,25.574-.33,59.61h0a91.111,91.111,0,0,1,3.121,16.773l-6.2-1.736c-.041-1.806-.149-3.569-.336-5.286a.037.037,0,0,0,0-.032l-.008-.074c-.157-1.078-.386-2.612-.682-4.487V429.3s0-.005,0-.009c-.856-4.24-1.369-7.339-1.625-9.544a.052.052,0,0,1,0-.021c-2.419-13.234-6.351-30.7-10.916-35.408a12.492,12.492,0,0,0,2.124-2.473l-2.124,2.473c-16.987,19.781-71.138,8.711-99.018-5.637s-12.652-19.08,7.066-28.162,52.088,3.83,63.434,1.28-1.579-11.891-21.722-15.894-35.523,12.955-68.226,7.072-40.2-72.592-40.2-72.592c20.084,12.983,62.918,11.888,66.558,4.728s-54.97-22.749-63.434-27.572S-3240.588,220.059-3220.538,186.415Z" fill="#c8dffd" opacity="0.5"/>
      <g id="Grupo_746" data-name="Grupo 746">
        <g id="Grupo_745" data-name="Grupo 745">
          <path id="Trazado_617" data-name="Trazado 617" d="M-2996.665,247.992a15.375,15.375,0,0,1,1.165-6.029,14.093,14.093,0,0,1,3.29-4.792,15.1,15.1,0,0,1,5.113-3.163,18.849,18.849,0,0,1,6.733-1.136,19.272,19.272,0,0,1,6.783,1.136,15.016,15.016,0,0,1,5.164,3.163,14.1,14.1,0,0,1,3.29,4.792,15.4,15.4,0,0,1,1.164,6.029,15.025,15.025,0,0,1-1.164,5.978,14.189,14.189,0,0,1-3.29,4.744,14.984,14.984,0,0,1-5.164,3.162,19.249,19.249,0,0,1-6.783,1.137,18.827,18.827,0,0,1-6.733-1.137,15.069,15.069,0,0,1-5.113-3.162,14.185,14.185,0,0,1-3.29-4.744A15,15,0,0,1-2996.665,247.992Zm28.45-28.121h-24.3l-3.442-83.026h31.184Z" fill="#ff7b35"/>
        </g>
      </g>
      <g id="Grupo_748" data-name="Grupo 748">
        <g id="Grupo_747" data-name="Grupo 747">
          <path id="Trazado_618" data-name="Trazado 618" d="M-3070.033,166.829a11.784,11.784,0,0,1,.894-4.627,10.811,10.811,0,0,1,2.525-3.678,11.6,11.6,0,0,1,3.924-2.427,14.451,14.451,0,0,1,5.168-.873,14.776,14.776,0,0,1,5.206.873,11.526,11.526,0,0,1,3.963,2.427,10.825,10.825,0,0,1,2.525,3.678,11.823,11.823,0,0,1,.894,4.627,11.544,11.544,0,0,1-.894,4.589,10.9,10.9,0,0,1-2.525,3.64,11.481,11.481,0,0,1-3.963,2.427,14.776,14.776,0,0,1-5.206.873,14.451,14.451,0,0,1-5.168-.873,11.555,11.555,0,0,1-3.924-2.427,10.884,10.884,0,0,1-2.525-3.64A11.506,11.506,0,0,1-3070.033,166.829Zm21.835-21.583h-18.649l-2.642-63.722h23.933Z" fill="#a9c2ff"/>
        </g>
      </g>
      <g id="Grupo_750" data-name="Grupo 750">
        <g id="Grupo_749" data-name="Grupo 749">
          <path id="Trazado_619" data-name="Trazado 619" d="M-2707.75,274.5a11.806,11.806,0,0,1,.893-4.627,10.814,10.814,0,0,1,2.526-3.678,11.6,11.6,0,0,1,3.924-2.428,14.468,14.468,0,0,1,5.167-.872,14.8,14.8,0,0,1,5.206.872,11.534,11.534,0,0,1,3.963,2.428,10.828,10.828,0,0,1,2.526,3.678,11.823,11.823,0,0,1,.893,4.627,11.551,11.551,0,0,1-.893,4.589,10.9,10.9,0,0,1-2.526,3.64,11.487,11.487,0,0,1-3.963,2.427,14.775,14.775,0,0,1-5.206.873,14.446,14.446,0,0,1-5.167-.873,11.552,11.552,0,0,1-3.924-2.427,10.887,10.887,0,0,1-2.526-3.64A11.534,11.534,0,0,1-2707.75,274.5Zm21.835-21.583h-18.65l-2.642-63.722h23.934Z" fill="#a9c2ff"/>
        </g>
      </g>
      <g id="Grupo_752" data-name="Grupo 752">
        <g id="Grupo_751" data-name="Grupo 751">
          <path id="Trazado_620" data-name="Trazado 620" d="M-2748.772,436.659a125.677,125.677,0,0,1-13.73,20.473v0c-5.212,6.223-10.547,10.953-15.049,12.554l-.035.011c-.235.081-.467.158-.7.22a.057.057,0,0,1-.035.008l0,0a8.207,8.207,0,0,1-2.615.335c-14.776-.663-30.35-32.359-30.35-32.359a11.268,11.268,0,0,1,3.279-6.412,13.282,13.282,0,0,1,4.437-2.921s15.913,16.343,19.8,17.519c2.446.737,5.659-10.674,10.265-25.007s20.794-17.865,20.794-17.865S-2736.33,413.589-2748.772,436.659Z" fill="#f18e37"/>
          <path id="Trazado_621" data-name="Trazado 621" d="M-2762.5,457.132v0c-5.212,6.223-10.547,10.953-15.049,12.554l-.035.011-.7.22-.039.012,0,0c.162-.108,4.981-2.607,5.737-7.245.772-4.74-4.243-8.617,8.36-15.949C-2756.879,442.463-2762.5,457.132-2762.5,457.132Z" fill="#8eaff1"/>
          <path id="Trazado_622" data-name="Trazado 622" d="M-2774.038,674.528h34.632c2.481-1.682-.669-18.134-.669-18.134s-9.452-3.586-11.085,3.707-12.039,9.606-17.543,10.495C-2772.471,671.208-2773.661,673.278-2774.038,674.528Z" fill="#1d4071"/>
          <path id="Trazado_623" data-name="Trazado 623" d="M-2721.227,504.005s-1.091,20.2-2.457,43.613c-.984,16.786-2.1,35.222-3.063,49.03-.128,1.832-.255,3.583-.375,5.239-.034.513-.073,1.022-.111,1.531A307.879,307.879,0,0,1-2738,661.5c-9.736,2.052-14.134-1.7-14.134-1.7s-6.709-78.627-9.194-110.339c-1.828-23.344-3.387-57.331-3.387-57.331Z" fill="#224e9a"/>
          <path id="Trazado_624" data-name="Trazado 624" d="M-2723.684,547.618c-.984,16.786-2.1,35.222-3.063,49.03-6.366-15.015-19.37-73.539-19.37-73.539Z" fill="#1f3865"/>
          <path id="Trazado_625" data-name="Trazado 625" d="M-2722.676,674.528h34.632c2.481-1.682-.669-18.134-.669-18.134s-9.452-3.586-11.085,3.707-12.039,9.606-17.544,10.495C-2721.109,671.208-2722.3,673.278-2722.676,674.528Z" fill="#1d4071"/>
          <path id="Trazado_626" data-name="Trazado 626" d="M-2755.313,499.987s24.731,61.56,32.637,84.9c5.632,16.622,21.514,74.932,21.514,74.932s6.906,2.1,12.711-1.961c0,0,5.909-59.574-6.027-76.372-6.332-8.912-1.573-92.643-27.248-93.36S-2755.313,499.987-2755.313,499.987Z" fill="#224e9a"/>
          <path id="Trazado_627" data-name="Trazado 627" d="M-2704.673,480.187c-.1,8.754-.2,15.181-.177,16.8.07,5.3-3.318,6.492-6.809,7.3,0,0-3.225.694-7.3,1.385a80.324,80.324,0,0,1-12.187,1.3,109.926,109.926,0,0,1-31.9-5.251c-3.268,0-4.757-5.053-5.293-12.11-.363-4.776,1.111-52.4,1.3-64.3.127-8.53,4.811-16.412,6.119-17.565,12.125-10.721,47.906-9.371,54.346-1.975,1.593,1.828,2.056,19.463,2.109,38.779C-2704.426,456.994-2704.553,470.126-2704.673,480.187Z" fill="#f18e37"/>
          <path id="Trazado_628" data-name="Trazado 628" d="M-2726.157,401.537c-4.568,4.95-19.91,4.216-19.455-.1.062-.533.162-3.7.212-4.186.039-.394.077-.779.108-1.142q.156-1.6.258-2.82c.2-2.369.271-3.653.271-3.653h.015c.44-.124,10.3-2.924,15.212-4.086,1.647-.389,2.739-.594,2.719-.451C-2728.321,396.117-2724.66,399.913-2726.157,401.537Z" fill="#ffae73"/>
          <path id="Trazado_629" data-name="Trazado 629" d="M-2729.016,388.8s-4.12,4.186-16.018,4.487c.2-2.369.271-3.653.271-3.653h.015c.44-.124,10.3-2.924,15.212-4.086C-2728.672,385.9-2729.818,388.2-2729.016,388.8Z" fill="#f9924f"/>
          <path id="Trazado_630" data-name="Trazado 630" d="M-2747.779,389.045a37.191,37.191,0,0,0,6.853,1.6c5.616.758,13,.311,15.32-6.484,3.908-11.437,8.9-18.295-2.6-22.965-6.156-2.5-10.095-2.633-12.769-1.679a9.255,9.255,0,0,0-4.732,4.1C-2747.938,367.112-2752.431,387.043-2747.779,389.045Z" fill="#ffae73"/>
          <path id="Trazado_631" data-name="Trazado 631" d="M-2744.84,354.759a5.426,5.426,0,0,0,2.074,9.872c2.9.51,5.334.611,6.741,1.237,2.86,1.271,5.318,2.619,4.642,7.055-.229,1.509-.965,3.347,2.919,2.435a1.892,1.892,0,0,1,1.411.084c1.611.956-.448,5.589-1.069,6.592,0,0-.894,3.318,1.09,4.934.239.193,4.135,1.9,13.523-12.471a13.344,13.344,0,0,0,.606-12.228c-2.276-4.892-8.626-11.078-20.585-11.078A22.807,22.807,0,0,0-2744.84,354.759Z" fill="#1e3865"/>
          <path id="Trazado_632" data-name="Trazado 632" d="M-2704.673,480.187c-1.747,8.121-1.3,8.206-3.983,6.076-10.921-8.681-7.729-13.229-5.3-20.751s-6.091-19.29,0-24.3c5.957-4.9,9.352,3,9.5,3.353C-2704.426,456.994-2704.553,470.126-2704.673,480.187Z" fill="#ed750f"/>
          <path id="Trazado_633" data-name="Trazado 633" d="M-2704.94,479.143s-4.116,6.731-6.815,6.494-6.341-1.245-8.444.762-5.492,7.183-4.545,8.561,4.755.156,7.491-1.353,7.045.743,9.341-.971,7.8-8.522,7.8-8.522Z" fill="#ffae73"/>
          <path id="Trazado_634" data-name="Trazado 634" d="M-2706.57,405.781s34.165,32.147,29.728,53.532c-2.022,9.744-8.295,17.965-25.012,31.275,0,0-7.908-5.466-9.644-9.9,0,0,15.174-21.373,14.587-25.012-.718-4.454-11.076-15.624-14.793-17.36S-2715.079,409.511-2706.57,405.781Z" fill="#f18e37"/>
          <path id="Trazado_635" data-name="Trazado 635" d="M-2711.755,485.637s-3.6-1.575-4.758-2.25-.9.417-.547.964a4,4,0,0,0,2.732,1.9A4.523,4.523,0,0,0-2711.755,485.637Z" fill="#ffae73"/>
        </g>
      </g>
      <g id="Grupo_754" data-name="Grupo 754">
        <path id="Trazado_636" data-name="Trazado 636" d="M-3312.484,415.779c-1.235-2.382,26.948-10.96,27.394,12.55,0,0,52.8-1.3,27.586-30.724-8.726-10.187-7.829-18.61-7.567-26.451s-5.436-30.631-24.977-28.336c0,0-5.117-2.082-11.5,1.231C-3316.076,351.584-3348.612,424.449-3312.484,415.779Z" fill="#0b3563"/>
        <path id="Trazado_637" data-name="Trazado 637" d="M-3226.172,437.359s3.437-5.231,6.206-5.334,7.9-1.538,7.488-.513-3.59,1.129-3.9,1.744,4.718,1.539,6.154,1.642,4.821,0,4.719.717-6.1,3.693-10.334,3.283a28.717,28.717,0,0,0-9.464,1.231Z" fill="#ffae73"/>
        <path id="Trazado_638" data-name="Trazado 638" d="M-3275.871,439.052a51.543,51.543,0,0,0,5.256,7.949c4.083,5.114,10.38,11.023,18.285,12.189a19.627,19.627,0,0,0,10.864-1.763l.012,0c9.6-4.262,16.821-14.064,16.821-14.064a7.9,7.9,0,0,0-1.077-7.746s-19.388,4.361-21.234,3.438-13.2-26.108-15.243-30.3c-4.347-8.916-11.244-11.473-11.244-11.473Z" fill="#bbce00"/>
        <path id="Trazado_639" data-name="Trazado 639" d="M-3270.615,447c4.083,5.114,10.38,11.023,18.285,12.189a19.627,19.627,0,0,0,10.864-1.763c-.376.049-9.965,1.234-13.787-5.6-3.9-6.976-8.115-18.055-13.907-14.362C-3271.659,439.055-3271.548,443.016-3270.615,447Z" fill="#a4ad1b"/>
        <path id="Trazado_640" data-name="Trazado 640" d="M-3348.2,648.329s-5.915,5.4-4.761,9.235,6.493,6.393,7.214,11.082,3.608,7.246,6.205,7.246h12.382s1.912-3.3-2.7-4.294-6.359-6.5-6.07-11.619a90.041,90.041,0,0,0-.433-11.934l-9.811-2.273Z" fill="#173359"/>
        <path id="Trazado_641" data-name="Trazado 641" d="M-3298.131,650.621s-2.128,22.871.469,24.15l33.238-.068s0-3.836-5.339-4.689-14.717-3.977-16.3-10.939S-3298.131,650.621-3298.131,650.621Z" fill="#173359"/>
        <path id="Trazado_642" data-name="Trazado 642" d="M-3323.7,423.625a132.436,132.436,0,0,0,0,15.363c.33,5.555,5.949,12.995,6.746,14.835,2,4.616,4.256,5.367,4.256,5.367l17.451,4.278,6.137,1.5,19.35-5.78s8.814-24.6,5.275-38.448a106.414,106.414,0,0,0-8.946-23.465s-13.118-5.178-36.35-1.311Z" fill="#bbce00"/>
        <path id="Trazado_643" data-name="Trazado 643" d="M-3318.592,441.255c.33,5.555.841,10.728,1.638,12.568,2,4.616,4.256,5.367,4.256,5.367l17.451,4.278,7.58-2.228s-25.3-3.835-22.5-25.6Z" fill="#f8caa4"/>
        <path id="Trazado_644" data-name="Trazado 644" d="M-3270.991,462.924s9.583,29.828,10.2,39.983-18.318,144.266-19.08,148.945c-.718,4.411-6.195,7.223-6.195,7.223a8.287,8.287,0,0,1-6.115.47c-4.988-1.408-6.565-3.094-6.565-3.094s-7.458-95.647-2.842-129.813a541.362,541.362,0,0,0,4.67-63.714Z" fill="#1e3865"/>
        <path id="Trazado_645" data-name="Trazado 645" d="M-3311.591,462.035s-14.617,19.613-15.98,32.871-2.138,59.829-5.041,72.754-13.57,37.8-13.57,78.112a8.039,8.039,0,0,0,4.532,3.541,37.1,37.1,0,0,0,3.985,1.1,6.266,6.266,0,0,0,7.009-3.327c7.212-14.52,30.183-61.35,31.361-71.071.834-6.879,8.087-52.41,23.908-79.126,3.8-6.414-2.331-31.921-2.331-31.921Z" fill="#25468f"/>
        <path id="Trazado_646" data-name="Trazado 646" d="M-3269.46,458.32s-3.847,3.043-11.489,3.2c-9.129.183-31.748-2.327-31.748-2.327a18.723,18.723,0,0,0-.965,5.773s27.627,6.968,43.633,1.017C-3270.029,465.98-3267.964,462.1-3269.46,458.32Z" fill="#1e3865"/>
        <g id="Grupo_753" data-name="Grupo 753">
          <path id="Trazado_647" data-name="Trazado 647" d="M-3282.925,464.669a4.47,4.47,0,0,1,4.166-4.714,4.469,4.469,0,0,1,4.165,4.714,4.469,4.469,0,0,1-4.165,4.714A4.47,4.47,0,0,1-3282.925,464.669Zm1.381,0a3.1,3.1,0,0,0,2.785,3.333,3.1,3.1,0,0,0,2.785-3.333,3.1,3.1,0,0,0-2.785-3.334A3.1,3.1,0,0,0-3281.544,464.669Z" fill="#fff"/>
        </g>
        <rect id="Rectángulo_275" data-name="Rectángulo 275" width="51.373" height="37.53" rx="3.892" transform="translate(-3342.438 463.716) rotate(-48.952)" fill="#ff7b35"/>
        <path id="Trazado_648" data-name="Trazado 648" d="M-3306.314,463.806c.319.084,11.917,1.447,11.918,3.844,0,2.77-3.4,6.483-6.6,6.308-1.3-.071-7.281-5.573-7.281-5.573Z" fill="#ffae73"/>
        <path id="Trazado_649" data-name="Trazado 649" d="M-3300.358,394.7c1.319-3.2,2.089-8.075,2.068-14.107l.876.172,14.732,2.917s-.335,4.637-.345,9v.109c-.018,3.793,2.562,7.6-3.522,9.1C-3288.43,402.361-3303.129,401.418-3300.358,394.7Z" fill="#ffae73"/>
        <path id="Trazado_650" data-name="Trazado 650" d="M-3282.682,383.679s-.335,4.637-.345,9c-8.244-.232-12.6-7.752-14.387-11.921Z" fill="#f48f4e"/>
        <path id="Trazado_651" data-name="Trazado 651" d="M-3279.929,387.815s-19.505.322-19.518-11.828-2.54-20.291,9.913-21.01,14.877,3.914,15.868,7.969S-3274.855,387.418-3279.929,387.815Z" fill="#ffae73"/>
        <path id="Trazado_652" data-name="Trazado 652" d="M-3280.651,354.679s-5.34,14.254-13.536,16.362-11.751-.088-11.751-.088a23.206,23.206,0,0,0,7.591-13.712S-3284.679,347.895-3280.651,354.679Z" fill="#0b3563"/>
        <path id="Trazado_653" data-name="Trazado 653" d="M-3281.974,355.837s3.96,1.48,5.59,4.368a19.648,19.648,0,0,1,2.636,11.154s4.024-9.688-.5-15.169C-3279.041,350.379-3281.974,355.837-3281.974,355.837Z" fill="#0b3563"/>
        <path id="Trazado_654" data-name="Trazado 654" d="M-3306.314,463.806a13.262,13.262,0,0,1,4.637-.633c1.858.26,3.232-.037,3.232.483s-2.4.763-2.908,1.013S-3306.314,463.806-3306.314,463.806Z" fill="#ffae73"/>
        <path id="Trazado_655" data-name="Trazado 655" d="M-3309.781,395.966s-13.846.97-19.153,13.872-15.377,34.564-15.377,38.208,5.625,14.878,35.834,21.337c0,0,3.125-3.287,2.935-5.886,0,0-18.857-16.2-18.807-18.09.1-3.581,3.092-8.308,19.648-24.87C-3300.2,416.035-3309.781,395.966-3309.781,395.966Z" fill="#bbce00"/>
      </g>
      <g id="Grupo_757" data-name="Grupo 757">
        <g id="Grupo_756" data-name="Grupo 756">
          <path id="Trazado_656" data-name="Trazado 656" d="M-2922.844,286.026h-149.62a13.645,13.645,0,0,0-9.648,4l-105.8,105.8a13.643,13.643,0,0,0-4,9.648v149.62a13.643,13.643,0,0,0,4,9.648l105.8,105.8a13.645,13.645,0,0,0,9.648,4h149.62a13.643,13.643,0,0,0,9.648-4l105.8-105.8a13.648,13.648,0,0,0,4-9.648V405.467a13.648,13.648,0,0,0-4-9.648l-105.8-105.8A13.643,13.643,0,0,0-2922.844,286.026Z" fill="#ff7b35"/>
          <g id="Grupo_755" data-name="Grupo 755">
            <path id="Trazado_657" data-name="Trazado 657" d="M-2933.37,655.08h-128.568a19.482,19.482,0,0,1-13.864-5.742l-90.912-90.913a19.476,19.476,0,0,1-5.743-13.863V415.992a19.48,19.48,0,0,1,5.743-13.864l90.911-90.911a19.481,19.481,0,0,1,13.865-5.743h128.568a19.476,19.476,0,0,1,13.865,5.743l90.912,90.912a19.476,19.476,0,0,1,5.742,13.863v128.57a19.475,19.475,0,0,1-5.742,13.863l-90.912,90.912A19.481,19.481,0,0,1-2933.37,655.08ZM-3061.938,318.8a6.235,6.235,0,0,0-4.438,1.839l-90.911,90.912a6.233,6.233,0,0,0-1.838,4.436v128.57a6.233,6.233,0,0,0,1.838,4.436l90.912,90.913a6.238,6.238,0,0,0,4.437,1.837h128.568a6.239,6.239,0,0,0,4.438-1.837L-2838.02,549a6.235,6.235,0,0,0,1.837-4.437V415.992a6.231,6.231,0,0,0-1.837-4.436l-90.912-90.913a6.236,6.236,0,0,0-4.438-1.838Z" fill="#ffe3d1"/>
          </g>
          <path id="Trazado_658" data-name="Trazado 658" d="M-2893.958,485.17l-2.619-2.268a15.874,15.874,0,0,0-22.324,1.6l-14.794,17.087a3.488,3.488,0,0,1-6.125-2.283h0a37.5,37.5,0,0,0-.216-4.011V387.728a12.883,12.883,0,0,0-12.845-12.845h-.948a12.884,12.884,0,0,0-12.846,12.845V457.74a3.076,3.076,0,0,1-3.075,3.076h0a3.4,3.4,0,0,1-3.4-3.4V374.164a12.452,12.452,0,0,0-12.415-12.416h-1.808a12.452,12.452,0,0,0-12.416,12.416v83.8a2.848,2.848,0,0,1-2.848,2.848h0a3.625,3.625,0,0,1-3.624-3.624V390.384a12.882,12.882,0,0,0-12.845-12.845h-.949a12.882,12.882,0,0,0-12.845,12.845v67.349a3.082,3.082,0,0,1-3.082,3.083h0a3.39,3.39,0,0,1-3.39-3.39V404.733a12.883,12.883,0,0,0-12.845-12.845h-.949a12.882,12.882,0,0,0-12.845,12.845v92.518c0,.256.01.511.025.764-.015.431-.025.862-.025,1.3v50.924a37.742,37.742,0,0,0,37.632,37.632h50.924A37.683,37.683,0,0,0-2945.8,570.53a79.6,79.6,0,0,1,6.67-9.005l46.782-54.032A15.872,15.872,0,0,0-2893.958,485.17Z" fill="#ffe3d1"/>
        </g>
      </g>
    </g>
  </g>
</svg>
