<?xml version="1.0" encoding="utf-8"?>
<!-- Generator: Adobe Illustrator 26.0.2, SVG Export Plug-In . SVG Version: 6.00 Build 0)  -->
<svg version="1.1" id="Capa_1" xmlns="http://www.w3.org/2000/svg" xmlns:xlink="http://www.w3.org/1999/xlink" x="0px" y="0px"
	 viewBox="0 0 1920 1080" style="enable-background:new 0 0 1920 1080;" xml:space="preserve">
<style type="text/css">
	.st0{fill:#003D75;}
	.st1{fill:#024078;}
	.st2{fill:#04437B;}
	.st3{fill:#05467E;}
	.st4{fill:#074981;}
	.st5{fill:#094C84;}
	.st6{fill:#0B5087;}
	.st7{fill:#0D5389;}
	.st8{fill:#0F568C;}
	.st9{fill:#10598F;}
	.st10{fill:#125C92;}
	.st11{fill:#145F95;}
	.st12{fill:#166298;}
	.st13{fill:#18659B;}
	.st14{fill:#1A689E;}
	.st15{fill:#1B6BA1;}
	.st16{fill:#1D6FA4;}
	.st17{fill:#1F72A7;}
	.st18{fill:#2175AA;}
	.st19{fill:#2378AD;}
	.st20{fill:#257BB0;}
	.st21{fill:#267EB2;}
	.st22{fill:#2881B5;}
	.st23{fill:#2A84B8;}
	.st24{fill:#2C87BB;}
	.st25{fill:#2E8ABE;}
	.st26{fill:#308EC1;}
	.st27{fill:#3191C4;}
	.st28{fill:#3394C7;}
	.st29{fill:#3597CA;}
	.st30{fill:#379ACD;}
	.st31{fill:#399DD0;}
	.st32{fill:#3BA0D3;}
	.st33{fill:#3CA3D6;}
	.st34{fill:#3EA6D9;}
	.st35{fill:#40A9DB;}
	.st36{fill:#42ADDE;}
	.st37{fill:#44B0E1;}
	.st38{fill:#46B3E4;}
	.st39{fill:#47B6E7;}
	.st40{fill:#49B9EA;}
	.st41{fill:#4BBCED;}
	.st42{fill:#FFFFFF;}
	.st43{fill:#E8F2FA;}
	.st44{opacity:0.5;}
	.st45{opacity:0.3;fill:#29ACE3;enable-background:new    ;}
	.st46{fill:#2D3554;}
	.st47{opacity:0.5;fill:#29ACE3;enable-background:new    ;}
	.st48{fill:#29ACE3;}
	.st49{opacity:0.3;}
	.st50{fill:#127293;}
	.st51{fill:#1D4071;}
	.st52{fill:#1F3865;}
	.st53{fill:#FFAE73;}
	.st54{fill:#F9924F;}
	.st55{fill:#1E3865;}
	.st56{fill:#0B3563;}
	.st57{fill:#002E51;}
	.st58{fill:#173359;}
	.st59{fill:#F8CAA4;}
	.st60{fill:#FF7B35;}
	.st61{fill:#F48F4E;}
</style>
<g>
	<g>
		<g>
			<g>
				<g>
					<path class="st0" d="M1182.2,818.7H742.4c-13.3,0-24-17.1-24-38.1v-6.3c0-21.1,10.8-38.1,24-38.1h439.8c13.3,0,24,17.1,24,38.1
						v6.3C1206.3,801.6,1195.5,818.7,1182.2,818.7z"/>
				</g>
				<path class="st1" d="M1182.1,818.5H742.3c-13.3,0-24-17.1-24-38.1v-6.3c0-21.1,10.8-38.1,24-38.1h439.8c13.3,0,24,17.1,24,38.1
					v6.3C1206.2,801.4,1195.4,818.5,1182.1,818.5z"/>
				<path class="st2" d="M1182,818.2H742.2c-13.3,0-24-17.1-24-38.1v-6.3c0-21.1,10.8-38.1,24-38.1H1182c13.3,0,24,17.1,24,38.1v6.3
					C1206,801.1,1195.3,818.2,1182,818.2z"/>
				<path class="st3" d="M1181.9,817.9H742.1c-13.3,0-24-17.1-24-38.1v-6.3c0-21.1,10.8-38.1,24-38.1h439.8c13.3,0,24,17.1,24,38.1
					v6.3C1205.9,800.8,1195.2,817.9,1181.9,817.9z"/>
				<path class="st4" d="M1181.7,817.7H741.9c-13.3,0-24-17.1-24-38.1v-6.3c0-21.1,10.8-38.1,24-38.1h439.8c13.3,0,24,17.1,24,38.1
					v6.3C1205.8,800.6,1195,817.7,1181.7,817.7z"/>
				<path class="st5" d="M1181.7,817.4H741.9c-13.3,0-24-17.1-24-38.1V773c0-21.1,10.8-38.1,24-38.1h439.8c13.3,0,24,17.1,24,38.1
					v6.3C1205.7,800.3,1195,817.4,1181.7,817.4z"/>
				<path class="st6" d="M1181.5,817.1H741.7c-13.3,0-24-17.1-24-38.1v-6.3c0-21.1,10.8-38.1,24-38.1h439.8c13.3,0,24,17.1,24,38.1
					v6.3C1205.6,800,1194.9,817.1,1181.5,817.1z"/>
				<path class="st7" d="M1181.4,816.9H741.6c-13.3,0-24-17.1-24-38.1v-6.3c0-21.1,10.8-38.1,24-38.1h439.8c13.3,0,24,17.1,24,38.1
					v6.3C1205.5,799.8,1194.7,816.9,1181.4,816.9z"/>
				<path class="st8" d="M1181.3,816.6H741.5c-13.3,0-24-17.1-24-38.1v-6.3c0-21.1,10.8-38.1,24-38.1h439.8c13.3,0,24,17.1,24,38.1
					v6.3C1205.3,799.5,1194.6,816.6,1181.3,816.6z"/>
				<path class="st9" d="M1181.2,816.3H741.4c-13.3,0-24-17.1-24-38.1v-6.3c0-21.1,10.8-38.1,24-38.1h439.8c13.3,0,24,17.1,24,38.1
					v6.3C1205.2,799.2,1194.5,816.3,1181.2,816.3z"/>
				<path class="st10" d="M1181.1,816.1H741.3c-13.3,0-24-17.1-24-38.1v-6.3c0-21.1,10.8-38.1,24-38.1h439.8c13.3,0,24,17.1,24,38.1
					v6.3C1205.1,799,1194.4,816.1,1181.1,816.1z"/>
				<path class="st11" d="M1181,815.8H741.2c-13.3,0-24-17.1-24-38.1v-6.3c0-21.1,10.8-38.1,24-38.1H1181c13.3,0,24,17.1,24,38.1
					v6.3C1205,798.7,1194.3,815.8,1181,815.8z"/>
				<path class="st12" d="M1180.8,815.5H741.1c-13.3,0-24-17.1-24-38.1v-6.3c0-21.1,10.8-38.1,24-38.1h439.8c13.3,0,24,17.1,24,38.1
					v6.3C1204.9,798.4,1194.2,815.5,1180.8,815.5z"/>
				<path class="st13" d="M1180.7,815.3H740.9c-13.3,0-24-17.1-24-38.1v-6.3c0-21.1,10.8-38.1,24-38.1h439.8c13.3,0,24,17.1,24,38.1
					v6.3C1204.8,798.2,1194,815.3,1180.7,815.3z"/>
				<path class="st14" d="M1180.6,815H740.8c-13.3,0-24-17.1-24-38.1v-6.3c0-21.1,10.8-38.1,24-38.1h439.8c13.3,0,24,17.1,24,38.1
					v6.3C1204.6,797.9,1193.9,815,1180.6,815z"/>
				<path class="st15" d="M1180.5,814.7H740.7c-13.3,0-24-17.1-24-38.1v-6.3c0-21.1,10.8-38.1,24-38.1h439.8c13.3,0,24,17.1,24,38.1
					v6.3C1204.6,797.6,1193.8,814.7,1180.5,814.7z"/>
				<path class="st16" d="M1180.4,814.5H740.6c-13.3,0-24-17.1-24-38.1v-6.3c0-21.1,10.8-38.1,24-38.1h439.8c13.3,0,24,17.1,24,38.1
					v6.3C1204.4,797.4,1193.7,814.5,1180.4,814.5z"/>
				<path class="st17" d="M1180.3,814.2H740.5c-13.3,0-24-17.1-24-38.1v-6.3c0-21.1,10.8-38.1,24-38.1h439.8c13.3,0,24,17.1,24,38.1
					v6.3C1204.3,797.1,1193.6,814.2,1180.3,814.2z"/>
				<path class="st18" d="M1180.1,813.9H740.4c-13.3,0-24-17.1-24-38.1v-6.3c0-21.1,10.8-38.1,24-38.1h439.8c13.3,0,24,17.1,24,38.1
					v6.3C1204.2,796.8,1193.5,813.9,1180.1,813.9z"/>
				<path class="st19" d="M1180,813.7H740.2c-13.3,0-24-17.1-24-38.1v-6.3c0-21.1,10.8-38.1,24-38.1H1180c13.3,0,24,17.1,24,38.1
					v6.3C1204.1,796.6,1193.3,813.7,1180,813.7z"/>
				<path class="st20" d="M1180,813.4H740.2c-13.3,0-24-17.1-24-38.1V769c0-21.1,10.8-38.1,24-38.1H1180c13.3,0,24,17.1,24,38.1v6.3
					C1204,796.3,1193.3,813.4,1180,813.4z"/>
				<path class="st21" d="M1179.8,813.1H740c-13.3,0-24-17.1-24-38.1v-6.3c0-21.1,10.8-38.1,24-38.1h439.8c13.3,0,24,17.1,24,38.1
					v6.3C1203.9,796,1193.1,813.1,1179.8,813.1z"/>
				<path class="st22" d="M1179.7,812.9H739.9c-13.3,0-24-17.1-24-38.1v-6.3c0-21.1,10.8-38.1,24-38.1h439.8c13.3,0,24,17.1,24,38.1
					v6.3C1203.8,795.8,1193,812.9,1179.7,812.9z"/>
				<path class="st23" d="M1179.6,812.6H739.8c-13.3,0-24-17.1-24-38.1v-6.3c0-21.1,10.8-38.1,24-38.1h439.8c13.3,0,24,17.1,24,38.1
					v6.3C1203.6,795.5,1192.9,812.6,1179.6,812.6z"/>
				<path class="st24" d="M1179.5,812.3H739.7c-13.3,0-24-17.1-24-38.1v-6.3c0-21.1,10.8-38.1,24-38.1h439.8c13.3,0,24,17.1,24,38.1
					v6.3C1203.5,795.2,1192.8,812.3,1179.5,812.3z"/>
				<path class="st25" d="M1179.4,812.1H739.6c-13.3,0-24-17.1-24-38.1v-6.3c0-21.1,10.8-38.1,24-38.1h439.8c13.3,0,24,17.1,24,38.1
					v6.3C1203.4,795,1192.7,812.1,1179.4,812.1z"/>
				<path class="st26" d="M1179.3,811.8H739.5c-13.3,0-24-17.1-24-38.1v-6.3c0-21.1,10.8-38.1,24-38.1h439.8c13.3,0,24,17.1,24,38.1
					v6.3C1203.3,794.7,1192.6,811.8,1179.3,811.8z"/>
				<path class="st27" d="M1179.1,811.5H739.3c-13.3,0-24-17.1-24-38.1v-6.3c0-21.1,10.8-38.1,24-38.1h439.8c13.3,0,24,17.1,24,38.1
					v6.3C1203.2,794.4,1192.5,811.5,1179.1,811.5z"/>
				<path class="st28" d="M1179,811.3H739.2c-13.3,0-24-17.1-24-38.1v-6.3c0-21.1,10.8-38.1,24-38.1H1179c13.3,0,24,17.1,24,38.1
					v6.3C1203.1,794.2,1192.3,811.3,1179,811.3z"/>
				<path class="st29" d="M1178.9,811H739.2c-13.3,0-24-17.1-24-38.1v-6.3c0-21.1,10.8-38.1,24-38.1h439.8c13.3,0,24,17.1,24,38.1
					v6.3C1203,793.9,1192.3,811,1178.9,811z"/>
				<path class="st30" d="M1178.8,810.7H739c-13.3,0-24-17.1-24-38.1v-6.3c0-21.1,10.8-38.1,24-38.1h439.8c13.3,0,24,17.1,24,38.1
					v6.3C1202.9,793.6,1192.1,810.7,1178.8,810.7z"/>
				<path class="st31" d="M1178.7,810.5H738.9c-13.3,0-24-17.1-24-38.1v-6.3c0-21.1,10.8-38.1,24-38.1h439.8c13.3,0,24,17.1,24,38.1
					v6.3C1202.7,793.4,1192,810.5,1178.7,810.5z"/>
				<path class="st32" d="M1178.6,810.2H738.8c-13.3,0-24-17.1-24-38.1v-6.3c0-21.1,10.8-38.1,24-38.1h439.8c13.3,0,24,17.1,24,38.1
					v6.3C1202.6,793.1,1191.9,810.2,1178.6,810.2z"/>
				<path class="st33" d="M1178.4,809.9H738.7c-13.3,0-24-17.1-24-38.1v-6.3c0-21.1,10.8-38.1,24-38.1h439.8c13.3,0,24,17.1,24,38.1
					v6.3C1202.5,792.8,1191.8,809.9,1178.4,809.9z"/>
				<path class="st34" d="M1178.4,809.7H738.6c-13.3,0-24-17.1-24-38.1v-6.3c0-21.1,10.8-38.1,24-38.1h439.8c13.3,0,24,17.1,24,38.1
					v6.3C1202.4,792.6,1191.7,809.7,1178.4,809.7z"/>
				<path class="st35" d="M1178.3,809.4H738.5c-13.3,0-24-17.1-24-38.1V765c0-21.1,10.8-38.1,24-38.1h439.8c13.3,0,24,17.1,24,38.1
					v6.3C1202.3,792.3,1191.6,809.4,1178.3,809.4z"/>
				<path class="st36" d="M1178.1,809.1H738.3c-13.3,0-24-17.1-24-38.1v-6.3c0-21.1,10.8-38.1,24-38.1h439.8c13.3,0,24,17.1,24,38.1
					v6.3C1202.2,792,1191.4,809.1,1178.1,809.1z"/>
				<path class="st37" d="M1178,808.9H738.2c-13.3,0-24-17.1-24-38.1v-6.3c0-21.1,10.8-38.1,24-38.1H1178c13.3,0,24,17.1,24,38.1
					v6.3C1202,791.8,1191.3,808.9,1178,808.9z"/>
				<path class="st38" d="M1177.9,808.6H738.1c-13.3,0-24-17.1-24-38.1v-6.3c0-21.1,10.8-38.1,24-38.1h439.8c13.3,0,24,17.1,24,38.1
					v6.3C1201.9,791.5,1191.2,808.6,1177.9,808.6z"/>
				<path class="st39" d="M1177.8,808.3H738c-13.3,0-24-17.1-24-38.1v-6.3c0-21.1,10.8-38.1,24-38.1h439.8c13.3,0,24,17.1,24,38.1
					v6.3C1201.9,791.2,1191.1,808.3,1177.8,808.3z"/>
				<path class="st40" d="M1177.7,808.1H737.9c-13.3,0-24-17.1-24-38.1v-6.3c0-21.1,10.8-38.1,24-38.1h439.8c13.3,0,24,17.1,24,38.1
					v6.3C1201.7,791,1191,808.1,1177.7,808.1z"/>
				<g>
					<path class="st41" d="M1177.6,807.8H737.8c-13.3,0-24-17.1-24-38.1v-6.3c0-21.1,10.8-38.1,24-38.1h439.8
						c13.3,0,24,17.1,24,38.1v6.3C1201.6,790.7,1190.9,807.8,1177.6,807.8z"/>
				</g>
			</g>
			<g>
				<g>
					<path class="st42" d="M795.6,744.4h7.5v40.1h23.3v7.2h-30.9L795.6,744.4L795.6,744.4z"/>
					<path class="st42" d="M831,777.7c0-2.8,0.7-5.3,2-7.5c1.3-2.2,3.2-4,5.5-5.3c2.3-1.3,5-1.9,8.1-1.9c3,0,5.6,0.6,7.9,1.9
						c2.3,1.3,4.1,3,5.3,5.2c1.3,2.2,1.9,4.7,1.9,7.5s-0.6,5.3-1.9,7.6c-1.3,2.2-3.1,4-5.3,5.3c-2.3,1.3-5,2-8.1,2
						c-2.9,0-5.6-0.6-7.9-1.8c-2.3-1.2-4.1-2.9-5.5-5.1C831.7,783.4,831,780.7,831,777.7z M838.3,777.8c0,1.6,0.4,3.1,1.1,4.5
						c0.7,1.3,1.7,2.4,2.9,3.1c1.2,0.8,2.5,1.1,4.1,1.1s3-0.4,4.2-1.1c1.2-0.8,2.1-1.8,2.8-3.1c0.7-1.3,1-2.8,1-4.5
						c0-1.6-0.3-3.1-1-4.4c-0.7-1.3-1.6-2.4-2.8-3.2c-1.2-0.8-2.6-1.2-4.1-1.2c-1.6,0-2.9,0.4-4.1,1.2s-2.1,1.8-2.9,3.2
						C838.7,774.6,838.3,776.1,838.3,777.8z"/>
					<path class="st42" d="M894.8,792.3c-2.1,0-4.1-0.4-6-1.1c-1.9-0.7-3.5-1.8-4.7-3.3l3.1-4c1.2,1.1,2.4,2,3.6,2.5
						c1.2,0.5,2.3,0.8,3.4,0.8c0.8,0,1.6-0.1,2.2-0.3c0.7-0.2,1.2-0.5,1.6-0.9c0.4-0.5,0.6-1.1,0.6-1.8c0-0.9-0.3-1.5-0.9-2
						s-1.4-0.9-2.3-1.2c-1-0.3-2-0.6-3-1c-2.4-0.7-4.2-1.8-5.3-3.3c-1.2-1.4-1.8-3.1-1.8-4.9c0-1.4,0.4-2.8,1.1-4.2
						c0.7-1.3,1.9-2.4,3.4-3.3c1.5-0.8,3.4-1.3,5.7-1.3c2,0,3.8,0.2,5.4,0.7c1.6,0.5,3,1.2,4.4,2.3l-2.8,4.4
						c-0.8-0.7-1.8-1.3-2.8-1.8c-1-0.4-2-0.7-2.9-0.7c-0.8,0-1.5,0.1-2.1,0.3c-0.6,0.3-1.1,0.6-1.5,1s-0.6,0.9-0.6,1.5
						c0,0.9,0.2,1.6,0.9,2.1c0.6,0.5,1.4,0.9,2.4,1.2s2,0.6,3,1c1.3,0.4,2.5,0.9,3.5,1.6c1,0.7,1.9,1.5,2.5,2.5s0.9,2.2,0.9,3.6
						c0,1.6-0.4,3.2-1.2,4.6c-0.8,1.5-2.1,2.6-3.7,3.5C899.4,791.9,897.3,792.3,894.8,792.3z"/>
					<path class="st42" d="M925.3,792.5c-3.2,0-5.9-0.6-8.2-1.9c-2.3-1.3-4.1-3-5.3-5.2c-1.2-2.2-1.8-4.7-1.8-7.6
						c0-2.7,0.7-5.2,2.1-7.4c1.4-2.2,3.3-4,5.6-5.3c2.4-1.3,5-2,7.8-2c3.8,0,6.9,1.1,9.3,3.3c2.4,2.2,4.1,5.3,4.9,9.2l-22.2,7.5
						l-1.7-4.1l17.3-6.2l-1.4,0.8c-0.5-1.3-1.3-2.4-2.3-3.3c-1.1-1-2.6-1.5-4.5-1.5c-1.5,0-2.9,0.4-4,1.1c-1.2,0.7-2.1,1.7-2.8,3
						c-0.7,1.3-1,2.8-1,4.5c0,1.9,0.4,3.5,1.1,4.8s1.7,2.3,3,3.1c1.3,0.7,2.7,1.1,4.3,1.1c1.1,0,2.2-0.2,3.3-0.6
						c1-0.4,2-0.9,2.9-1.6l3.3,5.4c-1.5,0.9-3.1,1.6-4.7,2.2C928.6,792.2,926.9,792.5,925.3,792.5z"/>
					<path class="st42" d="M951.6,764.3l0.7,5.9l-0.3-0.8c0.9-1.9,2.3-3.4,4.2-4.6c1.9-1.1,4.2-1.7,6.8-1.7s4.7,0.8,6.4,2.3
						c1.7,1.5,2.6,3.5,2.6,5.9v20.5h-7.3V774c0-1.4-0.4-2.5-1.2-3.3c-0.7-0.8-1.9-1.3-3.5-1.3c-1.5,0-2.8,0.4-4,1.3
						c-1.2,0.9-2.1,2.1-2.8,3.6c-0.7,1.5-1,3.3-1,5.4v12.2h-7.1v-27.5h6.5V764.3z"/>
					<path class="st42" d="M982.9,752.2h7.3v12.1h7.2v5.7h-7.2v21.8h-7.3V770h-4.7v-5.7h4.7V752.2z"/>
					<path class="st42" d="M1002.4,754.3c0-1.1,0.4-2,1.3-2.7c0.9-0.7,1.9-1.1,2.9-1.1s2,0.4,2.8,1.1c0.8,0.7,1.3,1.6,1.3,2.7
						c0,1.2-0.4,2.1-1.3,2.8c-0.8,0.7-1.8,1.1-2.8,1.1s-2-0.4-2.9-1.1C1002.8,756.4,1002.4,755.5,1002.4,754.3z M1002.7,764.3h7.3
						v27.5h-7.3V764.3z"/>
					<path class="st42" d="M1024.7,764.3l0.6,5.6l-0.2-0.5c1-2,2.5-3.6,4.3-4.7c1.8-1.1,3.9-1.7,6.2-1.7c1.6,0,2.9,0.2,4.1,0.7
						s2.2,1.1,3,2s1.3,2,1.5,3.3l-0.3,0.2c1.1-1.9,2.6-3.4,4.4-4.5s3.7-1.7,5.7-1.7c2.7,0,4.9,0.8,6.4,2.3c1.6,1.5,2.4,3.5,2.5,6
						v20.5h-7.2v-17.6c0-1.3-0.3-2.5-0.9-3.3c-0.5-0.9-1.5-1.4-2.9-1.5c-1.6,0-2.9,0.5-4.1,1.5c-1.1,1-2,2.2-2.6,3.8
						c-0.6,1.5-0.9,3.2-0.9,4.8v12.4h-7.3v-17.6c0-1.3-0.3-2.5-0.9-3.3c-0.5-0.9-1.5-1.4-3-1.5c-1.5,0-2.8,0.5-4,1.5
						c-1.1,1-2,2.2-2.6,3.8c-0.6,1.5-0.9,3.2-0.9,4.9V792h-7.3v-27.5h6.4L1024.7,764.3L1024.7,764.3z"/>
					<path class="st42" d="M1068.7,777.7c0-2.8,0.7-5.3,2-7.5s3.2-4,5.5-5.3s5-1.9,8.1-1.9c3,0,5.6,0.6,7.9,1.9
						c2.3,1.3,4.1,3,5.3,5.2c1.3,2.2,1.9,4.7,1.9,7.5s-0.6,5.3-1.9,7.6c-1.3,2.2-3.1,4-5.3,5.3c-2.3,1.3-5,2-8.1,2
						c-2.9,0-5.6-0.6-7.9-1.8s-4.1-2.9-5.5-5.1C1069.4,783.4,1068.7,780.7,1068.7,777.7z M1076,777.8c0,1.6,0.4,3.1,1.1,4.5
						c0.7,1.3,1.7,2.4,2.9,3.1c1.2,0.8,2.5,1.1,4.1,1.1s3-0.4,4.2-1.1c1.2-0.8,2.1-1.8,2.8-3.1c0.7-1.3,1-2.8,1-4.5
						c0-1.6-0.3-3.1-1-4.4c-0.7-1.3-1.6-2.4-2.8-3.2c-1.2-0.8-2.6-1.2-4.1-1.2c-1.6,0-2.9,0.4-4.1,1.2s-2.1,1.8-2.9,3.2
						C1076.3,774.6,1076,776.1,1076,777.8z"/>
					<path class="st42" d="M1113.5,792.3c-2.1,0-4.1-0.4-6-1.1c-1.9-0.7-3.5-1.8-4.7-3.3l3.1-4c1.2,1.1,2.4,2,3.6,2.5
						s2.3,0.8,3.4,0.8c0.8,0,1.6-0.1,2.2-0.3c0.7-0.2,1.2-0.5,1.6-0.9c0.4-0.5,0.6-1.1,0.6-1.8c0-0.9-0.3-1.5-0.9-2
						s-1.4-0.9-2.3-1.2c-1-0.3-2-0.6-3-1c-2.4-0.7-4.2-1.8-5.3-3.3c-1.2-1.4-1.8-3.1-1.8-4.9c0-1.4,0.4-2.8,1.1-4.2
						c0.7-1.3,1.9-2.4,3.4-3.3c1.5-0.8,3.4-1.3,5.7-1.3c2,0,3.8,0.2,5.4,0.7s3,1.2,4.4,2.3l-2.8,4.4c-0.8-0.7-1.8-1.3-2.8-1.8
						c-1-0.4-2-0.7-2.9-0.7c-0.8,0-1.5,0.1-2.1,0.3c-0.6,0.3-1.1,0.6-1.5,1s-0.6,0.9-0.6,1.5c0,0.9,0.2,1.6,0.9,2.1
						c0.6,0.5,1.4,0.9,2.4,1.2s2,0.6,3,1c1.3,0.4,2.5,0.9,3.5,1.6c1,0.7,1.9,1.5,2.5,2.5s0.9,2.2,0.9,3.6c0,1.6-0.4,3.2-1.2,4.6
						c-0.8,1.5-2.1,2.6-3.7,3.5C1118.1,791.9,1116,792.3,1113.5,792.3z"/>
				</g>
			</g>
		</g>
		<g>
			<path class="st43" d="M545.7,676.1c0,0-120.5-117-43.8-254.5S681.5,353.2,676.5,193S913.3,19.1,990.2,65.5s76.5,102.4,235.4,83.9
				s189.2,135.8,147.9,214.4c-58.6,111.5,162.8,93.1,23.3,312.3H545.7z"/>
			<g class="st44">
				<g>
					<path class="st45" d="M1074.8,400.9c0,0,25.6-108.5,112-120.4c0,0,16.8-2.1,22.4,16.4s-27.8,18.6-48.5,26.1
						C1140.1,330.4,1091.9,362,1074.8,400.9z"/>
					<path class="st45" d="M1072.9,380.6c0,0-9-89.9,54.1-121.8c0,0,12.3-6,21.5,6.7c9.2,12.7-16.4,21.6-30.3,32.8
						C1104.3,309.4,1075.7,346.3,1072.9,380.6z"/>
				</g>
			</g>
			<path class="st46" d="M1455.4,677.3H464.6c-0.6,0-1-0.5-1-1v-0.7c0-0.6,0.5-1,1-1h990.8c0.6,0,1,0.5,1,1v0.7
				C1456.4,676.8,1456,677.3,1455.4,677.3z"/>
			<path class="st47" d="M606.8,594.5c-13.3-30.4,35-56.5,35-56.5s63.7,20.6,72.9,15c9.2-5.7-51.1-28.3-51.1-28.3
				c14.9-14.5,71.8-27.9,71.8-27.9s38.4,53,45.9,45.3s-36.4-45.2-36.4-45.2c19.4-7.9,48.6-1.4,48.6-1.4c42,15,20.7,68.2,20.7,68.2
				s13.7,18.1,40.9,29.6l0,0c0,0,5.5,1.8,13.1,6.1l-4.2,3.4c-1.3-0.9-2.5-1.7-3.8-2.4l0,0c0,0,0,0-0.1,0c-0.8-0.4-2-1-3.4-1.7l0,0
				l0,0c-3.3-1.5-5.7-2.7-7.4-3.6l0,0c-10.3-4.8-24.3-10.7-29.8-9.9c0,0-0.1-1-0.7-2.7c0.2,0.9,0.4,1.7,0.7,2.7
				c5.3,21.4-29,53.3-52.6,65.5S747.5,650,751,632c3.4-18.1,28.3-34,32.1-43.1s-9-4.8-21.7,7.2c-12.7,11.9-8.5,30.9-28.7,50.5
				c-20.2,19.7-69.8-8-69.8-8c18.8-7.5,39.2-37.5,36-43.6c-3.1-6-42.7,26.7-50.2,30.2C641.1,628.6,620.2,624.9,606.8,594.5z"/>
			<path class="st47" d="M1215.8,631c19.5-23-15.8-58.2-15.8-58.2s-60.7,1.4-67.2-5.9c-6.5-7.3,51.7-11.4,51.7-11.4
				c-9.1-16.5-55.2-42.8-55.2-42.8s-47.1,36.1-51.6,27.5c-4.5-8.7,43.3-29.9,43.3-29.9c-14.8-11.9-41.8-13.8-41.8-13.8
				c-40.4,2.1-35.6,53.9-35.6,53.9s-16.6,12.2-43.2,15.1l0,0c0,0-5.2,0.1-13,1.9l2.8,4.1c1.3-0.4,2.6-0.8,3.9-1.1l0,0c0,0,0,0,0.1,0
				c0.8-0.2,2-0.4,3.4-0.6l0,0l0,0c3.3-0.4,5.7-0.8,7.3-1.2l0,0c10.2-1.5,23.9-3,28.5-0.9c0,0,0.3-0.9,1.3-2.2
				c-0.4,0.7-0.8,1.4-1.3,2.2c-10.1,17.3,11.4,53.9,28.8,70.6c17.4,16.7,17,4.4,18.7-12.2c1.7-16.6-15.8-36.9-16.7-45.8
				c-1-8.9,9-1.8,17,11.8c7.9,13.6-0.6,29,11.9,51.3c12.4,22.3,62.8,11.1,62.8,11.1c-14.4-11.4-24.3-42.8-20-47.2
				s30.2,34.3,35.8,39.2C1177.2,651.8,1196.4,654,1215.8,631z"/>
			<path class="st47" d="M731.9,186.4c20.1-33.6,78.3-5.1,78.3-5.1s23.9,75.4,35.6,80.3c11.7,4.9-7.8-68.4-7.8-68.4
				c24.1,4.3,76,49.9,76,49.9s-24.6,73.3-12,75.1c12.6,1.9,18.5-66,18.5-66c20.8,13.2,34.6,45.7,34.6,45.7
				c14.4,50.7-51.4,66.6-51.4,66.6s-8,25.6-0.3,59.6l0,0c0,0,2.1,6.5,3.1,16.8l-6.2-1.7c0-1.8-0.1-3.6-0.3-5.3l0,0c0,0,0,0,0-0.1
				c-0.2-1.1-0.4-2.6-0.7-4.5l0,0l0,0c-0.9-4.2-1.4-7.3-1.6-9.5l0,0c-2.4-13.2-6.4-30.7-10.9-35.4c0,0,1-0.8,2.1-2.5
				c-0.7,0.8-1.4,1.6-2.1,2.5c-17,19.8-71.1,8.7-99-5.6c-27.9-14.3-12.7-19.1,7.1-28.2c19.7-9.1,52.1,3.8,63.4,1.3
				c11.3-2.5-1.6-11.9-21.7-15.9c-20.1-4-35.5,13-68.2,7.1s-40.2-72.6-40.2-72.6c20.1,13,62.9,11.9,66.6,4.7
				c3.6-7.2-55-22.7-63.4-27.6C722.6,242.7,711.8,220.1,731.9,186.4z"/>
			<g>
				<g>
					<g>
						<path class="st0" d="M955.7,248c0-2.2,0.4-4.2,1.2-6s1.9-3.4,3.3-4.8c1.4-1.3,3.1-2.4,5.1-3.2s4.2-1.1,6.7-1.1
							s4.8,0.4,6.8,1.1c2,0.8,3.7,1.8,5.2,3.2c1.4,1.4,2.5,2.9,3.3,4.8c0.8,1.8,1.2,3.9,1.2,6c0,2.2-0.4,4.2-1.2,6s-1.9,3.4-3.3,4.7
							c-1.4,1.4-3.1,2.4-5.2,3.2c-2,0.8-4.3,1.1-6.8,1.1s-4.7-0.4-6.7-1.1c-2-0.8-3.7-1.8-5.1-3.2c-1.4-1.3-2.5-2.9-3.3-4.7
							C956.1,252.2,955.7,250.2,955.7,248z M984.2,219.9h-24.3l-3.4-83h31.2L984.2,219.9z"/>
					</g>
				</g>
			</g>
			<g class="st44">
				<g>
					<g>
						<path class="st48" d="M882.4,166.8c0-1.7,0.3-3.2,0.9-4.6c0.6-1.4,1.4-2.6,2.5-3.7c1.1-1,2.4-1.8,3.9-2.4
							c1.5-0.6,3.3-0.9,5.2-0.9s3.7,0.3,5.2,0.9c1.6,0.6,2.9,1.4,4,2.4s1.9,2.3,2.5,3.7s0.9,3,0.9,4.6c0,1.7-0.3,3.2-0.9,4.6
							c-0.6,1.4-1.4,2.6-2.5,3.6s-2.4,1.8-4,2.4c-1.6,0.6-3.3,0.9-5.2,0.9s-3.6-0.3-5.2-0.9c-1.5-0.6-2.8-1.4-3.9-2.4
							c-1.1-1-1.9-2.2-2.5-3.6C882.7,170,882.4,168.5,882.4,166.8z M904.2,145.2h-18.6L883,81.5h23.9L904.2,145.2z"/>
					</g>
				</g>
			</g>
			<g class="st49">
				<g>
					<path class="st48" d="M1244.6,274.5c0-1.7,0.3-3.2,0.9-4.6s1.4-2.6,2.5-3.7c1.1-1,2.4-1.8,3.9-2.4s3.3-0.9,5.2-0.9
						c1.9,0,3.7,0.3,5.2,0.9c1.6,0.6,2.9,1.4,4,2.4s1.9,2.3,2.5,3.7c0.6,1.4,0.9,3,0.9,4.6s-0.3,3.2-0.9,4.6s-1.4,2.6-2.5,3.6
						s-2.4,1.8-4,2.4s-3.3,0.9-5.2,0.9c-1.9,0-3.6-0.3-5.2-0.9c-1.5-0.6-2.8-1.4-3.9-2.4s-1.9-2.2-2.5-3.6
						S1244.6,276.2,1244.6,274.5z M1266.5,252.9h-18.6l-2.6-63.7h23.9L1266.5,252.9z"/>
				</g>
			</g>
			<g>
				<g>
					<path class="st41" d="M1203.6,436.7c-3.9,7.2-8.8,14.5-13.7,20.5l0,0c-5.2,6.2-10.5,11-15,12.6l0,0c-0.2,0.1-0.5,0.2-0.7,0.2
						l0,0l0,0c-0.9,0.3-1.8,0.4-2.6,0.3c-14.8-0.7-30.3-32.4-30.3-32.4s0.4-3.8,3.3-6.4c2.5-2.3,4.4-2.9,4.4-2.9
						s15.9,16.3,19.8,17.5c2.4,0.7,5.7-10.7,10.3-25c4.6-14.3,20.8-17.9,20.8-17.9S1216.1,413.6,1203.6,436.7z"/>
					<path class="st50" d="M1189.9,457.1L1189.9,457.1c-5.2,6.2-10.5,11-15,12.6l0,0l-0.7,0.2l0,0l0,0c0.2-0.1,5-2.6,5.7-7.2
						c0.8-4.7-4.2-8.6,8.4-15.9C1195.5,442.5,1189.9,457.1,1189.9,457.1z"/>
					<path class="st51" d="M1178.4,674.5h34.6c2.5-1.7-0.7-18.1-0.7-18.1s-9.5-3.6-11.1,3.7s-12,9.6-17.5,10.5
						C1179.9,671.2,1178.7,673.3,1178.4,674.5z"/>
					<path class="st0" d="M1231.2,504c0,0-1.1,20.2-2.5,43.6c-1,16.8-2.1,35.2-3.1,49c-0.1,1.8-0.3,3.6-0.4,5.2c0,0.5-0.1,1-0.1,1.5
						c-2.5,31-10.8,58.1-10.8,58.1c-9.7,2.1-14.1-1.7-14.1-1.7s-6.7-78.6-9.2-110.3c-1.8-23.3-3.4-57.3-3.4-57.3L1231.2,504z"/>
					<path class="st52" d="M1228.7,547.6c-1,16.8-2.1,35.2-3.1,49c-6.4-15-19.4-73.5-19.4-73.5L1228.7,547.6z"/>
					<path class="st51" d="M1229.7,674.5h34.6c2.5-1.7-0.7-18.1-0.7-18.1s-9.5-3.6-11.1,3.7s-12,9.6-17.5,10.5
						C1231.3,671.2,1230.1,673.3,1229.7,674.5z"/>
					<path class="st0" d="M1197.1,500c0,0,24.7,61.6,32.6,84.9c5.6,16.6,21.5,74.9,21.5,74.9s6.9,2.1,12.7-2c0,0,5.9-59.6-6-76.4
						c-6.3-8.9-1.6-92.6-27.2-93.4C1205,487.4,1197.1,500,1197.1,500z"/>
					<path class="st41" d="M1247.7,480.2c-0.1,8.8-0.2,15.2-0.2,16.8c0.1,5.3-3.3,6.5-6.8,7.3c0,0-3.2,0.7-7.3,1.4
						c-4,0.7-8.8,1.3-12.2,1.3c-17.4-0.1-31.9-5.3-31.9-5.3c-3.3,0-4.8-5.1-5.3-12.1c-0.4-4.8,1.1-52.4,1.3-64.3
						c0.1-8.5,4.8-16.4,6.1-17.6c12.1-10.7,47.9-9.4,54.3-2c1.6,1.8,2.1,19.5,2.1,38.8C1248,457,1247.8,470.1,1247.7,480.2z"/>
					<path class="st53" d="M1226.2,401.5c-4.6,4.9-19.9,4.2-19.5-0.1c0.1-0.5,0.2-3.7,0.2-4.2c0-0.4,0.1-0.8,0.1-1.1
						c0.1-1.1,0.2-2,0.3-2.8c0.2-2.4,0.3-3.7,0.3-3.7l0,0c0.4-0.1,10.3-2.9,15.2-4.1c1.6-0.4,2.7-0.6,2.7-0.5
						C1224.1,396.1,1227.7,399.9,1226.2,401.5z"/>
					<path class="st54" d="M1223.4,388.8c0,0-4.1,4.2-16,4.5c0.2-2.4,0.3-3.7,0.3-3.7l0,0c0.4-0.1,10.3-2.9,15.2-4.1
						C1223.7,385.9,1222.6,388.2,1223.4,388.8z"/>
					<path class="st53" d="M1204.6,389c0,0,3,1.1,6.9,1.6c5.6,0.8,13,0.3,15.3-6.5c3.9-11.4,8.9-18.3-2.6-23
						c-6.2-2.5-10.1-2.6-12.8-1.7c-2.3,0.8-3.7,2.5-4.7,4.1C1204.5,367.1,1200,387,1204.6,389z"/>
					<path class="st55" d="M1207.6,354.8c-4.1,2.7-2.8,9,2.1,9.9c2.9,0.5,5.3,0.6,6.7,1.2c2.9,1.3,5.3,2.6,4.6,7.1
						c-0.2,1.5-1,3.3,2.9,2.4c0.6-0.1,1.1-0.1,1.4,0.1c1.6,1-0.4,5.6-1.1,6.6c0,0-0.9,3.3,1.1,4.9c0.2,0.2,4.1,1.9,13.5-12.5
						c1.5-2.3,2.9-7.3,0.6-12.2c-2.3-4.9-8.6-11.1-20.6-11.1C1215.8,351.2,1211.1,352.4,1207.6,354.8z"/>
					<path class="st50" d="M1247.7,480.2c-1.7,8.1-1.3,8.2-4,6.1c-10.9-8.7-7.7-13.2-5.3-20.8c2.4-7.5-6.1-19.3,0-24.3
						c6-4.9,9.4,3,9.5,3.4C1248,457,1247.8,470.1,1247.7,480.2z"/>
					<path class="st53" d="M1247.5,479.1c0,0-4.1,6.7-6.8,6.5c-2.7-0.2-6.3-1.2-8.4,0.8s-5.5,7.2-4.5,8.6c0.9,1.4,4.8,0.2,7.5-1.4
						c2.7-1.5,7,0.7,9.3-1s7.8-8.5,7.8-8.5L1247.5,479.1z"/>
					<path class="st41" d="M1245.8,405.8c0,0,34.2,32.1,29.7,53.5c-2,9.7-8.3,18-25,31.3c0,0-7.9-5.5-9.6-9.9c0,0,15.2-21.4,14.6-25
						c-0.7-4.5-11.1-15.6-14.8-17.4S1237.3,409.5,1245.8,405.8z"/>
					<path class="st53" d="M1240.6,485.6c0,0-3.6-1.6-4.8-2.3c-1.2-0.7-0.9,0.4-0.5,1c0.4,0.5,1.3,1.8,2.7,1.9
						C1239.5,486.4,1240.6,485.6,1240.6,485.6z"/>
				</g>
			</g>
			<g>
				<path class="st56" d="M639.9,415.8c-1.2-2.4,26.9-11,27.4,12.5c0,0,52.8-1.3,27.6-30.7c-8.7-10.2-7.8-18.6-7.6-26.5
					c0.3-7.8-5.4-30.6-25-28.3c0,0-5.1-2.1-11.5,1.2C636.3,351.6,603.8,424.4,639.9,415.8z"/>
				<path class="st53" d="M726.2,437.4c0,0,3.4-5.2,6.2-5.3c2.8-0.1,7.9-1.5,7.5-0.5s-3.6,1.1-3.9,1.7c-0.3,0.6,4.7,1.5,6.2,1.6
					c1.4,0.1,4.8,0,4.7,0.7s-6.1,3.7-10.3,3.3c-4.2-0.4-9.5,1.2-9.5,1.2L726.2,437.4z"/>
				<path class="st0" d="M676.5,439.1c0,0,1.9,3.7,5.3,7.9c4.1,5.1,10.4,11,18.3,12.2c3.8,0.6,7.5-0.3,10.9-1.8l0,0
					c9.6-4.3,16.8-14.1,16.8-14.1c1.7-4.6-1.1-7.7-1.1-7.7s-19.4,4.4-21.2,3.4c-1.8-0.9-13.2-26.1-15.2-30.3
					c-4.3-8.9-11.2-11.5-11.2-11.5L676.5,439.1z"/>
				<path class="st57" d="M681.8,447c4.1,5.1,10.4,11,18.3,12.2c3.8,0.6,7.5-0.3,10.9-1.8c-0.4,0-10,1.2-13.8-5.6
					c-3.9-7-8.1-18.1-13.9-14.4C680.7,439.1,680.9,443,681.8,447z"/>
				<path class="st58" d="M604.2,648.3c0,0-5.9,5.4-4.8,9.2c1.2,3.8,6.5,6.4,7.2,11.1c0.7,4.7,3.6,7.2,6.2,7.2c2.6,0,12.4,0,12.4,0
					s1.9-3.3-2.7-4.3c-4.6-1-6.4-6.5-6.1-11.6S616,648,616,648l-9.8-2.3L604.2,648.3z"/>
				<path class="st58" d="M654.3,650.6c0,0-2.1,22.9,0.5,24.2l33.2-0.1c0,0,0-3.8-5.3-4.7s-14.7-4-16.3-10.9
					C664.7,652.1,654.3,650.6,654.3,650.6z"/>
				<path class="st0" d="M628.7,423.6c0,0-0.5,7,0,15.4c0.3,5.6,5.9,13,6.7,14.8c2,4.6,4.3,5.4,4.3,5.4l17.5,4.3l6.1,1.5l19.4-5.8
					c0,0,8.8-24.6,5.3-38.4s-8.9-23.5-8.9-23.5s-13.1-5.2-36.3-1.3L628.7,423.6z"/>
				<path class="st59" d="M633.8,441.3c0.3,5.6,0.8,10.7,1.6,12.6c2,4.6,4.3,5.4,4.3,5.4l17.5,4.3l7.6-2.2c0,0-25.3-3.8-22.5-25.6
					L633.8,441.3z"/>
				<path class="st50" d="M681.4,462.9c0,0,9.6,29.8,10.2,40c0.6,10.2-18.3,144.3-19.1,148.9c-0.7,4.4-6.2,7.2-6.2,7.2
					s-2.5,1.5-6.1,0.5c-5-1.4-6.6-3.1-6.6-3.1s-7.5-95.6-2.8-129.8c4.6-34.2,4.7-63.7,4.7-63.7L681.4,462.9L681.4,462.9z"/>
				<path class="st41" d="M640.8,462c0,0-14.6,19.6-16,32.9s-2.1,59.8-5,72.8c-2.9,12.9-13.6,37.8-13.6,78.1c0,0,1.1,2.3,4.5,3.5
					c1.1,0.4,2.6,0.8,4,1.1c2.8,0.6,5.7-0.7,7-3.3c7.2-14.5,30.2-61.4,31.4-71.1c0.8-6.9,8.1-52.4,23.9-79.1
					c3.8-6.4-2.3-31.9-2.3-31.9L640.8,462z"/>
				<path class="st55" d="M682.9,458.3c0,0-3.8,3-11.5,3.2c-9.1,0.2-31.7-2.3-31.7-2.3s-1,2.8-1,5.8c0,0,27.6,7,43.6,1
					C682.4,466,684.4,462.1,682.9,458.3z"/>
				<g>
					<path class="st42" d="M669.5,464.7c0-2.6,1.9-4.7,4.2-4.7s4.2,2.1,4.2,4.7s-1.9,4.7-4.2,4.7
						C671.3,469.4,669.5,467.3,669.5,464.7z M670.9,464.7c0,1.8,1.2,3.3,2.8,3.3c1.5,0,2.8-1.5,2.8-3.3s-1.2-3.3-2.8-3.3
						C672.1,461.3,670.9,462.8,670.9,464.7z"/>
				</g>
				<path class="st60" d="M612.9,466.3l22.4,19.5c1.6,1.4,4.1,1.2,5.5-0.4l28.6-32.9c1.4-1.6,1.2-4.1-0.4-5.5l-22.4-19.5
					c-1.6-1.4-4.1-1.2-5.5,0.4l-28.6,32.9C611.1,462.4,611.3,464.9,612.9,466.3z"/>
				<path class="st53" d="M646.1,463.8c0.3,0.1,11.9,1.4,11.9,3.8c0,2.8-3.4,6.5-6.6,6.3c-1.3-0.1-7.3-5.6-7.3-5.6L646.1,463.8z"/>
				<path class="st53" d="M652,394.7c1.3-3.2,2.1-8.1,2.1-14.1l0.9,0.2l14.7,2.9c0,0-0.3,4.6-0.3,9v0.1c0,3.8,2.6,7.6-3.5,9.1
					C664,402.4,649.3,401.4,652,394.7z"/>
				<path class="st61" d="M669.7,383.7c0,0-0.3,4.6-0.3,9c-8.2-0.2-12.6-7.8-14.4-11.9L669.7,383.7z"/>
				<path class="st53" d="M672.5,387.8c0,0-19.5,0.3-19.5-11.8c0-12.1-2.5-20.3,9.9-21c12.5-0.7,14.9,3.9,15.9,8
					C679.7,367,677.5,387.4,672.5,387.8z"/>
				<path class="st56" d="M671.7,354.7c0,0-5.3,14.3-13.5,16.4s-11.8-0.1-11.8-0.1s6.3-5,7.6-13.7
					C654.1,357.2,667.7,347.9,671.7,354.7z"/>
				<path class="st56" d="M670.4,355.8c0,0,4,1.5,5.6,4.4c1.6,2.8,3,6.6,2.6,11.2c0,0,4-9.7-0.5-15.2
					C673.4,350.4,670.4,355.8,670.4,355.8z"/>
				<path class="st53" d="M646.1,463.8c0,0,2.8-0.9,4.6-0.6c1.9,0.3,3.2,0,3.2,0.5s-2.4,0.8-2.9,1
					C650.5,464.9,646.1,463.8,646.1,463.8z"/>
				<path class="st0" d="M642.6,396c0,0-13.8,1-19.2,13.9c-5.3,12.9-15.4,34.6-15.4,38.2s5.6,14.9,35.8,21.3c0,0,3.1-3.3,2.9-5.9
					c0,0-18.9-16.2-18.8-18.1c0.1-3.6,3.1-8.3,19.6-24.9C652.2,416,642.6,396,642.6,396z"/>
			</g>
			<g>
				<g>
					<path class="st0" d="M1029.6,286H879.9c-3.6,0-7.1,1.4-9.6,4L764.5,395.8c-2.6,2.6-4,6-4,9.6V555c0,3.6,1.4,7.1,4,9.6
						l105.8,105.8c2.6,2.6,6,4,9.6,4h149.6c3.6,0,7.1-1.4,9.6-4L1145,564.7c2.6-2.6,4-6,4-9.6V405.5c0-3.6-1.4-7.1-4-9.6L1039.2,290
						C1036.6,287.5,1033.2,286,1029.6,286z"/>
					<g>
						<g>
							<path class="st42" d="M1019,655.1H890.5c-5.2,0-10.2-2-13.9-5.7l-90.9-90.9c-3.7-3.7-5.7-8.6-5.7-13.9V416
								c0-5.2,2-10.2,5.7-13.9l90.9-90.9c3.7-3.7,8.6-5.7,13.9-5.7H1019c5.2,0,10.2,2,13.9,5.7l90.9,90.9c3.7,3.7,5.7,8.6,5.7,13.9
								v128.6c0,5.2-2,10.2-5.7,13.9l-90.9,90.9C1029.2,653,1024.3,655.1,1019,655.1z M890.5,318.8c-1.7,0-3.3,0.7-4.4,1.8
								l-90.9,90.9c-1.2,1.2-1.8,2.8-1.8,4.4v128.6c0,1.7,0.7,3.3,1.8,4.4l90.9,90.9c1.2,1.2,2.8,1.8,4.4,1.8H1019
								c1.7,0,3.3-0.7,4.4-1.8l90.9-90.9c1.2-1.2,1.8-2.8,1.8-4.4V416c0-1.7-0.7-3.3-1.8-4.4l-90.9-90.9c-1.2-1.2-2.8-1.8-4.4-1.8
								H890.5V318.8z"/>
						</g>
					</g>
					<path class="st42" d="M1058.4,485.2l-2.6-2.3c-6.6-5.7-16.6-5-22.3,1.6l-14.8,17.1c-2.1,2.4-6.1,0.9-6.1-2.3l0,0
						c0-1.4-0.1-2.7-0.2-4V387.7c0-7.1-5.8-12.8-12.8-12.8h-0.9c-7.1,0-12.8,5.8-12.8,12.8v70c0,1.7-1.4,3.1-3.1,3.1l0,0
						c-1.9,0-3.4-1.5-3.4-3.4v-83.3c0-6.8-5.6-12.4-12.4-12.4h-2c-6.8,0-12.4,5.6-12.4,12.4V458c0,1.6-1.3,2.8-2.8,2.8l0,0
						c-2,0-3.6-1.6-3.6-3.6v-66.8c0-7.1-5.8-12.8-12.8-12.8h-0.9c-7.1,0-12.8,5.8-12.8,12.8v67.3c0,1.7-1.4,3.1-3.1,3.1l0,0
						c-1.9,0-3.4-1.5-3.4-3.4v-52.7c0-7.1-5.8-12.8-12.8-12.8h-0.9c-7.1,0-12.8,5.8-12.8,12.8v92.5c0,0.3,0,0.5,0,0.8
						c0,0.4,0,0.9,0,1.3v50.9c0,20.7,16.9,37.6,37.6,37.6h50.9c13.2,0,24.9-6.9,31.6-17.3c2-3.1,4.2-6.2,6.7-9l46.8-54
						C1065.7,500.9,1065,490.9,1058.4,485.2z"/>
				</g>
			</g>
		</g>
	</g>
</g>
</svg>
