<svg id="Grupo_313" data-name="Grupo 313" xmlns="http://www.w3.org/2000/svg" width="123.063" height="109.053" viewBox="0 0 123.063 109.053">
  <path id="Trazado_344" data-name="Trazado 344" d="M9239.29,2647.389a9.762,9.762,0,0,1-9.762-9.762v-17.6a9.762,9.762,0,0,1,19.523,0v17.6A9.762,9.762,0,0,1,9239.29,2647.389Z" transform="translate(-9177.758 -2610.266)" fill="#f8ad00"/>
  <path id="Trazado_345" data-name="Trazado 345" d="M9271.737,2661.7a9.762,9.762,0,0,1-6.9-16.665l12.424-12.424a9.762,9.762,0,1,1,13.806,13.805l-12.425,12.424A9.729,9.729,0,0,1,9271.737,2661.7Z" transform="translate(-9187.444 -2613.171)" fill="#f8ad00" opacity="0.2"/>
  <path id="Trazado_346" data-name="Trazado 346" d="M9302.75,2696.328h-17.572a9.762,9.762,0,0,1,0-19.524h17.572a9.762,9.762,0,0,1,0,19.524Z" transform="translate(-9189.447 -2632.039)" fill="#f8ad00" opacity="0.4"/>
  <path id="Trazado_347" data-name="Trazado 347" d="M9284.163,2741.2a9.736,9.736,0,0,1-6.9-2.859l-12.424-12.424a9.762,9.762,0,0,1,13.8-13.805l12.425,12.424a9.762,9.762,0,0,1-6.9,16.665Z" transform="translate(-9187.444 -2648.731)" fill="#f8ad00" opacity="0.5"/>
  <path id="Trazado_348" data-name="Trazado 348" d="M9239.29,2759.787a9.762,9.762,0,0,1-9.762-9.762v-17.572a9.762,9.762,0,1,1,19.523,0v17.572A9.762,9.762,0,0,1,9239.29,2759.787Z" transform="translate(-9177.758 -2650.734)" fill="#f8ad00" opacity="0.6"/>
  <path id="Trazado_349" data-name="Trazado 349" d="M9192.24,2741.2a9.762,9.762,0,0,1-6.9-16.665l12.443-12.444a9.762,9.762,0,0,1,13.806,13.805l-12.442,12.444A9.738,9.738,0,0,1,9192.24,2741.2Z" transform="translate(-9165.896 -2648.727)" fill="#f8ad00" opacity="0.7"/>
  <path id="Trazado_350" data-name="Trazado 350" d="M9190.324,2696.328h-17.572a9.762,9.762,0,0,1,0-19.524h17.572a9.762,9.762,0,0,1,0,19.524Z" transform="translate(-9162.99 -2632.039)" fill="#f8ad00" opacity="0.8"/>
  <path id="Trazado_351" data-name="Trazado 351" d="M9204.665,2661.7a9.731,9.731,0,0,1-6.9-2.859l-12.425-12.424a9.762,9.762,0,0,1,13.807-13.805l12.424,12.424a9.762,9.762,0,0,1-6.9,16.665Z" transform="translate(-9165.896 -2613.171)" fill="#f8ad00" opacity="0.8"/>
</svg>
