<?xml version="1.0" encoding="utf-8"?>
<!-- Generator: Adobe Illustrator 26.0.3, SVG Export Plug-In . SVG Version: 6.00 Build 0)  -->
<svg version="1.1" id="Capa_1" xmlns="http://www.w3.org/2000/svg" xmlns:xlink="http://www.w3.org/1999/xlink" x="0px" y="0px"
	 viewBox="0 0 886 241.4" style="enable-background:new 0 0 886 241.4;" xml:space="preserve">
<style type="text/css">
	.st0{fill:#838383;}
	.st1{fill:#FFFFFF;}
</style>
<g>
	<g>
		<path class="st0" d="M779.6,214.7H106.4c-51.9,0-94-42.1-94-94v0c0-51.9,42.1-94,94-94h673.2c51.9,0,94,42.1,94,94v0
			C873.6,172.6,831.5,214.7,779.6,214.7z"/>
	</g>
	<g>
		<g>
			<g>
				<path class="st1" d="M165.6,49.2c2,0,3.7,0.3,5.2,1c1.5,0.7,2.6,1.7,3.4,3c0.8,1.3,1.2,3,1.2,5c0,1.2-0.2,2.3-0.6,3.5
					c-0.4,1.1-1,2.1-1.8,3c-0.8,0.9-1.9,1.6-3.1,2.1c-1.3,0.5-2.8,0.8-4.6,0.8h-4.9V81h-2.2V49.2H165.6z M165.4,65.5
					c1.5,0,2.8-0.2,3.9-0.7c1-0.5,1.8-1.1,2.4-1.9c0.6-0.8,1-1.6,1.3-2.4c0.3-0.8,0.4-1.6,0.4-2.3c0-1-0.2-1.9-0.5-2.8
					c-0.3-0.8-0.8-1.6-1.5-2.2c-0.6-0.6-1.4-1.1-2.3-1.4c-0.9-0.3-2-0.5-3.2-0.5h-5.4v14.2H165.4z"/>
				<path class="st1" d="M189.2,81.3c-1.7,0-3.2-0.4-4.5-1.1c-1.4-0.8-2.4-1.8-3.2-3.2c-0.8-1.4-1.2-3-1.2-4.8c0-1.9,0.4-3.6,1.3-5
					c0.8-1.4,2-2.4,3.4-3.2c1.4-0.7,3.1-1.1,4.9-1.1c1.5,0,3,0.5,4.4,1.4c1.4,0.9,2.4,2.1,3,3.5l-0.3,0.6l0.3-5h1.9V81h-2.1v-5.4
					l0.4,0.8c-0.2,0.6-0.6,1.2-1.1,1.8c-0.5,0.6-1.1,1.1-1.9,1.6c-0.7,0.5-1.5,0.9-2.4,1.2C191.1,81.2,190.2,81.3,189.2,81.3z
					 M189.7,79.5c1.3,0,2.5-0.3,3.6-0.8c1.1-0.6,1.9-1.3,2.6-2.3c0.7-1,1-2.1,1.1-3.4v-2.5c-0.2-1.1-0.7-2.1-1.4-3
					c-0.7-0.9-1.6-1.5-2.6-2.1c-1-0.5-2.1-0.8-3.3-0.8c-1.3,0-2.5,0.3-3.6,0.9c-1.1,0.6-2,1.5-2.6,2.6c-0.7,1.1-1,2.4-1,3.9
					c0,1.4,0.3,2.6,1,3.7c0.7,1.1,1.5,2,2.7,2.7S188.3,79.5,189.7,79.5z"/>
				<path class="st1" d="M208.8,63.5l0.2,5.4l-0.3-0.7c0.4-1.1,1-2,1.8-2.8s1.8-1.4,2.8-1.8c1-0.4,2-0.6,3-0.6l-0.1,2.1
					c-1.3,0-2.6,0.3-3.6,0.9c-1.1,0.6-2,1.4-2.6,2.4c-0.6,1-1,2.1-1,3.4V81H207V63.5H208.8z"/>
				<path class="st1" d="M229.3,81.3c-1.7,0-3.2-0.4-4.5-1.1c-1.4-0.8-2.4-1.8-3.2-3.2c-0.8-1.4-1.2-3-1.2-4.8c0-1.9,0.4-3.6,1.3-5
					c0.8-1.4,2-2.4,3.4-3.2c1.4-0.7,3.1-1.1,4.9-1.1c1.5,0,3,0.5,4.4,1.4c1.4,0.9,2.4,2.1,3,3.5l-0.3,0.6l0.3-5h1.9V81H237v-5.4
					l0.4,0.8c-0.2,0.6-0.6,1.2-1.1,1.8c-0.5,0.6-1.1,1.1-1.9,1.6c-0.7,0.5-1.5,0.9-2.4,1.2C231.2,81.2,230.3,81.3,229.3,81.3z
					 M229.7,79.5c1.3,0,2.5-0.3,3.6-0.8c1.1-0.6,1.9-1.3,2.6-2.3c0.7-1,1-2.1,1.1-3.4v-2.5c-0.2-1.1-0.7-2.1-1.4-3
					c-0.7-0.9-1.6-1.5-2.6-2.1c-1-0.5-2.1-0.8-3.3-0.8c-1.3,0-2.5,0.3-3.6,0.9c-1.1,0.6-2,1.5-2.6,2.6c-0.7,1.1-1,2.4-1,3.9
					c0,1.4,0.3,2.6,1,3.7c0.7,1.1,1.5,2,2.7,2.7S228.4,79.5,229.7,79.5z"/>
				<path class="st1" d="M262.6,63.5l0.2,4.9l-0.3-0.4c0.6-1.5,1.6-2.7,3-3.6c1.4-0.9,2.9-1.3,4.5-1.3c1,0,1.9,0.2,2.7,0.6
					c0.8,0.4,1.4,0.9,1.9,1.5c0.5,0.6,0.8,1.4,0.9,2.2l-0.3,0.3c0.6-1.5,1.6-2.6,3-3.4c1.3-0.8,2.8-1.2,4.3-1.2c1.7,0,3,0.5,4,1.5
					c1,1,1.5,2.2,1.5,3.8V81h-2.1V68.7c0-1-0.4-1.9-1-2.7c-0.6-0.7-1.6-1.1-2.9-1.2c-1.2,0-2.2,0.3-3.2,0.9c-1,0.6-1.8,1.4-2.4,2.4
					c-0.6,1-0.9,2.1-1,3.3V81h-2.1V68.7c0-1-0.4-1.9-1-2.7c-0.6-0.7-1.6-1.1-2.9-1.2c-1.2,0-2.3,0.3-3.3,0.9c-1,0.6-1.8,1.4-2.4,2.4
					c-0.6,1-0.9,2.2-0.9,3.4V81h-2.1V63.5H262.6z"/>
				<path class="st1" d="M303.2,81.3c-1.7,0-3.2-0.4-4.5-1.1c-1.4-0.8-2.4-1.8-3.2-3.2c-0.8-1.4-1.2-3-1.2-4.8c0-1.9,0.4-3.6,1.3-5
					c0.8-1.4,2-2.4,3.4-3.2c1.4-0.7,3.1-1.1,4.9-1.1c1.5,0,3,0.5,4.4,1.4c1.4,0.9,2.4,2.1,3,3.5l-0.3,0.6l0.3-5h1.9V81h-2.1v-5.4
					l0.4,0.8c-0.2,0.6-0.6,1.2-1.1,1.8c-0.5,0.6-1.1,1.1-1.9,1.6c-0.7,0.5-1.5,0.9-2.4,1.2C305.1,81.2,304.2,81.3,303.2,81.3z
					 M303.7,79.5c1.3,0,2.5-0.3,3.6-0.8c1.1-0.6,1.9-1.3,2.6-2.3c0.7-1,1-2.1,1.1-3.4v-2.5c-0.2-1.1-0.7-2.1-1.4-3
					c-0.7-0.9-1.6-1.5-2.6-2.1c-1-0.5-2.1-0.8-3.3-0.8c-1.3,0-2.5,0.3-3.6,0.9c-1.1,0.6-2,1.5-2.6,2.6c-0.7,1.1-1,2.4-1,3.9
					c0,1.4,0.3,2.6,1,3.7c0.7,1.1,1.5,2,2.7,2.7S302.3,79.5,303.7,79.5z M308.3,53.9l-4.7,5.9h-1.5l3.9-5.9H308.3z"/>
				<path class="st1" d="M325.1,81.3c-1,0-2.1-0.2-3.2-0.6c-1.1-0.4-2-1-2.7-1.8l1-1.4c0.6,0.6,1.3,1.1,2.1,1.5
					c0.8,0.4,1.7,0.6,2.6,0.6c0.7,0,1.3-0.1,1.9-0.3c0.6-0.2,1.1-0.5,1.5-1c0.4-0.5,0.6-1.1,0.6-1.9c0-0.8-0.2-1.5-0.7-1.9
					c-0.5-0.4-1-0.8-1.7-1.1c-0.7-0.3-1.4-0.5-2.2-0.8c-1.3-0.4-2.3-1-3.2-1.7c-0.8-0.7-1.2-1.7-1.2-3c0-1,0.2-1.8,0.7-2.5
					c0.5-0.7,1.1-1.3,1.9-1.7c0.8-0.4,1.7-0.6,2.7-0.6c0.9,0,1.8,0.1,2.8,0.4c0.9,0.3,1.7,0.8,2.5,1.5l-0.9,1.5
					c-0.5-0.7-1.1-1.1-1.9-1.3c-0.8-0.2-1.5-0.4-2.1-0.4c-0.5,0-1,0.1-1.6,0.3c-0.6,0.2-1,0.5-1.4,0.9s-0.6,0.9-0.6,1.6
					c0,0.7,0.2,1.2,0.6,1.7s0.9,0.8,1.5,1.1c0.6,0.3,1.2,0.5,1.9,0.8c0.9,0.3,1.7,0.6,2.4,1c0.8,0.4,1.4,0.9,1.9,1.5
					c0.5,0.6,0.7,1.4,0.7,2.4c0,1-0.2,1.9-0.7,2.8c-0.4,0.8-1.1,1.5-2,1.9C327.5,81.1,326.4,81.3,325.1,81.3z"/>
				<path class="st1" d="M350.7,57c0-0.4,0.2-0.8,0.5-1.1c0.3-0.3,0.7-0.4,1.1-0.4c0.4,0,0.8,0.1,1.1,0.4c0.3,0.3,0.4,0.6,0.4,1.1
					c0,0.4-0.1,0.8-0.4,1.1c-0.3,0.3-0.7,0.4-1.1,0.4c-0.4,0-0.7-0.1-1.1-0.4C350.9,57.8,350.7,57.5,350.7,57z M351.2,63.5h2.1V81
					h-2.1V63.5z"/>
				<path class="st1" d="M363,63.5l0.2,5.5l-0.3-1.1c0.5-1.5,1.5-2.7,2.9-3.6c1.4-0.9,3-1.3,4.7-1.3c1.6,0,3,0.5,4,1.5
					c1,1,1.5,2.2,1.6,3.8V81H374V68.8c0-1.1-0.4-2.1-1.1-2.8c-0.7-0.7-1.7-1.1-3-1.2c-1.2,0-2.3,0.3-3.3,0.8c-1,0.6-1.8,1.4-2.4,2.4
					c-0.6,1-0.9,2.2-0.9,3.5V81h-2.1V63.5H363z"/>
				<path class="st1" d="M385.3,81V65.5h-3v-1.9h3v-8.8c0-2.8,0.5-4.8,1.5-6.1c1-1.2,2.4-1.9,4.3-1.9c0.4,0,0.9,0.1,1.3,0.2
					c0.5,0.1,0.9,0.3,1.3,0.5l-0.9,1.5c-0.2-0.1-0.4-0.3-0.7-0.3c-0.3-0.1-0.5-0.1-0.9-0.1c-1.3,0-2.2,0.4-2.9,1.3
					c-0.6,0.9-1,2.5-1,4.8v8.9h5.9v1.9h-5.9V81H385.3z"/>
				<path class="st1" d="M396.2,72.1c0-1.7,0.4-3.2,1.2-4.7c0.8-1.4,1.9-2.5,3.4-3.3c1.4-0.8,3-1.2,4.8-1.2c1.8,0,3.4,0.4,4.8,1.2
					c1.4,0.8,2.5,1.9,3.3,3.3c0.8,1.4,1.2,3,1.2,4.7s-0.4,3.2-1.2,4.7c-0.8,1.4-1.9,2.5-3.3,3.3c-1.4,0.8-3,1.2-4.8,1.2
					c-1.8,0-3.3-0.4-4.7-1.2c-1.4-0.8-2.5-1.9-3.3-3.3C396.6,75.5,396.2,73.9,396.2,72.1z M398.3,72.2c0,1.4,0.3,2.6,1,3.7
					c0.6,1.1,1.5,2,2.6,2.7c1.1,0.7,2.3,1,3.6,1c1.3,0,2.6-0.3,3.6-1c1.1-0.7,2-1.5,2.6-2.7s1-2.4,1-3.7c0-1.4-0.3-2.6-1-3.7
					s-1.5-2-2.6-2.7c-1.1-0.7-2.3-1-3.6-1c-1.4,0-2.6,0.4-3.7,1.1c-1.1,0.7-1.9,1.6-2.6,2.8C398.6,69.7,398.3,70.9,398.3,72.2z"/>
				<path class="st1" d="M423,63.5l0.2,5.4l-0.3-0.7c0.4-1.1,1-2,1.8-2.8s1.8-1.4,2.8-1.8c1-0.4,2-0.6,3-0.6l-0.1,2.1
					c-1.3,0-2.6,0.3-3.6,0.9c-1.1,0.6-2,1.4-2.6,2.4c-0.6,1-1,2.1-1,3.4V81h-2.1V63.5H423z"/>
				<path class="st1" d="M438.3,63.5l0.2,4.9l-0.3-0.4c0.6-1.5,1.6-2.7,3-3.6c1.4-0.9,2.9-1.3,4.5-1.3c1,0,1.9,0.2,2.7,0.6
					c0.8,0.4,1.4,0.9,1.9,1.5c0.5,0.6,0.8,1.4,0.9,2.2l-0.3,0.3c0.6-1.5,1.6-2.6,3-3.4c1.3-0.8,2.8-1.2,4.3-1.2c1.7,0,3,0.5,4,1.5
					c1,1,1.5,2.2,1.5,3.8V81h-2.1V68.7c0-1-0.4-1.9-1-2.7c-0.6-0.7-1.6-1.1-2.9-1.2c-1.2,0-2.2,0.3-3.2,0.9c-1,0.6-1.8,1.4-2.4,2.4
					s-0.9,2.1-1,3.3V81H449V68.7c0-1-0.4-1.9-1-2.7c-0.6-0.7-1.6-1.1-2.9-1.2c-1.2,0-2.3,0.3-3.3,0.9c-1,0.6-1.8,1.4-2.4,2.4
					c-0.6,1-0.9,2.2-0.9,3.4V81h-2.1V63.5H438.3z"/>
				<path class="st1" d="M478.9,81.3c-1.7,0-3.2-0.4-4.5-1.1c-1.4-0.8-2.4-1.8-3.2-3.2c-0.8-1.4-1.2-3-1.2-4.8c0-1.9,0.4-3.6,1.3-5
					c0.8-1.4,2-2.4,3.4-3.2c1.4-0.7,3.1-1.1,4.9-1.1c1.5,0,3,0.5,4.4,1.4c1.4,0.9,2.4,2.1,3,3.5l-0.3,0.6l0.3-5h1.9V81h-2.1v-5.4
					l0.4,0.8c-0.2,0.6-0.6,1.2-1.1,1.8c-0.5,0.6-1.1,1.1-1.9,1.6c-0.7,0.5-1.5,0.9-2.4,1.2C480.8,81.2,479.9,81.3,478.9,81.3z
					 M479.3,79.5c1.3,0,2.5-0.3,3.6-0.8c1.1-0.6,1.9-1.3,2.6-2.3c0.7-1,1-2.1,1.1-3.4v-2.5c-0.2-1.1-0.7-2.1-1.4-3
					c-0.7-0.9-1.6-1.5-2.6-2.1c-1-0.5-2.1-0.8-3.3-0.8c-1.3,0-2.5,0.3-3.6,0.9c-1.1,0.6-2,1.5-2.6,2.6c-0.7,1.1-1,2.4-1,3.9
					c0,1.4,0.3,2.6,1,3.7c0.7,1.1,1.5,2,2.7,2.7S478,79.5,479.3,79.5z"/>
				<path class="st1" d="M510.1,79.3c-0.8,0.7-1.7,1.2-2.7,1.5c-1,0.4-2.1,0.5-3.2,0.5c-1.8,0-3.4-0.4-4.8-1.2
					c-1.4-0.8-2.5-1.9-3.3-3.2c-0.8-1.4-1.2-2.9-1.2-4.7c0-1.8,0.4-3.3,1.3-4.7c0.8-1.4,1.9-2.5,3.3-3.2c1.4-0.8,2.9-1.2,4.5-1.2
					c1.2,0,2.4,0.2,3.4,0.5c1,0.4,2,0.9,2.7,1.5l-1.1,1.4c-0.6-0.5-1.4-0.9-2.2-1.3c-0.8-0.3-1.7-0.5-2.7-0.5c-1.3,0-2.5,0.3-3.6,1
					c-1.1,0.7-2,1.5-2.6,2.7c-0.6,1.1-1,2.4-1,3.7c0,1.3,0.3,2.6,1,3.7c0.6,1.1,1.5,2,2.6,2.7c1.1,0.7,2.4,1,3.7,1
					c0.9,0,1.7-0.1,2.5-0.4c0.8-0.3,1.5-0.7,2.1-1.1L510.1,79.3z"/>
				<path class="st1" d="M515.6,57c0-0.4,0.2-0.8,0.5-1.1c0.3-0.3,0.7-0.4,1.1-0.4c0.4,0,0.8,0.1,1.1,0.4c0.3,0.3,0.4,0.6,0.4,1.1
					c0,0.4-0.1,0.8-0.4,1.1c-0.3,0.3-0.7,0.4-1.1,0.4c-0.4,0-0.7-0.1-1.1-0.4C515.7,57.8,515.6,57.5,515.6,57z M516,63.5h2.1V81H516
					V63.5z"/>
				<path class="st1" d="M524.4,72.1c0-1.7,0.4-3.2,1.2-4.7c0.8-1.4,1.9-2.5,3.4-3.3c1.4-0.8,3-1.2,4.8-1.2c1.8,0,3.4,0.4,4.8,1.2
					c1.4,0.8,2.5,1.9,3.3,3.3c0.8,1.4,1.2,3,1.2,4.7s-0.4,3.2-1.2,4.7c-0.8,1.4-1.9,2.5-3.3,3.3c-1.4,0.8-3,1.2-4.8,1.2
					c-1.8,0-3.3-0.4-4.7-1.2c-1.4-0.8-2.5-1.9-3.3-3.3C524.8,75.5,524.4,73.9,524.4,72.1z M526.5,72.2c0,1.4,0.3,2.6,1,3.7
					c0.6,1.1,1.5,2,2.6,2.7c1.1,0.7,2.3,1,3.6,1s2.6-0.3,3.6-1c1.1-0.7,2-1.5,2.6-2.7c0.6-1.1,1-2.4,1-3.7c0-1.4-0.3-2.6-1-3.7
					c-0.6-1.1-1.5-2-2.6-2.7c-1.1-0.7-2.3-1-3.6-1c-1.4,0-2.6,0.4-3.7,1.1c-1.1,0.7-1.9,1.6-2.6,2.8
					C526.8,69.7,526.5,70.9,526.5,72.2z M537.3,53.9l-4.7,5.9h-1.5l3.9-5.9H537.3z"/>
				<path class="st1" d="M551.1,63.5l0.2,5.5l-0.3-1.1c0.5-1.5,1.5-2.7,2.9-3.6c1.4-0.9,3-1.3,4.7-1.3c1.6,0,3,0.5,4,1.5
					c1,1,1.5,2.2,1.6,3.8V81h-2.1V68.8c0-1.1-0.4-2.1-1.1-2.8c-0.7-0.7-1.7-1.1-3-1.2c-1.2,0-2.3,0.3-3.3,0.8
					c-1,0.6-1.8,1.4-2.4,2.4s-0.9,2.2-0.9,3.5V81h-2.1V63.5H551.1z"/>
				<path class="st1" d="M571,66.8c0.3-0.3,0.6-0.4,1-0.4c0.4,0,0.7,0.1,1.1,0.4c0.3,0.3,0.5,0.7,0.5,1.1c0,0.4-0.2,0.8-0.5,1.1
					c-0.3,0.3-0.7,0.4-1.1,0.4c-0.4,0-0.7-0.1-1-0.4c-0.3-0.3-0.5-0.6-0.5-1.1C570.5,67.5,570.7,67.1,571,66.8z M571,78.4
					c0.3-0.3,0.6-0.4,1-0.4c0.4,0,0.7,0.1,1.1,0.4c0.3,0.3,0.5,0.7,0.5,1.1c0,0.4-0.2,0.8-0.5,1.1c-0.3,0.3-0.7,0.4-1.1,0.4
					c-0.4,0-0.7-0.1-1-0.4c-0.3-0.3-0.5-0.6-0.5-1.1C570.5,79,570.7,78.7,571,78.4z"/>
			</g>
		</g>
		<g>
			<g>
				<path class="st1" d="M65.2,127c1.5-5.5,3.5-10.4,5.8-14.7c2.4-4.3,4.9-7.8,7.5-10.6l10.7,4.9c-2.4,2.8-4.6,6-6.5,9.8
					c-1.9,3.7-3.4,8-4.5,12.7c-1.1,4.7-1.7,9.9-1.7,15.6c0,5.7,0.6,10.9,1.7,15.6c1.1,4.7,2.6,8.9,4.5,12.7c1.9,3.7,4.1,7,6.5,9.7
					l-10.7,5c-2.6-2.8-5.1-6.4-7.5-10.7c-2.4-4.3-4.3-9.2-5.8-14.6c-1.5-5.5-2.3-11.4-2.3-17.7S63.7,132.5,65.2,127z"/>
				<path class="st1" d="M120.3,172.9c-4.4,0-8.5-1-12-3.2c-3.6-2.1-6.4-5.2-8.5-9.3c-2.1-4.1-3.2-9.1-3.2-14.9
					c0-3.6,0.7-7.2,2.1-10.6c1.4-3.4,3.3-6.7,5.7-9.8c2.4-3.1,5.3-6,8.5-8.8c3.2-2.7,6.6-5.2,10.3-7.3l9,9.7
					c-4.9,1.9-9,4.4-12.1,7.4c-3.2,3-5.5,6.1-7,9.3c-1.5,3.2-2.2,6.2-2.2,8.9l-3.3-0.4c1.7-3.9,3.8-6.9,6.4-9.1
					c2.6-2.2,6.3-3.2,11-3.2c3,0,5.8,0.8,8.6,2.5c2.8,1.7,5.1,4,6.8,7c1.8,3,2.6,6.4,2.6,10.4c0,4.6-1.1,8.5-3.3,11.6
					c-2.2,3.2-5,5.6-8.5,7.3C127.8,172,124.2,172.9,120.3,172.9z M119.8,160.8c1.8,0,3.4-0.4,4.8-1.1c1.4-0.7,2.5-1.8,3.3-3.2
					c0.8-1.4,1.2-3.1,1.2-5.1c0-1.9-0.4-3.5-1.3-4.8c-0.8-1.3-1.9-2.2-3.3-2.9c-1.4-0.6-3-1-4.7-1c-1.7,0-3.3,0.3-4.7,1
					c-1.4,0.6-2.5,1.5-3.3,2.6c-0.8,1.1-1.3,2.2-1.3,3.5v2.2c0,1.5,0.4,2.9,1.2,4.2c0.8,1.3,1.9,2.4,3.3,3.2
					C116.5,160.4,118,160.8,119.8,160.8z"/>
				<path class="st1" d="M174.9,172.2c-3.5,0-6.8-0.6-10-1.9c-3.1-1.2-5.9-3.1-8.2-5.7c-2.4-2.6-4.2-5.8-5.6-9.7
					c-1.4-3.9-2-8.5-2-13.9c0-5.9,0.6-10.9,1.9-14.9c1.3-4,3.1-7.2,5.4-9.6c2.3-2.4,5.1-4.1,8.2-5.1c3.2-1,6.6-1.5,10.3-1.5
					c3.5,0,6.8,0.6,10,1.9c3.1,1.2,5.9,3.1,8.2,5.7c2.4,2.6,4.2,5.8,5.6,9.7c1.4,3.9,2,8.5,2,13.9c0,5.5-0.7,10.2-2,14.2
					c-1.4,4-3.2,7.2-5.7,9.7c-2.4,2.5-5.2,4.3-8.2,5.5C181.7,171.6,178.4,172.2,174.9,172.2z M174.8,159.3c3.1,0,5.5-0.8,7.2-2.5
					c1.7-1.6,3-3.9,3.7-6.7c0.7-2.8,1.1-6,1.1-9.5c0-3.4-0.4-6.4-1.1-9.1c-0.7-2.7-1.9-4.8-3.7-6.3c-1.7-1.6-4.1-2.4-7.2-2.4
					c-3,0-5.4,0.8-7.1,2.4c-1.7,1.6-2.9,3.8-3.6,6.5c-0.7,2.7-1,5.8-1,9.2c0,3.4,0.3,6.5,1,9.3c0.7,2.8,1.9,5,3.6,6.6
					C169.4,158.5,171.8,159.3,174.8,159.3z"/>
				<path class="st1" d="M226.4,172.9c-3.6,0-7.2-0.7-10.7-2c-3.5-1.4-6.1-3-8.1-4.9l7-10.8c1.1,1.4,2.7,2.5,4.8,3.4
					c2.1,0.9,4.1,1.3,6,1.3c1.4,0,2.7-0.3,4-0.9c1.2-0.6,2.2-1.5,3-2.8c0.7-1.2,1.1-2.7,1.1-4.5c0-2-0.4-3.7-1.2-5.2
					c-0.8-1.5-1.9-2.6-3.3-3.5c-1.5-0.8-3.2-1.3-5.1-1.3c-1.9,0-3.7,0.3-5.5,0.8c-1.7,0.5-3.8,1.4-6.1,2.6h-0.1v-34.5h30.7v13h-19.1
					v9.9l-1.6-2.8c0.9-0.1,1.7-0.2,2.5-0.3c0.8-0.1,1.6-0.1,2.4-0.1c4.3,0,8,1,11,2.9c3,1.9,5.3,4.4,6.9,7.6
					c1.6,3.2,2.4,6.6,2.4,10.3c0,4.1-0.9,7.8-2.8,11s-4.4,5.9-7.6,7.8C233.9,171.9,230.3,172.9,226.4,172.9z"/>
				<path class="st1" d="M280.6,162.4c-1.5,5.5-3.4,10.4-5.8,14.7c-2.3,4.3-4.9,7.8-7.5,10.6l-10.7-4.9c2.4-2.8,4.6-6,6.5-9.8
					c1.9-3.7,3.4-8,4.5-12.7c1.1-4.7,1.7-9.9,1.7-15.6c0-5.7-0.6-10.9-1.7-15.6c-1.1-4.7-2.6-9-4.5-12.7c-1.9-3.7-4.1-7-6.5-9.7
					l10.7-5c2.7,2.8,5.2,6.3,7.5,10.7c2.3,4.3,4.3,9.2,5.8,14.7c1.5,5.5,2.3,11.4,2.3,17.7S282.1,156.9,280.6,162.4z"/>
				<path class="st1" d="M362.2,110.7l-13.9,26.7l-7.3-4c0.6-0.2,1.3-0.4,2-0.6c0.7-0.1,1.4-0.2,2-0.2c2.2-0.1,4.3,0.2,6.5,0.7
					c2.2,0.6,4.1,1.5,5.9,3c1.8,1.4,3.2,3.4,4.3,5.8c1.1,2.5,1.6,5.6,1.6,9.5c0,4.4-1,8.3-3.1,11.4c-2.1,3.2-4.8,5.6-8.1,7.3
					c-3.3,1.7-7,2.5-10.8,2.5c-3,0-6.2-0.6-9.5-1.9c-3.3-1.3-6-3-8-5.1l6.9-11.1c0.9,1.2,2.3,2.3,4.3,3.4c1.9,1.1,3.9,1.7,6,1.7
					c1.4,0,2.7-0.3,4-1c1.3-0.7,2.4-1.7,3.2-3.1c0.9-1.4,1.3-3,1.3-5c0-2.7-0.8-4.9-2.3-6.5c-1.5-1.6-3.6-2.4-6.3-2.4
					c-1.9,0-3.3,0.1-4.2,0.2c-1,0.2-1.9,0.4-2.8,0.6l-0.3-0.4l10.8-20.3l3.9,1.6h-19.4v-13H362.2z"/>
				<path class="st1" d="M372,144c1.2-2.2,2.6-4.1,4.3-5.5c1.7-1.5,3.3-2.6,4.7-3.5c-1.4-1.4-2.5-2.9-3.5-4.4
					c-1-1.5-1.4-3.7-1.4-6.4c0-2.8,0.8-5.3,2.4-7.4c1.6-2.2,3.7-3.8,6.3-5.1c2.7-1.2,5.6-1.8,8.8-1.8c3.2,0,6.2,0.6,8.9,1.8
					c2.7,1.2,4.9,2.8,6.5,4.9c1.6,2,2.5,4.4,2.5,7c0,3.1-0.5,5.4-1.5,7c-1,1.5-2.3,3.1-3.8,4.5c1.5,0.9,3,2.1,4.7,3.6
					c1.6,1.5,3,3.3,4.2,5.5c1.2,2.2,1.8,4.9,1.8,8c0,3.6-1,7-3.1,10.1s-4.8,5.7-8.3,7.6c-3.5,1.9-7.5,2.9-12,2.9
					c-4.5,0-8.5-1-12-2.9c-3.5-1.9-6.2-4.5-8.2-7.6c-2-3.2-3-6.5-3-10.1C370.2,149,370.8,146.3,372,144z M385.3,156.6
					c0.9,1.5,2,2.7,3.4,3.6c1.4,0.9,3,1.3,4.7,1.3c1.8,0,3.4-0.4,4.9-1.3c1.5-0.9,2.7-2.1,3.6-3.6c0.9-1.5,1.3-3.2,1.3-5
					c0-1.8-0.4-3.4-1.3-4.9c-0.8-1.5-1.9-2.6-3.3-3.6c-1.4-0.9-3-1.4-4.7-1.5c-1.7-0.1-3.4,0.3-4.9,1.2c-1.5,0.9-2.8,2.1-3.7,3.6
					c-1,1.5-1.4,3.2-1.4,5.1C384,153.4,384.4,155.1,385.3,156.6z M390.6,129.1c1,0.9,2.1,1.4,3.2,1.4s2.2-0.5,3.2-1.4
					c1-0.9,1.5-2,1.5-3.2c0-1.2-0.5-2.3-1.4-3.3c-1-1-2-1.4-3.2-1.4c-1.2,0-2.3,0.5-3.2,1.4c-1,1-1.5,2.1-1.5,3.3
					C389.1,127.1,389.6,128.2,390.6,129.1z"/>
				<path class="st1" d="M440.5,172.9c-3.6,0-7.2-0.7-10.7-2c-3.5-1.4-6.1-3-8.1-4.9l7-10.8c1.1,1.4,2.7,2.5,4.8,3.4
					c2.1,0.9,4.1,1.3,6,1.3c1.4,0,2.7-0.3,4-0.9c1.2-0.6,2.2-1.5,3-2.8c0.7-1.2,1.1-2.7,1.1-4.5c0-2-0.4-3.7-1.2-5.2
					c-0.8-1.5-1.9-2.6-3.3-3.5c-1.5-0.8-3.2-1.3-5.1-1.3c-1.9,0-3.7,0.3-5.5,0.8c-1.7,0.5-3.8,1.4-6.1,2.6h-0.1v-34.5H457v13h-19.1
					v9.9l-1.6-2.8c0.9-0.1,1.7-0.2,2.5-0.3c0.8-0.1,1.6-0.1,2.4-0.1c4.3,0,8,1,11,2.9c3,1.9,5.3,4.4,6.9,7.6
					c1.6,3.2,2.4,6.6,2.4,10.3c0,4.1-0.9,7.8-2.8,11s-4.4,5.9-7.6,7.8C448,171.9,444.4,172.9,440.5,172.9z"/>
				<path class="st1" d="M500.9,110.7h18.4v61.5h-13.5v-48.5h-4.9V110.7z"/>
				<path class="st1" d="M573.4,110.7l-22.9,61.5h-15l19-50.1l4.4,1.6h-27v-13H573.4z"/>
				<path class="st1" d="M579.8,172.1c3.8-3.9,7.5-7.6,11-11.3c3.5-3.6,6.7-7.1,9.5-10.5c2.8-3.4,5-6.6,6.7-9.8
					c1.6-3.2,2.5-6.2,2.5-9.2c0-1.3-0.2-2.5-0.7-3.5c-0.5-1-1.1-1.9-1.9-2.7s-1.8-1.3-3-1.7c-1.1-0.4-2.4-0.6-3.8-0.6
					c-1.4,0-2.7,0.2-3.8,0.6c-1.1,0.4-2,0.9-2.8,1.6c-0.7,0.7-1.3,1.4-1.7,2.2c-0.4,0.8-0.6,1.6-0.6,2.5c0,2,0.3,3.7,1,5.2
					c0.6,1.5,1.5,2.9,2.6,4l-8.2,7.5c-1.8-0.9-3.3-2.3-4.6-4.4c-1.3-2-2.2-4.2-2.9-6.4c-0.6-2.3-1-4.1-1-5.6c0-3.4,0.9-6.6,2.8-9.7
					c1.9-3.1,4.6-5.6,8.2-7.6c3.6-2,8-3,13.2-3c4.3,0,8,1,11.1,2.9c3.2,1.9,5.6,4.4,7.4,7.6c1.8,3.1,2.6,6.4,2.6,10
					c0,2.8-0.4,5.5-1.3,8.1c-0.9,2.6-2.1,5.1-3.6,7.6c-1.5,2.5-3.2,5-5.1,7.4c-1.9,2.4-3.9,4.9-5.9,7.5l-6.1-1.8h22.8v13H579.8z"/>
				<path class="st1" d="M657.9,172.2c-3.5,0-6.8-0.6-10-1.9c-3.1-1.2-5.9-3.1-8.2-5.7c-2.4-2.6-4.2-5.8-5.6-9.7
					c-1.4-3.9-2-8.5-2-13.9c0-5.9,0.6-10.9,1.9-14.9c1.3-4,3.1-7.2,5.4-9.6c2.3-2.4,5.1-4.1,8.2-5.1c3.2-1,6.6-1.5,10.3-1.5
					c3.5,0,6.8,0.6,10,1.9c3.1,1.2,5.9,3.1,8.2,5.7c2.4,2.6,4.2,5.8,5.6,9.7c1.4,3.9,2,8.5,2,13.9c0,5.5-0.7,10.2-2,14.2
					c-1.4,4-3.2,7.2-5.7,9.7c-2.4,2.5-5.2,4.3-8.2,5.5C664.7,171.6,661.4,172.2,657.9,172.2z M657.8,159.3c3.1,0,5.5-0.8,7.2-2.5
					c1.7-1.6,3-3.9,3.7-6.7c0.7-2.8,1.1-6,1.1-9.5c0-3.4-0.4-6.4-1.1-9.1c-0.7-2.7-1.9-4.8-3.7-6.3c-1.7-1.6-4.1-2.4-7.2-2.4
					c-3,0-5.4,0.8-7.1,2.4c-1.7,1.6-2.9,3.8-3.6,6.5c-0.7,2.7-1,5.8-1,9.2c0,3.4,0.3,6.5,1,9.3c0.7,2.8,1.9,5,3.6,6.6
					C652.4,158.5,654.8,159.3,657.8,159.3z"/>
			</g>
		</g>
	</g>
</g>
</svg>
