<?xml version="1.0" encoding="utf-8"?>
<!-- Generator: Adobe Illustrator 26.0.2, SVG Export Plug-In . SVG Version: 6.00 Build 0)  -->
<svg version="1.1" id="Capa_1" xmlns="http://www.w3.org/2000/svg" xmlns:xlink="http://www.w3.org/1999/xlink" x="0px" y="0px"
	 viewBox="0 0 642 899" style="enable-background:new 0 0 642 899;" xml:space="preserve">
<style type="text/css">
	.st0{clip-path:url(#SVGID_00000065757548608008137610000013780486199015670432_);}
	.st1{fill:#4AB2E3;}
	.st2{fill:#FFFFFF;}
	.st3{fill:#B3C600;}
	.st4{fill:#4BB3E4;}
	.st5{clip-path:url(#SVGID_00000138568474855926165260000008032911553668704914_);fill:#F0A500;}
	.st6{clip-path:url(#SVGID_00000058553899639082749170000011797958589020673944_);fill:#B3C600;}
	.st7{clip-path:url(#SVGID_00000011749360408549427260000001450273033678393753_);fill:#4BB3E4;}
	.st8{fill:#9B9219;}
	.st9{fill:#001689;}
	.st10{enable-background:new    ;}
	.st11{clip-path:url(#SVGID_00000005245377769037398980000004632783626653930396_);}
</style>
<g>
	<g>
		<defs>
			<rect id="SVGID_1_" y="619.8" width="641.7" height="279.2"/>
		</defs>
		<clipPath id="SVGID_00000111189090708345721520000006990355921757217724_">
			<use xlink:href="#SVGID_1_"  style="overflow:visible;"/>
		</clipPath>
		<g style="clip-path:url(#SVGID_00000111189090708345721520000006990355921757217724_);">
			<rect x="-106" y="750" class="st1" width="817.2" height="149"/>
			<g>
				<g>
					<g>
						<g>
							<g id="XMLID_715_">
								<polygon id="XMLID_750_" class="st2" points="258.9,841.7 87.3,852.3 86.8,789.8 258.9,779.7 								"/>
								<g id="XMLID_716_">
									<g id="XMLID_723_">
										<ellipse id="XMLID_749_" class="st3" cx="132.1" cy="796.7" rx="2.9" ry="2.9"/>
										<g id="XMLID_724_">
											<path id="XMLID_747_" class="st4" d="M130,803.6c0-2.4,4.1-2.4,4.1-0.1v25.2c0,2.4-4.1,2.4-4.1,0V803.6z"/>
											<path id="XMLID_745_" class="st4" d="M165.2,813.8c0-5.1-4.2-8.7-8.7-8.7c-5.4,0-10.5,4.5-10.5,10.5v12.9
												c0,1.2-0.7,2-2,2s-2.1-0.7-2.1-2v-25c0-2.6,4-2.6,4,0.1v3.5c2-4.1,6.3-5.8,10.7-5.8c6.5,0,12.7,4.5,12.7,12.5v14.8
												c0,1.2-0.7,2-2,2c-1.2,0-2.1-0.7-2.1-2L165.2,813.8L165.2,813.8z"/>
											<path id="XMLID_738_" class="st4" d="M189.7,801.8c2.5,0,2.5,3.5,0,3.5h-6.1v15.1c0,3.2,0.5,6.5,4.3,6.5
												c0.8,0,2.1-0.3,2.6-0.6c2.4-1.3,4.2,2,1.7,3.4c-1.4,0.8-2.8,0.9-4.3,0.9c-6.7,0-8.4-4.9-8.4-10.2v-15.1h-3.7
												c-2.6,0-2.5-3.5,0-3.5h3.7v-6.5c0-2.7,4-2.6,4,0v6.5L189.7,801.8L189.7,801.8z"/>
											<path id="XMLID_728_" class="st4" d="M202.8,806.4c1.8-3.7,5.2-4.7,8.4-4.7c1.3,0,2.1,0.7,2.1,2c0,1.2-0.8,1.9-2.1,1.9
												c-5.8,0-8.2,4.6-8.2,10.2v12.6c0,1.2-1,2-2,2c-1.2,0-2.1-0.8-2.1-2v-24.7c0-2.4,4-2.7,4,0L202.8,806.4L202.8,806.4z"/>
											<path id="XMLID_725_" class="st4" d="M224.8,802.5c1.8-0.8,3.9-1.1,6-1.1c3.2,0.1,6.9,1.1,8.9,4.3v-2.1c0-1.2,0.7-2,2-2
												c1.2,0,2.1,0.8,2.1,2v24.8c0,1.2-0.8,2-2.1,2s-2-0.8-2-2v-2.7c-1.6,3.2-5.8,5.1-9.1,5.1c-2.7,0-5.7-0.7-8.1-2.4
												c-4.3-2.9-6.5-7.6-6.3-13.1C216.3,809.7,219.4,804.6,224.8,802.5L224.8,802.5z M239.6,818.3v-4.4c0-5.5-3.9-8.4-8.9-8.6
												c-4-0.1-8,2.1-9.6,6c-0.5,1.2-0.8,2.7-0.8,4.1c-0.1,3.6,1.1,7,4.1,9.5c1.7,1.3,3.7,2,5.8,2.1
												C235.3,827,239.3,823.9,239.6,818.3z"/>
										</g>
									</g>
									<g id="XMLID_717_">
										<g>
											<g>
												<defs>
													<path id="SVGID_00000129917327396581247500000008300890285599532943_" d="M114.7,805.8v23c0,2.5-4.1,2.5-4.1,0v-23
														h-3.1c-2.2,0-2.2-3.4,0.1-3.4h3v-1.2c0-7.2,8.6-10.4,13.9-6.3c2,1.7-0.6,4.3-2.3,2.9c-2.3-2.1-7.4-0.8-7.4,3.5v1.2h5.5
														c2.1,0,2.1,3.4,0,3.4h-5.6V805.8z"/>
												</defs>
												<clipPath id="SVGID_00000139281939875086898070000003778428647096397759_">
													<use xlink:href="#SVGID_00000129917327396581247500000008300890285599532943_"  style="overflow:visible;"/>
												</clipPath>
												
													<rect id="XMLID_722_" x="93.8" y="817.8" style="clip-path:url(#SVGID_00000139281939875086898070000003778428647096397759_);fill:#F0A500;" width="43.2" height="12.7"/>
											</g>
										</g>
										<g>
											<g>
												<defs>
													<path id="SVGID_00000131345263211591665790000006928573997016815523_" d="M114.7,805.8v23c0,2.5-4.1,2.5-4.1,0v-23
														h-3.1c-2.2,0-2.2-3.4,0.1-3.4h3v-1.2c0-7.2,8.6-10.4,13.9-6.3c2,1.7-0.6,4.3-2.3,2.9c-2.3-2.1-7.4-0.8-7.4,3.5v1.2h5.5
														c2.1,0,2.1,3.4,0,3.4h-5.6V805.8z"/>
												</defs>
												<clipPath id="SVGID_00000044176335348835357040000011652776415649669055_">
													<use xlink:href="#SVGID_00000131345263211591665790000006928573997016815523_"  style="overflow:visible;"/>
												</clipPath>
												
													<rect id="XMLID_721_" x="93.8" y="805.9" style="clip-path:url(#SVGID_00000044176335348835357040000011652776415649669055_);fill:#B3C600;" width="43.2" height="11.9"/>
											</g>
										</g>
										<g>
											<g>
												<defs>
													<path id="SVGID_00000147213270512651567210000017632736011225476270_" d="M114.7,805.8v23c0,2.5-4.1,2.5-4.1,0v-23
														h-3.1c-2.2,0-2.2-3.4,0.1-3.4h3v-1.2c0-7.2,8.6-10.4,13.9-6.3c2,1.7-0.6,4.3-2.3,2.9c-2.3-2.1-7.4-0.8-7.4,3.5v1.2h5.5
														c2.1,0,2.1,3.4,0,3.4h-5.6V805.8z"/>
												</defs>
												<clipPath id="SVGID_00000034786809662149280170000004188562923880734119_">
													<use xlink:href="#SVGID_00000147213270512651567210000017632736011225476270_"  style="overflow:visible;"/>
												</clipPath>
												
													<rect id="XMLID_720_" x="93.8" y="792.5" style="clip-path:url(#SVGID_00000034786809662149280170000004188562923880734119_);fill:#4BB3E4;" width="43.2" height="13.5"/>
											</g>
										</g>
									</g>
								</g>
							</g>
							<path class="st3" d="M134.8,842.1c2,0.4,130.9-9.8,130.9-9.8l-3.8,28.5l-130.2,8.5L134.8,842.1z"/>
						</g>
						<polygon class="st8" points="125.1,850 131.7,869.3 133.9,849.5 						"/>
					</g>
					<g>
						<path class="st2" d="M167,857c-1,0.1-1.9,0.2-2.6,0.3c-1.9,0.3-3.4,0.6-4.4,0.9c-1,0.3-1.8,0.5-2.4,0.8
							c-1.5,0.6-2.5,0.8-3.1,0.9c-0.3,0-0.5-0.1-0.5-0.4c0-0.9,0.3-2.2,0.8-3.9s1.3-3.6,2.4-5.7s2.3-4.1,3.8-6.1
							c0.1-0.1,0.1-0.2,0.1-0.3c0-0.2-0.1-0.4-0.4-0.6c-0.2-0.2-0.5-0.3-0.8-0.3c0,0,0,0-0.1,0c-0.2,0-0.4,0.1-0.7,0.2
							c-0.9,0.6-1.6,1.4-2.3,2.2c-2.2,2.9-3.9,6.2-4.9,10c-0.4,1.2-0.5,2.3-0.5,3.2c0,0.3,0.1,0.6,0.1,0.9c0.2,0.8,0.7,1.4,1.4,2
							s1.5,0.8,2.4,0.8c0.7-0.1,1.4-0.2,2-0.5c0.6-0.2,1.2-0.5,1.9-0.8c1-0.5,2.1-0.9,3.4-1.4c1.3-0.5,2.9-0.9,4.8-1.1
							c0.3-0.1,0.6-0.1,0.8-0.1c0.4,0,0.9,0.1,1.3,0.2c0.1,0,0.2,0.1,0.2,0.1c0.1,0,0.1,0,0.1-0.1s-0.1-0.2-0.3-0.5
							C169.3,857.2,168.3,856.9,167,857z"/>
						<path class="st2" d="M178.9,851.7c0.4-0.6,0.5-1.3,0.5-1.9c0-0.2,0-0.3-0.1-0.4c-0.5-1.2-1.4-2-2.9-2.3
							c-0.3-0.1-0.5-0.1-0.7-0.1c-0.1,0-0.3,0-0.4,0c-0.1,0-0.2,0-0.3,0s-0.2,0-0.3,0s-0.2,0-0.3,0l0,0c-0.7,0-1.7,1.1-2.9,3
							c-0.7,1.2-1.3,2.7-1.8,4.3c-0.1,0.4-0.2,0.8-0.1,1.1c0.1,1.1,0.7,1.9,2,2.6c0.4,0.2,0.8,0.3,1.1,0.3c0.4,0,0.8-0.2,1.1-0.5
							c0.5-0.4,1.3-1.2,2.2-2.3C177.2,854.4,178.1,853.1,178.9,851.7z M174.6,854.2c-1,0.9-1.3,1-1.4,1H173l0.1-0.2
							c0.6-1.7,1.3-3,2-4c0.6-0.8,1-1.3,1.3-1.4c0.3-0.2,0.4-0.4,0.4-0.7c0-0.1,0-0.2-0.1-0.3c0-0.1,0-0.2,0-0.2
							c0-0.1,0-0.2,0.1-0.2c0,0,0.1-0.1,0.2-0.1c0.1,0,0.2,0,0.3,0.1c0.2,0.1,0.4,0.2,0.5,0.3s0.2,0.3,0.2,0.5
							c-0.1,0.9-0.5,1.9-1.2,2.9C176,852.8,175.3,853.5,174.6,854.2z"/>
						<path class="st2" d="M191.4,848.5c-0.1-0.3-0.2-0.6-0.4-0.9c-0.2-0.3-0.6-0.7-1.1-1.1c-0.7-0.4-1.4-0.6-2.1-0.6
							c-1.4,0.1-3,0.9-4.5,2.5c-0.7,0.7-1.2,1.5-1.7,2.2c-0.8,1.3-1.2,2.4-1.2,3.2c0.1,0.9,0.6,1.7,1.8,2.2c0.3,0.2,0.7,0.2,1,0.2
							c0.4,0,0.8-0.2,1.2-0.5s0.8-0.7,1.3-1.1c1.4-1.4,3.2-3,3.3-3l0.1-0.1c0.1,0,0.1-0.1,0.2-0.1c0,0,0,0,0.1,0l0,0v0.3l0,0h0.1
							c-0.1,0.1-0.5,1-0.7,1.4c-0.1,0.3-0.2,0.5-0.3,0.5c-0.3,0.6-0.7,1.2-1.2,1.9c-0.2,0.3-0.3,0.5-0.5,0.8c-0.5,0.8-1,1.6-1.6,2.3
							c-1.4,1.8-2.9,3-4.6,3.7c-2,0.8-3.6,0.3-5-1.5c-0.3-0.4-0.4-0.8-0.5-1.2c0-0.2-0.2-0.4-0.5-0.6c-0.1,0-0.1,0-0.2,0l0,0
							c-0.1,0-0.3,0.1-0.3,0.6c0,0.3,0.1,0.7,0.4,1.1c0.5,0.9,1.2,1.7,2.1,2.5c0.9,0.8,1.8,1.3,2.9,1.7c0.6,0.2,1.1,0.3,1.7,0.2
							c2.5-0.1,4.3-2,6.1-4c1.4-1.5,3.3-3.9,4.3-6.7c0.6-1.6,0.9-2.9,0.8-3.9c0-0.5-0.2-1-0.5-1.2
							C191.7,849.2,191.5,848.9,191.4,848.5z M187.3,852c-1.2,0.9-2.3,1.6-3.2,2.1l0,0l0,0l0,0c-0.1,0-0.1,0-0.2,0
							c-0.1,0-0.1-0.1-0.1-0.2l0,0l0,0c0.2-0.5,0.5-1.1,1-1.8s1.1-1.4,1.8-2c0.7-0.7,1.5-1.1,2.3-1.5c0.1,0,0.2-0.1,0.3-0.1
							s0.3,0,0.5,0.3c0.2,0.2,0.3,0.3,0.5,0.4c0.1,0,0.2,0.1,0.2,0.3C190.4,849.6,190.4,849.6,187.3,852z"/>
						<path class="st2" d="M198.5,843.6c0.2,0.1,0.4,0.2,0.5,0.2c0.2,0,0.3-0.1,0.5-0.2c1.5-1,2.4-1.6,2.7-1.8
							c0.4-0.4,0.6-0.7,0.6-1.1c0-0.3-0.1-0.5-0.4-0.8c-0.2-0.2-0.5-0.4-0.9-0.6c-0.2-0.1-0.3-0.1-0.5-0.1l0,0
							c-0.7,0-1.5,0.6-2.3,1.7c-0.8,1.1-0.9,1.6-0.9,1.9C197.9,843.1,198.1,843.4,198.5,843.6z"/>
						<path class="st2" d="M198.4,846.6c-0.2-0.1-0.5-0.2-0.7-0.2l0,0c-0.5,0-1,0.3-1.5,0.9c-0.5,0.6-0.9,1.3-1.3,2.2
							c-0.4,0.9-0.6,1.8-0.8,2.7s-0.3,1.8-0.2,2.5v0.3c0.1,0.8,0.5,1.4,1.2,1.9c0.3,0.2,0.6,0.3,0.9,0.3l0,0c0.3,0,0.6-0.2,0.9-0.4
							c0.1-0.1,0.1-0.2,0.1-0.2c-0.1-0.4-0.3-0.6-0.6-0.8c-0.2-0.1-0.4-0.2-0.4-0.4l0,0l0,0c0-0.5,0.5-1.7,1.4-3.5
							c1.5-2.9,1.8-3.8,1.8-4C199.2,847.3,199,846.9,198.4,846.6z"/>
						<path class="st2" d="M207,844.3c-0.2,0-0.5,0.1-0.7,0.1c-2.2,0.6-3.7,1.9-4.3,4c-0.1,0.2-0.1,0.5-0.1,0.7
							c0,0.4,0.2,0.8,0.4,1.1c0.3,0.4,0.6,0.7,1,1s0.8,0.5,1.3,0.7c0.1,0,0.3,0.1,0.3,0.3s-0.1,0.3-0.3,0.5
							c-1.2,1.4-2.7,2.4-4.4,3.2c-0.1,0.1-0.3,0.1-0.5,0.1c-0.1,0-0.2,0-0.2,0h-0.1l0,0c-0.2,0-0.2,0.1-0.2,0.2
							c0,0.1,0.1,0.3,0.3,0.5c0.5,0.4,1.1,0.6,1.8,0.5c0.5,0,0.9-0.1,1.4-0.3c1.7-0.5,3.2-1.3,4.5-2.3c0.6-0.4,0.9-0.9,0.8-1.5
							c0-0.5-0.3-1-0.7-1.5c-0.5-0.5-1.1-0.9-1.9-1.3c-0.2-0.1-0.4-0.2-0.4-0.4c0-0.1,0-0.2,0.2-0.4c0.8-1.2,1.9-2.3,3.2-3.1
							c0.1-0.1,0.3-0.2,0.4-0.2c0.1,0,0.2,0,0.4,0.1s0.3,0.1,0.3,0.1c0.1,0,0.2-0.1,0.2-0.1c0.1-0.1,0.1-0.2,0.1-0.4
							s-0.1-0.5-0.2-0.7C208.9,844.7,208.1,844.3,207,844.3z"/>
						<path class="st2" d="M218.7,842.6c-0.2,0-0.5,0-0.5-0.2c0-0.1,0-0.2,0.1-0.3c0.4-0.7,0.5-1.2,0.5-1.7c0-0.7-0.4-1.2-1.2-1.5
							c-0.2-0.1-0.4-0.1-0.6-0.1c-0.2,0-0.4,0.1-0.6,0.3c-0.3,0.3-0.6,0.6-0.8,1l-0.3,0.5c-0.4,0.5-0.7,1.1-0.9,1.7
							c-0.2,0.4-0.4,0.7-0.7,0.8s-0.7,0.2-1.2,0.3c-0.5,0-1.1,0.2-1.9,0.4c-0.4,0.1-0.4,0.3-0.4,0.4c0,0.2,0.2,0.5,0.6,0.8
							c0.4,0.3,0.9,0.5,1.5,0.5c0.1,0,0.1,0,0.2,0c0.1,0,0.1,0,0.2,0c0.1,0,0.2,0.1,0.2,0.2c0,0.1,0,0.2-0.2,0.6
							c-0.1,0.3-0.3,0.9-0.6,1.8c-0.5,1.5-0.8,3-0.8,4.6v0.2c0.1,1.5,0.9,2.5,2.4,3.2c0.3,0.1,0.7,0.2,1,0.2h0.1
							c0.3,0,0.5-0.1,0.7-0.3c1.7-1.3,3-2.6,3.8-3.9c0.3-0.5,0.4-0.9,0.4-1.3c0-0.3-0.2-0.5-0.5-0.7c-0.1-0.1-0.2-0.1-0.3-0.1
							s-0.2,0-0.3,0.1s-0.2,0.2-0.4,0.4c-0.8,1-2.1,2.1-3.8,3c-0.1,0-0.1,0.1-0.2,0.1c-0.1,0-0.1,0-0.2-0.1
							c-0.1-0.1-0.1-0.1-0.1-0.2l0,0l0,0c0.2-1.5,0.6-3,1-4.3c0.5-1.3,1-2.7,1.7-4.2c0-0.1,0.2-0.2,0.4-0.3c0.8-0.2,1.3-0.3,1.5-0.4
							c0,0,0.1,0,0.2,0c0.1,0,0.2-0.1,0.3-0.1l0,0l0,0c0.1,0,0.2,0,0.3,0c0.2,0,0.4-0.1,0.5-0.2l0,0c0.1,0,0.3-0.1,0.3-0.2
							C220.3,842.9,219.7,842.6,218.7,842.6z"/>
						<path class="st2" d="M230.1,838.4c-0.2-0.2-0.5-0.4-0.9-0.6c-0.2-0.1-0.3-0.1-0.5-0.1l0,0c-0.7,0-1.5,0.6-2.3,1.7
							c-0.8,1.1-0.9,1.6-0.9,1.9c0,0.3,0.2,0.6,0.7,0.8c0.2,0.1,0.4,0.2,0.5,0.2c0.2,0,0.3-0.1,0.5-0.2c1.5-1,2.4-1.6,2.7-1.8
							c0.4-0.4,0.6-0.7,0.6-1.1C230.4,838.9,230.3,838.7,230.1,838.4z"/>
						<path class="st2" d="M225.4,845C225.3,845,225.3,845,225.4,845c-0.5,0-1,0.3-1.5,0.9c-0.5,0.6-0.9,1.3-1.3,2.2
							c-0.4,0.9-0.6,1.8-0.8,2.7s-0.3,1.8-0.2,2.5v0.3c0.1,0.8,0.5,1.4,1.2,1.9c0.3,0.2,0.6,0.3,0.9,0.3c0.3,0,0.6-0.2,0.9-0.4
							c0.1-0.1,0.1-0.2,0.1-0.2c-0.1-0.4-0.3-0.6-0.6-0.8c-0.2-0.1-0.4-0.2-0.4-0.4c0-0.5,0.5-1.7,1.4-3.5c1.5-2.9,1.8-3.8,1.8-4
							c0-0.5-0.3-0.9-0.9-1.2C225.8,845.1,225.6,845,225.4,845z"/>
						<path class="st2" d="M234.6,846.7c0.2-0.1,0.3-0.2,0.5-0.2s0.3,0,0.5,0.1s0.3,0.1,0.4,0.1c0.2,0,0.3-0.1,0.4-0.2
							c0.1-0.1,0.2-0.3,0.1-0.5c-0.2-0.8-0.7-1.5-1.6-1.9c-0.4-0.2-0.8-0.2-1.2-0.2h-0.1c-0.4,0-0.8,0.1-1.2,0.3
							c-1.1,0.6-2,1.4-2.7,2.5s-1.3,2.2-1.6,3.2c-0.1,0.5-0.2,0.9-0.2,1.4c0,0.8,0.2,1.5,0.6,2.1c0.4,0.6,0.8,1.1,1.2,1.4
							c0.6,0.4,1.2,0.5,1.7,0.5s0.8-0.3,1.6-0.8c0.9-0.7,1.6-1.5,2.2-2.4c0.1-0.2,0.2-0.3,0.1-0.4c0-0.2-0.2-0.4-0.5-0.6
							c-0.1,0-0.2-0.1-0.2-0.1s-0.2,0.1-0.3,0.1c-0.7,0.6-1.5,1.1-2.4,1.4c-0.3,0.1-0.6,0.2-0.9,0.2c-0.2,0-0.3-0.1-0.3-0.3
							s0-0.5,0.4-1.4c0.3-0.7,0.7-1.5,1.3-2.3C233,848,233.7,847.3,234.6,846.7z"/>
						<path class="st2" d="M244.7,842.3c-0.2,0-0.5,0.1-0.7,0.1c-2.2,0.6-3.7,1.9-4.3,4c-0.1,0.2-0.1,0.5-0.1,0.7
							c0,0.4,0.2,0.8,0.4,1.1c0.3,0.4,0.6,0.7,1,1s0.8,0.5,1.3,0.7c0.1,0,0.3,0.1,0.3,0.3s-0.1,0.3-0.3,0.5
							c-1.2,1.4-2.7,2.4-4.4,3.2c-0.1,0.1-0.3,0.1-0.5,0.1c-0.1,0-0.2,0-0.2,0h-0.1l0,0c-0.2,0-0.2,0.1-0.2,0.2
							c0,0.1,0.1,0.3,0.3,0.5c0.5,0.4,1.1,0.6,1.8,0.5c0.5,0,0.9-0.1,1.4-0.3c1.7-0.5,3.2-1.3,4.5-2.3c0.6-0.4,0.9-0.9,0.8-1.5
							c0-0.5-0.3-1-0.7-1.5s-1.1-0.9-1.9-1.3c-0.2-0.1-0.4-0.2-0.4-0.4c0-0.1,0-0.2,0.2-0.4c0.8-1.2,1.9-2.3,3.2-3.1
							c0.1-0.1,0.3-0.2,0.4-0.2c0.1,0,0.2,0,0.4,0.1s0.3,0.1,0.3,0.1c0.1,0,0.2-0.1,0.2-0.1c0.1-0.1,0.1-0.2,0.1-0.4
							s-0.1-0.5-0.2-0.7C246.6,842.6,245.7,842.2,244.7,842.3z"/>
					</g>
				</g>
				<g>
					<path class="st9" d="M373,838.8c-1.8,0-3.5-0.2-5-0.7s-2.7-1.2-3.8-2.2c-1-1-1.8-2.2-2.4-3.7c-0.5-1.5-0.8-3.2-0.8-5.3v-14.5
						h7.3v14.4c0,1.9,0.4,3.3,1.3,4.2s2,1.3,3.4,1.3s2.6-0.4,3.4-1.3c0.9-0.9,1.3-2.2,1.3-4v-14.5h7.3v14.3c0,2.1-0.3,3.9-0.9,5.4
						s-1.4,2.8-2.4,3.7c-1,1-2.3,1.7-3.8,2.2C376.6,838.6,374.9,838.8,373,838.8"/>
					<polygon class="st9" points="388.1,812.5 395.2,812.5 395.2,832.1 403.7,832.1 403.7,838.3 388.1,838.3 					"/>
					<polygon class="st9" points="409.4,818.8 401.7,818.8 401.7,812.5 424.3,812.5 424.3,818.8 416.6,818.8 416.6,838.3 
						409.4,838.3 					"/>
					<path class="st9" d="M425.8,812.5H438c2,0,3.7,0.2,5.1,0.7s2.5,1.2,3.4,2.1c1.5,1.5,2.3,3.5,2.3,6v0.1c0,2-0.5,3.6-1.4,4.9
						c-1,1.3-2.3,2.3-3.9,3l6.2,9h-8.3l-5.2-7.8H436h-3v7.8h-7.2V812.5z M437.7,824.9c1.2,0,2.2-0.3,2.8-0.8c0.7-0.5,1-1.3,1-2.2
						v-0.1c0-1-0.3-1.8-1-2.3s-1.6-0.8-2.8-0.8H433v6.2L437.7,824.9L437.7,824.9z"/>
					<path class="st9" d="M461.3,812.3h6.9l11,26h-7.7l-1.9-4.6h-10l-1.8,4.6h-7.5L461.3,812.3z M467.5,828.2l-2.9-7.3l-2.9,7.3
						H467.5z"/>
					<path class="st9" d="M490.4,838.8c-1.8,0-3.6-0.3-5.2-1s-3-1.6-4.2-2.8s-2.1-2.6-2.8-4.2c-0.7-1.6-1.1-3.4-1.1-5.3v-0.1
						c0-1.9,0.3-3.6,1-5.3c0.7-1.6,1.6-3.1,2.8-4.3c1.2-1.2,2.6-2.2,4.3-2.9c1.7-0.7,3.5-1,5.4-1c1.3,0,2.5,0.1,3.6,0.4
						c1.1,0.3,2.1,0.6,3,1.1s1.7,1.1,2.4,1.7c0.7,0.7,1.4,1.4,1.9,2.2l-5.4,4.2c-0.7-0.9-1.6-1.7-2.4-2.2c-0.9-0.5-2-0.8-3.2-0.8
						c-0.9,0-1.7,0.2-2.5,0.5c-0.7,0.4-1.4,0.8-1.9,1.5c-0.5,0.6-1,1.3-1.3,2.2c-0.3,0.8-0.5,1.7-0.5,2.7v0.1c0,1,0.2,1.9,0.5,2.7
						s0.7,1.6,1.3,2.2c0.5,0.6,1.2,1.1,1.9,1.5c0.7,0.4,1.6,0.5,2.5,0.5c0.7,0,1.3-0.1,1.8-0.2c0.6-0.2,1.1-0.4,1.5-0.6
						c0.5-0.3,0.9-0.6,1.3-1s0.8-0.8,1.2-1.3l5.4,3.8c-0.6,0.8-1.3,1.6-2,2.3s-1.6,1.3-2.5,1.8s-2,0.9-3.1,1.2
						C493.1,838.7,491.8,838.8,490.4,838.8"/>
					<polygon class="st9" points="504,812.5 524.7,812.5 524.7,818.6 511.1,818.6 511.1,822.5 523.4,822.5 523.4,828.1 511.1,828.1 
						511.1,832.2 524.9,832.2 524.9,838.3 504,838.3 					"/>
					<polygon class="st9" points="527.5,812.5 535.1,812.5 541.2,822.5 547.4,812.5 555,812.5 555,838.3 547.8,838.3 547.8,823.5 
						541.2,833.6 541.1,833.6 534.6,823.6 534.6,838.3 527.5,838.3 					"/>
					<path class="st9" d="M345.9,816l-12.2,17.8c-5.9,8.6-13.9,9.8-23.1,3.5s-11-14.2-5.1-22.8l12-17.5c-8.1,0.6-15.9,4.7-20.8,12
						c-8.6,12.6-5.4,29.8,7.2,38.5c12.6,8.6,29.8,5.4,38.5-7.2C347.4,832.8,348.4,823.9,345.9,816"/>
					<path class="st9" d="M312.1,828.2l6.3,4.3c1.8,1.2,4.2,0.8,5.4-1l16.6-24.2c1.2-1.8,0.8-4.2-1-5.4l-6.3-4.3
						c-1.8-1.2-4.2-0.8-5.4,1l-16.6,24.2C309.9,824.5,310.3,827,312.1,828.2"/>
				</g>
			</g>
			<g>
				<g class="st10">
					<path class="st2" d="M227.2,888.2c-0.2,0.1-0.8,0.3-1.5,0.3c-2,0-3.1-1.3-3.1-3c0-2,1.4-3.1,3.2-3.1c0.7,0,1.2,0.1,1.5,0.3
						l-0.3,1.1c-0.3-0.1-0.6-0.2-1.1-0.2c-1.1,0-1.9,0.6-1.9,2c0,1.2,0.7,1.9,1.9,1.9c0.4,0,0.9-0.1,1.1-0.2L227.2,888.2z"/>
					<path class="st2" d="M232.1,886.1c0,1.6-1.1,2.3-2.3,2.3c-1.3,0-2.2-0.8-2.2-2.2c0-1.4,0.9-2.3,2.3-2.3
						C231.2,883.9,232.1,884.8,232.1,886.1z M229,886.2c0,0.7,0.3,1.3,0.9,1.3c0.5,0,0.9-0.5,0.9-1.3c0-0.6-0.2-1.3-0.9-1.3
						C229.2,884.9,229,885.5,229,886.2z"/>
					<path class="st2" d="M232.9,885.5c0-0.6,0-1,0-1.4h1.2l0.1,0.6h0c0.3-0.4,0.8-0.7,1.4-0.7c0.9,0,1.8,0.8,1.8,2.2
						c0,1.6-1,2.3-1.9,2.3c-0.5,0-0.9-0.2-1.1-0.5h0v2.1h-1.3V885.5z M234.2,886.5c0,0.1,0,0.2,0,0.3c0.1,0.4,0.4,0.6,0.8,0.6
						c0.6,0,0.9-0.5,0.9-1.2c0-0.7-0.3-1.2-0.9-1.2c-0.4,0-0.7,0.3-0.8,0.7c0,0.1,0,0.2,0,0.2V886.5z"/>
					<path class="st2" d="M239.1,884l0.6,2.1c0.1,0.2,0.2,0.6,0.2,0.8h0c0.1-0.2,0.1-0.6,0.2-0.8l0.5-2.1h1.4l-1,2.8
						c-0.6,1.7-1,2.4-1.5,2.8c-0.5,0.4-0.9,0.6-1.3,0.6l-0.3-1.1c0.2,0,0.4-0.1,0.6-0.2c0.2-0.1,0.4-0.3,0.6-0.5
						c0-0.1,0.1-0.1,0.1-0.2s0-0.1-0.1-0.2l-1.6-3.9H239.1z"/>
					<path class="st2" d="M242.6,885.4c0-0.6,0-1,0-1.4h1.1l0.1,0.8h0c0.2-0.6,0.7-0.9,1.2-0.9c0.1,0,0.2,0,0.3,0v1.3
						c-0.1,0-0.2,0-0.4,0c-0.5,0-0.8,0.3-0.9,0.7c0,0.1,0,0.2,0,0.3v2.2h-1.3V885.4z"/>
					<path class="st2" d="M247.3,882.8c0,0.4-0.3,0.7-0.7,0.7c-0.4,0-0.7-0.3-0.7-0.7c0-0.4,0.3-0.7,0.7-0.7
						C247.1,882.2,247.3,882.5,247.3,882.8z M246,888.3V884h1.3v4.3H246z"/>
					<path class="st2" d="M252.4,887.7c0,0.8-0.2,1.5-0.7,1.9c-0.5,0.4-1.1,0.5-1.7,0.5c-0.6,0-1.2-0.1-1.5-0.3l0.3-1
						c0.3,0.2,0.7,0.3,1.2,0.3c0.6,0,1.1-0.3,1.1-1.1v-0.3h0c-0.3,0.4-0.7,0.6-1.2,0.6c-1.1,0-1.8-0.9-1.8-2.1
						c0-1.4,0.9-2.3,1.9-2.3c0.6,0,1,0.3,1.2,0.6h0l0-0.5h1.2c0,0.3,0,0.6,0,1.3V887.7z M251.1,885.8c0-0.1,0-0.2,0-0.2
						c-0.1-0.4-0.4-0.6-0.7-0.6c-0.5,0-0.9,0.4-0.9,1.2c0,0.6,0.3,1.1,0.9,1.1c0.4,0,0.6-0.2,0.7-0.5c0-0.1,0-0.2,0-0.4V885.8z"/>
					<path class="st2" d="M253.5,882.1h1.3v2.5h0c0.1-0.2,0.3-0.3,0.5-0.4c0.2-0.1,0.4-0.2,0.7-0.2c0.9,0,1.5,0.6,1.5,1.9v2.5h-1.3
						V886c0-0.6-0.2-0.9-0.7-0.9c-0.4,0-0.6,0.2-0.7,0.5c0,0.1,0,0.2,0,0.3v2.5h-1.3V882.1z"/>
					<path class="st2" d="M260.1,882.9v1.2h1v1h-1v1.6c0,0.5,0.1,0.8,0.5,0.8c0.2,0,0.3,0,0.4,0l0,1c-0.2,0.1-0.5,0.1-0.9,0.1
						c-0.4,0-0.8-0.1-1-0.4c-0.2-0.3-0.4-0.7-0.4-1.3V885h-0.6v-1h0.6v-0.8L260.1,882.9z"/>
					<path class="st2" d="M268.7,885.3c0,1.5-1.2,2.7-2.7,2.7c-1.5,0-2.7-1.2-2.7-2.7c0-1.5,1.2-2.7,2.7-2.7
						C267.5,882.6,268.7,883.8,268.7,885.3z M263.9,885.3c0,1.2,0.9,2.2,2.1,2.2c1.2,0,2.1-1,2.1-2.2c0-1.2-0.9-2.2-2.1-2.2
						C264.8,883.1,263.9,884.1,263.9,885.3z M267.1,884.5c-0.1-0.1-0.4-0.2-0.8-0.2c-0.7,0-1.1,0.4-1.1,1.1c0,0.6,0.4,1.1,1.1,1.1
						c0.4,0,0.7-0.1,0.9-0.2l0.1,0.4c-0.3,0.2-0.7,0.3-1.1,0.3c-1,0-1.6-0.7-1.6-1.6c0-1,0.8-1.6,1.7-1.6c0.4,0,0.9,0.1,1,0.2
						L267.1,884.5z"/>
					<path class="st2" d="M271.1,888.3v-0.8l0.7-0.7c1.3-1.1,1.9-1.8,1.9-2.4c0-0.5-0.3-0.8-0.9-0.8c-0.5,0-0.9,0.2-1.2,0.5
						l-0.4-0.9c0.4-0.3,1.1-0.6,1.9-0.6c1.3,0,2,0.8,2,1.8c0,1-0.7,1.7-1.5,2.5l-0.5,0.4v0h2.2v1.1H271.1z"/>
					<path class="st2" d="M280.2,885.4c0,1.8-0.7,3-2.2,3c-1.5,0-2.1-1.3-2.1-2.9c0-1.7,0.7-3,2.2-3
						C279.6,882.5,280.2,883.9,280.2,885.4z M277.2,885.5c0,1.3,0.3,1.9,0.8,1.9c0.5,0,0.8-0.6,0.8-1.9c0-1.3-0.3-1.9-0.8-1.9
						C277.6,883.5,277.2,884.1,277.2,885.5z"/>
					<path class="st2" d="M280.9,888.3v-0.8l0.7-0.7c1.3-1.1,1.9-1.8,1.9-2.4c0-0.5-0.3-0.8-0.9-0.8c-0.5,0-0.9,0.2-1.2,0.5
						l-0.4-0.9c0.4-0.3,1.1-0.6,1.9-0.6c1.3,0,2,0.8,2,1.8c0,1-0.7,1.7-1.5,2.5l-0.5,0.4v0h2.2v1.1H280.9z"/>
					<path class="st2" d="M287.4,883.8L287.4,883.8l-1.1,0.5l-0.2-1l1.5-0.7h1.1v5.7h-1.3V883.8z"/>
					<path class="st2" d="M290.6,887.6c0-0.5,0.3-0.8,0.8-0.8c0.5,0,0.8,0.3,0.8,0.8c0,0.5-0.3,0.8-0.8,0.8
						C291,888.4,290.6,888.1,290.6,887.6z"/>
					<path class="st2" d="M294.4,886.8l-0.4,1.5h-1.4l1.8-5.9h1.8l1.8,5.9h-1.4l-0.5-1.5H294.4z M295.9,885.8l-0.4-1.3
						c-0.1-0.4-0.2-0.8-0.3-1.1h0c-0.1,0.4-0.2,0.8-0.3,1.1l-0.4,1.3H295.9z"/>
					<path class="st2" d="M298.7,882.1h1.3v6.2h-1.3V882.1z"/>
					<path class="st2" d="M301.1,882.1h1.3v6.2h-1.3V882.1z"/>
					<path class="st2" d="M305.4,882.5c0.4-0.1,1.1-0.1,1.8-0.1c0.9,0,1.5,0.1,1.9,0.5c0.4,0.3,0.6,0.7,0.6,1.2c0,0.7-0.5,1.3-1,1.4
						v0c0.4,0.2,0.6,0.6,0.8,1.1c0.2,0.7,0.4,1.4,0.5,1.7h-1.4c-0.1-0.2-0.2-0.6-0.4-1.4c-0.2-0.7-0.4-0.9-1-0.9h-0.4v2.3h-1.3
						V882.5z M306.7,885h0.5c0.7,0,1.1-0.3,1.1-0.9c0-0.5-0.4-0.8-1-0.8c-0.3,0-0.5,0-0.6,0V885z"/>
					<path class="st2" d="M312,882.8c0,0.4-0.3,0.7-0.7,0.7c-0.4,0-0.7-0.3-0.7-0.7c0-0.4,0.3-0.7,0.7-0.7
						C311.7,882.2,312,882.5,312,882.8z M310.6,888.3V884h1.3v4.3H310.6z"/>
					<path class="st2" d="M317.1,887.7c0,0.8-0.2,1.5-0.7,1.9c-0.5,0.4-1.1,0.5-1.7,0.5c-0.6,0-1.2-0.1-1.5-0.3l0.3-1
						c0.3,0.2,0.7,0.3,1.2,0.3c0.6,0,1.1-0.3,1.1-1.1v-0.3h0c-0.3,0.4-0.7,0.6-1.2,0.6c-1.1,0-1.8-0.9-1.8-2.1
						c0-1.4,0.9-2.3,1.9-2.3c0.6,0,1,0.3,1.2,0.6h0l0-0.5h1.2c0,0.3,0,0.6,0,1.3V887.7z M315.7,885.8c0-0.1,0-0.2,0-0.2
						c-0.1-0.4-0.4-0.6-0.7-0.6c-0.5,0-0.9,0.4-0.9,1.2c0,0.6,0.3,1.1,0.9,1.1c0.4,0,0.6-0.2,0.7-0.5c0-0.1,0-0.2,0-0.4V885.8z"/>
					<path class="st2" d="M318.1,882.1h1.3v2.5h0c0.1-0.2,0.3-0.3,0.5-0.4c0.2-0.1,0.4-0.2,0.7-0.2c0.9,0,1.5,0.6,1.5,1.9v2.5h-1.3
						V886c0-0.6-0.2-0.9-0.7-0.9c-0.4,0-0.6,0.2-0.7,0.5c0,0.1,0,0.2,0,0.3v2.5h-1.3V882.1z"/>
					<path class="st2" d="M324.7,882.9v1.2h1v1h-1v1.6c0,0.5,0.1,0.8,0.5,0.8c0.2,0,0.3,0,0.4,0l0,1c-0.2,0.1-0.5,0.1-0.9,0.1
						c-0.4,0-0.8-0.1-1-0.4c-0.2-0.3-0.4-0.7-0.4-1.3V885h-0.6v-1h0.6v-0.8L324.7,882.9z"/>
					<path class="st2" d="M326.4,887.2c0.2,0.1,0.8,0.3,1.1,0.3c0.4,0,0.6-0.1,0.6-0.4c0-0.2-0.1-0.3-0.6-0.5
						c-0.9-0.3-1.2-0.8-1.2-1.3c0-0.8,0.7-1.4,1.7-1.4c0.5,0,0.9,0.1,1.2,0.3l-0.2,0.9c-0.2-0.1-0.6-0.2-0.9-0.2
						c-0.3,0-0.5,0.1-0.5,0.3c0,0.2,0.2,0.3,0.7,0.5c0.8,0.3,1.1,0.7,1.2,1.3c0,0.8-0.6,1.4-1.9,1.4c-0.6,0-1.1-0.1-1.4-0.3
						L326.4,887.2z"/>
					<path class="st2" d="M332.1,882.5c0.4-0.1,1.1-0.1,1.8-0.1c0.9,0,1.5,0.1,1.9,0.5c0.4,0.3,0.6,0.7,0.6,1.2c0,0.7-0.5,1.3-1,1.4
						v0c0.4,0.2,0.6,0.6,0.8,1.1c0.2,0.7,0.4,1.4,0.5,1.7h-1.4c-0.1-0.2-0.2-0.6-0.4-1.4c-0.2-0.7-0.4-0.9-1-0.9h-0.4v2.3h-1.3
						V882.5z M333.4,885h0.5c0.7,0,1.1-0.3,1.1-0.9c0-0.5-0.4-0.8-1-0.8c-0.3,0-0.5,0-0.6,0V885z"/>
					<path class="st2" d="M338.2,886.6c0,0.6,0.6,0.8,1.2,0.8c0.5,0,0.8-0.1,1.2-0.2l0.2,0.9c-0.4,0.2-1,0.3-1.6,0.3
						c-1.5,0-2.3-0.8-2.3-2.2c0-1.1,0.7-2.3,2.2-2.3c1.4,0,1.9,1.1,1.9,2.1c0,0.2,0,0.4,0,0.5H338.2z M339.8,885.7
						c0-0.3-0.1-0.9-0.8-0.9c-0.6,0-0.8,0.5-0.8,0.9H339.8z"/>
					<path class="st2" d="M341.8,887.2c0.2,0.1,0.8,0.3,1.1,0.3c0.4,0,0.6-0.1,0.6-0.4c0-0.2-0.1-0.3-0.6-0.5
						c-0.9-0.3-1.2-0.8-1.2-1.3c0-0.8,0.7-1.4,1.7-1.4c0.5,0,0.9,0.1,1.2,0.3l-0.2,0.9c-0.2-0.1-0.6-0.2-0.9-0.2
						c-0.3,0-0.5,0.1-0.5,0.3c0,0.2,0.2,0.3,0.7,0.5c0.8,0.3,1.1,0.7,1.2,1.3c0,0.8-0.6,1.4-1.9,1.4c-0.6,0-1.1-0.1-1.4-0.3
						L341.8,887.2z"/>
					<path class="st2" d="M346.7,886.6c0,0.6,0.6,0.8,1.2,0.8c0.5,0,0.8-0.1,1.2-0.2l0.2,0.9c-0.4,0.2-1,0.3-1.6,0.3
						c-1.5,0-2.3-0.8-2.3-2.2c0-1.1,0.7-2.3,2.2-2.3c1.4,0,1.9,1.1,1.9,2.1c0,0.2,0,0.4,0,0.5H346.7z M348.2,885.7
						c0-0.3-0.1-0.9-0.8-0.9c-0.6,0-0.8,0.5-0.8,0.9H348.2z"/>
					<path class="st2" d="M350.3,885.4c0-0.6,0-1,0-1.4h1.1l0.1,0.8h0c0.2-0.6,0.7-0.9,1.2-0.9c0.1,0,0.2,0,0.3,0v1.3
						c-0.1,0-0.2,0-0.4,0c-0.5,0-0.8,0.3-0.9,0.7c0,0.1,0,0.2,0,0.3v2.2h-1.3V885.4z"/>
					<path class="st2" d="M354.8,884l0.6,2c0.1,0.4,0.2,0.7,0.2,1h0c0.1-0.4,0.1-0.7,0.2-1l0.6-2h1.4l-1.6,4.3h-1.3l-1.6-4.3H354.8z
						"/>
					<path class="st2" d="M359.3,886.6c0,0.6,0.6,0.8,1.2,0.8c0.5,0,0.8-0.1,1.2-0.2l0.2,0.9c-0.4,0.2-1,0.3-1.6,0.3
						c-1.5,0-2.3-0.8-2.3-2.2c0-1.1,0.7-2.3,2.2-2.3c1.4,0,1.9,1.1,1.9,2.1c0,0.2,0,0.4,0,0.5H359.3z M360.9,885.7
						c0-0.3-0.1-0.9-0.8-0.9c-0.6,0-0.8,0.5-0.8,0.9H360.9z"/>
					<path class="st2" d="M367.1,882.1v4.9c0,0.5,0,1,0,1.3h-1.2l-0.1-0.6h0c-0.3,0.5-0.8,0.7-1.3,0.7c-1,0-1.8-0.9-1.8-2.2
						c0-1.4,0.9-2.3,1.9-2.3c0.5,0,0.9,0.2,1.1,0.5h0v-2.3H367.1z M365.7,885.8c0-0.1,0-0.2,0-0.2c-0.1-0.4-0.4-0.6-0.8-0.6
						c-0.6,0-0.9,0.5-0.9,1.2c0,0.7,0.4,1.2,0.9,1.2c0.4,0,0.7-0.3,0.8-0.6c0-0.1,0-0.2,0-0.3V885.8z"/>
					<path class="st2" d="M369.9,882.5c0.4-0.1,1.1-0.1,1.7-0.1c0.8,0,1.3,0.1,1.8,0.3c0.4,0.2,0.7,0.6,0.7,1.2c0,0.5-0.3,1-1,1.3v0
						c0.7,0.2,1.2,0.7,1.2,1.4c0,0.5-0.2,1-0.6,1.3c-0.4,0.3-1.1,0.5-2.3,0.5c-0.7,0-1.1,0-1.4-0.1V882.5z M371.3,884.7h0.4
						c0.7,0,1.1-0.3,1.1-0.7c0-0.4-0.3-0.7-0.9-0.7c-0.3,0-0.5,0-0.6,0V884.7z M371.3,887.4c0.1,0,0.3,0,0.5,0
						c0.6,0,1.1-0.2,1.1-0.9c0-0.6-0.5-0.8-1.2-0.8h-0.5V887.4z"/>
					<path class="st2" d="M376.1,884l0.6,2.1c0.1,0.2,0.2,0.6,0.2,0.8h0c0.1-0.2,0.1-0.6,0.2-0.8l0.5-2.1h1.4l-1,2.8
						c-0.6,1.7-1,2.4-1.5,2.8c-0.5,0.4-0.9,0.6-1.3,0.6l-0.3-1.1c0.2,0,0.4-0.1,0.6-0.2c0.2-0.1,0.4-0.3,0.6-0.5
						c0-0.1,0.1-0.1,0.1-0.2s0-0.1-0.1-0.2l-1.6-3.9H376.1z"/>
					<path class="st2" d="M381.7,888.3V885h-0.6v-1h0.6v-0.2c0-1.2,0.9-1.9,2.2-1.9c0.5,0,1,0.1,1.3,0.3l-0.3,1
						c-0.2-0.1-0.6-0.2-1-0.2c-0.7,0-0.9,0.4-0.9,0.8v0.1h2.6v4.3h-1.3V885H383v3.3H381.7z"/>
					<path class="st2" d="M386.7,885.4c0-0.5,0-1,0-1.4h1.2l0.1,0.6h0c0.2-0.3,0.6-0.7,1.3-0.7c0.9,0,1.5,0.6,1.5,1.9v2.5h-1.3v-2.4
						c0-0.6-0.2-0.9-0.7-0.9c-0.4,0-0.6,0.3-0.7,0.5c0,0.1,0,0.2,0,0.3v2.5h-1.3V885.4z"/>
					<path class="st2" d="M393.2,882.9v1.2h1v1h-1v1.6c0,0.5,0.1,0.8,0.5,0.8c0.2,0,0.3,0,0.4,0l0,1c-0.2,0.1-0.5,0.1-0.9,0.1
						c-0.4,0-0.8-0.1-1-0.4c-0.2-0.3-0.4-0.7-0.4-1.3V885h-0.6v-1h0.6v-0.8L393.2,882.9z"/>
					<path class="st2" d="M395,885.4c0-0.6,0-1,0-1.4h1.1l0.1,0.8h0c0.2-0.6,0.7-0.9,1.2-0.9c0.1,0,0.2,0,0.3,0v1.3
						c-0.1,0-0.2,0-0.4,0c-0.5,0-0.8,0.3-0.9,0.7c0,0.1,0,0.2,0,0.3v2.2H395V885.4z"/>
					<path class="st2" d="M401.8,887.3c0,0.4,0,0.8,0.1,1h-1.2l-0.1-0.4h0c-0.3,0.3-0.7,0.5-1.2,0.5c-0.9,0-1.4-0.6-1.4-1.3
						c0-1.1,1-1.6,2.5-1.6v-0.1c0-0.2-0.1-0.6-0.8-0.6c-0.4,0-0.9,0.1-1.2,0.3l-0.2-0.9c0.3-0.2,0.9-0.4,1.7-0.4
						c1.4,0,1.9,0.8,1.9,1.9V887.3z M400.5,886.3c-0.7,0-1.2,0.2-1.2,0.7c0,0.3,0.2,0.5,0.5,0.5c0.3,0,0.6-0.2,0.7-0.5
						c0-0.1,0-0.1,0-0.2V886.3z"/>
					<path class="st2" d="M402.8,882.1h1.3v6.2h-1.3V882.1z"/>
					<path class="st2" d="M409.5,886.1c0,1.6-1.1,2.3-2.3,2.3c-1.3,0-2.2-0.8-2.2-2.2c0-1.4,0.9-2.3,2.3-2.3
						C408.6,883.9,409.5,884.8,409.5,886.1z M406.4,886.2c0,0.7,0.3,1.3,0.9,1.3c0.5,0,0.9-0.5,0.9-1.3c0-0.6-0.2-1.3-0.9-1.3
						C406.6,884.9,406.4,885.5,406.4,886.2z"/>
					<path class="st2" d="M414.4,887.7c0,0.8-0.2,1.5-0.7,1.9c-0.5,0.4-1.1,0.5-1.7,0.5c-0.6,0-1.2-0.1-1.5-0.3l0.3-1
						c0.3,0.2,0.7,0.3,1.2,0.3c0.6,0,1.1-0.3,1.1-1.1v-0.3h0c-0.3,0.4-0.7,0.6-1.2,0.6c-1.1,0-1.8-0.9-1.8-2.1
						c0-1.4,0.9-2.3,1.9-2.3c0.6,0,1,0.3,1.2,0.6h0l0-0.5h1.2c0,0.3,0,0.6,0,1.3V887.7z M413,885.8c0-0.1,0-0.2,0-0.2
						c-0.1-0.4-0.4-0.6-0.7-0.6c-0.5,0-0.9,0.4-0.9,1.2c0,0.6,0.3,1.1,0.9,1.1c0.4,0,0.6-0.2,0.7-0.5c0-0.1,0-0.2,0-0.4V885.8z"/>
					<path class="st2" d="M416.8,882.8c0,0.4-0.3,0.7-0.7,0.7c-0.4,0-0.7-0.3-0.7-0.7c0-0.4,0.3-0.7,0.7-0.7
						C416.6,882.2,416.8,882.5,416.8,882.8z M415.4,888.3V884h1.3v4.3H415.4z"/>
					<path class="st2" d="M417.8,887.2c0.2,0.1,0.8,0.3,1.1,0.3c0.4,0,0.6-0.1,0.6-0.4c0-0.2-0.1-0.3-0.6-0.5
						c-0.9-0.3-1.2-0.8-1.2-1.3c0-0.8,0.7-1.4,1.7-1.4c0.5,0,0.9,0.1,1.2,0.3l-0.2,0.9c-0.2-0.1-0.6-0.2-0.9-0.2
						c-0.3,0-0.5,0.1-0.5,0.3c0,0.2,0.2,0.3,0.7,0.5c0.8,0.3,1.1,0.7,1.2,1.3c0,0.8-0.6,1.4-1.9,1.4c-0.6,0-1.1-0.1-1.4-0.3
						L417.8,887.2z"/>
					<path class="st2" d="M423.1,882.9v1.2h1v1h-1v1.6c0,0.5,0.1,0.8,0.5,0.8c0.2,0,0.3,0,0.4,0l0,1c-0.2,0.1-0.5,0.1-0.9,0.1
						c-0.4,0-0.8-0.1-1-0.4c-0.2-0.3-0.4-0.7-0.4-1.3V885h-0.6v-1h0.6v-0.8L423.1,882.9z"/>
					<path class="st2" d="M426.2,882.8c0,0.4-0.3,0.7-0.7,0.7c-0.4,0-0.7-0.3-0.7-0.7c0-0.4,0.3-0.7,0.7-0.7
						S426.2,882.5,426.2,882.8z M424.9,888.3V884h1.3v4.3H424.9z"/>
					<path class="st2" d="M430.5,888.2c-0.2,0.1-0.7,0.2-1.2,0.2c-1.4,0-2.3-0.9-2.3-2.2c0-1.3,0.9-2.3,2.5-2.3c0.4,0,0.7,0.1,1,0.2
						l-0.2,1c-0.2-0.1-0.4-0.1-0.7-0.1c-0.7,0-1.2,0.5-1.1,1.2c0,0.8,0.5,1.2,1.2,1.2c0.3,0,0.6-0.1,0.8-0.1L430.5,888.2z"/>
					<path class="st2" d="M431.2,887.2c0.2,0.1,0.8,0.3,1.1,0.3c0.4,0,0.6-0.1,0.6-0.4c0-0.2-0.1-0.3-0.6-0.5
						c-0.9-0.3-1.2-0.8-1.2-1.3c0-0.8,0.7-1.4,1.7-1.4c0.5,0,0.9,0.1,1.2,0.3l-0.2,0.9c-0.2-0.1-0.6-0.2-0.9-0.2
						c-0.3,0-0.5,0.1-0.5,0.3c0,0.2,0.2,0.3,0.7,0.5c0.8,0.3,1.1,0.7,1.2,1.3c0,0.8-0.6,1.4-1.9,1.4c-0.6,0-1.1-0.1-1.4-0.3
						L431.2,887.2z"/>
				</g>
			</g>
		</g>
	</g>
</g>
<g>
	<g>
		<defs>
			<rect id="SVGID_00000076594991897925053080000015615221384307844773_" width="641.7" height="793.4"/>
		</defs>
		<clipPath id="SVGID_00000157277244967289434770000017742850607511087268_">
			<use xlink:href="#SVGID_00000076594991897925053080000015615221384307844773_"  style="overflow:visible;"/>
		</clipPath>
		<g style="clip-path:url(#SVGID_00000157277244967289434770000017742850607511087268_);">
			
				
		</g>
	</g>
</g>
</svg>
