<?xml version="1.0" encoding="utf-8"?>
<!-- Generator: Adobe Illustrator 26.0.1, SVG Export Plug-In . SVG Version: 6.00 Build 0)  -->
<svg version="1.1" id="Capa_1" xmlns="http://www.w3.org/2000/svg" xmlns:xlink="http://www.w3.org/1999/xlink" x="0px" y="0px"
	 viewBox="0 0 1080 1080" style="enable-background:new 0 0 1080 1080;" xml:space="preserve">
<style type="text/css">
	.st0{fill:#001689;}
	.st1{fill:#4BBCED;}
	.st2{fill:#BCCF00;}
	.st3{fill:#FFFFFF;}
	.st4{clip-path:url(#XMLID_00000178195310835550393240000008467614299715559322_);fill:#F9AE00;}
	.st5{clip-path:url(#XMLID_00000178195310835550393240000008467614299715559322_);fill:#BCCF00;}
	.st6{clip-path:url(#XMLID_00000178195310835550393240000008467614299715559322_);fill:#FFFFFF;}
	.st7{fill:#A49B19;}
</style>
<g>
	<path class="st0" d="M118,919.7c-9.2,0-17.4-1.2-24.7-3.5c-7.3-2.3-13.6-5.9-18.7-10.7c-5.1-4.8-9.1-10.9-11.8-18.3
		c-2.7-7.4-4.1-16.1-4.1-26.1v-72h36.3v71.3c0,9.3,2.1,16.1,6.4,20.6c4.2,4.4,9.9,6.7,17.1,6.7c7.2,0,12.9-2.1,17.1-6.4
		c4.2-4.3,6.4-10.9,6.4-20v-72.2h36.3v71.1c0,10.4-1.4,19.3-4.3,26.8c-2.9,7.5-6.9,13.7-12.1,18.5c-5.2,4.8-11.5,8.4-18.9,10.7
		C135.5,918.6,127.2,919.7,118,919.7"/>
	<polygon class="st0" points="192.6,789.1 228.1,789.1 228.1,886.2 270.3,886.2 270.3,917.3 192.6,917.3 	"/>
	<polygon class="st0" points="298.6,820.2 260.2,820.2 260.2,789.1 372.6,789.1 372.6,820.2 334.2,820.2 334.2,917.3 298.6,917.3 	
		"/>
	<path class="st0" d="M380,789.1h60.6c9.9,0,18.3,1.2,25.1,3.7c6.9,2.4,12.4,5.9,16.7,10.2c7.6,7.3,11.4,17.3,11.4,29.9v0.4
		c0,9.9-2.4,18.1-7.2,24.5c-4.8,6.5-11.2,11.4-19.2,14.8l30.6,44.7h-41l-25.8-38.9h-0.4h-15.2v38.9H380V789.1z M439,850.7
		c6.1,0,10.8-1.3,14.1-4.1c3.3-2.7,5-6.4,5-11.1v-0.4c0-5.1-1.7-8.9-5.1-11.4c-3.4-2.5-8.1-3.8-14.1-3.8h-23.3v30.8H439z"/>
	<path class="st0" d="M556.1,788.2h34.2l54.6,129.1h-38.1l-9.4-22.9H548l-9.2,22.9h-37.4L556.1,788.2z M587.2,867l-14.3-36.5
		L558.5,867H587.2z"/>
	<path class="st0" d="M700.8,919.9c-9.2,0-17.8-1.7-25.8-4.9c-8.1-3.3-15.1-7.9-21-13.8c-5.9-5.9-10.6-12.9-14.1-21.1
		c-3.5-8.1-5.2-17-5.2-26.5v-0.4c0-9.3,1.7-18,5.1-26.1c3.4-8.1,8.1-15.2,14.1-21.2c6-6.1,13.1-10.8,21.4-14.2
		c8.3-3.4,17.3-5.1,27-5.1c6.6,0,12.6,0.6,18,1.9c5.4,1.3,10.3,3.1,14.8,5.5c4.5,2.4,8.5,5.2,12.1,8.5c3.6,3.3,6.8,6.9,9.6,10.8
		L729.9,834c-3.7-4.6-7.7-8.3-12.1-11c-4.4-2.7-9.7-4-15.9-4c-4.5,0-8.6,0.9-12.4,2.6c-3.7,1.8-6.9,4.2-9.6,7.2
		c-2.7,3.1-4.8,6.7-6.3,10.8c-1.5,4.2-2.3,8.6-2.3,13.2v0.4c0,4.8,0.8,9.2,2.3,13.5c1.5,4.2,3.6,7.8,6.3,10.9
		c2.7,3.1,5.9,5.5,9.6,7.2c3.7,1.8,7.8,2.7,12.4,2.7c3.3,0,6.3-0.4,9.1-1.1c2.7-0.7,5.3-1.8,7.5-3.2c2.3-1.4,4.4-3.1,6.4-5
		c2-1.9,4-4,6-6.3l26.7,19.1c-3.1,4.2-6.4,8-10,11.5c-3.6,3.6-7.7,6.6-12.3,9.2c-4.6,2.6-9.7,4.6-15.4,6.1
		C714.2,919.2,707.9,919.9,700.8,919.9"/>
	<polygon class="st0" points="768.3,789.1 871.3,789.1 871.3,819.3 803.3,819.3 803.3,838.8 864.9,838.8 864.9,866.8 803.3,866.8 
		803.3,887.1 872.2,887.1 872.2,917.3 768.3,917.3 	"/>
	<polygon class="st0" points="885,789.1 922.6,789.1 953.2,838.8 983.8,789.1 1021.3,789.1 1021.3,917.3 986,917.3 986,843.7 
		953.3,893.9 952.5,893.9 920,844.1 920,917.3 885,917.3 	"/>
	<path class="st0" d="M802.4,350.8L681.2,527.6c-58.8,85.7-138.3,97.9-230,35c-91.7-62.9-109.1-141.4-50.3-227.2L520.5,161
		c-80.7,5.9-158,47.1-207.3,119c-86,125.5-54,296.9,71.4,383c125.5,86,297,54,383-71.5C817.8,518.2,827.8,429.3,802.4,350.8"/>
	<path class="st0" d="M466.6,472.4l62.9,43.1c17.8,12.2,42,7.6,54.2-10.1L749,264.2c12.2-17.8,7.6-42-10.1-54.2L676,166.9
		c-17.7-12.2-42-7.7-54.2,10.1L456.6,418.2C444.4,435.9,448.9,460.2,466.6,472.4"/>
</g>
</svg>
