<svg xmlns="http://www.w3.org/2000/svg" width="844.858" height="724.853" viewBox="0 0 844.858 724.853">
  <g id="Grupo_813" data-name="Grupo 813" transform="translate(1400.729 -76.049)">
    <g id="Grupo_794" data-name="Grupo 794" transform="translate(0 -16)">
      <g id="Grupo_793" data-name="Grupo 793" transform="translate(-0.451 -0.263)">
        <rect id="Rectángulo_281" data-name="Rectángulo 281" width="773.098" height="82.534" rx="38.139" transform="translate(-1357.397 734.631)" fill="#9d6214"/>
        <rect id="Rectángulo_282" data-name="Rectángulo 282" width="773.098" height="82.534" rx="38.139" transform="translate(-1357.789 734.185)" fill="#a26613"/>
        <rect id="Rectángulo_283" data-name="Rectángulo 283" width="773.098" height="82.534" rx="38.139" transform="translate(-1358.182 733.739)" fill="#a76a12"/>
        <rect id="Rectángulo_284" data-name="Rectángulo 284" width="773.098" height="82.534" rx="38.139" transform="translate(-1358.574 733.294)" fill="#ab6e11"/>
        <rect id="Rectángulo_285" data-name="Rectángulo 285" width="773.098" height="82.534" rx="38.139" transform="translate(-1358.966 732.848)" fill="#b07210"/>
        <rect id="Rectángulo_286" data-name="Rectángulo 286" width="773.098" height="82.534" rx="38.139" transform="translate(-1359.358 732.402)" fill="#b5760f"/>
        <rect id="Rectángulo_287" data-name="Rectángulo 287" width="773.098" height="82.534" rx="38.139" transform="translate(-1359.75 731.957)" fill="#ba7a0e"/>
        <rect id="Rectángulo_288" data-name="Rectángulo 288" width="773.098" height="82.534" rx="38.139" transform="translate(-1360.143 731.511)" fill="#bf7e0d"/>
        <rect id="Rectángulo_289" data-name="Rectángulo 289" width="773.098" height="82.534" rx="38.139" transform="translate(-1360.535 731.065)" fill="#c3820c"/>
        <rect id="Rectángulo_290" data-name="Rectángulo 290" width="773.098" height="82.534" rx="38.139" transform="translate(-1360.927 730.62)" fill="#c8860b"/>
        <rect id="Rectángulo_291" data-name="Rectángulo 291" width="773.098" height="82.534" rx="38.139" transform="translate(-1361.319 730.174)" fill="#cd8909"/>
        <rect id="Rectángulo_292" data-name="Rectángulo 292" width="773.098" height="82.534" rx="38.139" transform="translate(-1361.712 729.728)" fill="#d28d08"/>
        <rect id="Rectángulo_293" data-name="Rectángulo 293" width="773.098" height="82.534" rx="38.139" transform="translate(-1362.104 729.282)" fill="#d69107"/>
        <rect id="Rectángulo_294" data-name="Rectángulo 294" width="773.098" height="82.534" rx="38.139" transform="translate(-1362.496 728.837)" fill="#db9506"/>
        <rect id="Rectángulo_295" data-name="Rectángulo 295" width="773.098" height="82.534" rx="38.139" transform="translate(-1362.888 728.391)" fill="#e09905"/>
        <rect id="Rectángulo_296" data-name="Rectángulo 296" width="773.098" height="82.534" rx="38.139" transform="translate(-1363.28 727.945)" fill="#e59d04"/>
        <rect id="Rectángulo_297" data-name="Rectángulo 297" width="773.098" height="82.534" rx="38.139" transform="translate(-1363.672 727.5)" fill="#eaa103"/>
        <rect id="Rectángulo_298" data-name="Rectángulo 298" width="773.098" height="82.534" rx="38.139" transform="translate(-1364.065 727.054)" fill="#eea502"/>
        <rect id="Rectángulo_299" data-name="Rectángulo 299" width="773.098" height="82.534" rx="38.139" transform="translate(-1364.457 726.608)" fill="#f3a901"/>
        <rect id="Rectángulo_300" data-name="Rectángulo 300" width="773.098" height="82.534" rx="38.139" transform="translate(-1364.849 726.163)" fill="#f8ad00"/>
      </g>
      <text id="Algo_salio_mal..." data-name="Algo salio mal..." transform="translate(-1190.3 788.9)" fill="#fff" font-size="65.028" font-family="JosefinSans-SemiBold, Josefin Sans" font-weight="600" letter-spacing="-0.028em"><tspan x="0" y="0">Algo salio mal...</tspan></text>
    </g>
    <g id="Grupo_812" data-name="Grupo 812">
      <path id="Trazado_689" data-name="Trazado 689" d="M-592.325,682.782c-53.293,0-773.793-1.555-773.793-1.641-.3-.7-91.465-112.437,23.333-229.262,56.882-57.885-52.235-132.878,0-197.267,89.477-110.3,178.01-48.179,251.765-79.2,13.031-5.476,26.108-14.289,39.2-27.814a145.748,145.748,0,0,1,24.089-20q1.988-1.324,4.017-2.585a160.257,160.257,0,0,1,16.072-8.723q5.571-2.626,11.351-4.859h0a185.645,185.645,0,0,1,18.813-6.125,212.981,212.981,0,0,1,28.057-5.5q6.259-.813,12.618-1.286c82.41-6.195,175.153,28.652,223.013,79.584,9.636,10.257,53.453,63.324,18.913,136.266-21.807,46.053,69.55,90.037,102.014,142.626C-510.325,590.7-591.576,681.039-592.325,682.782Z" fill="#e8f2fa"/>
      <g id="Grupo_796" data-name="Grupo 796" opacity="0.8">
        <path id="Trazado_690" data-name="Trazado 690" d="M-778.793,371.918a105.584,105.584,0,0,1-8.038,17.156A104.2,104.2,0,0,1-816.1,421.2a104.635,104.635,0,0,1-96.935,13.386,104.771,104.771,0,0,1-68.75-91.329,102.922,102.922,0,0,1,.133-15.981,104.668,104.668,0,0,1,5.948-26.934,105.119,105.119,0,0,1,9.851-20.138c.043-.073.089-.14.133-.213a104.542,104.542,0,0,1,44.087-38.746A104.7,104.7,0,0,1-906,235.387c2.557-.733,5.152-1.369,7.764-1.9a104.2,104.2,0,0,1,56.781,4.188q3.756,1.366,7.338,2.985a103.331,103.331,0,0,1,9.762,5.022,104.107,104.107,0,0,1,32.7,30.035l.006,0a105.184,105.184,0,0,1,12.707,24.19,104.624,104.624,0,0,1,4.047,13.826q.963,4.4,1.555,8.878a104.018,104.018,0,0,1,.545,21.871A104.941,104.941,0,0,1-778.793,371.918Z" fill="#d4e2f4"/>
        <g id="Grupo_795" data-name="Grupo 795">
          <path id="Trazado_691" data-name="Trazado 691" d="M-894.675,279.9c-6.19,4.794-4.549,17.623-15.264,10.391s-17.444-11.161-20.477-4.852,6.459,9.765,3.96,16.64-7.584,7.6-12.944,1.956-5.518-11.08-14.2-10.9-12.389-3.392-11.966-9.91a9.165,9.165,0,0,0-.285-3.023c.043-.073.089-.14.133-.213a104.542,104.542,0,0,1,44.087-38.746A104.7,104.7,0,0,1-906,235.387c2.557-.733,5.152-1.369,7.764-1.9a13.778,13.778,0,0,1,8,8.734c3.78,11.015,9.91,8.422,4.7,17.65s-3.065,11.491,2.619,13.184,12.235,4.075,11.34,8.571S-888.484,275.1-894.675,279.9Z" fill="#acbfe3"/>
          <path id="Trazado_692" data-name="Trazado 692" d="M-778.793,371.918a105.584,105.584,0,0,1-8.038,17.156A104.2,104.2,0,0,1-816.1,421.2a11.96,11.96,0,0,1-7.8-3.073c-10.492-9.374,3.413-19.331,10.735-24.176s-6.274-6.45-13.128-15.892,9.2-22.234-1.118-22.925-22.858-1.359-24.958-12.409,8.75-8.773,6.851-18.081,7.075-11.05,16.674-8.4,10.781-4.421,22.679-1.208,6.3,17.857,19.423,21.516,11.48,6.4,11.48,6.4a6.316,6.316,0,0,1,2.463,1.529A104.941,104.941,0,0,1-778.793,371.918Z" fill="#acbfe3"/>
          <path id="Trazado_693" data-name="Trazado 693" d="M-773.34,322.609c-12.5,1.306-11.651-14.294-22.262-13.369-10.7.932-6.12-6.673-11.415-14.531s-23.157-3.6-19.527-11.546,13.6-1.728,18.273-7.441,14.554-.27,14.554-.27a7.526,7.526,0,0,1,2.062.261s0-.005.006,0a105.184,105.184,0,0,1,12.707,24.19,104.624,104.624,0,0,1,4.047,13.826Q-773.932,318.126-773.34,322.609Z" fill="#acbfe3"/>
          <path id="Trazado_694" data-name="Trazado 694" d="M-852.531,261.856s8.485-6.007.506-11.59-8.942-2.421-15.551-5.653-11.245,1.107-8.2,8.793,3.165,20.356,9.991,16.107S-858.223,260.436-852.531,261.856Z" fill="#acbfe3"/>
        </g>
      </g>
      <path id="Trazado_695" data-name="Trazado 695" d="M-1342.322,681.44h36.537c1.958-1.661-1.355-5.432-4.817-5.686a21.319,21.319,0,0,0-5.576.66c-.5-6.678-3.374-36.7-14.2-35.492-12.167,1.351,0,13.22,3.439,20.248a167.052,167.052,0,0,1,6.464,16.193c-.988.214-2.01.424-3.055.616-1.613-4.952-7.613-21.608-15.244-20.637-8.959,1.136-5.358,7.814.992,11.778,4.659,2.915,10.38,7.058,13.1,9.06a38.788,38.788,0,0,1-7.145.572C-1338.083,678.6-1341.138,680.448-1342.322,681.44Z" fill="#9ccc98"/>
      <path id="Trazado_696" data-name="Trazado 696" d="M-760.844,681.44h-33.937c-1.818-1.542,1.259-5.046,4.474-5.281a19.816,19.816,0,0,1,5.18.613c.467-6.2,3.134-34.087,13.185-32.967,11.3,1.254,0,12.28-3.2,18.808a155.124,155.124,0,0,0-6,15.04c.918.2,1.868.394,2.838.572,1.5-4.6,7.071-20.07,14.159-19.169,8.322,1.056,4.977,7.259-.921,10.94-4.328,2.708-9.641,6.557-12.166,8.416a35.956,35.956,0,0,0,6.636.531C-764.781,678.8-761.944,680.519-760.844,681.44Z" fill="#9ccc98"/>
      <g id="Grupo_797" data-name="Grupo 797">
        <path id="Trazado_697" data-name="Trazado 697" d="M-736.607,458.983s.808-8.034-3.393-7.759-5.314,2.2-4.844,3.746,4.555,6.652,4.555,6.652Z" fill="#f5a977"/>
        <path id="Trazado_698" data-name="Trazado 698" d="M-671.145,475.081s-4.651,5.464-14.653,11.771c-.947.6-1.937,1.2-2.983,1.808a110.8,110.8,0,0,1-13.7,6.741c-.579.239-1.26.5-2.024.775-5.993,2.165-17.02,5.234-23.855,5.508-.595.024-1.159.024-1.683,0-10.4-.419-11.67-40.79-11.67-40.79s1.159-4.04,6.5-3.022c0,0,8.115,22.8,11.024,24.658,2.583,1.652,17.432-20.856,30.212-22.431C-685.372,459.043-671.145,475.081-671.145,475.081Z" fill="#bbce00"/>
        <path id="Trazado_699" data-name="Trazado 699" d="M-699.089,671.947s.768,8.887-1.111,9.811l-24.041-.049s0-2.775,3.862-3.391,10.645-2.877,11.793-7.913S-699.089,671.947-699.089,671.947Z" fill="#193257"/>
        <path id="Trazado_700" data-name="Trazado 700" d="M-716.739,564.389c.119,5.811.4,11.8.944,17.192,2.6,25.562,3.51,56.446,3.883,62.4.647,10.336,2.689,26.85,2.689,26.85s4.05,3.844,11.944,2.009a268.788,268.788,0,0,0,8-48.827c.022-.411.045-.824.066-1.237.169-3.31.346-7.1.528-11.179,1.2-27.343,2.509-67.963,2.509-67.963l-30.168-7.084S-717.035,549.9-716.739,564.389Z" fill="#224e9a"/>
        <path id="Trazado_701" data-name="Trazado 701" d="M-716.739,564.389c7.646,13.191,22.219,37.493,28.057,47.209,1.2-27.343,2.509-67.963,2.509-67.963l-30.168-7.084S-717.035,549.9-716.739,564.389Z" fill="#1f3865"/>
        <path id="Trazado_702" data-name="Trazado 702" d="M-704.506,496.176c-5.993,2.165-17.02,5.234-23.855,5.508,1.045-.2,8.655-1.7,11.469-5.1,3.023-3.652,8.112-13.572,12.159-9.524C-702.826,488.965-703.386,492.731-704.506,496.176Z" fill="#a4ad1b"/>
        <path id="Trazado_703" data-name="Trazado 703" d="M-653.814,560.092s1.873,7.343,1.566,8.974-2.135,7.158-3.275,8.53-1.187-5.96-1.944-7.112-.348,2.737-.955,3.056-1.621-2.946-2.072-4.1,1.62-5.185,1.811-8.072S-653.814,560.092-653.814,560.092Z" fill="#f5a977"/>
        <path id="Trazado_704" data-name="Trazado 704" d="M-639.2,661.847s4.279,3.905,3.444,6.679-4.7,4.625-5.218,8.016-2.609,5.241-4.487,5.241h-8.956s-1.383-2.387,1.956-3.106,4.6-4.7,4.39-8.4a65.358,65.358,0,0,1,.313-8.633l7.1-1.644Z" fill="#193257"/>
        <path id="Trazado_705" data-name="Trazado 705" d="M-711.587,544.254s28.241,60.424,43.269,86.937,19.725,33.911,19.725,33.911,8.61-3.391,9.392-5.7c0,0-5.747-51.184-15.811-63.661-5.687-7.051-12.367-28.208-12.68-35.607s-6.911-25.059-6.911-25.059Z" fill="#224e9a"/>
        <path id="Trazado_706" data-name="Trazado 706" d="M-716.85,541.11a48.948,48.948,0,0,0,24.823,12.885c6.858,1.313,20.778,2.581,24.23-2.3.811-1.147.818-2.844.638-5.494-.465-6.887-2.2-20.2,5.625-46.962a45.755,45.755,0,0,0,1.5-7.153c1.707-13.689,1.522-24.024-10.355-29.545-17.8-8.272-25.1-1.466-25.1-1.466s-9.465,4.423-13.79,17.313C-717.925,504.17-716.85,541.11-716.85,541.11Z" fill="#bbce00"/>
        <path id="Trazado_707" data-name="Trazado 707" d="M-681.07,460.267a13.207,13.207,0,0,1-13.293.871c-.387-.193-.338-2.852-.242-5.463.1-2.562.338-5.076.338-5.076l6.333-4.156,6.042-3.964C-682.616,456.111-679.716,459.3-681.07,460.267Z" fill="#f5a977"/>
        <path id="Trazado_708" data-name="Trazado 708" d="M-682.955,448.107a19.454,19.454,0,0,1-11.65,7.568c.1-2.562.37-5.384.37-5.384l6.3-3.848Z" fill="#f29154"/>
        <path id="Trazado_709" data-name="Trazado 709" d="M-699.938,449s15.32,5.717,18.729-3.722,7.682-15.058-1.955-19.108-12.849-1.127-14.766,1.746S-703.835,447.266-699.938,449Z" fill="#f5a977"/>
        <path id="Trazado_710" data-name="Trazado 710" d="M-671.665,427.228c.176-.136.534-.2,1.28-.1a3.058,3.058,0,0,0-1.3-.661c.048-1.056-.139-2.979-1.817-3.769a2.253,2.253,0,0,1,.757,1.808c-1.629-2.5-5.709-4.9-18.031-6.337-16.24-1.9-12.993,9.382-11.164,11.011s7.7-.687,11.5.381,3.429,6.786,4.586,7.81.91-.431,2.839-.882,1.517,2.517.629,4.323,1.047,4.8,1.047,4.8l2.981-2.162c2.981-2.162,7.513-12.917,6.867-15.528C-671.551,427.7-671.607,427.463-671.665,427.228Z" fill="#293967"/>
        <path id="Trazado_711" data-name="Trazado 711" d="M-667.159,546.2c-.465-6.887-2.2-20.2,5.625-46.962a45.755,45.755,0,0,0,1.5-7.153h0c-5.811-1.917-16.4,2.346-16.4,2.346S-678.921,529.8-667.159,546.2Z" fill="#a4ad1b"/>
        <path id="Trazado_712" data-name="Trazado 712" d="M-667.181,464.33s7.151,2.6,11.712,21.533c3.013,12.509,8.561,30.9,9.187,36.674s-6.343,39.605-6.343,39.605-.983.717-3.391.235a5.6,5.6,0,0,1-3.377-2.02s-1.666-22.546-1.236-33.191c.179-4.423-20.474-32.392-31.621-36C-696.628,489.756-667.181,464.33-667.181,464.33Z" fill="#bbce00"/>
        <path id="Trazado_713" data-name="Trazado 713" d="M-767.2,439.821a237.856,237.856,0,0,1,44.519,3.8l2.492-6.28,2.732-6.879S-741.4,420.158-755.8,405.8Z" fill="#acbfe3"/>
        <path id="Trazado_714" data-name="Trazado 714" d="M-755.47,405.469-767.336,440.5h0a3.157,3.157,0,0,1-2.079-4.083l10.444-29.432a2.6,2.6,0,0,1,3.5-1.514Z" fill="#f18e37"/>
        <path id="Trazado_715" data-name="Trazado 715" d="M-744.142,465.893h0a4.291,4.291,0,0,0,5.034-3.357l4.085-20.443a4.289,4.289,0,0,0-3.356-5.033h0a4.291,4.291,0,0,0-5.034,3.357L-747.5,460.86A4.289,4.289,0,0,0-744.142,465.893Z" fill="#f18e37"/>
        <path id="Trazado_716" data-name="Trazado 716" d="M-767.2,439.821a237.856,237.856,0,0,1,44.519,3.8l2.492-6.28C-742.6,432.769-767.2,439.821-767.2,439.821Z" fill="#7392cb"/>
        <path id="Trazado_717" data-name="Trazado 717" d="M-729.278,442.362l6.458,1.136c-.1,0,6,1.186,8-4.218a4.372,4.372,0,0,0,.383-1.166c1.553-6.737-2.145-7.978-2.145-7.978L-724.9,426.9l-2.641,9.345v.033Z" fill="#f18e37"/>
        <path id="Trazado_718" data-name="Trazado 718" d="M-729.278,442.362l6.458,1.136c-.1,0,6,1.186,8-4.218-3.654-2.658-12.714-3.037-12.714-3.037v.033Z" fill="#ed750f"/>
        <path id="Trazado_719" data-name="Trazado 719" d="M-743.591,446.1s3.16,1.259,2.581,2.65-4.6,3.3-5.231,2.207S-745.578,444.923-743.591,446.1Z" fill="#f5a977"/>
        <path id="Trazado_720" data-name="Trazado 720" d="M-736.546,457.717a44.432,44.432,0,0,0,.633-4.717c.037-1.485.212-2.7-.138-2.74s-.6.232-.746.709-.69,3.439-.69,3.439l.277,2.858Z" fill="#f5a977"/>
      </g>
      <g id="Grupo_799" data-name="Grupo 799">
        <path id="Trazado_721" data-name="Trazado 721" d="M-1049.034,455.607l-17.9,212.828s-1.876,12.9,7.721,12.924c15.778.037,78.533,0,78.533,0s-11.875-2.686-11.731-8.728c.17-7.123,20.921-219.038,20.921-219.038Z" fill="#7293cb"/>
        <path id="Trazado_722" data-name="Trazado 722" d="M-974.771,677.583c-3.1.009-63.858.112-79.224-.086-6.7-.083-7.87-5.954-7.926-9.753a18.958,18.958,0,0,1,.2-3.168l.465-5.532,1.186-14.1,1.048-12.456,1.347-16.006,1.134-13.51,12.718-151.229,77.545-2.013s-8.739,88.686-14.922,153.242c-.69,7.192-1.346,14.089-1.953,20.527q-.3,3.082-.57,6.021c-.574,6.108-1.1,11.717-1.554,16.669-.24,2.611-.462,5.036-.662,7.258-.789,8.705-1.251,14.265-1.258,15.322a9.007,9.007,0,0,0,.151,1.723C-985.769,677.276-975.936,677.583-974.771,677.583Z" fill="#8dabd9"/>
        <path id="Trazado_723" data-name="Trazado 723" d="M-1237.355,339.795l43.6,175.131,5.97,23.985,20.307,81.571h377.264l-74.847-280.686Z" fill="#4abbec"/>
        <path id="Trazado_724" data-name="Trazado 724" d="M-1237.356,339.794l-6.042,2.014,67.886,284.765,8.034-6.092Z" fill="#1786af"/>
        <path id="Trazado_725" data-name="Trazado 725" d="M-1175.512,626.574h374.942l10.354-6.092h-377.262Z" fill="#00a2cc"/>
        <rect id="Rectángulo_301" data-name="Rectángulo 301" width="81.18" height="3.858" transform="translate(-962.664 681.44) rotate(180)" fill="#acbfe3"/>
        <path id="Trazado_726" data-name="Trazado 726" d="M-983.3,626.572l-.419,2.949-76.346,15.424,1.048-12.456.5-5.917Z" fill="#5581c1"/>
        <path id="Trazado_727" data-name="Trazado 727" d="M-974.771,677.583c-3.1.009-63.858.112-79.224-.086-6.7-.083-7.87-5.954-7.926-9.753l75.986-14.3c-.789,8.705-1.251,14.265-1.258,15.322a9.007,9.007,0,0,0,.151,1.723C-985.769,677.276-975.936,677.583-974.771,677.583Z" fill="#5581c1" opacity="0.4"/>
        <path id="Trazado_728" data-name="Trazado 728" d="M-1237.356,339.794h372.293l60.405,225.583H-1181.2Z" fill="#abdcf4"/>
        <path id="Trazado_729" data-name="Trazado 729" d="M-822.217,555.6H-1170.8l-12.456-49.622-4.819-19.2-1.965-7.83-12.8-50.995-.664-2.655-6.767-26.955-3.027-12.06L-1215.881,376l-6.055-24.118H-878.38l6.65,24.118,2.834,10.288,3.325,12.06,21.9,79.457v0l1.857,6.731.863,3.125,15.124,54.856Z" fill="#c8e6ee"/>
        <path id="Trazado_730" data-name="Trazado 730" d="M-871.73,376h-344.15l-6.054-24.12h343.555Z" fill="#bbce00"/>
        <g id="Grupo_798" data-name="Grupo 798">
          <path id="Trazado_731" data-name="Trazado 731" d="M-1207.721,362.778a2.277,2.277,0,0,1,2.263-3.015,4.119,4.119,0,0,1,3.767,3.015,2.278,2.278,0,0,1-2.264,3.015A4.118,4.118,0,0,1-1207.721,362.778Z" fill="#e6f2fc"/>
          <path id="Trazado_732" data-name="Trazado 732" d="M-1197.7,362.778a2.278,2.278,0,0,1,2.263-3.015,4.119,4.119,0,0,1,3.767,3.015,2.278,2.278,0,0,1-2.263,3.015A4.119,4.119,0,0,1-1197.7,362.778Z" fill="#e6f2fc"/>
          <path id="Trazado_733" data-name="Trazado 733" d="M-1186.916,362.778a2.278,2.278,0,0,1,2.264-3.015,4.119,4.119,0,0,1,3.767,3.015,2.278,2.278,0,0,1-2.264,3.015A4.12,4.12,0,0,1-1186.916,362.778Z" fill="#e6f2fc"/>
        </g>
      </g>
      <path id="Trazado_734" data-name="Trazado 734" d="M-946.72,211.657c14.089-16.542,35.815-49.77,50.441-66.787a5.4,5.4,0,0,0-4.11-8.908h-26.617L-901.9,79.193a2.225,2.225,0,0,0-3.817-2.232l-60.705,81.248a3.36,3.36,0,0,0,3.1,5.345l30.133-3.711-17.927,49.246A2.585,2.585,0,0,0-946.72,211.657Z" fill="#f18e37"/>
      <path id="Trazado_735" data-name="Trazado 735" d="M-1072.034,312.412c3.17-16.257,5.171-46.453,8.52-63.226a4.113,4.113,0,0,0-6.062-4.379l-17.678,9.956-4.56-47.1a1.7,1.7,0,0,0-3.37-.055l-9.928,76.67a2.561,2.561,0,0,0,4.06,2.39l18.625-13.736,6.514,39.414A1.971,1.971,0,0,0-1072.034,312.412Z" fill="#acbfe3"/>
      <g id="Grupo_803" data-name="Grupo 803">
        <path id="Trazado_736" data-name="Trazado 736" d="M-806.99,560.4l-302.888,25.519a30.318,30.318,0,0,1-30.226-42.58l128.323-287.187c9.735-21.787,39.659-24.309,52.9-4.457l174.565,261.668A30.319,30.319,0,0,1-806.99,560.4Z" fill="#e4edf9"/>
        <g id="Grupo_800" data-name="Grupo 800">
          <path id="Trazado_737" data-name="Trazado 737" d="M-806.025,571.86l-302.887,25.519a41.442,41.442,0,0,1-37.61-17.464,41.441,41.441,0,0,1-4.079-41.264l128.322-287.187a41.287,41.287,0,0,1,34.668-24.609,41.283,41.283,0,0,1,38.3,18.462L-774.75,506.985a41.442,41.442,0,0,1,2.883,41.365A41.444,41.444,0,0,1-806.025,571.86ZM-985.68,249.768a18.584,18.584,0,0,0-15.6,11.077l-128.323,287.187a18.653,18.653,0,0,0,1.836,18.573,18.653,18.653,0,0,0,16.928,7.86l302.888-25.519a18.653,18.653,0,0,0,15.374-10.581,18.654,18.654,0,0,0-1.3-18.619L-968.443,258.078A18.584,18.584,0,0,0-985.68,249.768Z" fill="#f18e37"/>
        </g>
        <g id="Grupo_802" data-name="Grupo 802">
          <g id="Grupo_801" data-name="Grupo 801">
            <path id="Trazado_738" data-name="Trazado 738" d="M-992.777,516.466a27.718,27.718,0,0,1,1.178-11,25.386,25.386,0,0,1,5.184-9.1,27.2,27.2,0,0,1,8.7-6.451,33.935,33.935,0,0,1,11.917-3.06,34.723,34.723,0,0,1,12.351,1.015,27.054,27.054,0,0,1,9.75,4.9,25.406,25.406,0,0,1,6.633,8.108,27.758,27.758,0,0,1,3,10.647,27.115,27.115,0,0,1-1.187,10.911,25.581,25.581,0,0,1-5.19,9.015,26.97,26.97,0,0,1-8.793,6.459,34.709,34.709,0,0,1-12.007,3.067,33.946,33.946,0,0,1-12.261-1.022,27.144,27.144,0,0,1-9.659-4.9,25.546,25.546,0,0,1-6.625-8.019A27.03,27.03,0,0,1-992.777,516.466Zm46.827-54.8-43.628,3.676L-1008.319,316.8l55.991-4.717Z" fill="#ed750f"/>
          </g>
        </g>
      </g>
      <g id="Grupo_807" data-name="Grupo 807">
        <path id="Trazado_739" data-name="Trazado 739" d="M-1180.859,470.781s.95-2.136,1.565-3.148,3.242-3.974,3.69-3.3,2.236,5.186,1.286,6.451.061,3.464-4.666,4.8Z" fill="#f5a977"/>
        <path id="Trazado_740" data-name="Trazado 740" d="M-1233.391,457.294s24.2,20.2,33.634,18.329c7.378-1.462,19.042-5.162,19.042-5.162s3.079,2.928,2.208,6.438c0,0-14.861,13.983-25.448,14.073-16.549.142-24.354-8.2-24.354-8.2Z" fill="#ed750f"/>
        <path id="Trazado_741" data-name="Trazado 741" d="M-1275.829,670.352s.7,11.332,2.9,11.494c.291.022,11.119.022,11.119.022l13.822-.08s-.09-3.331-4.131-4.035-10.8-3.543-13.25-8.884C-1267.949,663.252-1275.829,670.352-1275.829,670.352Z" fill="#153d68"/>
        <path id="Trazado_742" data-name="Trazado 742" d="M-1276.626,671.139a28.832,28.832,0,0,0,7.482,1.405,27.5,27.5,0,0,0,6.986-1s.791-7.65,5.144-24.507c2.282-8.835,5.542-20.194,10.179-34.31,12.821-39.012,16.72-61.834,17.075-63.995.019-.114.027-.17.027-.17l-.042-.019-39.417-17.307s4.872,53.767-1.343,74.405a86.74,86.74,0,0,0-2.256,9.887C-1276.717,637.949-1276.626,671.139-1276.626,671.139Z" fill="#224e9a"/>
        <path id="Trazado_743" data-name="Trazado 743" d="M-1257.014,647.041c2.282-8.835,5.542-20.194,10.179-34.31,12.821-39.012,16.72-61.834,17.075-63.995,0-.064-.007-.125-.015-.189l-39.417-17.307s4.872,53.767-1.343,74.405C-1271.406,608.529-1257.014,647.041-1257.014,647.041Z" fill="#1f3865"/>
        <path id="Trazado_744" data-name="Trazado 744" d="M-1245.043,670.352s.7,11.332,2.9,11.494c.292.022,11.12.022,11.12.022l13.822-.08s-.091-3.331-4.131-4.035-10.8-3.543-13.251-8.884C-1237.162,663.252-1245.043,670.352-1245.043,670.352Z" fill="#0e457f"/>
        <path id="Trazado_745" data-name="Trazado 745" d="M-1222.695,532.507a561.171,561.171,0,0,1-5.516,77.621c-6.028,42.779-3.985,60.938-3.985,60.938a41.058,41.058,0,0,1-5.813,1.478,26.379,26.379,0,0,1-8.625-1s-8.628-42.8-6.154-64.207-11.816-73.474-11.816-73.474Z" fill="#224e9a"/>
        <path id="Trazado_746" data-name="Trazado 746" d="M-1250.645,450.973l7.7,5.045,7.008-1.982c1.281-1.827,1.62-5.35,1.639-8.4a52.226,52.226,0,0,0-.275-5.6l-10.381-4.582-3.873-1.706c.011.06.3,3.18.343,3.636A26.5,26.5,0,0,1-1250.645,450.973Z" fill="#f5a977"/>
        <path id="Trazado_747" data-name="Trazado 747" d="M-1222.518,542.193c-9.577,9.247-45.822,7.692-48.055-2.5s2.436-86.725,18.8-91.533c3.395-1,21.544,4.868,21.544,4.868a115.153,115.153,0,0,1,4.715,16.935c.362,1.846,1.421,21.4,2.212,39.7.37,8.558.682,16.842.842,22.907C-1222.319,538.259-1222.312,541.991-1222.518,542.193Z" fill="#f18e37"/>
        <path id="Trazado_748" data-name="Trazado 748" d="M-1247.713,437.529c2.106,3.561,9.495,6.677,13.41,8.105a52.226,52.226,0,0,0-.275-5.6l-10.381-4.582C-1247.253,435.426-1248.651,435.939-1247.713,437.529Z" fill="#f39b64"/>
        <path id="Trazado_749" data-name="Trazado 749" d="M-1230.662,439.406s-16.726,5.218-19.815-5.248-7.328-16.842,3.22-20.616,13.812-.395,15.693,2.848S-1226.391,437.779-1230.662,439.406Z" fill="#f5a977"/>
        <path id="Trazado_750" data-name="Trazado 750" d="M-1232.221,415.381s-1.067,12.179-3.586,11.651-5.291-1.66-4.922,2.012-2.449,9.964-6.081,9.949c-7.79-.032-16.253-20.02-14.12-23.81C-1254.778,404.247-1223.329,402.04-1232.221,415.381Z" fill="#1b3660"/>
        <path id="Trazado_751" data-name="Trazado 751" d="M-1234.682,448.428c-.216-.09-12.451-5.579-13.882-5.107s-3.215,4.843-3.215,4.843l21.545,4.871S-1231.93,449.587-1234.682,448.428Z" fill="#ed750f"/>
        <g id="Grupo_805" data-name="Grupo 805">
          <path id="Trazado_752" data-name="Trazado 752" d="M-1158.507,507.7l-68.588,64.576c-1.345,1.266-3.04,1.669-3.768.9l-2.315-2.459c-.728-.773-.223-2.441,1.121-3.707l68.589-64.577c1.344-1.266,3.04-1.669,3.767-.9l2.315,2.459C-1156.658,504.769-1157.163,506.437-1158.507,507.7Z" fill="#084d88"/>
          <path id="Trazado_753" data-name="Trazado 753" d="M-1197,543.942l-30.1,28.337c-1.345,1.266-3.04,1.669-3.768.9l-2.315-2.459c-.728-.773-.223-2.441,1.121-3.707l30.1-28.338Z" fill="#7392cb"/>
          <path id="Trazado_754" data-name="Trazado 754" d="M-1174.272,483.321a53.484,53.484,0,0,0,14.59,23.467,53.764,53.764,0,0,0,75.992-2.318,53.75,53.75,0,0,0-1.477-75.174c-.275-.275-.558-.546-.844-.814A53.753,53.753,0,0,0-1162,430.8,53.735,53.735,0,0,0-1174.272,483.321Zm15.366-49.617a49.461,49.461,0,0,1,44.549-14.857,49.284,49.284,0,0,1,25.441,12.725,49.512,49.512,0,0,1,2.132,69.989,49.3,49.3,0,0,1-24.612,14.251,49.46,49.46,0,0,1-45.377-12.114A49.513,49.513,0,0,1-1158.906,433.7Z" fill="#084d88"/>
          <g id="Grupo_804" data-name="Grupo 804" opacity="0.5">
            <path id="Trazado_755" data-name="Trazado 755" d="M-1086.783,501.561a49.315,49.315,0,0,1-24.614,14.253,49.476,49.476,0,0,1-45.378-12.116,49.515,49.515,0,0,1-2.132-69.993,49.459,49.459,0,0,1,44.549-14.856,49.275,49.275,0,0,1,25.441,12.722A49.512,49.512,0,0,1-1086.783,501.561Z" fill="#aeccec"/>
          </g>
        </g>
        <path id="Trazado_756" data-name="Trazado 756" d="M-1222.465,532.577c-37.793-26.93-34.65-62.866-34.65-62.866,13.813,7.791,27.52,25.017,33.808,39.959C-1222.937,518.228-1222.625,526.512-1222.465,532.577Z" fill="#ed750f"/>
        <g id="Grupo_806" data-name="Grupo 806">
          <path id="Trazado_757" data-name="Trazado 757" d="M-1185.165,520.313a10.323,10.323,0,0,0,4.827-2.981s1.137.077-.186,2.5c-.111.2-.357.723-.542,1.092a.234.234,0,0,0,.2.338c1.538.117,3.083-.491,6.046.126.409.086.528,1.065.512,1.482a3.776,3.776,0,0,1-.8,2.581c-.477.63-1.809,1.308-4.775,2.5-1.13.455-4.361.112-7.39-.928l-2.419-1.12.75-4.5.608.127C-1187.367,521.739-1186.171,520.56-1185.165,520.313Z" fill="#f5a977"/>
          <path id="Trazado_758" data-name="Trazado 758" d="M-1245.386,453.035s-33.958,6.466,9.99,55.64c7.029,7.865,45,18.105,45,18.105s3.851-3.276,1.91-5.93c0,0-26.147-18.987-31.9-22.006-2.588-1.358-10.044-30.3-14.263-37.276A19.021,19.021,0,0,0-1245.386,453.035Z" fill="#f18e37"/>
        </g>
        <path id="Trazado_759" data-name="Trazado 759" d="M-1179.938,471.377a17.337,17.337,0,0,0,1.327-3.242,17.881,17.881,0,0,1,2.192-4.96c.231-.231.991.067,1.081,1.057a5.763,5.763,0,0,1-.546,2.148c-.607,1.519-.507,3.58-.718,4.267C-1177.128,472.358-1179.938,471.377-1179.938,471.377Z" fill="#f5a977"/>
      </g>
      <g id="Grupo_809" data-name="Grupo 809">
        <g id="Grupo_808" data-name="Grupo 808">
          <path id="Trazado_760" data-name="Trazado 760" d="M-1166.424,387.125a2.045,2.045,0,0,0-.366,2.19l.005.011c.528,1.46,2.274,3.092,4.3,4.721.259.209.489.4.69.576.053.046.1.092.155.139s.08.073.119.107c1.891,1.744,1.179,2.143,4.575,5.682,3.872,4.032,6.539,4.105,7.3,3.738.642-.312-.661-2.451-2.106-4.854-.069-.115-.138-.233-.21-.35-.192-.32-.383-.644-.574-.965-1.693-2.892-1.257-4.249-.854-8.552.327-3.5,5.447-19.535,5.447-19.535l-7.423-1.281s-2.24,12.771-4.7,14.737c-1.318,1.048-2.792,1.061-4.058,1.838-.09.054-.178.109-.264.166A9.765,9.765,0,0,0-1166.424,387.125Z" fill="#f5a977"/>
          <path id="Trazado_761" data-name="Trazado 761" d="M-1166.424,387.125a2.045,2.045,0,0,0-.366,2.19l.005.011c.647,1.459,2.348,3.082,4.308,4.706.256.213.482.408.683.591.053.046.1.092.155.139s.08.073.119.107c1.891,1.744,1.179,2.143,4.575,5.682,3.872,4.032,6.539,4.105,7.3,3.738.642-.312-.661-2.451-2.106-4.854a16.5,16.5,0,0,1-6.9-5.09c-2.247-2.869-3.772-6.526-5.3-8.77l-.437-.082A9.765,9.765,0,0,0-1166.424,387.125Z" fill="#1f3865"/>
          <path id="Trazado_762" data-name="Trazado 762" d="M-1106.564,382.509c.458,2.292,3.724,1.91,7.374,1.02s2.782.169,7.976-.4,6.767-2.509,6.926-3.281c.142-.685-2.424-.928-5.176-1.246-.347-.039-.694-.082-1.042-.125-3.108-.391-5.383-2.4-8.205-4.045-2.674-1.561-6.662-7.919-6.662-7.919l-7.123.562s3.736,5.679,5.181,8.147a8.6,8.6,0,0,1,.7,4.854A9.175,9.175,0,0,0-1106.564,382.509Z" fill="#f5a977"/>
          <path id="Trazado_763" data-name="Trazado 763" d="M-1099.19,383.529c3.65-.89,2.782.169,7.976-.4s6.767-2.509,6.926-3.281c.142-.685-2.424-.928-5.176-1.246l-.026.053a14.645,14.645,0,0,1-7.439,2.309c-3.523.085-7.255-.926-9.689-.888a9.175,9.175,0,0,0,.054,2.437C-1106.106,384.8-1102.84,384.419-1099.19,383.529Z" fill="#1f3865"/>
          <path id="Trazado_764" data-name="Trazado 764" d="M-1133.844,336.956l-6.665,17.914-8.7,23.391a14.09,14.09,0,0,1-4.618-.423,20.02,20.02,0,0,1-4.466-2.176s2.423-25.118,6.93-39.535c1.155-3.7,2.45-6.694,3.878-8.379C-1140.5,319.5-1133.844,336.956-1133.844,336.956Z" fill="#1f3865"/>
          <path id="Trazado_765" data-name="Trazado 765" d="M-1140.6,308.5c-3.79-1.224-13.679-.024-24.406,1.914a7.275,7.275,0,0,1-7.511-3.395h0l-26.995-2.118s-8.914,19.751-4.042,32.34a4.736,4.736,0,0,0,4.717,3.045h0s16.312.029,21.529.03c13.425.005,28.415-9.218,30.354-9.605,3.173-.634,4.441,5.713,7.612,12.378s29.819,29.522,29.819,29.522,4.1.042,5.789-.592a5.711,5.711,0,0,0,2.487-1.568S-1130.768,311.676-1140.6,308.5Z" fill="#224e9a"/>
          <path id="Trazado_766" data-name="Trazado 766" d="M-1175.362,227.746a9.572,9.572,0,0,0-5.156-1.343,14.414,14.414,0,0,1-2.49-.152c-10.3-1.515-16.512,13.448-16.877,17.97-.67,8.3-5.062,9.566-11.245,14.763-12.4,10.42-8.768,22.535-1.992,27.039,4.065,2.7,11.234,0,11.234,0,.1.071,19.606-10.895,29.221-16.184C-1158.256,267.8-1169.574,231.2-1175.362,227.746Z" fill="#1f3865"/>
          <path id="Trazado_767" data-name="Trazado 767" d="M-1180.723,265.334c.042.027-4.73,1.655-7.92.24-3-1.327-5.274-6.267-5.23-6.269,1.366-.063,2.866-1.256,4.023-9.089l.581.208,9.776,3.522s-.71,3.137-1.169,6.123C-1181.049,262.577-1181.257,264.979-1180.723,265.334Z" fill="#f5a977"/>
          <path id="Trazado_768" data-name="Trazado 768" d="M-1179.493,253.946s-.391,1.692-.961,4.854a11.04,11.04,0,0,1-8.815-8.376Z" fill="#f29053"/>
          <path id="Trazado_769" data-name="Trazado 769" d="M-1178.038,257.06s-13.376-1.8-12.127-10.113.364-14.143,8.957-13.345,9.772,4.219,10.029,7.1S-1174.527,257.314-1178.038,257.06Z" fill="#f5a977"/>
          <path id="Trazado_770" data-name="Trazado 770" d="M-1171.664,236.14s-8.566,7.376-14.39,7.969-8.029-1.278-8.029-1.278a22.753,22.753,0,0,0,5.5-7.448,4.1,4.1,0,0,1,3.377-2.413C-1181.046,232.612-1173.162,232.451-1171.664,236.14Z" fill="#1f3865"/>
          <path id="Trazado_771" data-name="Trazado 771" d="M-1177.017,235.477a21.085,21.085,0,0,1,3.765,4.825c.87,1.983,1.13,6.725.436,8.608,0,0,4.466-8.677,1.94-12.9C-1173.554,231.543-1177.017,235.477-1177.017,235.477Z" fill="#1f3865"/>
          <path id="Trazado_772" data-name="Trazado 772" d="M-1169.466,285.042c-.414,27.077-.118,21.419-3.081,23.987-.714.619-2.721.987-5.361,1.16-8.3.548-22.9-.824-23.452-2.359-1.914-5.31-.561-6.959-2.156-15.088-.166-.864-.372-1.8-.614-2.819-1.33-5.583-2.626-7.483,2.1-16.45,4.288-8.123,8.743-14.715,9.144-14.477,11.306,6.717,12.22,1.075,12.22,1.075S-1169.263,271.835-1169.466,285.042Z" fill="#f18e37"/>
          <path id="Trazado_773" data-name="Trazado 773" d="M-1140.509,354.87l-8.7,23.391a14.09,14.09,0,0,1-4.618-.423,20.02,20.02,0,0,1-4.466-2.176s2.423-25.118,6.93-39.535Z" fill="#224e9a"/>
          <path id="Trazado_774" data-name="Trazado 774" d="M-1180.662,260.069s11.635,1.977,13,6.987,5.852,35.42,5.852,35.42-3.283,3.2-6.014.47-8.59-28.454-8.59-28.454Z" fill="#f18e37"/>
          <path id="Trazado_775" data-name="Trazado 775" d="M-1177.908,310.189c-8.3.548-22.9-.824-23.452-2.359-1.914-5.31-.561-6.959-2.156-15.088l4.008-11.275s-.666,12.557,3.036,15.861,15.16,6.381,16.959,9.142A10.1,10.1,0,0,1-1177.908,310.189Z" fill="#ed750f"/>
          <path id="Trazado_776" data-name="Trazado 776" d="M-1187.419,304.9s8.192-1.82,9.513-1.093,4.551,3.376,4.955,4.3-2.943-.7-4.031-.993c-.7-.189-2.561.455-3.48.761a11.57,11.57,0,0,1-6.235.624Z" fill="#f5a977"/>
          <path id="Trazado_777" data-name="Trazado 777" d="M-1192.889,258.99s-11,.674-14.808,5.983c-5.362,7.473-16.006,39.328-9.914,43.579,6.861,4.787,31.231,1.262,31.231,1.262s.813-3.79-.315-5.624-19.463-4.8-20.308-5.649,10.583-16.5,10.584-19.037S-1192.889,258.99-1192.889,258.99Z" fill="#f18e37"/>
          <path id="Trazado_778" data-name="Trazado 778" d="M-1177.51,306.091a15.842,15.842,0,0,0,2.278,2.479,1.679,1.679,0,0,0,.926.2l-1.156-2.082Z" fill="#f5a977"/>
          <path id="Trazado_779" data-name="Trazado 779" d="M-1177.906,303.811l4.989,2.425a.89.89,0,0,1-.827.319,11.959,11.959,0,0,1-2.164-.6Z" fill="#f5a977"/>
        </g>
        <path id="Trazado_780" data-name="Trazado 780" d="M-1135.3,309.522l-52.123-.018v1.15l51.66.018Z" fill="#1f3865"/>
        <path id="Trazado_781" data-name="Trazado 781" d="M-1175.233,310.659l39.472.014,11.884-29.523-39.411-.014Z" fill="#1f3865"/>
        <path id="Trazado_782" data-name="Trazado 782" d="M-1145.72,295.9a1.368,1.368,0,0,0-1.34-1.88,2.694,2.694,0,0,0-2.419,1.879,1.368,1.368,0,0,0,1.34,1.88A2.694,2.694,0,0,0-1145.72,295.9Z" fill="#fff"/>
      </g>
      <g id="Grupo_811" data-name="Grupo 811">
        <path id="Trazado_783" data-name="Trazado 783" d="M-878.585,422.006a11.331,11.331,0,0,0-9,.463c-15.31.629-15.879,16.322-14.081,22.162,2.524,8.2-6.408,14.67,3.5,17.99,11.494,3.851,21.138-.718,20.48,1.265C-841.34,466.75-866.492,426.022-878.585,422.006Z" fill="#1b3660"/>
        <path id="Trazado_784" data-name="Trazado 784" d="M-894.465,498.333a40.093,40.093,0,0,1-4.093,6.19c-3.18,3.983-19.873-5.472-18.435-6.19s9.826-24.885,11.823-27.922,8.8-4.613,8.8-4.613Z" fill="#f18e37"/>
        <path id="Trazado_785" data-name="Trazado 785" d="M-838.133,661.317s4.607,4.2,3.708,7.192-5.057,4.98-5.619,8.631-2.809,5.643-4.831,5.643h-9.644s-1.489-2.57,2.107-3.344,4.952-5.065,4.727-9.049a70.171,70.171,0,0,1,.337-9.294l7.641-1.77Z" fill="#114481"/>
        <path id="Trazado_786" data-name="Trazado 786" d="M-877.129,663.1s1.658,17.812-.365,18.808l-25.886-.053s0-2.987,4.158-3.651,11.462-3.1,12.7-8.52S-877.129,663.1-877.129,663.1Z" fill="#193257"/>
        <path id="Trazado_787" data-name="Trazado 787" d="M-857.216,486.318a103.045,103.045,0,0,1,0,11.965c-.257,4.326-4.632,10.12-5.253,11.553-1.558,3.6-3.315,4.18-3.315,4.18l-13.591,3.331-4.779,1.17-15.071-4.5s-6.863-19.159-4.107-29.943a82.872,82.872,0,0,1,6.967-18.275s10.241-2.3,28.309-1.021Z" fill="#f18e37"/>
        <path id="Trazado_788" data-name="Trazado 788" d="M-855.922,498.434c-.256,4.326-5.926,9.969-6.547,11.4-1.558,3.6-3.315,4.18-3.315,4.18l-13.591,3.331-2.454-7.033s19.859-5.217,16.664-23.6Z" fill="#ed750f"/>
        <path id="Trazado_789" data-name="Trazado 789" d="M-898.266,516.924s-7.463,23.23-7.942,31.139,14.266,112.354,14.859,116c.559,3.435,4.825,5.625,4.825,5.625a6.457,6.457,0,0,0,4.762.367c3.885-1.1,5.112-2.411,5.112-2.411s5.809-74.489,2.215-101.1a421.5,421.5,0,0,1-3.638-49.62Z" fill="#1f3865"/>
        <path id="Trazado_790" data-name="Trazado 790" d="M-866.646,516.232s11.384,15.274,12.445,25.6,1.665,46.594,3.926,56.66,10.568,29.438,10.568,60.834a6.262,6.262,0,0,1-3.529,2.758,29.149,29.149,0,0,1-3.1.858,4.881,4.881,0,0,1-5.459-2.591c-5.616-11.308-23.506-47.779-24.424-55.35-.649-5.358-6.3-40.817-18.619-61.624-2.958-4.995,1.815-24.86,1.815-24.86Z" fill="#224e9a"/>
        <path id="Trazado_791" data-name="Trazado 791" d="M-899.458,513.338s3,2.37,8.948,2.49c7.109.143,24.725-1.812,24.725-1.812a14.558,14.558,0,0,1,.751,4.5s-21.515,5.427-33.981.792A7.878,7.878,0,0,1-899.458,513.338Z" fill="#1f3865"/>
        <g id="Grupo_810" data-name="Grupo 810">
          <path id="Trazado_792" data-name="Trazado 792" d="M-892.216,521.954a3.481,3.481,0,0,1-3.244-3.671,3.482,3.482,0,0,1,3.244-3.672,3.482,3.482,0,0,1,3.244,3.672A3.481,3.481,0,0,1-892.216,521.954Zm0-6.267a2.414,2.414,0,0,0-2.169,2.6,2.414,2.414,0,0,0,2.169,2.6,2.414,2.414,0,0,0,2.169-2.6A2.414,2.414,0,0,0-892.216,515.687Z" fill="#fff"/>
        </g>
        <path id="Trazado_793" data-name="Trazado 793" d="M-876.672,528.633l-32.337.3-15.913-37.4,32.338-.3Z" fill="#c23b35"/>
        <path id="Trazado_794" data-name="Trazado 794" d="M-880.9,511.734l-2.37-2.913a8.333,8.333,0,0,0-2.768-1.673c-1.164-.244-3.622-1.661-3.86-1.262s1.888,3.249,1.888,3.249l.108.015c-2.441,1.837-8.6.215-9.366.965-.922.908,1.269,2.871,2.445,3.973s4.538,2.939,7.16,2.123c1.916-.6,4.932-1.2,4.932-1.2Z" fill="#f5a977"/>
        <path id="Trazado_795" data-name="Trazado 795" d="M-922.49,498.118s2.032-2.309,3.326-1.2-.339,6.559-1.571,6.005S-923.2,498.8-922.49,498.118Z" fill="#f5a977"/>
        <path id="Trazado_796" data-name="Trazado 796" d="M-868.056,464.777s9.257,1.021,15.9,13.091c5.238,9.519,14.194,27.066,10.815,32.023-1.484,2.176-15.7,9.919-43.134,5.493,0,0,.432-3.464,2.645-5.07,0,0,23.083-7.411,23.043-8.885-.074-2.789-3.119-5.2-16.013-18.1C-878.3,479.826-868.056,464.777-868.056,464.777Z" fill="#f18e37"/>
        <path id="Trazado_797" data-name="Trazado 797" d="M-875.18,465.266c.318-.427-.092-1.787-.6-4.319a47.335,47.335,0,0,1-1.225-9.835l-.682.115-11.474,1.93s.261,3.067.269,5.957v.072c.014,2.51-.677,6.3.17,6.8C-884.375,468.532-876.4,466.909-875.18,465.266Z" fill="#f5a977"/>
        <path id="Trazado_798" data-name="Trazado 798" d="M-889.161,453.157s.229,4.325.236,7.215c6.421-.153,9.847-6.388,11.238-9.145Z" fill="#f18e4e"/>
        <path id="Trazado_799" data-name="Trazado 799" d="M-889.853,458.316s15.04-2.143,13.562-11.489-.532-15.917-10.2-14.944-10.963,4.833-11.228,8.073S-893.8,458.632-889.853,458.316Z" fill="#f5a977"/>
        <path id="Trazado_800" data-name="Trazado 800" d="M-893.358,432.743s5.854,10.308,12.415,10.925,9.027-1.508,9.027-1.508a18.07,18.07,0,0,1-7.518-9.615S-891.091,427.032-893.358,432.743Z" fill="#1b3660"/>
        <path id="Trazado_801" data-name="Trazado 801" d="M-892.2,433.47s-2.864,1.624-3.764,4.045a15.291,15.291,0,0,0-.661,8.9s-4.282-6.958-1.476-11.728C-895.123,429.632-892.2,433.47-892.2,433.47Z" fill="#1b3660"/>
      </g>
      <rect id="Rectángulo_302" data-name="Rectángulo 302" width="835.82" height="2.686" rx="1.146" transform="translate(-1395.603 681.44)" fill="#1f3865"/>
    </g>
  </g>
</svg>
