<svg xmlns="http://www.w3.org/2000/svg" width="61.53" height="75.091" viewBox="0 0 61.53 75.091">
  <g id="Grupo_843" data-name="Grupo 843" transform="translate(1164.49 -944.806)">
    <g id="Grupo_835" data-name="Grupo 835">
      <g id="Grupo_824" data-name="Grupo 824">
        <g id="Grupo_815" data-name="Grupo 815">
          <g id="Grupo_814" data-name="Grupo 814">
            <path id="Trazado_802" data-name="Trazado 802" d="M-1121.521,949.993c1.037,4.119-1.931,5.962-5.914,6.966s-7.476.785-8.513-3.334c-1.022-4.056,1.825-6.392,5.808-7.4S-1122.576,945.8-1121.521,949.993Z" fill="#fff"/>
            <path id="Trazado_803" data-name="Trazado 803" d="M-1130.912,958.461a5.664,5.664,0,0,1-6.005-4.592c-1.049-4.161,1.332-7.3,6.533-8.611,5.281-1.326,8.777.3,9.833,4.49,1.022,4.061-1.212,6.813-6.64,8.18A15.287,15.287,0,0,1-1130.912,958.461Zm3.875-11.66a11.887,11.887,0,0,0-2.859.4c-2.848.718-6.042,2.374-5.082,6.183.752,2.987,2.908,3.713,7.3,2.608,5.5-1.385,5.709-3.685,5.189-5.752C-1123.08,947.893-1124.526,946.8-1127.037,946.8Z" fill="#838383"/>
          </g>
        </g>
        <g id="Grupo_817" data-name="Grupo 817">
          <g id="Grupo_816" data-name="Grupo 816">
            <path id="Trazado_804" data-name="Trazado 804" d="M-1104.445,1002.619c-.58-3.826-3.854-5.306-5.793-5.888s-5.152-.8-7.186-1.957-1.711-6.977-1.711-6.977h-8.784s.324,5.815-1.711,6.977-5.248,1.375-7.186,1.957-5.213,2.062-5.793,5.888c-.465,3.067-.486,12.825-.486,12.825h39.135S-1103.979,1005.686-1104.445,1002.619Z" fill="#fff"/>
            <path id="Trazado_805" data-name="Trazado 805" d="M-1103.96,1016.444h-39.135a1,1,0,0,1-.708-.293,1,1,0,0,1-.292-.709c0-.4.026-9.869.5-12.973.486-3.207,2.792-5.586,6.494-6.7.713-.215,1.554-.375,2.444-.547a15.876,15.876,0,0,0,4.532-1.32c1.019-.584,1.324-3.957,1.21-6.053a1,1,0,0,1,.271-.742,1,1,0,0,1,.727-.315h8.784a1.008,1.008,0,0,1,.727.313,1,1,0,0,1,.271.744c-.114,2.1.19,5.469,1.209,6.051a15.837,15.837,0,0,0,4.534,1.322c.89.172,1.731.332,2.445.547,3.7,1.109,6.006,3.488,6.493,6.7.471,3.1.495,12.57.5,12.971a1,1,0,0,1-.292.709A1.006,1.006,0,0,1-1103.96,1016.444Zm-38.129-2h37.123c-.02-2.557-.105-9.287-.467-11.674-.467-3.078-3.026-4.461-5.092-5.08-.616-.186-1.407-.338-2.246-.5a17.168,17.168,0,0,1-5.149-1.551c-1.973-1.125-2.242-4.871-2.241-6.844h-6.732c0,1.973-.268,5.719-2.241,6.844a17.16,17.16,0,0,1-5.148,1.551c-.839.16-1.63.312-2.246.5-2.066.619-4.626,2-5.092,5.08C-1141.983,1005.159-1142.07,1011.887-1142.089,1014.444Z" fill="#838383"/>
          </g>
        </g>
        <g id="Grupo_819" data-name="Grupo 819">
          <g id="Grupo_818" data-name="Grupo 818">
            <path id="Trazado_806" data-name="Trazado 806" d="M-1111.019,973.287s1.854-7.916-.3-12.32c-2.323-4.746-5.811-7.457-12.2-7.457s-9.881,2.711-12.206,7.457c-2.155,4.4-.3,12.32-.3,12.32-2.906-.582-2.362,2.6-1.454,4.036a8.785,8.785,0,0,1,1.223,2.63,1.246,1.246,0,0,0,2.156.583c.872,2.421,1.49,2.994,4.964,6.2,3.027,2.793,4.089,2.761,5.618,2.761s2.568.032,5.618-2.761c3.488-3.19,4.093-3.776,4.964-6.2a1.245,1.245,0,0,0,2.155-.583,8.861,8.861,0,0,1,1.222-2.63C-1108.657,975.885-1108.113,972.705-1111.019,973.287Z" fill="#fff"/>
            <path id="Trazado_807" data-name="Trazado 807" d="M-1123.427,990.494h-.05l-.1-1-.05,1c-1.816,0-3.138-.2-6.2-3.027-3.027-2.789-4-3.687-4.819-5.556a2.235,2.235,0,0,1-.525.064,2.161,2.161,0,0,1-2.043-1.695l-.1-.275a7.213,7.213,0,0,0-1.028-2.149c-.616-.975-1.306-3.044-.533-4.446a2.249,2.249,0,0,1,1.609-1.141c-.441-2.489-1.15-8.113.626-11.741,2.716-5.545,6.758-8.018,13.1-8.018s10.388,2.473,13.1,8.018c1.777,3.628,1.069,9.252.628,11.74a2.257,2.257,0,0,1,1.61,1.143c.773,1.4.08,3.472-.537,4.447a7.194,7.194,0,0,0-1.023,2.136l-.1.288a2.159,2.159,0,0,1-2.041,1.693h0a2.221,2.221,0,0,1-.525-.064c-.846,1.923-1.866,2.855-4.823,5.56C-1120.314,990.291-1121.628,990.494-1123.427,990.494Zm-10.682-10.958a.98.98,0,0,1,.252.031,1,1,0,0,1,.689.629c.791,2.2,1.312,2.677,4.7,5.8,2.706,2.5,3.555,2.5,4.841,2.5h.15l.049,1v-1c1.272,0,2.113,0,4.842-2.5,3.51-3.208,3.921-3.632,4.7-5.8a1,1,0,0,1,.689-.63,1,1,0,0,1,.91.215.926.926,0,0,0,.4.193c-.017,0,.067-.1.151-.35l.1-.284a9.1,9.1,0,0,1,1.224-2.552,3.134,3.134,0,0,0,.475-2.414c-.028-.051-.088-.158-.431-.158a2.368,2.368,0,0,0-.454.051,1,1,0,0,1-.914-.285,1,1,0,0,1-.255-.924c.017-.075,1.745-7.623-.229-11.651-2.366-4.835-5.748-6.9-11.306-6.9s-8.94,2.063-11.307,6.9c-1.976,4.036-.244,11.575-.227,11.651a1,1,0,0,1-.255.924,1,1,0,0,1-.915.285,2.359,2.359,0,0,0-.453-.051c-.344,0-.4.107-.431.158a3.125,3.125,0,0,0,.473,2.412,9.126,9.126,0,0,1,1.229,2.567l.093.271a.894.894,0,0,0,.194.366,1.632,1.632,0,0,0,.361-.21A1,1,0,0,1-1134.109,979.536Z" fill="#838383"/>
          </g>
        </g>
        <g id="Grupo_821" data-name="Grupo 821">
          <g id="Grupo_820" data-name="Grupo 820">
            <path id="Trazado_808" data-name="Trazado 808" d="M-1115.2,953.51a13.794,13.794,0,0,0-13.1,0c-14.752,1.629-9.59,20.234-9.59,20.234h.008a1.706,1.706,0,0,1,1.852-.457c-.2-1.355,1.462-3.005,4.078-4.943a11.565,11.565,0,0,0,3.652-4.746,13.693,13.693,0,0,0,9.169,6.248c6.553,1.309,7.935,2.231,8.116,3.441a1.7,1.7,0,0,1,1.85.457h.01S-1105.2,958.735-1115.2,953.51Z" fill="#fff"/>
            <path id="Trazado_809" data-name="Trazado 809" d="M-1109.159,974.744h-.01a1,1,0,0,1-.8-.406c-.1-.129-.426-.154-.85-.07a1,1,0,0,1-.771-.162,1.006,1.006,0,0,1-.414-.67c-.121-.807-2.447-1.636-7.322-2.609a15,15,0,0,1-8.836-5.273,12.347,12.347,0,0,1-3.2,3.595c-2.955,2.189-3.665,3.3-3.689,3.868a1.043,1.043,0,0,1,.036.27,1,1,0,0,1-1,1h-.019a.993.993,0,0,1-.2-.019,2.276,2.276,0,0,0-.445-.05c-.317,0-.386.093-.409.123a1,1,0,0,1-.8.4,1.011,1.011,0,0,1-.972-.732c-.115-.415-2.767-10.226,1.507-16.541a11.686,11.686,0,0,1,8.727-4.931,14.669,14.669,0,0,1,6.863-1.683,15.057,15.057,0,0,1,7.023,1.766c10.59,5.532,6.715,20.732,6.545,21.376A1,1,0,0,1-1109.159,974.744Zm-12.6-21.887a12.419,12.419,0,0,0-6.016,1.5,1.013,1.013,0,0,1-.418.144c-3.391.374-5.914,1.748-7.5,4.082-2.944,4.346-2.05,10.969-1.513,13.675a2.737,2.737,0,0,1,.286-.034c.5-1.62,2.36-3.2,4.367-4.686a10.671,10.671,0,0,0,3.311-4.291,1,1,0,0,1,.873-.648,1,1,0,0,1,.948.528,12.6,12.6,0,0,0,8.48,5.736c5.431,1.084,7.785,1.957,8.595,3.352a3.073,3.073,0,0,1,.477.04c.646-3.569,1.775-13.908-5.795-17.862A13.072,13.072,0,0,0-1121.761,952.857Z" fill="#838383"/>
          </g>
        </g>
        <g id="Grupo_823" data-name="Grupo 823">
          <g id="Grupo_822" data-name="Grupo 822">
            <path id="Trazado_810" data-name="Trazado 810" d="M-1117.524,994.774a1.756,1.756,0,0,1-.249-.178,12.087,12.087,0,0,1-5.8,1.963,11.788,11.788,0,0,1-5.8-1.963,1.875,1.875,0,0,1-.248.178,11.856,11.856,0,0,1-3.251,1.111v0l9.3,10.209,9.3-10.209v0A11.832,11.832,0,0,1-1117.524,994.774Z" fill="#fff"/>
            <path id="Trazado_811" data-name="Trazado 811" d="M-1123.577,1007.1h0a1,1,0,0,1-.74-.326l-9.3-10.209a1.006,1.006,0,0,1-.261-.674,1,1,0,0,1,.784-.98,11.2,11.2,0,0,0,2.97-1,.856.856,0,0,0,.113-.086,1,1,0,0,1,1.2-.047,10.851,10.851,0,0,0,5.236,1.785,11.048,11.048,0,0,0,5.242-1.791,1,1,0,0,1,1.2.057.59.59,0,0,0,.1.076,11.116,11.116,0,0,0,2.977,1.008,1,1,0,0,1,.784.976,1.015,1.015,0,0,1-.26.678l-9.305,10.209A1,1,0,0,1-1123.577,1007.1Zm-7.453-10.662,7.453,8.178,7.452-8.178a9.979,9.979,0,0,1-1.653-.662,12.43,12.43,0,0,1-5.8,1.785,12.2,12.2,0,0,1-5.8-1.783A10.107,10.107,0,0,1-1131.03,996.436Z" fill="#838383"/>
          </g>
        </g>
      </g>
      <g id="Grupo_826" data-name="Grupo 826">
        <g id="Grupo_825" data-name="Grupo 825">
          <path id="Trazado_812" data-name="Trazado 812" d="M-1120.254,985.7a1,1,0,0,1-1-1,1,1,0,0,1,1-1c4.858,0,8.274-1.025,9.88-2.964a4.209,4.209,0,0,0,.981-3.27,1,1,0,0,1,.785-1.172,1,1,0,0,1,1.174.772,6.211,6.211,0,0,1-1.361,4.9C-1110.81,984.446-1114.665,985.7-1120.254,985.7Z" fill="#838383"/>
        </g>
      </g>
      <g id="Grupo_833" data-name="Grupo 833">
        <g id="Grupo_827" data-name="Grupo 827">
          <path id="Trazado_813" data-name="Trazado 813" d="M-1105.78,975.549c0-3.051-1.262-5.525-2.823-5.541h-1.017v.34c-1.149.777-2.067,2.809-2.067,5.2s.918,4.424,2.067,5.2v.342h1.017v0C-1107.042,981.073-1105.78,978.6-1105.78,975.549Z" fill="#fff"/>
          <path id="Trazado_814" data-name="Trazado 814" d="M-1108.6,982.092h-1.017a1,1,0,0,1-.99-.853,7.953,7.953,0,0,1-2.077-5.69,7.951,7.951,0,0,1,2.077-5.689,1,1,0,0,1,.99-.852h1.017c2.185.023,3.823,2.835,3.823,6.541s-1.638,6.518-3.812,6.541Zm-.264-2h.256c.748-.015,1.831-1.789,1.831-4.543s-1.085-4.533-1.833-4.541h-.256a.969.969,0,0,1-.192.169c-.807.546-1.626,2.224-1.626,4.372s.819,3.826,1.626,4.372A1.025,1.025,0,0,1-1108.867,980.092Z" fill="#838383"/>
        </g>
        <g id="Grupo_828" data-name="Grupo 828">
          <path id="Trazado_815" data-name="Trazado 815" d="M-1108.531,979.924a1.2,1.2,0,0,1-1.051,1.309h-1.053a1.2,1.2,0,0,1-1.052-1.309v-8.75a1.2,1.2,0,0,1,1.052-1.308h1.053a1.2,1.2,0,0,1,1.051,1.308Z" fill="#fff"/>
          <path id="Trazado_816" data-name="Trazado 816" d="M-1109.582,982.233h-1.053a2.194,2.194,0,0,1-2.052-2.309v-8.75a2.194,2.194,0,0,1,2.052-2.308h1.053a2.193,2.193,0,0,1,2.051,2.308v8.75A2.193,2.193,0,0,1-1109.582,982.233Zm-.059-11.381-.994.014c.029,0-.052.118-.052.308v8.75a.421.421,0,0,0,.112.322l.948-.012a.474.474,0,0,0,.1-.31v-8.75A.434.434,0,0,0-1109.641,970.852Z" fill="#838383"/>
        </g>
        <g id="Grupo_829" data-name="Grupo 829">
          <path id="Trazado_817" data-name="Trazado 817" d="M-1141.273,975.549c0-3.051,1.262-5.525,2.823-5.541h1.016v.34c1.15.777,2.068,2.809,2.068,5.2s-.918,4.424-2.068,5.2v.342h-1.016v0C-1140.011,981.073-1141.273,978.6-1141.273,975.549Z" fill="#fff"/>
          <path id="Trazado_818" data-name="Trazado 818" d="M-1137.434,982.092h-1.016c-2.185-.026-3.823-2.839-3.823-6.543s1.639-6.518,3.813-6.541h1.026a1,1,0,0,1,.707.292,1,1,0,0,1,.282.56,7.94,7.94,0,0,1,2.079,5.689,7.944,7.944,0,0,1-2.079,5.69A1,1,0,0,1-1137.434,982.092Zm-1.016-11.084c-.737.008-1.823,1.781-1.823,4.541s1.086,4.533,1.833,4.541h.254a.978.978,0,0,1,.193-.169c.808-.546,1.627-2.223,1.627-4.372s-.819-3.826-1.627-4.372a.948.948,0,0,1-.193-.169Z" fill="#838383"/>
        </g>
        <g id="Grupo_830" data-name="Grupo 830">
          <path id="Trazado_819" data-name="Trazado 819" d="M-1138.524,979.924a1.2,1.2,0,0,0,1.052,1.309h1.053a1.2,1.2,0,0,0,1.053-1.309v-8.75a1.2,1.2,0,0,0-1.053-1.308h-1.053a1.2,1.2,0,0,0-1.052,1.308Z" fill="#fff"/>
          <path id="Trazado_820" data-name="Trazado 820" d="M-1136.419,982.233h-1.053a2.194,2.194,0,0,1-2.052-2.309v-8.75a2.194,2.194,0,0,1,2.052-2.308h1.053a2.194,2.194,0,0,1,2.053,2.308v8.75A2.194,2.194,0,0,1-1136.419,982.233Zm-.058-11.381-.995.014c.029,0-.052.118-.052.308v8.75a.425.425,0,0,0,.112.322l.949-.012a.473.473,0,0,0,.1-.31v-8.75A.432.432,0,0,0-1136.477,970.852Z" fill="#838383"/>
        </g>
        <g id="Grupo_832" data-name="Grupo 832">
          <g id="Grupo_831" data-name="Grupo 831">
            <path id="Trazado_821" data-name="Trazado 821" d="M-1108.544,971.446a1,1,0,0,1-1-1,14,14,0,0,0-13.983-13.983,14,14,0,0,0-13.984,13.983,1,1,0,0,1-1,1,1,1,0,0,1-1-1,16,16,0,0,1,15.984-15.983,16,16,0,0,1,15.983,15.983A1,1,0,0,1-1108.544,971.446Z" fill="#838383"/>
          </g>
        </g>
      </g>
      <g id="Grupo_834" data-name="Grupo 834">
        <path id="Trazado_822" data-name="Trazado 822" d="M-1118.413,984.721a1.239,1.239,0,0,1-1.291,1.178h-4.411a1.241,1.241,0,0,1-1.291-1.178v-.035a1.239,1.239,0,0,1,1.291-1.178h4.411a1.237,1.237,0,0,1,1.291,1.178Z" fill="#fff"/>
        <path id="Trazado_823" data-name="Trazado 823" d="M-1119.7,986.9h-4.411a2.239,2.239,0,0,1-2.291-2.178,2.246,2.246,0,0,1,2.291-2.213h4.411a2.239,2.239,0,0,1,2.291,2.178A2.246,2.246,0,0,1-1119.7,986.9Zm-4.411-2.391c-.174,0-.291.108-.291.178,0,.107.117.213.291.213h4.411c.177,0,.291-.106.291-.178,0-.107-.114-.213-.291-.213Z" fill="#838383"/>
      </g>
    </g>
    <g id="Grupo_842" data-name="Grupo 842">
      <g id="Grupo_836" data-name="Grupo 836">
        <path id="Trazado_824" data-name="Trazado 824" d="M-1119.789,1013.9h-32.567l.535,5h38.291v-5Z" fill="#fff"/>
        <path id="Trazado_825" data-name="Trazado 825" d="M-1113.531,1019.9h-38.291a1,1,0,0,1-.994-.893l-.535-5a1,1,0,0,1,.25-.775,1,1,0,0,1,.744-.332h38.826a1,1,0,0,1,1,1v5A1,1,0,0,1-1113.531,1019.9Zm-37.392-2h36.392v-3h-36.713Z" fill="#838383"/>
      </g>
      <g id="Grupo_837" data-name="Grupo 837">
        <path id="Trazado_826" data-name="Trazado 826" d="M-1120.433,1018.813h-39.981l-3.076-30.268h39.982Z" fill="#fff"/>
        <path id="Trazado_827" data-name="Trazado 827" d="M-1120.413,1019.813h-40a1,1,0,0,1-.995-.9l-3.077-30.267a1,1,0,0,1,.253-.772,1,1,0,0,1,.742-.33h39.982a1,1,0,0,1,1,.9l3.055,30.07a1.024,1.024,0,0,1,.045.3A1,1,0,0,1-1120.413,1019.813Zm-39.1-2h37.971l-2.872-28.268h-37.972Z" fill="#838383"/>
      </g>
      <g id="Grupo_838" data-name="Grupo 838">
        <path id="Trazado_828" data-name="Trazado 828" d="M-1134.281,1003.678a7.682,7.682,0,0,1-7.68,7.682,7.683,7.683,0,0,1-7.681-7.682,7.682,7.682,0,0,1,7.681-7.68A7.681,7.681,0,0,1-1134.281,1003.678Z" fill="#fff"/>
        <path id="Trazado_829" data-name="Trazado 829" d="M-1141.961,1012.36a8.692,8.692,0,0,1-8.681-8.682,8.692,8.692,0,0,1,8.681-8.68,8.691,8.691,0,0,1,8.68,8.68A8.691,8.691,0,0,1-1141.961,1012.36Zm0-15.362a6.689,6.689,0,0,0-6.681,6.68,6.689,6.689,0,0,0,6.681,6.682,6.689,6.689,0,0,0,6.68-6.682A6.689,6.689,0,0,0-1141.961,997Z" fill="#838383"/>
      </g>
      <g id="Grupo_841" data-name="Grupo 841">
        <g id="Grupo_839" data-name="Grupo 839">
          <rect id="Rectángulo_303" data-name="Rectángulo 303" width="2.248" height="6.08" transform="translate(-1143.085 998.653)" fill="#fff"/>
          <path id="Trazado_830" data-name="Trazado 830" d="M-1140.837,1005.733h-2.248a1,1,0,0,1-1-1v-6.08a1,1,0,0,1,1-1h2.248a1,1,0,0,1,1,1v6.08A1,1,0,0,1-1140.837,1005.733Zm-1.248-2h.248v-4.08h-.248Z" fill="#838383"/>
        </g>
        <g id="Grupo_840" data-name="Grupo 840">
          <rect id="Rectángulo_304" data-name="Rectángulo 304" width="2.248" height="2.037" transform="translate(-1143.085 1006.668)" fill="#fff"/>
          <rect id="Rectángulo_305" data-name="Rectángulo 305" width="4.248" height="4.037" rx="1" transform="translate(-1144.085 1005.668)" fill="#838383"/>
        </g>
      </g>
    </g>
  </g>
</svg>
