<?xml version="1.0" encoding="utf-8"?>
<!-- Generator: Adobe Illustrator 26.0.1, SVG Export Plug-In . SVG Version: 6.00 Build 0)  -->
<svg version="1.1" id="Capa_1" xmlns="http://www.w3.org/2000/svg" xmlns:xlink="http://www.w3.org/1999/xlink" x="0px" y="0px"
	 viewBox="0 0 1080 1080" style="enable-background:new 0 0 1080 1080;" xml:space="preserve">
<style type="text/css">
	.st0{fill:#111E62;}
</style>
<g>
	<path class="st0" d="M766,764.5v91.7c0,40.2-32.6,72.8-72.8,72.8h-437c-40.2,0-72.8-32.6-72.8-72.8V224.9c0-40.2,32.6-72.8,72.8-73
		h309.7c19.2,0,37.8,7.7,51.4,21.4l127.3,127.3c13.6,13.6,21.4,32.3,21.4,51.6v23l-78.8,43.9H535.4c-20.2,0-36.4-16.2-36.4-36.4
		V224.9H256.2v631.2h437v-30.5L766,764.5z M571.8,230.9v115.5h115.5L571.8,230.9z"/>
</g>
<g>
	<g>
		<path class="st0" d="M532.9,602.5l178.7-178c37.8-37.6,99.1-37.6,136.8,0c37.4,37.3,37.4,97.3,0,134.6l-155.7,155
			c-25.4,25.3-67,25-92-0.8c-24.1-24.9-23.3-64.3,1.2-88.7l122.4-121.8c5.3-5.2,13.9-5.3,19.3-0.2l19.5,18.6
			c5.4,5.1,5.5,13.5,0.2,18.8L640.9,661.7c-4.2,4.2-4.5,11.1-0.6,15.2c3.7,3.8,9.6,3.9,13.4,0.1l155.7-155
			c16.7-16.6,16.7-43.8,0-60.4c-16.3-16.3-42.5-16.3-58.9,0l-178.7,178c-29.6,29.5-30.1,77.3-1,106.5c29,29.1,75.8,29.2,104.8,0.2
			l146.5-146c5.3-5.2,13.9-5.3,19.3-0.2l19.5,18.6c5.4,5.1,5.5,13.5,0.2,18.8l-146.5,146c-50.7,50.6-132.8,50-182.9-0.4
			C482,733,482.9,652.4,532.9,602.5z"/>
	</g>
</g>
</svg>
