<?xml version="1.0" encoding="utf-8"?>
<!-- Generator: Adobe Illustrator 26.0.1, SVG Export Plug-In . SVG Version: 6.00 Build 0)  -->
<svg version="1.1" id="Capa_1" xmlns="http://www.w3.org/2000/svg" xmlns:xlink="http://www.w3.org/1999/xlink" x="0px" y="0px"
	 viewBox="0 0 1080 1080" style="enable-background:new 0 0 1080 1080;" xml:space="preserve">
<style type="text/css">
	.st0{fill:#001689;}
</style>
<g>
	<path class="st0" d="M912.8,419.3L740.3,670.8c-83.7,121.9-196.8,139.3-327.2,49.8s-155.2-201.2-71.6-323.3l170.2-248.1
		c-114.8,8.4-224.8,67-294.9,169.3C94.4,497.1,139.9,741,318.3,863.5c178.6,122.4,422.6,76.8,544.9-101.7
		C934.7,657.4,948.9,531,912.8,419.3"/>
	<path class="st0" d="M435,592.3l89.5,61.3c25.3,17.4,59.8,10.8,77.1-14.4l235.2-343.2c17.4-25.3,10.8-59.8-14.4-77.1l-89.5-61.3
		c-25.2-17.4-59.8-11-77.1,14.4l-235,343.2C403.4,540.4,409.8,574.9,435,592.3"/>
</g>
</svg>
