<?xml version="1.0" encoding="utf-8"?>
<!-- Generator: Adobe Illustrator 26.0.1, SVG Export Plug-In . SVG Version: 6.00 Build 0)  -->
<svg version="1.1" id="Capa_1" xmlns="http://www.w3.org/2000/svg" xmlns:xlink="http://www.w3.org/1999/xlink" x="0px" y="0px"
	 viewBox="0 0 1920 1080" style="enable-background:new 0 0 1920 1080;" xml:space="preserve">
<style type="text/css">
	.st0{fill:#013665;}
	.st1{fill:#013666;}
	.st2{fill:#013766;}
	.st3{fill:#013767;}
	.st4{fill:#013768;}
	.st5{fill:#013869;}
	.st6{fill:#01386A;}
	.st7{fill:#01396B;}
	.st8{fill:#01396C;}
	.st9{fill:#01396D;}
	.st10{fill:#003A6D;}
	.st11{fill:#003A6E;}
	.st12{fill:#003A6F;}
	.st13{fill:#003B70;}
	.st14{fill:#003B71;}
	.st15{fill:#003C72;}
	.st16{fill:#003C73;}
	.st17{fill:#003C74;}
	.st18{fill:#003D74;}
	.st19{fill:#003D75;}
	.st20{fill:#FFFFFF;}
	.st21{fill:#E8F2FA;}
	.st22{fill:#F5F5F5;}
	.st23{fill:#1A2E35;}
	.st24{fill:#FF4F5B;}
	.st25{fill:#BC9D02;}
	.st26{fill:#FFBF9D;}
	.st27{fill:#FF9A6C;}
	.st28{fill:#375A64;}
	.st29{opacity:0.4;enable-background:new    ;}
	.st30{fill:#E1E1E1;}
	.st31{fill:#F8AD00;}
	.st32{fill:#808D97;}
	.st33{fill:#19ABE3;}
	.st34{opacity:0.6;}
	.st35{fill:#FAFAFA;}
	.st36{fill:#FFDD00;}
</style>
<g>
	<g>
		<g>
			<path class="st0" d="M1622.4,854.6H311c-21.1,0-38.1-17.1-38.1-38.1v-20.7c0-21.1,17.1-38.1,38.1-38.1h1311.5
				c21.1,0,38.1,17.1,38.1,38.1v20.7C1660.6,837.5,1643.5,854.6,1622.4,854.6z"/>
			<path class="st0" d="M1622,854.3H310.6c-21.1,0-38.1-17.1-38.1-38.1v-20.7c0-21.1,17.1-38.1,38.1-38.1H1622
				c21.1,0,38.1,17.1,38.1,38.1v20.7C1660.2,837.2,1643.1,854.3,1622,854.3z"/>
			<path class="st1" d="M1621.7,854H310.2c-21.1,0-38.1-17.1-38.1-38.1v-20.7c0-21.1,17.1-38.1,38.1-38.1h1311.5
				c21.1,0,38.1,17.1,38.1,38.1v20.7C1659.8,837,1642.7,854,1621.7,854z"/>
			<path class="st2" d="M1621.3,853.8H309.8c-21.1,0-38.1-17.1-38.1-38.1V795c0-21.1,17.1-38.1,38.1-38.1h1311.5
				c21.1,0,38.1,17.1,38.1,38.1v20.7C1659.4,836.7,1642.3,853.8,1621.3,853.8z"/>
			<path class="st3" d="M1620.9,853.5H309.4c-21.1,0-38.1-17.1-38.1-38.1v-20.7c0-21.1,17.1-38.1,38.1-38.1h1311.5
				c21.1,0,38.1,17.1,38.1,38.1v20.7C1659,836.4,1642,853.5,1620.9,853.5z"/>
			<path class="st3" d="M1620.5,853.2H309c-21.1,0-38.1-17.1-38.1-38.1v-20.7c0-21.1,17.1-38.1,38.1-38.1h1311.5
				c21.1,0,38.1,17.1,38.1,38.1V815C1658.7,836.1,1641.6,853.2,1620.5,853.2z"/>
			<path class="st4" d="M1620.1,852.9H308.7c-21.1,0-38.1-17.1-38.1-38.1v-20.7c0-21.1,17.1-38.1,38.1-38.1h1311.5
				c21.1,0,38.1,17.1,38.1,38.1v20.7C1658.3,835.8,1641.2,852.9,1620.1,852.9z"/>
			<path class="st4" d="M1619.7,852.6H308.3c-21.1,0-38.1-17.1-38.1-38.1v-20.7c0-21.1,17.1-38.1,38.1-38.1h1311.5
				c21.1,0,38.1,17.1,38.1,38.1v20.7C1657.9,835.5,1640.8,852.6,1619.7,852.6z"/>
			<path class="st5" d="M1619.4,852.3H307.9c-21.1,0-38.1-17.1-38.1-38.1v-20.7c0-21.1,17.1-38.1,38.1-38.1h1311.5
				c21.1,0,38.1,17.1,38.1,38.1v20.7C1657.5,835.3,1640.4,852.3,1619.4,852.3z"/>
			<path class="st5" d="M1619,852H307.5c-21.1,0-38.1-17.1-38.1-38.1v-20.7c0-21.1,17.1-38.1,38.1-38.1H1619
				c21.1,0,38.1,17.1,38.1,38.1v20.7C1657.1,835,1640,852,1619,852z"/>
			<path class="st6" d="M1618.6,851.8H307.1c-21.1,0-38.1-17.1-38.1-38.1V793c0-21.1,17.1-38.1,38.1-38.1h1311.5
				c21.1,0,38.1,17.1,38.1,38.1v20.7C1656.7,834.7,1639.7,851.8,1618.6,851.8z"/>
			<path class="st6" d="M1618.2,851.5H306.8c-21.1,0-38.1-17.1-38.1-38.1v-20.7c0-21.1,17.1-38.1,38.1-38.1h1311.5
				c21.1,0,38.1,17.1,38.1,38.1v20.7C1656.4,834.4,1639.3,851.5,1618.2,851.5z"/>
			<path class="st6" d="M1617.8,851.2H306.4c-21.1,0-38.1-17.1-38.1-38.1v-20.7c0-21.1,17.1-38.1,38.1-38.1h1311.5
				c21.1,0,38.1,17.1,38.1,38.1v20.7C1656,834.1,1638.9,851.2,1617.8,851.2z"/>
			<path class="st7" d="M1617.5,850.9H306c-21.1,0-38.1-17.1-38.1-38.1v-20.7C267.9,771,285,754,306,754h1311.5
				c21.1,0,38.1,17.1,38.1,38.1v20.7C1655.6,833.8,1638.5,850.9,1617.5,850.9z"/>
			<path class="st7" d="M1617.1,850.6H305.6c-21.1,0-38.1-17.1-38.1-38.1v-20.7c0-21.1,17.1-38.1,38.1-38.1h1311.5
				c21.1,0,38.1,17.1,38.1,38.1v20.7C1655.2,833.6,1638.1,850.6,1617.1,850.6z"/>
			<path class="st8" d="M1616.7,850.3H305.2c-21.1,0-38.1-17.1-38.1-38.1v-20.7c0-21.1,17.1-38.1,38.1-38.1h1311.5
				c21.1,0,38.1,17.1,38.1,38.1v20.7C1654.8,833.3,1637.8,850.3,1616.7,850.3z"/>
			<path class="st8" d="M1616.3,850.1H304.8c-21.1,0-38.1-17.1-38.1-38.1v-20.7c0-21.1,17.1-38.1,38.1-38.1h1311.5
				c21.1,0,38.1,17.1,38.1,38.1V812C1654.4,833,1637.4,850.1,1616.3,850.1z"/>
			<path class="st9" d="M1615.9,849.8H304.5c-21.1,0-38.1-17.1-38.1-38.1V791c0-21.1,17.1-38.1,38.1-38.1H1616
				c21.1,0,38.1,17.1,38.1,38.1v20.7C1654.1,832.7,1637,849.8,1615.9,849.8z"/>
			<path class="st10" d="M1615.5,849.5H304.1c-21.1,0-38.1-17.1-38.1-38.1v-20.7c0-21.1,17.1-38.1,38.1-38.1h1311.5
				c21.1,0,38.1,17.1,38.1,38.1v20.7C1653.7,832.4,1636.6,849.5,1615.5,849.5z"/>
			<path class="st11" d="M1615.2,849.2H303.7c-21.1,0-38.1-17.1-38.1-38.1v-20.7c0-21.1,17.1-38.1,38.1-38.1h1311.5
				c21.1,0,38.1,17.1,38.1,38.1v20.7C1653.3,832.1,1636.2,849.2,1615.2,849.2z"/>
			<path class="st11" d="M1614.8,848.9H303.3c-21.1,0-38.1-17.1-38.1-38.1v-20.7c0-21.1,17.1-38.1,38.1-38.1h1311.5
				c21.1,0,38.1,17.1,38.1,38.1v20.7C1652.9,831.8,1635.8,848.9,1614.8,848.9z"/>
			<path class="st12" d="M1614.4,848.6H302.9c-21.1,0-38.1-17.1-38.1-38.1v-20.7c0-21.1,17.1-38.1,38.1-38.1h1311.5
				c21.1,0,38.1,17.1,38.1,38.1v20.7C1652.5,831.6,1635.5,848.6,1614.4,848.6z"/>
			<path class="st12" d="M1614,848.4H302.5c-21.1,0-38.1-17.1-38.1-38.1v-20.7c0-21.1,17.1-38.1,38.1-38.1H1614
				c21.1,0,38.1,17.1,38.1,38.1v20.7C1652.2,831.3,1635.1,848.4,1614,848.4z"/>
			<path class="st13" d="M1613.6,848.1H302.2c-21.1,0-38.1-17.1-38.1-38.1v-20.7c0-21.1,17.1-38.1,38.1-38.1h1311.5
				c21.1,0,38.1,17.1,38.1,38.1V810C1651.8,831,1634.7,848.1,1613.6,848.1z"/>
			<path class="st13" d="M1613.2,847.8H301.8c-21.1,0-38.1-17.1-38.1-38.1V789c0-21.1,17.1-38.1,38.1-38.1h1311.5
				c21.1,0,38.1,17.1,38.1,38.1v20.7C1651.4,830.7,1634.3,847.8,1613.2,847.8z"/>
			<path class="st13" d="M1612.9,847.5H301.4c-21.1,0-38.1-17.1-38.1-38.1v-20.7c0-21.1,17.1-38.1,38.1-38.1h1311.5
				c21.1,0,38.1,17.1,38.1,38.1v20.7C1651,830.4,1633.9,847.5,1612.9,847.5z"/>
			<path class="st14" d="M1612.5,847.2H301c-21.1,0-38.1-17.1-38.1-38.1v-20.7c0-21.1,17.1-38.1,38.1-38.1h1311.5
				c21.1,0,38.1,17.1,38.1,38.1v20.7C1650.6,830.1,1633.5,847.2,1612.5,847.2z"/>
			<path class="st14" d="M1612.1,846.9H300.6c-21.1,0-38.1-17.1-38.1-38.1v-20.7c0-21.1,17.1-38.1,38.1-38.1h1311.5
				c21.1,0,38.1,17.1,38.1,38.1v20.7C1650.2,829.9,1633.2,846.9,1612.1,846.9z"/>
			<path class="st15" d="M1611.7,846.6H300.3c-21.1,0-38.1-17.1-38.1-38.1v-20.7c0-21.1,17.1-38.1,38.1-38.1h1311.5
				c21.1,0,38.1,17.1,38.1,38.1v20.7C1649.9,829.6,1632.8,846.6,1611.7,846.6z"/>
			<path class="st15" d="M1611.3,846.4H299.9c-21.1,0-38.1-17.1-38.1-38.1v-20.7c0-21.1,17.1-38.1,38.1-38.1h1311.5
				c21.1,0,38.1,17.1,38.1,38.1v20.7C1649.5,829.3,1632.4,846.4,1611.3,846.4z"/>
			<path class="st16" d="M1611,846.1H299.5c-21.1,0-38.1-17.1-38.1-38.1v-20.7c0-21.1,17.1-38.1,38.1-38.1H1611
				c21.1,0,38.1,17.1,38.1,38.1V808C1649.1,829,1632,846.1,1611,846.1z"/>
			<path class="st16" d="M1610.6,845.8H299.1c-21.1,0-38.1-17.1-38.1-38.1V787c0-21.1,17.1-38.1,38.1-38.1h1311.5
				c21.1,0,38.1,17.1,38.1,38.1v20.7C1648.7,828.7,1631.6,845.8,1610.6,845.8z"/>
			<path class="st17" d="M1610.2,845.5H298.7c-21.1,0-38.1-17.1-38.1-38.1v-20.7c0-21.1,17.1-38.1,38.1-38.1h1311.5
				c21.1,0,38.1,17.1,38.1,38.1v20.7C1648.3,828.4,1631.3,845.5,1610.2,845.5z"/>
			<path class="st18" d="M1609.8,845.2H298.3c-21.1,0-38.1-17.1-38.1-38.1v-20.7c0-21.1,17.1-38.1,38.1-38.1h1311.5
				c21.1,0,38.1,17.1,38.1,38.1v20.7C1647.9,828.2,1630.9,845.2,1609.8,845.2z"/>
			<path class="st19" d="M1609.4,844.9H298c-21.1,0-38.1-17.1-38.1-38.1v-20.7C259.9,765,277,748,298,748h1311.5
				c21.1,0,38.1,17.1,38.1,38.1v20.7C1647.6,827.9,1630.5,844.9,1609.4,844.9z"/>
			<path class="st19" d="M1609,844.7H297.6c-21.1,0-38.1-17.1-38.1-38.1v-20.7c0-21.1,17.1-38.1,38.1-38.1H1609
				c21.1,0,38.1,17.1,38.1,38.1v20.7C1647.2,827.6,1630.1,844.7,1609,844.7z"/>
		</g>
		<g>
			<g>
				<g>
					<path class="st20" d="M339,783.7c0.8,0.7,1.2,1.7,1.2,2.8s-0.4,2.1-1.2,2.9c-0.8,0.8-1.9,1.2-3.1,1.2c-1.3,0-2.4-0.4-3.2-1.2
						s-1.3-1.7-1.3-2.9s0.4-2.1,1.3-2.8c0.8-0.7,1.9-1.1,3.2-1.1S338.2,782.9,339,783.7z M332.4,795.3h6.5v37h-6.5V795.3z"/>
					<path class="st20" d="M343.7,771.1h31.7v7.3h-12.2v40.1h-7.5v-40.1h-11.9v-7.3H343.7z"/>
					<path class="st20" d="M390.5,819.6c-2.5,0-4.5-0.8-6.2-2.3c-1.6-1.5-2.5-3.5-2.6-5.9V791h7.3v17.8c0.1,1.4,0.5,2.5,1.2,3.4
						s1.8,1.3,3.3,1.4c1.4,0,2.7-0.5,3.8-1.4c1.1-0.9,2-2.1,2.6-3.7s1-3.3,1-5.3V791h7.3v27.5h-6.6l-0.6-6l0.2,0.9
						c-0.6,1.3-1.4,2.4-2.4,3.3c-1,1-2.3,1.7-3.6,2.2C393.8,819.4,392.2,819.6,390.5,819.6z"/>
					<path class="st20" d="M443.6,819c-2.1,0-4.1-0.4-6-1.1c-1.9-0.7-3.5-1.8-4.7-3.3l3.1-4c1.2,1.1,2.4,2,3.6,2.5s2.3,0.8,3.4,0.8
						c0.8,0,1.6-0.1,2.2-0.3c0.7-0.2,1.2-0.5,1.6-0.9c0.4-0.5,0.6-1.1,0.6-1.8c0-0.9-0.3-1.5-0.9-2s-1.4-0.9-2.3-1.2
						c-1-0.3-2-0.6-3-1c-2.4-0.7-4.2-1.8-5.3-3.3c-1.2-1.4-1.8-3.1-1.8-4.9c0-1.4,0.4-2.8,1.1-4.2c0.7-1.3,1.9-2.4,3.4-3.3
						c1.5-0.8,3.4-1.3,5.7-1.3c2,0,3.8,0.2,5.4,0.7s3,1.2,4.4,2.3l-2.8,4.4c-0.8-0.7-1.8-1.3-2.8-1.8c-1-0.4-2-0.7-2.9-0.7
						c-0.8,0-1.5,0.1-2.1,0.3c-0.6,0.3-1.1,0.6-1.5,1s-0.6,0.9-0.6,1.5c0,0.9,0.2,1.6,0.9,2.1c0.6,0.5,1.4,0.9,2.4,1.2s2,0.6,3,1
						c1.3,0.4,2.5,0.9,3.5,1.6c1,0.7,1.9,1.5,2.5,2.5s0.9,2.2,0.9,3.6c0,1.6-0.4,3.2-1.2,4.6c-0.8,1.5-2.1,2.6-3.7,3.5
						C448.2,818.6,446.1,819,443.6,819z"/>
					<path class="st20" d="M458.7,804.4c0-2.8,0.7-5.3,2-7.5s3.2-4,5.5-5.3s5-1.9,8.1-1.9c3,0,5.6,0.6,7.9,1.9
						c2.3,1.3,4.1,3,5.3,5.2c1.3,2.2,1.9,4.7,1.9,7.5s-0.6,5.3-1.9,7.6c-1.3,2.2-3.1,4-5.3,5.3c-2.3,1.3-5,2-8.1,2
						c-2.9,0-5.6-0.6-7.9-1.8s-4.1-2.9-5.5-5.1C459.4,810.1,458.7,807.4,458.7,804.4z M466,804.5c0,1.6,0.4,3.1,1.1,4.5
						c0.7,1.3,1.7,2.4,2.9,3.1c1.2,0.8,2.5,1.1,4.1,1.1s3-0.4,4.2-1.1c1.2-0.8,2.1-1.8,2.8-3.1c0.7-1.3,1-2.8,1-4.5
						c0-1.6-0.3-3.1-1-4.4c-0.7-1.3-1.6-2.4-2.8-3.2c-1.2-0.8-2.6-1.2-4.1-1.2c-1.6,0-2.9,0.4-4.1,1.2s-2.1,1.8-2.9,3.2
						C466.4,801.3,466,802.8,466,804.5z"/>
					<path class="st20" d="M495.3,767.7h7.3v50.7h-7.3V767.7z"/>
					<path class="st20" d="M510.4,781c0-1.1,0.4-2,1.3-2.7s1.9-1.1,2.9-1.1s2,0.4,2.8,1.1c0.8,0.7,1.3,1.6,1.3,2.7
						c0,1.2-0.4,2.1-1.3,2.8c-0.8,0.7-1.8,1.1-2.8,1.1s-2-0.4-2.9-1.1C510.9,783.1,510.4,782.2,510.4,781z M510.8,791h7.3v27.5h-7.3
						V791z"/>
					<path class="st20" d="M549,816c-1.2,1-2.7,1.7-4.5,2.3s-3.5,0.9-5.3,0.9c-3,0-5.7-0.6-8-1.8s-4.1-2.9-5.4-5
						c-1.3-2.1-1.9-4.7-1.9-7.7s0.7-5.6,2-7.7c1.4-2.1,3.2-3.8,5.4-5s4.6-1.8,7.2-1.8c2.3,0,4.3,0.3,6.1,0.9
						c1.8,0.6,3.3,1.5,4.6,2.6l-3.6,4.7c-0.7-0.6-1.5-1.1-2.7-1.6c-1.1-0.5-2.4-0.7-3.8-0.7s-2.8,0.4-4,1.1c-1.2,0.7-2.2,1.7-2.9,3
						s-1,2.7-1,4.4c0,1.6,0.4,3,1.1,4.3c0.7,1.3,1.7,2.3,3,3.1s2.8,1.1,4.5,1.1c1.1,0,2.1-0.2,3.1-0.5s1.7-0.8,2.5-1.3L549,816z"/>
					<path class="st20" d="M554.3,781c0-1.1,0.4-2,1.3-2.7c0.9-0.7,1.9-1.1,2.9-1.1s2,0.4,2.8,1.1c0.8,0.7,1.3,1.6,1.3,2.7
						c0,1.2-0.4,2.1-1.3,2.8c-0.8,0.7-1.8,1.1-2.8,1.1s-2-0.4-2.9-1.1C554.8,783.1,554.3,782.2,554.3,781z M554.7,791h7.3v27.5h-7.3
						V791z"/>
					<path class="st20" d="M572.7,778.9h7.3V791h7.2v5.7H580v21.8h-7.3v-21.8H568V791h4.7V778.9z"/>
					<path class="st20" d="M601.3,819.6c-2.5,0-4.5-0.8-6.2-2.3c-1.6-1.5-2.5-3.5-2.6-5.9V791h7.3v17.8c0.1,1.4,0.5,2.5,1.2,3.4
						s1.8,1.3,3.3,1.4c1.4,0,2.7-0.5,3.8-1.4s2-2.1,2.6-3.7s1-3.3,1-5.3V791h7.3v27.5h-6.6l-0.6-6l0.2,0.9c-0.6,1.3-1.4,2.4-2.4,3.3
						c-1,1-2.3,1.7-3.6,2.2C604.6,819.4,603.1,819.6,601.3,819.6z"/>
					<path class="st20" d="M638.5,819.2c-2.6,0-4.9-0.6-6.9-1.8c-2.1-1.2-3.7-2.9-4.8-5.2c-1.2-2.3-1.8-4.9-1.8-7.9
						c0-3.1,0.6-5.7,1.9-7.9c1.3-2.2,3-3.8,5.2-5c2.2-1.1,4.6-1.7,7.4-1.7c2,0,3.9,0.4,5.7,1.2s3.3,1.9,4.4,3.3l-0.1,2.5v-28.9h7.2
						v50.7h-7.3v-6.2l0.7,1.8c-1.4,1.5-3,2.7-4.9,3.7C643.1,818.7,640.9,819.2,638.5,819.2z M640.8,813c1.5,0,2.8-0.2,3.9-0.7
						c1.1-0.5,2.1-1.2,2.9-2c0.8-0.8,1.4-1.9,1.8-3.2v-5.8c-0.3-1.2-0.9-2.2-1.7-3.1c-0.8-0.9-1.8-1.5-3-2s-2.4-0.7-3.8-0.7
						c-1.5,0-2.9,0.4-4.2,1.1c-1.3,0.7-2.3,1.7-3.1,3s-1.2,2.8-1.2,4.5c0,1.6,0.4,3.1,1.2,4.5c0.8,1.3,1.8,2.4,3.1,3.2
						S639.3,813,640.8,813z"/>
					<path class="st20" d="M695,819.2c-2.6,0-4.9-0.6-6.9-1.8c-2.1-1.2-3.7-2.9-4.8-5.2c-1.2-2.3-1.8-4.9-1.8-7.9
						c0-3.1,0.6-5.7,1.9-7.9c1.3-2.2,3-3.8,5.2-5c2.2-1.1,4.6-1.7,7.4-1.7c2,0,3.9,0.4,5.7,1.2s3.3,1.9,4.4,3.3l-0.1,2.5v-28.9h7.2
						v50.7h-7.3v-6.2l0.7,1.8c-1.4,1.5-3,2.7-4.9,3.7C699.6,818.7,697.5,819.2,695,819.2z M697.3,813c1.5,0,2.8-0.2,3.9-0.7
						c1.1-0.5,2.1-1.2,2.9-2c0.8-0.8,1.4-1.9,1.8-3.2v-5.8c-0.3-1.2-0.9-2.2-1.7-3.1c-0.8-0.9-1.8-1.5-3-2s-2.4-0.7-3.8-0.7
						c-1.5,0-2.9,0.4-4.2,1.1c-1.3,0.7-2.3,1.7-3.1,3s-1.2,2.8-1.2,4.5c0,1.6,0.4,3.1,1.2,4.5c0.8,1.3,1.8,2.4,3.1,3.2
						S695.8,813,697.3,813z"/>
					<path class="st20" d="M734.3,819.2c-3.2,0-5.9-0.6-8.2-1.9c-2.3-1.3-4.1-3-5.3-5.2s-1.8-4.7-1.8-7.6c0-2.7,0.7-5.2,2.1-7.4
						c1.4-2.2,3.3-4,5.6-5.3c2.4-1.3,5-2,7.8-2c3.8,0,6.9,1.1,9.3,3.3c2.4,2.2,4.1,5.3,4.9,9.2l-22.2,7.5l-1.7-4.1l17.3-6.2
						l-1.4,0.8c-0.5-1.3-1.3-2.4-2.3-3.3c-1.1-1-2.6-1.5-4.5-1.5c-1.5,0-2.9,0.4-4,1.1c-1.2,0.7-2.1,1.7-2.8,3s-1,2.8-1,4.5
						c0,1.9,0.4,3.5,1.1,4.8c0.7,1.3,1.7,2.3,3,3.1c1.3,0.7,2.7,1.1,4.3,1.1c1.1,0,2.2-0.2,3.3-0.6c1-0.4,2-0.9,2.9-1.6l3.3,5.4
						c-1.5,0.9-3.1,1.6-4.7,2.2C737.6,818.9,735.9,819.2,734.3,819.2z"/>
					<path class="st20" d="M795.8,816c-1.2,1-2.7,1.7-4.5,2.3s-3.5,0.9-5.3,0.9c-3,0-5.7-0.6-8-1.8s-4.1-2.9-5.4-5
						c-1.3-2.1-1.9-4.7-1.9-7.7s0.7-5.6,2-7.7c1.4-2.1,3.2-3.8,5.4-5s4.6-1.8,7.2-1.8c2.3,0,4.3,0.3,6.1,0.9
						c1.8,0.6,3.3,1.5,4.6,2.6l-3.6,4.7c-0.7-0.6-1.5-1.1-2.7-1.6c-1.1-0.5-2.4-0.7-3.8-0.7s-2.8,0.4-4,1.1c-1.2,0.7-2.2,1.7-2.9,3
						s-1,2.7-1,4.4c0,1.6,0.4,3,1.1,4.3c0.7,1.3,1.7,2.3,3,3.1s2.8,1.1,4.5,1.1c1.1,0,2.1-0.2,3.1-0.5s1.7-0.8,2.5-1.3L795.8,816z"
						/>
					<path class="st20" d="M808,791l0.7,7.8l-0.3-1.2c0.7-1.6,1.8-3,3.2-4.2c1.4-1.1,2.8-2,4.2-2.7c1.4-0.6,2.6-1,3.6-1L819,797
						c-2-0.2-3.8,0.2-5.4,1.1c-1.5,0.9-2.7,2.1-3.6,3.7c-0.8,1.5-1.3,3.2-1.3,4.8v11.8h-7.3V791H808z"/>
					<path class="st20" d="M838,819.2c-3.2,0-5.9-0.6-8.2-1.9c-2.3-1.3-4.1-3-5.3-5.2s-1.8-4.7-1.8-7.6c0-2.7,0.7-5.2,2.1-7.4
						c1.4-2.2,3.3-4,5.6-5.3c2.4-1.3,5-2,7.8-2c3.8,0,6.9,1.1,9.3,3.3c2.4,2.2,4.1,5.3,4.9,9.2l-22.2,7.5l-1.7-4.1l17.3-6.2
						l-1.4,0.8c-0.5-1.3-1.3-2.4-2.3-3.3c-1.1-1-2.6-1.5-4.5-1.5c-1.5,0-2.9,0.4-4,1.1c-1.2,0.7-2.1,1.7-2.8,3s-1,2.8-1,4.5
						c0,1.9,0.4,3.5,1.1,4.8c0.7,1.3,1.7,2.3,3,3.1c1.3,0.7,2.7,1.1,4.3,1.1c1.1,0,2.2-0.2,3.3-0.6c1-0.4,2-0.9,2.9-1.6l3.3,5.4
						c-1.5,0.9-3.1,1.6-4.7,2.2C841.3,818.9,839.6,819.2,838,819.2z M846.2,777.2l-8.8,8.8h-4.6l5.3-8.8H846.2z"/>
					<path class="st20" d="M869.1,819.2c-2.6,0-4.9-0.6-6.9-1.8c-2.1-1.2-3.7-2.9-4.8-5.2c-1.2-2.3-1.8-4.9-1.8-7.9
						c0-3.1,0.6-5.7,1.9-7.9c1.3-2.2,3-3.8,5.2-5c2.2-1.1,4.6-1.7,7.4-1.7c2,0,3.9,0.4,5.7,1.2s3.3,1.9,4.4,3.3l-0.1,2.5v-28.9h7.2
						v50.7H880v-6.2l0.7,1.8c-1.4,1.5-3,2.7-4.9,3.7C873.7,818.7,871.5,819.2,869.1,819.2z M871.3,813c1.5,0,2.8-0.2,3.9-0.7
						c1.1-0.5,2.1-1.2,2.9-2c0.8-0.8,1.4-1.9,1.8-3.2v-5.8c-0.3-1.2-0.9-2.2-1.7-3.1c-0.8-0.9-1.8-1.5-3-2s-2.4-0.7-3.8-0.7
						c-1.5,0-2.9,0.4-4.2,1.1c-1.3,0.7-2.3,1.7-3.1,3s-1.2,2.8-1.2,4.5c0,1.6,0.4,3.1,1.2,4.5c0.8,1.3,1.8,2.4,3.1,3.2
						S869.9,813,871.3,813z"/>
					<path class="st20" d="M895,781c0-1.1,0.4-2,1.3-2.7c0.9-0.7,1.9-1.1,2.9-1.1s2,0.4,2.8,1.1c0.8,0.7,1.3,1.6,1.3,2.7
						c0,1.2-0.4,2.1-1.3,2.8c-0.8,0.7-1.8,1.1-2.8,1.1s-2-0.4-2.9-1.1C895.5,783.1,895,782.2,895,781z M895.3,791h7.3v27.5h-7.3V791
						z"/>
					<path class="st20" d="M913.4,778.9h7.3V791h7.2v5.7h-7.2v21.8h-7.3v-21.8h-4.7V791h4.7V778.9z"/>
					<path class="st20" d="M931,804.4c0-2.8,0.7-5.3,2-7.5s3.2-4,5.5-5.3s5-1.9,8.1-1.9c3,0,5.6,0.6,7.9,1.9c2.3,1.3,4.1,3,5.3,5.2
						c1.3,2.2,1.9,4.7,1.9,7.5s-0.6,5.3-1.9,7.6c-1.3,2.2-3.1,4-5.3,5.3c-2.3,1.3-5,2-8.1,2c-2.9,0-5.6-0.6-7.9-1.8
						c-2.3-1.2-4.1-2.9-5.5-5.1C931.6,810.1,931,807.4,931,804.4z M938.2,804.5c0,1.6,0.4,3.1,1.1,4.5c0.7,1.3,1.7,2.4,2.9,3.1
						c1.2,0.8,2.5,1.1,4.1,1.1s3-0.4,4.2-1.1c1.2-0.8,2.1-1.8,2.8-3.1s1-2.8,1-4.5c0-1.6-0.3-3.1-1-4.4c-0.7-1.3-1.6-2.4-2.8-3.2
						s-2.6-1.2-4.1-1.2c-1.6,0-2.9,0.4-4.1,1.2s-2.1,1.8-2.9,3.2C938.6,801.3,938.2,802.8,938.2,804.5z"/>
					<path class="st20" d="M988.9,818.5v-21.1h-4.7v-6.5h4.7v-10.7c0-3.9,1-6.9,2.9-9c1.9-2.2,4.7-3.3,8.4-3.3c1,0,2.2,0.2,3.4,0.5
						c1.3,0.3,2.3,0.8,3.3,1.4l-3.1,5.3c-0.3-0.5-0.8-0.8-1.3-0.9c-0.5-0.2-1.1-0.2-1.5-0.2c-1.5,0-2.6,0.5-3.5,1.5
						s-1.3,2.6-1.3,4.9V791h8.5v6.5h-8.5v21.1L988.9,818.5L988.9,818.5z"/>
					<path class="st20" d="M1019.5,819.6c-2.5,0-4.5-0.8-6.2-2.3c-1.6-1.5-2.5-3.5-2.6-5.9V791h7.3v17.8c0.1,1.4,0.5,2.5,1.2,3.4
						s1.8,1.3,3.3,1.4c1.4,0,2.7-0.5,3.8-1.4c1.1-0.9,2-2.1,2.6-3.7s1-3.3,1-5.3V791h7.3v27.5h-6.6l-0.6-6l0.2,0.9
						c-0.6,1.3-1.4,2.4-2.4,3.3c-1,1-2.3,1.7-3.6,2.2C1022.8,819.4,1021.3,819.6,1019.5,819.6z"/>
					<path class="st20" d="M1058.5,819.2c-3.2,0-5.9-0.6-8.2-1.9c-2.3-1.3-4.1-3-5.3-5.2c-1.2-2.2-1.8-4.7-1.8-7.6
						c0-2.7,0.7-5.2,2.1-7.4s3.3-4,5.6-5.3c2.4-1.3,5-2,7.8-2c3.8,0,6.9,1.1,9.3,3.3s4.1,5.3,4.9,9.2l-22.2,7.5l-1.7-4.1l17.3-6.2
						l-1.4,0.8c-0.5-1.3-1.3-2.4-2.3-3.3c-1.1-1-2.6-1.5-4.5-1.5c-1.5,0-2.9,0.4-4,1.1c-1.2,0.7-2.1,1.7-2.8,3c-0.7,1.3-1,2.8-1,4.5
						c0,1.9,0.4,3.5,1.1,4.8s1.7,2.3,3,3.1c1.3,0.7,2.7,1.1,4.3,1.1c1.1,0,2.2-0.2,3.3-0.6c1-0.4,2-0.9,2.9-1.6l3.3,5.4
						c-1.5,0.9-3.1,1.6-4.7,2.2C1061.7,818.9,1060.1,819.2,1058.5,819.2z"/>
					<path class="st20" d="M1103.7,791l0.7,7.8l-0.3-1.2c0.7-1.6,1.8-3,3.2-4.2c1.4-1.1,2.8-2,4.2-2.7c1.4-0.6,2.6-1,3.6-1l-0.4,7.3
						c-2-0.2-3.8,0.2-5.4,1.1c-1.5,0.9-2.7,2.1-3.6,3.7c-0.8,1.5-1.3,3.2-1.3,4.8v11.8h-7.3V791H1103.7z"/>
					<path class="st20" d="M1133.8,819.2c-3.2,0-5.9-0.6-8.2-1.9c-2.3-1.3-4.1-3-5.3-5.2c-1.2-2.2-1.8-4.7-1.8-7.6
						c0-2.7,0.7-5.2,2.1-7.4s3.3-4,5.6-5.3c2.4-1.3,5-2,7.8-2c3.8,0,6.9,1.1,9.3,3.3s4.1,5.3,4.9,9.2l-22.2,7.5l-1.7-4.1l17.3-6.2
						l-1.4,0.8c-0.5-1.3-1.3-2.4-2.3-3.3c-1.1-1-2.6-1.5-4.5-1.5c-1.5,0-2.9,0.4-4,1.1c-1.2,0.7-2.1,1.7-2.8,3c-0.7,1.3-1,2.8-1,4.5
						c0,1.9,0.4,3.5,1.1,4.8s1.7,2.3,3,3.1c1.3,0.7,2.7,1.1,4.3,1.1c1.1,0,2.2-0.2,3.3-0.6c1-0.4,2-0.9,2.9-1.6l3.3,5.4
						c-1.5,0.9-3.1,1.6-4.7,2.2C1137,818.9,1135.4,819.2,1133.8,819.2z"/>
					<path class="st20" d="M1176.3,816c-1.2,1-2.7,1.7-4.5,2.3s-3.5,0.9-5.3,0.9c-3,0-5.7-0.6-8-1.8s-4.1-2.9-5.4-5
						s-1.9-4.7-1.9-7.7s0.7-5.6,2-7.7c1.4-2.1,3.2-3.8,5.4-5c2.2-1.2,4.6-1.8,7.2-1.8c2.3,0,4.3,0.3,6.1,0.9
						c1.8,0.6,3.3,1.5,4.6,2.6l-3.6,4.7c-0.7-0.6-1.5-1.1-2.7-1.6c-1.1-0.5-2.4-0.7-3.8-0.7s-2.8,0.4-4,1.1c-1.2,0.7-2.2,1.7-2.9,3
						c-0.7,1.3-1,2.7-1,4.4c0,1.6,0.4,3,1.1,4.3s1.7,2.3,3,3.1s2.8,1.1,4.5,1.1c1.1,0,2.1-0.2,3.1-0.5s1.7-0.8,2.5-1.3L1176.3,816z"
						/>
					<path class="st20" d="M1181.6,781c0-1.1,0.4-2,1.3-2.7s1.9-1.1,2.9-1.1s2,0.4,2.8,1.1c0.8,0.7,1.3,1.6,1.3,2.7
						c0,1.2-0.4,2.1-1.3,2.8c-0.8,0.7-1.8,1.1-2.8,1.1s-2-0.4-2.9-1.1C1182.1,783.1,1181.6,782.2,1181.6,781z M1182,791h7.3v27.5
						h-7.3V791z"/>
					<path class="st20" d="M1214.8,819.2c-2.5,0-4.6-0.5-6.4-1.4c-1.8-1-3.2-2.2-4.3-3.8l0.7-1.9v6.4h-7.3v-50.7h7.3v28.9l-0.2-2.6
						c1.1-1.2,2.7-2.2,4.6-3.1c2-0.8,4.2-1.2,6.6-1.2s4.6,0.6,6.7,1.7c2,1.1,3.6,2.8,4.8,5s1.8,4.7,1.8,7.7c0,3.1-0.7,5.8-2,8
						s-3.1,4-5.3,5.2C1219.7,818.6,1217.3,819.2,1214.8,819.2z M1213.2,813c1.6,0,3.1-0.4,4.4-1.2s2.3-1.8,3.1-3.2
						c0.7-1.3,1.1-2.8,1.1-4.5c0-1.6-0.4-3.1-1.1-4.4c-0.8-1.3-1.8-2.3-3.1-3.1c-1.3-0.8-2.7-1.1-4.3-1.1c-1.3,0-2.6,0.2-3.7,0.7
						s-2.1,1.1-2.9,2c-0.8,0.8-1.4,1.8-1.8,3.1v6c0.4,1.2,1,2.2,1.8,3.1s1.7,1.5,2.9,2C1210.5,812.8,1211.8,813,1213.2,813z"/>
					<path class="st20" d="M1234.6,781c0-1.1,0.4-2,1.3-2.7s1.9-1.1,2.9-1.1s2,0.4,2.8,1.1c0.8,0.7,1.3,1.6,1.3,2.7
						c0,1.2-0.4,2.1-1.3,2.8c-0.8,0.7-1.8,1.1-2.8,1.1s-2-0.4-2.9-1.1C1235.1,783.1,1234.6,782.2,1234.6,781z M1235,791h7.3v27.5
						h-7.3V791z"/>
					<path class="st20" d="M1261.7,819.2c-2.6,0-4.9-0.6-6.9-1.8c-2.1-1.2-3.7-2.9-4.8-5.2c-1.2-2.3-1.8-4.9-1.8-7.9
						c0-3.1,0.6-5.7,1.9-7.9s3-3.8,5.2-5c2.2-1.1,4.6-1.7,7.4-1.7c2,0,3.9,0.4,5.7,1.2c1.8,0.8,3.3,1.9,4.4,3.3l-0.1,2.5v-28.9h7.2
						v50.7h-7.3v-6.2l0.7,1.8c-1.4,1.5-3,2.7-4.9,3.7C1266.4,818.7,1264.2,819.2,1261.7,819.2z M1264,813c1.5,0,2.8-0.2,3.9-0.7
						s2.1-1.2,2.9-2s1.4-1.9,1.8-3.2v-5.8c-0.3-1.2-0.9-2.2-1.7-3.1c-0.8-0.9-1.8-1.5-3-2s-2.4-0.7-3.8-0.7c-1.5,0-2.9,0.4-4.2,1.1
						c-1.3,0.7-2.3,1.7-3.1,3c-0.8,1.3-1.2,2.8-1.2,4.5c0,1.6,0.4,3.1,1.2,4.5c0.8,1.3,1.8,2.4,3.1,3.2S1262.5,813,1264,813z"/>
					<path class="st20" d="M1299.5,819.2c-2.6,0-5-0.5-7.1-1.6s-3.8-2.7-5-4.8s-1.8-4.8-1.8-8c0-3.1,0.6-5.8,1.9-8s3-4,5.1-5.2
						s4.4-1.8,6.9-1.8c2.6,0,4.8,0.5,6.4,1.6s2.9,2.3,3.9,3.7l-0.5,1l0.7-5.1h6.8v27.5h-7.3v-6.7l0.7,1.8c-0.2,0.3-0.5,0.7-1,1.3
						s-1.2,1.2-2.1,1.9s-2,1.3-3.2,1.8C1302.6,818.9,1301.1,819.2,1299.5,819.2z M1301.5,813.2c1.4,0,2.6-0.2,3.7-0.7s2-1.1,2.7-2
						s1.3-1.9,1.6-3.2v-6c-0.3-1.1-0.9-2.1-1.7-3c-0.8-0.8-1.7-1.5-2.8-2c-1.1-0.5-2.3-0.7-3.6-0.7c-1.5,0-2.9,0.4-4.2,1.1
						c-1.3,0.7-2.3,1.8-3,3.1s-1.1,2.8-1.1,4.6c0,1.6,0.4,3.1,1.2,4.5c0.8,1.4,1.8,2.4,3.1,3.2
						C1298.6,812.8,1300,813.2,1301.5,813.2z"/>
					<path class="st20" d="M1366.7,816c-1.2,1-2.7,1.7-4.5,2.3s-3.5,0.9-5.3,0.9c-3,0-5.7-0.6-8-1.8s-4.1-2.9-5.4-5
						s-1.9-4.7-1.9-7.7s0.7-5.6,2-7.7c1.4-2.1,3.2-3.8,5.4-5c2.2-1.2,4.6-1.8,7.2-1.8c2.3,0,4.3,0.3,6.1,0.9
						c1.8,0.6,3.3,1.5,4.6,2.6l-3.6,4.7c-0.7-0.6-1.5-1.1-2.7-1.6c-1.1-0.5-2.4-0.7-3.8-0.7s-2.8,0.4-4,1.1c-1.2,0.7-2.2,1.7-2.9,3
						c-0.7,1.3-1,2.7-1,4.4c0,1.6,0.4,3,1.1,4.3s1.7,2.3,3,3.1s2.8,1.1,4.5,1.1c1.1,0,2.1-0.2,3.1-0.5s1.7-0.8,2.5-1.3L1366.7,816z"
						/>
					<path class="st20" d="M1370.1,804.4c0-2.8,0.7-5.3,2-7.5s3.2-4,5.5-5.3s5-1.9,8.1-1.9c3,0,5.6,0.6,7.9,1.9
						c2.3,1.3,4.1,3,5.3,5.2c1.3,2.2,1.9,4.7,1.9,7.5s-0.6,5.3-1.9,7.6c-1.3,2.2-3.1,4-5.3,5.3c-2.3,1.3-5,2-8.1,2
						c-2.9,0-5.6-0.6-7.9-1.8s-4.1-2.9-5.5-5.1C1370.8,810.1,1370.1,807.4,1370.1,804.4z M1377.4,804.5c0,1.6,0.4,3.1,1.1,4.5
						c0.7,1.3,1.7,2.4,2.9,3.1c1.2,0.8,2.5,1.1,4.1,1.1s3-0.4,4.2-1.1c1.2-0.8,2.1-1.8,2.8-3.1c0.7-1.3,1-2.8,1-4.5
						c0-1.6-0.3-3.1-1-4.4c-0.7-1.3-1.6-2.4-2.8-3.2c-1.2-0.8-2.6-1.2-4.1-1.2c-1.6,0-2.9,0.4-4.1,1.2s-2.1,1.8-2.9,3.2
						C1377.7,801.3,1377.4,802.8,1377.4,804.5z"/>
					<path class="st20" d="M1413.2,791l0.7,5.9l-0.3-0.8c0.9-1.9,2.3-3.4,4.2-4.6c1.9-1.1,4.2-1.7,6.8-1.7c2.6,0,4.7,0.8,6.4,2.3
						c1.7,1.5,2.6,3.5,2.6,5.9v20.5h-7.3v-17.8c0-1.4-0.4-2.5-1.2-3.3c-0.7-0.8-1.9-1.3-3.5-1.3c-1.5,0-2.8,0.4-4,1.3
						c-1.2,0.9-2.1,2.1-2.8,3.6c-0.7,1.5-1,3.3-1,5.4v12.2h-7.3V791H1413.2z"/>
					<path class="st20" d="M1473.9,819.2c-3.2,0-5.9-0.6-8.2-1.9c-2.3-1.3-4.1-3-5.3-5.2c-1.2-2.2-1.8-4.7-1.8-7.6
						c0-2.7,0.7-5.2,2.1-7.4s3.3-4,5.6-5.3c2.4-1.3,5-2,7.8-2c3.8,0,6.9,1.1,9.3,3.3s4.1,5.3,4.9,9.2l-22.2,7.5l-1.7-4.1l17.3-6.2
						l-1.4,0.8c-0.5-1.3-1.3-2.4-2.3-3.3c-1.1-1-2.6-1.5-4.5-1.5c-1.5,0-2.9,0.4-4,1.1c-1.2,0.7-2.1,1.7-2.8,3c-0.7,1.3-1,2.8-1,4.5
						c0,1.9,0.4,3.5,1.1,4.8s1.7,2.3,3,3.1c1.3,0.7,2.7,1.1,4.3,1.1c1.1,0,2.2-0.2,3.3-0.6c1-0.4,2-0.9,2.9-1.6l3.3,5.4
						c-1.5,0.9-3.1,1.6-4.7,2.2C1477.1,818.9,1475.5,819.2,1473.9,819.2z M1482.1,777.2l-8.8,8.8h-4.6l5.3-8.8H1482.1z"/>
					<path class="st20" d="M1519.5,818.5h-8.8l-21.1-27.5h9L1519.5,818.5z M1504.1,808.8l-6.8,9.7h-7.3l10.7-14.5L1504.1,808.8z
						 M1504.9,800.6l6-9.6h7.3l-10.7,14.9L1504.9,800.6z"/>
					<path class="st20" d="M1523.3,781c0-1.1,0.4-2,1.3-2.7s1.9-1.1,2.9-1.1s2,0.4,2.8,1.1c0.8,0.7,1.3,1.6,1.3,2.7
						c0,1.2-0.4,2.1-1.3,2.8c-0.8,0.7-1.8,1.1-2.8,1.1s-2-0.4-2.9-1.1C1523.7,783.1,1523.3,782.2,1523.3,781z M1523.6,791h7.3v27.5
						h-7.3V791z"/>
					<path class="st20" d="M1541.7,778.9h7.3V791h7.2v5.7h-7.2v21.8h-7.3v-21.8h-4.7V791h4.7V778.9z"/>
					<path class="st20" d="M1559.3,804.4c0-2.8,0.7-5.3,2-7.5s3.2-4,5.5-5.3s5-1.9,8.1-1.9c3,0,5.6,0.6,7.9,1.9
						c2.3,1.3,4.1,3,5.3,5.2c1.3,2.2,1.9,4.7,1.9,7.5s-0.6,5.3-1.9,7.6c-1.3,2.2-3.1,4-5.3,5.3c-2.3,1.3-5,2-8.1,2
						c-2.9,0-5.6-0.6-7.9-1.8s-4.1-2.9-5.5-5.1C1559.9,810.1,1559.3,807.4,1559.3,804.4z M1566.5,804.5c0,1.6,0.4,3.1,1.1,4.5
						c0.7,1.3,1.7,2.4,2.9,3.1c1.2,0.8,2.5,1.1,4.1,1.1s3-0.4,4.2-1.1c1.2-0.8,2.1-1.8,2.8-3.1c0.7-1.3,1-2.8,1-4.5
						c0-1.6-0.3-3.1-1-4.4c-0.7-1.3-1.6-2.4-2.8-3.2c-1.2-0.8-2.6-1.2-4.1-1.2c-1.6,0-2.9,0.4-4.1,1.2s-2.1,1.8-2.9,3.2
						C1566.9,801.3,1566.5,802.8,1566.5,804.5z"/>
				</g>
			</g>
		</g>
	</g>
	<g>
		<path class="st21" d="M1105.9,705.2c-62.1-3.6-124.2-8.7-186.3-12.4c-9.2-0.5-18.6-1.1-27.1-4.7c-8-3.4-14.6-9.1-22-13.7
			c-7.3-4.6-16.1-8-24.5-5.8c-8.4,2.1-15.1,11.8-11.4,19.6c-4.4-14-9-28.5-19.2-39s-27.7-15.4-39.6-7.1c-13.4,9.3-13.4,28.7-12,45
			c-4.2-12.2-8.7-24.7-17.3-34.3s-22.7-15.5-34.7-10.9c-8.8,3.4-14.9,11.7-17.8,20.7c-2.9,9-2.9,18.5-2.6,27.9l-0.3,15L1105.9,705.2
			z"/>
		<g>
			<path class="st21" d="M959.4,131c1.6-11.4-14.5-20.8-26.6-21.7c-5.8-0.5-11.7,0.4-17.2-1.5c-11.8-4.1-16.6-19.4-28.1-24.3
				c-8.6-3.6-18.6-0.4-26.9,3.8c-8.4,4.2-16.6,9.5-26,10.1c-8.1,0.5-17-2.5-24.1,1.5c-5.3,3-8.1,9.1-13,12.7
				c-4.8,3.5-11,4.3-16.9,4.6c-5.9,0.3-12.1,0.4-17.5,2.9s-9.9,8.2-8.7,14L959.4,131z"/>
		</g>
		<g>
			<path class="st22" d="M1259.6,53.1c0.8-5.5-7-10.1-12.9-10.5c-2.8-0.2-5.7,0.2-8.3-0.7c-5.7-2-8-9.4-13.6-11.8
				c-4.2-1.8-9-0.2-13,1.8s-8.1,4.6-12.6,4.9c-3.9,0.3-8.2-1.2-11.7,0.7c-2.6,1.4-3.9,4.4-6.3,6.1c-2.3,1.7-5.3,2.1-8.2,2.2
				c-2.9,0.2-5.8,0.2-8.5,1.4c-2.6,1.2-4.8,4-4.2,6.8L1259.6,53.1z"/>
		</g>
		<g>
			<path class="st21" d="M792.1,72c1-7-8.9-12.8-16.4-13.4c-3.5-0.3-7.2,0.3-10.6-0.9c-7.3-2.5-10.2-12-17.3-14.9
				c-5.3-2.2-11.4-0.2-16.6,2.3c-5.2,2.6-10.2,5.9-16,6.2c-5,0.3-10.4-1.5-14.8,0.9c-3.3,1.8-5,5.6-8,7.8c-2.9,2.2-6.8,2.6-10.4,2.8
				s-7.4,0.2-10.8,1.8c-3.3,1.5-6.1,5-5.4,8.6L792.1,72z"/>
		</g>
		<path class="st21" d="M1259.6,175.8L1259.6,175.8c-25.4-41.3-67.7-69.8-115.7-76.2c-18.7-2.5-37.7-2-56.2,1.9
			c-55,11.6-102.9,52.7-122.8,105.4c-11.7,31-14.9,66.6-37.1,91.2C899,330,850,331,807,329.7s-92-0.2-120.7,31.9
			c-18,20.1-23.7,48.7-22.2,75.6c3.8,71.3,54.1,135,118.1,166.7s139.3,34.5,209.3,20.6c98.1-19.5,191.4-73.1,247.4-156
			c53.4-78.9,68.8-185.1,31.4-272.2C1267.2,189.2,1263.6,182.4,1259.6,175.8z"/>
		<g>
			<path class="st23" d="M1316.6,705.7c0,0.2-159.7,0.4-356.6,0.4c-197,0-356.7-0.2-356.7-0.4s159.7-0.4,356.7-0.4
				S1316.6,705.5,1316.6,705.7z"/>
		</g>
		<g>
			<g>
				<path class="st24" d="M620.4,250.2c0,0,129.4,63.7,165.3,76c29.4,10.1,76.6,13.3,105.2,10.2c6.4-0.7,11.8-1.7,16-3
					c22.6-7.2,136.6-30.8,136.6-30.8l136.4-7.4l-3-18.6l-156.4,9.5c0,0-90.4,12.5-103,27.4c0,0-10.7,14.9-29.7,17.4
					s-103-17.7-112.5-27.2s-12-13.9-39.2-20.2c-27.2-6.3-88.5-49.3-88.5-49.3l-30.3,15.2"/>
				<path class="st25" d="M620.4,250.2c0,0,129.4,63.7,165.3,76c29.4,10.1,76.6,13.3,105.2,10.2c6.4-0.7,11.8-1.7,16-3
					c22.6-7.2,136.6-30.8,136.6-30.8l136.4-7.4l-1.2-7.1l-1.9-11.4l-156.4,9.5c0,0-90.4,12.5-103,27.4c0,0-10.7,14.9-29.7,17.4
					s-103-17.7-112.5-27.2s-12-13.9-39.2-20.2c-27.2-6.3-88.5-49.3-88.5-49.3l-30.3,15.2"/>
			</g>
			<g>
				<path class="st26" d="M1149.4,201.9l-178.1,0.8c0,0-5.5,0-12.9-3.4c-6.2-2.9-19.3-10.9-23.3-13.4c-1-0.6-2.2-0.9-3.4-0.7
					c-0.7,0.2-1.3,0.5-1,1.2c0.4,1,11.5,10.5,11.5,10.5l-19.7-6.2c-1.1-0.3-2.3-0.3-3.3,0.4c-0.4,0.3-0.8,0.7-0.7,1.1
					c0.1,0.8,11.9,6.4,11.9,6.4l-14.9-2.6c-1.4-0.2-2.9,0.6-3.1,2.1c0,0.1,0,0.3,0,0.4c0.1,1.4,21.4,8.3,21.4,8.3h-19.6
					c-2.2,0-3.6,2.3-2.6,4.3c1.1,2.2,30.7,3,31,6.3s-8.4,4-11.4,8.5s1.8,6.3,1.8,6.3c3-3.6,14.6-6.6,14.6-6.6l18,1l0,0l168.6,24
					l26-16.5l10-18.1L1149.4,201.9z"/>
				<g>
					<path class="st26" d="M1105.6,201.4l-181.8,36.1c0,0-5.6,1.1-13.9-1c-6.9-1.8-21.9-7.3-26.5-9c-1.2-0.4-2.4-0.5-3.6,0
						c-0.7,0.3-1.2,0.8-0.8,1.5c0.6,0.9,13.9,8.5,13.9,8.5l-21.4-2.4c-1.2-0.1-2.4,0.2-3.3,1c-0.4,0.4-0.7,0.8-0.5,1.3
						c0.3,0.8,13.4,4.2,13.4,4.2l-15.8,0.4c-1.5,0-2.8,1.2-2.8,2.7c0,0.1,0,0.3,0.1,0.4c0.4,1.4,23.5,4.2,23.5,4.2l-20.1,3.9
						c-2.2,0.4-3.2,3.1-1.9,4.9c1.6,2,32-3.1,33,0.3c1,3.3-7.8,5.8-9.9,10.9c-2.1,5.2,3.1,6,3.1,6c2.4-4.3,13.6-9.6,13.6-9.6
						l18.6-2.6l0,0l177.1-8.9l23.3-22l6.6-20.5L1105.6,201.4z"/>
					<g>
						<path class="st27" d="M1040.7,214c0,0-0.4,0.1-1.2,0.3c-0.9,0.2-2,0.4-3.4,0.8c-3.1,0.6-7.3,1.5-12.6,2.6
							c-10.7,2.1-25.3,5-41.5,8.2s-30.8,6.1-41.5,8.2c-5.2,1.1-9.5,1.9-12.6,2.5c-1.4,0.3-2.6,0.5-3.4,0.7c-0.8,0.1-1.2,0.2-1.2,0.2
							s0.4-0.1,1.2-0.3c0.9-0.2,2-0.5,3.4-0.8c2.9-0.7,7.2-1.6,12.5-2.8c10.6-2.3,25.3-5.3,41.5-8.5c16.2-3.1,30.8-5.9,41.6-8
							c5.3-1,9.5-1.8,12.6-2.4c1.4-0.3,2.6-0.5,3.4-0.6C1040.2,214,1040.7,213.9,1040.7,214z"/>
					</g>
				</g>
				<g>
					<g>
						<g>
							<g>
								<path class="st23" d="M1159.5,118.7c-0.5,3.3-2.9,6.2-6.1,7.2c-1.8,0.6-3.8,0.6-5.6,1.2c-1.8,0.7-3.4,2.4-3.1,4.2
									c0.3,1.4,1.6,2.3,2.6,3.3s2,2.4,1.4,3.7c-0.7,1.4-2.7,1.5-3.8,2.7c-1.1,1.2-0.8,3.2,0.2,4.5s2.5,2.1,3.8,3.1
									c1.4,0.9,2.7,2.2,2.9,3.8"/>
							</g>
						</g>
						<g>
							<g>
								<g>
									<path class="st23" d="M1224.2,147.7c4.9-10.1,1.5-22.9-6-31.3c-7.4-8.5-18.2-13.3-29-16.5c-1.6-0.5-3.5-0.8-4.6,0.4
										c-1,1-0.7,2.8,0.2,3.9c0.9,1.1,2.3,1.7,3.6,2.2c-4.4-2.2-9.2-3.8-14.1-4c-1.7,0-3.5,0.1-5,1s-2.5,2.7-2,4.4
										c0.5,1.6,2.8,2.6,4.1,1.4c-4.6-0.5-9.4,0.5-13.4,3c-2.8,1.8-5.4,4.9-4.7,8.1c0.4,1.9,1.8,3.5,2.4,5.3
										c1.1,3.4-0.6,7-1.9,10.3c-2.1,5.2-3.2,10.8-2.4,16.4c0.8,5.5,3.8,10.9,8.6,13.7"/>
								</g>
							</g>
							<g>
								<g>
									<g>
										<path class="st26" d="M1203.5,115.3l-1.6-0.6c-17.3-5.3-35.6,4.8-40.4,22.2l-20.6,67.9l35.9,30.4l11-28.5
											c0,0,17.2,3.5,23.5-12.7c3-7.8,7.9-24.5,12.1-39.6C1228,138.2,1219.3,121.2,1203.5,115.3z"/>
										<g>
											<g>
												<g>
													<g>
														<g>
															<g>
																<g>
																	<g>
																		<g>
																			<path class="st27" d="M1187.9,206.6c0,0-10.6-3-19-13.9c0,0,0.7,13.6,17.5,18.1L1187.9,206.6z"/>
																		</g>
																	</g>
																</g>
															</g>
														</g>
													</g>
												</g>
											</g>
										</g>
									</g>
								</g>
							</g>
							<g>
								<g>
									<g>
										<path class="st23" d="M1185.4,124.5c-1.3-3-3-9.4-5.2-11.7c-2.3-2.3-6-1.6-9.1-0.7c-3.2,0.9-5.9,3.3-7,6.5
											c-4.4,11.7-5,22.9-8.3,34.4c-0.2,0.8-0.4,1.6-0.2,2.3c0.6,2,2.7,2.7,4.8,3c5,0.8,7.6-2.9,10-7.3c0.5-1,1.7-7,1.8-8.1
											c0.8-7.8,5.3-14.7,12.5-18.1L1185.4,124.5z"/>
									</g>
								</g>
							</g>
							<g>
								<g>
									<g>
										<g>
											<g>
												<g>
													<g>
														<g>
															<g>
																<g>
																	<path class="st26" d="M1164.3,146.4c-0.2-0.2-10-7.5-13.7,3.8c-3.8,11.3,8.3,12.7,8.5,12.4
																		C1159.1,162.3,1164.3,146.4,1164.3,146.4z"/>
																</g>
															</g>
														</g>
													</g>
												</g>
											</g>
										</g>
									</g>
								</g>
								<g>
									<g>
										<g>
											<g>
												<g>
													<g>
														<g>
															<g>
																<g>
																	<g>
																		<path class="st27" d="M1157,157.2c0-0.1-0.2,0.1-0.6,0.1s-1,0-1.5-0.5c-1-0.8-1.4-3.1-0.8-5.1
																			c0.3-1,0.9-1.9,1.5-2.6c0.6-0.7,1.3-1.1,2-1c0.6,0.1,0.9,0.6,1,0.9c0,0.4-0.1,0.6,0,0.6c0,0,0.3-0.1,0.4-0.6
																			c0-0.2,0-0.5-0.2-0.9c-0.2-0.3-0.6-0.6-1-0.7c-0.9-0.2-1.9,0.3-2.6,1.1c-0.7,0.7-1.4,1.8-1.7,2.9
																			c-0.7,2.3-0.2,4.8,1.2,5.8c0.7,0.5,1.5,0.5,1.9,0.3C1156.9,157.5,1157,157.3,1157,157.2z"/>
																	</g>
																</g>
															</g>
														</g>
													</g>
												</g>
											</g>
										</g>
									</g>
								</g>
							</g>
							<g>
								<g>
									<path class="st23" d="M1181.1,127c5.6-3.8,11.3-1.8,15.1,0.4c3.8,2.3,7,5.4,11,7.5c3.9,2.1,9.1,2.8,12.6,0.1
										c2.6-2,3.8-5.4,4.1-8.7c0.6-6.3-1.5-12.8-5.6-17.5c-1.1-1.2-2.7-2.5-4.2-1.8c-1.9,0.8-1.6,3.5-1,5.5c0,0-19-7.2-30.6-3.2
										C1170.7,113.3,1181.1,127,1181.1,127z"/>
								</g>
							</g>
							<g>
								<g>
									<g>
										<path class="st28" d="M1188.4,99.6c0.1,0,0.2,0.8,0.8,2.2c0.6,1.4,1.7,3.2,3.6,5.1s4.4,3.8,7.5,5.4
											c1.6,0.8,3.3,1.4,5.2,1.8c1.9,0.4,3.8,0.7,5.9,1.3c2,0.6,4,1.5,5.5,2.8s2.6,3,3.3,4.7c0.7,1.7,0.9,3.5,0.7,5.2
											c-0.2,1.6-0.9,3.1-1.7,4.2c-1.6,2.3-3.7,3.4-5.2,3.8c-0.7,0.2-1.3,0.3-1.7,0.3c-0.4,0-0.6,0-0.6-0.1s0.8-0.1,2.2-0.6
											c1.4-0.5,3.3-1.6,4.7-3.8c0.7-1.1,1.2-2.4,1.4-3.9c0.2-1.5,0-3.1-0.7-4.7c-0.6-1.6-1.7-3.1-3.1-4.3
											c-1.4-1.2-3.2-2-5.1-2.6s-3.9-0.9-5.8-1.3s-3.7-1.1-5.3-1.9c-3.2-1.6-5.8-3.7-7.6-5.7c-1.8-2-3-4-3.4-5.4
											c-0.2-0.7-0.4-1.3-0.4-1.7C1188.4,99.9,1188.4,99.7,1188.4,99.6z"/>
									</g>
								</g>
							</g>
							<g>
								<g>
									<g>
										<path class="st28" d="M1175.8,103c0.1,0,0.3,0.8,0.9,2.3c0.6,1.4,1.8,3.3,3.9,5.2c2,1.9,4.9,3.6,8.4,4.8
											c3.5,1.2,7.5,2,11.7,2.8c4.2,0.9,8.3,1.7,11.7,3.5c1.7,0.9,3.1,2.3,3.8,3.9c0.7,1.6,0.6,3.3,0.2,4.8
											c-0.8,2.9-2.8,4.5-4.1,5.3c-0.7,0.4-1.2,0.7-1.6,0.9s-0.6,0.2-0.6,0.2c0-0.1,0.8-0.4,2-1.3c1.2-0.9,3-2.5,3.6-5.2
											c0.3-1.3,0.3-2.8-0.3-4.3c-0.6-1.4-1.9-2.6-3.5-3.4c-3.2-1.6-7.3-2.4-11.5-3.3c-4.2-0.8-8.3-1.6-11.8-2.9
											s-6.5-3.1-8.5-5.2c-2-2-3.2-4.1-3.7-5.6c-0.3-0.8-0.4-1.4-0.5-1.8C1175.8,103.2,1175.8,103,1175.8,103z"/>
									</g>
								</g>
							</g>
						</g>
					</g>
					<g>
						<g>
							<g>
								<g>
									<g>
										<g>
											<g>
												<g>
													<g>
														<g>
															<g>
																<g>
																	<g>
																		<g>
																			<g>
																				<g>
																					<g>
																						<g>
																							<g>
																								<g>
																									<g>
																										<g>
																											<g>
																												<path class="st23" d="M1216.5,164.6c-0.4,0.2-1.9-1.9-4.6-2.9s-5.2-0.3-5.4-0.8c-0.1-0.2,0.4-0.7,1.5-1
																													s2.8-0.4,4.5,0.2c1.7,0.6,2.9,1.8,3.5,2.7C1216.6,163.8,1216.7,164.5,1216.5,164.6z"/>
																											</g>
																										</g>
																									</g>
																								</g>
																							</g>
																						</g>
																					</g>
																				</g>
																			</g>
																		</g>
																	</g>
																</g>
															</g>
															<g>
																<g>
																	<g>
																		<g>
																			<g>
																				<g>
																					<g>
																						<g>
																							<g>
																								<g>
																									<g>
																										<g>
																											<g>
																												<path class="st23" d="M1190.4,156.6c-0.4,0.2-1.9-1.9-4.6-2.9s-5.2-0.3-5.4-0.8c-0.1-0.2,0.4-0.7,1.5-1
																													s2.8-0.4,4.5,0.2c1.7,0.6,2.9,1.8,3.5,2.7C1190.5,155.8,1190.6,156.5,1190.4,156.6z"/>
																											</g>
																										</g>
																									</g>
																								</g>
																							</g>
																						</g>
																					</g>
																				</g>
																			</g>
																		</g>
																	</g>
																</g>
															</g>
															<g>
																<g>
																	<g>
																		<g>
																			<g>
																				<g>
																					<g>
																						<g>
																							<g>
																								<g>
																									<g>
																										<g>
																											<path class="st23" d="M1193,175.6c0-0.2,1.8,0.2,4.7,0.8c0.7,0.2,1.4,0.3,1.7-0.2
																												c0.3-0.4,0.3-1.3,0.3-2.2c-0.1-1.9-0.1-3.9-0.2-6c-0.2-8.6,0-15.5,0.3-15.5s0.8,7,0.9,15.5
																												c0,2.1,0.1,4.1,0.1,6c0,0.9,0.1,1.9-0.6,2.9c-0.4,0.5-1,0.7-1.5,0.6c-0.5,0-0.9-0.2-1.2-0.3
																												C1194.7,176.4,1193,175.8,1193,175.6z"/>
																										</g>
																									</g>
																								</g>
																							</g>
																						</g>
																					</g>
																				</g>
																			</g>
																		</g>
																	</g>
																</g>
															</g>
															<g>
																<g>
																	<g>
																		<g>
																			<g>
																				<g>
																					<g>
																						<g>
																							<g>
																								<g>
																									<g>
																										<g>
																											<path class="st23" d="M1184.3,174.6c0.5,0.1-0.6,3.1,1.2,6.1c1.8,3,5.1,3.8,4.9,4.2
																												c0,0.2-0.9,0.3-2.3-0.1c-1.3-0.4-3.1-1.5-4.2-3.4c-1.1-1.8-1.1-3.8-0.8-5.1
																												C1183.5,175.1,1184.1,174.5,1184.3,174.6z"/>
																										</g>
																									</g>
																								</g>
																							</g>
																						</g>
																					</g>
																				</g>
																			</g>
																		</g>
																	</g>
																</g>
															</g>
														</g>
													</g>
												</g>
												<g>
													<g>
														<g>
															<g>
																<g>
																	<g>
																		<g>
																			<g>
																				<g>
																					<g>
																						<g>
																							<path class="st23" d="M1194.8,141.3c-0.5,0.6-3.1-0.7-6.5-1.4c-3.3-0.8-6.2-0.8-6.4-1.6
																								c-0.1-0.4,0.6-0.9,1.9-1.3c1.3-0.3,3.2-0.4,5.2,0c2,0.5,3.7,1.4,4.7,2.3
																								C1194.7,140.2,1195.1,141,1194.8,141.3z"/>
																						</g>
																					</g>
																				</g>
																			</g>
																		</g>
																	</g>
																</g>
															</g>
														</g>
													</g>
												</g>
												<g>
													<g>
														<g>
															<g>
																<g>
																	<g>
																		<g>
																			<g>
																				<g>
																					<g>
																						<g>
																							<path class="st23" d="M1219.2,152.6c-0.7,0.5-2.4-0.9-4.6-1.7c-2.2-0.9-4.3-1.1-4.5-1.9
																								c-0.1-0.4,0.4-0.9,1.5-1.2c1-0.3,2.6-0.3,4.1,0.3s2.7,1.6,3.2,2.6C1219.4,151.6,1219.5,152.3,1219.2,152.6z"
																								/>
																						</g>
																					</g>
																				</g>
																			</g>
																		</g>
																	</g>
																</g>
															</g>
														</g>
													</g>
												</g>
											</g>
										</g>
									</g>
								</g>
							</g>
						</g>
					</g>
				</g>
				<g>
					<path class="st19" d="M1180.7,226c0.8,4.5,2.1,35.8-0.3,48.5c-4.3,23.6-36.8,75.5-38.9,79.6c-1.2,2.4-28.2,64.1-28.2,64.1
						s-117.2-36.4-123.1-66.1c0,0,39.6-29.5,49.4-38.5c1.9-1.8,37.8-63.6,37.8-63.6l21.6-37.4c0,0,16.7-16.3,25.4-16.3
						c8.6,0,19,0,19,0L1180.7,226z"/>
					<path class="st29" d="M990.3,352.1c0,0,13.8,1.1,52.3,22.7s48.7,27.9,48.7,27.9l-79-27.7C1012.2,374.9,991.7,362.8,990.3,352.1
						z"/>
					<path class="st19" d="M1122.4,196.2l-21.5,1.9l-61.9,12.7l26.7,49.8l68.3-6.6c0,0,16.5-32.6,10.4-39.7
						C1138.2,207.2,1122.4,196.2,1122.4,196.2z"/>
					<polygon class="st29" points="1071.7,260.1 1118.3,255.3 1118.3,255.3 1062.3,275.8 					"/>
					<g>
						<path class="st23" d="M1131.4,255c0,0.2-12.2,1.6-27.2,3c-15.1,1.4-27.3,2.4-27.3,2.1c0-0.2,12.2-1.6,27.2-3
							C1119.1,255.7,1131.3,254.8,1131.4,255z"/>
					</g>
					<g>
						<path class="st23" d="M1143.4,226.1c-0.2,0-0.3-1.8-1.1-4.6c-0.8-2.8-2.3-6.6-4.9-10.2c-2.6-3.6-5.6-6.3-8-8s-4-2.5-4-2.6
							s0.5,0.1,1.2,0.4c0.8,0.3,1.8,0.9,3.1,1.7c2.5,1.6,5.7,4.3,8.4,8c2.6,3.7,4.1,7.7,4.7,10.6c0.3,1.5,0.5,2.6,0.5,3.5
							C1143.5,225.7,1143.5,226.1,1143.4,226.1z"/>
					</g>
					<g>
						<path class="st23" d="M1052.2,315.4c0-0.1,0.9-0.2,2.4-0.5c1.6-0.2,3.8-0.7,6.6-1.3c2.8-0.6,6-1.5,9.5-2.6
							c3.5-1.2,7.4-2.6,11.3-4.4s7.5-3.8,10.6-5.8s5.9-3.9,8.1-5.6s4-3.2,5.2-4.2s1.9-1.6,1.9-1.5c0,0-0.6,0.7-1.7,1.8
							c-1.1,1.1-2.8,2.6-5,4.4s-4.9,3.8-8.1,5.8s-6.8,4-10.7,5.9c-3.9,1.8-7.8,3.3-11.4,4.4s-6.9,1.9-9.6,2.4
							c-2.8,0.5-5.1,0.9-6.6,1C1053,315.4,1052.2,315.5,1052.2,315.4z"/>
					</g>
					<g>
						<path class="st23" d="M1058.7,304.1c0-0.3,5.8-0.3,12.7-2c6.9-1.6,12.2-4.1,12.3-3.8c0,0.1-1.2,0.8-3.4,1.8
							c-2.1,1-5.2,2.1-8.7,2.9s-6.7,1.2-9.1,1.3C1060.1,304.3,1058.7,304.2,1058.7,304.1z"/>
					</g>
					<g>
						<path class="st23" d="M1124.1,356.9c0,0.1-0.8,0.4-2.2,1.1c-1.5,0.6-3.6,1.5-6.3,2.5c-5.3,1.9-12.9,4.2-21.4,5.8
							c-8.5,1.6-16.4,2.3-22,2.5c-2.8,0.1-5.1,0.1-6.7,0.1s-2.5-0.1-2.5-0.2s0.9-0.1,2.5-0.2c1.6,0,3.9-0.1,6.7-0.3
							c5.6-0.3,13.4-1.1,21.9-2.8c8.5-1.6,16-3.8,21.3-5.6c2.7-0.9,4.8-1.6,6.3-2.2C1123.2,357.1,1124.1,356.9,1124.1,356.9z"/>
					</g>
					<g>
						<path class="st22" d="M1181,270.8l-34.2-11.7c-4.9,19.3-18,35.1-34.6,49.6l42.4,22.9c0,0,13.5-23.6,22.4-44.9
							C1179.3,281.2,1180.3,277.4,1181,270.8z"/>
						<polygon class="st30" points="1154.4,255.3 1151.5,264.5 1156.2,266.7 1158.9,257 						"/>
						<g>
							<path class="st19" d="M1147.3,301.9c2-0.2,4.1-0.3,6.3-0.2l8-16l-9.2-4.6l-2,4l4.3,2.1L1147.3,301.9z"/>
							<path class="st19" d="M1172.5,296.6c0.1,0,0.2,0,0.2,0c0.7-1.9,1.4-3.8,2.2-5.6c-0.7-0.6-1.5-1.1-2.4-1.5
								c-3.8-1.9-7.6-1.9-10.4-0.3l2.4,4.1c1.8-0.9,3.7-0.8,5.5,0.1C1171.8,294.2,1172.6,295.3,1172.5,296.6z"/>
						</g>
						<g>
							<path class="st31" d="M1156.8,300.9c-2.2,0.4-4,0.3-6.2,0.8l-1.3,2.6l4.9,2.5l3-6C1157.1,300.8,1156.9,300.8,1156.8,300.9z"
								/>
							<path class="st24" d="M1170,302.2h-0.3l-10.4,3.1l-1.6,3.2l7.2,3.6c0.1-0.2,0.1-0.4,0.2-0.7c0.5-1.2,1.2-2.2,1.9-3.3
								l-0.3-0.2l0.6-0.2L1170,302.2z"/>
						</g>
						<g>
							<path class="st23" d="M1167,298.7c0,0.1-0.5,0.2-1.4,0.5s-2.2,0.6-3.8,1c-3.2,0.8-7.8,1.6-12.8,2.1c-5.1,0.5-9.7,0.6-13,0.6
								c-1.7,0-3-0.1-3.9-0.2s-1.4-0.1-1.4-0.2s2.1-0.1,5.4-0.2s7.9-0.3,12.9-0.8s9.6-1.3,12.8-1.8C1165,299,1167,298.5,1167,298.7z
								"/>
						</g>
					</g>
				</g>
				<g>
					<g>
						<path class="st26" d="M1086.5,410.7c-0.9,2.7-71.4,108.5-131.9,130.1l-26.2-4.1l-139.1-41.1l15.4-38.8l0,0l130.1,28l59.8-67.7
							l18.1-46.7L1086.5,410.7z"/>
						<polygon class="st32" points="797.5,498.1 855.4,515.2 869.1,470.7 805.3,455.6 						"/>
						<g>
							<g>
								<g>
									<g>
										<g>
											<g>
												<path class="st33" d="M799.7,497.6l-1.1,0.2c0,0-33.9,35.6-41.9,32.8l35.1-81.9l21.5,9.1l-2,2.7
													C803.4,471.3,800.1,484.2,799.7,497.6z"/>
											</g>
										</g>
									</g>
									<g class="st34">
										<g>
											<g>
												<g>
													<path class="st20" d="M805.3,465.5c0.2-1.8-1.1-3.6-2.8-3.9c-1.8-0.3-3.7,1-3.9,2.8c-0.3,1.8,1.2,4,3,4.2
														c1.8,0.1,3.9-1.6,3.8-3.3"/>
												</g>
											</g>
										</g>
									</g>
									<g class="st34">
										<g>
											<g>
												<path class="st20" d="M791.9,448.7l6.5,3.1l-36.1,77.4c0,0-3.1,3-5.5,1.5L791.9,448.7z"/>
											</g>
										</g>
									</g>
									<g>
										<g>
											<g>
												<g>
													<path class="st23" d="M798.5,499.3c-0.4-0.2,0.3-2.3-0.2-4.8c-0.4-2.5-1.7-4.3-1.4-4.6c0.2-0.3,2.4,1.3,2.9,4.3
														C800.4,497.4,798.9,499.6,798.5,499.3z"/>
												</g>
											</g>
										</g>
									</g>
									<g>
										<g>
											<g>
												<g>
													<path class="st23" d="M791.3,506.4c-0.4-0.1-0.4-2.1-1.5-4.2c-1-2.1-2.7-3.2-2.5-3.6c0.1-0.4,2.6,0.3,3.9,2.9
														C792.5,504.1,791.7,506.5,791.3,506.4z"/>
												</g>
											</g>
										</g>
									</g>
									<g>
										<g>
											<g>
												<g>
													<path class="st23" d="M778.9,506.9c0.1-0.4,2.3-0.1,4.1,1.9s1.8,4.2,1.4,4.2c-0.4,0.1-1.1-1.6-2.5-3.2
														C780.4,508.1,778.8,507.3,778.9,506.9z"/>
												</g>
											</g>
										</g>
									</g>
								</g>
								<g>
									<g>
										<g>
											<g>
												<path class="st23" d="M799.1,498.5c-0.2-0.1,0.3-1.8,1.8-4.1c0.8-1.2,1.8-2.5,3.2-3.7c0.7-0.6,1.4-1.2,2.3-1.8
													c0.4-0.3,0.8-0.6,1.5-0.8c0.6-0.3,1.8-0.1,2.2,0.7c0.4,0.7,0.4,1.5,0.2,2.1s-0.6,1-0.9,1.4c-0.6,0.8-1.3,1.5-2,2.2
													c-1.4,1.3-2.8,2.1-4.1,2.7c-2.6,1.1-4.3,1.2-4.4,1c-0.1-0.2,1.6-0.6,3.9-1.9c1.1-0.7,2.4-1.6,3.6-2.8
													c0.6-0.6,1.2-1.3,1.7-2c0.6-0.8,0.9-1.5,0.6-1.9c-0.1-0.1-0.2-0.2-0.5-0.1s-0.7,0.3-1.1,0.6c-0.8,0.5-1.5,1.1-2.2,1.6
													c-1.3,1.1-2.4,2.3-3.2,3.3C800.1,497.1,799.4,498.6,799.1,498.5z"/>
											</g>
										</g>
									</g>
								</g>
								<g>
									<g>
										<g>
											<g>
												<path class="st23" d="M798.8,497.8c0-0.2,1.8-0.3,4.4,0.6c1.3,0.5,2.8,1.3,4.3,2.5c0.7,0.6,1.4,1.3,2,2.1
													c0.6,0.8,1.4,1.9,1,3.5c-0.3,0.8-1.2,1.2-1.9,1.2s-1.2-0.1-1.7-0.2c-1-0.3-2-0.7-2.8-1.2c-1.6-1-2.8-2.3-3.5-3.6
													c-1.4-2.5-1.2-4.4-1-4.4c0.3,0,0.4,1.7,1.9,3.8c0.7,1,1.8,2.1,3.3,2.9c0.7,0.4,1.5,0.7,2.4,0.9c0.9,0.2,1.8,0.2,1.8-0.1
													c0.2-0.4-0.2-1.4-0.7-2c-0.6-0.7-1.2-1.4-1.8-2c-1.3-1.1-2.6-2-3.8-2.5C800.4,498.2,798.8,498,798.8,497.8z"/>
											</g>
										</g>
									</g>
								</g>
							</g>
						</g>
						<g>
							<path class="st35" d="M862.2,470.3c0.1,0-0.1,0.6-0.4,1.7c-0.4,1.2-0.8,2.7-1.3,4.5c-1.2,4-2.7,9.1-4.4,14.8
								c-1.7,5.7-3.2,10.8-4.4,14.8c-0.5,1.7-1,3.2-1.4,4.5c-0.3,1.1-0.6,1.6-0.6,1.6c-0.1,0,0.1-0.6,0.3-1.7s0.6-2.6,1.1-4.5
								c1-3.8,2.4-9.1,4.2-14.9c1.7-5.8,3.4-11,4.7-14.7c0.6-1.9,1.2-3.4,1.6-4.4C861.9,470.8,862.1,470.2,862.2,470.3z"/>
						</g>
						<g>
							<path class="st35" d="M856.8,470.3c0.1,0-0.1,0.6-0.4,1.7c-0.4,1.2-0.8,2.7-1.3,4.5c-1.2,4-2.7,9.1-4.4,14.8
								c-1.7,5.7-3.2,10.8-4.4,14.8c-0.5,1.7-1,3.2-1.4,4.5c-0.3,1.1-0.6,1.6-0.6,1.6c-0.1,0,0.1-0.6,0.3-1.7s0.6-2.6,1.1-4.5
								c1-3.8,2.4-9.1,4.2-14.9c1.7-5.8,3.4-11,4.7-14.7c0.6-1.9,1.2-3.4,1.6-4.4C856.5,470.8,856.8,470.2,856.8,470.3z"/>
						</g>
					</g>
					<g>
						<path class="st26" d="M1097.6,406.7c2.7,1.8,95.6,96.1,97.4,103.4c1.8,7.2,34.3,151.8,34.3,151.8l-31.6,9
							c0,0-44.3-86.7-44.3-89.4s-15-42.6-15-42.6l-56.4-49.5l-58.7-53.3L1097.6,406.7z"/>
						<g>
							<polygon class="st32" points="1240.1,672.3 1220.2,615.3 1176,630.2 1201,690.8 							"/>
							<g>
								<g>
									<g>
										<g>
											<g>
												<g>
													<g>
														<path class="st33" d="M1238.4,670.8l0.8,0.8c0,0,48.7,6.7,51,14.9l-87,19.3l-5.2-22.7h3.4
															C1214.9,683.1,1227.3,678.3,1238.4,670.8z"/>
													</g>
												</g>
											</g>
										</g>
										<g class="st34">
											<g>
												<g>
													<g>
														<path class="st20" d="M1209.1,685c-1.6,0.8-2.3,3-1.6,4.6c0.8,1.6,2.9,2.4,4.5,1.6c1.6-0.8,2.6-3.4,1.6-4.9
															c-0.9-1.5-3.6-2.3-4.9-1.1"/>
													</g>
												</g>
											</g>
										</g>
										<g class="st34">
											<g>
												<g>
													<path class="st20" d="M1203.2,705.7l-1.3-7.1l83.9-15.8c0,0,4.2,0.8,4.4,3.7L1203.2,705.7z"/>
												</g>
											</g>
										</g>
										<g>
											<g>
												<g>
													<g>
														<path class="st23" d="M1240.5,670.8c0.1,0.4-2,1.1-3.8,2.9c-1.8,1.8-2.5,3.9-2.9,3.8c-0.4,0-0.3-2.7,1.9-4.9
															C1237.8,670.4,1240.5,670.4,1240.5,670.8z"/>
													</g>
												</g>
											</g>
										</g>
										<g>
											<g>
												<g>
													<g>
														<path class="st23" d="M1250.4,672.5c0.2,0.4-1.5,1.5-2.5,3.6c-1.1,2.1-1,4.1-1.5,4.2c-0.4,0.2-1.2-2.3,0.1-4.9
															C1247.9,672.8,1250.3,672.1,1250.4,672.5z"/>
													</g>
												</g>
											</g>
										</g>
										<g>
											<g>
												<g>
													<g>
														<path class="st23" d="M1258,682.3c-0.4,0.2-1.4-1.8-0.9-4.4c0.6-2.6,2.4-3.9,2.6-3.6c0.3,0.3-0.7,1.8-1.1,3.9
															C1258.2,680.3,1258.4,682.1,1258,682.3z"/>
													</g>
												</g>
											</g>
										</g>
									</g>
									<g>
										<g>
											<g>
												<g>
													<path class="st23" d="M1239.5,670.7c0,0.2-1.6,0.8-4.4,0.9c-1.4,0.1-3.1,0-4.9-0.4c-0.9-0.2-1.8-0.4-2.8-0.8
														c-0.5-0.2-1-0.3-1.5-0.7c-0.6-0.3-1.1-1.4-0.7-2.2c0.3-0.8,1-1.2,1.6-1.4s1.2-0.1,1.7-0.1c1,0,2,0.1,2.9,0.3
														c1.8,0.4,3.4,1,4.6,1.7c2.4,1.4,3.5,2.9,3.3,3c-0.2,0.2-1.4-0.9-3.8-2c-1.2-0.5-2.7-1-4.4-1.3
														c-0.8-0.1-1.7-0.2-2.7-0.2s-1.8,0.1-1.9,0.6c-0.1,0.2,0,0.2,0.2,0.5c0.3,0.2,0.7,0.4,1.1,0.5c0.9,0.3,1.8,0.6,2.6,0.8
														c1.7,0.4,3.2,0.6,4.6,0.7C1237.8,670.7,1239.4,670.5,1239.5,670.7z"/>
												</g>
											</g>
										</g>
									</g>
									<g>
										<g>
											<g>
												<g>
													<path class="st23" d="M1239.1,671.5c-0.1,0.1-1.3-1.2-2.1-4c-0.4-1.3-0.6-3-0.5-4.9c0.1-0.9,0.2-1.9,0.5-2.9
														s0.7-2.3,2.3-2.8c0.9-0.2,1.7,0.3,2.1,0.8s0.6,1,0.8,1.5c0.4,1,0.6,2,0.7,2.9c0.1,1.9-0.3,3.6-0.9,4.9
														c-1.2,2.6-2.9,3.5-2.9,3.4c-0.2-0.2,1.1-1.3,1.9-3.8c0.4-1.2,0.7-2.7,0.5-4.4c-0.1-0.8-0.3-1.7-0.6-2.5
														c-0.3-0.9-0.9-1.6-1.2-1.4c-0.4,0.1-1,0.9-1.2,1.8c-0.3,0.9-0.5,1.8-0.6,2.6c-0.2,1.7-0.1,3.3,0.1,4.5
														C1238.5,669.9,1239.3,671.3,1239.1,671.5z"/>
												</g>
											</g>
										</g>
									</g>
								</g>
							</g>
							<g>
								<path class="st35" d="M1179.7,636c0-0.1,0.5-0.3,1.6-0.7c1.2-0.4,2.7-0.9,4.4-1.6c3.9-1.3,9-3.1,14.6-5s10.6-3.7,14.6-5
									c1.7-0.6,3.2-1.1,4.4-1.5c1.1-0.3,1.6-0.5,1.7-0.4c0,0.1-0.5,0.3-1.5,0.8c-1,0.4-2.5,1-4.3,1.7c-3.7,1.4-8.8,3.3-14.5,5.3
									s-10.9,3.6-14.7,4.8c-1.9,0.6-3.4,1-4.5,1.3C1180.3,636,1179.7,636.1,1179.7,636z"/>
							</g>
							<g>
								<path class="st35" d="M1182.8,640.4c0-0.1,0.5-0.3,1.6-0.7c1.2-0.4,2.7-0.9,4.4-1.6c3.9-1.3,9-3.1,14.6-5s10.6-3.7,14.6-5
									c1.7-0.6,3.2-1.1,4.4-1.5c1.1-0.3,1.6-0.5,1.7-0.4c0,0.1-0.5,0.3-1.5,0.8c-1,0.4-2.5,1-4.3,1.7c-3.7,1.4-8.8,3.3-14.5,5.3
									s-10.9,3.6-14.7,4.8c-1.9,0.6-3.4,1-4.5,1.3C1183.5,640.3,1182.9,640.4,1182.8,640.4z"/>
							</g>
						</g>
					</g>
					<g>
						<path class="st36" d="M1012.7,370.4c0,0-49.6,62.3-61.5,67.2c-3.8,1.6,9.8,17.5,9.8,17.5l6.7-7.6c21.4,11.3,38,26,55.1,46.8
							l29.6-27.8l24.9,32.9l70.8-43.8l-34.8-37.4c0,0-46.9-42.2-89.1-53.5C1024.2,364.6,1019.3,364.6,1012.7,370.4z"/>
						<g>
							<path class="st28" d="M1088.7,426.5c0,0-0.2,0.3-0.6,0.8c-0.5,0.6-1.1,1.3-1.8,2.1c-1.6,1.8-3.8,4.4-6.7,7.6
								c-5.7,6.4-13.6,15.1-22.7,24.6c-9,9.5-17.4,17.8-23.7,23.6c-3.2,2.9-5.7,5.2-7.6,6.7c-0.9,0.7-1.6,1.3-2.1,1.8
								c-0.5,0.4-0.8,0.6-0.8,0.6s0.2-0.3,0.7-0.7c0.5-0.5,1.2-1.1,2-1.9c1.8-1.6,4.3-4,7.4-6.9c6.2-5.9,14.5-14.3,23.5-23.8
								c9-9.4,17-18.1,22.8-24.4c2.8-3.1,5.2-5.6,6.9-7.4c0.8-0.8,1.4-1.5,1.9-2C1088.4,426.7,1088.6,426.5,1088.7,426.5z"/>
						</g>
						<g>
							<path class="st28" d="M1023.4,493.3c0,0-0.3-0.2-0.7-0.6c-0.5-0.5-1.1-1.2-1.8-1.9c-1.6-1.7-3.8-4.1-6.7-7.1
								s-6.4-6.3-10.5-10c-4.1-3.6-8.7-7.5-13.7-11.3s-10-7.2-14.6-10.1s-8.8-5.4-12.5-7.4c-3.6-2-6.6-3.5-8.6-4.6
								c-1-0.5-1.7-0.9-2.4-1.2c-0.5-0.3-0.8-0.5-0.8-0.5s0.3,0.1,0.9,0.3c0.6,0.3,1.5,0.6,2.4,1.1c2.1,0.9,5.1,2.4,8.8,4.3
								s8,4.4,12.6,7.3s9.6,6.3,14.7,10.1c5,3.8,9.6,7.7,13.7,11.4c4,3.7,7.6,7.1,10.4,10.2c2.9,3,5.1,5.5,6.6,7.3
								c0.7,0.8,1.2,1.5,1.7,2.1C1023.3,493,1023.4,493.3,1023.4,493.3z"/>
						</g>
						<g>
							<path class="st35" d="M1050.7,373.3c0,0-0.2,0.3-0.7,0.9s-1.2,1.4-2,2.4c-1.8,2.1-4.3,5-7.4,8.6
								c-6.3,7.3-14.8,17.4-24.1,28.8c-9.2,11.4-17.4,21.9-23.3,29.5c-2.9,3.8-5.2,6.8-6.9,9c-0.8,1-1.4,1.8-1.9,2.4
								c-0.4,0.6-0.7,0.8-0.7,0.8s0.2-0.3,0.6-0.9c0.5-0.7,1-1.5,1.8-2.5c1.6-2.2,3.8-5.3,6.7-9.2c5.7-7.7,13.8-18.3,23.1-29.7
								c9.3-11.4,17.9-21.5,24.3-28.7c3.2-3.6,5.8-6.5,7.6-8.5c0.9-0.9,1.6-1.7,2.1-2.3C1050.4,373.5,1050.7,373.3,1050.7,373.3z"/>
						</g>
						<g>
							<path class="st35" d="M1045.3,373c0,0-0.2,0.3-0.7,0.8c-0.5,0.6-1.2,1.3-2,2.3c-1.8,2-4.4,4.8-7.5,8.3
								c-6.3,7-15,16.7-24.3,27.7c-9.3,10.9-17.6,21-23.5,28.3c-2.9,3.6-5.3,6.6-7,8.7c-0.8,1-1.4,1.7-1.9,2.3
								c-0.4,0.5-0.7,0.8-0.7,0.8s0.2-0.3,0.6-0.9c0.5-0.6,1.1-1.4,1.8-2.4c1.6-2.1,3.9-5.1,6.8-8.9c5.8-7.4,14-17.6,23.4-28.5
								s18.1-20.6,24.5-27.5c3.2-3.4,5.8-6.2,7.7-8.1c0.9-0.9,1.6-1.6,2.1-2.2C1045,373.2,1045.3,373,1045.3,373z"/>
						</g>
						<g>
							<path class="st28" d="M1101.4,482.3c-0.2,0.1-6.4-8.2-13.8-18.7c-7.4-10.4-13.3-19-13.1-19.2c0.2-0.1,6.4,8.2,13.8,18.7
								C1095.7,473.6,1101.6,482.2,1101.4,482.3z"/>
						</g>
					</g>
				</g>
			</g>
			<g>
				<g>
					<g>
						<path class="st24" d="M1185.2,300.4c-0.2,1.9-3.4,6.4-7.5,8.8c-4,2.3-5.4,3.4-13.9,7.5c-9.1,4.4-80.3,29.9-80.3,29.9l6.3-14
							l-1.5-9.1c19.6-4.3,73.4-20.3,87.3-29.6c2.9-1.9,4.8-6.1,2.2-9l0.3-1c0,0,1.3-0.3,5.5,6.9
							C1185.7,294.5,1185.4,298.1,1185.2,300.4z"/>
					</g>
					<g>
						<path class="st36" d="M1185.2,300.4c-0.2,1.9-3.4,6.4-7.5,8.8c-4,2.3-5.4,3.4-13.9,7.5c-9.1,4.4-80.3,29.9-80.3,29.9l6.3-14
							l-1.5-9.1c19.6-4.3,73.4-20.3,87.3-29.6c2.9-1.9,4.8-6.1,2.2-9l0.3-1c0,0,1.3-0.3,5.5,6.9
							C1185.7,294.5,1185.4,298.1,1185.2,300.4z"/>
					</g>
				</g>
				<g>
					<g>
						<path class="st24" d="M979.7,333.2l69-8.5l8.4,4.6L1041,348c0,0-87.3,7.3-108.3,19.8c-20.1,12-25.7,42.1-57.6,45
							c-31.9,3-112.3-30.5-128.3-23l-9.5-25c0,0,48,0.9,83.5,13.7c35.5,12.8,46.7,15.7,64.8,0s33.6-30.7,65.1-38.2
							C970,335.8,979.7,333.2,979.7,333.2z"/>
					</g>
					<g>
						<path class="st36" d="M979.7,333.2l69-8.5l8.4,4.6L1041,348c0,0-87.3,7.3-108.3,19.8c-20.1,12-25.7,42.1-57.6,45
							c-31.9,3-112.3-30.5-128.3-23l-9.5-25c0,0,48,0.9,83.5,13.7c35.5,12.8,46.7,15.7,64.8,0s33.6-30.7,65.1-38.2
							C970,335.8,979.7,333.2,979.7,333.2z"/>
					</g>
				</g>
			</g>
		</g>
		<g>
			<g>
				<g>
					<path class="st28" d="M919.3,170.4c0,0.2-26.5,0.4-59.2,0.4s-59.2-0.2-59.2-0.4s26.5-0.4,59.2-0.4
						C892.7,170,919.3,170.2,919.3,170.4z"/>
				</g>
				<g>
					<path class="st28" d="M842.7,198.7c0,0.2-12.9,0.4-28.9,0.4s-28.9-0.2-28.9-0.4s12.9-0.4,28.9-0.4
						C829.8,198.2,842.7,198.4,842.7,198.7z"/>
				</g>
				<g>
					<path class="st28" d="M881.7,185c0,0.2-53.1,0.4-118.5,0.4c-65.5,0-118.5-0.2-118.5-0.4s53.1-0.4,118.5-0.4
						C828.7,184.5,881.7,184.7,881.7,185z"/>
				</g>
			</g>
			<g>
				<g>
					<path class="st28" d="M1093.5,586.1c0,0.2-26.5,0.4-59.2,0.4c-32.7,0-59.2-0.2-59.2-0.4s26.5-0.4,59.2-0.4
						C1067,585.7,1093.5,585.8,1093.5,586.1z"/>
				</g>
				<g>
					<path class="st28" d="M1056,600.6c0,0.2-53.1,0.4-118.5,0.4c-65.5,0-118.5-0.2-118.5-0.4s53.1-0.4,118.5-0.4
						C1002.9,600.2,1056,600.4,1056,600.6z"/>
				</g>
			</g>
		</g>
		<g>
			<g>
				<g>
					<g>
						<path class="st25" d="M673.8,676.1c1.1-4.1-1.6-8.3-4.7-11.3c-3-3-6.7-5.7-8.3-9.7c-2.6-6.4,0.9-14.8-3.5-20.1
							c-2.6-3.2-7.2-4.2-9.5-7.6c-1.2-1.8-1.6-3.9-2.1-6c-2.4-10.6-7.7-20.6-15.2-28.5c-0.5,9.5,1.6,19.1,6,27.5
							c1.8,3.4,3.9,6.7,4.5,10.4c1,6.1-2.5,12.4-1,18.4c1.7,6.9,9.4,11.5,9.8,18.5c0.3,6-4.9,11.2-4.5,17.2c0.2,2.5,1.3,4.9,2.7,7.1
							c4.6,7.7,11.4,13,21.7,12.8l12.6,0.4L673.8,676.1z"/>
					</g>
				</g>
			</g>
			<g>
				<g>
					<g>
						<g>
							<g>
								<g>
									<path class="st23" d="M685,705.6c0,0,1.2,0.3,3.5-0.1c1.1-0.2,2.5-0.5,4.1-1c1.6-0.6,3.4-1.4,5.1-2.8
										c0.8-0.7,1.6-1.6,2.1-2.8c0.4-1.2,0.5-2.4,0.6-3.8c0.1-1.3,0.1-2.7,0.3-4.1c0.2-1.4,0.8-2.8,1.5-4.1c1.5-2.6,4-5.1,4.8-8.6
										c0.9-3.5,0.2-7.3-0.3-11c-0.6-3.8-1.2-7.9,0.3-11.8c1.4-3.9,4.1-7.5,5.5-11.9c1.4-4.5,0.7-9.3,1-14.1
										c0.1-2.4,0.6-4.8,1.6-7s2.4-4.3,3.5-6.7c2.2-4.7,2.6-10.1,3.2-15.4c0.3-2.7,0.6-5.3,0.9-8.1c0.3-2.7,0.5-5.4,1.4-8.1
										c0.8-2.6,1.9-5.2,3-7.8c0.5-1.3,1.1-2.6,1.5-4.1c0.2-1.5,0.3-2.9,0.4-4.3c0.1-2.9,0-5.8-0.3-8.7s-0.9-5.8-1.2-8.7
										c0-0.2,0-0.3-0.1-0.5l-0.1-0.6l-0.5,0.3c-2.7,1.4-5,3.4-6.8,5.7s-3.1,5-4.2,7.7c-2.1,5.4-2.9,11.1-3.9,16.5
										s-2.4,10.7-5.2,15.2c-1.4,2.2-3.1,4.3-4.5,6.5c-1.5,2.2-2.7,4.6-3.1,7.2c-0.7,5.3,2.2,10,1.6,14.7
										c-0.2,2.3-1.2,4.5-2.3,6.5s-2.5,3.9-3.8,5.8c-1.3,1.9-2.5,3.8-3.4,5.8s-1.4,4.2-1.5,6.3c-0.3,4.3,0.3,8.3,0,12.1
										s-1.6,7.3-3.1,10.4c-1.5,3.1-3.2,5.9-4.6,8.6c-0.7,1.4-1.4,2.7-1.9,4c-0.6,1.3-0.8,2.7-1.1,4c-0.4,2.6-0.4,5-0.1,7.2
										c0.5,4.3,2.2,7.4,3.6,9.2c0.3,0.5,0.7,0.8,1,1.1s0.6,0.5,0.8,0.7C684.7,705.4,685,705.6,685,705.6c0.1-0.1-1-0.6-2.4-2.4
										c-1.4-1.8-2.9-4.8-3.4-9.1c-0.3-2.1-0.3-4.5,0.2-7.1c0.3-1.3,0.6-2.6,1.1-3.9c0.5-1.3,1.2-2.6,1.9-4
										c1.4-2.7,3.1-5.5,4.7-8.6c1.5-3.1,2.9-6.6,3.2-10.5s-0.3-7.9,0.1-12.1c0.1-2.1,0.6-4.1,1.5-6.1s2.1-3.8,3.3-5.7
										c1.3-1.9,2.6-3.7,3.8-5.8c1.2-2,2.2-4.3,2.4-6.8c0.6-5-2.3-9.7-1.6-14.7c0.4-2.5,1.6-4.7,3-6.9c1.4-2.1,3.1-4.2,4.5-6.5
										c2.9-4.6,4.3-10.1,5.3-15.5c1.1-5.4,1.8-11.1,3.9-16.4c1-2.6,2.3-5.2,4.1-7.5c1.7-2.3,3.9-4.2,6.5-5.5l-0.6-0.3
										c0,0.2,0,0.3,0.1,0.5c0.3,2.9,0.8,5.8,1.2,8.7s0.5,5.7,0.3,8.6c-0.1,1.4-0.2,2.9-0.4,4.2c-0.3,1.3-0.9,2.6-1.4,3.9
										c-1.1,2.6-2.2,5.2-3,7.9c-0.9,2.7-1.1,5.5-1.4,8.2c-0.3,2.7-0.6,5.4-0.9,8.1c-0.6,5.3-1,10.6-3.2,15.2
										c-1.1,2.3-2.5,4.4-3.5,6.7c-1.1,2.3-1.6,4.8-1.7,7.3c-0.3,4.9,0.4,9.6-1,13.9c-1.3,4.3-4.1,7.9-5.4,11.9
										c-1.5,4.1-0.9,8.4-0.3,12.1c0.6,3.8,1.2,7.5,0.4,10.8c-0.7,3.4-3.1,5.8-4.6,8.5c-0.8,1.3-1.4,2.8-1.6,4.2
										c-0.2,1.4-0.2,2.8-0.3,4.1s-0.1,2.6-0.5,3.7c-0.4,1.1-1.2,1.9-2,2.7c-1.6,1.4-3.4,2.2-4.9,2.8c-1.6,0.6-2.9,0.9-4,1.1
										c-1.1,0.2-2,0.2-2.6,0.2C685.3,705.6,685,705.6,685,705.6z"/>
								</g>
							</g>
						</g>
					</g>
					<g>
						<g>
							<g>
								<g>
									<path class="st23" d="M724.8,557.1c0,0-0.1,0.1-0.1,0.4c-0.1,0.3-0.2,0.7-0.3,1.1c-0.2,1-0.5,2.5-1,4.4s-1.6,4-2.6,6.6
										s-2,5.6-3,8.9c-1,3.4-1.8,7.1-2.7,11.1s-1.8,8.3-4,12.3c-1,2-2.2,4.1-3.1,6.4c-0.9,2.3-1.5,4.7-1.8,7.2
										c-0.6,5-1.5,10.1-2.7,15.2c-2.5,10.3-4.9,20.2-7.1,29.1c-2.2,8.9-4.3,17-6,23.8c-1.7,6.7-3,12.2-4,16
										c-0.4,1.8-0.8,3.3-1,4.4c-0.1,0.5-0.2,0.8-0.2,1.1c-0.1,0.3-0.1,0.4-0.1,0.4s0.1-0.1,0.1-0.4c0.1-0.3,0.2-0.7,0.3-1.1
										c0.3-1.1,0.7-2.5,1.2-4.3c1-3.8,2.4-9.3,4.2-16c1.8-6.8,3.8-14.8,6.1-23.7c2.2-9,4.6-18.8,7.2-29.1
										c1.2-5.2,2.1-10.3,2.7-15.3c0.4-2.5,0.8-4.9,1.7-7.1c0.9-2.2,2-4.3,3.1-6.3c2.2-4.1,3.1-8.5,4-12.5s1.7-7.7,2.6-11.1
										c0.9-3.4,1.9-6.3,2.9-8.9c0.9-2.6,2-4.7,2.5-6.7c0.4-1.9,0.7-3.4,0.9-4.4c0.1-0.5,0.1-0.8,0.2-1.2
										C724.8,557.2,724.8,557.1,724.8,557.1z"/>
								</g>
							</g>
						</g>
					</g>
				</g>
				<g>
					<g>
						<g>
							<g>
								<path class="st36" d="M687.2,705.6c8.2-4.9,10.6-19.7,7.2-28.7c-3.4-8.9-9.4-17.1-10.4-26.6c-0.7-7.3,1.7-14.8,0-22
									c-2.3-9.7-11.7-17.2-11.6-27.1c0.1-5.6,3.2-10.8,3-16.4c-0.3-6.8-5.6-12.3-8.8-18.3c-5-9.2-5.3-20.1-7-30.4
									c-1.7-10.3-5.6-21.4-14.8-26.5c-1.4,8.8-3.7,14.8-2.9,26.7c0.3,4.3,5.2,12.4,5.9,21.8c0.4,5.6,0.7,11.2,1,16.8
									c0.3,5.4,0.7,11,2.6,16.1c1.5,3.9,3.9,7.4,5,11.5c2.1,7.6-0.7,15.8,1,23.5c1.4,6.5,5.9,12.1,6.9,18.7
									c1.3,9.3-4.7,18.9-1.6,27.7c1.5,4.4,5.1,7.9,6.2,12.4c0.8,3.5-0.1,7.2,0.6,10.8c1.2,5.7,12,10.1,17.8,9.8"/>
							</g>
						</g>
					</g>
					<g>
						<g>
							<g>
								<g>
									<path class="st23" d="M647,518.3c0,0,0,0.2,0,0.5c0,0.4,0.1,0.8,0.2,1.4c0.2,1.3,0.4,3.1,0.8,5.5c0.5,2.4,1.7,5.1,2.7,8.4
										c1.1,3.3,2.1,7,3,11.3c0.9,4.2,1.7,8.9,2.6,13.9c0.9,5,1.7,10.5,4.2,15.8c1.2,2.6,2.5,5.3,3.4,8.1c1,2.8,1.5,5.8,1.7,8.9
										c0.4,6.2,1.3,12.7,2.4,19.2c2.5,13,4.9,25.4,7.1,36.6c2.3,11.2,4.4,21.3,6.1,29.8c1.8,8.4,3.2,15.3,4.2,20.1
										c0.5,2.3,0.9,4.2,1.2,5.5c0.1,0.6,0.2,1.1,0.3,1.4c0.1,0.3,0.1,0.5,0.1,0.5s0-0.2-0.1-0.5c-0.1-0.4-0.1-0.8-0.2-1.4
										c-0.2-1.3-0.6-3.1-1-5.5c-0.9-4.8-2.3-11.7-3.9-20.2c-1.7-8.5-3.7-18.6-6-29.9c-2.2-11.3-4.5-23.6-7-36.6
										c-1.2-6.5-2-12.9-2.4-19.1c-0.3-3.1-0.8-6.2-1.8-9.1c-1-2.9-2.3-5.5-3.5-8.1c-2.5-5.2-3.4-10.6-4.2-15.6
										c-0.9-5-1.7-9.7-2.7-13.9s-2.1-8-3.1-11.3s-2.3-6-2.8-8.3c-0.5-2.4-0.7-4.2-1-5.5c-0.1-0.6-0.2-1.1-0.3-1.4
										C647,518.5,647,518.3,647,518.3z"/>
								</g>
							</g>
						</g>
					</g>
				</g>
			</g>
		</g>
		<g>
			<g>
				<g>
					<path class="st36" d="M1097.3,642c3.3,0.5,6.2,2.6,8.2,5.3c1.9,2.7,3,6,3.5,9.3c1,6.4-0.7,13.6-3.1,19.6
						c-6.5-3.1-9.9-10.7-11.4-14.7C1092,655.3,1091.6,642.5,1097.3,642"/>
				</g>
			</g>
			<g>
				<g>
					<path class="st36" d="M1114.7,684.7c-1.8-3.3-1.4-7.5,0.6-10.7c2-3.1,5.5-5.2,9.1-5.9c1.7-0.3,3.6-0.4,5,0.7
						c1.2,1,1.6,2.8,1.3,4.4c-0.3,1.6-1.3,3-2.4,4.2C1124.6,681.5,1120.3,684.8,1114.7,684.7"/>
				</g>
			</g>
			<g>
				<g>
					<g>
						<path class="st23" d="M1113.3,705.6c0,0-0.1-0.5-0.2-1.3c-0.1-0.9-0.2-2.2-0.3-3.6c-0.2-3-0.6-7.4,0.5-12s3.3-8.4,5.5-10.6
							c1.1-1.1,2.1-1.9,2.8-2.3c0.4-0.2,0.7-0.4,0.9-0.5c0.2-0.1,0.3-0.2,0.3-0.1c0.1,0.1-1.7,0.9-3.8,3.2
							c-2.1,2.2-4.3,5.9-5.3,10.5c-1.1,4.5-0.7,8.8-0.6,11.8c0.1,1.5,0.2,2.8,0.2,3.6C1113.4,705.1,1113.4,705.6,1113.3,705.6z"/>
					</g>
				</g>
			</g>
			<g>
				<g>
					<g>
						<path class="st23" d="M1098.5,651.6c0,0,0.1,0.2,0.2,0.5c0.1,0.4,0.3,0.9,0.5,1.6c0.5,1.4,1.1,3.3,1.9,5.8
							c1.5,4.9,3.6,11.7,5.7,19.3s3.8,14.5,5,19.5c0.6,2.5,1.1,4.5,1.4,5.9c0.1,0.7,0.3,1.2,0.3,1.6c0.1,0.4,0.1,0.6,0.1,0.6
							s-0.1-0.2-0.2-0.6c-0.1-0.4-0.2-0.9-0.4-1.6c-0.4-1.5-0.9-3.5-1.5-5.9c-1.3-5-3-11.9-5.1-19.5s-4.1-14.4-5.5-19.3
							c-0.7-2.4-1.3-4.4-1.7-5.8c-0.2-0.7-0.3-1.2-0.5-1.6C1098.5,651.8,1098.4,651.6,1098.5,651.6z"/>
					</g>
				</g>
			</g>
			<g>
				<g>
					<path class="st36" d="M1106.8,691c-3.3-7.2-10.2-12.5-18-13.9c-2-0.3-4.4-0.3-5.5,1.4s-0.1,3.9,1.1,5.5
						c5,6.7,14.3,9.8,22.4,7.4"/>
				</g>
			</g>
			<g>
				<g>
					<g>
						<path class="st23" d="M1091.3,682.8c0,0,0.4,0,1.2,0.2c0.4,0.1,0.9,0.2,1.4,0.3c0.6,0.2,1.2,0.3,1.9,0.6
							c0.7,0.2,1.4,0.5,2.2,0.9c0.8,0.3,1.6,0.8,2.4,1.2c1.7,1,3.4,2.2,5,3.7s2.9,3.2,4,4.8c0.5,0.8,1,1.6,1.3,2.4
							c0.4,0.8,0.7,1.5,0.9,2.2c0.3,0.7,0.4,1.3,0.6,1.9c0.2,0.5,0.3,1,0.4,1.4c0.2,0.8,0.2,1.2,0.2,1.2c-0.1,0-0.4-1.7-1.5-4.4
							c-0.3-0.7-0.6-1.4-1-2.1c-0.4-0.8-0.8-1.5-1.3-2.3c-1-1.6-2.3-3.2-3.9-4.7s-3.3-2.7-4.9-3.7c-0.8-0.5-1.6-0.9-2.4-1.2
							c-0.8-0.4-1.5-0.6-2.2-0.9C1093,683.1,1091.2,682.9,1091.3,682.8z"/>
					</g>
				</g>
			</g>
		</g>
		<g>
			<g>
				<path class="st20" d="M1095.4,145.1l-7-23.5c6.9-8.1,9.1-15.2,10.9-26.4c5-32.3-17.2-62.5-49.5-67.5
					c-32.3-5-62.5,17.2-67.5,49.5s17.2,62.5,49.5,67.5c13.5,2.1,26.6-0.6,37.7-6.8l3.7-2.8L1095.4,145.1z"/>
			</g>
		</g>
		<g>
			<g>
				<g>
					<g>
						<g>
							<g>
								<g>
									<g>
										<path class="st19" d="M1050.9,78.3h-3.6l-8-11.1V60c0,0-5.6-0.3-5,9.2c0.7,9.5-0.1,7.1-0.1,7.1s-12,0-13,1.1
											c-0.7,0.8-1,12.6-1.2,19.1c-0.1,3.2,1.9,6.3,4.9,7c0.4,0.1,0.9,0.2,1.3,0.2c3,0,18.2-2.4,18.2-2.4h6.3v-23L1050.9,78.3
											L1050.9,78.3z"/>
									</g>
								</g>
							</g>
						</g>
						<g>
							<g>
								<g>
									<polygon class="st19" points="1061.4,76.3 1059.1,101.3 1052.9,101.3 1052.9,76.8 									"/>
								</g>
							</g>
						</g>
					</g>
				</g>
			</g>
			<g>
				<g>
					<g>
						<path class="st23" d="M1040.8,26.3c0,0-0.3,0-1,0s-1.8,0-3,0.1c-0.7,0-1.4,0-2.2,0.1c-0.8,0.1-1.7,0.2-2.7,0.4
							c-1,0.1-2,0.3-3.1,0.4c-1.1,0.3-2.3,0.6-3.5,0.9c-4.9,1.3-10.8,3.4-16.9,7.4c-6.1,3.9-12.4,9.5-17.5,17
							c-5,7.6-8.9,17.1-9.9,27.8c-0.1,2.7-0.4,5.4-0.2,8.2c0.1,1.4,0.1,2.8,0.3,4.2c0.2,1.4,0.4,2.8,0.6,4.2
							c1.1,5.6,2.8,11.3,5.7,16.6c2.8,5.3,6.4,10.4,10.9,14.9c4.5,4.4,9.8,8.3,15.6,11.2c5.8,3,12.3,5,19.1,5.9
							c1.7,0.3,3.4,0.3,5.1,0.4c1.7,0.1,3.4,0.2,5.1,0.1c3.4-0.1,6.9-0.6,10.3-1.3c7.4-1.6,14.4-4.6,20.5-8.6l-0.6,0.1
							c7.1,2.9,14.1,5.6,20.9,8.4l1.2,0.5l-0.4-1.3c-2.1-7.7-4.2-15.1-6.1-22.3l-0.1,0.6c5.9-7.8,9.6-16.7,11.1-25.5
							c0.8-4.4,1.1-8.8,0.8-13.1c-0.1-2.1-0.2-4.2-0.6-6.3c-0.2-1-0.3-2-0.5-3.1c-0.2-1-0.5-2-0.7-3c-4-15.7-13.7-27.3-23.3-34
							c-4.8-3.4-9.5-5.8-13.9-7.3c-1.1-0.4-2.1-0.8-3.1-1.1c-1-0.3-2-0.5-3-0.8c-0.9-0.2-1.8-0.5-2.7-0.7c-0.9-0.2-1.7-0.3-2.5-0.4
							c-1.6-0.2-3-0.5-4.2-0.5s-2.2-0.1-3.1-0.1c-0.8,0-1.4,0-1.9,0C1041,26.2,1040.8,26.3,1040.8,26.3s0.2,0,0.6,0.1
							c0.5,0,1.1,0.1,1.9,0.1c0.8,0.1,1.9,0.1,3,0.2c1.2,0.1,2.6,0.4,4.1,0.6c6.1,1.1,15.4,3.6,24.8,10.5
							c9.4,6.6,18.8,18.1,22.7,33.6c0.2,1,0.5,1.9,0.7,2.9c0.1,1,0.3,2,0.5,3c0.4,2,0.5,4.1,0.6,6.2c0.3,4.2-0.1,8.5-0.8,12.8
							c-1.5,8.6-5.2,17.3-11,25l-0.2,0.2l0.1,0.3c2,7.2,4,14.7,6.1,22.3l0.9-0.8c-6.8-2.7-13.8-5.5-20.9-8.4l-0.3-0.1l-0.3,0.2
							c-6,3.9-12.8,6.9-20,8.4c-3.3,0.7-6.7,1.1-10.1,1.3c-1.7,0.1-3.4,0-5-0.1c-1.7-0.1-3.3-0.1-5-0.4c-6.6-0.8-12.9-2.8-18.6-5.7
							c-5.7-2.9-10.9-6.6-15.3-11c-4.3-4.4-7.9-9.4-10.7-14.6s-4.5-10.8-5.6-16.3c-0.2-1.4-0.4-2.8-0.6-4.1
							c-0.2-1.4-0.2-2.7-0.3-4.1c-0.3-2.7,0-5.4,0.1-8c1-10.5,4.7-19.9,9.6-27.4c5-7.5,11.1-13,17.1-16.9c5.9-4,11.8-6.2,16.6-7.5
							c1.2-0.3,2.4-0.6,3.4-0.9c1.1-0.2,2.1-0.3,3.1-0.5s1.8-0.3,2.6-0.4c0.8-0.1,1.6-0.1,2.2-0.2c1.3-0.1,2.3-0.2,3-0.2
							C1040.4,26.3,1040.8,26.3,1040.8,26.3z"/>
					</g>
				</g>
			</g>
		</g>
	</g>
</g>
</svg>
