<?xml version="1.0" encoding="utf-8"?>
<!-- Generator: Adobe Illustrator 26.0.1, SVG Export Plug-In . SVG Version: 6.00 Build 0)  -->
<svg version="1.1" id="Capa_1" xmlns="http://www.w3.org/2000/svg" xmlns:xlink="http://www.w3.org/1999/xlink" x="0px" y="0px"
	 viewBox="0 0 1080 261.7" style="enable-background:new 0 0 1080 261.7;" xml:space="preserve">
<style type="text/css">
	.st0{fill:#001689;}
</style>
<g>
	<path class="st0" d="M359.8,183.4c-6.6,0-12.5-0.9-17.8-2.5c-5.3-1.7-9.8-4.2-13.4-7.7c-3.7-3.5-6.5-7.9-8.5-13.2
		c-2-5.3-3-11.6-3-18.8V89.3h26.1v51.3c0,6.7,1.5,11.6,4.6,14.9c3.1,3.2,7.2,4.8,12.3,4.8c5.2,0,9.3-1.5,12.3-4.6
		c3.1-3.1,4.6-7.9,4.6-14.4v-52h26.1v51.2c0,7.5-1,13.9-3.1,19.3c-2.1,5.4-5,9.8-8.7,13.3c-3.8,3.5-8.3,6.1-13.6,7.7
		C372.4,182.5,366.5,183.4,359.8,183.4"/>
	<polygon class="st0" points="413.6,89.3 439.2,89.3 439.2,159.2 469.5,159.2 469.5,181.7 413.6,181.7 	"/>
	<polygon class="st0" points="490,111.7 462.3,111.7 462.3,89.3 543.3,89.3 543.3,111.7 515.6,111.7 515.6,181.7 490,181.7 	"/>
	<path class="st0" d="M548.6,89.3h43.7c7.1,0,13.2,0.9,18.1,2.6c4.9,1.8,8.9,4.2,12,7.4c5.4,5.3,8.2,12.4,8.2,21.5v0.3
		c0,7.1-1.7,13-5.2,17.7c-3.4,4.7-8.1,8.2-13.9,10.7l22,32.2H604l-18.6-28h-0.3h-11v28h-25.6V89.3z M591.1,133.6c4.4,0,7.8-1,10.2-3
		c2.4-2,3.6-4.6,3.6-8v-0.3c0-3.7-1.2-6.4-3.7-8.2c-2.5-1.8-5.8-2.7-10.1-2.7h-16.8v22.2H591.1z"/>
	<path class="st0" d="M675.4,88.6h24.7l39.3,93H712l-6.7-16.5h-35.6l-6.6,16.5h-26.9L675.4,88.6z M697.9,145.4l-10.3-26.3
		l-10.4,26.3H697.9z"/>
	<path class="st0" d="M779.7,183.5c-6.6,0-12.8-1.2-18.6-3.6c-5.8-2.4-10.9-5.7-15.1-10c-4.3-4.3-7.7-9.3-10.2-15.2
		c-2.5-5.8-3.8-12.2-3.8-19.1v-0.3c0-6.7,1.2-12.9,3.7-18.8c2.5-5.8,5.9-11,10.2-15.3c4.3-4.4,9.4-7.8,15.4-10.2
		c5.9-2.5,12.4-3.7,19.5-3.7c4.8,0,9.1,0.5,12.9,1.4c3.9,0.9,7.4,2.2,10.6,3.9c3.2,1.7,6.1,3.8,8.7,6.1c2.6,2.4,4.9,5,6.9,7.8
		l-19.3,14.9c-2.7-3.3-5.6-6-8.7-7.9c-3.1-1.9-7-2.9-11.5-2.9c-3.3,0-6.2,0.6-8.9,1.9c-2.7,1.3-5,3-6.9,5.2
		c-1.9,2.2-3.5,4.8-4.6,7.8c-1.1,3-1.6,6.2-1.6,9.5v0.3c0,3.5,0.6,6.7,1.6,9.7c1.1,3,2.6,5.6,4.6,7.9c1.9,2.2,4.2,3.9,6.9,5.2
		c2.7,1.3,5.6,1.9,8.9,1.9c2.4,0,4.6-0.3,6.5-0.8c2-0.5,3.8-1.3,5.4-2.3c1.6-1,3.2-2.2,4.6-3.6c1.4-1.4,2.9-2.9,4.3-4.6l19.3,13.7
		c-2.2,3-4.6,5.8-7.2,8.3c-2.6,2.6-5.6,4.8-8.9,6.6c-3.3,1.9-7,3.3-11.1,4.4C789.4,183,784.8,183.5,779.7,183.5"/>
	<polygon class="st0" points="828.4,89.3 902.5,89.3 902.5,111.1 853.6,111.1 853.6,125.1 897.9,125.1 897.9,145.2 853.6,145.2 
		853.6,159.9 903.2,159.9 903.2,181.7 828.4,181.7 	"/>
	<polygon class="st0" points="912.4,89.3 939.5,89.3 961.5,125.1 983.6,89.3 1010.6,89.3 1010.6,181.7 985.1,181.7 985.1,128.6 
		961.6,164.8 961.1,164.8 937.6,128.9 937.6,181.7 912.4,181.7 	"/>
	<path class="st0" d="M262.6,101.8l-43.6,63.5c-21.1,30.8-49.7,35.2-82.7,12.6c-33-22.6-39.2-50.8-18.1-81.7l43-62.7
		c-29,2.1-56.8,16.9-74.5,42.8C55.8,121.4,67.3,183,112.4,214c45.1,30.9,106.8,19.4,137.7-25.7C268.2,161.9,271.7,130,262.6,101.8"
		/>
	<path class="st0" d="M141.9,145.5l22.6,15.5c6.4,4.4,15.1,2.7,19.5-3.6l59.4-86.7c4.4-6.4,2.7-15.1-3.6-19.5l-22.6-15.5
		c-6.4-4.4-15.1-2.8-19.5,3.6L138.3,126C133.9,132.4,135.5,141.1,141.9,145.5"/>
</g>
</svg>
