<?xml version="1.0" encoding="utf-8"?>
<!-- Generator: Adobe Illustrator 26.0.0, SVG Export Plug-In . SVG Version: 6.00 Build 0)  -->
<svg version="1.1" id="Capa_1" xmlns="http://www.w3.org/2000/svg" xmlns:xlink="http://www.w3.org/1999/xlink" x="0px" y="0px"
	 viewBox="0 0 1080 1080" style="enable-background:new 0 0 1080 1080;" xml:space="preserve">
<style type="text/css">
	.st0{fill:#30B3A7;}
	.st1{fill:#EFF4F6;}
	.st2{fill:#FFFFFF;}
</style>
<g>
	<path class="st0" d="M798.6,897.6H545.4V167.1h253.2V897.6z M561.6,881.4h220.8V183.3H561.6V881.4z"/>
	<g>
		<polygon class="st1" points="675.5,909.9 116.4,909.9 116.4,171 575.8,171 578.2,286.4 675.5,287.6 		"/>
		<path class="st0" d="M683.6,918H108.3V162.9h475.5l2.4,115.6l97.4,1.2V918z M124.5,901.8h542.9V295.7l-97.1-1.2l-2.4-115.4H124.5
			V901.8z"/>
	</g>
	
		<rect x="617.5" y="151.2" transform="matrix(0.7604 -0.6495 0.6495 0.7604 1.8975 460.9433)" class="st0" width="16.2" height="153.5"/>
	<g>
		<g>
			<path class="st0" d="M280.1,557.7l128.3-131.2c27.1-27.7,71.1-27.7,98.2,0c26.8,27.4,26.9,71.7,0,99.2L394.8,640
				c-18.3,18.7-48.1,18.4-66-0.6c-17.3-18.3-16.7-47.4,0.9-65.4l87.9-89.8c3.8-3.9,10-3.9,13.8-0.1l14,13.7c3.9,3.8,3.9,10,0.2,13.8
				l-87.9,89.8c-3,3.1-3.2,8.2-0.4,11.2c2.7,2.8,6.9,2.9,9.6,0.1l111.8-114.2c12-12.3,12-32.2,0-44.5c-11.7-12-30.5-12-42.3,0
				L308.1,585.1c-21.3,21.7-21.6,56.9-0.7,78.5c20.8,21.5,54.4,21.5,75.2,0.2l105.2-107.6c3.8-3.9,10-3.9,13.8-0.2l14,13.7
				c3.9,3.8,3.9,10,0.2,13.8L410.5,691c-36.4,37.3-95.3,36.8-131.3-0.3C243.5,653.9,244.2,594.4,280.1,557.7z"/>
		</g>
	</g>
</g>
<circle class="st0" cx="775.5" cy="609.1" r="195.5"/>
<g>
	<path class="st2" d="M844.9,574c0,43.4-46.9,44.1-46.9,60.1v2.2c0,5-4,9-9,9h-27.1c-5,0-9-4-9-9v-3.7c0-23.1,17.6-32.4,30.8-39.8
		c11.4-6.4,18.3-10.7,18.3-19.2c0-11.2-14.3-18.6-25.8-18.6c-14.6,0-21.6,6.8-31,18.5c-3,3.8-8.6,4.5-12.5,1.6l-16.2-12.2
		c-3.8-2.9-4.7-8.3-1.9-12.3c15.2-21.8,34.6-34.1,64.4-34.1C811,516.5,844.9,541.3,844.9,574z M801.4,682.3
		c0,14.3-11.6,25.9-25.9,25.9s-25.9-11.6-25.9-25.9c0-14.3,11.6-25.9,25.9-25.9S801.4,668,801.4,682.3z"/>
</g>
</svg>
